<?xml version="1.0" encoding="UTF-8"?> <svg xmlns="http://www.w3.org/2000/svg" width="41" height="41" viewBox="0 0 41 41" fill="none"><g clip-path="url(#clip0_2387_29288)"><path d="M28.4748 37.7727L25.0796 35.5977H20.3316L13.6074 38.1971L16.5119 39.5764H21.6844L28.4748 37.7727Z" fill="#FD9F6A"></path><path d="M34.3902 23.7266L38.3159 26.578L37.5069 28.952L35.9021 31.5648L34.1912 31.3658L33.1832 29.8141L32.414 28.952L30.6899 29.3897L30.292 26.7504L31.7244 25.3048L34.3902 23.7266Z" fill="#FD9F6A"></path><path d="M1.00781 17.3995L2.29429 13.0361L4.60199 8.26157L9.05824 4.24299L13.3288 1.92202L18.6339 0.914062H22.228L26.8567 2.426L31.2599 4.24299L33.183 5.33052L30.6233 10.1581L32.175 12.6648L28.9124 14.7072L29.7612 17.3995L29.5092 18.7788H29.0848H28.0503L26.8567 16.2855L25.053 14.7072L23.0901 18.7788L20.3315 14.2165L15.9813 13.8054L15.2121 16.564L15.6232 17.8505L13.1564 20.7152L12.8248 24.7603L10.5039 29.8134L5.96804 18.7788L1.00781 18.3412V17.3995Z" fill="#FD9F6A"></path><path d="M34.6951 5.95493C30.8489 2.12202 25.7561 0 20.3316 0C14.894 0 9.78783 2.10876 5.95493 5.95493C2.10876 9.78783 0 14.894 0 20.3316C0 25.7693 2.10876 30.8622 5.95493 34.7084C9.78783 38.5413 14.894 40.6633 20.3316 40.6633C25.7693 40.6633 30.8622 38.5545 34.7084 34.7084C38.5413 30.8754 40.6633 25.7693 40.6633 20.3316C40.6633 14.9072 38.5413 9.8011 34.7084 5.96819L34.6951 5.95493ZM33.077 28.1699C33.0107 28.1699 32.9312 28.1699 32.8648 28.1964L31.2601 28.5943V26.8171L34.3635 24.7481L37.52 27.3741C36.9763 28.7004 36.2733 29.9603 35.4378 31.1142L34.4829 30.4776L33.9126 28.7534C33.7932 28.3953 33.4617 28.1566 33.0903 28.1566L33.077 28.1699ZM33.9391 22.9444L29.9205 25.6234C29.6818 25.7826 29.5359 26.0611 29.5359 26.3529V29.7083C29.5359 29.9736 29.6553 30.2256 29.8675 30.398C30.0266 30.5174 30.2123 30.5837 30.398 30.5837C30.4643 30.5837 30.5439 30.5837 30.6102 30.5571L32.5068 30.0797L32.9179 31.3264C32.9842 31.5121 33.1036 31.6712 33.2627 31.7773L34.3503 32.5068C32.7587 34.337 30.8622 35.8224 28.6871 36.91L26.0346 34.9206L25.9815 34.8808H19.4563L13.0902 37.4405C9.73478 36.0214 6.88331 33.6606 4.86739 30.6235C2.82494 27.5598 1.75067 24.0054 1.75067 20.3184C1.75067 19.9868 1.75067 19.642 1.79046 19.2308L4.97349 19.7613L9.48279 30.0664C9.61542 30.3715 9.92046 30.5837 10.252 30.5837C10.6101 30.5837 10.9019 30.398 11.0478 30.1062L13.7268 24.7348C13.7932 24.6155 13.8197 24.4829 13.8197 24.3502V21.2998L16.3131 18.1831C16.5253 17.9178 16.565 17.5465 16.4059 17.2547L15.9284 16.2998L16.7905 14.5757L19.7746 15.0664L22.2547 19.4033C22.4139 19.6685 22.6924 19.8409 23.0107 19.8409C23.3555 19.8409 23.6473 19.642 23.7932 19.3635L25.2653 16.4192L26.2733 17.4271L26.8834 19.2441C26.963 19.4696 27.1089 19.642 27.3211 19.7481L28.6606 20.4245C28.7799 20.4908 28.9126 20.5173 29.0452 20.5173C29.1778 20.5173 29.2972 20.4908 29.4033 20.4377C29.642 20.3316 29.8144 20.1194 29.8807 19.8542L30.5571 17.1751C30.5969 17.016 30.5969 16.8436 30.5439 16.6844L30.093 15.3316L32.8516 13.6738C33.0638 13.5412 33.2097 13.3422 33.2627 13.0902C33.3158 12.8515 33.2627 12.5995 33.1036 12.4006L31.459 10.2122L33.4749 7.18836C35.8489 9.56237 37.5333 12.5332 38.3556 15.7958C39.1646 19.0319 39.0983 22.4271 38.1434 25.6367L34.9869 22.9974C34.8277 22.8648 34.6288 22.7985 34.4298 22.7985C34.2574 22.7985 34.085 22.8515 33.9391 22.9444ZM8.15653 6.2865C11.5385 3.35545 15.8489 1.73741 20.3316 1.73741C24.6685 1.73741 28.8595 3.26261 32.1752 6.02124L29.6685 9.78784C29.4696 10.0929 29.4696 10.504 29.6951 10.7958L31.1274 12.7056L28.5943 14.2176C28.2362 14.4298 28.0903 14.8542 28.2229 15.2388L28.8197 17.016L28.4749 18.3953L28.4219 18.3688L27.8648 16.6977C27.825 16.565 27.7455 16.4589 27.6526 16.3528L25.6367 14.3369C25.4775 14.1778 25.2521 14.0849 25.0266 14.0849C24.9868 14.0849 24.9338 14.0849 24.894 14.0849C24.6155 14.1247 24.3767 14.3104 24.2574 14.5491L22.9709 17.1221L21.0876 13.8329C20.955 13.6075 20.7428 13.4483 20.4775 13.4085L16.4457 12.7321C16.4457 12.7321 16.3528 12.7321 16.2998 12.7321C15.9682 12.7321 15.6765 12.9178 15.5173 13.2096L14.1778 15.8887C14.0584 16.1274 14.0584 16.4192 14.1778 16.6711L14.6022 17.52L12.268 20.4377C12.1486 20.5969 12.069 20.7826 12.069 20.9815V24.1248L10.3051 27.6526L6.35281 18.6208C6.23344 18.3555 5.99472 18.1566 5.70294 18.1168L1.94961 17.4934C2.626 13.1433 4.81434 9.16449 8.14327 6.2865H8.15653ZM19.8277 36.6314H25.4112L26.8701 37.719C24.7746 38.5147 22.573 38.9126 20.3316 38.9126C18.7401 38.9126 17.1619 38.7137 15.6367 38.3025L19.8277 36.6182V36.6314Z" fill="#252831"></path></g><defs><clipPath id="clip0_2387_29288"><rect width="40.65" height="40.65" fill="white"></rect></clipPath></defs></svg> 