<?xml version="1.0" encoding="UTF-8"?> <svg xmlns="http://www.w3.org/2000/svg" width="34" height="41" viewBox="0 0 34 41" fill="none"><g id="Layer_1" clip-path="url(#clip0_2387_28891)"><path id="Vector" d="M15.6219 30.658C17.9642 30.658 19.863 28.7593 19.863 26.417C19.863 24.0747 17.9642 22.1759 15.6219 22.1759C13.2797 22.1759 11.3809 24.0747 11.3809 26.417C11.3809 28.7593 13.2797 30.658 15.6219 30.658Z" fill="#68CDED"></path><g id="Group"><path id="Vector_2" d="M26.962 15.7677H7.87058V9.54573C7.87058 5.34454 11.2874 1.91446 15.5018 1.91446C19.7163 1.91446 23.1331 5.33125 23.1331 9.54573C23.1331 10.0775 23.5586 10.503 24.0904 10.503C24.6221 10.503 25.0476 10.0775 25.0476 9.54573C25.0476 4.28095 20.7666 0 15.5018 0C10.2371 0 5.95611 4.28095 5.95611 9.54573V15.7677H4.04165C1.8214 15.7677 0 17.5758 0 19.8094V36.3216C0 38.5419 1.80811 40.3633 4.04165 40.3633H26.962C29.1823 40.3633 31.0037 38.5552 31.0037 36.3216V19.7961C31.0037 17.5758 29.1956 15.7544 26.962 15.7544V15.7677ZM29.0759 36.3216C29.0759 37.4916 28.132 38.4355 26.962 38.4355H4.04165C2.8717 38.4355 1.92776 37.4916 1.92776 36.3216V19.7961C1.92776 18.6261 2.8717 17.6822 4.04165 17.6822H26.962C28.132 17.6822 29.0759 18.6261 29.0759 19.7961V36.3083V36.3216Z" fill="#3653A7"></path><path id="Vector_3" d="M15.5022 21.2852C12.6571 21.2852 10.3438 23.5985 10.3438 26.4436C10.3438 28.9563 12.1519 31.0569 14.5449 31.5089V34.5136C14.5449 35.0454 14.9704 35.4708 15.5022 35.4708C16.034 35.4708 16.4594 35.0454 16.4594 34.5136V31.5089C18.8525 31.0569 20.6606 28.9563 20.6606 26.4436C20.6606 23.5985 18.3473 21.2852 15.5022 21.2852ZM15.5022 29.6875C13.7207 29.6875 12.2582 28.2384 12.2582 26.4436C12.2582 24.6488 13.7074 23.1996 15.5022 23.1996C17.297 23.1996 18.7461 24.6488 18.7461 26.4436C18.7461 28.2384 17.297 29.6875 15.5022 29.6875Z" fill="#3653A7"></path><path id="Vector_4" d="M32.9044 13.7324L28.9824 12.5358C28.4772 12.3763 27.9321 12.6688 27.7858 13.174C27.6263 13.6792 27.9188 14.2243 28.424 14.3705L32.346 15.5671C32.4391 15.5937 32.5321 15.607 32.6252 15.607C33.0373 15.607 33.4229 15.3411 33.5425 14.9289C33.7021 14.4237 33.4096 13.8786 32.9044 13.7324Z" fill="#3653A7"></path><path id="Vector_5" d="M28.7034 9.98638C28.8496 9.98638 28.9959 9.94649 29.1421 9.88002L32.7849 8.00544C33.2502 7.76613 33.4364 7.18116 33.1971 6.71583C32.9578 6.25051 32.3728 6.06438 31.9075 6.30369L28.2647 8.17827C27.7993 8.41758 27.6132 9.00256 27.8525 9.46788C28.0254 9.80025 28.3577 9.98638 28.7034 9.98638Z" fill="#3653A7"></path></g></g><defs><clipPath id="clip0_2387_28891"><rect width="33.5829" height="40.35" fill="white"></rect></clipPath></defs></svg> 