<?xml version="1.0" encoding="UTF-8"?> <svg xmlns="http://www.w3.org/2000/svg" width="188" height="201" viewBox="0 0 188 201" fill="none"><g id="Group"><g id="Group_2"><path id="Vector" d="M152.556 102.487C152.556 101.562 153.3 100.818 154.225 100.818C155.151 100.818 155.895 101.562 155.895 102.487C155.895 103.413 155.145 104.157 154.225 104.157C153.305 104.157 152.556 103.407 152.556 102.487ZM152.556 92.6412C152.556 91.721 153.3 90.9717 154.225 90.9717C155.151 90.9717 155.895 91.721 155.895 92.6412C155.895 93.5613 155.145 94.3106 154.225 94.3106C153.305 94.3106 152.556 93.5668 152.556 92.6412ZM152.556 82.8007C152.556 81.875 153.3 81.1312 154.225 81.1312C155.151 81.1312 155.895 81.875 155.895 82.8007C155.895 83.7263 155.145 84.4701 154.225 84.4701C153.305 84.4701 152.556 83.7208 152.556 82.8007ZM152.556 72.9546C152.556 72.0345 153.3 71.2852 154.225 71.2852C155.151 71.2852 155.895 72.0345 155.895 72.9546C155.895 73.8747 155.145 74.6241 154.225 74.6241C153.305 74.6241 152.556 73.8747 152.556 72.9546Z" fill="white"></path><path id="Vector_2" d="M154.225 64.7761C154.115 64.7761 154.005 64.7596 153.895 64.743C153.79 64.721 153.685 64.6934 153.586 64.6493C153.487 64.6053 153.388 64.5557 153.299 64.4951C153.206 64.4345 153.118 64.3629 153.041 64.2857C152.732 63.9772 152.556 63.5474 152.556 63.1066C152.556 62.6658 152.732 62.2306 153.041 61.922C153.118 61.8449 153.2 61.7732 153.299 61.7181C153.388 61.6575 153.487 61.6024 153.586 61.5584C153.685 61.5198 153.79 61.4867 153.895 61.4647C154.109 61.4206 154.335 61.4206 154.55 61.4647C154.66 61.4867 154.765 61.5198 154.864 61.5584C154.963 61.6024 155.063 61.652 155.151 61.7181C155.239 61.7732 155.327 61.8449 155.404 61.922C155.713 62.2306 155.895 62.6603 155.895 63.1066C155.895 63.5529 155.713 63.9772 155.404 64.2857C155.327 64.3629 155.239 64.4345 155.151 64.4951C155.063 64.5502 154.963 64.6053 154.864 64.6493C154.765 64.6934 154.66 64.721 154.55 64.743C154.446 64.7596 154.335 64.7761 154.225 64.7761Z" fill="white"></path></g><path id="Vector_3" d="M29.4282 133.128L16.6234 134.489C16.2212 134.533 15.863 134.748 15.6371 135.079C15.4112 135.409 15.3451 135.822 15.4498 136.214L17.7915 144.682C17.9182 145.14 18.2818 145.503 18.7392 145.635C19.1469 145.751 19.5711 145.674 19.9127 145.426C19.9568 145.393 20.0009 145.36 20.045 145.316L30.5081 135.481C30.6734 135.327 30.7946 135.134 30.8662 134.924C30.9764 134.599 30.9654 134.241 30.8166 133.911C30.5742 133.376 30.0122 133.062 29.4282 133.123V133.128ZM26.7945 135.668L19.4003 142.616L17.7474 136.627L26.8 135.663L26.7945 135.668Z" fill="white"></path><path id="Vector_4" d="M13.0087 127.961C14.7113 126.633 15.0088 124.165 13.6809 122.462C12.3531 120.76 9.88468 120.462 8.18215 121.79C6.47962 123.118 6.18207 125.587 7.50994 127.289C8.8378 128.992 11.3062 129.289 13.0087 127.961ZM9.42737 123.383C10.2483 122.738 11.4439 122.887 12.0886 123.708C12.7332 124.529 12.5845 125.724 11.7635 126.369C10.9426 127.014 9.74692 126.865 9.10228 126.044C8.45763 125.223 8.60641 124.027 9.42737 123.383Z" fill="#F96000"></path><path id="Vector_5" d="M1.99455 140.36C3.0961 140.36 3.98909 139.467 3.98909 138.366C3.98909 137.264 3.0961 136.371 1.99455 136.371C0.892987 136.371 0 137.264 0 138.366C0 139.467 0.892987 140.36 1.99455 140.36Z" fill="#32C7E8"></path><g id="Group_3"><g id="Group_4" opacity="0.2"><path id="Vector_6" d="M184.106 153.782L112.914 112.679C108.401 110.073 101.106 110.072 96.6379 112.668L35.5397 148.173C31.0547 150.779 31.0933 154.994 35.6113 157.6L106.803 198.703C111.316 201.309 118.578 201.309 123.063 198.703L184.161 163.198C188.63 160.603 188.624 156.388 184.106 153.782Z" fill="#262830"></path></g><g id="Group_5"><g id="Group_6"><path id="Vector_7" d="M110.859 164.889L86.599 178.988C86.4558 179.071 86.3015 179.153 86.1472 179.225C83.7284 180.41 80.2793 180.52 77.6621 179.55C77.2268 179.396 76.8191 179.203 76.4444 178.988L34.7463 154.91C33.3302 154.095 32.625 153.02 32.625 151.951C32.625 151.902 32.6305 151.863 32.6305 151.814V146.447L38.8566 146.618L58.9619 134.932C61.7553 133.312 66.3009 133.312 69.1164 134.932L88.1363 145.913L110.815 159.01C113.636 160.64 113.647 163.263 110.859 164.889Z" fill="#D6E4F9"></path><path id="Vector_8" d="M81.5301 181.24C80.07 181.24 78.6044 181.003 77.3041 180.518C76.8247 180.347 76.3564 180.127 75.9321 179.884L34.2339 155.807C32.5314 154.82 31.5947 153.448 31.5947 151.95V146.445C31.6002 146.164 31.7159 145.894 31.9198 145.702C32.1181 145.503 32.3716 145.388 32.6747 145.41L38.6032 145.575L58.455 134.037C61.5846 132.225 66.4993 132.219 69.6509 134.037L111.349 158.115C113.052 159.096 113.994 160.468 113.994 161.967C113.994 163.46 113.068 164.815 111.393 165.79L87.1335 179.89C86.9462 179.995 86.7644 180.094 86.5826 180.176C85.1335 180.882 83.3483 181.245 81.5411 181.245L81.5301 181.24ZM33.6774 147.514V151.807C33.6719 152.661 34.256 153.415 35.2753 154.005L76.9679 178.083C77.282 178.265 77.6346 178.435 78.0093 178.562C80.3951 179.444 83.5467 179.333 85.69 178.281C85.8498 178.209 85.9655 178.138 86.0812 178.072L110.33 163.978C111.327 163.399 111.9 162.661 111.895 161.956C111.895 161.239 111.311 160.49 110.291 159.9L68.593 135.823C66.1136 134.39 61.9372 134.39 59.4798 135.823L39.3746 147.509C39.2093 147.608 39.0054 147.619 38.8236 147.647L33.6719 147.503L33.6774 147.514Z" fill="#262830"></path></g><g id="Group_7"><g id="Group_8"><path id="Vector_9" d="M110.819 154.154L69.1148 130.076C66.3048 128.456 61.7592 128.451 58.9658 130.076L34.7061 144.176C31.9126 145.796 31.9347 148.435 34.7447 150.055L76.4484 174.133C79.2639 175.758 83.804 175.758 86.5975 174.133L110.857 160.033C113.651 158.413 113.634 155.78 110.819 154.154Z" fill="#BFD0E2"></path><path id="Vector_10" d="M81.5339 176.393C79.5173 176.393 77.5008 175.936 75.9249 175.027L34.2212 150.949C32.5242 149.968 31.5875 148.596 31.582 147.092C31.582 145.599 32.5022 144.243 34.1827 143.268L58.4423 129.168C61.5719 127.345 66.4866 127.35 69.6327 129.168L111.336 153.246C113.033 154.227 113.976 155.594 113.976 157.098C113.976 158.591 113.055 159.946 111.375 160.927L87.1154 175.027C85.5506 175.936 83.5395 176.388 81.5284 176.388L81.5339 176.393ZM64.0293 129.901C62.3708 129.901 60.7179 130.259 59.4892 130.976L35.2295 145.07C34.2322 145.648 33.6648 146.387 33.6648 147.097C33.6648 147.814 34.2488 148.563 35.2626 149.153L76.9663 173.23C79.4457 174.657 83.6166 174.663 86.074 173.23L110.334 159.131C111.331 158.552 111.904 157.814 111.898 157.103C111.898 156.387 111.314 155.638 110.295 155.054L68.5914 130.976C67.3517 130.259 65.6877 129.901 64.0293 129.901Z" fill="#262830"></path></g></g></g><g id="Group_9"><g id="Group_10"><path id="Vector_11" d="M133.415 84.799L133.206 170.565C133.2 173.413 132.192 175.419 130.566 176.366L136.919 172.675C138.545 171.733 139.547 169.727 139.558 166.873L139.768 81.1074L133.415 84.799Z" fill="#BFD0E2"></path><g id="Vector_12" style="mix-blend-mode:multiply" opacity="0.4"><path d="M133.415 84.799L133.206 170.565C133.2 173.413 132.192 175.419 130.566 176.366L136.919 172.675C138.545 171.733 139.547 169.727 139.558 166.873L139.768 81.1074L133.415 84.799Z" fill="#262830"></path></g><path id="Vector_13" d="M130.572 177.407C130.214 177.407 129.866 177.22 129.674 176.889C129.387 176.393 129.552 175.754 130.048 175.468C131.409 174.68 132.164 172.939 132.17 170.564L132.379 84.7986C132.379 84.4294 132.577 84.0878 132.897 83.9005L139.244 80.2089C139.569 80.0215 139.966 80.0215 140.285 80.2089C140.605 80.3962 140.803 80.7378 140.803 81.1125L140.594 166.878C140.583 170.019 139.465 172.399 137.437 173.573L131.095 177.259C130.93 177.358 130.748 177.402 130.572 177.402V177.407ZM134.456 85.3991L134.247 170.57C134.247 171.523 134.137 172.404 133.938 173.203L136.396 171.771C137.756 170.983 138.511 169.242 138.517 166.867L138.726 82.9087L134.456 85.3881V85.3991Z" fill="#262830"></path></g><g id="Group_11"><path id="Vector_14" d="M21.2746 2.28092C18.7621 0.831846 16.481 0.694127 14.8391 1.65283L8.48633 5.34437C10.1338 4.39118 12.4093 4.52342 14.9218 5.9725L124.396 69.1755L130.749 65.4839L21.2746 2.28092Z" fill="#BFD0E2"></path><path id="Vector_15" d="M124.396 70.2177C124.215 70.2177 124.038 70.1681 123.879 70.0745L14.4043 6.8715C12.3105 5.66485 10.3931 5.43894 9.01018 6.24337C8.50879 6.52988 7.88066 6.35908 7.58864 5.86871C7.30213 5.37283 7.46742 4.73368 7.96331 4.44717H7.96882L14.3106 0.755632C16.3658 -0.434486 19.016 -0.214119 21.7874 1.38372L131.262 64.5867C131.581 64.774 131.78 65.1156 131.78 65.4848C131.78 65.8595 131.581 66.2011 131.262 66.3884L124.914 70.08C124.749 70.1736 124.573 70.2232 124.391 70.2232L124.396 70.2177ZM12.9001 3.97885C13.7266 4.21026 14.5806 4.57391 15.4456 5.0753L124.396 67.9752L128.672 65.4903L20.7516 3.17992C18.6578 1.97879 16.7404 1.7474 15.363 2.55183L12.9001 3.97885Z" fill="#262830"></path></g><g id="Group_12"><path id="Vector_16" d="M133.422 84.7966L133.235 159.912L133.207 170.557C133.191 176.298 129.124 178.612 124.133 175.725L14.6583 112.522C9.66088 109.629 5.62219 102.643 5.63872 96.9071L5.66626 86.2567L5.8481 11.1415C5.85912 5.40032 9.93084 3.0862 14.9227 5.97333L124.397 69.1763C129.394 72.0579 133.433 79.0554 133.422 84.7966Z" fill="#BFD0E2"></path><path id="Vector_17" d="M128.193 178.015C126.766 178.015 125.207 177.552 123.614 176.626L14.1401 113.424C8.85619 110.371 4.58058 102.96 4.60262 96.9052L4.812 11.1395C4.82302 7.98794 5.9525 5.6022 7.98562 4.42861C10.0353 3.24951 12.6855 3.4754 15.4459 5.06773L124.92 68.2707C130.199 71.3176 134.474 78.7283 134.463 84.7946L134.248 170.56C134.237 173.712 133.108 176.098 131.075 177.271C130.21 177.767 129.234 178.015 128.193 178.015ZM10.8783 5.76749C10.195 5.76749 9.57245 5.92175 9.02698 6.23581C7.65504 7.02371 6.9002 8.76483 6.89469 11.1451L6.68531 96.9162C6.66327 102.305 10.4761 108.906 15.1815 111.627L124.656 174.83C126.744 176.031 128.65 176.263 130.033 175.469C131.4 174.682 132.16 172.94 132.166 170.56L132.38 84.7946C132.397 79.3895 128.584 72.7887 123.879 70.0779L14.4045 6.87497C13.1373 6.14216 11.9361 5.77301 10.8783 5.77301V5.76749Z" fill="#262830"></path></g><g id="Group_13"><path id="Vector_18" d="M126.354 70.555C126.475 70.6542 126.597 70.7644 126.712 70.8691C126.905 71.0399 127.092 71.2107 127.28 71.387C127.401 71.5027 127.522 71.6239 127.643 71.7506C127.82 71.9325 127.996 72.1143 128.167 72.3071C128.277 72.4283 128.382 72.5495 128.486 72.6708C128.745 72.9738 128.999 73.2879 129.247 73.6074C129.302 73.6791 129.357 73.7452 129.407 73.8113C129.699 74.2025 129.974 74.6047 130.239 75.0179C130.31 75.1281 130.371 75.2383 130.442 75.3485C130.641 75.6681 130.828 75.9932 131.01 76.3183C131.082 76.4505 131.153 76.5827 131.225 76.715C131.423 77.0951 131.61 77.4753 131.787 77.861C131.814 77.9271 131.847 77.9878 131.88 78.0539C131.908 78.1145 131.93 78.1696 131.952 78.2302C132.073 78.5057 132.184 78.7867 132.288 79.0677C132.327 79.1723 132.365 79.2825 132.404 79.3872C132.492 79.6351 132.575 79.8831 132.657 80.1365C132.69 80.2357 132.718 80.3349 132.751 80.4286C132.85 80.7702 132.944 81.1063 133.021 81.4479C133.032 81.4864 133.038 81.5195 133.043 81.5581C133.109 81.8611 133.17 82.1641 133.219 82.4672C133.236 82.5719 133.252 82.6711 133.263 82.7757C133.302 83.0237 133.33 83.2661 133.352 83.5085C133.363 83.6077 133.374 83.7069 133.379 83.8061C133.401 84.1367 133.418 84.4673 133.418 84.7924L139.771 81.1007C139.771 80.7757 139.754 80.4451 139.732 80.1145C139.726 80.0154 139.715 79.9162 139.704 79.817C139.682 79.5746 139.655 79.3321 139.616 79.0842C139.6 78.9795 139.589 78.8803 139.572 78.7756C139.523 78.4726 139.462 78.1695 139.396 77.8665C139.39 77.8279 139.379 77.7949 139.374 77.7563C139.297 77.4147 139.203 77.0786 139.104 76.737C139.076 76.6378 139.043 76.5387 139.01 76.445C138.933 76.197 138.85 75.9436 138.757 75.6957C138.718 75.591 138.68 75.4808 138.641 75.3761C138.536 75.0951 138.421 74.8141 138.305 74.5386C138.277 74.478 138.255 74.4229 138.233 74.3623C138.228 74.3457 138.222 74.3292 138.217 74.3182C138.195 74.2686 138.167 74.219 138.145 74.1694C137.969 73.7838 137.781 73.3981 137.583 73.0179C137.511 72.8856 137.44 72.7534 137.368 72.6267C137.186 72.2961 136.999 71.9765 136.801 71.657C136.735 71.5468 136.668 71.4366 136.597 71.3264C136.332 70.9131 136.057 70.5109 135.765 70.1197C135.715 70.0481 135.655 69.982 135.605 69.9159C135.357 69.5963 135.104 69.2823 134.845 68.9792C134.801 68.9241 134.757 68.869 134.712 68.8139C134.652 68.7423 134.586 68.6817 134.525 68.61C134.354 68.4172 134.178 68.2354 134.002 68.0535C133.881 67.9323 133.759 67.8111 133.638 67.6899C133.451 67.5136 133.263 67.3428 133.071 67.172C132.949 67.0673 132.834 66.9571 132.712 66.8579C132.503 66.6816 132.283 66.5163 132.068 66.3565C131.963 66.2794 131.858 66.1913 131.754 66.1196C131.429 65.8882 131.098 65.6733 130.762 65.4805L124.409 69.172C124.745 69.3649 125.076 69.5798 125.401 69.8112C125.506 69.8883 125.61 69.971 125.715 70.0481C125.93 70.2079 126.15 70.3732 126.36 70.5495L126.354 70.555Z" fill="#BFD0E2"></path><path id="Vector_19" d="M133.417 85.8389C133.235 85.8389 133.059 85.7949 132.899 85.7012C132.574 85.5139 132.375 85.1723 132.375 84.7976C132.375 84.5001 132.364 84.1971 132.342 83.8885L133.351 83.5138L132.315 83.6075C132.293 83.3816 132.271 83.1612 132.232 82.9353L132.188 82.6598C132.138 82.3568 132.083 82.0813 132.023 81.8003C131.924 81.3705 131.841 81.0565 131.747 80.7369L132.651 80.1473L131.659 80.4614C131.582 80.2245 131.505 79.9876 131.417 79.7506L131.306 79.4476C131.202 79.1721 131.097 78.9076 130.981 78.6487L131.813 77.9544L130.877 78.4007C130.662 77.9269 130.486 77.5633 130.293 77.1996L130.089 76.8249C129.918 76.5053 129.736 76.1968 129.549 75.8938L130.232 75.0177L129.362 75.5797C129.108 75.1885 128.844 74.8028 128.568 74.4282C128.182 73.9268 127.94 73.6293 127.692 73.3427L127.395 73.0067C127.229 72.8193 127.064 72.643 126.893 72.4722L126.557 72.1361C126.381 71.9653 126.204 71.8055 126.028 71.6512L125.692 71.3592C125.692 71.3592 125.686 71.3592 125.681 71.3537C125.488 71.1884 125.29 71.0396 125.086 70.8909L124.794 70.665C124.491 70.4501 124.188 70.2517 123.879 70.0754C123.56 69.8881 123.361 69.5465 123.361 69.1773C123.361 68.8027 123.56 68.4666 123.879 68.2792L130.227 64.5877C130.552 64.4058 130.948 64.4003 131.262 64.5877C131.626 64.797 131.984 65.0284 132.337 65.2764C132.348 65.2874 132.535 65.4251 132.546 65.4362C132.904 65.7061 133.136 65.8825 133.362 66.0698L133.593 66.2737C133.946 66.5822 134.15 66.7695 134.348 66.9569L134.728 67.337C134.915 67.5244 135.103 67.7227 135.285 67.9266C135.285 67.9266 135.483 68.136 135.488 68.1415C135.896 68.6264 136.161 68.9514 136.42 69.2875C136.42 69.2875 136.585 69.4969 136.585 69.5024C136.893 69.9156 137.18 70.3344 137.461 70.7697L137.615 71.0231C137.88 71.4474 138.072 71.789 138.265 72.1251L138.491 72.5438C138.701 72.935 138.893 73.3372 139.075 73.745C139.081 73.7615 139.174 73.9543 139.18 73.9709C139.373 74.4227 139.489 74.7147 139.604 75.0067L139.725 75.3373C139.819 75.6128 139.913 75.8717 139.99 76.1307L140.089 76.4393C140.194 76.7919 140.293 77.15 140.376 77.5136C140.475 77.9544 140.535 78.274 140.59 78.5936L140.635 78.8966C140.679 79.1886 140.712 79.4476 140.734 79.7066L140.761 80.0372C140.789 80.3953 140.805 80.7534 140.805 81.1005C140.805 81.4697 140.607 81.8058 140.287 81.9931L133.94 85.6847C133.775 85.7784 133.599 85.828 133.417 85.828V85.8389ZM127.014 69.7614L127.4 70.0975C127.593 70.2683 127.797 70.4501 127.995 70.6429L128.282 70.9239C128.568 71.216 128.75 71.4088 128.932 71.6071L129.268 71.9873C129.543 72.3069 129.808 72.632 130.067 72.9681C130.067 72.9681 130.232 73.1829 130.232 73.1885C130.535 73.5962 130.827 74.0205 131.103 74.4502C131.103 74.4557 131.229 74.6596 131.235 74.6651C131.527 75.1334 131.72 75.4695 131.913 75.8111L132.133 76.2244C132.342 76.6211 132.541 77.0233 132.722 77.4255C132.728 77.4421 132.871 77.7616 132.882 77.7782C133.026 78.1088 133.141 78.4007 133.251 78.6983L133.378 79.0509C133.466 79.2933 133.549 79.5523 133.637 79.8168C133.637 79.8168 133.731 80.1198 133.731 80.1253C133.841 80.4889 133.94 80.8526 134.023 81.2108C134.122 81.646 134.183 81.9711 134.232 82.2962L134.282 82.6267C134.304 82.7645 134.32 82.9022 134.337 83.04L138.701 80.5055C138.701 80.4008 138.69 80.2961 138.679 80.1859L138.657 79.938C138.635 79.69 138.607 79.4586 138.574 79.2327L138.53 78.9407C138.486 78.6597 138.425 78.3732 138.365 78.0867C138.271 77.6734 138.183 77.3483 138.089 77.0288L138.006 76.7588C137.929 76.5109 137.847 76.2685 137.764 76.0315L137.654 75.734C137.555 75.4695 137.45 75.205 137.334 74.9461C137.334 74.9351 137.241 74.7202 137.235 74.7092C137.009 74.2188 136.833 73.8606 136.64 73.497L136.508 73.2491C136.265 72.8138 136.083 72.5052 135.896 72.1967L135.703 71.8826C135.455 71.4914 135.185 71.1058 134.91 70.7311C134.524 70.2352 134.282 69.9322 134.034 69.6457L133.869 69.4473C133.571 69.1222 133.406 68.9514 133.24 68.7806L132.899 68.439C132.722 68.2682 132.546 68.1084 132.364 67.9486L132.028 67.6566C131.83 67.4913 131.632 67.3426 131.428 67.1883L131.136 66.9679C131.003 66.8742 130.866 66.7806 130.728 66.6924L126.353 69.2379C126.601 69.4253 126.81 69.5851 127.014 69.7559V69.7614Z" fill="#262830"></path></g><g id="Group_14"><path id="Vector_20" d="M133.235 159.919L133.207 170.564C133.191 176.305 129.124 178.619 124.133 175.732L14.6583 112.529C9.66088 109.636 5.62219 102.65 5.63872 96.9142L5.66626 86.2637L133.229 159.919H133.235Z" fill="url(#paint0_linear_2076_26261)"></path><path id="Vector_21" d="M128.193 178.019C126.766 178.019 125.207 177.557 123.614 176.631L14.1401 113.428C8.85619 110.376 4.58058 102.965 4.60262 96.9097L4.63017 86.2592C4.63017 85.8845 4.82853 85.5484 5.1536 85.3611C5.47317 85.1738 5.86988 85.1793 6.18945 85.3611L133.752 159.016C134.072 159.204 134.27 159.545 134.27 159.92L134.243 170.565C134.232 173.716 133.102 176.102 131.069 177.27C130.204 177.766 129.229 178.014 128.188 178.014L128.193 178.019ZM6.70737 88.0609L6.68531 96.9207C6.66327 102.309 10.4761 108.91 15.1815 111.632L124.656 174.835C126.744 176.036 128.65 176.267 130.033 175.474C131.4 174.686 132.16 172.945 132.166 170.565L132.193 160.52L6.70737 88.0664V88.0609Z" fill="#262830"></path></g><g id="Group_15"><path id="Vector_22" d="M9.83105 83.8664L10.0074 11.1591C10.0074 10.7789 10.0514 8.89453 10.8669 8.89453C11.1038 8.89453 11.776 8.96068 12.8449 9.57778L122.319 72.7807C126.027 74.924 129.273 80.533 129.267 84.7921L129.096 152.728L9.83657 83.8664H9.83105Z" fill="white"></path><path id="Vector_23" d="M129.09 153.764C128.909 153.764 128.732 153.714 128.573 153.62L9.31284 84.759C8.99328 84.5716 8.79492 84.23 8.79492 83.8554L8.97124 11.148C8.99328 8.27742 10.1724 7.84766 10.8721 7.84766C11.2688 7.84766 12.1283 7.95234 13.3681 8.67413L122.842 71.8771C126.898 74.2187 130.319 80.1308 130.308 84.7921L130.137 152.728C130.137 153.103 129.939 153.439 129.614 153.626C129.454 153.72 129.278 153.764 129.096 153.764H129.09ZM10.8721 83.2658L128.055 150.926L128.22 84.7866C128.231 80.9187 125.167 75.6237 121.795 73.6788L12.3212 10.4758C11.8033 10.1783 11.4231 10.0406 11.1807 9.97995C11.1146 10.2279 11.054 10.6411 11.0484 11.1591L10.8721 83.2603V83.2658Z" fill="#262830"></path></g></g><g id="Group_16"><g id="Group_17"><path id="Vector_24" d="M46.0949 77.8301L35.1855 84.1663L24.21 77.8301L35.1139 71.4883L46.0949 77.8301Z" fill="#BFD0E2"></path><path id="Vector_25" d="M35.1852 85.2089C35.0034 85.2089 34.8271 85.1593 34.6673 85.0656L23.6918 78.7293C23.3722 78.542 23.1738 78.2004 23.1738 77.8312C23.1738 77.4566 23.3722 77.1149 23.6918 76.9276L34.5957 70.5858C34.9208 70.3985 35.3174 70.3985 35.637 70.5858L46.6126 76.9276C46.9321 77.1149 47.1305 77.4565 47.1305 77.8257C47.1305 78.2004 46.9321 78.542 46.6126 78.7293L35.7086 85.0656C35.5433 85.1593 35.367 85.2089 35.1852 85.2089ZM26.2814 77.8312L35.1797 82.9718L44.0119 77.8367L35.1136 72.6961L26.2814 77.8312Z" fill="#262830"></path></g><g id="Group_18"><path id="Vector_26" d="M46.0946 77.8281L45.9293 103.934L35.0254 97.6193L35.1852 84.1644L46.0946 77.8281Z" fill="#EC6B2C"></path><g id="Vector_27" style="mix-blend-mode:multiply" opacity="0.3"><path d="M46.0946 77.8281L45.9293 103.934L35.0254 97.6193L35.1852 84.1644L46.0946 77.8281Z" fill="#262830"></path></g><path id="Vector_28" d="M45.935 104.976C45.7531 104.976 45.5768 104.926 45.417 104.833L34.5132 98.5185C34.1881 98.3312 33.9897 97.9786 33.9952 97.604L34.155 84.149C34.155 83.7798 34.3534 83.4438 34.6729 83.2619L45.5768 76.9257C45.9019 76.7383 46.2986 76.7383 46.6182 76.9257C46.9433 77.113 47.1361 77.4601 47.1361 77.8348L46.9763 103.94C46.9763 104.309 46.7725 104.651 46.4529 104.833C46.2931 104.926 46.1168 104.971 45.935 104.971V104.976ZM36.0724 97.0254L44.9046 102.139L45.0424 79.6475L36.2212 84.7716L36.0724 97.0254Z" fill="#262830"></path></g><g id="Group_19"><path id="Vector_29" d="M35.1851 84.1683L35.0253 97.6232L24.0498 91.2814L24.2096 77.832L35.1851 84.1683Z" fill="#EC6B2C"></path><path id="Vector_30" d="M35.0251 98.6592C34.8433 98.6592 34.667 98.6096 34.5072 98.5159L23.5317 92.1796C23.2066 91.9923 23.0083 91.6397 23.0138 91.2651L23.1736 77.8101C23.1736 77.4409 23.3774 77.1048 23.697 76.9175C24.0221 76.7357 24.4133 76.7412 24.7328 76.9175L35.7084 83.2538C36.0334 83.4411 36.2318 83.7938 36.2263 84.1684L36.0665 97.6233C36.0665 97.9925 35.8626 98.3286 35.5431 98.5159C35.3833 98.6041 35.207 98.6537 35.0251 98.6537V98.6592ZM25.0965 90.6865L34.0114 95.8326L34.1436 84.7635L25.2287 79.6173L25.0965 90.6865Z" fill="#262830"></path></g></g><g id="Group_20"><path id="Vector_31" d="M75.8976 62.4652L64.9882 68.8015L54.0127 62.4652L64.9166 56.1289L75.8976 62.4652Z" fill="#BFD0E2"></path><path id="Vector_32" d="M64.9879 69.8436C64.8061 69.8436 64.6298 69.794 64.47 69.7004L53.4945 63.3641C53.1749 63.1768 52.9766 62.8351 52.9766 62.466C52.9766 62.0913 53.1749 61.7497 53.4945 61.5624L64.3984 55.2206C64.7235 55.0332 65.1202 55.0332 65.4397 55.2206L76.4153 61.5624C76.7348 61.7497 76.9332 62.0913 76.9332 62.4605C76.9332 62.8351 76.7348 63.1768 76.4153 63.3641L65.5114 69.7004C65.3461 69.794 65.1697 69.8436 64.9879 69.8436ZM56.0841 62.4605L64.9824 67.6011L73.8146 62.466L64.9163 57.3253L56.0841 62.4605Z" fill="#262830"></path></g><g id="Group_21"><path id="Vector_33" d="M75.8983 62.4629L75.7385 121.148L64.8291 114.834L64.9889 68.7992L75.8983 62.4629Z" fill="#EC6B2C"></path><g id="Vector_34" style="mix-blend-mode:multiply" opacity="0.3"><path d="M75.8983 62.4629L75.7385 121.148L64.8291 114.834L64.9889 68.7992L75.8983 62.4629Z" fill="#262830"></path></g><path id="Vector_35" d="M75.7386 122.189C75.5567 122.189 75.3804 122.139 75.2206 122.045L64.3168 115.731C63.9917 115.544 63.7988 115.202 63.7988 114.828L63.9586 68.7987C63.9586 68.4295 64.157 68.0879 64.4765 67.9006L75.3804 61.5643C75.7055 61.377 76.1022 61.377 76.4218 61.5643C76.7413 61.7517 76.9397 62.0933 76.9397 62.4679L76.7799 121.153C76.7799 121.528 76.5761 121.869 76.2565 122.051C76.0967 122.145 75.9204 122.189 75.7386 122.189ZM65.8705 114.233L74.7027 119.346L74.8515 64.2696L66.0303 69.3993L65.8705 114.233Z" fill="#262830"></path></g><g id="Group_22"><path id="Vector_36" d="M64.9879 68.8011L64.8281 114.835L53.8525 108.499L54.0123 62.4648L64.9879 68.8011Z" fill="#EC6B2C"></path><path id="Vector_37" d="M64.8278 115.878C64.6459 115.878 64.4696 115.829 64.3098 115.735L53.3343 109.399C53.0148 109.211 52.8164 108.87 52.8164 108.495L52.9762 62.4661C52.9762 62.0914 53.18 61.7498 53.4996 61.568C53.8192 61.3862 54.2159 61.3862 54.5355 61.568L65.511 67.9043C65.8305 68.0916 66.0289 68.4332 66.0289 68.8079L65.8691 114.837C65.8691 115.211 65.6653 115.553 65.3457 115.735C65.1859 115.829 65.0096 115.873 64.8278 115.873V115.878ZM54.8936 107.9L63.7974 113.041L63.9517 69.4029L55.0479 64.2623L54.8936 107.9Z" fill="#262830"></path></g><g id="Group_23"><g id="Group_24"><path id="Vector_38" d="M105.702 42.9437L94.7929 49.28L83.8174 42.9437L94.7268 36.6074L105.702 42.9437Z" fill="#BFD0E2"></path><path id="Vector_39" d="M94.7985 50.3224C94.6167 50.3224 94.4404 50.2728 94.2806 50.1792L83.305 43.8429C82.9855 43.6556 82.7871 43.314 82.7871 42.9448C82.7871 42.5702 82.9855 42.2286 83.305 42.0412L94.209 35.705C94.534 35.5176 94.9307 35.5176 95.2503 35.705L106.226 42.0412C106.545 42.2286 106.744 42.5702 106.744 42.9393C106.744 43.314 106.545 43.6556 106.226 43.8429L95.3219 50.1792C95.1566 50.2728 94.9803 50.3224 94.7985 50.3224ZM85.8946 42.9393L94.793 48.0799L103.625 42.9448L94.7269 37.8042L85.8946 42.9393Z" fill="#262830"></path></g><g id="Group_25"><path id="Vector_40" d="M105.7 42.9395L105.54 138.358L94.6309 132.044L94.7907 49.2757L105.7 42.9395Z" fill="#EC6B2C"></path><g id="Vector_41" style="mix-blend-mode:multiply" opacity="0.3"><path d="M105.7 42.9395L105.54 138.358L94.6309 132.044L94.7907 49.2757L105.7 42.9395Z" fill="#262830"></path></g><path id="Vector_42" d="M105.54 139.401C105.359 139.401 105.182 139.351 105.022 139.257L94.1185 132.943C93.7934 132.756 93.6006 132.414 93.6006 132.04L93.7604 49.2714C93.7604 48.9022 93.9587 48.5606 94.2783 48.3733L105.182 42.037C105.507 41.8497 105.898 41.8497 106.224 42.037C106.543 42.2243 106.741 42.5659 106.741 42.9406L106.582 138.359C106.582 138.729 106.383 139.07 106.058 139.257C105.898 139.351 105.722 139.395 105.54 139.395V139.401ZM95.6723 131.445L104.505 136.558L104.659 44.7478L95.832 49.8719L95.6723 131.445Z" fill="#262830"></path></g><g id="Group_26"><path id="Vector_43" d="M94.7926 49.2757L94.6327 132.044L83.6572 125.708L83.817 42.9395L94.7926 49.2757Z" fill="#EC6B2C"></path><path id="Vector_44" d="M94.6325 133.086C94.4506 133.086 94.2743 133.037 94.1145 132.943L83.139 126.607C82.8194 126.42 82.6211 126.078 82.6211 125.703L82.7809 42.9351C82.7809 42.5659 82.9792 42.2243 83.3043 42.037C83.6239 41.8497 84.0206 41.8497 84.3401 42.037L95.3157 48.3733C95.6352 48.5606 95.8336 48.9022 95.8336 49.2769L95.6738 132.045C95.6738 132.414 95.4755 132.756 95.1504 132.943C94.9906 133.037 94.8143 133.086 94.6325 133.086ZM84.6983 125.108L93.5966 130.249L93.7509 49.8774L84.8526 44.7368L84.6983 125.103V125.108Z" fill="#262830"></path></g></g><path id="Vector_45" d="M35.0254 78.9561C34.6452 78.9561 34.2926 78.7468 34.1108 78.4107L23.1352 58.1291C22.8652 57.6277 23.0526 56.9941 23.554 56.7186C24.0499 56.4431 24.689 56.6304 24.9645 57.1373L34.9758 75.6393L50.8385 42.9717C51.0038 42.6411 51.3234 42.4207 51.6925 42.3931C52.0727 42.3491 52.4143 42.5309 52.6292 42.8339L64.6516 60.0686L84.3216 17.6982C84.4979 17.318 84.8726 17.1362 85.3023 17.0976C85.7156 17.1141 86.0902 17.3731 86.2335 17.7643L94.9225 40.382L113.083 4.15508C113.342 3.63716 113.964 3.43328 114.477 3.69225C114.989 3.95121 115.199 4.57383 114.94 5.08624L95.7214 43.4179C95.5341 43.7871 95.1594 44.0295 94.7406 43.991C94.3274 43.9689 93.9693 43.71 93.8205 43.3243L85.1701 20.8002L65.7701 62.5865C65.6103 62.9226 65.2907 63.1541 64.9161 63.1871C64.5414 63.2312 64.1888 63.0494 63.9739 62.7463L51.9295 45.4841L35.9565 78.3832C35.7857 78.7358 35.4331 78.9617 35.0419 78.9672C35.0364 78.9672 35.0254 78.9672 35.0199 78.9672L35.0254 78.9561Z" fill="#262830"></path><path id="Vector_46" d="M112.869 21.0141C112.869 21.0141 112.819 21.0141 112.792 21.0141C112.219 20.97 111.789 20.4741 111.833 19.9011L112.803 6.86489L104.725 13.1185C104.274 13.4657 103.618 13.3885 103.265 12.9312C102.913 12.4739 102.995 11.8237 103.453 11.4711L113.376 3.79044C113.701 3.5425 114.142 3.4984 114.505 3.69675C114.869 3.88959 115.084 4.28079 115.051 4.69402L113.91 20.0554C113.872 20.6008 113.414 21.0196 112.874 21.0196L112.869 21.0141Z" fill="#262830"></path></g></g><defs><linearGradient id="paint0_linear_2076_26261" x1="5.0051" y1="98.1814" x2="126.386" y2="164.69" gradientUnits="userSpaceOnUse"><stop stop-color="#67CBEB"></stop><stop offset="1" stop-color="#5070C9"></stop></linearGradient></defs></svg> 