<?xml version="1.0" encoding="UTF-8"?> <svg xmlns="http://www.w3.org/2000/svg" width="37" height="41" viewBox="0 0 37 41" fill="none"><g clip-path="url(#clip0_2387_29293)"><path d="M9.34611 29.7031H1.71484C1.2894 29.7031 0.957031 30.0355 0.957031 30.4609V39.5945C0.957031 40.02 1.2894 40.3523 1.71484 40.3523H9.34611C9.77155 40.3523 10.1039 40.02 10.1039 39.5945V30.4609C10.1039 30.0355 9.77155 29.7031 9.34611 29.7031ZM8.5883 38.8367H2.47265V31.232H8.575V38.8367H8.5883Z" fill="#252831"></path><path d="M22.3227 40.3476C22.7481 40.3476 23.0805 40.0153 23.0805 39.5898V21.3359C23.0805 20.9105 22.7481 20.5781 22.3227 20.5781H14.6914C14.266 20.5781 13.9336 20.9105 13.9336 21.3359V39.5898C13.9336 40.0153 14.266 40.3476 14.6914 40.3476H22.3227ZM15.4492 22.0937H21.5516V38.8187H15.4492V22.0937Z" fill="#252831"></path><path d="M27.6533 40.35H35.2846C35.71 40.35 36.0424 40.0176 36.0424 39.5922V13.6406C36.0424 13.2151 35.71 12.8828 35.2846 12.8828H27.6533C27.2279 12.8828 26.8955 13.2151 26.8955 13.6406V39.5922C26.8955 40.0176 27.2279 40.35 27.6533 40.35ZM28.4111 14.3984H34.5135V38.8211H28.4111V14.3984Z" fill="#252831"></path><path d="M1.34316 26.5507C1.54259 26.5507 1.74201 26.471 1.87496 26.3247L15.8213 12.3917L20.2751 16.8455C20.5809 17.1512 21.0595 17.1512 21.3653 16.8455L34.6602 3.53727L34.0752 9.20089C34.0353 9.61303 34.3411 9.99859 34.7665 10.0385H34.8463C35.2319 10.0385 35.5642 9.74598 35.6041 9.34714L36.4151 1.54303V1.51644C36.4151 1.43667 36.4018 1.3702 36.3885 1.30373C36.3885 1.27714 36.3885 1.23725 36.3752 1.21066C36.3486 1.1176 36.2822 1.01124 36.2024 0.931468C36.1226 0.851699 36.0163 0.798519 35.9232 0.758635C35.8966 0.74534 35.8833 0.74534 35.8434 0.74534C35.7637 0.732045 35.6972 0.71875 35.6174 0.71875H35.5908L27.7867 1.52974C27.3746 1.56962 27.0688 1.94188 27.0954 2.36732C27.1353 2.77946 27.5075 3.08524 27.933 3.05865L33.5966 2.47368L20.8335 15.2501L16.3797 10.7963C16.0872 10.5038 15.582 10.5038 15.2895 10.7963L0.811368 25.2877C0.505586 25.5935 0.505586 26.0721 0.811368 26.3779C0.957612 26.4975 1.14374 26.564 1.34316 26.564V26.5507Z" fill="#252831"></path><path d="M9.62549 18.6279C14.6184 18.6279 18.666 14.5803 18.666 9.5874C18.666 4.59446 14.6184 0.546875 9.62549 0.546875C4.63254 0.546875 0.584961 4.59446 0.584961 9.5874C0.584961 14.5803 4.63254 18.6279 9.62549 18.6279Z" fill="#FD9F6A"></path><path d="M9.70527 19.4238C15.0631 19.4238 19.4105 15.0631 19.4105 9.71857C19.4105 4.37402 15.0631 0 9.70527 0C4.34743 0 0 4.36073 0 9.70527C0 15.0498 4.36073 19.4105 9.70527 19.4105V19.4238ZM9.70527 1.72834C14.1059 1.72834 17.6822 5.30466 17.6822 9.70527C17.6822 14.1059 14.1059 17.6822 9.70527 17.6822C5.30466 17.6822 1.72834 14.1192 1.72834 9.70527C1.72834 5.29137 5.30466 1.72834 9.70527 1.72834Z" fill="#252831"></path><path d="M7.85695 13.7068H9.0535V14.4779C9.0535 14.9565 9.43905 15.3421 9.91766 15.3421C10.3963 15.3421 10.7818 14.9565 10.7818 14.4779V13.6669C11.9385 13.4941 12.8425 12.5102 12.8425 11.3004C12.8425 9.97091 11.7657 8.89403 10.4362 8.89403H9.41246C9.02691 8.89403 8.73442 8.58825 8.73442 8.12293C8.73442 7.73737 9.0402 7.44489 9.41246 7.44489H11.1009V7.6576C11.1009 8.13622 11.4865 8.52177 11.9651 8.52177C12.4437 8.52177 12.8292 8.13622 12.8292 7.6576V6.58072C12.8292 6.1021 12.4437 5.71655 11.9651 5.71655H10.7685V4.91886C10.7685 4.44024 10.383 4.05469 9.90437 4.05469C9.42575 4.05469 9.0402 4.44024 9.0402 4.91886V5.72984C7.88355 5.90268 6.97949 6.89979 6.97949 8.20269C6.97949 9.50559 8.05638 10.6091 9.38587 10.6091H10.4096C10.7951 10.6091 11.0876 10.9149 11.0876 11.2871C11.0876 11.6594 10.7818 11.9651 10.4096 11.9651H8.72112V11.8322C8.72112 11.3536 8.33557 10.968 7.85695 10.968C7.37834 10.968 6.99279 11.3536 6.99279 11.8322V12.8293C6.99279 13.3345 7.37834 13.7068 7.85695 13.7068Z" fill="#252831"></path></g><defs><clipPath id="clip0_2387_29293"><rect width="36.428" height="40.35" fill="white"></rect></clipPath></defs></svg> 