<?xml version="1.0" encoding="UTF-8"?> <svg xmlns="http://www.w3.org/2000/svg" width="39" height="39" viewBox="0 0 39 39" fill="none"><g id="Layer_1" clip-path="url(#clip0_2387_28883)"><path id="Vector" d="M26.7352 31.1871C29.3131 31.1871 31.403 29.0973 31.403 26.5194C31.403 23.9414 29.3131 21.8516 26.7352 21.8516C24.1572 21.8516 22.0674 23.9414 22.0674 26.5194C22.0674 29.0973 24.1572 31.1871 26.7352 31.1871Z" fill="#68CDED"></path><path id="Vector_2" d="M11.8383 7.35938L16.019 14.2866H7.41406L11.8383 7.35938Z" fill="#68CDED"></path><g id="Group"><path id="Vector_3" d="M37.5588 0H0.7712C0.338246 0 0 0.338246 0 0.7712V37.5588C0 37.9782 0.338246 38.33 0.7712 38.33H37.5588C37.9782 38.33 38.33 37.9918 38.33 37.5588V0.7712C38.33 0.351775 37.9918 0 37.5588 0ZM36.7876 36.7876H1.52887V1.52887H36.7876V36.7876Z" fill="#3653A7"></path><path id="Vector_4" d="M26.8294 21.457C23.8663 21.457 21.458 23.8653 21.458 26.8284C21.458 29.7914 23.8663 32.1997 26.8294 32.1997C29.7924 32.1997 32.2007 29.7914 32.2007 26.8284C32.2007 23.8653 29.7924 21.457 26.8294 21.457ZM26.8294 30.6573C24.7187 30.6573 23.0004 28.939 23.0004 26.8284C23.0004 24.7177 24.7187 22.9994 26.8294 22.9994C28.94 22.9994 30.6583 24.7177 30.6583 26.8284C30.6583 28.939 28.94 30.6573 26.8294 30.6573Z" fill="#3653A7"></path><path id="Vector_5" d="M6.89972 15.3284H16.1C16.3706 15.3284 16.6277 15.1796 16.763 14.9361C16.8983 14.6925 16.8983 14.3949 16.763 14.1649L12.1628 6.49345C11.8922 6.03343 11.121 6.03343 10.8504 6.49345L6.25029 14.1649C6.10146 14.4084 6.10146 14.6925 6.25029 14.9361C6.38559 15.1796 6.64266 15.3284 6.91325 15.3284H6.89972ZM11.4999 8.38762L14.747 13.7996H8.25271L11.4999 8.38762Z" fill="#3653A7"></path><path id="Vector_6" d="M8.4294 29.131C8.00998 29.131 7.6582 29.4692 7.6582 29.9022C7.6582 30.3351 7.99645 30.6734 8.4294 30.6734C15.0726 30.6734 17.5079 24.9773 19.8621 19.4842C22.081 14.3158 24.1781 9.43152 29.5495 9.2421L29.3465 9.44505C29.0489 9.7427 29.0489 10.2298 29.3465 10.5274C29.4954 10.6763 29.6983 10.7574 29.8877 10.7574C30.0771 10.7574 30.2801 10.6763 30.4289 10.5274L31.9578 8.99856C32.2554 8.70091 32.2554 8.21383 31.9578 7.91618L30.4289 6.3873C30.1313 6.08965 29.6442 6.08965 29.3465 6.3873C29.0489 6.68496 29.0489 7.17204 29.3465 7.46969L29.5901 7.71323C23.1905 7.88912 20.7821 13.4769 18.455 18.8889C16.1955 24.1655 14.0578 29.158 8.4294 29.158V29.131Z" fill="#3653A7"></path></g></g><defs><clipPath id="clip0_2387_28883"><rect width="38.33" height="38.33" fill="white"></rect></clipPath></defs></svg> 