<?xml version="1.0" encoding="UTF-8"?> <svg xmlns="http://www.w3.org/2000/svg" width="218" height="201" viewBox="0 0 218 201" fill="none"><g id="Group"><g id="Group_2"><g id="Group_3"><path id="Vector" d="M166.675 120.371L190.711 112.698L184.547 103.572L153.269 57.2766L146.096 46.6668L144.79 44.7325L137.44 47.0791L136.869 38.524C136.824 37.8264 136.907 37.2366 137.059 36.7039L142.018 35.1184H142.037L135.905 26.0496L134.529 24.0202L128.536 15.1481L126.519 12.1674L122.549 6.29492L80.1604 19.8284L80.4331 36.057L61.7818 38.4352L22.3231 64.6205L38.1904 69.8842L38.2601 70.2647L11.6182 78.7691L53.3028 140.462L70.394 134.862L73.7045 181.703L93.7129 175.317L110.049 199.416L152.387 185.914L152.438 185.882L151.208 167.973L168.312 162.513L187.679 149.664L199.279 141.965L204.174 138.718L166.682 120.371H166.675ZM132.74 157.078L132.848 157.008L132.88 157.033L132.74 157.078Z" fill="white"></path><g id="Group_4"><path id="Vector_2" d="M95.7675 58.7194C95.7675 58.7194 95.165 49.9804 96.3193 48.8896C96.611 48.6169 135.841 37.4744 135.867 37.8676C135.892 38.2608 138.182 46.207 137.021 46.6826C135.86 47.1583 102.395 58.2628 102.395 58.2628L105.654 110.164L99.1921 112.739L95.7612 58.713L95.7675 58.7194Z" fill="#BFD0E2"></path><path id="Vector_3" d="M66.3659 96.2123C66.8225 95.6478 61.7744 38.432 61.7744 38.432C61.7744 38.432 68.2558 36.8592 68.2621 36.9924C68.2685 37.1256 72.7584 94.6522 72.7584 94.6522L66.3596 96.2123H66.3659Z" fill="#BFD0E2"></path><path id="Vector_4" d="M79.9189 178.528L90.1736 171.463L92.7421 174.932L79.9189 178.528Z" fill="#BFD0E2"></path><path id="Vector_5" d="M53.4417 139.616C53.4417 139.616 50.6576 131.156 56.6506 129.583C61.4641 128.321 69.5435 134.613 69.5435 134.613L53.4353 139.616H53.4417Z" fill="#BFD0E2"></path><path id="Vector_6" d="M110.042 199.419C110.023 199.121 106.871 153.219 106.871 153.219C106.871 153.219 117.671 157.506 120.195 160.309C126.404 167.183 125.916 176.043 125.916 176.043L151.2 167.97L152.38 185.911L110.042 199.413V199.419Z" fill="#BFD0E2"></path><path id="Vector_7" d="M129.962 174.033C130.482 173.861 161.785 152.248 161.785 152.248L200.73 140.998L168.304 162.51L129.962 174.033Z" fill="#BFD0E2"></path></g><path id="Vector_8" d="M110.087 200.644C109.675 200.657 109.269 200.46 109.028 200.105L93.2114 176.767L74.0782 182.874C73.7167 182.988 73.3299 182.931 73.0128 182.722C72.7021 182.513 72.5055 182.17 72.4738 181.79L69.2775 136.522L53.683 141.634C53.163 141.805 52.5922 141.608 52.2814 141.152L10.5967 79.4584C10.3811 79.135 10.3304 78.7355 10.4572 78.3676C10.584 77.9998 10.8758 77.7145 11.2436 77.6003L34.8415 70.0663L21.9359 65.7856C21.492 65.6397 21.1685 65.2465 21.1051 64.7835C21.0417 64.3206 21.251 63.8576 21.6442 63.5976L61.1029 37.4124C61.2107 37.3426 61.3249 37.2919 61.4454 37.2538L79.7668 32.0282L78.9361 19.9153C78.898 19.3508 79.2468 18.8308 79.7859 18.6596L122.175 5.12612C122.695 4.96123 123.259 5.15783 123.57 5.6081L143.052 34.4443C143.362 34.9072 143.324 35.5225 142.957 35.941C142.76 36.163 142.494 36.3024 142.215 36.3468L138.111 37.6596C138.08 37.9133 138.073 38.1733 138.092 38.446L138.562 45.4347L144.415 43.5639C144.929 43.399 145.5 43.5956 145.81 44.0459L191.731 112.011C191.947 112.334 191.998 112.734 191.871 113.102C191.744 113.47 191.452 113.755 191.085 113.869L169.966 120.611L204.713 137.613C205.106 137.803 205.373 138.196 205.398 138.634C205.423 139.071 205.22 139.496 204.853 139.737L168.99 163.532C168.895 163.595 168.793 163.646 168.685 163.678L152.501 168.846L153.662 185.792C153.693 186.236 153.484 186.654 153.116 186.901C153.021 186.965 152.869 187.047 152.761 187.079L110.423 200.581C110.315 200.612 110.201 200.631 110.093 200.638L110.087 200.644ZM93.6681 174.085C94.0803 174.072 94.4862 174.268 94.7271 174.624L110.544 197.962L151.138 185.018L149.971 168.054C149.933 167.489 150.281 166.969 150.82 166.798L167.759 161.388L201.694 138.875L166.13 121.473C165.679 121.251 165.407 120.782 165.445 120.281C165.483 119.78 165.819 119.355 166.294 119.203L188.763 112.03L144.276 46.1893L137.801 48.2568C137.439 48.3709 137.046 48.3138 136.735 48.1046C136.425 47.8889 136.228 47.5465 136.203 47.1723L135.632 38.6172C135.581 37.8372 135.657 37.1015 135.866 36.3786C135.981 35.9854 136.285 35.6746 136.672 35.5477L140.077 34.4633L122.035 7.76441L81.4411 20.727L82.2718 32.8715C82.3099 33.4486 81.9421 33.9813 81.384 34.1399L62.2888 39.5876L25.0878 64.2698L38.5641 68.7408C38.9953 68.8867 39.3124 69.2482 39.3885 69.6921L39.4583 70.0727C39.5661 70.6751 39.2046 71.2712 38.6212 71.4551L13.5457 79.4648L53.7908 139.027L70.0004 133.719C70.3556 133.598 70.7551 133.656 71.0659 133.865C71.383 134.074 71.5795 134.423 71.6049 134.797L74.8075 180.078L93.3256 174.167C93.4334 174.129 93.5476 174.11 93.6554 174.11L93.6681 174.085ZM132.778 158.3C132.296 158.319 131.839 158.053 131.624 157.596C131.364 157.044 131.548 156.378 132.061 156.042L132.169 155.972C132.638 155.668 133.247 155.712 133.66 156.08C133.989 156.372 134.148 156.835 134.059 157.266C133.964 157.697 133.666 158.059 133.241 158.192L133.101 158.236C132.994 158.268 132.879 158.287 132.772 158.293L132.778 158.3Z" fill="#262830"></path><path id="Vector_9" d="M80.1531 19.8281L77.572 21.5404L74.9972 23.2463L63.4044 30.9388C66.4738 32.4418 69.1564 36.4056 69.391 39.7985L73.6147 100.73L98.5316 112.919L94.4666 52.0634C94.2383 48.6832 96.5403 47.1613 99.6098 48.6643H99.6288L93.4963 39.5955L92.1201 37.5661L86.1271 28.694L83.1338 24.2674L80.1468 19.8407L80.1531 19.8281ZM102.394 58.2657L106.408 116.769L131.934 129.262L131.572 123.973C131.338 120.58 133.646 119.052 136.716 120.561L148.315 126.237L142.151 117.111L110.873 70.8162L103.7 60.2064L102.394 58.2721V58.2657ZM61.7745 38.4349L60.652 39.177L54.4941 43.2674L27.6176 61.1005L22.3158 64.6139L33.915 70.2898C36.9907 71.7928 39.667 75.7627 39.9016 79.1493L40.2631 84.4384L65.7889 96.9317L61.7745 38.4285V38.4349ZM11.6108 78.7752L17.2804 87.1781L30.7314 107.079L53.2955 140.468L53.0102 136.34C52.6043 130.455 56.606 127.797 61.9458 130.41L70.3614 134.526L73.5893 181.544L73.6971 181.709L78.8467 178.291H78.8594L78.834 178.253L90.4522 170.541H90.4649L90.4839 170.567L103.808 190.277L103.998 190.556H103.986L103.998 190.581L109.985 199.447L110.036 199.415L106.808 152.353L115.223 156.469C120.563 159.082 125.218 165.969 125.624 171.86L125.909 176.046L145.277 163.197L156.876 155.498L161.772 152.251L11.6045 78.7688L11.6108 78.7752Z" fill="url(#paint0_linear_2076_26949)"></path><path id="Vector_10" d="M98.5765 114.142C98.3799 114.148 98.177 114.11 97.993 114.015L73.0761 101.826C72.6829 101.636 72.4229 101.243 72.3912 100.805L68.1675 39.8728C67.9646 36.9302 65.5357 33.3408 62.8658 32.0344C62.4726 31.8442 62.2062 31.4509 62.1808 31.0133C62.1555 30.5757 62.3584 30.1508 62.7262 29.9099L79.4686 18.799C80.033 18.4248 80.7877 18.577 81.1682 19.1351L100.65 47.9713C100.961 48.4343 100.923 49.0495 100.555 49.468C100.187 49.8866 99.5848 50.0071 99.0838 49.7597C97.9994 49.227 97.0544 49.1572 96.471 49.5441C95.9002 49.9309 95.6149 50.8125 95.691 51.9667L99.756 112.823C99.7878 113.26 99.5785 113.679 99.217 113.926C99.0204 114.059 98.7984 114.129 98.5765 114.135V114.142ZM74.801 99.9297L97.1686 110.876L93.2493 52.1379C93.1098 50.0578 93.7694 48.4153 95.1138 47.5147C95.6592 47.1469 96.2744 46.9313 96.9403 46.8678L79.8174 21.5324L65.6688 30.9183C68.3514 32.9984 70.4062 36.5307 70.6281 39.7143L74.801 99.9361V99.9297Z" fill="#262830"></path><path id="Vector_11" d="M131.978 130.485C131.782 130.491 131.579 130.453 131.395 130.358L105.869 117.865C105.476 117.674 105.21 117.281 105.184 116.844L101.17 58.3404C101.132 57.7887 101.468 57.275 101.994 57.0911C102.521 56.9135 103.104 57.1038 103.415 57.5667L149.336 125.532C149.647 125.995 149.609 126.604 149.247 127.028C148.879 127.447 148.283 127.574 147.782 127.327L136.183 121.651C135.118 121.131 134.166 121.055 133.583 121.448C133.006 121.835 132.727 122.722 132.803 123.877L133.164 129.166C133.196 129.603 132.987 130.022 132.625 130.269C132.429 130.402 132.207 130.472 131.978 130.478V130.485ZM107.588 115.975L130.564 127.219L130.349 124.054C130.203 121.968 130.869 120.319 132.207 119.418C133.558 118.505 135.352 118.524 137.255 119.456L144.713 123.109L103.929 62.7479L107.581 115.987L107.588 115.975Z" fill="#262830"></path><path id="Vector_12" d="M65.8335 98.1602C65.6369 98.1666 65.4339 98.1286 65.25 98.0334L39.7243 85.5401C39.3311 85.3499 39.0647 84.9567 39.0393 84.5192L38.6778 79.23C38.4749 76.2874 36.046 72.6979 33.3761 71.3915L21.7769 65.7156C21.3838 65.5254 21.1174 65.1322 21.092 64.6947C21.0603 64.2571 21.2696 63.8322 21.6374 63.5912L61.0962 37.4058C61.464 37.1649 61.9269 37.1331 62.3201 37.3297C62.7133 37.5263 62.9733 37.9132 63.005 38.3508L67.0194 96.8539C67.0511 97.2915 66.8418 97.7101 66.4803 97.9574C66.2837 98.0906 66.0618 98.1602 65.8335 98.1666V98.1602ZM41.4429 83.6503L64.4193 94.8943L60.6966 40.6274L24.783 64.4536L34.4542 69.1846C37.9359 70.8842 40.8658 75.2284 41.1258 79.0651L41.4429 83.6439V83.6503Z" fill="#262830"></path><path id="Vector_13" d="M110.043 200.658C109.63 200.671 109.218 200.493 108.977 200.138L102.99 191.272C102.965 191.234 102.946 191.196 102.921 191.158C102.914 191.146 102.908 191.133 102.902 191.12L90.1356 172.228L79.7731 179.103C79.7033 179.185 79.6209 179.255 79.5321 179.312L74.3889 182.724C74.1162 182.901 73.7801 182.971 73.463 182.901C73.1396 182.838 72.8605 182.641 72.683 182.368L72.5752 182.204C72.461 182.026 72.3913 181.823 72.3786 181.614L69.2013 135.306L61.4199 131.501C59.2383 130.429 57.3104 130.328 56.004 131.209C54.7103 132.078 54.0888 133.866 54.2537 136.245L54.5391 140.373C54.5771 140.925 54.241 141.438 53.7146 141.622C53.1883 141.8 52.6048 141.61 52.2941 141.147L10.6093 79.4536C10.2986 78.9907 10.3367 78.3819 10.6981 77.957C11.066 77.5385 11.6621 77.4116 12.1631 77.659L162.331 151.141C162.724 151.332 162.99 151.725 163.016 152.163C163.047 152.6 162.838 153.025 162.47 153.266L126.607 177.06C126.24 177.301 125.777 177.333 125.383 177.136C124.99 176.94 124.73 176.553 124.698 176.116L124.413 171.93C124.039 166.444 119.682 159.995 114.704 157.559L108.197 154.376L111.279 199.314C111.311 199.758 111.102 200.176 110.734 200.424C110.531 200.563 110.29 200.633 110.055 200.639L110.043 200.658ZM105.109 190.029L108.508 195.065L105.584 152.448C105.553 152.01 105.762 151.592 106.123 151.344C106.491 151.097 106.954 151.065 107.347 151.262L115.763 155.378C121.54 158.206 126.411 165.411 126.848 171.79L126.988 173.864L159.299 152.422L15.1945 81.908L51.755 136.01C51.6408 132.922 52.6428 130.505 54.6088 129.186C56.6762 127.797 59.473 127.835 62.479 129.313L70.8946 133.435C71.2878 133.625 71.5541 134.019 71.5795 134.456L74.6743 179.591L77.9213 177.435C77.9847 177.358 78.0608 177.295 78.1433 177.238L89.7614 169.526C90.0468 169.336 90.4083 169.273 90.7445 169.355C91.0742 169.438 91.3596 169.647 91.5245 169.939L105.007 189.884C105.039 189.934 105.071 189.985 105.096 190.042L105.109 190.029Z" fill="#262830"></path><path id="Vector_14" d="M99.6799 49.8939C99.1472 49.9129 98.6399 49.5767 98.4686 49.0377C98.2593 48.3908 98.6208 47.6996 99.2677 47.4903L136.678 35.5297C137.325 35.3268 138.016 35.6818 138.225 36.3287C138.435 36.9755 138.073 37.6669 137.426 37.8762L100.016 49.8367C99.9082 49.8748 99.794 49.8939 99.6799 49.8939Z" fill="#262830"></path><path id="Vector_15" d="M102.439 59.4952C101.9 59.5142 101.399 59.1782 101.227 58.6391C101.018 57.9923 101.38 57.301 102.026 57.0918L137.065 45.9047C137.712 45.7018 138.403 46.0569 138.612 46.7038C138.822 47.3507 138.46 48.0419 137.813 48.2512L102.775 59.4382C102.667 59.4762 102.553 59.4952 102.439 59.4952Z" fill="#262830"></path><path id="Vector_16" d="M148.361 127.459C147.822 127.478 147.321 127.142 147.149 126.602C146.94 125.956 147.301 125.264 147.948 125.055L167.728 118.739C168.375 118.536 169.067 118.891 169.276 119.538C169.485 120.185 169.124 120.876 168.477 121.085L148.697 127.402C148.589 127.44 148.475 127.459 148.361 127.459Z" fill="#262830"></path><path id="Vector_17" d="M161.822 153.48C161.283 153.499 160.782 153.163 160.611 152.624C160.402 151.977 160.763 151.286 161.41 151.077L203.799 137.543C204.446 137.34 205.137 137.696 205.346 138.342C205.556 138.989 205.194 139.681 204.547 139.89L162.159 153.423C162.051 153.461 161.937 153.48 161.822 153.48Z" fill="#262830"></path><path id="Vector_18" d="M125.961 177.276C125.422 177.295 124.921 176.959 124.75 176.42C124.541 175.773 124.902 175.082 125.549 174.872L152.609 166.235C153.256 166.032 153.948 166.387 154.157 167.034C154.366 167.681 154.005 168.372 153.358 168.581L126.297 177.219C126.189 177.257 126.075 177.276 125.961 177.276Z" fill="#262830"></path><path id="Vector_19" d="M98.7544 114.13C98.2217 114.149 97.7207 113.813 97.5431 113.286C97.3338 112.639 97.6826 111.948 98.3295 111.732L105.305 109.449C105.952 109.24 106.644 109.589 106.859 110.236C107.069 110.883 106.72 111.574 106.073 111.79L99.0969 114.073C98.9827 114.111 98.8686 114.13 98.7544 114.13Z" fill="#262830"></path><path id="Vector_20" d="M65.8335 98.1608C65.3008 98.1798 64.7998 97.8502 64.6222 97.3174C64.4129 96.6706 64.7617 95.9794 65.4086 95.7637L72.3846 93.4806C73.0315 93.2713 73.7227 93.6201 73.9383 94.267C74.1476 94.9139 73.7988 95.6051 73.1519 95.8207L66.1759 98.1038C66.0618 98.1419 65.9476 98.1608 65.8335 98.1608Z" fill="#262830"></path></g><path id="Vector_21" d="M53.6957 154.399L39.2491 157.652C38.7988 157.754 38.4183 158.045 38.2026 158.451C37.987 158.857 37.9617 159.333 38.1329 159.758L41.8936 169.023C42.0965 169.524 42.5595 169.886 43.0985 169.974C43.5742 170.051 44.0562 169.905 44.4113 169.581C44.4557 169.537 44.5001 169.492 44.5444 169.442L55.2304 156.923C55.4016 156.726 55.5158 156.492 55.5665 156.251C55.649 155.87 55.5919 155.464 55.3763 155.115C55.0275 154.545 54.3489 154.259 53.6893 154.412L53.6957 154.399ZM49.8145 158.458L43.8405 165.459L41.735 160.278L49.8145 158.458Z" fill="#FF6000"></path><path id="Vector_22" d="M201.485 121.213L216.262 122.139C216.725 122.17 217.169 121.993 217.492 121.663C217.816 121.333 217.968 120.883 217.923 120.426L216.915 110.476C216.858 109.937 216.522 109.461 216.027 109.227C215.59 109.024 215.089 109.024 214.657 109.24C214.6 109.265 214.543 109.303 214.486 109.335L200.718 118.353C200.496 118.498 200.325 118.689 200.204 118.904C200.014 119.247 199.963 119.653 200.065 120.046C200.236 120.693 200.807 121.156 201.485 121.194V121.213ZM206.35 118.403L214.049 113.355L214.613 118.917L206.35 118.397V118.403Z" fill="#FF6000"></path><path id="Vector_23" d="M31.569 140.998C29.0513 140.998 27.0029 143.021 27.0029 145.513C27.0029 148.006 29.0513 150.029 31.569 150.029C34.0867 150.029 36.1351 148.006 36.1351 145.513C36.1351 143.021 34.0867 140.998 31.569 140.998ZM31.569 147.384C30.529 147.384 29.6792 146.547 29.6792 145.513C29.6792 144.48 30.529 143.643 31.569 143.643C32.6091 143.643 33.4589 144.48 33.4589 145.513C33.4589 146.547 32.6091 147.384 31.569 147.384Z" fill="white"></path><path id="Vector_24" d="M201.701 93.6445C199.183 93.6445 197.135 95.6675 197.135 98.1598C197.135 100.652 199.183 102.675 201.701 102.675C204.219 102.675 206.267 100.652 206.267 98.1598C206.267 95.6675 204.219 93.6445 201.701 93.6445ZM201.701 100.031C200.661 100.031 199.811 99.1935 199.811 98.1598C199.811 97.1261 200.661 96.289 201.701 96.289C202.741 96.289 203.591 97.1261 203.591 98.1598C203.591 99.1935 202.741 100.031 201.701 100.031Z" fill="white"></path><path id="Vector_25" d="M184.47 170.48C181.953 170.48 179.904 172.504 179.904 174.996C179.904 177.488 181.953 179.511 184.47 179.511C186.988 179.511 189.037 177.488 189.037 174.996C189.037 172.504 186.988 170.48 184.47 170.48ZM184.47 176.867C183.43 176.867 182.581 176.03 182.581 174.996C182.581 173.962 183.43 173.125 184.47 173.125C185.51 173.125 186.36 173.962 186.36 174.996C186.36 176.03 185.51 176.867 184.47 176.867Z" fill="#32C7E8"></path><path id="Vector_26" d="M22.3166 164.072C23.3744 164.072 24.2318 163.223 24.2318 162.175C24.2318 161.128 23.3744 160.279 22.3166 160.279C21.2589 160.279 20.4014 161.128 20.4014 162.175C20.4014 163.223 21.2589 164.072 22.3166 164.072Z" fill="#32C7E8"></path><path id="Vector_27" d="M216.022 95.3197C217.079 95.3197 217.937 94.4708 217.937 93.4235C217.937 92.3763 217.079 91.5273 216.022 91.5273C214.964 91.5273 214.106 92.3763 214.106 93.4235C214.106 94.4708 214.964 95.3197 216.022 95.3197Z" fill="#32C7E8"></path><path id="Vector_28" d="M168.615 181.066C169.673 181.066 170.531 180.217 170.531 179.17C170.531 178.123 169.673 177.273 168.615 177.273C167.558 177.273 166.7 178.123 166.7 179.17C166.7 180.217 167.558 181.066 168.615 181.066Z" fill="white"></path><g id="Group_5"><path id="Vector_29" d="M180.201 68.6448C179.675 67.7633 179.954 66.6217 180.836 66.089C181.717 65.5563 182.865 65.848 183.391 66.7232C183.918 67.5984 183.632 68.7526 182.757 69.279C181.882 69.8053 180.734 69.5263 180.201 68.6448ZM174.545 59.2398C174.012 58.352 174.297 57.2168 175.179 56.6841C176.06 56.1514 177.202 56.4367 177.734 57.3183C178.261 58.1998 177.975 59.3477 177.1 59.874C176.225 60.4004 175.071 60.115 174.545 59.2398ZM168.888 49.8286C168.361 48.947 168.64 47.8055 169.522 47.2728C170.403 46.7401 171.551 47.0318 172.078 47.907C172.604 48.7885 172.319 49.9364 171.443 50.4627C170.568 50.9891 169.414 50.7037 168.888 49.8286Z" fill="white"></path><path id="Vector_30" d="M165.787 41.0559C165.679 41.1193 165.571 41.1701 165.451 41.2144C165.337 41.2525 165.222 41.2841 165.102 41.3032C164.981 41.3222 164.861 41.3222 164.74 41.3222C164.614 41.3222 164.493 41.2968 164.373 41.2714C163.897 41.1509 163.485 40.8466 163.231 40.4217C162.977 39.9968 162.895 39.4831 163.015 39.0075C163.047 38.8934 163.085 38.7728 163.142 38.665C163.187 38.5572 163.256 38.4494 163.326 38.3479C163.402 38.2528 163.478 38.1639 163.567 38.0751C163.745 37.9102 163.96 37.7835 164.195 37.7011C164.316 37.663 164.436 37.6312 164.55 37.6122C164.671 37.5932 164.791 37.5932 164.912 37.5995C165.032 37.5995 165.153 37.6186 165.273 37.6503C165.749 37.7708 166.167 38.0752 166.421 38.5001C166.675 38.925 166.744 39.4324 166.63 39.908C166.599 40.0221 166.561 40.1427 166.51 40.2568C166.453 40.3646 166.396 40.4661 166.326 40.5676C166.256 40.669 166.174 40.7514 166.079 40.8402C165.99 40.9163 165.895 40.9988 165.787 41.0559Z" fill="white"></path><g id="Group_6"><path id="Vector_31" d="M157.574 31.0113C157.041 30.1235 157.327 28.9883 158.208 28.4556C159.09 27.9229 160.231 28.2082 160.764 29.0897C161.29 29.9713 161.005 31.1191 160.13 31.6455C159.254 32.1719 158.1 31.8865 157.574 31.0113ZM151.917 21.6C151.391 20.7185 151.67 19.577 152.551 19.0443C153.433 18.5116 154.581 18.8033 155.107 19.6784C155.633 20.56 155.348 21.7078 154.473 22.2342C153.585 22.7669 152.443 22.4752 151.917 21.6Z" fill="white"></path><path id="Vector_32" d="M148.816 12.8274C148.708 12.8908 148.601 12.9415 148.48 12.9859C148.366 13.024 148.252 13.0556 148.131 13.0746C148.011 13.0937 147.89 13.0937 147.77 13.0937C147.643 13.0937 147.522 13.0683 147.402 13.0429C146.926 12.9224 146.514 12.6181 146.26 12.1932C146.007 11.7683 145.924 11.2546 146.045 10.779C146.076 10.6648 146.115 10.5443 146.172 10.4365C146.216 10.3287 146.286 10.2209 146.356 10.1194C146.432 10.0243 146.508 9.9354 146.596 9.84661C146.774 9.68173 146.99 9.55499 147.224 9.47254C147.345 9.43449 147.465 9.4027 147.579 9.38367C147.7 9.36465 147.82 9.36463 147.941 9.37098C148.061 9.37098 148.182 9.39005 148.302 9.42176C148.778 9.54225 149.197 9.84672 149.45 10.2716C149.704 10.6965 149.774 11.2038 149.66 11.6795C149.628 11.7936 149.59 11.9142 149.539 12.0283C149.482 12.1361 149.425 12.2376 149.355 12.3391C149.285 12.4405 149.203 12.5229 149.108 12.6117C149.019 12.6878 148.924 12.7703 148.816 12.8274Z" fill="white"></path></g></g></g><g id="Group_7"><path id="Vector_33" d="M1.3635 56.3716C0.608829 56.3716 0 55.7629 0 55.0082V37.1116C0 36.357 0.608829 35.748 1.3635 35.748C2.11818 35.748 2.72697 36.357 2.72697 37.1116V55.0082C2.72697 55.7629 2.11818 56.3716 1.3635 56.3716Z" fill="url(#paint1_linear_2076_26949)"></path><path id="Vector_34" d="M15.3342 48.3061C14.5795 48.3061 13.9707 47.6973 13.9707 46.9426V22.514C13.9707 21.7593 14.5795 21.1504 15.3342 21.1504C16.0888 21.1504 16.6977 21.7593 16.6977 22.514V46.9426C16.6977 47.6973 16.0888 48.3061 15.3342 48.3061Z" fill="url(#paint2_linear_2076_26949)"></path><path id="Vector_35" d="M29.3049 40.2387C28.5502 40.2387 27.9414 39.6298 27.9414 38.8752V1.36343C27.9414 0.608752 28.5502 0 29.3049 0C30.0596 0 30.6684 0.608752 30.6684 1.36343V38.8752C30.6684 39.6298 30.0596 40.2387 29.3049 40.2387Z" fill="url(#paint3_linear_2076_26949)"></path><path id="Vector_36" d="M43.2707 32.1732C42.516 32.1732 41.9072 31.5643 41.9072 30.8097V6.381C41.9072 5.62633 42.516 5.01758 43.2707 5.01758C44.0254 5.01758 44.6342 5.62633 44.6342 6.381V30.8097C44.6342 31.5643 44.0254 32.1732 43.2707 32.1732Z" fill="url(#paint4_linear_2076_26949)"></path></g></g><defs><linearGradient id="paint0_linear_2076_26949" x1="60.8775" y1="22.8227" x2="107.582" y2="189.726" gradientUnits="userSpaceOnUse"><stop stop-color="#67CBEB"></stop><stop offset="1" stop-color="#5070C9"></stop></linearGradient><linearGradient id="paint1_linear_2076_26949" x1="-0.894194" y1="-11.879" x2="1.92792" y2="60.5889" gradientUnits="userSpaceOnUse"><stop stop-color="#32C9EA"></stop><stop offset="1" stop-color="#4671CA"></stop></linearGradient><linearGradient id="paint2_linear_2076_26949" x1="13.4951" y1="-12.4359" x2="16.3172" y2="60.0257" gradientUnits="userSpaceOnUse"><stop stop-color="#32C9EA"></stop><stop offset="1" stop-color="#4671CA"></stop></linearGradient><linearGradient id="paint3_linear_2076_26949" x1="28.0112" y1="-13.007" x2="30.8333" y2="59.4607" gradientUnits="userSpaceOnUse"><stop stop-color="#32C9EA"></stop><stop offset="1" stop-color="#4671CA"></stop></linearGradient><linearGradient id="paint4_linear_2076_26949" x1="42.0214" y1="-13.5513" x2="44.8435" y2="58.9167" gradientUnits="userSpaceOnUse"><stop stop-color="#32C9EA"></stop><stop offset="1" stop-color="#4671CA"></stop></linearGradient></defs></svg> 