<?xml version="1.0" encoding="UTF-8"?> <svg xmlns="http://www.w3.org/2000/svg" width="355" height="440" viewBox="0 0 355 440" fill="none"><g clip-path="url(#clip0_2387_28902)"><path d="M327.871 64.0894L345.191 56.0394C345.731 55.7894 346.131 55.3094 346.291 54.7394C346.451 54.1694 346.351 53.5494 346.011 53.0594L338.661 42.2894C338.261 41.7094 337.581 41.3694 336.871 41.4094C336.251 41.4394 335.681 41.7594 335.321 42.2694C335.271 42.3394 335.231 42.4094 335.191 42.4894L325.211 61.3094C325.051 61.6094 324.971 61.9394 324.971 62.2594C324.971 62.7694 325.161 63.2694 325.531 63.6594C326.131 64.2894 327.061 64.4694 327.851 64.0994L327.871 64.0894ZM337.211 47.3494L341.321 53.3694L331.631 57.8694L337.211 47.3394V47.3494Z" fill="#3B52A1"></path><path d="M37.6898 160.653C37.7598 160.703 37.8298 160.743 37.9098 160.773L57.0798 170.073C57.3898 170.223 57.7098 170.283 58.0398 170.273C58.5498 170.253 59.0398 170.043 59.4098 169.663C60.0198 169.043 60.1598 168.103 59.7698 167.323L51.1098 150.293C50.8398 149.763 50.3498 149.373 49.7698 149.243C49.1898 149.103 48.5798 149.233 48.0998 149.583L37.5998 157.313C37.0298 157.733 36.7198 158.423 36.7798 159.133C36.8398 159.753 37.1698 160.303 37.6898 160.643V160.653ZM48.5698 154.273L53.4198 163.793L42.6998 158.593L48.5698 154.273Z" fill="#3B52A1"></path><path d="M329.1 74.5792C328.36 77.7392 330.32 80.9192 333.48 81.6592C336.64 82.3992 339.82 80.4392 340.56 77.2792C341.3 74.1192 339.34 70.9392 336.18 70.1992C333.02 69.4592 329.84 71.4192 329.1 74.5792ZM337.21 76.4892C336.9 77.7992 335.59 78.6092 334.28 78.2992C332.97 77.9892 332.16 76.6792 332.47 75.3692C332.78 74.0592 334.09 73.2492 335.4 73.5592C336.71 73.8692 337.52 75.1792 337.21 76.4892Z" fill="#3B52A1"></path><path d="M131.941 53.0693C135.101 53.8093 138.281 51.8493 139.021 48.6893C139.761 45.5293 137.801 42.3493 134.641 41.6093C131.481 40.8693 128.301 42.8293 127.561 45.9893C126.821 49.1493 128.781 52.3293 131.941 53.0693ZM130.921 46.7793C131.231 45.4693 132.541 44.6593 133.851 44.9693C135.161 45.2793 135.971 46.5893 135.661 47.8993C135.351 49.2093 134.041 50.0193 132.731 49.7093C131.421 49.3993 130.611 48.0893 130.921 46.7793Z" fill="#3B52A1"></path><path d="M352.92 69.1827C351.59 68.8727 350.26 69.6927 349.95 71.0227C349.64 72.3527 350.46 73.6827 351.79 73.9927C353.12 74.3027 354.45 73.4827 354.76 72.1527C355.07 70.8227 354.25 69.4927 352.92 69.1827Z" fill="#3B52A1"></path><path d="M145.2 63.3714C145.51 62.0414 144.69 60.7114 143.36 60.4014C142.03 60.0914 140.7 60.9114 140.39 62.2414C140.08 63.5714 140.9 64.9014 142.23 65.2114C143.56 65.5214 144.89 64.7014 145.2 63.3714Z" fill="#3B52A1"></path><path d="M49.5098 180.999C49.1998 182.329 50.0198 183.659 51.3498 183.969C52.6798 184.279 54.0098 183.459 54.3198 182.129C54.6298 180.799 53.8098 179.469 52.4798 179.159C51.1498 178.849 49.8198 179.669 49.5098 180.999Z" fill="#3B52A1"></path><path d="M211.49 95.2681C212.86 95.2681 213.96 94.1581 213.96 92.7981C213.96 91.4381 212.85 90.3281 211.49 90.3281C210.13 90.3281 209.02 91.4381 209.02 92.7981C209.02 94.1581 210.13 95.2681 211.49 95.2681Z" fill="#3B52A1"></path><path d="M345.61 98.28L317.93 82.3L318.01 81.86C318.01 81.86 318.03 81.74 318.03 81.73C318.13 81.12 318.21 80.49 318.29 79.86L318.3 79.75C318.37 79.17 318.43 78.59 318.48 78L318.5 77.67C318.52 77.47 318.53 77.27 318.54 77.07L318.57 76.66C318.58 76.48 318.6 76.3 318.61 76.12C318.61 75.98 318.62 75.84 318.62 75.71L318.67 74.22C318.67 73.94 318.67 73.66 318.67 73.37V72.3C318.67 71.65 318.64 70.99 318.61 70.29L318.59 70C318.56 69.45 318.54 68.9 318.49 68.35L318.37 66.95C318.35 66.73 318.33 66.51 318.31 66.29L318.25 65.75C318.22 65.46 318.19 65.17 318.15 64.88L317.96 63.41C317.92 63.12 317.88 62.83 317.83 62.55L317.77 62.12C317.73 61.85 317.68 61.58 317.63 61.31L317.41 60.02C317.28 59.34 317.15 58.65 317.01 58.04C317.01 58 316.99 57.95 316.98 57.9L316.95 57.74C316.82 57.14 316.68 56.53 316.54 55.93L316.22 54.64C316.16 54.42 316.11 54.2 316.05 53.98L315.51 52.03C315.43 51.76 315.35 51.49 315.27 51.22L314.94 50.12C314.74 49.47 314.53 48.82 314.32 48.2C314.32 48.2 314.29 48.1 314.28 48.09L314.05 47.42C313.89 46.96 313.73 46.5 313.56 46.03L313.47 45.81C313.36 45.51 313.24 45.21 313.13 44.91L312.88 44.24C312.8 44.03 312.72 43.82 312.64 43.61L312.57 43.44C312.15 42.39 311.71 41.34 311.25 40.3L311.14 40.04C311.11 39.97 311.07 39.89 311 39.74C310.34 38.27 309.64 36.82 308.9 35.36L308.61 34.8C307.93 33.5 307.35 32.44 306.77 31.42C306.32 30.65 305.87 29.88 305.4 29.12C305.4 29.11 305.35 29.04 305.34 29.03C305 28.49 304.66 27.95 304.31 27.42L304.13 27.14C304.13 27.14 304.09 27.07 304.07 27.04C303.65 26.4 303.22 25.76 302.79 25.14L302.11 24.19C301.9 23.89 301.69 23.6 301.48 23.31L300.52 22.04C300.38 21.85 300.24 21.67 300.1 21.49L299.86 21.19C299.69 20.97 299.51 20.75 299.33 20.53L299.02 20.15C298.9 20 298.78 19.85 298.66 19.71L298.34 19.33C298.11 19.05 297.87 18.78 297.64 18.51L297.46 18.3C297.36 18.18 297.25 18.05 297.14 17.93L296.75 17.5C296.51 17.24 296.28 16.98 296.04 16.72L295.13 15.75C294.9 15.51 294.66 15.27 294.42 15.02L294.05 14.64C293.92 14.51 293.79 14.39 293.66 14.27L293.36 13.98C293.16 13.79 292.97 13.6 292.78 13.42L292.51 13.16C292.32 12.98 292.13 12.81 291.93 12.64L291.49 12.25C291.36 12.14 291.24 12.02 291.08 11.88L290.96 11.78C290.46 11.35 289.95 10.92 289.43 10.5L289.31 10.41C288.85 10.04 288.38 9.67 287.91 9.32L287.56 9.06C287.17 8.78 286.79 8.5 286.4 8.23L284.9 7.23C284.73 7.12 284.56 7.01 284.38 6.91L283.4 6.31C282.9 6.02 282.41 5.74 281.9 5.46C281.4 5.19 280.9 4.94 280.4 4.69L279.43 4.24C279.25 4.16 279.07 4.07 278.89 4L278.51 3.85C278.29 3.76 278.06 3.67 277.84 3.58L277.65 3.5C277.54 3.45 277.43 3.41 277.32 3.37C277.2 3.33 277.08 3.29 276.96 3.25L276.77 3.19C276.54 3.11 276.32 3.03 276.1 2.96L275.74 2.83C275.6 2.79 275.47 2.75 275.33 2.71L274.99 2.61C274.77 2.54 274.54 2.48 274.24 2.4L274.04 2.34C273.89 2.3 273.75 2.27 273.6 2.24L273.25 2.16C273.01 2.11 272.77 2.05 272.47 1.99L272.27 1.95C272.14 1.93 272.01 1.91 271.88 1.89L271.69 1.86C271.35 1.81 271.01 1.75 270.61 1.7C270.54 1.69 270.46 1.68 270.39 1.67C270.28 1.66 270.18 1.65 270.07 1.65H269.95C269.52 1.6 269.1 1.57 268.58 1.55C268.49 1.55 268.39 1.54 268.29 1.53C268.21 1.53 268.12 1.53 268.01 1.53C267.32 1.53 266.69 1.54 266.12 1.59C266.06 1.59 265.99 1.59 265.88 1.6C265.79 1.6 265.69 1.62 265.6 1.63H265.49C265.09 1.69 264.7 1.73 264.31 1.8C264.18 1.82 264.05 1.85 263.91 1.88L263.54 1.95C263.36 1.98 263.18 2.02 263 2.06C262.94 2.07 262.87 2.09 262.81 2.11C262.43 2.2 262.06 2.31 261.68 2.43L261.51 2.48C261.39 2.52 261.26 2.55 261.14 2.59C260.56 2.79 260.03 2.99 259.53 3.21L249.78 7.49L249.7 7.52C249.68 7.52 249.67 7.54 249.66 7.54C241.66 11.07 236.48 19.62 235.08 31.63C233.83 42.37 235.82 54.54 240.13 66.05C237.11 64.64 232.78 63.18 229.13 64.2C224.42 65.52 223.97 68.62 224.86 71.18C225.4 72.73 226.43 74.07 227.31 74.7L223.97 76.16C223.73 76.28 223.58 76.54 223.53 76.91C223.48 77.33 223.56 77.86 223.77 78.43C223.85 78.65 223.95 78.84 224.06 79.03C224.45 79.7 224.96 80.16 225.4 80.22C225.48 80.23 225.56 80.22 225.63 80.21C225.66 80.21 225.69 80.18 225.72 80.17L229.01 78.74C228.74 79.58 229.07 81.1 230.04 82.32C231.44 84.08 234.19 85.2 238.42 82.69C241.4 80.92 243.15 77.85 244.15 75.31C246.17 79.32 248.46 83.17 250.99 86.75L231.06 98.26C230.6 98.53 230.31 99.02 230.31 99.56V162.22L213.72 152.64C213.26 152.37 212.68 152.37 212.22 152.64L183.4 169.28C177.37 159.85 170.47 151.95 162.58 145.45C170.76 134.43 178.34 125.89 182.23 121.68C182.67 121.2 182.87 120.56 182.78 119.93C182.51 118.07 182.06 116.26 181.48 114.52C185.19 108.37 187.19 103 187.19 93.54C187.19 83.49 184.56 73.33 182.01 63.51C180.49 57.64 179.05 52.1 178.14 46.59C176.99 39.7 176.25 33.97 175.6 28.91C172.32 3.28 170.7 0 139.52 0C137.96 0 136.65 1.04 136.34 2.48C135.7 5.49 135.01 8.98 135.01 12.28C135.01 12.4 135.01 12.53 135.02 12.66C135.02 12.68 135.02 12.69 135.02 12.71C135.02 12.73 135.02 12.75 135.02 12.77C135.02 12.8 135.02 12.82 135.02 12.85C135.27 19.98 140.26 23.42 147.16 28.17C149.18 29.56 151.45 31.13 153.86 32.96C154.46 47.62 155.38 60.71 156.05 70.32C156.22 72.78 156.38 75 156.51 76.96C156.74 80.55 156.9 83.25 156.9 84.76C156.9 87.82 156.44 91.06 155.53 94.4C153.44 101.97 148.89 110.13 142.55 117.79C141.93 112.04 139.85 105.85 136.28 100.24C138.34 92.18 136.03 83.71 130.16 78.25C121.54 70.25 109.39 67.53 99.1501 71.33C94.6101 73.02 90.4201 75.97 86.9001 79.86L83.0101 76.02C82.2201 75.24 81.1701 74.81 80.0501 74.81C79.3601 74.81 78.7001 74.99 78.1001 75.31C74.3801 68.42 66.5401 59.55 52.5901 66.92C31.5901 78 59.4201 121.45 42.8901 130.28C41.8501 130.84 41.8301 132.32 42.8901 132.82C47.6701 135.08 57.7101 138.13 64.7501 128.49C70.8201 120.17 67.4401 109.39 68.9101 103.32C69.5701 103.79 70.3601 104.06 71.1901 104.09C74.2001 104.2 75.7901 104.26 76.6401 104.29C76.3401 109.4 77.0701 114.43 78.8801 118.99C82.2001 127.36 87.8901 130.89 92.7901 132.34C94.4201 132.99 95.9101 133.26 97.1101 133.36C98.1001 135.1 98.8101 136.88 98.8101 138.86C98.8101 144.32 96.9701 146.84 94.0001 149.12C93.7001 149.36 93.3901 149.58 93.0701 149.81C92.1401 150.47 91.1401 151.11 90.0701 151.8C85.8901 154.48 80.7001 157.83 75.6301 164.5C68.4101 174.02 63.2401 188.03 59.8401 207.27C56.5601 204.31 53.0801 201.49 49.7001 198.74C44.7501 194.72 40.0701 190.93 36.3201 187.01C33.9201 184.51 31.6301 181.65 28.9001 177.74C28.2201 176.76 27.2701 175.98 26.1401 175.49C24.8301 174.9 23.4101 174.27 21.9401 173.64C21.9201 173.64 21.9101 173.63 21.8901 173.62C16.5301 171.3 11.5401 169.3 7.05012 167.68C5.32012 167.05 3.34012 167.36 1.90012 168.51C0.470123 169.66 -0.239877 171.48 0.0301226 173.27C4.06012 199.04 7.54012 200.51 17.0101 200.97C19.5601 201.09 22.4201 201.23 25.9601 202.25C30.3101 210.04 38.6301 223.84 48.4701 234.84C50.3401 247.26 55.3901 254.39 62.3801 254.39C65.4801 254.39 68.7601 252.81 72.1301 249.69C73.3801 248.54 74.6001 247.22 75.7801 245.77C80.8301 239.65 86.2801 230.22 91.9801 217.73C95.0301 228.7 90.9201 239.16 86.2501 251.02C84.4301 255.65 82.5501 260.43 81.0201 265.47C81.0101 265.5 81.0001 265.53 80.9901 265.55C80.9801 265.59 80.9701 265.62 80.9501 265.66C80.9301 265.71 80.9201 265.77 80.9001 265.82C80.9001 265.83 80.9001 265.85 80.8901 265.86C78.9501 272.3 77.9301 278.24 77.7701 283.99C77.7401 284.47 77.7401 285.04 77.7401 285.61C77.7401 288.42 78.3501 292.1 79.5701 296.64V314.55L62.9801 304.97C62.5201 304.7 61.9401 304.7 61.4801 304.97L5.00012 337.57C4.54012 337.84 4.25012 338.33 4.25012 338.87V440.54C4.25012 441.37 4.92012 442.04 5.75012 442.04H99.9601C98.5801 450.05 96.8901 458.93 94.5001 469.08C92.4301 477.89 90.0801 486.56 87.3201 495.6C87.2901 495.68 87.2701 495.77 87.2601 495.86C87.0601 497.04 86.8201 498.12 86.5101 499.25C86.1001 500.74 85.6301 501.99 85.1801 503.2C84.1801 505.88 83.2301 508.4 82.9901 512.93C82.9201 514.21 82.9101 515.57 82.9601 517.06C83.0901 521.02 85.1701 524.71 88.5001 526.92C92.7101 529.72 96.0801 533.84 99.6601 538.2C103.79 543.23 108.06 548.43 114.15 552.41C118.46 555.21 123.35 556.19 128.08 556.19C134.25 556.19 140.14 554.53 144.05 553.1C147.12 551.99 149.11 549.09 149 545.89L148.92 543.49C148.86 541.75 148.33 540.06 147.4 538.57C147.33 538.42 147.24 538.28 147.14 538.15C146.36 536.98 145.34 535.97 144.12 535.21L134.41 529.08C131.79 527.42 129.69 525.1 128.35 522.37L118.79 503.01C117.69 500.78 117.55 498.17 118.4 495.86C120.48 490.2 122.63 484.47 124.8 478.85C129.85 465.69 134.68 453.73 139.51 442.06H344.86C345.69 442.06 346.36 441.39 346.36 440.56V99.57C346.36 99.03 346.07 98.54 345.61 98.27V98.28Z" fill="#3B52A1"></path><path d="M327.87 64.0894L345.19 56.0394C345.73 55.7894 346.13 55.3094 346.29 54.7394C346.45 54.1694 346.35 53.5494 346.01 53.0594L338.66 42.2894C338.26 41.7094 337.58 41.3694 336.87 41.4094C336.25 41.4394 335.68 41.7594 335.32 42.2694C335.27 42.3394 335.23 42.4094 335.19 42.4894L325.21 61.3094C325.05 61.6094 324.97 61.9394 324.97 62.2594C324.97 62.7694 325.16 63.2694 325.53 63.6594C326.13 64.2894 327.06 64.4694 327.85 64.0994L327.87 64.0894ZM331.63 57.8694L337.21 47.3394L341.32 53.3594L331.63 57.8594V57.8694Z" fill="#FF6000"></path><path d="M59.7698 167.331L51.1098 150.301C50.8398 149.771 50.3498 149.381 49.7698 149.251C49.1898 149.111 48.5798 149.241 48.0998 149.591L37.5998 157.321C37.0298 157.741 36.7198 158.431 36.7798 159.141C36.8398 159.761 37.1698 160.311 37.6898 160.651C37.7598 160.701 37.8298 160.741 37.9098 160.771L57.0798 170.071C57.3898 170.221 57.7098 170.281 58.0398 170.271C58.5498 170.251 59.0398 170.041 59.4098 169.661C60.0198 169.041 60.1598 168.101 59.7698 167.321V167.331ZM53.4198 163.791L42.6998 158.591L48.5698 154.271L53.4198 163.791Z" fill="#FF6000"></path><path d="M333.48 81.659C336.64 82.399 339.82 80.439 340.56 77.279C341.3 74.119 339.34 70.939 336.18 70.199C333.02 69.459 329.84 71.419 329.1 74.579C328.36 77.739 330.32 80.919 333.48 81.659ZM335.39 73.559C336.7 73.869 337.51 75.179 337.2 76.489C336.89 77.799 335.58 78.609 334.27 78.299C332.96 77.989 332.15 76.679 332.46 75.369C332.77 74.059 334.08 73.249 335.39 73.559Z" fill="#32CFF0"></path><path d="M131.94 53.0693C135.1 53.8093 138.28 51.8493 139.02 48.6893C139.76 45.5293 137.8 42.3493 134.64 41.6093C131.48 40.8693 128.3 42.8293 127.56 45.9893C126.82 49.1493 128.78 52.3293 131.94 53.0693ZM133.85 44.9693C135.16 45.2793 135.97 46.5893 135.66 47.8993C135.35 49.2093 134.04 50.0193 132.73 49.7093C131.42 49.3993 130.61 48.0893 130.92 46.7793C131.23 45.4693 132.54 44.6593 133.85 44.9693Z" fill="#32CFF0"></path><path d="M352.35 74.0572C353.714 74.0572 354.82 72.9513 354.82 71.5872C354.82 70.223 353.714 69.1172 352.35 69.1172C350.986 69.1172 349.88 70.223 349.88 71.5872C349.88 72.9513 350.986 74.0572 352.35 74.0572Z" fill="white"></path><path d="M142.79 65.2681C144.154 65.2681 145.26 64.1623 145.26 62.7981C145.26 61.434 144.154 60.3281 142.79 60.3281C141.426 60.3281 140.32 61.434 140.32 62.7981C140.32 64.1623 141.426 65.2681 142.79 65.2681Z" fill="white"></path><path d="M51.9095 184.03C53.2736 184.03 54.3795 182.924 54.3795 181.56C54.3795 180.196 53.2736 179.09 51.9095 179.09C50.5453 179.09 49.4395 180.196 49.4395 181.56C49.4395 182.924 50.5453 184.03 51.9095 184.03Z" fill="white"></path><path d="M211.49 95.2603C212.854 95.2603 213.96 94.1545 213.96 92.7903C213.96 91.4262 212.854 90.3203 211.49 90.3203C210.125 90.3203 209.02 91.4262 209.02 92.7903C209.02 94.1545 210.125 95.2603 211.49 95.2603Z" fill="#FF6000"></path><path d="M231.83 99.5675L288.35 66.9375L344.86 99.5675L288.35 132.208L231.83 99.5675Z" fill="#32CFF0"></path><path d="M288.35 132.21L231.83 99.5703V440.54H288.35V132.21Z" fill="url(#paint0_linear_2387_28902)"></path><path d="M288.35 132.21L344.86 99.5703V440.54H288.35V132.21Z" fill="url(#paint1_linear_2387_28902)"></path><path d="M345.61 98.2778L289.09 65.6478C288.63 65.3778 288.05 65.3778 287.59 65.6478L231.07 98.2778C230.61 98.5478 230.32 99.0378 230.32 99.5778V440.538C230.32 441.368 230.99 442.038 231.82 442.038H344.86C345.69 442.038 346.36 441.368 346.36 440.538V99.5678C346.36 99.0278 346.07 98.5378 345.61 98.2678V98.2778ZM288.34 68.6778L341.86 99.5778L288.34 130.478L234.82 99.5778L288.34 68.6778ZM233.32 102.178L286.84 133.078V439.038H233.32V102.168V102.178ZM343.36 439.038H289.84V133.068L343.36 102.168V439.038Z" fill="url(#paint2_linear_2387_28902)"></path><path d="M156.47 186.591L212.99 153.961L269.51 186.591L212.99 219.221L156.47 186.591Z" fill="#32CFF0"></path><path d="M212.99 219.224L156.47 186.594V440.544H212.99V219.224Z" fill="url(#paint3_linear_2387_28902)"></path><path d="M212.99 219.224L269.51 186.594V440.544H212.99V219.224Z" fill="url(#paint4_linear_2387_28902)"></path><path d="M270.26 185.29L213.74 152.66C213.28 152.39 212.7 152.39 212.24 152.66L155.72 185.29C155.26 185.56 154.97 186.05 154.97 186.59V440.54C154.97 441.37 155.64 442.04 156.47 442.04H269.51C270.34 442.04 271.01 441.37 271.01 440.54V186.59C271.01 186.05 270.72 185.56 270.26 185.29ZM212.99 155.69L266.51 186.59L212.99 217.49L159.47 186.59L212.99 155.69ZM157.97 189.19L211.49 220.09V439.04H157.97V189.19ZM268.01 439.04H214.49V220.09L268.01 189.19V439.04Z" fill="url(#paint5_linear_2387_28902)"></path><path d="M81.1094 273.607L137.629 240.977L194.149 273.607L137.629 306.237L81.1094 273.607Z" fill="#32CFF0"></path><path d="M137.629 306.239L81.1094 273.609V440.539H137.629V306.239Z" fill="url(#paint6_linear_2387_28902)"></path><path d="M137.629 306.239L194.149 273.609V440.539H137.629V306.239Z" fill="url(#paint7_linear_2387_28902)"></path><path d="M194.9 272.309L138.38 239.679C137.92 239.409 137.34 239.409 136.88 239.679L80.3604 272.309C79.9004 272.579 79.6104 273.069 79.6104 273.609V440.539C79.6104 441.369 80.2804 442.039 81.1104 442.039H194.15C194.98 442.039 195.65 441.369 195.65 440.539V273.609C195.65 273.069 195.36 272.579 194.9 272.309ZM137.63 242.709L191.15 273.609L137.63 304.509L84.1104 273.609L137.63 242.709ZM82.6104 276.209L101.43 287.069L136.13 307.099V439.029H82.6104V276.199V276.209ZM139.13 439.039V307.109L173.83 287.079L192.65 276.219V439.049H139.13V439.039Z" fill="url(#paint8_linear_2387_28902)"></path><path d="M5.75 338.868L62.27 306.238L118.79 338.868L62.27 371.498L5.75 338.868Z" fill="#32CFF0"></path><path d="M62.27 371.497L5.75 338.867V440.537H62.27V371.497Z" fill="url(#paint9_linear_2387_28902)"></path><path d="M62.2695 371.497L118.79 338.867V440.537H62.2695V371.497Z" fill="url(#paint10_linear_2387_28902)"></path><path d="M119.54 337.571L63.02 304.941C62.56 304.671 61.98 304.671 61.52 304.941L5 337.571C4.54 337.841 4.25 338.331 4.25 338.871V440.541C4.25 441.371 4.92 442.041 5.75 442.041H118.79C119.62 442.041 120.29 441.371 120.29 440.541V338.871C120.29 338.331 120 337.841 119.54 337.571ZM62.27 307.971L115.79 338.871L62.27 369.771L8.75 338.871L62.27 307.971ZM7.25 341.471L27.73 353.301L60.77 372.371V439.041H7.25V341.471ZM63.77 439.041V372.371L97.26 353.031L117.29 341.471V439.041H63.77Z" fill="url(#paint11_linear_2387_28902)"></path><path d="M125.539 88.569C124.599 87.779 123.139 88.569 123.279 89.789C123.719 93.699 123.099 100.449 115.879 107.089C104.769 117.319 99.2194 121.049 100.089 133.239C100.089 133.239 87.6795 136.019 80.6595 118.299C73.6295 100.579 84.3095 78.859 99.8295 73.089C109.979 69.319 121.399 72.649 128.899 79.619C134.789 85.089 136.579 93.709 134.019 101.319C134.019 101.319 131.889 93.919 125.529 88.559L125.539 88.569Z" fill="#33343C"></path><path d="M78.9097 118.988C75.4597 110.278 75.8697 99.8878 80.0597 90.4878C84.1397 81.3178 91.1097 74.3278 99.1797 71.3278C109.42 67.5278 121.57 70.2378 130.19 78.2478C136.47 84.0878 138.68 93.3878 135.81 101.928C135.81 101.928 130.4 95.6578 125.25 90.8278C125.44 94.9678 124.37 101.838 117.16 108.478L114.23 111.158C105.04 119.508 101.24 122.958 101.97 133.118C101.97 133.118 85.6097 135.878 78.9197 119.008L78.9097 118.988ZM111.69 108.368L114.6 105.708C121.03 99.7878 121.85 93.8978 121.41 89.9978C121.26 88.6678 121.93 87.3978 123.12 86.7678C124.3 86.1278 125.73 86.2778 126.75 87.1378C129.74 89.6578 131.85 92.5878 133.28 95.0778C133.47 89.7378 131.48 84.5778 127.63 80.9978C120.04 73.9478 109.38 71.5478 100.49 74.8478C93.4697 77.4578 87.1097 83.8778 83.4897 92.0178C79.7197 100.508 77.5697 110.528 80.6597 118.308C85.5897 130.738 98.2997 133.338 99.0297 131.998C98.3697 120.438 102.59 116.648 111.69 108.378V108.368Z" fill="#33343C"></path><path d="M80.8803 81.8885C80.8803 81.8885 73.7803 55.7385 52.6203 66.9085C31.6203 77.9885 59.4503 121.439 42.9203 130.269C41.8803 130.829 41.8603 132.309 42.9203 132.809C47.7003 135.069 57.7403 138.119 64.7803 128.479C74.3203 115.419 60.5203 96.2685 78.8503 98.8385L80.8803 81.8885Z" fill="#33343C"></path><path d="M136.51 154.832C136.51 150.672 134.89 148.732 132.82 144.602C141.07 149.702 148.84 153.542 156.18 157.652V157.672C157.89 165.182 159.83 173.192 159.83 185.992C159.83 189.312 159.62 194.632 159.46 197.952C153.66 184.552 145.37 170.482 135.14 160.102C136.02 158.662 136.52 156.902 136.52 154.832H136.51Z" fill="#E2E2E2"></path><path d="M85.0901 266.242C104.45 264.232 125.15 255.912 138.71 243.702C118.52 218.552 104.15 183.013 96.1201 151.553C96.4601 151.303 96.7801 151.062 97.0901 150.812C105.17 157.872 114.52 163.553 124.86 163.553C128.93 163.553 132.46 161.933 134.31 158.883C144.54 169.273 152.94 181.343 158.74 194.743C158.28 204.543 157.38 214.352 157.35 224.182V224.243C157.35 227.053 157.88 230.033 158.49 233.083C159.37 237.413 160.44 241.822 160.44 246.012C160.44 249.282 159.57 252.452 157.97 255.452C149.01 272.212 117.16 284.062 85.9701 284.062C84.6601 284.062 83.3701 284.043 82.0801 284.013C82.2501 277.713 83.4401 271.823 85.0901 266.233V266.242Z" fill="white"></path><path d="M82.0801 274.04C82.0801 274.04 121.48 269.32 132.82 249.68C132.82 249.68 101.62 266.33 82.9301 266.39L82.0801 274.04Z" fill="#E2E2E2"></path><path d="M138.74 12.28C138.74 12.42 138.74 12.57 138.76 12.71C139.01 20.88 146.48 23.45 157.11 31.88C157.84 50.7 159.1 67.07 159.74 76.82C159.97 80.45 160.13 83.17 160.13 84.76C160.13 88.16 159.62 91.57 158.72 94.96C168.92 97.82 176.36 105.36 179.59 114.3C183.5 107.84 185.37 102.84 185.37 93.57C185.37 78.01 179.01 62.04 176.56 46.96C169.95 6.33 176.78 2.16 140.98 2.16H140.93C140.48 2.16 140.08 2.47 139.99 2.92C139.36 5.96 138.74 9.24 138.74 12.28Z" fill="#EAC18B"></path><g style="mix-blend-mode:multiply" opacity="0.2"><path d="M173.95 28.2717C173.6 30.1117 173.3 32.1717 173.13 34.3717C172.54 42.3017 176.99 58.8817 176.84 77.9017C176.73 91.8017 172.82 98.7017 170.72 101.412C174.77 104.932 177.81 109.392 179.58 114.292C183.49 107.832 185.36 102.832 185.36 93.5617C185.36 78.0017 179 62.0317 176.55 46.9517C175.35 39.5817 174.6 33.4217 173.95 28.2617V28.2717Z" fill="#3B52A1"></path></g><path d="M159.31 233.091C174.94 226.511 187.58 215.031 198.25 201.951C196.29 197.731 194.3 193.931 192.24 190.471C192.24 190.471 192.24 190.451 192.22 190.441C181.45 172.271 169.53 163.951 156.17 156.461V156.481C157.88 163.991 159.82 172.001 159.82 184.801C159.82 197.601 158.21 211.051 158.17 224.211V224.271C158.17 227.081 158.7 230.061 159.31 233.111V233.091Z" fill="#32CFF0"></path><g style="mix-blend-mode:multiply" opacity="0.4"><path d="M159.31 233.091C174.94 226.511 187.58 215.031 198.25 201.951C196.29 197.731 194.3 193.931 192.24 190.471C192.24 190.471 192.24 190.451 192.22 190.441C181.45 172.271 169.53 163.951 156.17 156.461V156.481C156.68 158.711 157.21 160.981 157.7 163.411C158.86 169.171 159.82 175.801 159.82 184.801C159.82 197.931 158.21 211.051 158.17 224.211V224.271C158.17 227.081 158.7 230.061 159.31 233.111V233.091Z" fill="#3B52A1"></path></g><g style="mix-blend-mode:multiply" opacity="0.4"><path d="M157.7 159.422C158.86 165.182 159.82 175.792 159.82 184.782C159.82 197.912 158.21 211.032 158.17 224.192V224.252C158.17 227.062 158.7 230.042 159.31 233.092C163.21 231.452 172.01 225.492 175.56 223.292C178.48 197.962 157.7 159.422 157.7 159.422Z" fill="#3B52A1"></path></g><path d="M21.8503 174.89C17.3503 172.9 12.3503 170.8 7.44028 168.97C6.45028 168.6 5.34028 168.78 4.52028 169.45C3.71028 170.11 3.31028 171.17 3.47028 172.22C8.63028 206.61 12.5103 194.6 28.1203 199.72C34.2203 211.01 42.2903 223.71 50.6703 233.2C57.2503 240.68 64.0303 246.16 70.2303 247.4C71.3603 246.33 72.4903 245.1 73.5803 243.71C74.0603 241.72 74.3403 239.52 74.3403 237.05C74.3403 226.73 68.6403 218.39 61.1903 210.97V210.95C52.8503 202.62 42.3103 195.43 35.1803 187.78C32.4103 184.83 30.0003 181.59 27.7303 178.25C27.2803 177.59 26.6603 177.08 25.9403 176.75C24.6403 176.16 23.2703 175.53 21.8503 174.9V174.89Z" fill="#EAC18B"></path><path d="M51.1294 234.883L51.1094 234.903C52.3294 243.833 55.6994 253.193 62.6494 253.193C65.2594 253.193 67.9794 251.653 70.6794 249.083C64.4894 247.843 57.6994 242.363 51.1194 234.883H51.1294Z" fill="#32CFF0"></path><path d="M53.1205 359.721C52.8705 360.741 54.4405 362.581 55.1405 363.351C57.1705 365.571 61.9605 366.031 66.8205 366.031C68.8705 366.031 70.9905 365.861 73.0305 365.861C73.9305 365.861 75.3805 366.051 77.2805 366.371V366.351C78.9905 360.331 84.2305 359.801 105.87 348.761C104.11 345.051 102.3 341.191 100.53 337.281C82.8405 347.491 68.6405 353.711 58.1305 357.521C57.1405 357.881 53.3805 358.701 53.1305 359.721H53.1205Z" fill="#33343C"></path><path d="M92.9995 211.78C101.479 230.04 89.9895 246.27 84.1495 266.12C103.509 264.11 124.209 255.79 137.769 243.58C117.579 218.43 103.209 182.89 95.1795 151.43C90.7495 154.64 84.5995 157.59 78.6195 165.66C72.7495 173.58 67.1095 186.46 63.2795 209.35C63.1695 209.98 63.0595 210.71 62.9395 211.53V211.55C70.3895 218.96 76.0895 227.31 76.0895 237.63C76.0895 240.1 75.8095 242.3 75.3295 244.29C82.0695 235.93 88.4895 222.43 92.9995 211.79V211.78Z" fill="#32CFF0"></path><g style="mix-blend-mode:multiply" opacity="0.2"><path d="M91.25 209.929L98.34 201.949C98.34 201.949 103.01 211.309 96.63 229.289" fill="#3B52A1"></path></g><path d="M77.2695 366.348V366.368C85.5495 367.738 102.37 371.708 118.67 374.568C115.55 368.498 110.84 359.198 105.86 348.758C84.2195 359.808 78.9795 360.328 77.2695 366.348Z" fill="#EAC18B"></path><path d="M148.39 293.59C150.71 321.44 159.37 348.9 163.86 376.39C162.04 376.66 160.2 376.9 158.38 377.08H158.36C158.37 377.25 158.37 377.43 158.39 377.6C152.07 355.95 144.97 335.27 140.48 312.85C139.04 305.66 144.07 299.34 148.38 293.59H148.39Z" fill="#76828C"></path><path d="M117.85 375.07C117.85 375.07 117.8 374.98 117.79 374.93H117.77C114.65 368.86 109.94 359.56 104.96 349.12C103.2 345.41 101.39 341.55 99.62 337.64C90.48 317.57 81.96 296.15 81.96 285.94C81.96 285.41 81.96 284.89 81.99 284.38C83.29 284.41 84.57 284.43 85.88 284.43C117.07 284.43 148.92 272.58 157.88 255.82C166.59 274.54 178.83 305.9 183.82 349.63C185.33 362.81 176.13 374.81 163.01 376.74C162.99 376.74 162.98 376.74 162.96 376.74C158.47 349.26 149.74 323.92 147.42 296.07C143.1 301.83 138.15 306.01 139.58 313.2C144.06 335.62 151.16 356.3 157.49 377.95C158.14 387 156.69 396.11 153.18 404.63C143.26 428.82 133.84 451.3 123.67 478.42C121.4 479.61 118.82 480.32 115.78 480.32C108.72 480.32 102.17 475.98 98.22 469.91C107.53 429.44 106.05 408.24 117.5 388.55C119.91 384.43 120.03 379.33 117.84 375.06L117.85 375.07Z" fill="#8D9BA9"></path><path d="M95.6094 120.232C95.6094 126.752 103.429 131.322 103.429 138.862C103.429 145.122 101.269 148.172 97.9194 150.822C105.999 157.882 115.349 163.562 125.689 163.562C131.679 163.562 136.519 160.052 136.519 153.632C136.519 149.472 134.899 147.532 132.829 143.402H132.809C132.069 141.922 131.269 140.172 130.449 137.932C137.539 137.312 141.389 131.272 141.939 123.442C142.789 111.732 136.349 96.0219 122.599 88.4219C115.419 95.1219 115.419 107.242 109.859 111.992C105.129 116.042 95.6194 110.862 95.6194 120.222L95.6094 120.232Z" fill="#EAC18B"></path><g style="mix-blend-mode:multiply" opacity="0.2"><path d="M119.62 139.103C119.62 139.103 130.69 146.623 132.67 154.803C132.67 154.803 134.85 153.273 134.11 148.863C133.37 144.453 130.12 139.732 130.12 139.732L123.52 138.312L119.63 139.103H119.62Z" fill="#3B52A1"></path></g><path d="M130.44 137.929C131.26 140.169 132.06 141.919 132.8 143.399H132.82C141.07 148.499 148.84 152.339 156.18 156.449C169.54 163.939 181.47 172.269 192.23 190.429C184.99 173.189 174.94 157.429 160.56 145.849C168.44 134.799 176.07 125.799 181.07 120.249C180.78 118.209 180.28 116.219 179.57 114.289C176.34 105.349 168.9 97.8092 158.7 94.9492C155.9 105.329 149.32 115.369 141.92 123.439C141.36 131.269 137.52 137.309 130.43 137.929H130.44Z" fill="#32CFF0"></path><path d="M116.67 376.728C117.01 376.728 117.36 376.648 117.68 376.488C118.77 375.948 119.19 374.638 118.64 373.578C113.92 364.618 109.52 355.948 105.55 347.828C103.53 343.678 101.74 339.938 100.09 336.388C88.39 311.318 82.2 293.748 82.2 285.578C82.2 285.098 82.2 284.618 82.23 284.148C82.38 278.638 83.36 273.008 85.23 266.848C86.72 261.898 88.6 257.138 90.41 252.528C95.89 238.598 101.07 225.448 94.18 210.988C93.66 209.908 92.35 209.438 91.24 209.938C90.13 210.438 89.65 211.728 90.17 212.808C96.26 225.608 91.64 237.368 86.28 250.988C84.44 255.678 82.53 260.528 80.99 265.638C79.02 272.158 77.98 278.158 77.82 283.968C77.79 284.448 77.79 285.018 77.79 285.588C77.79 294.498 83.94 312.198 96.08 338.188C97.74 341.758 99.54 345.518 101.57 349.698C105.55 357.868 109.98 366.568 114.72 375.568C115.11 376.308 115.89 376.738 116.69 376.738L116.67 376.728Z" fill="#33343C"></path><path d="M157.359 379.229C157.429 379.229 157.509 379.229 157.579 379.219C159.519 379.029 161.459 378.789 163.349 378.509C178.039 376.399 188.229 363.439 186.529 349.019C182.589 315.319 173.589 283.529 159.769 254.539C159.249 253.459 157.939 252.989 156.829 253.489C155.719 253.989 155.239 255.279 155.759 256.359C169.379 284.929 178.249 316.259 182.139 349.509C183.559 361.609 175.019 372.469 162.699 374.239C160.869 374.509 158.999 374.739 157.139 374.919C155.929 375.039 155.039 376.099 155.159 377.279C155.279 378.389 156.239 379.219 157.359 379.219V379.229Z" fill="#33343C"></path><path d="M116.67 376.732C117.89 376.732 118.89 375.762 118.89 374.572C118.89 373.472 118.05 372.562 116.96 372.432C107.77 370.852 98.58 368.972 90.45 367.312C84.01 365.992 78.45 364.862 74.62 364.242C72.41 363.872 70.91 363.702 69.9 363.702C68.83 363.702 67.74 363.742 66.64 363.792C65.6 363.832 64.56 363.872 63.54 363.872C59.47 363.872 56.75 363.002 54.97 361.122C54.76 360.892 54.67 360.542 54.75 360.222C54.83 359.912 55.06 359.662 55.37 359.552C69.07 354.672 83.8 347.812 99.17 339.152C100.23 338.552 100.59 337.232 99.98 336.202C99.37 335.172 98.02 334.812 96.96 335.412C81.82 343.942 67.32 350.702 53.87 355.492C52.16 356.092 50.88 357.482 50.45 359.202C50.03 360.912 50.49 362.722 51.7 364.032C54.35 366.832 58.22 368.192 63.53 368.192C64.62 368.192 65.72 368.152 66.81 368.102C67.84 368.062 68.88 368.022 69.89 368.022C70.62 368.022 71.96 368.182 73.87 368.502C77.61 369.112 83.13 370.242 89.52 371.542C97.7 373.212 106.98 375.112 116.27 376.702C116.4 376.722 116.52 376.732 116.65 376.732H116.67Z" fill="#33343C"></path><path d="M74.2598 368.511C75.2198 368.511 76.1098 367.891 76.3798 366.941C77.3498 363.621 79.5498 362.501 89.7798 357.751C93.6398 355.961 98.4498 353.721 104.55 350.681C105.64 350.141 106.07 348.841 105.51 347.781C104.96 346.721 103.62 346.291 102.54 346.841C96.4898 349.851 91.7098 352.071 87.8798 353.861C77.5398 358.661 73.6798 360.461 72.1298 365.771C71.7898 366.921 72.4798 368.111 73.6498 368.441C73.8498 368.501 74.0598 368.521 74.2598 368.521V368.511Z" fill="#33343C"></path><path d="M140.51 125.6C141.11 125.6 141.7 125.36 142.14 124.9C150.89 115.59 157.17 105.16 159.83 95.52C160.84 91.81 161.35 88.19 161.35 84.76C161.35 83.13 161.2 80.46 160.95 76.68C160.82 74.72 160.66 72.49 160.49 70.02C159.8 60.22 158.86 46.79 158.26 31.79C158.24 31.16 157.93 30.57 157.43 30.18C154.62 28 152.03 26.21 149.74 24.63C142.73 19.79 139.62 17.45 139.47 12.63C139.47 12.57 139.47 12.51 139.46 12.46C139.46 12.4 139.46 12.33 139.46 12.27C139.46 9.71 139.96 6.88 140.49 4.31C168.01 4.35 168.23 6.01 171.24 29.46C171.89 34.56 172.64 40.33 173.8 47.29C174.74 52.98 176.27 58.87 177.75 64.57C180.23 74.14 182.79 84.04 182.79 93.55C182.79 102.5 180.9 107.17 177.19 113.16C176.56 114.18 176.89 115.51 177.94 116.12C178.98 116.74 180.34 116.41 180.98 115.39C185.03 108.86 187.22 103.45 187.22 93.54C187.22 83.63 184.59 73.33 182.04 63.51C180.52 57.64 179.08 52.1 178.17 46.59C177.02 39.7 176.28 33.97 175.63 28.91C172.32 3.28 170.7 0 139.52 0C137.96 0 136.65 1.04 136.34 2.48C135.7 5.49 135.01 8.98 135.01 12.28C135.01 12.46 135.01 12.66 135.03 12.85C135.28 19.98 140.27 23.42 147.17 28.17C149.19 29.56 151.46 31.13 153.87 32.96C154.47 47.62 155.39 60.71 156.06 70.32C156.23 72.78 156.39 75 156.52 76.96C156.75 80.55 156.91 83.25 156.91 84.76C156.91 87.82 156.45 91.06 155.54 94.4C153.06 103.38 147.14 113.17 138.86 121.98C138.04 122.86 138.1 124.22 139 125.03C139.42 125.41 139.96 125.6 140.49 125.6H140.51Z" fill="#33343C"></path><path d="M62.4096 254.352C65.5096 254.352 68.7896 252.772 72.1596 249.652C73.4096 248.502 74.6296 247.182 75.8096 245.732C81.5096 238.822 87.7096 227.722 94.2096 212.732C95.9196 208.762 97.6396 204.582 99.3196 200.282C99.7496 199.172 99.1796 197.922 98.0396 197.492C96.8996 197.072 95.6196 197.622 95.1896 198.742C93.5296 202.992 91.8296 207.132 90.1396 211.042C83.8796 225.452 77.7296 236.512 72.3496 243.032C71.2896 244.342 70.2096 245.502 69.1196 246.512C66.5996 248.852 64.3396 250.032 62.4096 250.032C55.6096 250.032 53.3196 237.462 52.7796 233.612C52.6096 232.432 51.5096 231.612 50.2896 231.762C49.0796 231.922 48.2296 233.012 48.3996 234.192C50.1896 247.002 55.2996 254.352 62.4096 254.352Z" fill="#33343C"></path><path d="M70.6399 250.239C71.6699 250.239 72.5999 249.529 72.7999 248.499C73.0399 247.329 72.2599 246.189 71.0599 245.959C65.7999 244.939 59.2999 240.269 52.2499 232.449C42.1599 221.319 33.6199 206.949 29.4299 199.369C29.1599 198.879 28.7099 198.519 28.1699 198.339C23.6799 196.909 20.1099 196.729 17.2299 196.599C10.3999 196.269 8.09989 196.159 4.40989 172.569C4.36989 172.279 4.47989 171.979 4.70989 171.789C4.91989 171.619 5.23989 171.569 5.50989 171.669C9.93989 173.269 14.8599 175.249 20.1599 177.539C21.5999 178.169 22.9999 178.779 24.3199 179.379C24.7299 179.559 25.0299 179.799 25.2499 180.129C28.0799 184.179 30.5699 187.299 33.0999 189.929C37.0399 194.049 41.8199 197.929 46.8899 202.029C51.2799 205.589 55.8199 209.269 59.7999 213.149C60.6699 213.989 62.0599 213.989 62.9299 213.149C63.7899 212.309 63.7899 210.949 62.9299 210.109C58.8099 206.089 54.1899 202.339 49.7199 198.719C44.7699 194.699 40.0899 190.909 36.3399 186.989C33.9399 184.489 31.6499 181.629 28.9199 177.719C28.2399 176.739 27.2899 175.959 26.1599 175.469C24.8499 174.879 23.4299 174.249 21.9599 173.619C16.5799 171.289 11.5699 169.279 7.05989 167.649C5.32989 167.019 3.34989 167.329 1.90989 168.479C0.479888 169.629 -0.230112 171.449 0.0398883 173.239C4.06989 199.009 7.54989 200.479 17.0199 200.939C19.5699 201.059 22.4299 201.199 25.9699 202.219C30.3899 210.129 38.8899 224.239 48.9299 235.329C56.7299 243.979 63.8799 248.979 70.1899 250.209C70.3399 250.239 70.4799 250.249 70.6199 250.249L70.6399 250.239Z" fill="#33343C"></path><path d="M74.07 246.553C75.07 246.553 75.97 245.893 76.22 244.903C76.78 242.613 77.06 240.273 77.06 237.743C77.06 225.303 69 216.023 62.94 210.133C62.07 209.293 60.68 209.303 59.81 210.143C58.95 210.993 58.95 212.353 59.81 213.193C68.55 221.693 72.63 229.493 72.63 237.743C72.63 239.933 72.4 241.943 71.92 243.893C71.63 245.053 72.36 246.213 73.55 246.493C73.72 246.533 73.9 246.553 74.07 246.553Z" fill="#33343C"></path><path d="M192.029 192.589C192.309 192.589 192.609 192.539 192.889 192.419C194.019 191.959 194.549 190.689 194.069 189.589C185.909 170.629 175.599 156.169 162.589 145.459C170.769 134.439 178.349 125.899 182.239 121.689C182.679 121.209 182.879 120.569 182.789 119.939C182.459 117.729 181.909 115.569 181.139 113.539C177.429 103.499 168.879 95.7689 158.279 92.8689C157.099 92.5489 155.879 93.2189 155.549 94.3689C155.219 95.5189 155.909 96.7089 157.079 97.0289C166.309 99.5489 173.739 106.279 176.979 115.019C177.529 116.479 177.949 118.009 178.239 119.579C173.899 124.309 166.059 133.259 157.779 144.599C157.099 145.529 157.279 146.819 158.189 147.529C171.379 157.899 181.779 172.209 189.979 191.269C190.339 192.099 191.159 192.589 192.019 192.589H192.029Z" fill="#33343C"></path><path d="M158.309 235.238C158.599 235.238 158.889 235.188 159.169 235.068C173.719 229.088 187.049 218.698 199.919 203.298C200.459 202.658 200.569 201.778 200.209 201.028C198.179 196.768 196.139 192.968 193.979 189.418C193.959 189.388 193.949 189.358 193.929 189.338C181.929 169.948 168.789 161.478 156.169 154.568C153.659 153.198 151.089 151.848 148.479 150.478C143.279 147.748 137.899 144.928 132.319 141.558C131.969 141.348 131.569 141.238 131.159 141.238C129.939 141.238 128.939 142.208 128.939 143.398C128.939 144.238 129.429 144.968 130.149 145.328C135.789 148.718 141.179 151.548 146.389 154.288C148.979 155.648 151.519 156.978 154.009 158.338C166.089 164.948 178.819 172.958 190.089 191.478C190.109 191.508 190.119 191.538 190.139 191.568C192.029 194.668 193.819 197.968 195.599 201.628C183.479 215.888 170.979 225.538 157.439 231.098C156.309 231.558 155.789 232.828 156.259 233.928C156.619 234.748 157.439 235.248 158.299 235.248L158.309 235.238Z" fill="#33343C"></path><path d="M84.01 286.221C117.88 286.221 150.43 273.431 159.72 256.471C161.57 253.101 162.51 249.581 162.51 246.011C162.51 242.181 161.67 238.251 160.85 234.451L160.47 232.651C159.79 229.401 159.34 226.731 159.34 224.251C159.36 217.771 159.78 211.221 160.18 204.881C160.6 198.301 161.03 191.501 161.03 184.781C161.03 172.161 159.11 163.951 157.41 156.711L157.24 155.981C156.97 154.821 155.79 154.091 154.59 154.361C153.4 154.631 152.66 155.781 152.93 156.941L153.1 157.671C154.82 165.031 156.61 172.641 156.61 184.771C156.61 191.361 156.18 198.091 155.77 204.601C155.36 211.001 154.94 217.611 154.92 224.171C154.92 227.081 155.41 230.001 156.14 233.501L156.53 235.331C157.3 238.921 158.09 242.621 158.09 246.001C158.09 248.851 157.33 251.681 155.82 254.421C147.38 269.831 115.84 281.891 84.01 281.891C82.68 281.891 81.39 281.871 80.07 281.841L80 286.161C81.31 286.191 82.64 286.211 84 286.211L84.01 286.221Z" fill="#33343C"></path><path d="M83.0896 268.392C83.1696 268.392 83.2597 268.392 83.3297 268.382C104.18 266.272 125.7 257.422 139.51 245.302C140.38 244.532 140.49 243.242 139.76 242.342C121.76 220.452 106.01 187.162 96.5497 151.012C96.2497 149.852 95.0396 149.152 93.8596 149.452C92.6796 149.742 91.9596 150.922 92.2696 152.072C101.65 187.922 117.17 221.052 135 243.412C121.83 254.272 102.09 262.132 82.9097 264.072C81.7797 264.172 80.8896 265.092 80.8896 266.222C80.8896 267.412 81.8696 268.382 83.0896 268.382V268.392Z" fill="#33343C"></path><path d="M82.9895 512.92C83.2295 508.4 84.1795 505.87 85.1795 503.19C85.6295 501.98 86.0995 500.73 86.5095 499.24C86.8195 498.11 87.0495 497.03 87.2595 495.85C87.2795 495.76 87.2995 495.68 87.3195 495.59C90.0795 486.55 92.4295 477.88 94.4995 469.07C98.0095 454.18 99.9995 442.05 101.749 431.34C104.739 413.07 106.899 399.87 114.499 387.1C116.589 383.61 116.709 379.37 114.819 375.75C114.689 375.53 114.629 375.34 114.599 375.25C114.209 374.12 114.839 372.91 115.999 372.53C117.099 372.17 118.299 372.71 118.739 373.75C121.339 378.7 121.179 384.51 118.319 389.28C111.129 401.35 109.029 414.22 106.119 432.03C104.359 442.8 102.359 455.02 98.8195 470.05C96.7295 478.91 94.3795 487.63 91.6095 496.7C91.3895 497.95 91.1195 499.15 90.7995 500.36C90.3295 502.04 89.8295 503.38 89.3495 504.68C88.4295 507.15 87.6295 509.28 87.4195 513.15C87.3595 514.31 87.3495 515.55 87.3895 516.92C87.4795 519.5 88.8295 521.91 90.9995 523.35C95.7595 526.52 99.3395 530.88 103.119 535.5C107.039 540.28 111.089 545.21 116.609 548.81C125.209 554.41 137.589 550.84 142.519 549.04C143.809 548.58 144.639 547.37 144.589 546.02L144.509 543.61C144.479 542.55 144.139 541.51 143.519 540.58C143.059 539.86 142.459 539.27 141.739 538.82L132.019 532.69C128.709 530.6 126.069 527.67 124.379 524.23L114.819 504.87C113.209 501.6 113.009 497.78 114.259 494.39C116.349 488.71 118.509 482.97 120.679 477.32C129.519 454.28 137.689 434.9 146.329 414.39L150.929 403.47C154.419 395.17 155.879 386.11 155.149 377.26C154.869 373.83 154.269 370.4 153.369 367.08C148.359 348.68 143.499 333.33 138.809 318.49L136.049 309.74C135.879 309.2 135.929 308.61 136.209 308.1L142.679 296.09L146.689 297.91L140.539 309.32L143.029 317.21C147.739 332.09 152.599 347.48 157.639 365.96C158.619 369.53 159.259 373.22 159.559 376.91C160.339 386.43 158.769 396.18 155.019 405.1L150.419 416.03C141.789 436.51 133.639 455.86 124.819 478.84C122.659 484.46 120.499 490.19 118.419 495.85C117.569 498.16 117.709 500.77 118.809 503L128.369 522.36C129.709 525.09 131.809 527.41 134.429 529.07L144.139 535.2C145.409 535.99 146.459 537.03 147.249 538.26C148.289 539.82 148.879 541.63 148.939 543.48L149.019 545.88C149.129 549.08 147.139 551.98 144.069 553.09C140.159 554.51 134.269 556.18 128.099 556.18C123.369 556.18 118.479 555.21 114.169 552.4C108.079 548.43 103.809 543.23 99.6795 538.19C96.0995 533.83 92.7295 529.72 88.5195 526.91C85.1795 524.7 83.1095 521.01 82.9795 517.05C82.9295 515.55 82.9395 514.2 83.0095 512.92H82.9895Z" fill="#33343C"></path><path d="M20.1604 189.067C20.1804 187.407 20.2304 184.787 20.2304 184.037C20.2304 181.397 20.1404 179.007 19.0404 176.417C18.5704 175.317 19.1004 174.057 20.2304 173.597C21.3604 173.137 22.6504 173.657 23.1204 174.757C24.5304 178.077 24.6504 181.157 24.6504 184.037C24.6504 184.897 24.5904 188.167 24.5804 189.697C23.2504 189.507 21.5704 189.267 20.1704 189.067H20.1604Z" fill="#33343C"></path><path d="M137.249 10.5508C137.579 10.5508 137.909 10.6208 138.209 10.7608C146.529 14.6808 155.879 18.5308 158.559 19.6008C158.859 18.9008 158.999 17.2408 159.069 16.2808C159.149 15.3608 159.229 14.4808 159.379 13.6608L163.649 14.8908C163.579 15.4108 163.519 16.0208 163.479 16.6208C163.249 19.4108 162.879 24.0708 158.549 24.0708C157.319 24.0708 141.499 17.1008 136.439 14.7208C135.619 14.4108 135.029 13.6208 135.029 12.7108C135.029 11.5208 136.029 10.5508 137.249 10.5508Z" fill="#33343C"></path><path d="M123.86 165.71C131.69 165.71 137.16 160.74 137.16 153.62C137.16 149.77 135.92 147.52 134.35 144.67C133.97 143.99 133.57 143.25 133.14 142.42C132.59 141.35 131.26 140.92 130.17 141.46C129.08 141.99 128.64 143.29 129.19 144.36C129.63 145.23 130.06 146 130.46 146.71C131.88 149.29 132.74 150.85 132.74 153.61C132.74 159.34 128.15 161.38 123.86 161.38C115.33 161.38 106.49 157.39 96.8602 149.17C95.9402 148.38 94.5402 148.48 93.7402 149.38C92.9402 150.28 93.0302 151.64 93.9502 152.42C104.42 161.35 114.21 165.7 123.86 165.7V165.71Z" fill="#33343C"></path><path d="M61.3802 213.811C62.5302 213.811 63.4702 212.971 63.5802 211.881C63.5802 211.881 63.8102 210.391 63.9102 209.831C67.1902 190.301 72.2002 176.321 79.2202 167.071C83.8202 161.011 88.4602 158.031 92.5402 155.401C93.6602 154.681 94.7202 154.001 95.7002 153.301C96.0802 153.031 96.4402 152.761 96.7802 152.501C100.14 149.921 103.26 146.471 103.26 138.861C103.26 134.291 100.82 130.761 98.6602 127.641C96.8302 125.001 95.2502 122.711 95.2502 120.231C95.2502 116.641 96.5002 116.391 100.84 116.081C103.56 115.881 106.65 115.661 109.07 113.641C112.21 111.021 113.74 106.821 115.36 102.391C116.82 98.3809 118.33 94.2509 121.07 91.1509C133.4 98.6109 139.08 112.761 138.29 123.291C138.03 126.821 136.57 135.101 128.53 135.791C127.84 135.851 127.23 136.211 126.86 136.781C126.49 137.351 126.41 138.051 126.65 138.681C127.61 141.251 128.55 143.161 129.17 144.371C129.72 145.441 131.05 145.871 132.14 145.341C133.23 144.811 133.68 143.511 133.13 142.451C132.62 141.461 132.18 140.521 131.77 139.581C138.01 137.781 142.11 131.911 142.71 123.611C143.63 111.311 136.72 94.6209 121.76 86.5509C120.93 86.1009 119.88 86.2209 119.18 86.8609C114.91 90.7509 112.93 96.1709 111.19 100.951C109.78 104.831 108.44 108.501 106.19 110.371C104.87 111.471 102.75 111.631 100.51 111.791C96.6502 112.071 90.8302 112.491 90.8302 120.241C90.8302 124.041 92.9502 127.101 94.9902 130.061C96.9702 132.921 98.8302 135.621 98.8302 138.871C98.8302 144.331 96.9902 146.851 94.0202 149.131C93.7202 149.371 93.4102 149.591 93.0902 149.821C92.1602 150.481 91.1602 151.121 90.0902 151.811C85.9102 154.491 80.7202 157.841 75.6502 164.511C68.2002 174.331 62.9202 188.931 59.5302 209.131C59.4302 209.701 59.1802 211.331 59.1802 211.331C59.1602 211.441 59.1602 211.541 59.1602 211.651C59.1602 212.841 60.1502 213.821 61.3702 213.821L61.3802 213.811Z" fill="#33343C"></path><path d="M127.1 139.921C122.98 139.921 119.27 139.031 119.05 138.981L120.05 134.891C120.12 134.911 126.7 136.481 131.23 135.251L132.33 139.311C130.67 139.761 128.85 139.921 127.1 139.921Z" fill="#33343C"></path><path d="M100.83 131.291C103.24 131.291 105.47 130.441 106.78 129.661L104.83 126.391L105.81 128.031L104.84 126.391C104.65 126.501 100.21 129.051 97.2996 126.031L94.5596 128.681C96.4496 130.631 98.7096 131.291 100.84 131.291H100.83Z" fill="#33343C"></path><path d="M77.0905 76.0408C77.8905 75.2408 78.9505 74.8008 80.0805 74.8008C81.2105 74.8008 82.2405 75.2308 83.0405 76.0108L87.5205 80.4308C89.1405 82.0308 89.1805 84.6808 87.6005 86.3408C87.5505 86.4008 82.1705 92.2008 81.8705 100.271C81.7905 102.541 79.9405 104.321 77.6705 104.321C77.6405 104.321 77.6105 104.321 71.2305 104.081C70.1105 104.041 69.0705 103.561 68.3005 102.741C67.5405 101.921 67.1405 100.841 67.1805 99.7208C67.7105 85.6508 76.7205 76.4308 77.1105 76.0408H77.0905Z" fill="#33343C"></path><path d="M77.6601 100.112C78.0301 90.2217 84.4901 83.4917 84.5501 83.4317L80.0701 79.0117C79.7301 79.3517 71.8301 87.4717 71.3701 99.8817L77.6601 100.112Z" fill="#FF6000"></path><g style="mix-blend-mode:multiply" opacity="0.4"><path d="M298.96 109.866C315.225 109.866 328.41 105.846 328.41 100.886C328.41 95.9267 315.225 91.9062 298.96 91.9062C282.695 91.9062 269.51 95.9267 269.51 100.886C269.51 105.846 282.695 109.866 298.96 109.866Z" fill="#3B52A1"></path></g><path d="M316.979 77.8616C316.979 77.7516 316.989 77.6416 316.999 77.5416C317.019 77.3116 317.029 77.0816 317.049 76.8516C317.069 76.5816 317.089 76.3116 317.099 76.0416C317.109 75.8316 317.109 75.6216 317.119 75.4116C317.119 75.1616 317.139 74.9216 317.139 74.6716C317.139 74.5116 317.149 74.3516 317.159 74.1916C317.159 73.8416 317.159 73.4916 317.159 73.1316C317.159 72.9316 317.159 72.7216 317.159 72.5216C317.159 72.4516 317.159 72.3916 317.159 72.3216C317.159 71.6816 317.129 71.0416 317.109 70.4016C317.109 70.3916 317.109 70.3716 317.109 70.3616C317.109 70.2716 317.099 70.1716 317.089 70.0816C317.059 69.5416 317.039 69.0116 316.999 68.4716C316.999 68.3716 316.979 68.2716 316.969 68.1816C316.949 67.9216 316.929 67.6616 316.899 67.4116C316.869 67.1016 316.849 66.7816 316.819 66.4716C316.799 66.2916 316.779 66.1216 316.759 65.9416C316.729 65.6616 316.699 65.3816 316.659 65.0916C316.629 64.8716 316.609 64.6616 316.579 64.4416C316.549 64.1816 316.499 63.9116 316.469 63.6516C316.429 63.3716 316.389 63.0916 316.349 62.8016C316.329 62.6616 316.309 62.5216 316.289 62.3816C316.229 62.0016 316.159 61.6316 316.089 61.2516C316.049 61.0116 316.009 60.7716 315.959 60.5316C315.949 60.4616 315.939 60.3916 315.919 60.3316C315.789 59.6616 315.659 58.9816 315.519 58.3116C315.519 58.3116 315.519 58.2916 315.519 58.2816C315.509 58.2216 315.489 58.1516 315.479 58.0916C315.349 57.5016 315.219 56.9016 315.079 56.3116C315.059 56.2216 315.029 56.1216 315.009 56.0316C314.959 55.8016 314.899 55.5816 314.839 55.3516C314.759 55.0316 314.679 54.7116 314.599 54.3916C314.549 54.1816 314.489 53.9816 314.429 53.7716C314.359 53.5216 314.289 53.2716 314.219 53.0216C314.169 52.8416 314.119 52.6616 314.069 52.4716C313.959 52.1116 313.849 51.7416 313.739 51.3816C313.679 51.1916 313.619 50.9916 313.559 50.8016C313.539 50.7316 313.519 50.6616 313.499 50.5916C313.299 49.9516 313.089 49.3116 312.879 48.6816C312.879 48.6516 312.859 48.6316 312.849 48.6016C312.789 48.4216 312.719 48.2416 312.659 48.0616C312.489 47.5716 312.319 47.0816 312.139 46.5916C312.109 46.5116 312.079 46.4416 312.049 46.3616C311.899 45.9616 311.749 45.5616 311.589 45.1616C311.469 44.8416 311.349 44.5216 311.219 44.2016C311.199 44.1416 311.169 44.0916 311.149 44.0316C310.739 42.9916 310.299 41.9716 309.849 40.9416C309.809 40.8516 309.779 40.7616 309.739 40.6816C309.699 40.5816 309.639 40.4916 309.599 40.3916C308.959 38.9616 308.279 37.5416 307.559 36.1416C307.519 36.0616 307.489 35.9916 307.449 35.9116C307.379 35.7816 307.309 35.6616 307.239 35.5316C306.659 34.4216 306.069 33.3216 305.449 32.2416C305.449 32.2316 305.439 32.2216 305.429 32.2116C304.989 31.4516 304.539 30.7016 304.079 29.9516C304.059 29.9216 304.039 29.8816 304.019 29.8516C303.689 29.3216 303.349 28.7916 303.009 28.2716C302.929 28.1516 302.859 28.0316 302.779 27.9116C302.779 27.9116 302.779 27.9016 302.769 27.8916C302.359 27.2616 301.939 26.6416 301.509 26.0216C301.489 25.9916 301.469 25.9616 301.439 25.9316C301.309 25.7516 301.179 25.5716 301.049 25.3916C300.779 25.0016 300.499 24.6216 300.219 24.2416C300.169 24.1716 300.109 24.1016 300.059 24.0316C299.869 23.7816 299.679 23.5316 299.489 23.2816C299.279 23.0016 299.069 22.7216 298.859 22.4516C298.779 22.3516 298.699 22.2516 298.619 22.1516C298.409 21.8916 298.199 21.6316 297.989 21.3716C297.809 21.1516 297.629 20.9216 297.449 20.7016C297.349 20.5816 297.239 20.4616 297.139 20.3316C296.909 20.0616 296.679 19.7916 296.449 19.5316C296.289 19.3416 296.129 19.1516 295.969 18.9716C295.839 18.8316 295.709 18.6916 295.589 18.5516C295.359 18.2916 295.119 18.0416 294.889 17.7816C294.749 17.6316 294.609 17.4716 294.459 17.3116C294.309 17.1516 294.149 16.9916 293.989 16.8316C293.759 16.5916 293.529 16.3516 293.299 16.1216C293.179 16.0016 293.059 15.8716 292.939 15.7516C292.739 15.5616 292.539 15.3716 292.339 15.1816C292.119 14.9716 291.909 14.7616 291.689 14.5616C291.599 14.4816 291.509 14.3916 291.419 14.3116C291.149 14.0616 290.879 13.8216 290.609 13.5816C290.429 13.4216 290.239 13.2516 290.059 13.0916C290.009 13.0516 289.959 13.0016 289.919 12.9616C289.429 12.5416 288.939 12.1216 288.439 11.7216C288.439 11.7216 288.439 11.7216 288.429 11.7216C288.389 11.6916 288.359 11.6616 288.319 11.6316C287.869 11.2716 287.419 10.9116 286.959 10.5716C286.839 10.4816 286.729 10.4016 286.609 10.3116C286.239 10.0316 285.859 9.76156 285.489 9.50156C285.349 9.40156 285.209 9.31156 285.069 9.22156C284.879 9.09156 284.679 8.96156 284.489 8.83156C284.339 8.73156 284.189 8.63156 284.039 8.53156C283.799 8.38156 283.559 8.23156 283.319 8.09156C283.149 7.98156 282.979 7.87156 282.799 7.77156C282.729 7.73156 282.659 7.68156 282.589 7.64156C282.109 7.36156 281.629 7.09156 281.159 6.83156C281.159 6.83156 281.159 6.83156 281.149 6.83156C280.669 6.57156 280.189 6.32156 279.709 6.09156C279.649 6.06156 279.579 6.03156 279.519 6.00156C279.339 5.92156 279.169 5.84156 278.999 5.76156C278.749 5.65156 278.509 5.53156 278.259 5.42156C278.139 5.37156 278.009 5.32156 277.889 5.27156C277.679 5.18156 277.459 5.10156 277.249 5.01156C277.079 4.95156 276.919 4.87156 276.749 4.81156C276.579 4.74156 276.399 4.69156 276.229 4.63156C276.019 4.55156 275.799 4.48156 275.589 4.41156C275.479 4.37156 275.359 4.33156 275.249 4.29156C275.049 4.23156 274.839 4.18156 274.639 4.12156C274.389 4.05156 274.139 3.97156 273.889 3.91156C273.799 3.89156 273.709 3.86156 273.629 3.84156C273.419 3.79156 273.219 3.75156 273.009 3.71156C272.739 3.65156 272.469 3.59156 272.209 3.54156C272.129 3.52156 272.049 3.50156 271.969 3.49156C271.789 3.46156 271.609 3.44156 271.429 3.41156C271.109 3.36156 270.789 3.31156 270.479 3.27156C270.389 3.26156 270.299 3.24156 270.209 3.23156C270.069 3.21156 269.939 3.22156 269.799 3.20156C269.399 3.16156 268.999 3.14156 268.609 3.12156C268.489 3.12156 268.369 3.10156 268.249 3.10156C268.159 3.10156 268.079 3.10156 267.989 3.10156C267.379 3.10156 266.789 3.11156 266.199 3.16156C266.149 3.16156 266.099 3.16156 266.049 3.16156C266.039 3.16156 266.019 3.16156 266.009 3.16156C265.889 3.17156 265.769 3.19156 265.649 3.20156C265.279 3.24156 264.909 3.28156 264.549 3.34156C264.369 3.37156 264.199 3.41156 264.029 3.44156C263.799 3.48156 263.559 3.52156 263.329 3.58156C263.269 3.59156 263.219 3.61156 263.159 3.63156C262.809 3.71156 262.459 3.82156 262.119 3.92156C261.949 3.97156 261.779 4.02156 261.609 4.07156C261.099 4.24156 260.609 4.43156 260.119 4.64156L250.289 8.95156C250.779 8.74156 251.279 8.55156 251.779 8.38156C251.949 8.32156 252.119 8.28156 252.279 8.23156C252.629 8.12156 252.969 8.02156 253.319 7.94156C253.609 7.87156 253.899 7.81156 254.189 7.76156C254.359 7.73156 254.539 7.69156 254.709 7.66156C255.069 7.60156 255.439 7.56156 255.809 7.52156C255.929 7.51156 256.049 7.49156 256.169 7.48156C256.229 7.48156 256.299 7.48156 256.359 7.48156C256.949 7.43156 257.549 7.42156 258.149 7.42156C258.359 7.42156 258.559 7.42156 258.769 7.44156C259.159 7.45156 259.559 7.48156 259.959 7.52156C260.189 7.54156 260.409 7.56156 260.639 7.59156C260.959 7.63156 261.269 7.68156 261.589 7.73156C261.849 7.77156 262.109 7.81156 262.369 7.86156C262.639 7.91156 262.899 7.97156 263.169 8.03156C263.459 8.10156 263.759 8.16156 264.049 8.24156C264.299 8.31156 264.549 8.38156 264.799 8.45156C265.109 8.54156 265.429 8.64156 265.749 8.74156C265.959 8.81156 266.179 8.89156 266.399 8.96156C266.739 9.08156 267.079 9.20156 267.409 9.34156C267.619 9.42156 267.839 9.51156 268.049 9.60156C268.419 9.75156 268.789 9.92156 269.159 10.0916C269.329 10.1716 269.509 10.2516 269.679 10.3316C270.769 10.8516 271.869 11.4416 272.969 12.1016C273.139 12.2016 273.309 12.3116 273.479 12.4116C273.869 12.6516 274.259 12.9016 274.649 13.1616C274.839 13.2916 275.029 13.4216 275.229 13.5516C275.749 13.9016 276.259 14.2616 276.779 14.6416C277.359 15.0716 277.929 15.5116 278.499 15.9716C278.529 16.0016 278.569 16.0216 278.599 16.0516C279.149 16.5016 279.699 16.9616 280.239 17.4316C280.429 17.5916 280.609 17.7616 280.789 17.9216C281.149 18.2416 281.509 18.5716 281.869 18.9016C282.089 19.1016 282.299 19.3116 282.519 19.5216C282.839 19.8316 283.159 20.1416 283.479 20.4616C283.709 20.6916 283.939 20.9316 284.169 21.1716C284.469 21.4816 284.769 21.8016 285.069 22.1216C285.299 22.3716 285.539 22.6316 285.769 22.8816C286.059 23.2016 286.349 23.5316 286.629 23.8616C286.859 24.1316 287.089 24.3916 287.319 24.6616C287.609 25.0016 287.889 25.3516 288.179 25.7016C288.389 25.9616 288.599 26.2216 288.809 26.4816C289.099 26.8516 289.389 27.2316 289.679 27.6116C289.869 27.8616 290.059 28.1116 290.249 28.3616C290.579 28.8116 290.909 29.2616 291.229 29.7116C291.359 29.9016 291.499 30.0816 291.629 30.2616C292.079 30.9116 292.529 31.5716 292.969 32.2416C293.039 32.3516 293.109 32.4716 293.189 32.5816C293.559 33.1416 293.919 33.7116 294.269 34.2816C294.729 35.0316 295.189 35.8016 295.629 36.5716C296.249 37.6516 296.839 38.7516 297.419 39.8616C297.529 40.0616 297.629 40.2716 297.739 40.4716C298.449 41.8716 299.129 43.2816 299.779 44.7216C299.859 44.9016 299.949 45.0916 300.029 45.2716C300.479 46.2916 300.919 47.3216 301.329 48.3616C301.479 48.7416 301.619 49.1216 301.769 49.5016C301.919 49.9016 302.079 50.3016 302.229 50.7016C302.439 51.2616 302.629 51.8316 302.829 52.3916C302.889 52.5816 302.959 52.7616 303.029 52.9516C303.279 53.6816 303.509 54.4216 303.739 55.1516C303.799 55.3416 303.859 55.5416 303.909 55.7316C304.079 56.2816 304.239 56.8316 304.389 57.3716C304.459 57.6216 304.529 57.8716 304.599 58.1216C304.739 58.6516 304.879 59.1716 305.009 59.7016C305.069 59.9316 305.129 60.1516 305.179 60.3816C305.349 61.0716 305.509 61.7616 305.649 62.4516C305.659 62.5116 305.679 62.5816 305.689 62.6416C305.849 63.3916 305.999 64.1416 306.129 64.8916C306.169 65.1316 306.209 65.3716 306.259 65.6216C306.349 66.1416 306.439 66.6516 306.519 67.1616C306.559 67.4516 306.599 67.7316 306.639 68.0216C306.709 68.5016 306.769 68.9816 306.829 69.4516C306.859 69.7316 306.899 70.0216 306.929 70.3016C306.979 70.7916 307.029 71.2816 307.069 71.7716C307.089 72.0316 307.119 72.2916 307.139 72.5416C307.189 73.1816 307.229 73.8116 307.259 74.4516C307.259 74.5416 307.269 74.6416 307.279 74.7316C307.309 75.4616 307.329 76.1816 307.339 76.9016C307.339 77.1016 307.339 77.3116 307.339 77.5116C307.339 78.0216 307.339 78.5416 307.319 79.0516C307.319 79.3016 307.299 79.5416 307.299 79.7916C307.279 80.2716 307.259 80.7516 307.219 81.2316C307.209 81.4616 307.189 81.6916 307.169 81.9216C307.119 82.6016 307.059 83.2816 306.979 83.9516C306.899 84.6516 306.799 85.3416 306.689 86.0116C306.659 86.2016 306.619 86.3916 306.589 86.5816C306.509 87.0416 306.429 87.5016 306.339 87.9516C306.289 88.2116 306.229 88.4716 306.169 88.7216C306.089 89.1016 305.999 89.4716 305.899 89.8416C305.829 90.1116 305.759 90.3816 305.679 90.6516C305.589 90.9916 305.489 91.3316 305.389 91.6616C305.299 91.9616 305.199 92.2516 305.109 92.5416C305.009 92.8416 304.909 93.1316 304.799 93.4216C304.679 93.7616 304.549 94.0916 304.409 94.4216C304.309 94.6816 304.199 94.9316 304.089 95.1816C303.919 95.5716 303.739 95.9616 303.559 96.3316C303.459 96.5316 303.369 96.7416 303.259 96.9416C302.939 97.5716 302.599 98.1816 302.239 98.7616C301.959 99.2116 301.669 99.6516 301.369 100.072C301.369 100.072 301.369 100.082 301.359 100.092C301.069 100.502 300.759 100.902 300.449 101.282C299.999 101.842 299.519 102.352 299.029 102.852C298.909 102.972 298.789 103.082 298.669 103.202C298.199 103.652 297.709 104.082 297.209 104.482C297.169 104.512 297.139 104.542 297.099 104.572C296.559 104.982 296.009 105.362 295.439 105.712C295.299 105.792 295.159 105.882 295.019 105.962C294.439 106.302 293.849 106.612 293.239 106.882L303.069 102.572C303.679 102.302 304.269 101.992 304.849 101.652C304.989 101.572 305.129 101.492 305.269 101.402C305.839 101.052 306.399 100.682 306.929 100.262C306.969 100.232 306.999 100.202 307.039 100.172C307.539 99.7716 308.029 99.3416 308.499 98.8916C308.619 98.7716 308.739 98.6616 308.859 98.5416C309.349 98.0516 309.829 97.5316 310.279 96.9716C310.289 96.9516 310.309 96.9416 310.319 96.9216C310.619 96.5516 310.909 96.1716 311.189 95.7716C311.189 95.7716 311.189 95.7616 311.199 95.7516C311.489 95.3516 311.759 94.9316 312.029 94.5016C312.039 94.4816 312.049 94.4616 312.059 94.4416C312.419 93.8616 312.759 93.2516 313.079 92.6216C313.109 92.5716 313.139 92.5216 313.169 92.4616C313.239 92.3216 313.309 92.1616 313.379 92.0116C313.559 91.6316 313.739 91.2516 313.909 90.8616C313.959 90.7616 314.009 90.6616 314.049 90.5516C314.109 90.4016 314.169 90.2416 314.229 90.0916C314.359 89.7616 314.489 89.4316 314.619 89.0916C314.669 88.9516 314.729 88.8216 314.779 88.6816C314.829 88.5316 314.879 88.3716 314.929 88.2116C315.029 87.9216 315.119 87.6316 315.209 87.3316C315.259 87.1816 315.309 87.0316 315.359 86.8816C315.409 86.7016 315.459 86.5116 315.509 86.3316C315.579 86.0616 315.659 85.8016 315.729 85.5216C315.769 85.3816 315.809 85.2516 315.839 85.1116C315.899 84.8816 315.939 84.6416 315.999 84.4016C316.059 84.1416 316.119 83.8916 316.169 83.6316C316.189 83.5316 316.219 83.4316 316.239 83.3216C316.309 82.9716 316.369 82.6216 316.429 82.2616C316.459 82.0716 316.499 81.8816 316.529 81.6916C316.529 81.6416 316.549 81.6016 316.549 81.5516C316.639 80.9616 316.729 80.3516 316.799 79.7316C316.799 79.6916 316.799 79.6616 316.809 79.6216C316.879 79.0616 316.929 78.4916 316.979 77.9216V77.8616Z" fill="#3B52A1"></path><g style="mix-blend-mode:multiply" opacity="0.4"><path d="M317.05 76.8472C317.07 76.5772 317.09 76.3072 317.1 76.0372C317.11 75.8272 317.11 75.6172 317.12 75.4072C317.12 75.1572 317.14 74.9172 317.14 74.6672C317.14 74.5072 317.15 74.3472 317.16 74.1872C317.16 73.8372 317.16 73.4872 317.16 73.1272C317.16 72.9272 317.16 72.7172 317.16 72.5172C317.16 72.4472 317.16 72.3872 317.16 72.3172C317.16 71.6772 317.13 71.0372 317.11 70.3972C317.11 70.3872 317.11 70.3672 317.11 70.3572C317.11 70.2672 317.1 70.1672 317.09 70.0772C317.06 69.5372 317.04 69.0072 317 68.4672C317 68.3672 316.98 68.2672 316.97 68.1772C316.95 67.9172 316.93 67.6572 316.9 67.4072C316.87 67.0972 316.85 66.7772 316.82 66.4672C316.8 66.2872 316.78 66.1172 316.76 65.9372C316.73 65.6572 316.7 65.3772 316.66 65.0872C316.63 64.8672 316.61 64.6572 316.58 64.4372C316.55 64.1772 316.5 63.9072 316.47 63.6472C316.43 63.3672 316.39 63.0872 316.35 62.7972C316.33 62.6572 316.31 62.5172 316.29 62.3772C316.23 61.9972 316.16 61.6272 316.09 61.2472C316.05 61.0072 316.01 60.7672 315.96 60.5272C315.95 60.4572 315.94 60.3872 315.92 60.3272C315.79 59.6572 315.66 58.9772 315.52 58.3072C315.52 58.3072 315.52 58.2872 315.52 58.2772C315.51 58.2172 315.49 58.1472 315.48 58.0872C315.35 57.4972 315.22 56.8972 315.08 56.3072C315.06 56.2172 315.03 56.1172 315.01 56.0272C314.96 55.7972 314.9 55.5772 314.84 55.3472C314.76 55.0272 314.68 54.7072 314.6 54.3872C314.55 54.1772 314.49 53.9772 314.43 53.7672C314.36 53.5172 314.29 53.2672 314.22 53.0172C314.17 52.8372 314.12 52.6572 314.07 52.4672C313.96 52.1072 313.85 51.7372 313.74 51.3772C313.68 51.1872 313.62 50.9872 313.56 50.7972C313.54 50.7272 313.52 50.6572 313.5 50.5872C313.3 49.9472 313.09 49.3072 312.88 48.6772C312.88 48.6472 312.86 48.6272 312.85 48.5972C312.79 48.4172 312.72 48.2372 312.66 48.0572C312.49 47.5672 312.32 47.0772 312.14 46.5872C312.11 46.5072 312.08 46.4372 312.05 46.3572C311.9 45.9572 311.75 45.5572 311.59 45.1572C311.47 44.8372 311.35 44.5172 311.22 44.1972C311.2 44.1372 311.17 44.0872 311.15 44.0272C310.74 42.9872 310.3 41.9672 309.85 40.9372C309.81 40.8472 309.78 40.7572 309.74 40.6772C309.7 40.5772 309.64 40.4872 309.6 40.3872C308.96 38.9572 308.28 37.5372 307.56 36.1372C307.52 36.0572 307.49 35.9872 307.45 35.9072C307.38 35.7772 307.31 35.6572 307.24 35.5272C306.66 34.4172 306.07 33.3172 305.45 32.2372C305.45 32.2272 305.44 32.2172 305.43 32.2072C304.99 31.4472 304.54 30.6972 304.08 29.9472C304.06 29.9172 304.04 29.8772 304.02 29.8472C303.97 29.7672 303.92 29.6972 303.87 29.6172C300.61 30.9972 297.25 32.4172 293.96 33.8072C294.06 33.9572 294.15 34.1072 294.25 34.2572C294.71 35.0072 295.17 35.7772 295.61 36.5472C296.23 37.6272 296.82 38.7272 297.4 39.8372C297.51 40.0372 297.61 40.2472 297.72 40.4472C298.43 41.8472 299.11 43.2572 299.76 44.6972C299.84 44.8772 299.93 45.0672 300.01 45.2472C300.46 46.2672 300.9 47.2972 301.31 48.3372C301.46 48.7172 301.6 49.0972 301.75 49.4772C301.9 49.8772 302.06 50.2772 302.21 50.6772C302.42 51.2372 302.61 51.8072 302.81 52.3672C302.87 52.5572 302.94 52.7372 303.01 52.9272C303.26 53.6572 303.49 54.3972 303.72 55.1272C303.78 55.3172 303.84 55.5172 303.89 55.7072C304.06 56.2572 304.22 56.8072 304.37 57.3472C304.44 57.5972 304.51 57.8472 304.58 58.0972C304.72 58.6272 304.86 59.1472 304.99 59.6772C305.05 59.9072 305.11 60.1272 305.16 60.3572C305.33 61.0472 305.49 61.7372 305.63 62.4272C305.64 62.4872 305.66 62.5572 305.67 62.6172C305.83 63.3672 305.98 64.1172 306.11 64.8672C306.15 65.1072 306.19 65.3472 306.24 65.5972C306.33 66.1172 306.42 66.6272 306.5 67.1372C306.54 67.4272 306.58 67.7072 306.62 67.9972C306.69 68.4772 306.75 68.9572 306.81 69.4272C306.84 69.7072 306.88 69.9972 306.91 70.2772C306.96 70.7672 307.01 71.2572 307.05 71.7472C307.07 72.0072 307.1 72.2672 307.12 72.5172C307.17 73.1572 307.21 73.7872 307.24 74.4272C307.24 74.5172 307.25 74.6172 307.26 74.7072C307.29 75.4372 307.31 76.1572 307.32 76.8772C307.32 77.0772 307.32 77.2872 307.32 77.4872C307.32 77.9972 307.32 78.5172 307.3 79.0272C307.3 79.2772 307.28 79.5172 307.28 79.7672C307.26 80.2472 307.24 80.7272 307.2 81.2072C307.19 81.4372 307.17 81.6672 307.15 81.8972C307.1 82.5772 307.04 83.2572 306.96 83.9272C306.88 84.6272 306.78 85.3172 306.67 85.9872C306.64 86.1772 306.6 86.3672 306.57 86.5572C306.49 87.0172 306.41 87.4772 306.32 87.9272C306.27 88.1872 306.21 88.4472 306.15 88.6972C306.07 89.0772 305.98 89.4472 305.88 89.8172C305.81 90.0872 305.74 90.3572 305.66 90.6272C305.57 90.9672 305.47 91.3072 305.37 91.6372C305.28 91.9372 305.18 92.2272 305.09 92.5172C304.99 92.8172 304.89 93.1072 304.78 93.3972C304.66 93.7372 304.53 94.0672 304.39 94.3972C304.29 94.6572 304.18 94.9072 304.07 95.1572C303.9 95.5472 303.72 95.9372 303.54 96.3072C303.44 96.5072 303.35 96.7172 303.24 96.9172C302.92 97.5472 302.58 98.1572 302.22 98.7372C301.94 99.1872 301.65 99.6272 301.35 100.047C301.35 100.047 301.35 100.057 301.34 100.067C301.05 100.477 300.74 100.877 300.43 101.257C299.98 101.817 299.5 102.327 299.01 102.827C298.89 102.947 298.77 103.057 298.65 103.177C298.18 103.627 297.69 104.057 297.19 104.457C297.15 104.487 297.12 104.517 297.08 104.547C296.54 104.957 295.99 105.337 295.42 105.687C295.28 105.767 295.14 105.857 295 105.937C294.42 106.277 293.83 106.587 293.22 106.857L303.05 102.547C303.66 102.277 304.25 101.967 304.83 101.627C304.97 101.547 305.11 101.467 305.25 101.377C305.82 101.027 306.38 100.657 306.91 100.237C306.95 100.207 306.98 100.177 307.02 100.147C307.52 99.7472 308.01 99.3172 308.48 98.8672C308.6 98.7472 308.72 98.6372 308.84 98.5172C309.33 98.0272 309.81 97.5072 310.26 96.9472C310.27 96.9272 310.29 96.9172 310.3 96.8972C310.6 96.5272 310.89 96.1472 311.17 95.7472C311.17 95.7472 311.17 95.7372 311.18 95.7272C311.47 95.3272 311.74 94.9072 312.01 94.4772C312.02 94.4572 312.03 94.4372 312.04 94.4172C312.4 93.8372 312.74 93.2272 313.06 92.5972C313.09 92.5472 313.12 92.4972 313.15 92.4372C313.22 92.2872 313.29 92.1372 313.36 91.9872C313.54 91.6072 313.72 91.2272 313.89 90.8372C313.94 90.7372 313.99 90.6372 314.03 90.5272C314.09 90.3772 314.15 90.2172 314.21 90.0672C314.34 89.7372 314.47 89.4072 314.6 89.0672C314.65 88.9272 314.71 88.7972 314.76 88.6572C314.81 88.5072 314.86 88.3472 314.91 88.1872C315.01 87.8972 315.1 87.6072 315.19 87.3072C315.24 87.1572 315.29 87.0072 315.34 86.8572C315.39 86.6772 315.44 86.4872 315.49 86.3072C315.56 86.0372 315.64 85.7772 315.71 85.4972C315.75 85.3572 315.79 85.2272 315.82 85.0872C315.88 84.8572 315.92 84.6172 315.98 84.3772C316.04 84.1172 316.1 83.8672 316.15 83.6072C316.17 83.5072 316.2 83.4072 316.22 83.2972C316.29 82.9472 316.35 82.5972 316.41 82.2372C316.44 82.0472 316.48 81.8572 316.51 81.6672C316.51 81.6172 316.53 81.5772 316.53 81.5272C316.62 80.9372 316.71 80.3272 316.78 79.7072C316.78 79.6672 316.78 79.6372 316.79 79.5972C316.86 79.0372 316.91 78.4672 316.96 77.8972C316.96 77.7872 316.97 77.6772 316.98 77.5772C317 77.3472 317.01 77.1172 317.03 76.8872L317.05 76.8472Z" fill="#3B52A1"></path></g><path d="M293.15 108.289C292.61 108.249 292.11 107.919 291.88 107.399C291.55 106.639 291.89 105.759 292.65 105.419C293.14 105.209 293.65 104.939 294.27 104.579C294.4 104.509 294.52 104.429 294.65 104.349C295.24 103.989 295.74 103.639 296.18 103.309L296.29 103.219C296.72 102.879 297.16 102.489 297.64 102.039C297.78 101.909 297.88 101.809 297.97 101.719C298.47 101.209 298.91 100.739 299.29 100.259C299.58 99.8986 299.87 99.5286 300.15 99.1386C300.15 99.1386 300.19 99.0886 300.2 99.0686C300.44 98.7286 300.71 98.3186 300.97 97.8986C301.29 97.3786 301.61 96.8186 301.94 96.1786C302.01 96.0486 302.07 95.9086 302.14 95.7686L302.22 95.5986C302.39 95.2386 302.56 94.8786 302.73 94.5086C302.83 94.2686 302.93 94.0286 303.03 93.7886C303.16 93.4686 303.28 93.1586 303.4 92.8286C303.5 92.5586 303.6 92.2786 303.69 91.9886C303.78 91.7086 303.87 91.4286 303.96 91.1486C304.06 90.8286 304.15 90.5086 304.24 90.1786C304.31 89.9286 304.38 89.6686 304.44 89.4086C304.53 89.0486 304.62 88.6886 304.7 88.3186L304.73 88.1986C304.78 87.9886 304.82 87.7886 304.87 87.5786C304.96 87.1486 305.04 86.7086 305.12 86.2586L305.22 85.7086C305.32 85.0486 305.42 84.3886 305.5 83.7086C305.58 83.0586 305.63 82.3986 305.68 81.7386L305.73 81.0586C305.76 80.5986 305.78 80.1286 305.8 79.6586C305.8 79.4186 305.82 79.1786 305.82 78.9486C305.83 78.4486 305.84 77.9486 305.84 77.4486V76.8586C305.84 76.1586 305.82 75.4486 305.78 74.7386V74.4686C305.74 73.8386 305.7 73.2186 305.65 72.5986L305.58 71.8386C305.54 71.3586 305.49 70.8786 305.44 70.3986C305.41 70.1186 305.38 69.8486 305.34 69.5686C305.28 69.0986 305.22 68.6286 305.15 68.1586L305.03 67.3186C304.95 66.8186 304.87 66.3086 304.78 65.8086L304.66 65.0986C304.52 64.3586 304.38 63.6286 304.22 62.8886L304.18 62.6886C304.04 62.0286 303.88 61.3486 303.72 60.6686L303.55 60.0086C303.42 59.4886 303.28 58.9686 303.14 58.4586L302.94 57.7186C302.79 57.1786 302.63 56.6386 302.47 56.0986L302.3 55.5286C302.08 54.8086 301.84 54.0886 301.6 53.3686L301.41 52.8186C301.22 52.2686 301.02 51.7086 300.82 51.1586C300.7 50.8386 300.58 50.5286 300.46 50.2186L300.26 49.7086C300.15 49.4286 300.04 49.1386 299.93 48.8586C299.52 47.8386 299.1 46.8286 298.65 45.8186L298.41 45.2786C297.76 43.8386 297.09 42.4386 296.4 41.0986L296.09 40.4986C295.43 39.2386 294.87 38.2186 294.33 37.2686C293.89 36.5086 293.45 35.7586 292.99 35.0186C292.64 34.4586 292.29 33.8986 291.93 33.3486L291.72 33.0186C291.29 32.3586 290.85 31.7186 290.41 31.0786L290.02 30.5386C289.7 30.0886 289.38 29.6486 289.06 29.2086C288.93 29.0286 288.79 28.8486 288.66 28.6786L288.51 28.4786C288.23 28.1086 287.94 27.7386 287.66 27.3686C287.48 27.1386 287.3 26.9186 287.11 26.6886L287.04 26.6086C286.76 26.2686 286.48 25.9186 286.2 25.5886C285.98 25.3286 285.75 25.0586 285.53 24.8086C285.25 24.4886 284.97 24.1686 284.68 23.8486C284.45 23.5986 284.23 23.3486 284 23.0986C283.71 22.7886 283.42 22.4786 283.12 22.1686C282.9 21.9386 282.67 21.7086 282.44 21.4786C282.13 21.1686 281.82 20.8586 281.5 20.5586C281.28 20.3386 281.07 20.1486 280.87 19.9486C280.52 19.6286 280.17 19.3086 279.82 18.9886L279.28 18.5086C278.75 18.0486 278.22 17.5986 277.69 17.1686L277.59 17.0886C277.04 16.6486 276.49 16.2186 275.93 15.7986C275.43 15.4286 274.93 15.0786 274.43 14.7386L273.87 14.3586C273.49 14.1086 273.11 13.8686 272.74 13.6386L272.25 13.3386C271.19 12.7086 270.13 12.1286 269.08 11.6386L268.58 11.4086C268.22 11.2486 267.87 11.0886 267.52 10.9386C267.31 10.8486 267.11 10.7686 266.9 10.6886C266.58 10.5586 266.26 10.4386 265.93 10.3286C265.72 10.2586 265.52 10.1786 265.31 10.1186C265.01 10.0186 264.71 9.92859 264.41 9.84859L264.3 9.81859C264.1 9.75859 263.9 9.69859 263.7 9.64859C263.44 9.57859 263.18 9.51859 262.92 9.45859L262.75 9.41859C262.54 9.36859 262.33 9.31859 262.12 9.27859C261.93 9.23859 261.74 9.20859 261.55 9.17859L261.38 9.14859C261.08 9.09859 260.78 9.04859 260.49 9.01859C260.32 8.99859 260.15 8.97859 259.98 8.96859H259.85C259.48 8.92859 259.11 8.89859 258.74 8.88859C258.54 8.88859 258.35 8.87859 258.16 8.87859C257.55 8.87859 257.01 8.88859 256.5 8.92859C256.48 8.92859 256.37 8.92859 256.34 8.92859L255.99 8.96859C255.65 9.00859 255.31 9.04859 254.98 9.09859C254.88 9.11859 254.78 9.13859 254.69 9.15859L254.5 9.19859C254.23 9.24859 253.96 9.29859 253.7 9.36859C253.38 9.44859 253.06 9.53859 252.74 9.63859L252.52 9.70859C252.44 9.72859 252.36 9.74859 252.28 9.77859C251.79 9.94859 251.34 10.1186 250.92 10.2986H250.91C250.15 10.6386 249.27 10.2986 248.93 9.52859C248.6 8.76859 248.94 7.88859 249.7 7.54859L259.53 3.23859C260.03 3.01859 260.56 2.81859 261.14 2.61859C261.26 2.57859 261.39 2.53859 261.51 2.50859L261.68 2.45859C262.06 2.34859 262.43 2.23859 262.81 2.13859C262.87 2.11859 262.94 2.09859 263 2.08859C263.18 2.04859 263.36 2.01859 263.54 1.97859L263.91 1.90859C264.04 1.87859 264.17 1.85859 264.31 1.82859C264.7 1.76859 265.09 1.71859 265.49 1.67859H265.6C265.69 1.64859 265.79 1.63859 265.88 1.62859C265.99 1.61859 266.05 1.61859 266.12 1.61859C266.69 1.57859 267.32 1.55859 268.01 1.55859C268.12 1.55859 268.21 1.55859 268.29 1.55859C268.39 1.55859 268.48 1.55859 268.58 1.57859C269.1 1.59859 269.52 1.62859 269.95 1.66859H270.07C270.18 1.67859 270.28 1.68859 270.39 1.69859C270.46 1.69859 270.53 1.71859 270.61 1.72859C271.01 1.77859 271.35 1.82859 271.69 1.88859L271.88 1.91859C272.01 1.93859 272.14 1.94859 272.27 1.97859L272.47 2.01859C272.76 2.07859 273 2.12859 273.25 2.18859L273.6 2.26859C273.74 2.29859 273.89 2.32859 274.04 2.36859L274.24 2.42859C274.54 2.50859 274.77 2.57859 274.99 2.63859L275.33 2.73859C275.46 2.77859 275.6 2.80859 275.74 2.85859L276.1 2.98859C276.32 3.05859 276.55 3.13859 276.77 3.21859L276.96 3.27859C277.08 3.31859 277.2 3.35859 277.32 3.39859C277.43 3.43859 277.54 3.48859 277.65 3.52859L277.84 3.60859C278.06 3.69859 278.29 3.78859 278.51 3.87859L278.89 4.02859C279.07 4.10859 279.25 4.18859 279.43 4.26859L280.4 4.71859C280.9 4.95859 281.4 5.21859 281.9 5.48859C282.41 5.75859 282.9 6.03859 283.4 6.33859L284.38 6.93859C284.55 7.03859 284.72 7.14859 284.9 7.25859L286.4 8.25859C286.79 8.52859 287.17 8.80859 287.56 9.08859L287.91 9.34859C288.38 9.69859 288.84 10.0686 289.31 10.4386L289.43 10.5286C289.95 10.9486 290.46 11.3786 290.96 11.8086L291.08 11.9086C291.24 12.0486 291.36 12.1586 291.49 12.2786L291.93 12.6686C292.12 12.8386 292.32 13.0086 292.51 13.1886L292.78 13.4486C292.98 13.6286 293.17 13.8186 293.36 14.0086L293.66 14.2986C293.79 14.4186 293.92 14.5486 294.05 14.6686L294.42 15.0486C294.66 15.2886 294.9 15.5386 295.13 15.7786L296.04 16.7486C296.28 17.0086 296.52 17.2686 296.75 17.5286L297.14 17.9586C297.25 18.0786 297.35 18.1986 297.46 18.3286L297.64 18.5386C297.87 18.8086 298.11 19.0786 298.34 19.3586L298.66 19.7386C298.78 19.8786 298.9 20.0286 299.02 20.1786L299.33 20.5586C299.51 20.7786 299.68 20.9986 299.86 21.2186L300.1 21.5186C300.24 21.6986 300.38 21.8886 300.52 22.0686L301.48 23.3386C301.69 23.6286 301.9 23.9186 302.11 24.2186L302.79 25.1686C303.22 25.7886 303.65 26.4286 304.07 27.0686C304.09 27.0986 304.12 27.1386 304.13 27.1686L304.31 27.4486C304.66 27.9886 305 28.5186 305.34 29.0586C305.34 29.0686 305.39 29.1386 305.4 29.1486C305.87 29.9086 306.33 30.6786 306.77 31.4486C307.36 32.4686 307.94 33.5286 308.61 34.8286L308.9 35.3886C309.64 36.8386 310.34 38.2886 311 39.7686C311.08 39.9186 311.11 39.9986 311.14 40.0686L311.25 40.3286C311.71 41.3686 312.15 42.4186 312.57 43.4686L312.64 43.6386C312.72 43.8486 312.8 44.0586 312.88 44.2686L313.13 44.9386C313.25 45.2386 313.36 45.5386 313.47 45.8386L313.56 46.0586C313.73 46.5286 313.89 46.9886 314.05 47.4486L314.28 48.1186C314.28 48.1186 314.31 48.2186 314.32 48.2286C314.53 48.8486 314.74 49.4986 314.95 50.1486L315.28 51.2486C315.36 51.5186 315.45 51.7886 315.52 52.0586L316.06 54.0086C316.12 54.2286 316.17 54.4486 316.23 54.6686L316.55 55.9586C316.69 56.5686 316.83 57.1686 316.96 57.7686L316.99 57.9286C316.99 57.9286 317.01 58.0286 317.02 58.0686C317.15 58.6786 317.29 59.3686 317.42 60.0486L317.64 61.3386C317.69 61.6086 317.73 61.8786 317.78 62.1486L317.84 62.5786C317.88 62.8686 317.93 63.1486 317.97 63.4386L318.16 64.9086C318.2 65.1986 318.23 65.4886 318.26 65.7786L318.32 66.3186C318.34 66.5386 318.36 66.7586 318.38 66.9786L318.5 68.3786C318.54 68.9286 318.57 69.4786 318.6 70.0286L318.62 70.3186C318.65 71.0186 318.67 71.6786 318.68 72.3286V73.3986C318.68 73.6786 318.68 73.9686 318.68 74.2486L318.63 75.7386C318.63 75.8786 318.63 76.0186 318.62 76.1486C318.62 76.3286 318.6 76.5086 318.58 76.6886L318.55 77.0986C318.54 77.2986 318.53 77.4986 318.51 77.6986L318.49 78.0286C318.44 78.6186 318.38 79.1986 318.31 79.7786L318.3 79.8886C318.22 80.5186 318.14 81.1486 318.04 81.7586C318.04 81.7686 318.02 81.8786 318.02 81.8886L317.86 82.7786C317.81 83.0486 317.77 83.3186 317.72 83.5886L317.65 83.9186C317.61 84.1186 317.56 84.3286 317.51 84.5386L317.42 84.9686C317.39 85.1286 317.35 85.2886 317.31 85.4486C317.29 85.5386 317.26 85.6386 317.24 85.7286L317.2 85.8786C317.13 86.1586 317.05 86.4386 316.98 86.7186L316.92 86.9286C316.89 87.0486 316.86 87.1686 316.82 87.2886L316.67 87.7686C316.58 88.0786 316.48 88.3886 316.37 88.6886L316.32 88.8586C316.29 88.9686 316.25 89.0686 316.22 89.1686C316.18 89.2686 316.15 89.3586 316.11 89.4486L316.05 89.5986C315.92 89.9486 315.79 90.2986 315.65 90.6386L315.59 90.8086C315.55 90.9186 315.51 91.0186 315.47 91.1186C315.44 91.1886 315.4 91.2686 315.36 91.3486C315.14 91.8486 314.95 92.2486 314.76 92.6486L314.69 92.8086C314.64 92.9086 314.6 93.0186 314.55 93.1186C314.53 93.1486 314.48 93.2586 314.46 93.2786C314.1 93.9886 313.74 94.6186 313.37 95.2086C313.05 95.7286 312.76 96.1686 312.45 96.5986C312.45 96.5986 312.44 96.6186 312.43 96.6286C312.13 97.0486 311.83 97.4486 311.51 97.8386C311.49 97.8586 311.46 97.8986 311.44 97.9186C310.99 98.4686 310.51 98.9986 309.95 99.5586C309.83 99.6786 309.71 99.7986 309.59 99.9086C309.01 100.459 308.5 100.909 307.99 101.309C307.96 101.339 307.91 101.379 307.87 101.409C307.34 101.819 306.75 102.219 306.08 102.639C305.93 102.729 305.78 102.819 305.63 102.909C304.91 103.329 304.3 103.639 303.7 103.899L293.88 108.209C293.88 108.209 293.88 108.209 293.87 108.209C293.64 108.309 293.4 108.349 293.16 108.329L293.15 108.289ZM302.61 100.859C302.61 100.859 302.61 100.869 302.6 100.879C302.54 100.969 302.48 101.049 302.41 101.139L302.48 101.109C302.98 100.889 303.49 100.629 304.11 100.269C304.24 100.199 304.37 100.119 304.49 100.039C305.08 99.6786 305.58 99.3386 306.02 98.9886L306.11 98.9186C306.55 98.5686 306.99 98.1886 307.47 97.7286C307.6 97.6086 307.7 97.5086 307.8 97.4086C308.3 96.8986 308.73 96.4286 309.12 95.9486C309.14 95.9286 309.16 95.8986 309.19 95.8686C309.46 95.5386 309.72 95.1886 309.97 94.8286C309.97 94.8286 309.98 94.8086 309.99 94.7986C310.26 94.4186 310.51 94.0386 310.76 93.6386C311.12 93.0586 311.43 92.4886 311.76 91.8586C311.77 91.8286 311.83 91.7286 311.85 91.6986L312.04 91.2786C312.22 90.9186 312.39 90.5586 312.55 90.1786L312.85 89.4486C312.97 89.1386 313.1 88.8186 313.22 88.4986L313.51 87.6586C313.61 87.3786 313.69 87.0986 313.78 86.8186L314.06 85.8486C314.13 85.5886 314.2 85.3286 314.27 85.0686L314.37 84.6786C314.4 84.5386 314.43 84.4086 314.46 84.2786L314.56 83.8086C314.6 83.6186 314.65 83.4286 314.68 83.2386L314.74 82.9486C314.79 82.6986 314.83 82.4586 314.87 82.2186L315.02 81.3786L316.53 81.4686L315.05 81.2386C315.14 80.6586 315.22 80.0786 315.29 79.4786L316.79 79.5486L315.3 79.3786C315.36 78.8286 315.42 78.2886 315.46 77.7286L315.55 76.4186C315.56 76.2586 315.57 76.0986 315.58 75.9386L315.64 74.1386C315.64 73.8786 315.64 73.6186 315.64 73.3486V72.5086C315.64 72.5086 315.64 72.4086 315.64 72.3986C315.64 71.6886 315.61 71.0586 315.59 70.4386L315.57 70.1286C315.54 69.5986 315.52 69.0686 315.48 68.5486L315.36 67.1786C315.34 66.9786 315.33 66.7786 315.31 66.5786L315.25 66.0686C315.22 65.7886 315.19 65.5086 315.15 65.2386L314.96 63.8286C314.92 63.5486 314.88 63.2786 314.84 62.9986L314.78 62.5886C314.74 62.3386 314.7 62.0886 314.65 61.8386L314.44 60.6486C314.3 59.9186 314.17 59.2586 314.03 58.5986L314 58.4686C313.85 57.7986 313.72 57.2186 313.59 56.6286L312.59 52.8486C312.52 52.5986 312.44 52.3386 312.36 52.0886L312.06 51.0886C311.84 50.3686 311.63 49.7486 311.42 49.1186L311.16 48.3786C311.01 47.9386 310.85 47.4886 310.69 47.0486L310.61 46.8286C310.5 46.5286 310.39 46.2486 310.28 45.9586L310.02 45.2686C309.95 45.0786 309.88 44.8786 309.8 44.6886L309.73 44.5186C309.32 43.4986 308.9 42.4886 308.45 41.4786L308.21 40.9386C307.57 39.5086 306.89 38.0986 306.2 36.7586L305.89 36.1686C305.23 34.9086 304.67 33.8786 304.12 32.9286C303.67 32.1486 303.23 31.4086 302.78 30.6786C302.78 30.6786 302.73 30.5986 302.73 30.5886C302.4 30.0486 302.06 29.5386 301.73 29.0186L301.5 28.6686C301.08 28.0286 300.67 27.4186 300.25 26.8186L301.42 25.8686L300.19 26.7286L299.6 25.8986C299.4 25.6186 299.2 25.3386 299 25.0586L298.06 23.8186C297.93 23.6486 297.8 23.4786 297.67 23.3086L297.44 23.0186C297.27 22.8086 297.11 22.5986 296.94 22.3986L296.61 21.9986C296.5 21.8686 296.4 21.7286 296.29 21.5986L295.98 21.2386C295.76 20.9686 295.53 20.7186 295.31 20.4586L294.47 19.4986C294.24 19.2486 294.01 18.9986 293.78 18.7486L292.9 17.8186C292.67 17.5886 292.45 17.3486 292.22 17.1286L291.87 16.7686C291.76 16.6586 291.64 16.5486 291.53 16.4386L291.21 16.1286C291.03 15.9486 290.84 15.7686 290.66 15.5986L290.4 15.3586C290.22 15.1886 290.05 15.0386 289.87 14.8786L289.07 14.1686C289.07 14.1686 288.99 14.0986 288.98 14.0886C288.46 13.6286 287.98 13.2386 287.5 12.8486C287.49 12.8486 287.48 12.8286 287.47 12.8186L287.36 12.7286C286.93 12.3786 286.49 12.0386 286.04 11.6986L285.71 11.4486C285.35 11.1786 284.98 10.9186 284.62 10.6686L283.22 9.72859C283.07 9.62859 282.92 9.53859 282.77 9.44859L281.9 8.90859C281.37 8.58859 280.91 8.32859 280.45 8.08859C279.97 7.82859 279.51 7.59859 279.05 7.36859L278.11 6.93859C277.96 6.86859 277.81 6.79859 277.66 6.72859L277.31 6.58859C277.1 6.50859 276.9 6.41859 276.7 6.33859L275.73 5.97859C275.53 5.90859 275.33 5.83859 275.12 5.76859L274.79 5.65859C274.7 5.62859 274.6 5.59859 274.5 5.57859L274.11 5.46859C273.91 5.40859 273.71 5.34859 273.51 5.29859L273.34 5.24859C273.15 5.19859 273.05 5.17859 272.95 5.15859L272.54 5.06859C272.33 5.01859 272.12 4.96859 271.91 4.92859L271.75 4.88859C271.61 4.85859 271.53 4.84859 271.45 4.83859L271.18 4.79859C270.88 4.74859 270.58 4.69859 270.28 4.66859L269.9 4.61859C269.82 4.61859 269.73 4.61859 269.65 4.59859C269.28 4.56859 268.91 4.53859 268.54 4.52859C268.46 4.52859 268.38 4.52859 268.31 4.50859H268.21C268.11 4.50859 268.04 4.50859 267.97 4.50859C267.37 4.50859 266.82 4.51859 266.31 4.55859C266.28 4.55859 266.17 4.55859 266.13 4.55859L265.8 4.59859C265.45 4.63859 265.12 4.67859 264.78 4.72859C264.68 4.74859 264.59 4.75859 264.5 4.77859L264.06 4.85859C263.92 4.88859 263.79 4.90859 263.65 4.93859L263.5 4.97859C263.18 5.05859 262.86 5.14859 262.54 5.24859L262.31 5.31859C262.23 5.33859 262.15 5.36859 262.07 5.38859C261.57 5.55859 261.13 5.72859 260.7 5.90859L260.62 5.94859C260.69 5.94859 260.75 5.95859 260.82 5.96859C261.15 6.00859 261.49 6.05859 261.83 6.11859L261.99 6.14859C262.21 6.18859 262.43 6.21859 262.66 6.25859C262.9 6.30859 263.15 6.35859 263.39 6.41859L263.51 6.44859C263.85 6.52859 264.15 6.58859 264.44 6.66859C264.67 6.72859 264.9 6.79859 265.12 6.85859L265.23 6.88859C265.56 6.98859 265.89 7.07859 266.22 7.18859C266.45 7.25859 266.67 7.33859 266.9 7.41859C267.25 7.53859 267.6 7.67859 267.96 7.80859C268.19 7.89859 268.41 7.98859 268.64 8.07859C269.02 8.23859 269.41 8.40859 269.79 8.58859L270.33 8.83859C271.46 9.37859 272.61 9.99859 273.75 10.6786L274.28 11.0086C274.68 11.2586 275.09 11.5086 275.49 11.7786C275.69 11.9086 275.89 12.0386 276.08 12.1786C276.61 12.5386 277.14 12.9086 277.68 13.3086C278.27 13.7486 278.86 14.2086 279.44 14.6686L279.54 14.7486C280.11 15.2086 280.67 15.6786 281.22 16.1586L281.78 16.6686C282.15 16.9986 282.52 17.3286 282.88 17.6786C283.1 17.8886 283.31 18.0886 283.53 18.2986C283.87 18.6286 284.2 18.9486 284.53 19.2786C284.77 19.5186 285 19.7586 285.24 19.9986C285.55 20.3186 285.85 20.6386 286.16 20.9686C286.4 21.2286 286.63 21.4886 286.87 21.7486C287.17 22.0786 287.46 22.4086 287.75 22.7486C287.99 23.0186 288.22 23.2886 288.45 23.5686C288.74 23.9186 289.04 24.2786 289.33 24.6286L289.4 24.7086C289.59 24.9486 289.78 25.1786 289.97 25.4186C290.27 25.7986 290.56 26.1786 290.86 26.5686L291.01 26.7686C291.16 26.9586 291.3 27.1486 291.44 27.3386C291.78 27.7886 292.11 28.2586 292.44 28.7186L292.85 29.2886C293.31 29.9486 293.76 30.6186 294.21 31.2986L294.43 31.6486C294.8 32.2186 295.17 32.7886 295.53 33.3786C296 34.1486 296.47 34.9186 296.92 35.7086C297.49 36.6986 298.07 37.7586 298.74 39.0486L299.06 39.6686C299.77 41.0486 300.46 42.4986 301.13 43.9786L301.38 44.5386C301.84 45.5686 302.28 46.6186 302.7 47.6686C302.82 47.9586 302.93 48.2586 303.04 48.5586L303.23 49.0586C303.36 49.3886 303.48 49.7186 303.6 50.0486C303.81 50.6186 304.01 51.1886 304.21 51.7686L304.41 52.3386C304.66 53.0786 304.9 53.8286 305.13 54.5786L305.31 55.1686C305.48 55.7286 305.64 56.2886 305.8 56.8386L306.01 57.5986C306.15 58.1286 306.3 58.6686 306.43 59.2086L306.6 59.8986C306.77 60.5986 306.93 61.2986 307.08 61.9986L307.13 62.1986C307.29 62.9586 307.44 63.7186 307.58 64.4786L307.71 65.2186C307.8 65.7386 307.89 66.2686 307.97 66.7886L308.1 67.6586C308.17 68.1486 308.23 68.6386 308.29 69.1186C308.33 69.4086 308.36 69.6986 308.39 69.9886C308.45 70.4886 308.49 70.9886 308.54 71.4886L308.61 72.2786C308.66 72.9286 308.7 73.5786 308.73 74.2286L308.75 74.5186C308.78 75.2586 308.8 75.9986 308.81 76.7386V77.3586C308.81 77.8886 308.81 78.4186 308.79 78.9386C308.79 79.1886 308.77 79.4386 308.76 79.6986C308.74 80.1986 308.72 80.6886 308.68 81.1786L308.63 81.8986C308.58 82.5986 308.51 83.2886 308.43 83.9786C308.35 84.6986 308.25 85.4086 308.14 86.1086L308.04 86.6886C307.96 87.1686 307.87 87.6386 307.78 88.1086C307.73 88.3386 307.68 88.5586 307.63 88.7886L307.6 88.9086C307.51 89.2986 307.42 89.6886 307.32 90.0686C307.25 90.3486 307.17 90.6286 307.1 90.9086C307 91.2686 306.9 91.6086 306.79 91.9586C306.69 92.2686 306.6 92.5686 306.5 92.8686C306.4 93.1786 306.29 93.4886 306.18 93.7886C306.05 94.1486 305.91 94.4986 305.78 94.8386C305.67 95.1086 305.56 95.3686 305.45 95.6286C305.27 96.0486 305.08 96.4486 304.89 96.8386L304.81 96.9986C304.73 97.1586 304.65 97.3186 304.57 97.4786C304.21 98.1886 303.85 98.8186 303.49 99.3986C303.2 99.8786 302.89 100.339 302.57 100.789L302.61 100.859Z" fill="#33343C"></path><path d="M293.256 106.792C308.914 99.922 311.992 72.4389 300.132 45.4068C288.271 18.3748 265.963 2.03021 250.305 8.90028C234.647 15.7703 231.569 43.2535 243.43 70.2855C255.29 97.3176 277.598 113.662 293.256 106.792Z" fill="#FF6000"></path><path d="M283.909 109.82C278.169 109.41 272.009 106.89 265.849 102.34C246.049 87.6998 232.249 55.9898 235.079 31.6498C236.479 19.5798 241.699 10.9998 249.779 7.49975C257.909 3.96975 267.819 6.05975 277.709 13.3698C297.509 28.0098 311.309 59.7198 308.479 84.0598C307.079 96.1298 301.859 104.71 293.779 108.21C290.709 109.54 287.389 110.07 283.909 109.82ZM259.439 8.88975C256.429 8.67975 253.579 9.12975 250.969 10.2598C243.919 13.3198 239.329 21.0398 238.059 32.0098C235.339 55.3998 248.609 85.8698 267.639 99.9398C276.629 106.58 285.489 108.55 292.589 105.47C299.639 102.41 304.229 94.6898 305.499 83.7298C308.219 60.3398 294.949 29.8698 275.919 15.7998C270.239 11.5998 264.609 9.26975 259.439 8.89975V8.88975Z" fill="#33343C"></path><path d="M268.66 85.1812C256.53 76.2112 248.09 56.6212 249.85 41.5112C251.61 26.4012 262.91 21.4012 275.04 30.3612C287.17 39.3312 295.61 58.9212 293.85 74.0312C292.09 89.1412 280.79 94.1512 268.66 85.1812ZM276.16 20.6712C259.72 8.51122 244.45 15.2712 242.07 35.7612C239.69 56.2512 251.09 82.7212 267.53 94.8712C283.98 107.031 299.24 100.271 301.63 79.7812C304.01 59.2912 292.61 32.8312 276.17 20.6712" fill="#FFFEFF"></path><path d="M271.1 64.2608C268.23 62.1408 266.23 57.5008 266.65 53.9208C267.07 50.3408 269.74 49.1608 272.61 51.2808C275.48 53.4008 277.48 58.0408 277.07 61.6208C276.65 65.2008 273.98 66.3808 271.1 64.2608ZM273.74 41.5808C266.58 36.2908 259.91 39.2408 258.87 48.1608C257.83 57.0808 262.82 68.6508 269.98 73.9408C277.15 79.2408 283.81 76.2808 284.85 67.3608C285.89 58.4408 280.91 46.8708 273.74 41.5808Z" fill="#FFFEFF"></path><path d="M281.889 102.38C277.029 102.03 271.819 99.9096 266.639 96.0796C249.839 83.6596 238.149 56.5196 240.579 35.5896C241.799 25.0696 246.339 17.5996 253.349 14.5596C260.279 11.5496 268.699 13.2996 277.049 19.4696C293.859 31.8896 305.549 59.0296 303.109 79.9596C301.889 90.4796 297.349 97.9596 290.339 101C287.709 102.14 284.859 102.6 281.879 102.39L281.889 102.38ZM261.599 16.1596C259.099 15.9796 256.719 16.3596 254.539 17.2996C248.549 19.8996 244.649 26.5096 243.559 35.9296C241.239 55.9096 252.389 81.8096 268.419 93.6596C275.879 99.1696 283.239 100.8 289.149 98.2396C295.139 95.6396 299.039 89.0296 300.129 79.6096C302.449 59.6296 291.299 33.7296 275.259 21.8796C270.549 18.3996 265.879 16.4696 261.589 16.1596H261.599ZM279.219 91.1096C275.559 90.8496 271.649 89.2596 267.769 86.3896C255.259 77.1396 246.549 56.9296 248.359 41.3396C249.279 33.4296 252.719 27.8096 258.029 25.4996C263.289 23.2196 269.649 24.5196 275.919 29.1596C288.439 38.4096 297.149 58.6196 295.329 74.2096C294.409 82.1196 290.969 87.7396 285.649 90.0496C283.639 90.9196 281.469 91.2696 279.199 91.1096H279.219ZM269.549 83.9796C274.929 87.9596 280.229 89.1396 284.469 87.2996C288.769 85.4396 291.569 80.6696 292.359 73.8596C294.059 59.2196 285.889 40.2496 274.139 31.5696C268.759 27.5896 263.459 26.4096 259.219 28.2496C254.919 30.1096 252.119 34.8796 251.329 41.6796C249.629 56.3196 257.799 75.2896 269.539 83.9696L269.549 83.9796Z" fill="#33343C"></path><path d="M276.159 78.0692C273.879 77.9092 271.469 76.9292 269.079 75.1592C261.529 69.5792 256.279 57.3892 257.379 47.9992C257.949 43.0992 260.109 39.6092 263.459 38.1592C266.769 36.7192 270.739 37.5092 274.629 40.3892C282.179 45.9692 287.429 58.1592 286.329 67.5492C285.759 72.4492 283.599 75.9392 280.249 77.3992C278.969 77.9592 277.589 78.1792 276.159 78.0792V78.0692ZM267.339 40.4692C266.379 40.3992 265.469 40.5392 264.649 40.8992C262.319 41.9092 260.799 44.5492 260.359 48.3392C259.379 56.7892 264.089 67.7392 270.869 72.7492C273.869 74.9592 276.779 75.6392 279.069 74.6392C281.399 73.6292 282.919 70.9892 283.359 67.1992C284.339 58.7492 279.629 47.7992 272.849 42.7992C270.929 41.3792 269.049 40.5992 267.339 40.4792V40.4692ZM273.519 66.8092C272.439 66.7292 271.309 66.2792 270.209 65.4692C266.899 63.0192 264.679 57.8692 265.159 53.7492C265.419 51.4892 266.499 49.7892 268.129 49.0792C269.769 48.3692 271.669 48.7192 273.499 50.0792C276.819 52.5292 279.039 57.6792 278.559 61.7992C278.299 64.0592 277.209 65.7592 275.589 66.4692C274.939 66.7492 274.239 66.8692 273.529 66.8192L273.519 66.8092ZM271.989 63.0492C272.909 63.7292 273.779 63.9692 274.389 63.7092C275.009 63.4392 275.439 62.6192 275.579 61.4492C275.929 58.3992 274.169 54.2992 271.719 52.4892C270.799 51.8092 269.929 51.5692 269.319 51.8292C268.699 52.0992 268.269 52.9192 268.139 54.0892C267.789 57.1392 269.549 61.2492 271.989 63.0492Z" fill="#33343C"></path><path d="M230.07 82.3281C231.47 84.0881 234.22 85.2081 238.45 82.6981C243.99 79.4081 245.31 71.5781 245.38 71.1681L229.16 78.4681C228.7 79.2081 228.98 80.9581 230.07 82.3281Z" fill="#32CFF0"></path><path d="M224.869 71.1979C225.559 73.1779 227.069 74.8379 228.019 75.0679L243.869 68.1079C243.439 67.8279 235.309 62.4879 229.139 64.2079C224.429 65.5279 223.979 68.6279 224.869 71.1879V71.1979Z" fill="#32CFF0"></path><path d="M223.98 76.179L228.79 74.069C229.5 73.759 230.21 73.449 230.92 73.129L235.18 71.259C236.03 70.889 236.88 70.509 237.74 70.139L239.54 69.349C244.1 67.349 248.79 65.289 253.5 63.229L255.57 62.319C263.71 58.749 257.36 61.539 264.75 58.289L265.62 57.909C267.26 57.189 268.87 56.479 270.43 55.799C270.46 55.789 270.49 55.779 270.52 55.769C270.6 55.749 270.68 55.749 270.77 55.769C270.8 55.769 270.83 55.789 270.86 55.789C270.92 55.809 270.98 55.819 271.04 55.849C271.04 55.849 271.06 55.849 271.07 55.849C271.1 55.869 271.14 55.889 271.17 55.909C271.21 55.939 271.26 55.959 271.3 55.989C271.3 55.989 271.32 55.999 271.33 56.009C271.37 56.039 271.42 56.089 271.46 56.129C271.49 56.149 271.51 56.169 271.54 56.199C271.54 56.199 271.55 56.199 271.56 56.209C271.63 56.279 271.71 56.359 271.78 56.449C271.8 56.479 271.82 56.509 271.84 56.529C271.9 56.599 271.95 56.679 272.01 56.759C272.01 56.769 272.03 56.789 272.03 56.799C272.09 56.889 272.15 56.989 272.2 57.099C272.22 57.139 272.24 57.179 272.26 57.219C272.29 57.269 272.31 57.319 272.34 57.379C272.36 57.429 272.39 57.489 272.41 57.539C272.44 57.629 272.47 57.709 272.5 57.799C272.5 57.829 272.51 57.849 272.52 57.869C272.53 57.919 272.55 57.969 272.56 58.019C272.58 58.089 272.59 58.159 272.61 58.229C272.61 58.279 272.63 58.329 272.63 58.369C272.63 58.399 272.64 58.429 272.64 58.459C272.64 58.489 272.64 58.519 272.64 58.549C272.64 58.609 272.64 58.679 272.65 58.739C272.65 58.769 272.65 58.789 272.65 58.819C272.65 58.849 272.65 58.879 272.65 58.909C272.65 58.959 272.65 58.999 272.64 59.039C272.64 59.059 272.64 59.089 272.64 59.109C272.64 59.139 272.63 59.169 272.62 59.199C272.62 59.239 272.6 59.279 272.59 59.309C272.59 59.329 272.59 59.339 272.58 59.359C272.58 59.379 272.56 59.399 272.55 59.429C272.53 59.469 272.51 59.509 272.49 59.549C272.49 59.559 272.48 59.579 272.47 59.589C272.45 59.609 272.43 59.629 272.41 59.649C272.4 59.669 272.38 59.679 272.37 59.699C272.32 59.739 272.27 59.779 272.21 59.809L225.73 80.179L223.97 76.159L223.98 76.179Z" fill="#33343C"></path><path d="M223.79 78.4371C223.35 77.3071 223.48 76.2771 224.07 76.1371C224.66 75.9971 225.5 76.7971 225.93 77.9171C226.37 79.0471 226.24 80.0771 225.65 80.2171C225.06 80.3571 224.22 79.5571 223.79 78.4371Z" fill="#33343C"></path><path d="M225.66 80.229C226.25 80.089 226.38 79.059 225.94 77.929C225.5 76.799 224.67 76.009 224.08 76.149C223.49 76.289 223.36 77.319 223.8 78.449C224.24 79.579 225.07 80.369 225.66 80.229ZM223.9 78.409C223.58 77.589 223.56 76.789 223.85 76.419C223.92 76.329 224.01 76.269 224.11 76.249C224.64 76.119 225.44 76.909 225.85 77.969C226.17 78.789 226.19 79.589 225.9 79.959C225.83 80.049 225.74 80.109 225.64 80.129C225.11 80.259 224.31 79.469 223.9 78.409Z" fill="#33343C"></path></g><defs><linearGradient id="paint0_linear_2387_28902" x1="260.09" y1="410.36" x2="260.09" y2="25.7903" gradientUnits="userSpaceOnUse"><stop stop-color="#3B52A1" stop-opacity="0"></stop><stop offset="0.07" stop-color="#3A5EA8" stop-opacity="0.1"></stop><stop offset="0.33" stop-color="#3785C1" stop-opacity="0.41"></stop><stop offset="0.56" stop-color="#35A5D5" stop-opacity="0.67"></stop><stop offset="0.76" stop-color="#33BBE3" stop-opacity="0.85"></stop><stop offset="0.91" stop-color="#32C9EC" stop-opacity="0.96"></stop><stop offset="1" stop-color="#32CFF0"></stop></linearGradient><linearGradient id="paint1_linear_2387_28902" x1="316.61" y1="412.59" x2="316.61" y2="-37.0497" gradientUnits="userSpaceOnUse"><stop stop-color="#3B52A1" stop-opacity="0"></stop><stop offset="0.07" stop-color="#3A5EA8" stop-opacity="0.1"></stop><stop offset="0.33" stop-color="#3785C1" stop-opacity="0.41"></stop><stop offset="0.56" stop-color="#35A5D5" stop-opacity="0.67"></stop><stop offset="0.76" stop-color="#33BBE3" stop-opacity="0.85"></stop><stop offset="0.91" stop-color="#32C9EC" stop-opacity="0.96"></stop><stop offset="1" stop-color="#32CFF0"></stop></linearGradient><linearGradient id="paint2_linear_2387_28902" x1="288.35" y1="67.4378" x2="288.35" y2="430.628" gradientUnits="userSpaceOnUse"><stop stop-color="#33343C"></stop><stop offset="0.31" stop-color="#363F63" stop-opacity="0.61"></stop><stop offset="0.75" stop-color="#394D90" stop-opacity="0.17"></stop><stop offset="1" stop-color="#3B52A1" stop-opacity="0"></stop></linearGradient><linearGradient id="paint3_linear_2387_28902" x1="184.73" y1="412.764" x2="184.73" y2="158.824" gradientUnits="userSpaceOnUse"><stop stop-color="#3B52A1" stop-opacity="0"></stop><stop offset="0.07" stop-color="#3A5EA8" stop-opacity="0.1"></stop><stop offset="0.33" stop-color="#3785C1" stop-opacity="0.41"></stop><stop offset="0.56" stop-color="#35A5D5" stop-opacity="0.67"></stop><stop offset="0.76" stop-color="#33BBE3" stop-opacity="0.85"></stop><stop offset="0.91" stop-color="#32C9EC" stop-opacity="0.96"></stop><stop offset="1" stop-color="#32CFF0"></stop></linearGradient><linearGradient id="paint4_linear_2387_28902" x1="241.25" y1="411.964" x2="241.25" y2="128.494" gradientUnits="userSpaceOnUse"><stop stop-color="#3B52A1" stop-opacity="0"></stop><stop offset="0.07" stop-color="#3A5EA8" stop-opacity="0.1"></stop><stop offset="0.33" stop-color="#3785C1" stop-opacity="0.41"></stop><stop offset="0.56" stop-color="#35A5D5" stop-opacity="0.67"></stop><stop offset="0.76" stop-color="#33BBE3" stop-opacity="0.85"></stop><stop offset="0.91" stop-color="#32C9EC" stop-opacity="0.96"></stop><stop offset="1" stop-color="#32CFF0"></stop></linearGradient><linearGradient id="paint5_linear_2387_28902" x1="212.99" y1="155.53" x2="212.99" y2="449.22" gradientUnits="userSpaceOnUse"><stop stop-color="#33343C"></stop><stop offset="0.31" stop-color="#363F63" stop-opacity="0.61"></stop><stop offset="0.75" stop-color="#394D90" stop-opacity="0.17"></stop><stop offset="1" stop-color="#3B52A1" stop-opacity="0"></stop></linearGradient><linearGradient id="paint6_linear_2387_28902" x1="109.369" y1="428.019" x2="109.369" y2="232.129" gradientUnits="userSpaceOnUse"><stop stop-color="#3B52A1" stop-opacity="0"></stop><stop offset="0.07" stop-color="#3A5EA8" stop-opacity="0.1"></stop><stop offset="0.33" stop-color="#3785C1" stop-opacity="0.41"></stop><stop offset="0.56" stop-color="#35A5D5" stop-opacity="0.67"></stop><stop offset="0.76" stop-color="#33BBE3" stop-opacity="0.85"></stop><stop offset="0.91" stop-color="#32C9EC" stop-opacity="0.96"></stop><stop offset="1" stop-color="#32CFF0"></stop></linearGradient><linearGradient id="paint7_linear_2387_28902" x1="165.889" y1="415.979" x2="165.889" y2="250.279" gradientUnits="userSpaceOnUse"><stop stop-color="#3B52A1" stop-opacity="0"></stop><stop offset="0.07" stop-color="#3A5EA8" stop-opacity="0.1"></stop><stop offset="0.33" stop-color="#3785C1" stop-opacity="0.41"></stop><stop offset="0.56" stop-color="#35A5D5" stop-opacity="0.67"></stop><stop offset="0.76" stop-color="#33BBE3" stop-opacity="0.85"></stop><stop offset="0.91" stop-color="#32C9EC" stop-opacity="0.96"></stop><stop offset="1" stop-color="#32CFF0"></stop></linearGradient><linearGradient id="paint8_linear_2387_28902" x1="137.63" y1="241.929" x2="137.63" y2="440.569" gradientUnits="userSpaceOnUse"><stop stop-color="#33343C"></stop><stop offset="0.31" stop-color="#363F63" stop-opacity="0.61"></stop><stop offset="0.75" stop-color="#394D90" stop-opacity="0.17"></stop><stop offset="1" stop-color="#3B52A1" stop-opacity="0"></stop></linearGradient><linearGradient id="paint9_linear_2387_28902" x1="34.01" y1="413.567" x2="34.01" y2="317.197" gradientUnits="userSpaceOnUse"><stop stop-color="#3B52A1" stop-opacity="0"></stop><stop offset="0.07" stop-color="#3A5EA8" stop-opacity="0.1"></stop><stop offset="0.33" stop-color="#3785C1" stop-opacity="0.41"></stop><stop offset="0.56" stop-color="#35A5D5" stop-opacity="0.67"></stop><stop offset="0.76" stop-color="#33BBE3" stop-opacity="0.85"></stop><stop offset="0.91" stop-color="#32C9EC" stop-opacity="0.96"></stop><stop offset="1" stop-color="#32CFF0"></stop></linearGradient><linearGradient id="paint10_linear_2387_28902" x1="90.5295" y1="417.577" x2="90.5295" y2="330.867" gradientUnits="userSpaceOnUse"><stop stop-color="#3B52A1" stop-opacity="0"></stop><stop offset="0.07" stop-color="#3A5EA8" stop-opacity="0.1"></stop><stop offset="0.33" stop-color="#3785C1" stop-opacity="0.41"></stop><stop offset="0.56" stop-color="#35A5D5" stop-opacity="0.67"></stop><stop offset="0.76" stop-color="#33BBE3" stop-opacity="0.85"></stop><stop offset="0.91" stop-color="#32C9EC" stop-opacity="0.96"></stop><stop offset="1" stop-color="#32CFF0"></stop></linearGradient><linearGradient id="paint11_linear_2387_28902" x1="62.27" y1="310.821" x2="62.27" y2="439.981" gradientUnits="userSpaceOnUse"><stop stop-color="#33343C"></stop><stop offset="0.31" stop-color="#363F63" stop-opacity="0.61"></stop><stop offset="0.75" stop-color="#394D90" stop-opacity="0.17"></stop><stop offset="1" stop-color="#3B52A1" stop-opacity="0"></stop></linearGradient><clipPath id="clip0_2387_28902"><rect width="355" height="440" fill="white"></rect></clipPath></defs></svg> 