<?xml version="1.0" encoding="UTF-8"?> <svg xmlns="http://www.w3.org/2000/svg" width="355" height="440" viewBox="0 0 355 440" fill="none"><g clip-path="url(#clip0_2387_29084)"><path d="M239.746 237.797L338.715 300.005L338.568 304.289L338.538 305.162L338.411 308.73L338.381 309.592L338.254 313.161L338.225 314.033L338.107 317.592L338.078 318.464L337.95 322.022L337.921 322.895L337.793 326.512L128.151 438.029L29.1816 375.82L29.3091 372.203L29.3385 371.33L29.4659 367.772L29.4953 366.9L29.6228 363.331L29.6522 362.459L29.7698 358.9L29.7992 358.028L29.9267 354.47L29.9561 353.597L30.1031 349.304L239.746 237.797Z" fill="#32CFF0"></path><path d="M239.746 237.797L338.715 300.005L338.568 304.289L338.538 305.162L338.411 308.73L338.381 309.592L338.254 313.161L338.225 314.033L338.107 317.592L338.078 318.464L337.95 322.022L337.921 322.895L337.793 326.512L128.151 438.029L29.1816 375.82L29.3091 372.203L29.3385 371.33L29.4659 367.772L29.4953 366.9L29.6228 363.331L29.6522 362.459L29.7698 358.9L29.7992 358.028L29.9267 354.47L29.9561 353.597L30.1031 349.304L239.746 237.797Z" fill="#32CFF0"></path><g style="mix-blend-mode:multiply" opacity="0.3"><path d="M239.746 237.797L338.715 300.005L338.568 304.289L338.538 305.162L338.411 308.73L338.381 309.592L338.254 313.161L338.225 314.033L338.107 317.592L338.078 318.464L337.95 322.022L337.921 322.895L337.793 326.512L128.151 438.029L29.1816 375.82L29.3091 372.203L29.3385 371.33L29.4659 367.772L29.4953 366.9L29.6228 363.331L29.6522 362.459L29.7698 358.9L29.7992 358.028L29.9267 354.47L29.9561 353.597L30.1031 349.304L239.746 237.797Z" fill="#3454AC"></path></g><path d="M129.072 411.523L128.151 438.03L29.1816 375.821L30.1031 349.305L129.072 411.523Z" fill="#32CFF0"></path><path d="M53.7578 348.864L241.874 250.141L317.473 298.723L131.112 397.437L53.7578 348.864Z" fill="white"></path><path d="M129.906 399.357L52.5524 350.774C51.8662 350.343 51.4643 349.578 51.4937 348.774C51.5231 347.961 51.9838 347.235 52.6994 346.853L240.815 248.129C241.531 247.756 242.403 247.786 243.089 248.227L318.689 296.81C319.365 297.241 319.757 298.006 319.728 298.809C319.698 299.613 319.237 300.339 318.522 300.711L132.161 399.425C131.847 399.592 131.504 399.68 131.161 399.69C130.72 399.7 130.279 399.582 129.896 399.347L129.906 399.357ZM241.756 252.756L58.2968 349.039L131.21 394.828L312.993 298.535L241.756 252.756Z" fill="#33343C"></path><path d="M127.867 413.445L28.8981 351.236C28.2119 350.805 27.81 350.04 27.8394 349.236C27.8688 348.433 28.3295 347.697 29.0353 347.315L238.678 235.798C239.394 235.416 240.256 235.445 240.942 235.877L339.911 298.085C340.598 298.517 341 299.281 340.97 300.085C340.941 300.889 340.48 301.624 339.774 302.006L130.132 413.523C129.818 413.69 129.475 413.778 129.132 413.788C128.691 413.798 128.249 413.68 127.867 413.445ZM239.648 240.415L34.6229 349.481L129.171 408.916L334.196 299.85L239.648 240.415Z" fill="#33343C"></path><path d="M154.912 306.12C171.988 297.042 199.034 297.974 215.326 308.218C231.619 318.462 230.981 334.126 213.915 343.204C196.838 352.281 169.792 351.35 153.5 341.106C137.208 330.862 137.845 315.197 154.912 306.12Z" fill="#32CFF0"></path><path d="M152.295 343.017C143.727 337.635 139.159 330.577 139.434 323.146C139.708 315.677 144.825 308.913 153.853 304.109C171.538 294.708 199.652 295.679 216.533 306.286C225.1 311.667 229.668 318.725 229.394 326.156C229.119 333.626 224.002 340.39 214.974 345.193C207.396 349.222 197.907 351.349 188.202 351.624C175.263 351.996 161.941 349.075 152.295 343.007V343.017ZM155.971 308.109C148.433 312.118 144.159 317.52 143.953 323.313C143.747 329.057 147.56 334.694 154.706 339.184C170.361 349.026 196.447 349.928 212.847 341.203C220.385 337.194 224.659 331.792 224.865 325.999C225.071 320.255 221.258 314.618 214.111 310.128C205.161 304.501 192.82 301.796 180.811 302.139C171.812 302.394 162.999 304.364 155.971 308.109Z" fill="#3454AC"></path><path d="M231.08 279.908C241.02 274.624 256.773 275.163 266.262 281.123C275.751 287.083 275.378 296.21 265.438 301.503C255.498 306.787 239.745 306.238 230.256 300.278C220.767 294.318 221.14 285.201 231.08 279.908Z" fill="#32CFF0"></path><path d="M229.051 302.188C223.767 298.865 220.954 294.464 221.12 289.788C221.287 285.082 224.453 280.867 230.021 277.907C240.765 272.192 257.214 272.76 267.468 279.201C272.752 282.524 275.565 286.925 275.398 291.601C275.232 296.307 272.065 300.532 266.497 303.492C261.88 305.943 256.214 307.237 250.431 307.403C242.765 307.619 234.903 305.854 229.051 302.178V302.188ZM232.139 281.906C228.061 284.082 225.747 286.935 225.639 289.954C225.532 292.944 227.6 295.934 231.452 298.355C240.314 303.923 255.077 304.443 264.36 299.502C268.438 297.326 270.752 294.473 270.86 291.444C270.967 288.445 268.899 285.465 265.047 283.034C259.988 279.857 252.999 278.318 246.206 278.514C241.108 278.661 236.119 279.779 232.129 281.896L232.139 281.906Z" fill="#3454AC"></path><path d="M103.389 347.833C113.329 342.55 129.082 343.089 138.571 349.049C148.06 355.009 147.688 364.135 137.748 369.429C127.808 374.713 112.055 374.164 102.566 368.204C93.0766 362.244 93.4491 353.127 103.389 347.833Z" fill="#32CFF0"></path><path d="M101.36 370.126C96.0764 366.803 93.2532 362.401 93.4297 357.725C93.5963 353.02 96.7626 348.805 102.331 345.844C113.074 340.129 129.524 340.698 139.777 347.138C145.061 350.461 147.884 354.863 147.708 359.539C147.541 364.244 144.375 368.469 138.807 371.429C134.19 373.88 128.524 375.174 122.74 375.341C115.074 375.556 107.212 373.792 101.36 370.116V370.126ZM104.448 349.844C100.37 352.02 98.0566 354.873 97.9488 357.892C97.8409 360.882 99.9093 363.872 103.762 366.293C112.624 371.861 127.387 372.38 136.67 367.44C140.748 365.264 143.061 362.411 143.169 359.382C143.277 356.382 141.209 353.402 137.356 350.971C132.298 347.795 125.308 346.256 118.515 346.452C113.418 346.599 108.428 347.717 104.438 349.834L104.448 349.844Z" fill="#3454AC"></path><path d="M126.955 439.949L27.986 377.741C27.2998 377.31 26.8979 376.555 26.9273 375.741L27.8488 349.225C27.8782 348.411 28.3389 347.686 29.0447 347.303L238.687 235.787C239.403 235.404 240.266 235.434 240.952 235.865L339.921 298.074C340.607 298.505 341.009 299.26 340.98 300.073L340.058 326.59C340.029 327.404 339.568 328.129 338.862 328.511L129.219 440.028C128.906 440.195 128.563 440.283 128.22 440.293C127.778 440.302 127.337 440.185 126.955 439.949ZM336.411 301.23L239.658 240.414L32.3188 350.695L31.4856 374.604L128.239 435.421L335.568 325.139L336.402 301.23H336.411Z" fill="#33343C"></path><path d="M256.155 343.919L157.186 281.711L112.662 305.394L211.641 367.603L256.155 343.919Z" fill="#FF6000"></path><path d="M210.436 369.526L111.466 307.317C110.78 306.886 110.378 306.121 110.408 305.317C110.437 304.513 110.898 303.778 111.604 303.396L156.118 279.712C156.834 279.33 157.696 279.36 158.383 279.791L257.352 341.999C258.038 342.431 258.44 343.195 258.41 343.999C258.381 344.803 257.92 345.538 257.214 345.921L212.7 369.604C212.386 369.771 212.043 369.859 211.7 369.869C211.259 369.879 210.818 369.761 210.436 369.526ZM157.089 284.33L117.181 305.562L211.729 364.997L251.637 343.764L157.089 284.33Z" fill="#33343C"></path><path d="M210.642 394.22L255.225 370.546L256.156 343.922L211.563 367.605L210.642 394.22Z" fill="#FF6000"></path><g style="mix-blend-mode:multiply" opacity="0.3"><path d="M210.642 394.22L255.225 370.546L256.156 343.922L211.563 367.605L210.642 394.22Z" fill="#3454AC"></path></g><path d="M209.436 396.141C208.75 395.71 208.348 394.945 208.377 394.141L209.299 367.527C209.328 366.713 209.789 365.988 210.495 365.605L255.088 341.932C255.803 341.559 256.666 341.589 257.352 342.01C258.038 342.441 258.44 343.206 258.411 344.01L257.49 370.624C257.46 371.438 256.999 372.164 256.294 372.546L211.701 396.22C211.387 396.386 211.044 396.474 210.701 396.484C210.26 396.494 209.818 396.376 209.436 396.141ZM253.755 347.764L213.779 368.987L213.034 390.377L253.01 369.154L253.755 347.764Z" fill="#33343C"></path><path d="M126.945 439.952L27.9762 377.744C27.29 377.313 26.8881 376.558 26.9175 375.744L27.839 349.228C27.8684 348.414 28.3291 347.688 29.0447 347.306C29.7603 346.924 30.623 346.953 31.3092 347.385L130.278 409.603C130.964 410.034 131.366 410.789 131.337 411.603L130.415 438.11C130.386 438.923 129.925 439.649 129.21 440.031C128.896 440.197 128.553 440.286 128.21 440.296C127.769 440.305 127.328 440.188 126.945 439.952ZM32.2306 353.325L31.4954 374.607L126.034 434.032L126.769 412.759L32.2306 353.335V353.325Z" fill="#33343C"></path><path d="M128.583 429.883C129.328 429.864 130.053 429.471 130.465 428.775C131.102 427.697 130.749 426.315 129.671 425.678L87.3229 400.543C86.2446 399.906 84.8624 400.259 84.2252 401.337C83.588 402.416 83.9409 403.798 85.0192 404.435L127.367 429.57C127.75 429.795 128.171 429.893 128.583 429.883Z" fill="#33343C"></path><path d="M255.607 363.941C255.95 363.941 256.293 363.843 256.617 363.676L310.542 334.641C311.64 334.043 312.051 332.67 311.463 331.572C310.875 330.474 309.493 330.063 308.395 330.651L254.47 359.687C253.372 360.285 252.96 361.657 253.548 362.755C253.97 363.539 254.784 363.97 255.607 363.941Z" fill="#33343C"></path><path d="M212.828 203.238L311.797 265.447L311.64 269.731L311.611 270.603L311.493 274.171L311.464 275.034L311.336 278.602L311.307 279.475L311.179 283.033L311.15 283.905L311.032 287.464L310.993 288.336L310.875 291.953L101.233 403.47L2.26367 341.262L2.39111 337.644L2.42052 336.772L2.53815 333.213L2.57736 332.341L2.695 328.773L2.7244 327.9L2.85184 324.342L2.88125 323.469L3.00868 319.911L3.03809 319.039L3.18513 314.745L212.828 203.238Z" fill="#32CFF0"></path><g style="mix-blend-mode:multiply" opacity="0.3"><path d="M212.828 203.238L311.797 265.447L311.64 269.731L311.611 270.603L311.493 274.171L311.464 275.034L311.336 278.602L311.307 279.475L311.179 283.033L311.15 283.905L311.032 287.464L310.993 288.336L310.875 291.953L101.233 403.47L2.26367 341.262L2.39111 337.644L2.42052 336.772L2.53815 333.213L2.57736 332.341L2.695 328.773L2.7244 327.9L2.85184 324.342L2.88125 323.469L3.00868 319.911L3.03809 319.039L3.18513 314.745L212.828 203.238Z" fill="#3454AC"></path></g><path d="M102.154 376.96L101.233 403.467L2.26367 341.259L3.18513 314.742L102.154 376.96Z" fill="#32CFF0"></path><path d="M26.8398 314.302L214.956 215.578L290.555 264.161L104.194 362.875L26.8398 314.302Z" fill="white"></path><path d="M102.988 364.798L25.6344 316.215C24.9482 315.784 24.5463 315.02 24.5757 314.216C24.6051 313.402 25.0659 312.677 25.7815 312.294L213.897 213.57C214.613 213.198 215.485 213.227 216.171 213.668L291.771 262.251C292.447 262.682 292.839 263.447 292.81 264.251C292.78 265.055 292.32 265.78 291.604 266.153L105.243 364.867C104.929 365.033 104.586 365.122 104.243 365.131C103.802 365.141 103.361 365.024 102.979 364.788L102.988 364.798ZM214.838 218.197L31.3691 314.48L104.282 360.269L286.065 263.976L214.828 218.197H214.838Z" fill="#33343C"></path><path d="M100.949 378.886L1.98013 316.678C1.29394 316.246 0.892023 315.482 0.921432 314.678C0.95084 313.874 1.41157 313.139 2.11737 312.756L211.76 201.24C212.476 200.857 213.338 200.887 214.024 201.318L312.993 263.527C313.68 263.958 314.082 264.723 314.052 265.527C314.023 266.33 313.562 267.066 312.856 267.448L103.214 378.964C102.9 379.131 102.557 379.219 102.214 379.229C101.773 379.239 101.331 379.121 100.949 378.886ZM212.73 205.857L7.69516 314.923L102.243 374.357L307.278 265.291L212.73 205.857Z" fill="#33343C"></path><path d="M127.985 271.565C145.061 262.488 172.107 263.419 188.4 273.663C204.692 283.907 204.055 299.572 186.988 308.649C169.912 317.727 142.866 316.795 126.573 306.551C110.281 296.307 110.918 280.643 127.985 271.565Z" fill="#32CFF0"></path><path d="M125.367 308.462C116.799 303.08 112.231 296.022 112.506 288.592C112.78 281.122 117.897 274.358 126.926 269.555C144.61 260.154 172.724 261.124 189.605 271.731C198.172 277.113 202.741 284.171 202.466 291.601C202.192 299.071 197.075 305.835 188.046 310.638C180.469 314.667 170.98 316.794 161.275 317.069C148.335 317.441 135.013 314.52 125.367 308.452V308.462ZM129.043 273.554C121.505 277.564 117.231 282.965 117.025 288.758C116.819 294.503 120.632 300.139 127.769 304.629C143.424 314.471 169.509 315.373 185.909 306.648C193.448 302.639 197.722 297.238 197.927 291.444C198.133 285.7 194.32 280.063 187.174 275.574C178.224 269.947 165.882 267.241 153.874 267.584C144.875 267.839 136.062 269.81 129.033 273.554H129.043Z" fill="#3454AC"></path><path d="M204.162 245.353C214.102 240.069 229.855 240.608 239.344 246.568C248.833 252.529 248.46 261.655 238.52 266.949C228.58 272.232 212.827 271.683 203.338 265.723C193.849 259.763 194.222 250.646 204.162 245.353Z" fill="#32CFF0"></path><path d="M202.133 267.634C196.849 264.31 194.036 259.909 194.202 255.233C194.369 250.528 197.535 246.312 203.103 243.352C213.847 237.637 230.296 238.206 240.55 244.646C245.834 247.969 248.647 252.371 248.48 257.056C248.314 261.762 245.147 265.987 239.579 268.947C234.962 271.398 229.296 272.692 223.513 272.858C215.847 273.074 207.985 271.31 202.133 267.634ZM205.221 247.352C201.143 249.528 198.829 252.38 198.721 255.4C198.614 258.389 200.682 261.379 204.534 263.801C213.396 269.369 228.159 269.888 237.442 264.948C241.52 262.771 243.834 259.919 243.942 256.89C244.05 253.89 241.981 250.91 238.129 248.479C233.07 245.303 226.081 243.764 219.288 243.96C214.19 244.107 209.201 245.224 205.221 247.342V247.352Z" fill="#3454AC"></path><path d="M76.4614 313.271C86.4014 307.987 102.155 308.526 111.644 314.486C121.133 320.447 120.76 329.573 110.82 334.866C100.88 340.15 85.1271 339.601 75.6379 333.641C66.1488 327.681 66.5213 318.564 76.4614 313.271Z" fill="#32CFF0"></path><path d="M74.4422 335.563C69.1585 332.24 66.3353 327.839 66.5117 323.163C66.6784 318.457 69.8447 314.242 75.4126 311.282C86.1565 305.567 102.606 306.135 112.859 312.576C118.143 315.899 120.966 320.3 120.79 324.986C120.623 329.691 117.457 333.916 111.889 336.877C107.272 339.327 101.606 340.621 95.8221 340.788C88.1563 341.004 80.2944 339.239 74.4422 335.563ZM77.53 315.281C73.4521 317.457 71.1386 320.31 71.0308 323.329C70.923 326.319 72.9914 329.309 76.8439 331.73C85.7056 337.298 100.469 337.818 109.752 332.877C113.83 330.701 116.143 327.848 116.251 324.819C116.359 321.82 114.291 318.84 110.438 316.409C105.38 313.232 98.3904 311.693 91.5971 311.889C86.4996 312.037 81.51 313.154 77.53 315.271V315.281Z" fill="#3454AC"></path><path d="M100.027 405.391L1.05826 343.182C0.372063 342.751 -0.0298518 341.996 -0.00044341 341.183L0.92102 314.666C0.950428 313.862 1.41116 313.127 2.11696 312.745L211.76 201.228C212.475 200.846 213.338 200.875 214.024 201.306L312.993 263.515C313.679 263.946 314.081 264.701 314.052 265.515L313.13 292.031C313.101 292.845 312.64 293.57 311.934 293.953L102.292 405.469C101.978 405.636 101.635 405.724 101.292 405.734C100.851 405.744 100.41 405.626 100.027 405.391ZM309.484 266.672L212.73 205.855L5.4009 316.136L4.56766 340.045L101.321 400.862L308.65 290.581L309.484 266.672Z" fill="#33343C"></path><path d="M229.228 309.365L130.259 247.156L85.7441 270.84L184.713 333.048L229.228 309.365Z" fill="#FF6000"></path><path d="M183.508 334.967L84.5387 272.759C83.8525 272.327 83.4506 271.563 83.48 270.759C83.5094 269.955 83.9702 269.22 84.676 268.837L129.19 245.154C129.906 244.772 130.769 244.801 131.455 245.232L230.424 307.441C231.11 307.872 231.512 308.637 231.483 309.441C231.453 310.244 230.993 310.98 230.287 311.362L185.772 335.045C185.459 335.212 185.115 335.3 184.772 335.31C184.331 335.32 183.89 335.202 183.508 334.967ZM130.161 249.771L90.2538 271.004L184.802 330.438L224.709 309.205L130.161 249.771Z" fill="#3454AC"></path><path d="M183.714 359.661L228.307 335.987L229.228 309.363L184.645 333.047L183.714 359.661Z" fill="#FF6000"></path><g style="mix-blend-mode:multiply" opacity="0.3"><path d="M183.714 359.661L228.307 335.987L229.228 309.363L184.645 333.047L183.714 359.661Z" fill="#3454AC"></path></g><path d="M182.518 361.583C181.832 361.151 181.43 360.387 181.46 359.583L182.381 332.968C182.41 332.155 182.871 331.429 183.577 331.047L228.17 307.373C228.885 307.001 229.748 307.03 230.434 307.452C231.12 307.883 231.522 308.647 231.493 309.451L230.572 336.066C230.542 336.879 230.081 337.605 229.376 337.987L184.783 361.661C184.469 361.828 184.126 361.916 183.783 361.926C183.342 361.935 182.901 361.818 182.518 361.583ZM226.837 313.206L186.861 334.429L186.116 355.828L226.092 334.605L226.837 313.216V313.206Z" fill="#33343C"></path><path d="M100.027 405.39L1.05826 343.181C0.372063 342.75 -0.0298518 341.995 -0.00044341 341.182L0.921019 314.665C0.950428 313.851 1.41116 313.126 2.12676 312.744C2.84237 312.361 3.70501 312.391 4.39121 312.822L103.36 375.04C104.046 375.472 104.448 376.227 104.419 377.04L103.497 403.547C103.468 404.361 103.007 405.086 102.292 405.468C101.978 405.635 101.635 405.723 101.292 405.733C100.851 405.743 100.41 405.625 100.027 405.39ZM5.31267 318.763L4.57746 340.044L99.1156 399.469L99.8508 378.197L5.31267 318.763Z" fill="#33343C"></path><path d="M30.3096 345.768C31.0448 345.749 31.7605 345.367 32.182 344.69C32.829 343.622 32.4957 342.23 31.4272 341.573L3.94011 324.79C2.87161 324.143 1.47961 324.477 0.822823 325.545C0.175839 326.614 0.509134 328.006 1.57764 328.663L29.0647 345.445C29.4568 345.68 29.8881 345.788 30.3096 345.778V345.768Z" fill="#33343C"></path><path d="M243.687 170.558L342.656 232.767L342.509 237.061L342.48 237.923L342.352 241.492L342.323 242.364L342.205 245.922L342.176 246.795L342.048 250.353L342.019 251.226L341.892 254.794L341.862 255.657L341.735 259.284L132.102 370.79L33.1328 308.582L33.2602 304.965L33.2897 304.092L33.4073 300.534L33.4367 299.661L33.5641 296.103L33.5935 295.23L33.721 291.662L33.7504 290.79L33.868 287.231L33.8974 286.359L34.0543 282.075L243.687 170.558Z" fill="#32CFF0"></path><g style="mix-blend-mode:multiply" opacity="0.3"><path d="M342.656 232.766L342.509 237.059L342.48 237.922L342.352 241.49L342.323 242.362L342.205 245.921L342.176 246.793L342.048 250.352L342.019 251.224L341.892 254.792L341.862 255.655L341.735 259.282L133.719 368.711L133.023 344.282L342.656 232.766Z" fill="#3454AC"></path></g><path d="M133.023 344.283L132.102 370.789L33.1328 308.581L34.0543 282.074L133.023 344.283Z" fill="#32CFF0"></path><path d="M57.6992 281.622L245.825 182.898L321.424 231.481L135.063 330.195L57.6992 281.622Z" fill="white"></path><path d="M133.857 332.118L56.5036 283.536C55.8174 283.104 55.4155 282.34 55.4449 281.536C55.4743 280.722 55.935 279.997 56.6506 279.615L244.766 180.891C245.482 180.518 246.354 180.548 247.041 180.989L322.64 229.571C323.316 230.003 323.708 230.767 323.679 231.571C323.649 232.375 323.189 233.1 322.473 233.473L136.112 332.187C135.798 332.354 135.455 332.442 135.112 332.452C134.671 332.462 134.23 332.344 133.848 332.109L133.857 332.118ZM245.707 185.518L62.2382 281.801L135.151 327.59L316.934 231.297L245.698 185.518H245.707Z" fill="#33343C"></path><path d="M131.818 346.206L32.8493 283.998C32.1631 283.566 31.7612 282.802 31.7906 281.998C31.82 281.194 32.2807 280.459 32.9865 280.077L242.629 168.56C243.345 168.178 244.207 168.207 244.894 168.639L343.863 230.847C344.549 231.278 344.951 232.043 344.921 232.847C344.892 233.651 344.431 234.386 343.725 234.768L134.083 346.285C133.769 346.451 133.426 346.54 133.083 346.549C132.642 346.559 132.201 346.442 131.818 346.206ZM243.6 173.177L38.5643 282.243L133.112 341.677L338.148 232.612L243.6 173.177Z" fill="#33343C"></path><path d="M158.853 238.885C175.93 229.808 202.976 230.739 219.268 240.983C235.56 251.227 234.923 266.892 217.856 275.969C200.78 285.047 173.734 284.116 157.442 273.872C141.149 263.628 141.786 247.963 158.853 238.885Z" fill="#32CFF0"></path><path d="M156.236 275.782C147.669 270.401 143.1 263.343 143.375 255.912C143.649 248.442 148.767 241.678 157.795 236.875C175.479 227.474 203.594 228.445 220.474 239.051C229.042 244.433 233.61 251.491 233.335 258.921C233.061 266.391 227.944 273.155 218.915 277.959C211.338 281.987 201.849 284.115 192.144 284.389C179.204 284.762 165.882 281.84 156.236 275.773V275.782ZM159.912 240.875C152.374 244.884 148.1 250.285 147.894 256.079C147.688 261.823 151.501 267.46 158.638 271.949C174.293 281.791 200.378 282.693 216.778 273.969C224.317 269.959 228.591 264.558 228.797 258.765C229.002 253.02 225.189 247.384 218.043 242.894C209.093 237.267 196.751 234.562 184.743 234.905C175.744 235.16 166.931 237.13 159.902 240.875H159.912Z" fill="#33343C"></path><path d="M235.032 212.673C244.972 207.39 260.725 207.929 270.214 213.889C279.703 219.849 279.331 228.975 269.391 234.269C259.45 239.553 243.697 239.004 234.208 233.043C224.719 227.083 225.092 217.967 235.032 212.673Z" fill="#32CFF0"></path><path d="M233.003 234.954C227.719 231.631 224.906 227.229 225.072 222.553C225.239 217.848 228.405 213.633 233.973 210.672C244.717 204.957 261.166 205.526 271.42 211.966C276.704 215.289 279.517 219.691 279.351 224.377C279.184 229.082 276.018 233.307 270.45 236.267C265.832 238.718 260.166 240.012 254.383 240.179C246.717 240.394 238.855 238.63 233.003 234.954ZM236.091 214.672C232.013 216.848 229.699 219.701 229.592 222.72C229.484 225.71 231.552 228.7 235.405 231.121C244.266 236.689 259.029 237.208 268.313 232.268C272.391 230.092 274.704 227.239 274.812 224.21C274.92 221.21 272.851 218.23 268.999 215.799C263.941 212.623 256.951 211.084 250.158 211.28C245.06 211.427 240.071 212.545 236.091 214.662V214.672Z" fill="#33343C"></path><path d="M107.331 280.603C117.271 275.319 133.024 275.858 142.513 281.818C152.002 287.779 151.629 296.905 141.689 302.198C131.749 307.482 115.996 306.933 106.507 300.973C97.018 295.013 97.3905 285.896 107.331 280.603Z" fill="#32CFF0"></path><path d="M105.302 302.884C100.018 299.56 97.1946 295.159 97.3711 290.483C97.5377 285.778 100.704 281.562 106.272 278.602C117.016 272.887 133.465 273.456 143.719 279.896C149.002 283.219 151.826 287.621 151.649 292.306C151.483 297.012 148.316 301.237 142.748 304.197C138.131 306.648 132.465 307.942 126.681 308.108C119.016 308.324 111.154 306.56 105.302 302.884ZM108.389 282.602C104.311 284.778 101.998 287.63 101.89 290.65C101.782 293.639 103.851 296.629 107.703 299.051C116.565 304.619 131.328 305.138 140.611 300.198C144.689 298.021 147.003 295.169 147.11 292.14C147.218 289.14 145.15 286.16 141.297 283.729C136.239 280.553 129.25 279.014 122.456 279.21C117.359 279.357 112.369 280.474 108.389 282.592V282.602Z" fill="#33343C"></path><path d="M130.896 372.711L31.9274 310.503C31.2412 310.071 30.8393 309.317 30.8687 308.503L31.7902 281.986C31.8196 281.183 32.2803 280.447 32.9861 280.065L242.629 168.548C243.344 168.166 244.207 168.195 244.893 168.627L343.862 230.835C344.548 231.267 344.95 232.021 344.921 232.835L343.999 259.352C343.97 260.165 343.509 260.891 342.804 261.273L133.161 372.79C132.847 372.956 132.504 373.045 132.161 373.054C131.72 373.064 131.279 372.946 130.896 372.711ZM340.353 233.992L243.599 173.175L36.27 283.457L35.4368 307.366L132.19 368.182L339.52 257.901L340.353 233.992Z" fill="#33343C"></path><path d="M260.097 276.693L161.128 214.484L116.613 238.158L215.582 300.367L260.097 276.693Z" fill="#FF6000"></path><path d="M214.377 302.287L115.408 240.079C114.722 239.648 114.32 238.883 114.349 238.079C114.379 237.275 114.839 236.54 115.545 236.158L160.06 212.474C160.775 212.092 161.638 212.121 162.324 212.553L261.293 274.761C261.979 275.192 262.381 275.957 262.352 276.761C262.322 277.565 261.862 278.3 261.156 278.682L216.641 302.366C216.328 302.532 215.985 302.621 215.641 302.63C215.2 302.64 214.759 302.523 214.377 302.287ZM161.03 217.091L121.123 238.324L215.671 297.758L255.578 276.526L161.03 217.091Z" fill="#33343C"></path><path d="M214.583 326.98L259.176 303.306L260.097 276.691L215.504 300.365L214.583 326.98Z" fill="#FF6000"></path><g style="mix-blend-mode:multiply" opacity="0.3"><path d="M214.583 326.98L259.176 303.306L260.097 276.691L215.504 300.365L214.583 326.98Z" fill="#3454AC"></path></g><path d="M213.387 328.903C212.701 328.472 212.299 327.707 212.329 326.903L213.25 300.288C213.28 299.475 213.74 298.749 214.446 298.367L259.039 274.693C259.755 274.321 260.617 274.35 261.303 274.772C261.99 275.203 262.392 275.968 262.362 276.772L261.441 303.386C261.411 304.2 260.951 304.925 260.245 305.308L215.652 328.981C215.338 329.148 214.995 329.236 214.652 329.246C214.211 329.256 213.77 329.138 213.387 328.903ZM257.706 280.526L217.73 301.749L216.985 323.149L256.961 301.926L257.706 280.536V280.526Z" fill="#33343C"></path><path d="M130.896 372.71L31.9274 310.502C31.2412 310.07 30.8393 309.316 30.8687 308.502L31.7902 281.985C31.8196 281.172 32.2803 280.446 32.9959 280.064C33.7115 279.682 34.5742 279.711 35.2604 280.142L134.229 342.361C134.916 342.792 135.317 343.547 135.288 344.361L134.367 370.867C134.337 371.681 133.876 372.406 133.161 372.789C132.847 372.955 132.504 373.044 132.161 373.053C131.72 373.063 131.279 372.945 130.896 372.71ZM36.1818 286.083L35.4466 307.365L129.985 366.789L130.72 345.517L36.1818 286.093V286.083Z" fill="#33343C"></path><path d="M61.1788 313.089C61.914 313.069 62.6296 312.687 63.0511 312.01C63.6981 310.942 63.3648 309.55 62.2963 308.893L34.8093 292.111C33.7407 291.464 32.3488 291.797 31.692 292.866C31.045 293.934 31.3783 295.326 32.4468 295.983L59.9338 312.765C60.3259 313.001 60.7573 313.108 61.1788 313.099V313.089Z" fill="#33343C"></path><path d="M132.524 362.641C133.269 362.621 133.995 362.229 134.406 361.533C135.044 360.455 134.691 359.073 133.612 358.436L91.2643 333.301C90.186 332.664 88.8038 333.017 88.1666 334.095C87.5294 335.174 87.8823 336.556 88.9606 337.193L131.309 362.327C131.691 362.553 132.113 362.651 132.524 362.641Z" fill="#33343C"></path><path d="M171.255 335.852C171.579 335.852 171.892 335.764 172.196 335.617L216.122 313.698C217.24 313.139 217.691 311.777 217.142 310.659C216.583 309.542 215.23 309.091 214.103 309.64L170.177 331.559C169.059 332.117 168.608 333.48 169.157 334.597C169.559 335.411 170.392 335.872 171.245 335.852H171.255Z" fill="#33343C"></path><path d="M259.548 296.711C259.891 296.711 260.235 296.613 260.558 296.446L314.483 267.41C315.581 266.812 315.993 265.44 315.405 264.342C314.807 263.244 313.434 262.832 312.336 263.42L258.411 292.456C257.313 293.054 256.902 294.427 257.49 295.524C257.911 296.309 258.725 296.74 259.548 296.711Z" fill="#33343C"></path><g style="mix-blend-mode:multiply" opacity="0.5"><path d="M140.581 233.516C140.581 233.516 111.438 250.023 161.432 285.764C189.674 305.948 203.957 309.379 205.594 323.907C206.241 329.612 200.153 397.173 200.153 397.173C200.153 397.173 237.502 378.401 237.56 374.568C237.619 370.735 230.64 292.793 230.64 292.793L193.252 237.113L140.581 233.525V233.516Z" fill="#3B52A1"></path></g><g style="mix-blend-mode:multiply" opacity="0.5"><path d="M220.797 223.992C220.797 223.992 211.288 264.036 239.687 273.957C268.086 283.877 281.094 285.867 281.094 285.867L282.212 353.516L313.688 336.773L311.228 263.321C311.228 263.321 315.963 252.871 306.425 251.205C296.886 249.538 220.807 223.992 220.807 223.992H220.797Z" fill="#3B52A1"></path></g><g opacity="0.5"><path d="M322.698 357.497C322.698 357.497 321.61 366.742 324.708 373.731C327.805 380.72 323.815 387.523 312.278 384.279L299.848 377.093C299.848 377.093 303.553 367.879 303.788 356.998C304.024 346.116 312.287 348.146 312.287 348.146L322.698 357.497Z" fill="#33343C"></path></g><path d="M311.719 386.25L297.279 377.967L297.936 376.32C297.975 376.232 301.514 367.301 301.73 356.949C301.828 352.617 303.092 349.489 305.504 347.637C308.7 345.186 312.601 346.117 312.768 346.147L313.268 346.264L324.845 356.675L324.727 357.734C324.727 357.822 323.737 366.497 326.58 372.899C328.433 377.075 328.109 381.211 325.707 383.986C324.531 385.348 322.09 387.201 317.561 387.171C315.905 387.162 313.973 386.897 311.719 386.26V386.25ZM311.366 350.068C310.631 349.999 309.16 349.989 307.984 350.911C306.298 352.234 305.886 354.969 305.847 357.038C305.661 365.537 303.465 372.957 302.367 376.173L313.081 382.368C317.512 383.564 320.992 383.182 322.62 381.3C323.953 379.761 324.031 377.241 322.845 374.565C320.159 368.517 320.375 361.096 320.571 358.341L311.376 350.078L311.366 350.068Z" fill="#33343C"></path><path d="M243.658 408.815C243.658 408.815 242.658 417.353 245.521 423.804C248.383 430.254 244.227 438.322 233.571 435.322L222.562 426.901C222.562 426.901 225.984 418.393 226.199 408.345C226.415 398.297 234.051 400.169 234.051 400.169L243.658 408.805V408.815Z" fill="#3B52A1"></path><path d="M320.983 359.075C320.983 359.075 320.081 366.711 322.649 372.485C325.208 378.259 321.914 383.876 312.376 381.2L302.112 375.259C302.112 375.259 305.181 367.652 305.367 358.663C305.563 349.674 312.386 351.35 312.386 351.35L320.983 359.075Z" fill="#3B52A1"></path><g opacity="0.6"><path d="M320.983 359.075C320.983 359.075 320.081 366.711 322.649 372.485C325.208 378.259 321.914 383.876 312.376 381.2L302.112 375.259C302.112 375.259 305.181 367.652 305.367 358.663C305.563 349.674 312.386 351.35 312.386 351.35L320.983 359.075Z" fill="#33343C"></path></g><g opacity="0.5"><path d="M243.658 408.815C243.658 408.815 242.658 417.353 245.521 423.804C248.383 430.254 244.227 438.322 233.571 435.322L222.562 426.901C222.562 426.901 225.984 418.393 226.199 408.345C226.415 398.297 234.051 400.169 234.051 400.169L243.658 408.805V408.815Z" fill="#33343C"></path></g><path d="M233.022 437.291L220.082 427.586L220.66 426.135C220.7 426.057 223.954 417.822 224.15 408.294C224.238 404.246 225.434 401.315 227.699 399.579C230.718 397.266 234.384 398.138 234.541 398.178L235.041 398.295L245.824 407.99L245.707 409.049C245.697 409.127 244.795 417.097 247.402 422.969C249.196 427.008 248.667 431.566 246.059 434.585C244.089 436.859 241.178 438.026 237.747 437.997C236.266 437.987 234.678 437.752 233.032 437.291H233.022ZM233.139 402.099C232.473 402.04 231.208 402.06 230.199 402.834C228.669 404.01 228.297 406.5 228.258 408.382C228.091 416.323 226.023 423.253 225.013 426.184L234.502 433.438C238.276 434.409 241.246 433.86 242.952 431.899C244.53 430.076 244.805 427.223 243.648 424.626C241.178 419.067 241.344 412.254 241.531 409.647L233.13 402.099H233.139Z" fill="#33343C"></path><path d="M320.904 369.793C323.099 369.166 325.442 370.284 326.481 372.323C328.854 376.998 335.51 388.625 345.322 393.899C357.762 400.594 350.518 408.034 344.499 409.309C340.813 410.083 333.951 407.446 328.618 404.966C324.923 403.25 321.58 400.888 318.453 398.28C316.659 396.79 313.944 395.173 310.248 394.634C304.553 393.8 298.151 390.193 295.505 388.576C294.72 388.095 294.289 387.233 294.358 386.311C294.691 381.988 295.838 369.529 297.955 367.941C300.524 366.019 303.435 366.059 303.857 371.303C304.278 376.548 312.64 378.91 313.708 375.45C314.395 373.254 317.777 370.676 320.913 369.784L320.904 369.793Z" fill="#33343C"></path><path d="M327.746 406.828C324.276 405.221 320.904 403.005 317.13 399.859C315.042 398.133 312.63 397.055 309.934 396.663C303.827 395.771 297.044 391.938 294.417 390.33C292.985 389.448 292.172 387.86 292.299 386.164C293.672 368.598 295.877 366.941 296.71 366.313C298.789 364.765 300.896 364.343 302.651 365.127C304.543 365.98 305.631 368.009 305.886 371.146C306.033 372.95 307.768 374.195 309.209 374.714C310.601 375.214 311.581 375.018 311.738 374.852C312.718 371.705 316.875 368.813 320.345 367.823C323.452 366.931 326.805 368.431 328.305 371.391C330.618 375.95 337.01 387.095 346.293 392.095C353.488 395.967 354.518 400.114 354.116 402.907C353.488 407.289 349.018 410.455 344.921 411.318C344.342 411.446 343.695 411.495 342.98 411.495C339.47 411.465 334.373 409.907 327.756 406.828H327.746ZM321.462 371.774C318.747 372.548 316.061 374.764 315.649 376.077C314.973 378.244 312.826 379.4 310.003 379.096C306.239 378.675 302.141 375.724 301.798 371.48C301.651 369.578 301.141 368.941 300.965 368.862C300.788 368.784 300.132 368.862 299.259 369.509C298.436 370.48 297.191 376.205 296.387 386.468C296.387 386.576 296.407 386.733 296.563 386.831C298.975 388.311 305.17 391.83 310.532 392.605C313.924 393.105 317.12 394.516 319.757 396.702C323.256 399.614 326.344 401.643 329.481 403.103C339.206 407.622 342.931 407.544 344.078 407.299C346.685 406.75 349.714 404.682 350.057 402.319C350.361 400.202 348.332 397.849 344.352 395.702C334.049 390.154 327.148 378.145 324.658 373.244C324.168 372.274 323.178 371.676 322.168 371.666C321.933 371.666 321.708 371.695 321.472 371.764L321.462 371.774Z" fill="#33343C"></path><path d="M303.857 371.313C303.935 372.313 304.307 373.205 304.856 373.969C303.406 380.645 304.974 386.733 307.337 387.272C309.699 387.811 317.306 389.448 321.492 392.369C325.678 395.291 337.696 403.535 343.744 404.103C349.724 404.672 350.39 401.976 351.273 400.506C353.214 405.142 348.783 408.407 344.519 409.309C340.833 410.083 333.971 407.446 328.638 404.966C324.942 403.25 321.6 400.888 318.463 398.28C316.669 396.79 313.963 395.173 310.258 394.634C304.562 393.8 298.161 390.193 295.514 388.576C294.73 388.095 294.299 387.233 294.367 386.311C294.701 381.988 295.848 369.529 297.965 367.941C300.533 366.019 303.445 366.059 303.866 371.303L303.857 371.313Z" fill="#33343C"></path><path d="M327.766 406.828C324.295 405.221 320.923 403.005 317.149 399.859C315.061 398.133 312.65 397.055 309.964 396.663C304.082 395.81 297.72 392.33 294.446 390.33C293.005 389.448 292.191 387.85 292.328 386.164C293.691 368.598 295.906 366.941 296.74 366.313C298.818 364.765 300.926 364.343 302.68 365.127C304.572 365.98 305.66 368.009 305.915 371.146C305.964 371.715 306.17 372.264 306.533 372.774L307.062 373.519L306.866 374.411C305.582 380.331 307.013 384.792 307.797 385.282L308.17 385.37C310.954 386.007 318.355 387.693 322.668 390.703C336.147 400.123 341.784 401.868 343.94 402.074C347.891 402.447 348.518 401.3 349.175 400.074C349.293 399.859 349.4 399.653 349.518 399.467L351.596 395.996L353.165 399.731C354.057 401.868 353.998 404.015 352.988 405.946C351.39 408.995 347.783 410.73 344.94 411.328C344.362 411.455 343.705 411.514 342.989 411.504C339.48 411.475 334.373 409.916 327.766 406.838V406.828ZM343.548 406.142C339 405.711 331.187 401.643 320.315 394.055C316.659 391.497 309.826 389.948 307.258 389.36L306.876 389.272C302.817 388.34 301.484 380.978 302.69 374.371C302.19 373.47 301.896 372.499 301.818 371.48C301.661 369.568 301.161 368.941 300.984 368.862C300.818 368.784 300.161 368.862 299.279 369.509C298.592 370.323 297.259 375.509 296.406 386.478C296.397 386.586 296.416 386.733 296.573 386.831C298.985 388.311 305.19 391.83 310.542 392.605C313.934 393.105 317.12 394.516 319.757 396.702C323.256 399.614 326.344 401.643 329.481 403.103C336.323 406.289 341.646 407.809 344.077 407.299C345.254 407.054 346.352 406.613 347.254 406.064C346.224 406.23 344.999 406.279 343.528 406.132L343.548 406.142Z" fill="#33343C"></path><path d="M238.324 422.037C234.815 423.312 233.423 426.899 232.884 429.958C232.551 431.84 230.198 432.516 228.904 431.105C226.336 428.291 223.434 424.615 223.895 422.821C224.708 419.675 225.365 416.42 225.365 416.42C225.365 416.42 222.12 412.695 219.032 418.979C215.954 425.262 217.591 432.556 217.572 435.595C217.552 438.633 224.071 442.927 229.139 446.848C234.207 450.769 238.511 458.621 244.863 464.581C251.078 470.414 268.899 468.63 262.331 454.994C255.764 441.349 253.715 439.516 252.774 435.144C251.833 430.772 248.823 418.097 243.883 418.008C243.883 418.008 243.824 420.763 245.716 424.351C245.716 424.351 243.539 420.145 238.305 422.047L238.324 422.037Z" fill="#33343C"></path><path d="M243.481 466.073C240.315 463.113 237.737 459.8 235.237 456.614C232.718 453.398 230.345 450.359 227.905 448.467C227.081 447.83 226.219 447.183 225.346 446.527C220.072 442.566 215.514 439.145 215.533 435.577C215.533 434.959 215.465 434.155 215.386 433.224C215.053 429.352 214.543 423.5 217.2 418.079C218.621 415.187 220.386 413.579 222.454 413.315C225.013 412.991 226.728 414.864 226.914 415.079L227.581 415.844L227.375 416.834C227.375 416.834 226.699 420.147 225.895 423.245C225.895 423.265 230.855 429.607 230.855 429.607C231.718 424.696 234.061 421.412 237.609 420.118C239.246 419.52 240.707 419.392 241.962 419.569C241.825 418.667 241.834 418.098 241.834 417.961L241.883 415.922L243.922 415.961C245.618 415.991 250.775 416.079 254.784 434.714C255.264 436.939 256.039 438.39 257.931 441.9C259.381 444.576 261.352 448.252 264.175 454.104C268.008 462.054 264.126 466.054 262.283 467.407C260.097 469.014 257.038 469.779 253.911 469.749C250.01 469.72 245.991 468.455 243.452 466.073H243.481ZM243.922 425.303C243.922 425.303 243.913 425.284 243.903 425.274C243.785 425.058 242.432 422.725 239.021 423.97C236.894 424.745 235.502 426.882 234.904 430.313C234.62 431.96 233.443 433.263 231.836 433.734C230.228 434.195 228.522 433.734 227.395 432.489C221.797 426.352 221.523 423.833 221.915 422.314C222.395 420.471 222.817 418.598 223.072 417.373C223.042 417.373 223.003 417.373 222.974 417.373C222.817 417.393 221.984 417.628 220.886 419.873C218.729 424.274 219.17 429.44 219.474 432.861C219.572 433.95 219.651 434.891 219.641 435.606C219.631 437.106 224.944 441.106 227.807 443.252C228.689 443.919 229.571 444.576 230.404 445.223C233.247 447.419 235.776 450.654 238.452 454.085C240.854 457.153 243.344 460.329 246.275 463.083C249.412 466.024 256.519 466.554 259.872 464.103C262.116 462.456 262.332 459.692 260.499 455.878C257.715 450.105 255.764 446.478 254.333 443.831C252.363 440.184 251.382 438.351 250.784 435.557C249.549 429.813 248.226 426.049 247.04 423.666L243.922 425.294V425.303Z" fill="#33343C"></path><path d="M225.386 416.432C225.386 416.432 224.719 419.686 223.915 422.833C223.895 422.921 223.915 423.039 223.915 423.137C223.709 423.696 223.494 424.245 223.347 424.813C223.082 425.833 222.964 426.891 222.945 427.94C222.827 433.253 225.493 438.253 229.63 441.586C234.237 445.311 241.452 451.771 246.187 459.084C253.363 470.161 262.077 464.515 262.077 464.515C262.058 467.377 249.275 468.691 244.903 464.593C238.551 458.633 234.247 450.781 229.179 446.86C224.111 442.939 217.592 438.645 217.612 435.606C217.632 432.567 215.994 425.274 219.073 418.99C222.151 412.707 225.405 416.432 225.405 416.432H225.386Z" fill="#33343C"></path><path d="M243.481 466.083C240.315 463.123 237.737 459.809 235.237 456.623C232.718 453.408 230.345 450.369 227.905 448.477C227.081 447.84 226.218 447.193 225.356 446.546C220.072 442.586 215.514 439.165 215.543 435.587C215.543 434.969 215.475 434.165 215.396 433.234C215.063 429.362 214.553 423.51 217.21 418.089C218.631 415.197 220.396 413.589 222.464 413.324C225.023 412.991 226.738 414.873 226.924 415.089L227.591 415.854L227.385 416.844C227.385 416.844 226.738 420.01 225.944 423.127V423.176L225.787 423.941C225.611 424.402 225.434 424.862 225.307 425.333C225.101 426.137 224.983 427.039 224.964 427.999C224.866 432.45 227.081 436.939 230.885 440.008C236.002 444.135 243.099 450.614 247.873 457.986C253.696 466.985 260.215 463.26 260.92 462.809L264.116 460.741L264.087 464.544C264.087 465.573 263.567 467.024 261.175 468.044C259.352 468.828 256.646 469.279 253.823 469.249C249.931 469.22 245.804 468.289 243.462 466.093L243.481 466.083ZM221.925 422.314C222.405 420.48 222.827 418.598 223.082 417.383C223.062 417.383 223.023 417.383 222.993 417.383C222.562 417.442 221.748 418.128 220.886 419.892C218.729 424.294 219.17 429.46 219.474 432.881C219.572 433.969 219.651 434.91 219.641 435.626C219.631 437.126 224.954 441.125 227.816 443.272C228.699 443.939 229.581 444.595 230.414 445.242C233.257 447.438 235.786 450.673 238.462 454.104C240.864 457.172 243.354 460.348 246.285 463.103C246.589 463.387 246.961 463.642 247.373 463.868C246.383 462.878 245.403 461.682 244.452 460.211C239.972 453.29 233.208 447.134 228.326 443.194C223.542 439.331 220.758 433.616 220.876 427.901C220.905 426.637 221.062 425.431 221.346 424.313C221.474 423.804 221.65 423.304 221.846 422.774L221.925 422.333V422.314Z" fill="#33343C"></path><path d="M246.969 423.178L244.072 424.433L246.294 429.56L249.19 428.305L246.969 423.178Z" fill="#33343C"></path><path d="M247.931 408.359C247.931 408.359 245.608 373.402 248.735 341.621C250.137 327.387 250.882 317.104 251.264 310.085C251.696 302.322 249.539 294.636 245.108 288.245L224.346 258.238C224.071 257.837 224.493 257.337 224.934 257.533C231.159 260.317 254.872 270.11 279.232 269.845L299.69 272.276C300.073 272.325 300.288 272.717 300.102 273.051C298.739 275.521 294.456 284.686 295.897 299.793C297.602 317.673 301.563 331.769 301.974 355.688C301.974 355.688 313.718 366.03 325.893 355.08C325.893 355.08 325.53 298.312 326.491 275.717C327.452 253.121 327.226 247.867 309.699 236.957C292.171 226.046 252 221.537 233.345 221.135C214.69 220.733 181.223 232.565 181.223 232.565L168.019 241.397C168.019 241.397 155.991 268.11 191.565 290.196C191.565 290.196 212.259 306.351 220.17 312.448C220.395 312.624 220.454 312.918 220.297 313.164C219.121 315.065 214.475 323.741 214.563 341.876C214.671 362.638 220.591 378.715 222.268 400.271L222.738 407.633C222.738 407.633 232.629 415.838 247.922 408.339L247.931 408.359Z" fill="#3B52A1"></path><g style="mix-blend-mode:multiply" opacity="0.3"><path d="M230.639 268.869L218.464 276.427L179.988 252.44L185.321 248.234L216.563 267.281L224.973 262.478L230.639 268.869Z" fill="#3B52A1"></path></g><g style="mix-blend-mode:multiply" opacity="0.3"><path d="M240.119 263.548L292.309 230.366L285.31 228.141L229.11 261.509L240.119 263.548Z" fill="#3B52A1"></path></g><path d="M221.435 409.228L220.758 408.66L220.229 400.445C219.504 391.054 217.935 382.633 216.435 374.487C214.455 363.792 212.583 353.696 212.524 341.893C212.446 325.748 216.034 316.808 217.896 313.279C209.397 306.711 190.487 291.958 190.497 291.948C153.825 269.186 166.039 240.846 166.167 240.571L166.412 240.032L180.106 230.867L180.557 230.641C181.939 230.151 214.671 218.75 233.404 219.093C254.019 219.544 293.27 224.308 310.797 235.229C329.079 246.61 329.54 252.531 328.55 275.812C327.609 298.104 327.942 354.509 327.952 355.078V355.999L327.276 356.617C313.914 368.635 300.769 357.352 300.632 357.234L299.955 356.636V355.735C299.681 340.56 297.975 329.394 296.328 318.582C295.377 312.367 294.485 306.495 293.868 299.996C292.633 287.037 295.495 278.204 297.338 274.058L279.271 271.891C259.029 272.117 239.178 265.51 229.12 261.5L246.814 287.066C251.471 293.801 253.784 302.005 253.333 310.191C252.843 319.092 251.98 329.728 250.794 341.815C247.716 373.046 249.971 407.866 249.99 408.209L250.079 409.581L248.843 410.189C243.609 412.757 238.972 413.61 235.051 413.581C226.758 413.522 221.749 409.474 221.445 409.219L221.435 409.228ZM246.697 341.423C247.883 329.394 248.736 318.817 249.226 309.975C249.628 302.701 247.579 295.398 243.432 289.409L222.67 259.412C222.013 258.471 222.062 257.246 222.797 256.354C223.533 255.472 224.719 255.187 225.777 255.658C232.296 258.569 255.519 267.99 279.487 267.804L299.945 270.235C300.808 270.333 301.553 270.852 301.945 271.627C302.337 272.391 302.318 273.293 301.906 274.038C300.622 276.361 296.554 285.066 297.946 299.604C298.553 305.985 299.436 311.798 300.377 317.955C302.014 328.659 303.7 339.727 304.014 354.676C306.445 356.46 314.905 361.557 323.845 354.147C323.805 346.618 323.57 296.418 324.452 275.626C325.413 253.001 325.109 248.953 308.631 238.699C291.172 227.828 250.343 223.554 233.316 223.191C216.102 222.789 185.194 233.366 182.155 234.425L169.696 242.757C168.363 246.424 161.657 269.225 192.83 288.595C192.83 288.595 213.524 304.74 221.425 310.838C222.484 311.651 222.748 313.122 222.043 314.259C221.121 315.749 216.524 324.091 216.612 341.883C216.671 353.313 218.504 363.244 220.455 373.752C221.984 381.996 223.562 390.535 224.307 400.161L224.719 406.562C226.983 408.042 234.629 412.022 245.795 407.091C245.403 400.22 243.932 369.429 246.687 341.423H246.697Z" fill="#33343C"></path><path d="M301.524 274.842C304.278 270.411 308.494 268.284 308.533 268.264L307.131 265.441C306.925 265.539 302.063 268 298.838 273.176L301.514 274.842H301.524Z" fill="#33343C"></path><path d="M221.484 314.717C224.856 310.571 230.071 310.953 230.287 310.973L230.601 307.483C230.297 307.454 223.337 306.875 218.759 312.502L221.474 314.717H221.484Z" fill="#33343C"></path><path d="M184.224 281.146C199.31 272.774 192.84 257.276 192.772 257.129L189.88 258.374C190.105 258.903 195.261 271.411 182.704 278.391L184.233 281.146H184.224Z" fill="#33343C"></path><path d="M226.649 133.056C226.649 133.056 227.002 134.076 227.57 135.84C231.864 149.29 234.325 163.268 235.011 177.365L235.197 181.188C235.217 181.59 235.472 181.923 235.864 182.021C238.334 182.639 244.794 185.236 252.313 190.471C259.175 195.255 277.182 211.949 277.182 211.949L254.646 221.301L205.759 195.441L197.143 162.259L209.945 142.643L221.62 131.105L226.659 133.046L226.649 133.056Z" fill="#9B8365"></path><g style="mix-blend-mode:multiply" opacity="0.3"><path d="M221.621 131.117C221.621 131.117 228.728 163.594 229.483 171.858C230.238 180.121 229.934 186.63 235.218 189.071C240.501 191.512 251.039 201.923 251.039 201.923C251.039 201.923 212.524 200.884 211.975 198.943C211.426 197.002 206.162 179.425 206.3 175.553C206.437 171.681 213.789 135.146 213.789 135.146L221.631 131.117H221.621Z" fill="#3B52A1"></path></g><path d="M203.995 196.832L194.928 161.905L208.22 141.535L221.121 128.723L228.277 131.487L228.591 132.389C228.591 132.389 228.953 133.428 229.522 135.222C233.815 148.681 236.345 162.836 237.06 177.276L237.207 180.276C240.138 181.187 246.314 183.805 253.48 188.794C260.391 193.607 277.83 209.762 278.575 210.449L280.918 212.625L254.529 223.565L203.995 196.832ZM251.137 192.157C244.216 187.334 237.913 184.648 235.364 184.01C234.1 183.697 233.198 182.599 233.139 181.285L232.953 177.472C232.267 163.385 229.796 149.593 225.61 136.467C225.365 135.702 225.169 135.075 225.013 134.624L222.111 133.506L211.534 143.966L199.349 162.64L207.515 194.068L254.744 219.055L273.429 211.301C268.341 206.635 256.352 195.803 251.137 192.166V192.157Z" fill="#33343C"></path><path d="M213.916 141.897C214.7 142.563 222.67 137.368 228.61 131.104C228.61 131.104 217.856 96.7253 201.221 95.4803C184.586 94.2354 194.732 112.027 194.732 112.027L213.916 141.897Z" fill="white"></path><g style="mix-blend-mode:multiply" opacity="0.15"><path d="M213.916 141.897C214.7 142.563 222.67 137.368 228.61 131.104C228.61 131.104 217.856 96.7253 201.221 95.4803C184.586 94.2354 194.732 112.027 194.732 112.027L213.916 141.897Z" fill="#3B52A1"></path></g><path d="M212.592 143.454L192.957 113.036C192.369 112.007 187.321 102.822 190.879 97.1851C192.702 94.303 196.222 93.0287 201.378 93.4208C219.199 94.754 230.11 129.015 230.571 130.475L230.61 130.613C230.806 131.24 230.649 131.916 230.198 132.397L230.1 132.505C229.973 132.632 218.748 143.925 213.916 143.895C213.396 143.895 212.945 143.758 212.592 143.454ZM201.064 97.5184C197.545 97.2635 195.29 97.8811 194.339 99.3809C192.428 102.4 195.339 108.958 196.457 110.919L214.827 139.523C216.896 138.435 221.395 135.298 225.542 131.269C225.993 130.828 226.14 130.171 225.934 129.574C222.326 119.261 212.69 98.381 201.054 97.5184H201.064Z" fill="#33343C"></path><path d="M199.408 96.6429C199.408 96.6429 212.515 101.044 215.093 124.326C217.671 147.608 228.209 197.19 239.316 213.826C239.316 213.826 245.158 223.334 228.758 228.726C212.358 234.117 201.134 235.431 185.322 248.233C169.657 260.928 161.001 265.849 158.168 249.87C155.335 233.882 144.454 195.955 137.857 181.515C136.023 177.506 134.475 170.752 133.19 163.076C129.848 143.118 128.299 116.964 128.299 116.964C128.299 116.964 136.935 104.103 160.001 95.1529C175.372 89.183 199.408 96.6331 199.408 96.6331V96.6429Z" fill="white"></path><g style="mix-blend-mode:multiply" opacity="0.15"><path d="M201.928 238.088C201.928 238.088 173.764 216.032 161.638 193.358C152.041 175.419 151.267 147.422 150.963 147.05C150.384 146.324 133.337 149.599 133.337 149.599C133.337 149.599 121.937 163.166 123.525 165.146C125.113 167.126 145.954 217.993 146.15 218.414C146.346 218.836 160.04 259.704 165.589 259.949C167.814 260.047 201.928 238.088 201.928 238.088Z" fill="#3B52A1"></path></g><path d="M162.805 261.529C159.403 260.264 157.296 256.667 156.149 250.226C153.306 234.209 142.405 196.409 135.994 182.371C129.318 167.755 126.378 119.163 126.25 117.094L126.211 116.408L126.593 115.83C126.956 115.281 135.857 102.331 159.256 93.2443C175.107 87.0881 199.007 94.3716 200.016 94.6853H200.065C200.653 94.901 214.446 99.8024 217.142 124.103C219.592 146.209 229.954 196.105 241.07 212.76C241.168 212.917 243.433 216.681 241.786 221.161C240.276 225.268 236.11 228.474 229.405 230.68C226.092 231.768 222.994 232.689 220.024 233.581C208.241 237.091 198.938 239.855 186.616 249.844C176.891 257.725 170.5 262.068 165.491 262.029C164.559 262.029 163.667 261.862 162.815 261.549L162.805 261.529ZM160.746 97.0674C141.268 104.635 132.298 115.134 130.397 117.594C130.799 123.839 133.798 167.677 139.729 180.666C146.424 195.331 157.276 233.081 160.187 249.511C161.03 254.245 162.393 257 164.236 257.686C168.108 259.137 176.489 252.746 184.028 246.638C196.987 236.14 207.113 233.13 218.847 229.631C221.778 228.758 224.847 227.846 228.121 226.768C233.473 225.004 236.855 222.592 237.914 219.789C238.894 217.181 237.62 214.966 237.62 214.956C226.023 197.585 215.632 147.63 213.064 124.545C210.711 103.312 199.526 98.8613 198.771 98.577C197.722 98.2633 175.019 91.5092 160.746 97.0576V97.0674Z" fill="#33343C"></path><path d="M176.117 94.3C182.508 99.172 192.34 99.6621 197.555 99.5347C199.712 99.4857 201.712 98.2898 202.722 96.3782C216.279 70.6753 208.123 47.7563 208.123 47.7563L173.646 43.9921L165.814 55.1869C163.638 58.2943 162.814 62.1566 163.638 65.8621C164.442 69.4793 164.314 75.214 160.001 83.0954C147.894 105.171 153.541 110.043 169.647 122.954C181.077 132.119 200.33 125.267 188.027 98.9269L176.117 94.3098V94.3Z" fill="#9B8365"></path><g style="mix-blend-mode:multiply" opacity="0.3"><path d="M176.744 97.1956C177.077 97.3916 191.272 109.194 188.145 122.261C188.145 122.261 191.909 116.782 190.997 111.566C190.086 106.351 190.164 101.274 189.615 101.087C189.066 100.901 181.989 96.578 181.989 96.578L176.734 97.1956H176.744Z" fill="#3B52A1"></path></g><path d="M168.363 124.554C152.423 111.771 145.14 105.938 158.207 82.1175C162.295 74.6576 162.334 69.4033 161.648 66.3154C160.716 62.11 161.618 57.6203 164.147 54.0129L172.676 41.828L209.632 45.8668L210.064 47.0823C210.407 48.0528 218.367 71.1482 204.545 97.351C203.202 99.8998 200.545 101.527 197.614 101.596C195.899 101.645 193.723 101.615 191.331 101.409C197.448 116.937 191.742 123.74 188.841 126.014C186.38 127.946 183.273 128.887 180.028 128.867C176.068 128.838 171.892 127.387 168.382 124.564L168.363 124.554ZM174.872 95.9296L177.352 92.6653C183.234 97.1452 192.497 97.6059 197.506 97.4785C198.957 97.4393 200.261 96.655 200.908 95.4199C212.132 74.1282 207.927 54.601 206.554 49.6408L174.636 46.151L167.5 56.3459C165.637 59.0123 164.961 62.3159 165.647 65.4037C166.49 69.1876 166.5 75.5006 161.805 84.0683C150.404 104.87 155.158 108.693 170.931 121.338C175.862 125.289 182.322 125.897 186.302 122.77C191.086 119.015 191.184 111.016 186.615 100.733C182.528 99.9488 178.283 98.5078 174.882 95.9198L174.872 95.9296Z" fill="#33343C"></path><path d="M173.079 82.0581C169.883 81.4406 167.089 79.5192 165.403 76.7352C164.05 74.5002 162.913 71.7652 163.374 69.3047C164.374 63.9818 169.589 65.3052 171.794 68.6185L173.686 71.6182L173.079 82.0581Z" fill="#9B8365"></path><path d="M172.696 84.0768L173.47 80.0479C170.833 79.5381 168.539 77.9501 167.157 75.6758C165.716 73.2937 165.098 71.2253 165.393 69.6863C165.608 68.559 166.03 67.9218 166.637 67.8042C167.549 67.6375 169.127 68.3139 170.098 69.7647L171.97 72.7252C171.97 72.7252 174.617 71.1469 175.44 70.5293C178.754 68.0688 179.489 64.7947 179.489 64.7947C177.646 62.0205 168.539 63.2263 165.834 63.785C163.52 64.2556 161.903 66.1279 161.373 68.9315C160.893 71.5194 161.658 74.4995 163.667 77.803C165.647 81.0674 168.941 83.3514 172.705 84.0768H172.696Z" fill="#33343C"></path><path d="M222.082 43.8875C222.347 41.4074 221.19 39.1234 219.289 37.7804V37.2314C220.916 36.1727 222.072 34.4572 222.288 32.3888C222.661 28.8206 220.132 25.6249 216.603 25.1348C216.446 24.8505 216.299 24.5564 216.132 24.2721C216.387 23.6742 216.593 23.037 216.661 22.3606C217.044 18.7139 214.397 15.4398 210.75 15.0575C209.995 14.9791 209.26 15.0575 208.554 15.2241C208.368 15.0477 208.182 14.881 207.986 14.7046C208.329 11.0776 205.702 7.84264 202.075 7.46033C200.761 7.32309 199.506 7.58777 198.409 8.13673C197.928 7.88185 197.771 7.79363 197.291 7.53875C196.928 4.5391 194.536 2.06879 191.4 1.7355C189.066 1.49043 186.9 2.49031 185.528 4.1862C185.371 4.1862 185.332 4.1862 185.175 4.1862C184.106 2.71578 182.459 1.67668 180.509 1.47082C177.823 1.18654 175.362 2.54913 174.078 4.73515C173.343 4.8822 172.608 5.05865 171.872 5.2547C170.941 4.5489 169.824 4.06856 168.588 3.93133C164.961 3.54902 161.717 6.17617 161.305 9.7934C160.697 10.0679 160.482 10.1659 159.874 10.4502C158.472 9.53853 156.737 9.06799 154.737 9.54833C152.757 10.0189 151.051 11.4207 150.218 13.2734C149.385 15.1261 149.512 17.0671 150.218 18.6649C149.914 18.9982 149.63 19.3511 149.336 19.6942C149.12 19.655 148.924 19.5864 148.699 19.5668C145.052 19.1845 141.778 21.8312 141.395 25.4779C141.278 26.6346 141.484 27.7423 141.905 28.7422C139.445 29.5068 137.543 31.6732 137.259 34.3984C137.082 36.1041 137.582 37.7216 138.523 39.0057C136.484 39.9566 134.965 41.9074 134.72 44.309C134.416 47.1813 136.004 49.7986 138.474 50.9749C138.494 51.2788 138.504 51.318 138.523 51.6219C136.582 52.6022 135.151 54.5138 134.906 56.8468C134.524 60.4935 137.17 63.7676 140.817 64.1499C140.847 64.1499 140.876 64.1499 140.905 64.1499C140.827 64.444 140.748 64.7381 140.719 65.0518C140.337 68.6984 142.984 71.9725 146.63 72.3548C147.297 72.4235 147.944 72.3548 148.571 72.247C148.522 75.6486 151.041 78.5894 154.492 78.9521C156.031 79.1188 157.492 78.7169 158.707 77.9424C161.266 78.8639 163.481 79.3246 164.903 79.5501C165.412 79.6285 165.765 79.0404 165.442 78.6384C164.628 77.6288 163.442 75.776 162.138 72.5019C161.972 72.0902 161.874 71.7275 161.746 71.3354C161.658 70.7668 161.501 70.2276 161.276 69.7179C160.236 65.2772 160.962 64.2185 163.589 61.8462C165.157 60.4248 164.687 60.4935 166.373 61.4737C167.775 62.2874 170.588 58.6603 171.235 57.1703C172.48 54.2687 177.548 48.4948 184.9 46.1912C192.948 43.6621 199.301 49.9162 203.251 52.71C203.879 55.7391 206.564 58.1016 209.956 58.0035C211.829 57.9447 213.583 56.9645 214.779 55.5234C216.475 53.4845 216.593 51.5533 216.171 49.8182C219.239 49.5143 221.788 47.093 222.122 43.8973L222.082 43.8875Z" fill="#33343C"></path><path d="M172.461 68.5287C177.122 68.5287 180.901 64.7499 180.901 60.0885C180.901 55.4271 177.122 51.6483 172.461 51.6483C167.799 51.6483 164.021 55.4271 164.021 60.0885C164.021 64.7499 167.799 68.5287 172.461 68.5287Z" fill="#33343C"></path><path d="M183.88 59.7506C189.056 59.7506 193.252 55.5549 193.252 50.3792C193.252 45.2034 189.056 41.0077 183.88 41.0077C178.705 41.0077 174.509 45.2034 174.509 50.3792C174.509 55.5549 178.705 59.7506 183.88 59.7506Z" fill="#33343C"></path><path d="M175.891 59.2394C179.681 59.2394 182.753 56.1672 182.753 52.3775C182.753 48.5877 179.681 45.5155 175.891 45.5155C172.102 45.5155 169.029 48.5877 169.029 52.3775C169.029 56.1672 172.102 59.2394 175.891 59.2394Z" fill="#33343C"></path><path d="M209.368 58.0519C213.158 58.0519 216.23 54.9797 216.23 51.19C216.23 47.4002 213.158 44.328 209.368 44.328C205.578 44.328 202.506 47.4002 202.506 51.19C202.506 54.9797 205.578 58.0519 209.368 58.0519Z" fill="#33343C"></path><path d="M198.388 54.9858C203.618 54.9858 207.858 50.7461 207.858 45.5163C207.858 40.2864 203.618 36.0468 198.388 36.0468C193.159 36.0468 188.919 40.2864 188.919 45.5163C188.919 50.7461 193.159 54.9858 198.388 54.9858Z" fill="#33343C"></path><path d="M154.325 80.383C150.698 80.0007 147.885 77.2952 147.257 73.825C142.483 73.8544 138.974 69.8156 139.248 65.2769C135.513 64.1692 133.053 60.6108 133.465 56.6995C133.69 54.5723 134.729 52.6705 136.337 51.3374C134.18 49.6513 132.984 46.9457 133.278 44.1617C133.523 41.858 134.71 39.8289 136.553 38.5055C135.925 37.1821 135.67 35.7117 135.827 34.2511C136.111 31.5259 137.758 29.1634 140.131 27.9283C139.925 27.0656 139.876 26.1932 139.964 25.3207C140.415 21.0075 144.199 17.8412 148.483 18.1059C148.208 17.1354 148.12 16.1453 148.228 15.1552C148.698 10.7244 152.678 7.49924 157.109 7.96978C158.08 8.06781 159.021 8.36189 159.903 8.82262C159.942 8.80302 159.981 8.78341 160.02 8.754C160.913 4.77407 164.608 2.0783 168.725 2.50962C169.931 2.63706 171.088 3.04877 172.137 3.70556C172.49 3.61734 172.833 3.53891 173.186 3.46049C174.862 1.06861 177.715 -0.264571 180.646 0.0491185C182.43 0.235372 184.096 1.0294 185.38 2.27435C187.057 0.803934 189.272 0.0883297 191.527 0.323597C194.948 0.6863 197.771 3.22522 198.545 6.51896C199.722 6.07784 200.967 5.91119 202.212 6.03863C206.192 6.46015 209.211 9.74408 209.427 13.626C214.524 13.1555 218.602 17.5961 218.082 22.5171C218.033 22.9779 217.935 23.4484 217.788 23.9287C221.582 24.9482 224.141 28.5557 223.719 32.5552C223.513 34.4765 222.621 36.241 221.219 37.5546C222.905 39.2603 223.768 41.6424 223.513 44.0441C223.17 47.328 220.837 50.0336 217.759 50.9452C217.788 51.3668 217.779 51.7785 217.73 52.2C217.259 56.6309 214.357 58.464 209.926 58.0033C206.643 57.6602 207.231 52.2196 206.329 49.0533C202.741 46.6418 189.654 38.5545 182.39 40.8288C173.989 43.4657 169.627 52.5529 167.127 57.6896C166.294 59.4051 165.667 60.6794 165.167 61.1401C162.559 63.4928 161.834 65.8847 162.657 69.3941C162.853 69.7862 163.04 70.443 163.148 71.1194L163.216 71.2664C163.295 71.4919 163.363 71.7272 163.461 71.9722C164.716 75.1385 165.834 76.854 166.539 77.7363C167.069 78.3931 167.137 79.2851 166.726 80.0105C166.314 80.7359 169.323 82.1868 168.5 82.0789C167.147 81.8633 160.942 84.0885 158.854 79.5302C157.452 80.2556 155.903 80.5595 154.345 80.3928L154.325 80.383ZM150.022 70.5116L149.992 72.2663C149.953 74.9817 151.943 77.2461 154.629 77.5304C155.776 77.6481 156.913 77.3736 157.932 76.7364L158.521 76.3639L159.177 76.5992C160.618 77.1187 161.942 77.4814 163.059 77.7363C162.275 76.4423 161.52 74.8641 160.785 73.0211C160.658 72.7172 160.56 72.4232 160.471 72.1291L160.364 71.786C160.236 71.1194 160.118 70.6881 159.942 70.2862C158.805 65.5514 159.883 62.0518 163.236 59.0129C163.236 59.0129 164.775 59.9344 167.235 61.7381C168.225 58.513 172.99 50.1218 182.038 47.279C190.723 44.544 200.104 50.2983 204.182 53.1901L204.751 54.0625L204.613 52.3961C205.084 54.6311 206.907 56.2976 209.142 56.5328C212.005 56.8367 214.573 54.7487 214.877 51.8961C214.936 51.3472 214.897 50.7688 214.74 50.1414L214.357 48.5436L215.994 48.3769C218.445 48.1318 220.406 46.1811 220.661 43.7304C220.857 41.8777 220.014 40.0445 218.455 38.9466L217.769 38.4663L217.926 36.4175L218.524 36.0254C219.847 35.1529 220.7 33.7707 220.866 32.2415C221.161 29.4477 219.2 26.948 216.406 26.5461L215.691 26.448L215.347 25.8011C215.2 25.5266 215.053 25.2521 214.897 24.9776L214.534 24.3601L214.818 23.7033C215.053 23.1445 215.191 22.6642 215.24 22.2034C215.544 19.341 213.456 16.7727 210.603 16.4688C210.074 16.41 209.505 16.459 208.878 16.606L208.152 16.7727L206.486 15.2827L206.554 14.5573C206.829 11.7242 204.741 9.16572 201.918 8.87164C200.937 8.77361 199.947 8.95006 199.045 9.41079L198.398 9.73428L197.751 9.41079C197.546 9.30296 197.33 9.21473 197.124 9.11671L195.958 8.56775L195.869 7.77372C195.605 5.36223 193.654 3.42128 191.242 3.16641C189.478 2.98015 187.753 3.70556 186.625 5.10736L186.125 5.72494L184.714 5.55829L184.008 5.02894C183.116 3.80359 181.822 3.04877 180.351 2.89193C178.322 2.67627 176.342 3.68596 175.313 5.46026L174.989 6.00922L174.362 6.13666C173.646 6.2837 172.941 6.45034 172.235 6.6366L171.568 6.81305L171.019 6.39153C170.235 5.80336 169.372 5.45046 168.441 5.35243C165.628 5.05835 163.128 7.02871 162.746 9.84211L162.648 10.5381L162.05 10.891C161.599 11.1557 161.148 11.4204 160.707 11.7046L159.922 12.2046L159.148 11.6948C155.825 9.46961 151.482 11.8027 151.1 15.4689C151.012 16.3414 151.159 17.2334 151.541 18.0961L151.914 18.9489L151.286 19.6351C151.1 19.841 150.923 20.0468 150.747 20.2527L149.875 21.2624L148.561 20.9879C145.699 20.684 143.13 22.772 142.826 25.6246C142.738 26.4677 142.875 27.3303 143.238 28.1831L143.856 29.6438L142.346 30.1143C140.346 30.7319 138.915 32.4768 138.699 34.555C138.562 35.8195 138.925 37.1037 139.699 38.1624L140.729 39.5642L139.16 40.2994C137.474 41.0836 136.357 42.6423 136.17 44.4558C135.945 46.632 137.131 48.7298 139.121 49.6905L139.856 50.0434L140.082 52.4549L139.199 52.896C137.601 53.6998 136.533 55.2389 136.357 57.0034C136.053 59.8658 138.141 62.4341 140.993 62.738L142.709 62.836L142.326 64.5025C142.248 64.826 142.189 65.0123 142.17 65.2181C141.866 68.0805 143.954 70.6489 146.816 70.9527C147.267 71.0018 147.757 70.9724 148.336 70.8645L150.061 70.5312L150.022 70.5116Z" fill="#33343C"></path><path d="M177.46 126.742L172.392 135.016C172.029 135.604 171.294 135.81 170.696 135.467C167.5 133.653 157.796 127.713 151.904 119.204C144.777 108.901 141.984 95.7361 155.972 88.09C155.972 88.09 154.874 98.9907 159.668 107.441C164.461 115.891 177.45 126.742 177.45 126.742H177.46Z" fill="#33343C"></path><path d="M169.686 137.261C165.834 135.085 156.237 129.085 150.218 120.38C145.003 112.842 142.954 105.215 144.454 98.922C145.699 93.6873 149.237 89.4427 154.992 86.296L158.403 84.4335L158.011 88.3056C158.001 88.4134 157.031 98.6475 161.452 106.431C166.01 114.45 178.636 125.066 178.763 125.164L180.116 126.301L174.127 136.084C173.499 137.124 172.401 137.692 171.274 137.682C170.735 137.682 170.186 137.535 169.676 137.251L169.686 137.261ZM157.893 108.46C154.649 102.745 153.913 96.0988 153.825 91.9326C150.973 94.1578 149.169 96.8144 148.443 99.8729C147.218 105.019 149.051 111.479 153.6 118.047C158.893 125.713 167.608 131.291 171.039 133.3L174.793 127.164C171.284 124.096 161.932 115.577 157.893 108.46Z" fill="#33343C"></path><path d="M197.968 123.429C196.458 122.596 193.223 120.949 190.616 120.557C190.616 120.557 193.517 107.186 186.881 98.7264C186.881 98.7264 192.321 100.285 196.958 99.8538C196.958 99.8538 203.065 110.284 199.125 122.959C198.978 123.439 198.409 123.675 197.968 123.429Z" fill="#33343C"></path><path d="M196.967 125.212C195.742 124.536 192.635 122.918 190.311 122.575L188.145 122.261L188.606 120.115C188.635 119.987 191.233 107.596 185.263 99.9797L181.361 94.9999L187.439 96.7448C187.439 96.7448 192.546 98.1956 196.762 97.8035L198.065 97.676L198.722 98.8034C198.987 99.2641 205.241 110.165 201.075 123.546C200.82 124.369 200.212 125.036 199.408 125.359C199.055 125.496 198.683 125.575 198.32 125.565C197.85 125.565 197.389 125.447 196.967 125.212ZM190.997 101.646C193.899 108.145 193.409 115.517 192.948 118.987C194.605 119.487 196.262 120.232 197.575 120.889C199.771 112.145 196.977 104.675 195.732 101.96C194.095 101.989 192.448 101.842 190.997 101.646Z" fill="#33343C"></path><path d="M192.909 149.992L196.987 149.541C195.468 135.896 190.733 123.26 190.537 122.73L186.704 124.181C186.753 124.309 191.458 136.886 192.919 150.002L192.909 149.992Z" fill="#33343C"></path><path d="M290.545 225.314L216.23 267.476C216.073 267.564 215.887 267.564 215.74 267.476L165.157 236.823C164.843 236.637 164.843 236.176 165.157 235.99L238.923 193.269C239.08 193.181 239.266 193.181 239.413 193.269L290.555 224.481C290.868 224.677 290.858 225.128 290.545 225.314Z" fill="#8B99A7"></path><path d="M214.671 269.224L164.079 238.571C163.314 238.11 162.854 237.267 162.863 236.375C162.873 235.483 163.363 234.659 164.128 234.209L237.904 191.478C238.698 191.027 239.688 191.037 240.482 191.517L291.613 222.729C292.378 223.19 292.849 224.033 292.829 224.935C292.819 225.827 292.319 226.66 291.545 227.101L217.23 269.263C216.838 269.489 216.397 269.597 215.955 269.597C215.514 269.597 215.063 269.469 214.661 269.234L214.671 269.224ZM239.149 195.507L168.48 236.434L216.014 265.244L287.222 224.847L239.149 195.507Z" fill="#33343C"></path><path d="M147.964 166.755C147.964 166.755 151.111 176.254 152.806 191.635C154.189 204.192 153.973 215.112 153.963 215.308C154.189 215.269 170.167 212.446 183.94 216.838C197.811 221.259 216.593 219.298 216.593 219.298C216.593 219.298 226.259 212.26 230.454 212.691C234.66 213.122 232.523 217.2 232.523 217.2C232.523 217.2 252.442 224.18 245.041 230.493C237.63 236.806 216.495 232.483 216.495 232.483C216.495 232.483 166.824 237.473 140.582 233.512C139.455 233.346 138.494 232.64 137.965 231.63C135.103 226.16 124.525 205.849 121.712 169.216C118.34 125.397 148.072 162.011 148.072 162.011L147.974 166.745L147.964 166.755Z" fill="#9B8365"></path><g style="mix-blend-mode:multiply" opacity="0.3"><path d="M216.357 229.335C206.495 227.963 168.47 231.698 150.335 227.277C141.258 225.061 133.17 213.229 128.975 209.406C131.347 215.513 136.915 229.629 137.964 231.639C138.493 232.649 139.454 233.345 140.581 233.521C166.823 237.481 223.768 233.404 223.768 233.404C223.768 233.404 232.257 231.561 216.357 229.345V229.335Z" fill="#3B52A1"></path></g><path d="M140.278 235.542C138.513 235.278 136.974 234.17 136.151 232.582C124.897 211.084 120.976 186.352 119.672 169.383C118.623 155.806 120.613 148.209 125.75 146.16C134.622 142.631 148.149 158.865 149.659 160.727L150.139 161.316L150.032 166.452C150.62 168.325 153.316 177.422 154.855 191.4C155.884 200.723 156.041 208.967 156.041 212.937C161.177 212.31 173.509 211.349 184.567 214.888C196.585 218.721 212.73 217.584 215.857 217.309C218.328 215.554 226.239 210.231 230.669 210.663C233.032 210.908 234.12 212.055 234.62 212.986C235.159 213.996 235.198 215.064 235.061 215.976C239.217 217.623 247.726 221.564 248.658 226.563C248.922 227.965 248.736 230.053 246.373 232.062C238.718 238.581 219.769 235.219 216.397 234.562C213.054 234.886 187.88 237.277 164.608 237.101C155.796 237.032 147.257 236.601 140.278 235.552V235.542ZM216.906 230.484C222.513 231.631 238.276 233.582 243.707 228.945C244.756 228.053 244.658 227.514 244.619 227.318C244.119 224.632 236.698 220.858 231.846 219.152L230.552 218.691C230.071 218.515 229.856 217.966 230.081 217.515L230.699 216.29C230.924 215.839 231.199 215.368 231.013 214.966C231.013 214.966 230.865 214.702 230.238 214.76C227.827 214.976 221.543 218.25 217.789 220.985L217.347 221.309L216.798 221.367C216.014 221.456 197.418 223.318 183.312 218.819C170.147 214.623 154.482 217.319 154.315 217.348L151.816 217.77L151.904 215.231C151.904 215.133 152.129 204.262 150.757 191.871C149.1 176.922 146.032 167.511 146.003 167.413L145.895 167.08L145.983 162.757C140.562 156.267 131.495 148.288 127.25 149.984C125.799 150.562 122.545 153.581 123.731 169.089C125.005 185.676 128.828 209.83 139.758 230.71C139.984 231.141 140.386 231.435 140.866 231.513C166.559 235.385 215.779 230.523 216.279 230.474L216.583 230.445L216.887 230.504L216.906 230.484Z" fill="#33343C"></path><path d="M150.61 166.778C152.286 164.719 153.05 162.063 152.982 159.406C152.717 149.27 150.835 118.078 137.925 112.275C122.476 105.324 116.859 151.819 117.564 163.504C118.26 175.199 144.512 169.984 147.914 168.846C148.943 168.503 149.855 167.69 150.61 166.768V166.778Z" fill="white"></path><path d="M119.348 170.246C117.006 168.668 115.682 166.374 115.525 163.629C115.025 155.238 118.27 119.144 129.818 111.174C132.572 109.273 135.67 109.018 138.768 110.41C152.433 116.556 154.697 146.69 155.031 159.355C155.119 162.629 154.109 165.717 152.198 168.07C151.07 169.452 149.855 170.373 148.571 170.795C147.081 171.295 139.219 173.118 131.533 173.059C126.936 173.02 122.407 172.314 119.348 170.246ZM132.151 114.546C123.142 120.761 119.025 153.464 119.613 163.384C119.701 164.874 120.348 165.972 121.642 166.854C127.534 170.824 143.757 168.08 147.257 166.913C147.777 166.737 148.394 166.227 149.012 165.482C150.306 163.894 150.992 161.757 150.933 159.463C150.423 140.338 146.512 118.389 137.082 114.145C136.317 113.801 135.601 113.625 134.905 113.625C133.955 113.625 133.053 113.919 132.141 114.546H132.151Z" fill="#33343C"></path><path d="M216.25 266.999L241.845 209.692C241.845 209.692 241.894 209.614 241.933 209.594L318.297 165.07C318.483 164.962 318.699 165.158 318.611 165.354L291.29 224.857C291.29 224.857 291.241 224.935 291.202 224.955L216.573 267.293C216.387 267.401 216.171 267.205 216.26 267.009L216.25 266.999Z" fill="#8B99A7"></path><path d="M213.779 267.519L239.972 208.869L240.335 208.153L317.267 163.296C318.13 162.786 319.208 162.894 319.944 163.57L321.11 164.835L293.172 225.671L292.809 226.396L217.583 269.068L216.034 269.764L213.789 267.509L213.779 267.519ZM314.336 169.746L243.482 211.065L220.396 262.755L289.673 223.455L314.336 169.746Z" fill="#33343C"></path><path d="M271.557 220.127C268.351 224.136 264.273 226.205 262.45 224.744C260.627 223.284 261.754 218.853 264.959 214.843C268.165 210.834 272.243 208.766 274.066 210.226C275.889 211.687 274.762 216.118 271.557 220.127Z" fill="white"></path><path d="M261.175 226.349C257.96 223.771 259.842 217.968 263.371 213.566C266.9 209.165 272.144 206.057 275.36 208.626C276.252 209.341 277.624 211.086 276.693 214.723C276.154 216.87 274.889 219.242 273.164 221.409C270.507 224.722 266.88 227.3 263.881 227.28C262.891 227.28 261.969 226.986 261.175 226.349ZM269.958 218.85C272.733 215.38 273.193 212.351 272.801 211.841C272.203 211.557 269.341 212.664 266.567 216.135C263.792 219.605 263.332 222.634 263.724 223.144C264.322 223.428 267.184 222.32 269.958 218.85Z" fill="#33343C"></path><path d="M319.169 202.161L337.559 201.416C338.137 201.397 338.666 201.122 339.019 200.671C339.372 200.22 339.51 199.632 339.392 199.073L336.853 186.781C336.716 186.114 336.235 185.565 335.588 185.34C335.02 185.144 334.402 185.212 333.892 185.536C333.824 185.575 333.765 185.624 333.696 185.683L317.855 198.721C317.6 198.926 317.414 199.191 317.296 199.475C317.11 199.926 317.091 200.446 317.277 200.926C317.581 201.71 318.335 202.21 319.179 202.181L319.169 202.161ZM324.815 198.025L333.677 190.731L335.098 197.613L324.815 198.025Z" fill="#3B52A1"></path><path d="M118.731 219.228L102.125 211.288C101.605 211.043 101.007 211.033 100.488 211.268C99.9682 211.503 99.5761 211.954 99.4094 212.503L95.9098 224.561C95.7236 225.217 95.8902 225.933 96.3509 226.433C96.7627 226.874 97.341 227.1 97.939 227.051C98.0174 227.051 98.0958 227.031 98.1841 227.021L118.28 222.894C118.603 222.826 118.888 222.688 119.133 222.492C119.505 222.179 119.77 221.728 119.829 221.228C119.927 220.394 119.495 219.591 118.731 219.228ZM111.81 220.247L100.566 222.551L102.527 215.807L111.81 220.247Z" fill="#33343C"></path><path d="M338.519 175.148C341.685 174.795 343.969 171.932 343.607 168.766C343.244 165.6 340.391 163.316 337.225 163.678C334.059 164.041 331.775 166.894 332.137 170.06C332.5 173.226 335.353 175.51 338.519 175.148ZM337.607 167.041C338.921 166.894 340.107 167.845 340.254 169.148C340.401 170.452 339.45 171.648 338.147 171.795C336.843 171.942 335.647 171.001 335.5 169.687C335.353 168.374 336.304 167.188 337.607 167.041Z" fill="#FF6000"></path><path d="M108.487 201.241C111.653 200.888 113.937 198.026 113.575 194.86C113.212 191.693 110.359 189.409 107.193 189.772C104.027 190.135 101.743 192.987 102.105 196.154C102.468 199.32 105.321 201.604 108.487 201.241ZM107.575 193.134C108.889 192.987 110.075 193.938 110.222 195.242C110.369 196.546 109.418 197.742 108.114 197.889C106.811 198.036 105.615 197.095 105.468 195.781C105.321 194.468 106.271 193.282 107.575 193.134Z" fill="white"></path><path d="M248.01 134.593C251.177 134.24 253.461 131.378 253.098 128.211C252.745 125.045 249.883 122.761 246.716 123.124C243.55 123.486 241.266 126.339 241.629 129.505C241.991 132.672 244.844 134.956 248.01 134.593ZM247.099 126.486C248.412 126.339 249.598 127.29 249.745 128.594C249.892 129.897 248.942 131.093 247.638 131.24C246.334 131.387 245.138 130.446 244.991 129.133C244.844 127.819 245.795 126.633 247.099 126.486Z" fill="#3B52A1"></path><path d="M352.577 183.124C353.914 183.124 354.998 182.04 354.998 180.702C354.998 179.365 353.914 178.281 352.577 178.281C351.239 178.281 350.155 179.365 350.155 180.702C350.155 182.04 351.239 183.124 352.577 183.124Z" fill="white"></path><path d="M267.429 148.081C268.766 148.081 269.85 146.997 269.85 145.659C269.85 144.322 268.766 143.238 267.429 143.238C266.092 143.238 265.008 144.322 265.008 145.659C265.008 146.997 266.092 148.081 267.429 148.081Z" fill="white"></path><path d="M85.7445 199.956C87.0818 199.956 88.1658 198.872 88.1658 197.534C88.1658 196.197 87.0818 195.113 85.7445 195.113C84.4073 195.113 83.3232 196.197 83.3232 197.534C83.3232 198.872 84.4073 199.956 85.7445 199.956Z" fill="#FF6000"></path><path d="M249.372 158.6C250.71 158.6 251.794 157.516 251.794 156.179C251.794 154.842 250.71 153.758 249.372 153.758C248.035 153.758 246.951 154.842 246.951 156.179C246.951 157.516 248.035 158.6 249.372 158.6Z" fill="#33343C"></path><path d="M75.7167 177.206C75.3638 177.206 75.0109 177.108 74.6972 176.931C74.2267 176.657 73.8934 176.225 73.7464 175.696C73.6091 175.167 73.6777 174.618 73.9522 174.147L81.7062 160.727C81.9807 160.257 82.4218 159.923 82.9414 159.776C83.1178 159.727 83.2943 159.708 83.4707 159.708C83.8236 159.708 84.1765 159.806 84.4902 159.982L92.0776 164.364L100.145 150.395C100.508 149.768 101.184 149.376 101.91 149.376C102.263 149.376 102.616 149.474 102.919 149.65L110.242 153.875L116.438 143.141C116.8 142.514 117.477 142.121 118.202 142.121C118.555 142.121 118.908 142.22 119.212 142.396L125.731 146.16L133.798 132.191C134.073 131.721 134.514 131.387 135.033 131.24C135.21 131.191 135.386 131.172 135.563 131.172C135.916 131.172 136.269 131.27 136.582 131.446C137.553 132.005 137.886 133.26 137.327 134.23L128.24 149.974C127.877 150.601 127.201 150.993 126.476 150.993C126.123 150.993 125.77 150.895 125.466 150.719L118.947 146.954L112.752 157.688C112.389 158.316 111.713 158.708 110.987 158.708C110.634 158.708 110.281 158.61 109.968 158.433L102.645 154.208L94.5773 168.177C94.3028 168.648 93.8617 168.981 93.3421 169.128C93.1657 169.177 92.9892 169.197 92.8128 169.197C92.4599 169.197 92.107 169.099 91.8031 168.922L84.2157 164.54L77.4812 176.196C77.1185 176.823 76.4421 177.215 75.7167 177.215V177.206Z" fill="#FF6000"></path></g><defs><clipPath id="clip0_2387_29084"><rect width="355" height="440" fill="white"></rect></clipPath></defs></svg> 