<svg width="478" height="496" viewBox="0 0 478 496" fill="none" xmlns="http://www.w3.org/2000/svg">
<g clip-path="url(#clip0_12831_26763)">
<path d="M427.04 90.42C427.04 90.42 321.85 54.71 234.96 0C148.07 54.71 42.88 90.42 42.88 90.42C22.55 323.08 234.96 496 234.96 496C234.96 496 447.37 323.08 427.04 90.42Z" fill="#0F576C"/>
<path d="M409.49 100.9C409.49 100.9 313.91 68.21 234.96 18.13C156 68.22 60.43 100.9 60.43 100.9C41.96 313.87 234.96 472.16 234.96 472.16C234.96 472.16 427.96 313.87 409.49 100.9Z" fill="#084151"/>
<path d="M398.39 108.27C398.39 108.27 308.89 77.46 234.96 30.27C161.03 77.47 71.53 108.27 71.53 108.27C54.23 308.98 234.96 458.16 234.96 458.16C234.96 458.16 415.69 308.98 398.39 108.27Z" fill="url(#paint0_radial_12831_26763)"/>
<path d="M146 401L321.5 404L306.147 423H164.796L146 401Z" fill="#073A47" fill-opacity="0.5"/>
<g filter="url(#filter0_d_12831_26763)">
<path d="M235.87 273.49C279.346 273.49 314.59 238.246 314.59 194.77C314.59 151.294 279.346 116.05 235.87 116.05C192.394 116.05 157.15 151.294 157.15 194.77C157.15 238.246 192.394 273.49 235.87 273.49Z" fill="#FDFFFF"/>
</g>
<path d="M84.44 339.36H0L30.79 382.58L0 426.89H143.17L84.44 339.36Z" fill="url(#paint1_linear_12831_26763)"/>
<path d="M143.17 391.31V426.89L48.3 408.82L143.17 391.31Z" fill="url(#paint2_linear_12831_26763)"/>
<path d="M393.3 339.36H477.74L446.95 382.58L477.74 426.89H334.57L393.3 339.36Z" fill="url(#paint3_linear_12831_26763)"/>
<path d="M334.57 391.31V426.89L429.44 408.82L334.57 391.31Z" fill="url(#paint4_linear_12831_26763)"/>
<path d="M70.32 320.16H407.45L429.47 408.82H48.3L70.32 320.16Z" fill="url(#paint5_radial_12831_26763)"/>
<g filter="url(#filter1_d_12831_26763)">
<path d="M132.91 165.41C134.09 165.8 135.19 165.98 136.2 165.97C137.21 165.97 138.1 165.8 138.88 165.5C139.66 165.2 140.31 164.77 140.85 164.22C141.38 163.67 141.76 163.04 141.99 162.33C142.17 161.79 142.22 161.25 142.15 160.71C142.08 160.17 141.93 159.63 141.68 159.1C141.43 158.57 141.13 158.04 140.75 157.52C140.37 157 139.96 156.49 139.52 155.98L141.41 154.84C141.94 155.39 142.43 156.01 142.88 156.69C143.32 157.37 143.68 158.09 143.94 158.84C144.2 159.59 144.35 160.37 144.4 161.17C144.44 161.97 144.33 162.76 144.08 163.56C143.65 164.9 143.02 166.05 142.19 167.03C141.37 168.01 140.4 168.77 139.3 169.31C138.2 169.85 136.99 170.17 135.67 170.24C134.35 170.32 132.97 170.12 131.54 169.65C130.15 169.2 128.94 168.56 127.91 167.75C126.89 166.94 126.08 166 125.49 164.93C124.9 163.86 124.55 162.7 124.43 161.45C124.31 160.19 124.47 158.9 124.91 157.56C125.2 156.67 125.59 155.89 126.08 155.23C126.57 154.57 127.13 154.01 127.76 153.54C128.39 153.07 129.09 152.7 129.85 152.42C130.61 152.14 131.41 151.94 132.26 151.81L133.06 153.84C132.41 153.99 131.77 154.18 131.16 154.41C130.55 154.64 129.99 154.91 129.49 155.23C128.98 155.55 128.55 155.91 128.18 156.32C127.81 156.73 127.55 157.2 127.38 157.72C127.15 158.43 127.09 159.16 127.19 159.91C127.29 160.66 127.57 161.37 128.03 162.06C128.49 162.75 129.12 163.39 129.93 163.97C130.74 164.56 131.74 165.04 132.93 165.43L132.91 165.41Z" fill="#FDFFFF"/>
<path d="M151.61 146.83C150.96 147.97 150.13 148.92 149.13 149.66C148.13 150.4 147.03 150.91 145.84 151.19C144.64 151.47 143.39 151.51 142.07 151.31C140.76 151.11 139.45 150.64 138.17 149.91C136.91 149.19 135.87 148.32 135.05 147.31C134.23 146.29 133.65 145.21 133.31 144.05C132.97 142.89 132.87 141.7 133.02 140.47C133.17 139.24 133.56 138.06 134.22 136.91C134.87 135.77 135.69 134.82 136.67 134.08C137.65 133.33 138.73 132.81 139.9 132.51C141.07 132.21 142.3 132.15 143.58 132.33C144.86 132.51 146.13 132.95 147.38 133.66C148.27 134.16 149.05 134.73 149.72 135.37C150.39 136.01 150.96 136.68 151.42 137.41C151.88 138.13 152.23 138.89 152.46 139.67C152.7 140.45 152.83 141.25 152.84 142.06C152.86 142.87 152.76 143.68 152.56 144.48C152.35 145.29 152.04 146.07 151.6 146.83H151.61ZM150.21 146.03C150.6 145.34 150.76 144.62 150.69 143.88C150.62 143.14 150.36 142.4 149.9 141.67C149.45 140.94 148.82 140.23 148.02 139.52C147.22 138.82 146.28 138.16 145.21 137.55C144.15 136.95 143.13 136.49 142.15 136.17C141.17 135.86 140.26 135.69 139.42 135.69C138.59 135.69 137.84 135.85 137.19 136.18C136.53 136.51 136.01 137.02 135.62 137.71C135.22 138.41 135.05 139.12 135.1 139.85C135.15 140.58 135.39 141.3 135.82 142.02C136.25 142.74 136.85 143.43 137.62 144.12C138.39 144.8 139.31 145.44 140.37 146.05C141.44 146.66 142.49 147.14 143.5 147.47C144.51 147.8 145.44 147.98 146.3 148C147.16 148.02 147.93 147.87 148.6 147.55C149.27 147.23 149.81 146.73 150.21 146.03Z" fill="#FDFFFF"/>
<path d="M143.37 123.23L146 120.35L159.49 125.02L153.55 112.07L156.12 109.25L170.3 122.19L167.61 125.14L158.36 116.7L164.01 129.08L162.97 130.22L149.9 125.76L159.25 134.29L157.54 136.17L143.36 123.23H143.37Z" fill="#FDFFFF"/>
<path d="M161.86 104.54L166.43 101.15C167.17 100.6 167.92 100.19 168.7 99.89C169.48 99.6 170.24 99.46 170.98 99.47C171.72 99.48 172.43 99.66 173.1 100C173.77 100.34 174.38 100.87 174.91 101.59C175.45 102.32 175.79 103.05 175.92 103.79C176.05 104.53 176.04 105.25 175.87 105.94C175.7 106.63 175.4 107.28 174.97 107.87C174.54 108.47 174.03 108.98 173.43 109.42L171.54 110.83L176.54 117.56L173.31 119.96L161.87 104.54H161.86ZM170.5 109.43L171.55 108.65C171.92 108.38 172.18 108.06 172.33 107.71C172.49 107.35 172.55 106.97 172.53 106.57C172.51 106.17 172.42 105.76 172.25 105.34C172.08 104.92 171.85 104.52 171.57 104.14C171.23 103.68 170.86 103.31 170.48 103.04C170.1 102.77 169.71 102.59 169.33 102.49C168.95 102.39 168.57 102.38 168.2 102.46C167.83 102.53 167.49 102.69 167.17 102.92L166.2 103.64L170.49 109.43H170.5Z" fill="#FDFFFF"/>
<path d="M186.94 88.74L187.72 90.19L180.51 94.06L183.5 99.64L189.49 96.43L190.27 97.88L184.28 101.09L187.88 107.8L195.09 103.93L196.02 105.66L185.27 111.42L176.2 94.5L186.95 88.74H186.94Z" fill="#FDFFFF"/>
<path d="M191.73 86.63L194.16 85.81L206.88 94.39L202.97 82.83L205.34 82.03L211.58 100.49L209.95 101.04L196.06 91.51L200.29 104.01L197.88 104.82L191.73 86.63Z" fill="#FDFFFF"/>
<path d="M220.76 98.87C219.79 99.02 218.93 99.02 218.16 98.87C217.39 98.72 216.72 98.45 216.14 98.06C215.56 97.67 215.07 97.18 214.67 96.58C214.27 95.98 213.95 95.3 213.72 94.54L216.47 94.11C216.64 94.57 216.85 95 217.09 95.38C217.34 95.76 217.62 96.09 217.95 96.35C218.28 96.61 218.65 96.8 219.06 96.91C219.47 97.02 219.93 97.04 220.44 96.96C220.77 96.91 221.1 96.81 221.41 96.68C221.73 96.55 222 96.36 222.23 96.13C222.46 95.9 222.63 95.62 222.74 95.29C222.85 94.96 222.87 94.57 222.8 94.13C222.71 93.57 222.51 93.09 222.2 92.69C221.89 92.29 221.5 91.94 221.04 91.64C220.58 91.34 220.07 91.08 219.5 90.85C218.93 90.62 218.36 90.39 217.77 90.16C217.18 89.93 216.6 89.68 216.03 89.42C215.46 89.15 214.94 88.84 214.47 88.48C214 88.12 213.6 87.69 213.27 87.19C212.94 86.69 212.72 86.1 212.62 85.41C212.5 84.65 212.53 83.93 212.72 83.25C212.9 82.57 213.22 81.95 213.68 81.39C214.14 80.84 214.73 80.37 215.46 79.98C216.19 79.59 217.04 79.32 218.03 79.17C218.84 79.04 219.59 79.06 220.29 79.22C220.99 79.38 221.63 79.65 222.2 80.03C222.78 80.41 223.28 80.89 223.72 81.46C224.16 82.03 224.52 82.65 224.81 83.33L222.32 83.72C222.11 83.29 221.87 82.89 221.62 82.51C221.37 82.13 221.08 81.81 220.75 81.54C220.42 81.27 220.05 81.08 219.63 80.96C219.21 80.84 218.72 80.82 218.17 80.91C217.65 80.99 217.23 81.14 216.91 81.35C216.59 81.56 216.33 81.81 216.15 82.09C215.97 82.37 215.86 82.67 215.81 82.99C215.76 83.31 215.76 83.61 215.81 83.9C215.89 84.4 216.09 84.84 216.4 85.21C216.71 85.58 217.11 85.91 217.58 86.2C218.05 86.49 218.58 86.75 219.16 86.99C219.74 87.23 220.33 87.47 220.93 87.71C221.53 87.95 222.13 88.21 222.71 88.49C223.3 88.77 223.83 89.09 224.31 89.45C224.79 89.81 225.2 90.24 225.54 90.72C225.87 91.2 226.09 91.77 226.19 92.42C226.31 93.19 226.29 93.93 226.12 94.64C225.95 95.34 225.64 95.98 225.19 96.56C224.74 97.14 224.13 97.62 223.39 98.02C222.64 98.42 221.76 98.7 220.73 98.86L220.76 98.87Z" fill="#FDFFFF"/>
<path d="M237.9 77.84L245.24 97.56L241.15 97.49L239.19 92.22L232.85 92.12L230.62 97.32L227.9 97.28L236.17 77.81L237.9 77.84ZM233.63 90.35L238.54 90.43L236.22 84.19L233.63 90.35Z" fill="#FDFFFF"/>
<path d="M261.72 80.84L261.46 82.46L255.88 81.58L253.14 98.92L249.19 98.3L251.93 80.96L246.34 80.08L246.6 78.46L261.71 80.85L261.72 80.84Z" fill="#FDFFFF"/>
<path d="M266.06 82.15L269.9 83.25L264.62 101.71L260.78 100.61L266.06 82.15Z" fill="#FDFFFF"/>
<path d="M276.07 106.55C274.87 106 273.86 105.27 273.03 104.34C272.2 103.41 271.59 102.36 271.21 101.2C270.82 100.03 270.67 98.79 270.75 97.46C270.83 96.13 271.18 94.79 271.79 93.45C272.39 92.13 273.16 91.01 274.1 90.11C275.04 89.2 276.07 88.53 277.19 88.09C278.31 87.65 279.49 87.44 280.72 87.48C281.96 87.52 283.17 87.81 284.37 88.35C285.57 88.89 286.58 89.63 287.41 90.54C288.24 91.45 288.86 92.48 289.26 93.62C289.66 94.76 289.83 95.97 289.77 97.27C289.71 98.57 289.38 99.87 288.78 101.17C288.36 102.1 287.86 102.93 287.29 103.66C286.72 104.39 286.09 105.02 285.41 105.54C284.73 106.06 284.01 106.48 283.26 106.78C282.5 107.09 281.72 107.29 280.92 107.38C280.12 107.47 279.3 107.45 278.48 107.32C277.66 107.19 276.85 106.94 276.05 106.58L276.07 106.55ZM276.74 105.08C277.46 105.41 278.19 105.51 278.92 105.37C279.65 105.23 280.36 104.9 281.05 104.39C281.74 103.88 282.39 103.18 283.02 102.32C283.65 101.46 284.22 100.47 284.73 99.34C285.24 98.23 285.6 97.17 285.83 96.17C286.06 95.16 286.13 94.24 286.06 93.41C285.99 92.58 285.76 91.85 285.38 91.23C284.99 90.61 284.44 90.13 283.72 89.8C282.99 89.47 282.26 89.36 281.54 89.47C280.82 89.59 280.12 89.89 279.44 90.38C278.77 90.87 278.12 91.53 277.52 92.37C276.91 93.2 276.35 94.17 275.85 95.28C275.34 96.4 274.96 97.49 274.71 98.52C274.47 99.56 274.38 100.5 274.43 101.36C274.49 102.22 274.71 102.97 275.08 103.61C275.46 104.25 276.01 104.74 276.74 105.08Z" fill="#FDFFFF"/>
<path d="M298.46 96.18L300.53 97.69L300.89 113.03L308.06 103.15L310.09 104.62L298.64 120.39L297.25 119.38L296.99 102.53L289.24 113.21L287.19 111.72L298.47 96.18H298.46Z" fill="#FDFFFF"/>
<path d="M326.89 121.66L325.67 122.76L320.5 117.03L315.8 121.27L320.36 126.32L319.14 127.42L314.59 122.37L307.47 128.79L304.78 125.81L319.04 112.95L326.89 121.66Z" fill="#FDFFFF"/>
<path d="M330.05 125.7L332.21 129.08L321.81 135.74C321.19 136.14 320.66 136.59 320.22 137.11C319.78 137.63 319.45 138.17 319.24 138.74C319.03 139.31 318.94 139.89 318.98 140.48C319.02 141.07 319.22 141.64 319.57 142.18C319.91 142.71 320.34 143.12 320.86 143.4C321.37 143.68 321.94 143.84 322.54 143.88C323.14 143.92 323.77 143.85 324.43 143.66C325.08 143.47 325.72 143.18 326.34 142.79L336.74 136.13L338.1 138.26L327.7 144.92C326.87 145.45 326 145.84 325.1 146.08C324.2 146.32 323.31 146.36 322.43 146.2C321.55 146.04 320.68 145.67 319.84 145.07C319 144.47 318.22 143.61 317.49 142.48C316.84 141.47 316.44 140.48 316.27 139.5C316.1 138.52 316.13 137.59 316.36 136.71C316.59 135.83 316.99 135.02 317.57 134.27C318.15 133.52 318.86 132.88 319.7 132.34L330.06 125.7H330.05Z" fill="#FDFFFF"/>
<path d="M341.41 144.74L342.36 147.12L334.49 160.3L345.82 155.76L346.75 158.08L328.67 165.33L328.03 163.73L336.78 149.33L324.53 154.24L323.58 151.88L341.4 144.73L341.41 144.74Z" fill="#FDFFFF"/>
<path d="M348.91 165.2L350.01 171.02C350.29 172.52 350.35 173.93 350.17 175.26C349.99 176.59 349.6 177.79 348.98 178.84C348.36 179.9 347.53 180.78 346.47 181.5C345.41 182.22 344.15 182.72 342.68 183C341.35 183.25 340.07 183.27 338.82 183.07C337.58 182.86 336.44 182.44 335.41 181.78C334.38 181.13 333.51 180.26 332.78 179.16C332.05 178.06 331.55 176.75 331.25 175.21L330.03 168.76L348.9 165.19L348.91 165.2ZM332.72 172.34L333.12 174.43C333.27 175.2 333.57 175.9 334.03 176.52C334.49 177.14 335.1 177.64 335.84 178.03C336.59 178.42 337.46 178.67 338.46 178.79C339.46 178.91 340.58 178.85 341.8 178.62C342.86 178.42 343.81 178.09 344.66 177.64C345.51 177.19 346.22 176.65 346.78 176.03C347.34 175.41 347.75 174.72 347.99 173.96C348.24 173.2 348.28 172.41 348.12 171.59L347.72 169.5L332.69 172.34H332.72Z" fill="#FDFFFF"/>
</g>
<g filter="url(#filter2_d_12831_26763)">
<path d="M153.97 341.7C153.45 343.08 152.99 344.38 152.58 345.61C152.18 346.84 151.88 347.96 151.69 348.95H151.05C150.81 348.38 150.48 347.75 150.05 347.07C149.62 346.38 149.09 345.75 148.45 345.19C147.81 344.63 147.04 344.14 146.14 343.73C145.24 343.33 144.22 343.13 143.08 343.13C139.53 343.13 136.87 344.17 135.12 346.26C133.37 348.34 132.18 351.47 131.57 355.64H142.16C143.77 355.64 145.2 355.62 146.46 355.57C147.72 355.52 149.03 355.45 150.41 355.36C150.08 356.12 149.78 356.96 149.52 357.88C149.26 358.8 149.08 359.74 148.99 360.69C148.47 360.6 147.84 360.52 147.11 360.48C146.38 360.43 145.63 360.4 144.87 360.37C144.11 360.35 143.39 360.32 142.7 360.3C142.01 360.28 141.46 360.26 141.03 360.26H131.22C131.17 360.5 131.15 360.73 131.15 360.97V364.74H139.32C140.69 364.74 142.12 364.7 143.59 364.63C145.06 364.56 146.43 364.48 147.71 364.38C147.38 365.19 147.08 366.04 146.82 366.94C146.56 367.84 146.4 368.79 146.36 369.78C145.27 369.64 143.98 369.53 142.49 369.46C141 369.39 139.85 369.35 139.04 369.35H131.51C131.75 371.34 132.14 373.18 132.68 374.86C133.22 376.54 133.96 378.01 134.88 379.27C135.8 380.53 136.93 381.5 138.26 382.18C139.59 382.87 141.15 383.21 142.95 383.21C144.04 383.21 145.01 383.06 145.87 382.75C146.72 382.44 147.48 382.04 148.14 381.54C148.8 381.04 149.37 380.49 149.85 379.87C150.32 379.25 150.73 378.64 151.06 378.02L152.06 378.16C151.78 379.54 151.55 380.79 151.39 381.93C151.22 383.07 151.12 384.09 151.07 384.99C149.65 385.94 148.1 386.57 146.41 386.87C144.73 387.18 143.39 387.33 142.39 387.33C139.69 387.33 137.14 387.02 134.75 386.41C132.36 385.79 130.21 384.78 128.32 383.35C126.42 381.93 124.82 380.07 123.52 377.77C122.22 375.47 121.33 372.69 120.85 369.42C119.95 369.42 119.06 369.43 118.18 369.46C117.3 369.48 116.41 369.54 115.51 369.64C116.17 368.08 116.58 366.32 116.72 364.38C117.29 364.48 117.87 364.55 118.46 364.59C119.05 364.64 119.7 364.69 120.41 364.73V361.11C120.41 360.73 120.43 360.45 120.48 360.26C119.67 360.26 118.85 360.27 117.99 360.3C117.14 360.32 116.38 360.38 115.72 360.48C116.05 359.77 116.34 359.01 116.57 358.21C116.81 357.4 116.93 356.46 116.93 355.37C117.5 355.47 118.11 355.52 118.78 355.55C119.44 355.57 120.23 355.59 121.13 355.59H121.2C121.82 352.56 122.79 349.97 124.11 347.84C125.44 345.71 127.04 343.98 128.91 342.65C130.78 341.32 132.89 340.35 135.24 339.73C137.59 339.11 140.06 338.81 142.67 338.81C144.9 338.81 146.86 339.06 148.57 339.56C150.28 340.06 152.08 340.78 153.97 341.73V341.7Z" fill="#FDFFFF"/>
<path d="M165.19 374.58C167.75 371.76 169.83 369.1 171.44 366.58C173.05 364.07 174.21 361.65 174.92 359.33C175.63 357.01 175.99 354.69 175.99 352.36C175.99 350.42 175.79 348.8 175.39 347.49C174.99 346.19 174.44 345.13 173.76 344.33C173.07 343.53 172.3 342.94 171.45 342.59C170.6 342.23 169.72 342.06 168.82 342.06C167.49 342.06 166.39 342.43 165.51 343.16C164.63 343.9 163.93 344.8 163.41 345.86C162.89 346.93 162.53 348.05 162.34 349.24C162.15 350.43 162.06 351.49 162.06 352.44L161.35 352.65C160.4 351.75 159.48 350.93 158.58 350.2C157.68 349.47 156.75 348.72 155.81 347.96C156.66 345.4 158.3 343.25 160.71 341.49C163.13 339.74 166.42 338.86 170.59 338.86C173.86 338.86 176.57 339.24 178.73 340C180.89 340.76 182.59 341.74 183.85 342.95C185.1 344.16 185.98 345.49 186.48 346.93C186.98 348.38 187.23 349.79 187.23 351.16C187.23 352.72 186.95 354.35 186.38 356.03C185.81 357.71 184.78 359.61 183.29 361.72C181.8 363.83 179.74 366.21 177.11 368.86C174.48 371.51 171.1 374.59 166.98 378.1L167.05 378.24C170.46 378.19 173.81 378.15 177.11 378.1C180.4 378.05 183.76 377.91 187.17 377.67C187.12 378.48 187.06 379.25 186.99 379.98C186.92 380.71 186.88 381.48 186.88 382.29C186.88 383.1 186.92 383.88 186.99 384.64C187.06 385.4 187.12 386.11 187.17 386.77C184.47 386.67 181.82 386.63 179.21 386.63H163.57C161.01 386.63 158.45 386.68 155.89 386.77V383.78C159.54 380.46 162.64 377.39 165.2 374.57L165.19 374.58Z" fill="#FDFFFF"/>
<path d="M192.75 362.96C192.75 355.24 194.27 349.29 197.3 345.12C200.33 340.95 204.64 338.87 210.24 338.87C215.4 338.87 219.44 340.79 222.36 344.63C225.27 348.47 226.73 354.23 226.73 361.9C226.73 370.05 225.33 376.36 222.54 380.84C219.74 385.32 215.48 387.56 209.75 387.56C206.81 387.56 204.28 387 202.14 385.89C200.01 384.78 198.24 383.15 196.85 381.02C195.45 378.89 194.42 376.29 193.76 373.24C193.1 370.18 192.76 366.76 192.76 362.97L192.75 362.96ZM215.85 363.03C215.85 358.67 215.73 355.12 215.49 352.37C215.25 349.62 214.89 347.47 214.39 345.9C213.89 344.34 213.26 343.26 212.51 342.67C211.75 342.08 210.85 341.78 209.81 341.78C208.77 341.78 207.85 342.09 207.07 342.7C206.29 343.32 205.64 344.41 205.11 345.97C204.59 347.53 204.21 349.63 203.97 352.26C203.73 354.89 203.61 358.24 203.61 362.32C203.61 366.4 203.67 369.56 203.79 372.38C203.91 375.2 204.18 377.51 204.61 379.31C205.04 381.11 205.65 382.44 206.46 383.29C207.27 384.14 208.33 384.57 209.66 384.57C210.7 384.57 211.62 384.29 212.4 383.72C213.18 383.15 213.82 382.07 214.32 380.49C214.82 378.9 215.2 376.71 215.46 373.91C215.72 371.12 215.85 367.49 215.85 363.03Z" fill="#FDFFFF"/>
<path d="M231.13 382.08C231.13 380.47 231.7 379.09 232.84 377.96C233.98 376.83 235.35 376.25 236.96 376.25C238.57 376.25 239.95 376.82 241.08 377.96C242.22 379.1 242.79 380.47 242.79 382.08C242.79 383.69 242.22 385.03 241.08 386.1C239.94 387.17 238.57 387.7 236.96 387.7C235.35 387.7 233.97 387.17 232.84 386.1C231.7 385.03 231.13 383.7 231.13 382.08Z" fill="#FDFFFF"/>
<path d="M247.44 362.96C247.44 355.24 248.96 349.29 251.99 345.12C255.02 340.95 259.33 338.87 264.93 338.87C270.09 338.87 274.14 340.79 277.05 344.63C279.96 348.47 281.42 354.23 281.42 361.9C281.42 370.05 280.02 376.36 277.23 380.84C274.43 385.32 270.17 387.56 264.44 387.56C261.5 387.56 258.97 387 256.83 385.89C254.7 384.78 252.93 383.15 251.54 381.02C250.14 378.89 249.11 376.29 248.45 373.24C247.79 370.18 247.45 366.76 247.45 362.97L247.44 362.96ZM270.54 363.03C270.54 358.67 270.42 355.12 270.18 352.37C269.94 349.62 269.58 347.47 269.08 345.9C268.58 344.34 267.95 343.26 267.2 342.67C266.44 342.08 265.54 341.78 264.5 341.78C263.46 341.78 262.55 342.09 261.76 342.7C260.98 343.32 260.33 344.41 259.8 345.97C259.28 347.53 258.9 349.63 258.66 352.26C258.42 354.89 258.3 358.24 258.3 362.32C258.3 366.4 258.36 369.56 258.48 372.38C258.6 375.2 258.87 377.51 259.3 379.31C259.73 381.11 260.34 382.44 261.15 383.29C261.96 384.14 263.02 384.57 264.35 384.57C265.39 384.57 266.3 384.29 267.09 383.72C267.87 383.15 268.51 382.07 269.01 380.49C269.51 378.9 269.89 376.71 270.15 373.91C270.41 371.12 270.54 367.49 270.54 363.03Z" fill="#FDFFFF"/>
<path d="M286.57 362.96C286.57 355.24 288.09 349.29 291.12 345.12C294.15 340.95 298.46 338.87 304.06 338.87C309.22 338.87 313.27 340.79 316.18 344.63C319.09 348.47 320.55 354.23 320.55 361.9C320.55 370.05 319.15 376.36 316.36 380.84C313.56 385.32 309.3 387.56 303.57 387.56C300.63 387.56 298.1 387 295.96 385.89C293.83 384.78 292.06 383.15 290.67 381.02C289.27 378.89 288.24 376.29 287.58 373.24C286.92 370.18 286.58 366.76 286.58 362.97L286.57 362.96ZM309.67 363.03C309.67 358.67 309.55 355.12 309.31 352.37C309.07 349.62 308.71 347.47 308.21 345.9C307.71 344.34 307.08 343.26 306.33 342.67C305.57 342.08 304.67 341.78 303.63 341.78C302.59 341.78 301.68 342.09 300.89 342.7C300.11 343.32 299.46 344.41 298.93 345.97C298.41 347.53 298.03 349.63 297.79 352.26C297.55 354.89 297.43 358.24 297.43 362.32C297.43 366.4 297.49 369.56 297.61 372.38C297.73 375.2 298 377.51 298.43 379.31C298.86 381.11 299.47 382.44 300.28 383.29C301.09 384.14 302.15 384.57 303.48 384.57C304.52 384.57 305.43 384.29 306.22 383.72C307 383.15 307.64 382.07 308.14 380.49C308.64 378.9 309.02 376.71 309.28 373.91C309.54 371.12 309.67 367.49 309.67 363.03Z" fill="#FDFFFF"/>
<path d="M325.71 362.96C325.71 355.24 327.23 349.29 330.26 345.12C333.29 340.95 337.6 338.87 343.2 338.87C348.36 338.87 352.41 340.79 355.32 344.63C358.23 348.47 359.69 354.23 359.69 361.9C359.69 370.05 358.29 376.36 355.5 380.84C352.7 385.32 348.44 387.56 342.71 387.56C339.77 387.56 337.24 387 335.1 385.89C332.97 384.78 331.2 383.15 329.81 381.02C328.41 378.89 327.38 376.29 326.72 373.24C326.06 370.18 325.72 366.76 325.72 362.97L325.71 362.96ZM348.81 363.03C348.81 358.67 348.69 355.12 348.45 352.37C348.21 349.62 347.85 347.47 347.35 345.9C346.85 344.34 346.22 343.26 345.47 342.67C344.71 342.08 343.81 341.78 342.77 341.78C341.73 341.78 340.82 342.09 340.03 342.7C339.25 343.32 338.6 344.41 338.07 345.97C337.55 347.53 337.17 349.63 336.93 352.26C336.69 354.89 336.57 358.24 336.57 362.32C336.57 366.4 336.63 369.56 336.75 372.38C336.87 375.2 337.14 377.51 337.57 379.31C338 381.11 338.61 382.44 339.42 383.29C340.23 384.14 341.29 384.57 342.62 384.57C343.66 384.57 344.57 384.29 345.36 383.72C346.14 383.15 346.78 382.07 347.28 380.49C347.78 378.9 348.16 376.71 348.42 373.91C348.68 371.12 348.81 367.49 348.81 363.03Z" fill="#FDFFFF"/>
</g>
<g filter="url(#filter3_i_12831_26763)">
<path d="M189.57 168.74V174.96H282.18V168.74H189.57ZM199.92 173.98C198.75 173.98 197.79 173.02 197.79 171.85C197.79 170.68 198.75 169.72 199.92 169.72C201.09 169.72 202.05 170.68 202.05 171.85C202.05 173.02 201.09 173.98 199.92 173.98ZM223.89 173.98C222.71 173.98 221.76 173.02 221.76 171.85C221.76 170.68 222.71 169.72 223.89 169.72C225.07 169.72 226.01 170.68 226.01 171.85C226.01 173.02 225.06 173.98 223.89 173.98ZM247.86 173.98C246.68 173.98 245.73 173.02 245.73 171.85C245.73 170.68 246.68 169.72 247.86 169.72C249.04 169.72 249.98 170.68 249.98 171.85C249.98 173.02 249.03 173.98 247.86 173.98ZM271.83 173.98C270.65 173.98 269.7 173.02 269.7 171.85C269.7 170.68 270.65 169.72 271.83 169.72C273.01 169.72 273.95 170.68 273.95 171.85C273.95 173.02 273 173.98 271.83 173.98Z" fill="#187371"/>
<path d="M284.34 165.73H187.4V167.99H284.34V165.73Z" fill="#187371"/>
<path d="M290.23 235.5H181.51V238.65H290.23V235.5Z" fill="#187371"/>
<path d="M285.02 231.35H186.71V234.5H285.02V231.35Z" fill="#187371"/>
<path d="M182.41 164.6H289.33L235.87 139.75L182.41 164.6Z" fill="#187371"/>
<path d="M208.74 176.46H191.09V178.08L193.49 181.12L192.93 227.01H195.79V181.07H196.99V227.01H199.32V181.07H200.52V227.01H202.85V181.07H204.05V227.01H206.48L205.92 181.12L208.74 178.08V176.46Z" fill="#187371"/>
<path d="M192.29 227.39L191.09 229.23V230.86H208.74V229.23L207.73 227.39H192.29Z" fill="#187371"/>
<path d="M232.71 176.46H215.06V178.08L217.46 181.12L216.9 227.01H219.76V181.07H220.96V227.01H223.29V181.07H224.49V227.01H226.82V181.07H228.02V227.01H230.44L229.89 181.12L232.71 178.08V176.46Z" fill="#187371"/>
<path d="M216.26 227.39L215.06 229.23V230.86H232.71V229.23L231.7 227.39H216.26Z" fill="#187371"/>
<path d="M256.68 176.46H239.03V178.08L241.43 181.12L240.87 227.01H243.73V181.07H244.93V227.01H247.25V181.07H248.45V227.01H250.78V181.07H251.98V227.01H254.41L253.85 181.12L256.68 178.08V176.46Z" fill="#187371"/>
<path d="M240.22 227.39L239.03 229.23V230.86H256.68V229.23L255.66 227.39H240.22Z" fill="#187371"/>
<path d="M280.65 176.46H263V178.08L265.4 181.12L264.84 227.01H267.69V181.07H268.89V227.01H271.22V181.07H272.42V227.01H274.75V181.07H275.95V227.01H278.38L277.82 181.12L280.65 178.08V176.46Z" fill="#187371"/>
<path d="M264.19 227.39L263 229.23V230.86H280.65V229.23L279.63 227.39H264.19Z" fill="#187371"/>
</g>
</g>
<defs>
<filter id="filter0_d_12831_26763" x="154.15" y="116.05" width="163.44" height="164.44" filterUnits="userSpaceOnUse" color-interpolation-filters="sRGB">
<feFlood flood-opacity="0" result="BackgroundImageFix"/>
<feColorMatrix in="SourceAlpha" type="matrix" values="0 0 0 0 0 0 0 0 0 0 0 0 0 0 0 0 0 0 127 0" result="hardAlpha"/>
<feOffset dy="4"/>
<feGaussianBlur stdDeviation="1.5"/>
<feComposite in2="hardAlpha" operator="out"/>
<feColorMatrix type="matrix" values="0 0 0 0 0.0352941 0 0 0 0 0.270588 0 0 0 0 0.341176 0 0 0 0.78 0"/>
<feBlend mode="normal" in2="BackgroundImageFix" result="effect1_dropShadow_12831_26763"/>
<feBlend mode="normal" in="SourceGraphic" in2="effect1_dropShadow_12831_26763" result="shape"/>
</filter>
<filter id="filter1_d_12831_26763" x="114.391" y="69.81" width="245.881" height="125.395" filterUnits="userSpaceOnUse" color-interpolation-filters="sRGB">
<feFlood flood-opacity="0" result="BackgroundImageFix"/>
<feColorMatrix in="SourceAlpha" type="matrix" values="0 0 0 0 0 0 0 0 0 0 0 0 0 0 0 0 0 0 127 0" result="hardAlpha"/>
<feOffset dy="2"/>
<feGaussianBlur stdDeviation="5"/>
<feComposite in2="hardAlpha" operator="out"/>
<feColorMatrix type="matrix" values="0 0 0 0 0.0352941 0 0 0 0 0.270588 0 0 0 0 0.341176 0 0 0 0.78 0"/>
<feBlend mode="normal" in2="BackgroundImageFix" result="effect1_dropShadow_12831_26763"/>
<feBlend mode="normal" in="SourceGraphic" in2="effect1_dropShadow_12831_26763" result="shape"/>
</filter>
<filter id="filter2_d_12831_26763" x="112.51" y="338.81" width="250.18" height="55.8899" filterUnits="userSpaceOnUse" color-interpolation-filters="sRGB">
<feFlood flood-opacity="0" result="BackgroundImageFix"/>
<feColorMatrix in="SourceAlpha" type="matrix" values="0 0 0 0 0 0 0 0 0 0 0 0 0 0 0 0 0 0 127 0" result="hardAlpha"/>
<feOffset dy="4"/>
<feGaussianBlur stdDeviation="1.5"/>
<feComposite in2="hardAlpha" operator="out"/>
<feColorMatrix type="matrix" values="0 0 0 0 0.0352941 0 0 0 0 0.270588 0 0 0 0 0.341176 0 0 0 0.78 0"/>
<feBlend mode="normal" in2="BackgroundImageFix" result="effect1_dropShadow_12831_26763"/>
<feBlend mode="normal" in="SourceGraphic" in2="effect1_dropShadow_12831_26763" result="shape"/>
</filter>
<filter id="filter3_i_12831_26763" x="181.51" y="139.75" width="108.72" height="102.9" filterUnits="userSpaceOnUse" color-interpolation-filters="sRGB">
<feFlood flood-opacity="0" result="BackgroundImageFix"/>
<feBlend mode="normal" in="SourceGraphic" in2="BackgroundImageFix" result="shape"/>
<feColorMatrix in="SourceAlpha" type="matrix" values="0 0 0 0 0 0 0 0 0 0 0 0 0 0 0 0 0 0 127 0" result="hardAlpha"/>
<feOffset dy="4"/>
<feGaussianBlur stdDeviation="6.5"/>
<feComposite in2="hardAlpha" operator="arithmetic" k2="-1" k3="1"/>
<feColorMatrix type="matrix" values="0 0 0 0 0.0313726 0 0 0 0 0.266667 0 0 0 0 0.282353 0 0 0 1 0"/>
<feBlend mode="normal" in2="shape" result="effect1_innerShadow_12831_26763"/>
</filter>
<radialGradient id="paint0_radial_12831_26763" cx="0" cy="0" r="1" gradientUnits="userSpaceOnUse" gradientTransform="translate(235 30) rotate(89.4662) scale(322.014 247.739)">
<stop stop-color="#2B9991"/>
<stop offset="1" stop-color="#0B4D57"/>
</radialGradient>
<linearGradient id="paint1_linear_12831_26763" x1="143" y1="408" x2="5" y2="408" gradientUnits="userSpaceOnUse">
<stop stop-color="#012832"/>
<stop offset="1" stop-color="#146980"/>
</linearGradient>
<linearGradient id="paint2_linear_12831_26763" x1="72.4999" y1="412.5" x2="143" y2="414.5" gradientUnits="userSpaceOnUse">
<stop stop-color="#084353"/>
<stop offset="1" stop-color="#0C5064"/>
</linearGradient>
<linearGradient id="paint3_linear_12831_26763" x1="339.5" y1="388" x2="472" y2="386" gradientUnits="userSpaceOnUse">
<stop stop-color="#012832"/>
<stop offset="1" stop-color="#146980"/>
</linearGradient>
<linearGradient id="paint4_linear_12831_26763" x1="404.5" y1="409" x2="335" y2="409" gradientUnits="userSpaceOnUse">
<stop stop-color="#084353"/>
<stop offset="1" stop-color="#0C5064"/>
</linearGradient>
<radialGradient id="paint5_radial_12831_26763" cx="0" cy="0" r="1" gradientUnits="userSpaceOnUse" gradientTransform="translate(239 324.5) rotate(90) scale(88.5 215.406)">
<stop stop-color="#5CD7EC"/>
<stop offset="1" stop-color="#13647A"/>
</radialGradient>
<clipPath id="clip0_12831_26763">
<rect width="477.74" height="496" fill="white"/>
</clipPath>
</defs>
</svg>
