<svg width="478" height="496" viewBox="0 0 478 496" fill="none" xmlns="http://www.w3.org/2000/svg">
<g clip-path="url(#clip0_12831_26834)">
<path d="M427.04 90.42C427.04 90.42 321.85 54.71 234.96 0C148.07 54.71 42.88 90.42 42.88 90.42C22.5501 323.08 234.96 496 234.96 496C234.96 496 447.37 323.08 427.04 90.42Z" fill="#191E4D"/>
<path d="M404.787 103.119C404.787 103.119 311.806 71.077 235 22C158.194 71.0874 65.2126 103.119 65.2126 103.119C47.2397 311.855 235 467 235 467C235 467 422.76 311.855 404.787 103.119Z" fill="url(#paint0_radial_12831_26834)"/>
<path d="M138 392L328 395.273L311.379 416H158.349L138 392Z" fill="#0E1344" fill-opacity="0.5"/>
<g filter="url(#filter0_d_12831_26834)">
<path d="M235.87 253.49C279.346 253.49 314.59 218.246 314.59 174.77C314.59 131.294 279.346 96.05 235.87 96.05C192.394 96.05 157.15 131.294 157.15 174.77C157.15 218.246 192.394 253.49 235.87 253.49Z" fill="#FDFFFF"/>
</g>
<path d="M84.44 342.739H0L30.79 380.419L0 419.05H143.17L84.44 342.739Z" fill="url(#paint1_linear_12831_26834)"/>
<path d="M143.17 388.03V419.05L48.3 403.296L143.17 388.03Z" fill="url(#paint2_linear_12831_26834)"/>
<path d="M393.3 342.739H477.74L446.95 380.419L477.74 419.05H334.57L393.3 342.739Z" fill="url(#paint3_linear_12831_26834)"/>
<path d="M334.57 388.03V419.05L429.44 403.296L334.57 388.03Z" fill="url(#paint4_linear_12831_26834)"/>
<path d="M48.3 326H429.47V403.296H48.3L48.3 326Z" fill="url(#paint5_radial_12831_26834)"/>
<g filter="url(#filter1_i_12831_26834)">
<path d="M189.57 148.74V154.96H282.18V148.74H189.57ZM199.92 153.98C198.75 153.98 197.79 153.02 197.79 151.85C197.79 150.68 198.75 149.72 199.92 149.72C201.09 149.72 202.05 150.68 202.05 151.85C202.05 153.02 201.09 153.98 199.92 153.98ZM223.89 153.98C222.71 153.98 221.76 153.02 221.76 151.85C221.76 150.68 222.71 149.72 223.89 149.72C225.07 149.72 226.01 150.68 226.01 151.85C226.01 153.02 225.06 153.98 223.89 153.98ZM247.86 153.98C246.68 153.98 245.73 153.02 245.73 151.85C245.73 150.68 246.68 149.72 247.86 149.72C249.04 149.72 249.98 150.68 249.98 151.85C249.98 153.02 249.03 153.98 247.86 153.98ZM271.83 153.98C270.65 153.98 269.7 153.02 269.7 151.85C269.7 150.68 270.65 149.72 271.83 149.72C273.01 149.72 273.95 150.68 273.95 151.85C273.95 153.02 273 153.98 271.83 153.98Z" fill="#272E6B"/>
<path d="M284.34 145.73H187.4V147.99H284.34V145.73Z" fill="#272E6B"/>
<path d="M290.23 215.5H181.51V218.65H290.23V215.5Z" fill="#272E6B"/>
<path d="M285.02 211.35H186.71V214.5H285.02V211.35Z" fill="#272E6B"/>
<path d="M182.41 144.6H289.33L235.87 119.75L182.41 144.6Z" fill="#272E6B"/>
<path d="M208.74 156.46H191.09V158.08L193.49 161.12L192.93 207.01H195.79V161.07H196.99V207.01H199.32V161.07H200.52V207.01H202.85V161.07H204.05V207.01H206.48L205.92 161.12L208.74 158.08V156.46Z" fill="#272E6B"/>
<path d="M192.29 207.39L191.09 209.23V210.86H208.74V209.23L207.73 207.39H192.29Z" fill="#272E6B"/>
<path d="M232.71 156.46H215.06V158.08L217.46 161.12L216.9 207.01H219.76V161.07H220.96V207.01H223.29V161.07H224.49V207.01H226.82V161.07H228.02V207.01H230.44L229.89 161.12L232.71 158.08V156.46Z" fill="#272E6B"/>
<path d="M216.26 207.39L215.06 209.23V210.86H232.71V209.23L231.7 207.39H216.26Z" fill="#272E6B"/>
<path d="M256.68 156.46H239.03V158.08L241.43 161.12L240.87 207.01H243.73V161.07H244.93V207.01H247.25V161.07H248.45V207.01H250.78V161.07H251.98V207.01H254.41L253.85 161.12L256.68 158.08V156.46Z" fill="#272E6B"/>
<path d="M240.22 207.39L239.03 209.23V210.86H256.68V209.23L255.66 207.39H240.22Z" fill="#272E6B"/>
<path d="M280.65 156.46H263V158.08L265.4 161.12L264.84 207.01H267.69V161.07H268.89V207.01H271.22V161.07H272.42V207.01H274.75V161.07H275.95V207.01H278.38L277.82 161.12L280.65 158.08V156.46Z" fill="#272E6B"/>
<path d="M264.19 207.39L263 209.23V210.86H280.65V209.23L279.63 207.39H264.19Z" fill="#272E6B"/>
</g>
<path d="M122.166 145.59L123.772 145.921L122.219 153.48L128.424 154.758L129.793 148.092L131.399 148.423L130.03 155.089L139.417 157.018L138.608 160.944L119.804 157.075L122.166 145.59Z" fill="#FDFFFF"/>
<path d="M123.436 141.736L124.657 137.934L142.927 143.832L141.706 147.635L123.436 141.736Z" fill="#FDFFFF"/>
<path d="M126.65 132.006L127.748 129.696L142.773 126.552L131.756 121.302L132.835 119.042L150.42 127.423L149.679 128.977L133.156 132.298L145.071 137.982L143.983 140.273L126.65 132.006Z" fill="#FDFFFF"/>
<path d="M140.58 106.589L160.958 111.819L158.568 115.143L153.122 113.742L149.415 118.89L152.413 123.687L150.823 125.896L139.555 107.998L140.57 106.589L140.58 106.589ZM148.415 117.238L151.283 113.255L144.832 111.602L148.415 117.248L148.415 117.238Z" fill="#FDFFFF"/>
<path d="M148.745 96.9089L150.583 95.1252L165.757 97.4197L157.267 88.6526L159.065 86.9096L172.622 100.905L171.384 102.108L154.743 99.4603L163.926 108.935L162.098 110.698L148.735 96.9091L148.745 96.9089Z" fill="#FDFFFF"/>
<path d="M173.004 88.3564C173.693 89.3941 174.428 90.2308 175.219 90.8465C176.011 91.4623 176.809 91.8978 177.604 92.1534C178.398 92.399 179.18 92.4748 179.938 92.381C180.697 92.2872 181.392 92.0245 182.015 91.6131C182.489 91.3045 182.872 90.9074 183.153 90.4422C183.435 89.977 183.656 89.4629 183.795 88.8903C183.935 88.3277 184.024 87.716 184.052 87.0753C184.081 86.4347 184.079 85.7746 184.057 85.1049L186.252 85.3951C186.326 86.1638 186.32 86.9441 186.245 87.7556C186.17 88.5671 185.994 89.3404 185.728 90.0954C185.461 90.8503 185.094 91.5471 184.636 92.1956C184.167 92.8442 183.587 93.4048 182.896 93.8575C181.719 94.629 180.508 95.1411 179.253 95.384C177.997 95.6368 176.777 95.629 175.572 95.3609C174.367 95.1028 173.227 94.5834 172.153 93.8228C171.069 93.0624 170.12 92.0395 169.287 90.7844C168.485 89.5588 167.932 88.3086 167.639 87.0337C167.346 85.7589 167.303 84.5194 167.511 83.3154C167.719 82.1115 168.159 80.9833 168.86 79.9304C169.551 78.8776 170.484 77.9605 171.661 77.189C172.441 76.6747 173.235 76.3102 174.031 76.0957C174.827 75.8812 175.616 75.7969 176.397 75.8327C177.177 75.8685 177.96 76.0143 178.725 76.2704C179.49 76.5265 180.246 76.8728 180.994 77.2993L180.352 79.3813C179.747 79.0923 179.132 78.8434 178.518 78.6346C177.894 78.4359 177.292 78.2968 176.7 78.2275C176.109 78.1583 175.539 78.1686 174.991 78.2586C174.442 78.3486 173.946 78.5477 173.491 78.846C172.868 79.2574 172.358 79.7867 171.98 80.4337C171.591 81.0809 171.365 81.8151 171.29 82.6366C171.214 83.4581 171.321 84.3564 171.578 85.3118C171.846 86.2771 172.324 87.2786 173.013 88.3162L173.004 88.3564Z" fill="#FDFFFF"/>
<path d="M183.134 71.1994L186.743 69.4835L194.999 86.8163L191.39 88.5322L183.134 71.1994Z" fill="#FDFFFF"/>
<path d="M199.568 64.1395L212.936 80.3891L209.048 81.66L205.478 77.3142L199.453 79.284L199.046 84.9324L196.461 85.7795L197.937 64.6792L199.588 64.1391L199.568 64.1395ZM199.608 77.3509L204.271 75.8259L200.047 70.6818L199.608 77.3509Z" fill="#FDFFFF"/>
<path d="M211.648 61.2894L215.608 60.6773L218.248 77.7021L226.476 76.4223L226.781 78.367L214.594 80.2589L211.648 61.2894Z" fill="#FDFFFF"/>
<path d="M237.615 68.6085C237.538 69.8501 237.638 70.9584 237.896 71.9339C238.164 72.9092 238.539 73.7325 239.021 74.4039C239.514 75.085 240.093 75.6046 240.76 75.9825C241.427 76.3604 242.131 76.5677 242.882 76.614C243.453 76.6437 243.991 76.5639 244.498 76.3646C245.004 76.1654 245.489 75.8765 245.932 75.5084C246.386 75.1401 246.818 74.7022 247.219 74.2148C247.62 73.7274 248.021 73.19 248.401 72.643L249.979 74.1846C249.581 74.8419 249.102 75.4707 248.553 76.0708C248.004 76.6709 247.403 77.1919 246.741 77.634C246.079 78.0761 245.365 78.4192 244.609 78.663C243.854 78.9067 243.045 79.0015 242.214 78.9466C240.812 78.862 239.536 78.5452 238.386 77.986C237.236 77.4368 236.252 76.6946 235.455 75.7689C234.658 74.8432 234.048 73.7442 233.645 72.4913C233.242 71.2284 233.077 69.8512 233.17 68.3392C233.263 66.8773 233.569 65.5515 234.098 64.3517C234.626 63.1519 235.337 62.1388 236.212 61.2928C237.097 60.4565 238.126 59.8177 239.318 59.386C240.5 58.9544 241.798 58.7808 243.199 58.8653C244.14 58.9182 244.984 59.1029 245.75 59.409C246.505 59.7154 247.193 60.1129 247.802 60.6119C248.411 61.1109 248.942 61.6914 249.404 62.3531C249.866 63.0148 250.269 63.7476 250.604 64.5316L248.837 65.814C248.526 65.2195 248.185 64.6556 247.816 64.1223C247.446 63.5889 247.037 63.1163 246.61 62.704C246.172 62.2918 245.716 61.9601 245.221 61.709C244.727 61.458 244.214 61.3173 243.673 61.2771C242.932 61.2306 242.204 61.3538 241.51 61.6465C240.815 61.9392 240.193 62.3906 239.634 63.0008C239.085 63.6109 238.629 64.3893 238.266 65.3261C237.903 66.2628 237.683 67.347 237.605 68.5886L237.615 68.6085Z" fill="#FDFFFF"/>
<path d="M260.062 81.9626C258.786 81.6257 257.665 81.066 256.701 80.2834C255.727 79.511 254.96 78.5748 254.38 77.4851C253.81 76.3953 253.448 75.1917 253.304 73.8741C253.16 72.5565 253.285 71.174 253.669 69.7468C254.043 68.3397 254.621 67.119 255.392 66.0648C256.163 65.0106 257.068 64.1841 258.097 63.5552C259.126 62.9264 260.259 62.5358 261.476 62.3636C262.703 62.1913 263.945 62.2787 265.221 62.6156C266.497 62.9524 267.618 63.5021 268.582 64.2647C269.556 65.0272 270.332 65.9332 270.922 66.9926C271.511 68.0521 271.882 69.2156 272.036 70.503C272.189 71.7904 272.083 73.1225 271.708 74.5096C271.446 75.4945 271.093 76.3911 270.647 77.2093C270.202 78.0276 269.695 78.7469 269.106 79.3677C268.528 79.9983 267.887 80.5201 267.185 80.9529C266.493 81.3856 265.748 81.7091 264.972 81.9333C264.196 82.1574 263.388 82.2721 262.558 82.2772C261.728 82.2923 260.886 82.1776 260.042 81.9529L260.062 81.9626ZM260.474 80.4048C261.238 80.611 261.977 80.5875 262.673 80.3248C263.368 80.0621 264.02 79.6302 264.609 78.9994C265.198 78.3686 265.733 77.5887 266.206 76.63C266.679 75.6812 267.079 74.6038 267.398 73.4078C267.706 72.232 267.896 71.1283 267.948 70.0972C267.999 69.0661 267.922 68.1474 267.717 67.341C267.513 66.5345 267.16 65.8508 266.68 65.3095C266.2 64.7581 265.573 64.3795 264.799 64.1735C264.025 63.9675 263.286 63.981 262.6 64.2135C261.904 64.4462 261.271 64.8677 260.682 65.4586C260.103 66.0592 259.577 66.8189 259.113 67.7375C258.65 68.656 258.259 69.7133 257.95 70.8891C257.632 72.0851 257.442 73.2087 257.372 74.2702C257.301 75.3317 257.368 76.2806 257.573 77.117C257.779 77.9534 258.112 78.6575 258.592 79.2288C259.073 79.8002 259.7 80.1889 260.474 80.3948L260.474 80.4048Z" fill="#FDFFFF"/>
<path d="M280.539 67.8879L283.993 69.6954L282.921 83.9273L293.929 74.8857L297.312 76.6545L288.42 93.6689L284.875 91.8131L290.674 80.7158L280.149 89.3386L278.786 88.6232L279.766 74.8531L273.899 86.0717L271.647 84.8924L280.539 67.8779L280.539 67.8879Z" fill="#FDFFFF"/>
<path d="M302.595 80.6491L305.809 83.021L294.398 98.461L291.184 96.0891L302.595 80.6491Z" fill="#FDFFFF"/>
<path d="M301.262 104.687C300.55 104.02 300.017 103.34 299.664 102.636C299.312 101.942 299.109 101.246 299.056 100.547C299.004 99.8475 299.091 99.1558 299.319 98.4716C299.546 97.7873 299.884 97.1211 300.332 96.4628L302.367 98.3661C302.105 98.781 301.902 99.2047 301.75 99.6375C301.598 100.07 301.526 100.492 301.523 100.912C301.531 101.332 301.598 101.741 301.765 102.128C301.933 102.515 302.199 102.89 302.576 103.243C302.82 103.469 303.094 103.674 303.397 103.838C303.7 104.003 304.012 104.107 304.343 104.141C304.663 104.185 304.993 104.139 305.321 104.033C305.649 103.917 305.965 103.692 306.279 103.366C306.671 102.949 306.923 102.494 307.044 102.002C307.165 101.509 307.206 100.989 307.156 100.439C307.106 99.8902 306.996 99.3321 306.825 98.7451C306.654 98.1581 306.483 97.5712 306.302 96.9643C306.121 96.3575 305.96 95.7504 305.819 95.1428C305.678 94.5353 305.607 93.9265 305.596 93.3366C305.586 92.7467 305.685 92.1648 305.875 91.6012C306.065 91.0377 306.395 90.4916 306.876 89.9828C307.395 89.4232 307.988 89.0024 308.633 88.7306C309.278 88.4488 309.966 88.3263 310.686 88.3432C311.407 88.3601 312.14 88.5368 312.896 88.8731C313.653 89.2094 314.392 89.7161 315.114 90.393C315.715 90.9522 316.166 91.5541 316.467 92.1987C316.769 92.8434 316.952 93.5202 317.004 94.2093C317.057 94.8985 316.989 95.5898 316.822 96.283C316.644 96.9763 316.377 97.6513 316.028 98.2977L314.197 96.5808C314.399 96.147 314.571 95.7238 314.713 95.2812C314.855 94.8385 314.927 94.4171 314.94 93.9968C314.942 93.5767 314.865 93.168 314.697 92.751C314.53 92.344 314.243 91.9492 313.835 91.5665C313.459 91.2133 313.075 90.9702 312.712 90.8368C312.34 90.7135 311.989 90.6599 311.659 90.6959C311.33 90.7319 311.022 90.8275 310.744 90.9826C310.467 91.1377 310.22 91.3222 310.024 91.5358C309.681 91.9121 309.459 92.3362 309.357 92.8081C309.256 93.29 309.245 93.8003 309.305 94.3493C309.365 94.8983 309.486 95.4762 309.657 96.0832C309.828 96.6902 309.999 97.2972 310.18 97.924C310.362 98.5508 310.523 99.178 310.665 99.8055C310.806 100.433 310.888 101.062 310.899 101.662C310.909 102.261 310.83 102.853 310.65 103.416C310.481 103.98 310.16 104.495 309.709 104.984C309.169 105.554 308.577 105.994 307.922 106.296C307.268 106.598 306.57 106.751 305.84 106.744C305.11 106.738 304.357 106.571 303.58 106.225C302.804 105.889 302.034 105.363 301.271 104.647L301.262 104.687Z" fill="#FDFFFF"/>
<path d="M311.271 115.567C310.667 114.798 310.244 114.046 310 113.3C309.756 112.554 309.663 111.836 309.711 111.145C309.768 110.454 309.956 109.78 310.284 109.134C310.613 108.488 311.052 107.88 311.591 107.31L313.311 109.499C312.988 109.875 312.725 110.26 312.512 110.664C312.3 111.068 312.157 111.48 312.095 111.892C312.032 112.303 312.05 112.722 312.147 113.131C312.255 113.549 312.462 113.955 312.78 114.359C312.985 114.626 313.229 114.861 313.503 115.066C313.776 115.271 314.069 115.426 314.391 115.51C314.702 115.595 315.033 115.609 315.372 115.543C315.71 115.476 316.058 115.31 316.412 115.024C316.856 114.675 317.179 114.259 317.37 113.796C317.562 113.332 317.683 112.82 317.713 112.269C317.743 111.719 317.722 111.149 317.641 110.55C317.56 109.952 317.479 109.333 317.388 108.715C317.296 108.086 317.235 107.467 317.184 106.838C317.132 106.209 317.161 105.608 317.241 105.017C317.32 104.425 317.5 103.872 317.78 103.337C318.05 102.802 318.462 102.324 319.014 101.894C319.616 101.423 320.26 101.091 320.947 100.919C321.634 100.746 322.323 100.714 323.036 100.841C323.748 100.968 324.443 101.255 325.132 101.703C325.82 102.15 326.481 102.758 327.095 103.547C327.607 104.188 327.959 104.852 328.162 105.538C328.364 106.225 328.447 106.913 328.389 107.605C328.332 108.296 328.174 108.969 327.896 109.624C327.618 110.279 327.249 110.906 326.8 111.494L325.244 109.522C325.507 109.127 325.749 108.723 325.952 108.319C326.155 107.915 326.297 107.503 326.37 107.091C326.442 106.68 326.425 106.26 326.317 105.832C326.209 105.404 325.991 104.968 325.643 104.534C325.316 104.12 324.98 103.826 324.637 103.652C324.294 103.468 323.952 103.375 323.622 103.361C323.291 103.347 322.972 103.392 322.674 103.508C322.376 103.623 322.109 103.768 321.882 103.952C321.478 104.27 321.195 104.655 321.033 105.118C320.861 105.581 320.771 106.083 320.751 106.633C320.731 107.184 320.761 107.773 320.833 108.402C320.914 109.021 320.986 109.659 321.077 110.298C321.159 110.937 321.231 111.585 321.272 112.235C321.314 112.884 321.296 113.504 321.226 114.106C321.147 114.707 320.978 115.271 320.717 115.795C320.457 116.32 320.075 116.797 319.552 117.197C318.941 117.678 318.277 118.02 317.591 118.223C316.894 118.425 316.185 118.468 315.463 118.351C314.74 118.234 314.025 117.947 313.307 117.5C312.588 117.043 311.907 116.416 311.262 115.597L311.271 115.567Z" fill="#FDFFFF"/>
<path d="M333.39 113.085L335.482 116.487L319.112 126.516L317.02 123.114L333.39 113.085Z" fill="#FDFFFF"/>
<path d="M324.194 137.606C323.672 136.395 323.43 135.169 323.437 133.929C323.455 132.688 323.703 131.504 324.213 130.384C324.713 129.265 325.444 128.242 326.397 127.314C327.351 126.387 328.507 125.635 329.877 125.05C331.217 124.476 332.531 124.172 333.841 124.138C335.141 124.105 336.354 124.292 337.482 124.722C338.61 125.152 339.612 125.794 340.508 126.647C341.394 127.511 342.102 128.539 342.614 129.75C343.137 130.96 343.389 132.186 343.391 133.416C343.394 134.646 343.155 135.821 342.685 136.939C342.215 138.048 341.524 139.061 340.6 139.978C339.677 140.895 338.56 141.635 337.24 142.199C336.307 142.596 335.372 142.873 334.465 143.03C333.547 143.187 332.668 143.223 331.816 143.158C330.965 143.084 330.152 142.908 329.386 142.622C328.621 142.336 327.904 141.959 327.255 141.481C326.596 141.003 326.016 140.443 325.494 139.792C324.972 139.142 324.549 138.409 324.204 137.606L324.194 137.606ZM325.683 136.969C325.996 137.703 326.467 138.265 327.104 138.653C327.741 139.042 328.485 139.278 329.337 139.363C330.189 139.447 331.138 139.38 332.184 139.161C333.23 138.952 334.314 138.602 335.455 138.111C336.577 137.631 337.557 137.103 338.407 136.507C339.256 135.912 339.925 135.289 340.433 134.63C340.941 133.971 341.258 133.275 341.395 132.552C341.532 131.83 341.439 131.111 341.126 130.377C340.812 129.642 340.352 129.071 339.734 128.672C339.127 128.273 338.402 128.026 337.571 127.931C336.739 127.836 335.82 127.893 334.813 128.101C333.807 128.309 332.733 128.649 331.621 129.129C330.48 129.61 329.48 130.158 328.6 130.755C327.721 131.361 327.013 131.994 326.485 132.663C325.957 133.333 325.61 134.039 325.453 134.762C325.296 135.485 325.379 136.224 325.693 136.968L325.683 136.969Z" fill="#FDFFFF"/>
<path d="M347.659 144.78L348.184 147.291L338.123 158.886L350.08 156.408L350.585 158.859L331.504 162.817L331.153 161.133L342.295 148.488L329.372 151.174L328.856 148.683L347.659 144.78Z" fill="#FDFFFF"/>
<g filter="url(#filter2_d_12831_26834)">
<path d="M134.607 202L157.535 258.511L178.817 202H189.718L158.5 285H150.569L117 202H134.607Z" fill="url(#paint6_radial_12831_26834)"/>
<path d="M198.627 202H215.208L239.212 257.854L262.858 202H279.079V283.785H262.09V230.472L239.422 283.798H232.877L209.442 229.877V283.798H198.64V202H198.627Z" fill="url(#paint7_radial_12831_26834)"/>
<path d="M354 202V208.991H329.996V283.785H313.007V208.991H288.953V202H354Z" fill="url(#paint8_radial_12831_26834)"/>
</g>
<g filter="url(#filter3_d_12831_26834)">
<path d="M72 345.865H83.0303C84.5104 345.865 85.8604 346.078 87.1005 346.516C88.3305 346.954 89.3905 347.563 90.2805 348.353C91.1606 349.143 91.8506 350.094 92.3506 351.204C92.8406 352.315 93.0906 353.553 93.0906 354.909C93.0906 355.742 93.0206 356.522 92.8906 357.227C92.7606 357.931 92.5406 358.604 92.2406 359.234C91.9406 359.853 91.5306 360.462 91.0406 361.028C90.5506 361.594 89.9205 362.181 89.1905 362.779C89.9505 363.11 90.6406 363.548 91.2706 364.093C91.9006 364.637 92.4506 365.289 92.9106 366.025C93.3706 366.762 93.7306 367.584 93.9907 368.471C94.2507 369.368 94.3807 370.318 94.3807 371.322C94.3807 372.71 94.1507 374.002 93.6906 375.209C93.2306 376.405 92.5706 377.451 91.7206 378.337C90.8706 379.224 89.8405 379.928 88.6505 380.441C87.4605 380.954 86.1304 381.21 84.6804 381.21H72V345.865ZM82.4603 361.188C83.1303 361.188 83.7304 361.049 84.2504 360.761C84.7704 360.473 85.2204 360.078 85.5804 359.565C85.9404 359.053 86.2104 358.444 86.4004 357.728C86.5904 357.013 86.6804 356.244 86.6804 355.411C86.6804 354.493 86.5604 353.649 86.3204 352.881C86.0804 352.112 85.7104 351.46 85.2204 350.916C84.7304 350.371 84.1004 349.944 83.3403 349.634C82.5803 349.325 81.6803 349.175 80.6503 349.175H78.3002V361.188H82.4603ZM78.3102 377.579H81.8003C82.8203 377.579 83.7104 377.43 84.4504 377.12C85.2004 376.821 85.8104 376.405 86.3004 375.871C86.7904 375.337 87.1505 374.707 87.3805 373.97C87.6105 373.233 87.7305 372.432 87.7305 371.557C87.7305 370.564 87.6205 369.645 87.4105 368.802C87.1905 367.958 86.8404 367.221 86.3604 366.602C85.8804 365.983 85.2404 365.491 84.4504 365.139C83.6603 364.787 82.7003 364.616 81.5603 364.616H78.3202V377.569L78.3102 377.579Z" fill="#FDFFFF"/>
<path d="M118.691 345.865V348.887H105.801V360.537H116.511V363.559H105.801V377.579H118.691V381.199H99.4908V345.865H118.691Z" fill="#FDFFFF"/>
<path d="M131.032 381.722C129.492 381.722 128.142 381.477 126.982 380.975C125.822 380.484 124.842 379.8 124.032 378.925C123.222 378.06 122.582 377.013 122.101 375.807C121.621 374.6 121.291 373.276 121.111 371.834H125.492C125.642 372.721 125.862 373.554 126.152 374.322C126.442 375.091 126.812 375.753 127.262 376.33C127.712 376.896 128.242 377.344 128.852 377.665C129.462 377.985 130.172 378.145 130.982 378.145C131.512 378.145 132.042 378.07 132.562 377.91C133.082 377.75 133.562 377.494 133.972 377.141C134.392 376.789 134.722 376.33 134.972 375.764C135.222 375.198 135.352 374.493 135.352 373.66C135.352 372.614 135.152 371.685 134.762 370.873C134.372 370.062 133.852 369.314 133.212 368.642C132.572 367.969 131.832 367.349 131.012 366.773C130.192 366.196 129.352 365.62 128.492 365.043C127.632 364.466 126.792 363.847 125.972 363.206C125.152 362.566 124.422 361.85 123.772 361.049C123.122 360.248 122.612 359.362 122.222 358.358C121.831 357.355 121.631 356.212 121.631 354.931C121.631 353.521 121.851 352.218 122.302 351.033C122.752 349.837 123.402 348.812 124.242 347.926C125.082 347.04 126.122 346.356 127.352 345.865C128.582 345.374 129.972 345.117 131.542 345.117C132.832 345.117 134.002 345.363 135.052 345.844C136.102 346.335 137.022 347.008 137.832 347.862C138.632 348.727 139.302 349.73 139.852 350.884C140.392 352.037 140.812 353.276 141.102 354.6H137.142C136.912 353.767 136.652 352.966 136.342 352.197C136.042 351.428 135.662 350.766 135.222 350.19C134.782 349.613 134.242 349.165 133.612 348.823C132.982 348.481 132.232 348.31 131.352 348.31C130.532 348.31 129.842 348.46 129.272 348.759C128.712 349.058 128.262 349.431 127.912 349.891C127.572 350.35 127.322 350.862 127.172 351.428C127.022 351.994 126.942 352.549 126.942 353.083C126.942 354.023 127.142 354.877 127.552 355.635C127.952 356.404 128.492 357.109 129.152 357.771C129.812 358.433 130.572 359.063 131.412 359.661C132.252 360.259 133.122 360.868 134.002 361.476C134.882 362.085 135.742 362.726 136.592 363.388C137.442 364.061 138.192 364.787 138.852 365.588C139.512 366.388 140.052 367.275 140.452 368.246C140.852 369.218 141.062 370.318 141.062 371.535C141.062 372.977 140.842 374.312 140.422 375.55C139.992 376.789 139.352 377.857 138.502 378.765C137.652 379.672 136.602 380.398 135.342 380.911C134.082 381.434 132.632 381.69 130.992 381.69L131.032 381.722Z" fill="#FDFFFF"/>
<path d="M167.513 345.865V348.887H158.623V381.21H152.332V348.887H143.422V345.865H167.513Z" fill="#FDFFFF"/>
<path d="M197.804 345.865V348.887H184.913V360.537H195.624V363.559H184.913V377.579H197.804V381.199H178.603V345.865H197.804Z" fill="#FDFFFF"/>
<path d="M199.924 381.21L210.824 363.772L201.014 345.865H207.974L214.494 357.803L222.004 345.865H226.445L216.624 361.637L227.315 381.21H220.354L212.884 367.552L204.354 381.21H199.924Z" fill="#FDFFFF"/>
<path d="M249.575 345.865V348.887H236.685V360.537H247.395V363.559H236.685V377.579H249.575V381.199H230.375V345.865H249.575Z" fill="#FDFFFF"/>
<path d="M258.746 363.505C258.746 365.801 258.996 367.819 259.506 369.581C260.006 371.332 260.676 372.806 261.516 374.002C262.346 375.187 263.306 376.095 264.396 376.714C265.486 377.334 266.616 377.643 267.786 377.643C268.686 377.643 269.516 377.43 270.296 377.003C271.076 376.575 271.796 375.999 272.476 375.273C273.156 374.547 273.786 373.703 274.376 372.742C274.966 371.792 275.536 370.777 276.086 369.72L278.716 372.379C278.146 373.628 277.466 374.835 276.656 375.999C275.846 377.163 274.956 378.188 273.956 379.074C272.956 379.96 271.876 380.665 270.696 381.199C269.526 381.733 268.276 381.989 266.966 381.989C264.756 381.989 262.716 381.541 260.856 380.655C258.996 379.768 257.386 378.519 256.036 376.906C254.685 375.294 253.625 373.351 252.865 371.076C252.105 368.812 251.725 366.282 251.725 363.505C251.725 360.729 252.085 358.337 252.805 356.073C253.525 353.81 254.535 351.866 255.845 350.222C257.156 348.577 258.716 347.296 260.546 346.377C262.376 345.459 264.386 345 266.606 345C268.086 345 269.436 345.235 270.666 345.715C271.896 346.196 273.006 346.858 274.016 347.702C275.026 348.545 275.916 349.549 276.706 350.724C277.496 351.898 278.196 353.19 278.796 354.589L276.146 357.141C275.606 356.084 275.016 355.08 274.376 354.141C273.736 353.201 273.056 352.379 272.336 351.674C271.616 350.969 270.856 350.414 270.066 350.008C269.266 349.602 268.446 349.399 267.586 349.399C266.416 349.399 265.286 349.709 264.226 350.307C263.166 350.905 262.216 351.813 261.416 353.009C260.606 354.205 259.966 355.668 259.486 357.429C259.006 359.191 258.766 361.21 258.766 363.505H258.746Z" fill="#FDFFFF"/>
<path d="M289.637 345.865V368.599C289.637 369.955 289.787 371.236 290.097 372.432C290.407 373.628 290.847 374.675 291.427 375.572C292.007 376.469 292.697 377.173 293.507 377.697C294.327 378.22 295.237 378.476 296.267 378.476C297.297 378.476 298.167 378.22 298.977 377.697C299.787 377.173 300.477 376.469 301.047 375.572C301.617 374.675 302.057 373.628 302.367 372.432C302.677 371.236 302.827 369.955 302.827 368.599V345.865H306.807V368.599C306.807 370.425 306.587 372.144 306.137 373.778C305.687 375.412 304.987 376.821 304.027 378.038C303.067 379.256 301.837 380.217 300.327 380.932C298.817 381.648 297.017 382 294.907 382C293.027 382 291.357 381.648 289.907 380.932C288.456 380.217 287.246 379.256 286.276 378.028C285.306 376.8 284.566 375.369 284.066 373.735C283.566 372.101 283.316 370.361 283.316 368.524V345.865H289.637Z" fill="#FDFFFF"/>
<path d="M334.538 345.865V348.887H325.648V381.21H319.357V348.887H310.447V345.865H334.538Z" fill="#FDFFFF"/>
<path d="M338.158 345.865H344.448V381.21H338.158V345.865Z" fill="#FDFFFF"/>
<path d="M364.419 381.989C362.349 381.989 360.409 381.53 358.619 380.612C356.829 379.694 355.268 378.401 353.958 376.746C352.648 375.091 351.608 373.116 350.858 370.831C350.108 368.545 349.728 366.036 349.728 363.313C349.728 360.59 350.108 358.188 350.858 355.945C351.608 353.713 352.638 351.791 353.958 350.2C355.278 348.609 356.829 347.36 358.619 346.474C360.409 345.587 362.349 345.139 364.419 345.139C366.489 345.139 368.419 345.587 370.209 346.484C371.999 347.381 373.549 348.631 374.869 350.222C376.189 351.823 377.229 353.724 377.989 355.945C378.749 358.156 379.129 360.59 379.129 363.228C379.129 365.107 378.959 366.869 378.619 368.535C378.279 370.19 377.789 371.717 377.159 373.105C376.529 374.493 375.769 375.743 374.889 376.832C374.009 377.921 373.019 378.861 371.919 379.619C370.829 380.388 369.649 380.975 368.379 381.381C367.119 381.786 365.799 381.989 364.419 381.989ZM364.419 379.021C365.669 379.021 366.779 378.626 367.739 377.835C368.699 377.045 369.499 375.956 370.149 374.568C370.799 373.18 371.279 371.525 371.619 369.603C371.949 367.681 372.119 365.588 372.119 363.313C372.119 361.039 371.949 359.02 371.619 357.162C371.289 355.304 370.799 353.703 370.149 352.368C369.499 351.033 368.699 349.987 367.739 349.239C366.779 348.492 365.669 348.118 364.419 348.118C363.169 348.118 362.039 348.492 361.079 349.239C360.119 349.987 359.319 351.033 358.669 352.368C358.019 353.703 357.539 355.304 357.209 357.162C356.879 359.02 356.719 361.071 356.719 363.313C356.719 365.556 356.879 367.691 357.209 369.603C357.539 371.525 358.029 373.18 358.669 374.568C359.309 375.956 360.119 377.045 361.079 377.835C362.039 378.626 363.149 379.021 364.419 379.021Z" fill="#FDFFFF"/>
<path d="M384.369 345.865H388.409L403.06 368.332V345.865H407V381.733H404.29L388.369 356.917V381.21H384.369V345.865Z" fill="#FDFFFF"/>
</g>
<path d="M143.567 302.336L148.219 313.683L152.533 302.336H154.746L148.416 319H146.809L140 302.336H143.567Z" fill="#FDFFFF"/>
<path d="M167.237 302.336V303.735H160.188V309.15H166.053V310.549H160.188V317.069H167.237V318.748H156.72V302.336H167.237Z" fill="#FDFFFF"/>
<path d="M169.422 302.336H174.709C175.625 302.336 176.415 302.448 177.105 302.672C177.796 302.895 178.36 303.203 178.811 303.609C179.262 304.015 179.601 304.477 179.84 305.036C180.066 305.582 180.179 306.184 180.179 306.827C180.179 307.289 180.108 307.737 179.939 308.156C179.784 308.576 179.558 308.954 179.291 309.304C179.009 309.653 178.67 309.961 178.276 310.241C177.881 310.521 177.444 310.731 176.964 310.913L181.969 318.776H178.219L173.496 311.347H172.89V318.776H169.436V302.336H169.422ZM172.876 309.891H173.623C174.046 309.891 174.441 309.821 174.793 309.681C175.146 309.542 175.47 309.346 175.724 309.094C175.992 308.842 176.189 308.52 176.344 308.156C176.499 307.779 176.57 307.359 176.57 306.897C176.57 306.463 176.513 306.058 176.401 305.694C176.288 305.33 176.133 305.022 175.935 304.756C175.738 304.491 175.498 304.295 175.216 304.141C174.934 304.001 174.624 303.917 174.286 303.917H172.89V309.877L172.876 309.891Z" fill="#FDFFFF"/>
<path d="M183.647 302.336H187.087V318.762H183.647V302.336Z" fill="#FDFFFF"/>
<path d="M200.888 302.336V303.735H194.234V309.15H200.099V310.549H194.234V318.748H190.78V302.336H200.888Z" fill="#FDFFFF"/>
<path d="M205.823 302.336L210.447 309.737L214.789 302.336H217.129L211.631 311.668V318.762H208.177V311.906L202.2 302.336H205.823Z" fill="#FDFFFF"/>
<path d="M222.895 302.336H226.25L231.114 313.557L235.922 302.336H239.206V318.762H235.766V308.058L231.171 318.762H229.845L225.094 307.933V318.762H222.909V302.336H222.895Z" fill="#FDFFFF"/>
<path d="M244.817 302.336L249.441 309.737L253.783 302.336H256.124L250.626 311.668V318.762H247.172V311.906L241.194 302.336H244.817Z" fill="#FDFFFF"/>
<path d="M273.831 302.336V303.735H268.967V318.762H265.527V303.749H260.649V302.336H273.831Z" fill="#FDFFFF"/>
<path d="M275.987 302.336H281.274C282.191 302.336 282.98 302.448 283.671 302.672C284.362 302.895 284.926 303.203 285.377 303.609C285.828 304.015 286.166 304.477 286.406 305.036C286.631 305.582 286.744 306.184 286.744 306.827C286.744 307.289 286.674 307.737 286.504 308.156C286.349 308.576 286.124 308.954 285.856 309.304C285.574 309.653 285.236 309.961 284.841 310.241C284.446 310.521 284.009 310.731 283.53 310.913L288.535 318.776H284.785L280.062 311.347H279.456V318.776H276.002V302.336H275.987ZM279.441 309.891H280.189C280.612 309.891 281.006 309.821 281.359 309.681C281.711 309.542 282.035 309.346 282.289 309.094C282.557 308.842 282.754 308.52 282.91 308.156C283.065 307.779 283.135 307.359 283.135 306.897C283.135 306.463 283.079 306.058 282.966 305.694C282.853 305.33 282.698 305.022 282.501 304.756C282.303 304.491 282.064 304.295 281.782 304.141C281.5 304.001 281.19 303.917 280.851 303.917H279.456V309.877L279.441 309.891Z" fill="#FDFFFF"/>
<path d="M297.783 302L304.38 318.762H300.856L299.094 314.285H293.624L291.777 318.762H289.437L296.288 302H297.783ZM294.272 312.76H298.502L296.415 307.457L294.272 312.76Z" fill="#FDFFFF"/>
<path d="M306.396 302.336H311.5C312.811 302.336 314.023 302.518 315.123 302.881C316.223 303.245 317.167 303.763 317.971 304.449C318.76 305.134 319.381 305.974 319.818 306.981C320.255 307.988 320.48 309.122 320.48 310.409C320.48 311.57 320.297 312.648 319.916 313.655C319.55 314.663 319 315.558 318.281 316.314C317.562 317.069 316.688 317.671 315.645 318.105C314.601 318.538 313.403 318.762 312.05 318.762H306.396V302.336ZM309.85 317.083H311.683C312.36 317.083 312.994 316.943 313.6 316.649C314.193 316.356 314.728 315.936 315.165 315.362C315.616 314.802 315.969 314.103 316.223 313.277C316.476 312.452 316.617 311.514 316.617 310.437C316.617 309.514 316.491 308.66 316.251 307.877C316.011 307.093 315.659 306.407 315.236 305.834C314.799 305.26 314.277 304.812 313.671 304.491C313.065 304.169 312.402 304.001 311.683 304.001H309.85V317.083Z" fill="#FDFFFF"/>
<path d="M334 302.336V303.735H326.951V309.15H332.816V310.549H326.951V317.069H334V318.748H323.483V302.336H334Z" fill="#FDFFFF"/>
</g>
<defs>
<filter id="filter0_d_12831_26834" x="154.15" y="96.05" width="163.44" height="164.44" filterUnits="userSpaceOnUse" color-interpolation-filters="sRGB">
<feFlood flood-opacity="0" result="BackgroundImageFix"/>
<feColorMatrix in="SourceAlpha" type="matrix" values="0 0 0 0 0 0 0 0 0 0 0 0 0 0 0 0 0 0 127 0" result="hardAlpha"/>
<feOffset dy="4"/>
<feGaussianBlur stdDeviation="1.5"/>
<feComposite in2="hardAlpha" operator="out"/>
<feColorMatrix type="matrix" values="0 0 0 0 0.0352941 0 0 0 0 0.270588 0 0 0 0 0.341176 0 0 0 0.78 0"/>
<feBlend mode="normal" in2="BackgroundImageFix" result="effect1_dropShadow_12831_26834"/>
<feBlend mode="normal" in="SourceGraphic" in2="effect1_dropShadow_12831_26834" result="shape"/>
</filter>
<filter id="filter1_i_12831_26834" x="181.51" y="119.75" width="108.72" height="102.9" filterUnits="userSpaceOnUse" color-interpolation-filters="sRGB">
<feFlood flood-opacity="0" result="BackgroundImageFix"/>
<feBlend mode="normal" in="SourceGraphic" in2="BackgroundImageFix" result="shape"/>
<feColorMatrix in="SourceAlpha" type="matrix" values="0 0 0 0 0 0 0 0 0 0 0 0 0 0 0 0 0 0 127 0" result="hardAlpha"/>
<feOffset dy="4"/>
<feGaussianBlur stdDeviation="6.5"/>
<feComposite in2="hardAlpha" operator="arithmetic" k2="-1" k3="1"/>
<feColorMatrix type="matrix" values="0 0 0 0 0.0980392 0 0 0 0 0.117647 0 0 0 0 0.301961 0 0 0 1 0"/>
<feBlend mode="normal" in2="shape" result="effect1_innerShadow_12831_26834"/>
</filter>
<filter id="filter2_d_12831_26834" x="113" y="202" width="245" height="91" filterUnits="userSpaceOnUse" color-interpolation-filters="sRGB">
<feFlood flood-opacity="0" result="BackgroundImageFix"/>
<feColorMatrix in="SourceAlpha" type="matrix" values="0 0 0 0 0 0 0 0 0 0 0 0 0 0 0 0 0 0 127 0" result="hardAlpha"/>
<feOffset dy="4"/>
<feGaussianBlur stdDeviation="2"/>
<feComposite in2="hardAlpha" operator="out"/>
<feColorMatrix type="matrix" values="0 0 0 0 0.0980392 0 0 0 0 0.117647 0 0 0 0 0.301961 0 0 0 1 0"/>
<feBlend mode="normal" in2="BackgroundImageFix" result="effect1_dropShadow_12831_26834"/>
<feBlend mode="normal" in="SourceGraphic" in2="effect1_dropShadow_12831_26834" result="shape"/>
</filter>
<filter id="filter3_d_12831_26834" x="68" y="345" width="343" height="45" filterUnits="userSpaceOnUse" color-interpolation-filters="sRGB">
<feFlood flood-opacity="0" result="BackgroundImageFix"/>
<feColorMatrix in="SourceAlpha" type="matrix" values="0 0 0 0 0 0 0 0 0 0 0 0 0 0 0 0 0 0 127 0" result="hardAlpha"/>
<feOffset dy="4"/>
<feGaussianBlur stdDeviation="2"/>
<feComposite in2="hardAlpha" operator="out"/>
<feColorMatrix type="matrix" values="0 0 0 0 0.404167 0 0 0 0 0.199257 0 0 0 0 0.0134722 0 0 0 1 0"/>
<feBlend mode="normal" in2="BackgroundImageFix" result="effect1_dropShadow_12831_26834"/>
<feBlend mode="normal" in="SourceGraphic" in2="effect1_dropShadow_12831_26834" result="shape"/>
</filter>
<radialGradient id="paint0_radial_12831_26834" cx="0" cy="0" r="1" gradientUnits="userSpaceOnUse" gradientTransform="translate(235.042 21.7192) rotate(89.4668) scale(334.89 257.376)">
<stop stop-color="#3D468F"/>
<stop offset="1" stop-color="#1F255E"/>
</radialGradient>
<linearGradient id="paint1_linear_12831_26834" x1="4.92993" y1="385.145" x2="137.42" y2="382.851" gradientUnits="userSpaceOnUse">
<stop stop-color="#F3AF44"/>
<stop offset="1" stop-color="#8B3F00"/>
</linearGradient>
<linearGradient id="paint2_linear_12831_26834" x1="118.23" y1="403.453" x2="48.73" y2="403.453" gradientUnits="userSpaceOnUse">
<stop stop-color="#DC8436"/>
<stop offset="1" stop-color="#B4642A"/>
</linearGradient>
<linearGradient id="paint3_linear_12831_26834" x1="339.5" y1="385.145" x2="471.99" y2="382.851" gradientUnits="userSpaceOnUse">
<stop stop-color="#8B3F00"/>
<stop offset="1" stop-color="#F3AF44"/>
</linearGradient>
<linearGradient id="paint4_linear_12831_26834" x1="404.5" y1="403.453" x2="335" y2="403.453" gradientUnits="userSpaceOnUse">
<stop stop-color="#B4642A"/>
<stop offset="1" stop-color="#DC8436"/>
</linearGradient>
<radialGradient id="paint5_radial_12831_26834" cx="0" cy="0" r="1" gradientUnits="userSpaceOnUse" gradientTransform="translate(239 329.784) rotate(90) scale(77.1566 215.406)">
<stop stop-color="#ED9B44"/>
<stop offset="1" stop-color="#B35A23"/>
</radialGradient>
<radialGradient id="paint6_radial_12831_26834" cx="0" cy="0" r="1" gradientUnits="userSpaceOnUse" gradientTransform="translate(235.571 206.063) rotate(90) scale(133.437 215.71)">
<stop stop-color="#ED9B44"/>
<stop offset="1" stop-color="#B35A23"/>
</radialGradient>
<radialGradient id="paint7_radial_12831_26834" cx="0" cy="0" r="1" gradientUnits="userSpaceOnUse" gradientTransform="translate(235.571 206.063) rotate(90) scale(133.437 215.71)">
<stop stop-color="#ED9B44"/>
<stop offset="1" stop-color="#B35A23"/>
</radialGradient>
<radialGradient id="paint8_radial_12831_26834" cx="0" cy="0" r="1" gradientUnits="userSpaceOnUse" gradientTransform="translate(235.571 206.063) rotate(90) scale(133.437 215.71)">
<stop stop-color="#ED9B44"/>
<stop offset="1" stop-color="#B35A23"/>
</radialGradient>
<clipPath id="clip0_12831_26834">
<rect width="477.74" height="496" fill="white"/>
</clipPath>
</defs>
</svg>
