<?xml version="1.0" encoding="UTF-8"?> <svg xmlns="http://www.w3.org/2000/svg" width="331" height="341" viewBox="0 0 331 341" fill="none"><path d="M165.306 0L159.181 6.12313L153.056 12.2463L140.787 24.5107L137.961 27.3172L125.401 39.8732H125.438C132.201 39.8732 137.688 45.3403 137.706 52.1013L137.961 173.744H192.833L192.924 52.1195C192.924 45.3585 198.411 39.8732 205.192 39.8732L177.574 12.2645L171.449 6.14135L165.306 0Z" fill="#2852AB"></path><path d="M120.643 56.9305L117.964 59.6094L103.289 74.2794L39.2301 138.317L26.597 150.946H52.1366C58.8998 150.946 64.4051 156.431 64.4051 163.211V173.78H120.625V56.967L120.643 56.9305Z" fill="#2852AB"></path><path d="M210.114 57.0216V173.835H266.334V163.265C266.334 156.504 271.821 151.001 278.603 151.001H304.142L291.509 138.372L227.469 74.3523L212.794 59.6823L210.114 57.0034V57.0216Z" fill="#2852AB"></path><path d="M330.739 191.093L319.127 202.719L291.582 230.237L245.388 276.416V268.16C245.388 256.406 235.854 246.875 224.096 246.875H205.557V340.763L205.338 341L193.07 328.736H193.051L193.106 328.663L165.415 300.981H165.397L165.361 300.999L138.071 328.262L137.688 328.644H137.706L137.688 328.699L125.42 340.964L125.31 340.854V246.875H106.771C95.0126 246.875 85.4785 256.406 85.4785 268.16V276.507L39.3394 230.383L11.7034 202.756L0.036438 191.093H330.739Z" fill="#2852AB"></path></svg> 