<?xml version="1.0" encoding="UTF-8"?> <svg xmlns="http://www.w3.org/2000/svg" width="301" height="300" viewBox="0 0 301 300" fill="none"><path opacity="0.2" d="M53.7293 246.378L144.942 298.786C147.248 300.112 150.023 300.367 152.534 299.478L232.524 271.409C234.377 270.758 234.607 268.239 232.903 267.259L137.408 212.596L54.1658 241.636C52.0497 242.377 51.7862 245.259 53.7293 246.37V246.378Z" fill="#262830"></path><path d="M184.964 286.855C203.992 286.855 219.472 271.376 219.472 252.347V127.656C219.472 121.012 222.37 114.713 227.417 110.39L236.803 102.354C237.092 102.107 237.24 101.737 237.207 101.358C237.174 100.979 236.952 100.641 236.622 100.46L192.893 75.7344L140.98 45.4425C140.798 45.3355 140.601 45.2861 140.395 45.2861C140.057 45.2861 139.745 45.4343 139.522 45.6813L128.275 58.4846C121.746 67.1876 122.001 73.0998 122.24 78.814C122.289 80.0326 122.339 81.1934 122.339 82.3873V131.526C122.339 131.674 122.363 131.822 122.421 131.954L183.877 286.122C184.058 286.567 184.478 286.855 184.956 286.855H184.964Z" fill="white"></path><path d="M184.593 286.518C183.918 286.518 183.317 286.114 183.07 285.488L121.614 131.321C121.539 131.123 121.498 130.925 121.498 130.711V81.5722C121.498 80.3618 121.449 79.1928 121.399 78.0648C121.152 72.2353 120.897 66.2164 127.468 57.4475C127.493 57.4146 127.517 57.3816 127.55 57.3486L138.797 44.5454C139.11 44.1913 139.555 43.9854 140.032 43.9854C140.321 43.9854 140.609 44.0595 140.856 44.2077L192.761 74.4915L236.49 99.2171C236.96 99.4806 237.264 99.95 237.314 100.485C237.363 101.02 237.157 101.539 236.746 101.885L227.359 109.921C222.419 114.153 219.578 120.32 219.578 126.825V251.516C219.578 270.808 203.885 286.501 184.593 286.501V286.518ZM130.07 59.4565C124.215 67.2868 124.421 71.9634 124.668 77.8835C124.718 79.0197 124.767 80.2879 124.767 81.5806V130.398L185.697 283.224L186.182 283.2C203.07 282.36 216.301 268.445 216.301 251.533V126.841C216.301 119.373 219.554 112.309 225.227 107.451L232.835 100.93L191.114 77.3403L140.362 47.7319L130.061 59.4565H130.07Z" fill="#262830"></path><path d="M184.592 286.048C184.798 286.048 185.004 285.991 185.177 285.892C185.531 285.686 185.753 285.299 185.753 284.887V168.825C185.893 161.785 182.114 155.363 175.898 152.036L90.8188 106.57C86.9983 104.528 82.7333 103.449 78.4847 103.449C73.7997 103.449 69.1559 104.75 65.0637 107.204C57.1099 111.971 52.3672 120.353 52.3672 129.616V230.553C52.3672 230.964 52.5897 231.352 52.9519 231.557L147.648 286.229C147.821 286.328 148.027 286.386 148.232 286.386C148.438 286.386 148.636 286.336 148.809 286.229C149.171 286.023 149.393 285.637 149.393 285.225L149.476 266.444L184.024 285.892C184.197 285.991 184.395 286.04 184.592 286.04V286.048Z" fill="white"></path><path d="M184.024 285.892L147.656 265.481C147.285 265.275 147.062 264.888 147.062 264.468V183.102C147.062 167.664 159.627 155.1 175.065 155.1C180.961 155.1 185.753 159.892 185.753 165.787V284.871C185.753 285.283 185.53 285.662 185.176 285.876C184.995 285.983 184.798 286.032 184.592 286.032C184.386 286.032 184.197 285.983 184.024 285.884V285.892ZM148.215 263.307V265.629H148.224V263.307H148.215Z" fill="url(#paint0_linear_2750_43258)"></path><path d="M184.593 286.517C184.313 286.517 184.033 286.443 183.786 286.312L147.418 265.9C146.899 265.612 146.586 265.061 146.586 264.468V183.102C146.586 167.4 159.356 154.63 175.066 154.63C181.225 154.63 186.231 159.636 186.231 165.795V284.879C186.231 285.455 185.918 285.999 185.416 286.295C185.169 286.443 184.881 286.517 184.593 286.517ZM175.066 157.907C161.168 157.907 149.863 169.212 149.863 183.11V263.512L182.954 282.088V165.803C182.954 161.456 179.414 157.915 175.066 157.915V157.907ZM147.87 265.159H148.562V264.813L148.57 264.13H147.887L147.87 265.159Z" fill="#262830"></path><path d="M148.233 286.855C147.945 286.855 147.656 286.781 147.409 286.633L52.7136 231.961C52.2113 231.673 51.8984 231.129 51.8984 230.544V129.607C51.8984 120.172 56.7316 111.633 64.8253 106.783C68.9916 104.289 73.7178 102.963 78.4934 102.963C82.8243 102.963 87.1635 104.058 91.0498 106.133L176.129 151.6C182.501 155.008 186.371 161.595 186.231 168.792V284.87C186.231 285.447 185.927 285.99 185.424 286.287C185.177 286.435 184.889 286.509 184.593 286.509C184.296 286.509 184.033 286.435 183.786 286.303L149.937 267.25L149.863 285.225C149.863 285.809 149.542 286.344 149.04 286.633C148.793 286.772 148.513 286.846 148.225 286.846L148.233 286.855ZM78.5016 106.248C74.3106 106.248 70.169 107.409 66.5133 109.599C59.4158 113.856 55.1754 121.332 55.1754 129.616V229.606L146.619 282.4L146.693 264.467C146.693 263.891 147.006 263.348 147.508 263.059C147.755 262.92 148.043 262.837 148.332 262.837C148.62 262.837 148.891 262.911 149.138 263.051L182.963 282.087V168.784C183.078 162.806 179.867 157.339 174.589 154.514L89.51 109.048C86.1012 107.228 82.2973 106.265 78.5016 106.265V106.248Z" fill="#262830"></path><path d="M130.926 191.09C130.638 191.09 130.35 191.007 130.095 190.859L98.4031 173.215C98.0326 173.001 97.769 172.647 97.6537 172.218C97.5467 171.798 97.6045 171.354 97.8268 170.975C98.1232 170.473 98.6666 170.168 99.243 170.168C99.5311 170.168 99.8193 170.242 100.075 170.39L131.766 188.035C132.137 188.249 132.4 188.603 132.515 189.032C132.631 189.46 132.565 189.896 132.342 190.275C132.046 190.777 131.503 191.082 130.926 191.082V191.09Z" fill="#262830"></path><path d="M130.926 206.766C130.638 206.766 130.35 206.684 130.095 206.536L68.3912 171.641C68.0207 171.427 67.7571 171.073 67.6418 170.645C67.5265 170.217 67.5923 169.781 67.8147 169.402C68.1111 168.9 68.6464 168.595 69.231 168.595C69.5192 168.595 69.8074 168.677 70.0626 168.825L131.766 203.72C132.137 203.934 132.4 204.288 132.515 204.716C132.622 205.136 132.565 205.581 132.342 205.96C132.046 206.462 131.511 206.766 130.926 206.766Z" fill="#262830"></path><path d="M130.926 222.443C130.638 222.443 130.35 222.361 130.095 222.212L68.3914 187.318C68.0209 187.104 67.7573 186.75 67.642 186.322C67.535 185.902 67.5926 185.457 67.8149 185.078C68.1113 184.576 68.6467 184.271 69.2313 184.271C69.5195 184.271 69.8077 184.354 70.0629 184.502L131.766 219.397C132.137 219.611 132.4 219.965 132.515 220.393C132.631 220.821 132.565 221.258 132.343 221.636C132.046 222.139 131.511 222.443 130.926 222.443Z" fill="#262830"></path><path d="M130.926 238.121C130.638 238.121 130.35 238.038 130.095 237.89L68.3912 202.996C68.0207 202.782 67.7571 202.428 67.6418 202C67.5265 201.571 67.5923 201.135 67.8147 200.756C68.1111 200.254 68.6464 199.949 69.231 199.949C69.5192 199.949 69.8074 200.032 70.0626 200.18L131.766 235.074C132.532 235.527 132.795 236.532 132.342 237.314C132.046 237.816 131.511 238.121 130.926 238.121Z" fill="#262830"></path><path d="M104.684 240.17C104.396 240.17 104.107 240.096 103.852 239.948L68.4144 219.372C68.0522 219.158 67.7803 218.804 67.6733 218.376C67.5662 217.948 67.6238 217.511 67.8462 217.132C68.1426 216.63 68.6777 216.325 69.2623 216.325C69.5505 216.325 69.8387 216.399 70.0857 216.548L105.524 237.124C106.289 237.577 106.553 238.581 106.092 239.363C105.795 239.865 105.252 240.17 104.676 240.17H104.684Z" fill="#262830"></path><path d="M265.82 194.803L279.958 186.644C289.929 180.888 296.112 168.883 296.952 152.589L299.471 104.101L284.865 112.532L282.345 161.02C281.514 177.059 275.528 188.94 265.82 194.803Z" fill="white"></path><path d="M282.829 152.893C282.829 152.893 279.33 183.226 274.793 188.026C274.793 188.026 294.496 182.707 296.316 161.711C297.222 157.948 297.139 144.165 297.139 144.165L282.837 152.893H282.829Z" fill="#262830"></path><path d="M194.146 35.1826L263.235 75.0751C263.235 88.8666 272.91 105.638 284.857 112.53L282.337 161.018C281.506 177.058 275.52 188.939 265.812 194.801L265.343 195.073C260.641 197.79 255.084 199.124 248.851 198.852C246.414 198.745 243.935 198.515 241.424 198.161C233.215 196.975 224.158 191.747 215.941 183.439C213.438 180.911 210.959 178.268 208.522 175.559C189.074 153.946 176.279 124.485 175.027 99.0678L172.508 47.6731C184.455 54.5647 194.138 48.9741 194.138 35.1826H194.146ZM259.744 138.483C259.744 118.681 245.837 94.5972 228.686 84.7003C211.544 74.7951 197.637 82.823 197.637 102.625C197.637 122.427 211.544 146.511 228.686 156.408C245.837 166.313 259.744 158.285 259.744 138.483Z" fill="#CDDCE8"></path><path d="M187.122 38.6743L172.516 47.6655C184.463 54.5571 194.146 48.9664 194.146 35.175L193.989 34.8867L187.122 38.6743Z" fill="white"></path><path d="M187.122 38.6743L172.516 47.6655C184.463 54.5571 194.146 48.9664 194.146 35.175L193.989 34.8867L187.122 38.6743Z" fill="#262830"></path><path d="M193.988 34.8948L194.145 35.1831L263.242 75.0756L277.849 66.644L208.751 26.752L193.988 34.8948Z" fill="white"></path><path d="M228.682 84.6922C245.833 94.5974 259.74 118.673 259.74 138.475C259.74 158.269 245.833 166.297 228.682 156.4C211.54 146.495 197.633 122.419 197.633 102.617C197.633 82.8232 211.54 74.7953 228.682 84.6922Z" fill="#F96000"></path><path d="M277.849 66.6445L263.242 75.076C263.242 88.8675 272.917 105.639 284.864 112.531L299.471 104.1C287.523 97.2083 277.849 80.436 277.849 66.6445Z" fill="white"></path><path d="M242.567 162.098C237.997 162.098 233.082 160.6 227.969 157.652C210.447 147.533 196.203 122.848 196.203 102.618C196.203 92.5066 199.686 84.9236 206.018 81.2678C208.628 79.7611 211.592 78.9951 214.819 78.9951C219.389 78.9951 224.296 80.4936 229.41 83.4412C246.931 93.5605 261.192 118.245 261.192 138.476C261.192 148.587 257.709 156.17 251.377 159.825C248.759 161.332 245.803 162.098 242.567 162.098ZM214.836 81.8854C212.102 81.8854 209.624 82.5194 207.459 83.7709C202.057 86.8833 199.085 93.577 199.085 102.618C199.085 121.926 212.687 145.499 229.41 155.149C234.078 157.841 238.5 159.208 242.551 159.208C245.284 159.208 247.763 158.574 249.928 157.322C255.329 154.21 258.302 147.516 258.302 138.476C258.302 119.168 244.691 95.5942 227.969 85.9443C223.308 83.2519 218.887 81.8854 214.836 81.8854Z" fill="#262830"></path><path d="M250.455 200.327C249.903 200.327 249.352 200.319 248.8 200.294C246.338 200.187 243.794 199.948 241.225 199.586C232.703 198.351 223.358 192.982 214.927 184.452C212.473 181.974 209.962 179.306 207.459 176.523C187.846 154.729 174.87 125.071 173.602 99.1346L171.082 47.7398C171.082 47.6081 171.099 47.5091 171.115 47.4021L171.131 47.2952C171.148 47.2458 171.189 47.1389 171.238 47.0318L171.28 46.9659C171.337 46.8671 171.378 46.8012 171.436 46.7436L171.518 46.6531C171.609 46.5625 171.699 46.4884 171.782 46.4308L186.471 37.3902L208.076 25.4758C208.29 25.3606 208.529 25.2949 208.776 25.2949C209.023 25.2949 209.278 25.3608 209.5 25.4843L278.589 65.3764C278.696 65.4505 278.771 65.5083 278.836 65.5742L278.927 65.6566C279.001 65.7307 279.067 65.8211 279.117 65.9034C279.166 65.994 279.207 66.0929 279.248 66.2247L279.265 66.3151C279.281 66.4057 279.298 66.4881 279.298 66.5704L279.314 66.6938C279.314 79.9501 288.684 96.1787 300.211 102.84C300.326 102.914 300.409 102.98 300.483 103.054L300.557 103.12C300.623 103.194 300.689 103.276 300.738 103.358L300.763 103.424C300.821 103.531 300.845 103.614 300.87 103.713L300.895 103.82C300.911 103.918 300.928 104.025 300.919 104.124V104.215L298.408 152.654C297.552 169.278 291.261 181.785 280.697 187.886L266.091 196.317C261.496 198.977 256.243 200.319 250.48 200.319L250.455 200.327ZM176.475 98.9947C177.718 124.297 190.407 153.271 209.599 174.596C212.061 177.338 214.54 179.973 216.968 182.427C224.972 190.504 233.724 195.584 241.628 196.729C244.099 197.083 246.552 197.305 248.924 197.412C249.434 197.437 249.936 197.445 250.438 197.445C255.692 197.445 260.467 196.227 264.625 193.831L265.062 193.583C274.481 187.894 280.104 176.301 280.903 160.953L283.373 113.33L283.036 113.115C271.665 105.911 262.353 89.7319 261.817 76.2945L261.801 75.9158L195.503 37.637L195.371 38.6582C194.672 44.1748 192.308 48.2503 188.521 50.4323C186.627 51.5273 184.495 52.079 182.165 52.079C179.834 52.079 177.529 51.5686 175.067 50.5476L174.071 50.136L176.467 98.9947H176.475ZM286.263 113.387L283.785 161.093C283.291 170.521 281.084 178.59 277.214 185.07L275.872 187.326L279.24 185.383C288.931 179.792 294.703 168.117 295.51 152.506L297.889 106.668L286.263 113.379V113.387ZM264.691 75.8993L264.708 76.311C265.243 89.0485 273.765 103.803 284.518 110.629L284.872 110.851L296.663 104.042L295.814 103.424C285.819 96.1292 277.923 82.4368 276.597 70.1357L276.482 69.09L264.691 75.8993ZM196.746 35.0186L263.242 73.4127L274.958 66.6444L208.735 28.4071L196.746 35.0186ZM187.903 39.8933L175.405 47.5915L176.706 48.0856C178.624 48.8184 180.468 49.1892 182.181 49.1892C184.009 49.1892 185.656 48.7692 187.097 47.9376C189.987 46.2662 191.847 43.0468 192.473 38.6252L192.663 37.2664L187.903 39.8848V39.8933Z" fill="#262830"></path><path d="M195.526 259.445C195.246 259.445 194.966 259.37 194.727 259.23C194.357 259.016 194.085 258.67 193.978 258.251C193.871 257.831 193.929 257.403 194.143 257.032L203.809 240.301C204.023 239.931 204.369 239.659 204.789 239.552C204.929 239.519 205.069 239.494 205.209 239.494C205.489 239.494 205.761 239.568 206.008 239.717L216.275 245.645L226.798 227.416C227.086 226.922 227.621 226.609 228.197 226.609C228.477 226.609 228.749 226.683 228.996 226.823L238.934 232.553L247.127 218.367C247.415 217.873 247.95 217.56 248.527 217.56C248.807 217.56 249.078 217.634 249.325 217.774L258.25 222.928L268.773 204.698C268.987 204.328 269.333 204.057 269.753 203.949C269.893 203.908 270.033 203.892 270.173 203.892C270.445 203.892 270.724 203.966 270.971 204.106C271.737 204.551 272.001 205.538 271.556 206.304L260.227 225.925C259.938 226.419 259.403 226.724 258.827 226.724C258.547 226.724 258.275 226.65 258.028 226.51L249.095 221.355L240.902 235.542C240.614 236.036 240.079 236.349 239.502 236.349C239.222 236.349 238.951 236.275 238.704 236.135L228.774 230.404L218.251 248.634C218.037 249.004 217.691 249.276 217.271 249.383C217.131 249.416 216.991 249.441 216.851 249.441C216.58 249.441 216.3 249.366 216.053 249.226L205.785 243.298L196.926 258.638C196.638 259.132 196.102 259.445 195.534 259.445H195.526Z" fill="#3454A8"></path><path d="M163.094 39.5227L159.602 21.8613C159.495 21.3096 159.15 20.8406 158.655 20.5607C158.161 20.289 157.585 20.2475 157.058 20.4369L145.556 24.7515C144.93 24.9821 144.469 25.5337 144.345 26.1924C144.238 26.7688 144.395 27.3531 144.782 27.7978C144.831 27.8554 144.889 27.9134 144.946 27.971L159.94 41.3259C160.179 41.54 160.459 41.6799 160.755 41.7541C161.216 41.8693 161.718 41.8037 162.155 41.5567C162.871 41.1532 163.242 40.3377 163.085 39.5308L163.094 39.5227ZM159.232 36.1718L148.635 26.736L156.77 23.6893L159.232 36.1718Z" fill="#3454A8"></path><path d="M166.186 9.21424C168.252 11.4209 171.719 11.528 173.925 9.46954C176.132 7.41111 176.239 3.93656 174.181 1.72993C172.114 -0.476704 168.647 -0.58379 166.441 1.47464C164.234 3.5413 164.127 7.00761 166.186 9.21424ZM172.114 3.66493C173.11 4.73531 173.061 6.41483 171.99 7.41111C170.92 8.40739 169.24 8.35807 168.244 7.28768C167.248 6.2173 167.297 4.53738 168.368 3.54111C169.438 2.54483 171.118 2.59455 172.114 3.66493Z" fill="#F96000"></path><path d="M240.08 256.645C242.147 258.852 245.613 258.959 247.82 256.9C250.026 254.834 250.134 251.367 248.075 249.161C246.017 246.954 242.542 246.847 240.335 248.905C238.129 250.972 238.022 254.439 240.08 256.645ZM246.008 251.096C247.005 252.166 246.955 253.845 245.885 254.842C244.814 255.838 243.135 255.789 242.139 254.718C241.142 253.648 241.192 251.968 242.262 250.972C243.332 249.976 245.012 250.025 246.008 251.096Z" fill="#262830"></path><path d="M174.525 29.0082C176.062 29.0082 177.308 27.7623 177.308 26.2253C177.308 24.6883 176.062 23.4424 174.525 23.4424C172.988 23.4424 171.742 24.6883 171.742 26.2253C171.742 27.7623 172.988 29.0082 174.525 29.0082Z" fill="#32C7E8"></path><path d="M85.2963 85.6888C87.3971 85.6888 89.1001 83.986 89.1001 81.8851C89.1001 79.7842 87.3971 78.0811 85.2963 78.0811C83.1954 78.0811 81.4922 79.7842 81.4922 81.8851C81.4922 83.986 83.1954 85.6888 85.2963 85.6888Z" fill="#262830"></path><path d="M103.541 95.9734C105.078 95.9734 106.324 94.7275 106.324 93.1905C106.324 91.6535 105.078 90.4072 103.541 90.4072C102.004 90.4072 100.758 91.6535 100.758 93.1905C100.758 94.7275 102.004 95.9734 103.541 95.9734Z" fill="#F96000"></path><path d="M230.627 212.661C232.164 212.661 233.41 211.416 233.41 209.879C233.41 208.342 232.164 207.096 230.627 207.096C229.09 207.096 227.844 208.342 227.844 209.879C227.844 211.416 229.09 212.661 230.627 212.661Z" fill="#32C7E8"></path><path d="M81.4882 141.761L81.0353 141.95L80.5824 142.132L79.6686 142.502L79.4627 142.584L78.5322 142.963C79.0345 143.251 79.4462 143.893 79.4462 144.387L79.4627 153.313L83.5384 155.668V146.759C83.5384 146.265 83.9501 146.1 84.4524 146.388L82.4022 143.177L81.9493 142.469L81.4964 141.753L81.4882 141.761ZM78.17 144.017L77.9724 144.099L76.8855 144.544L72.1264 146.487L71.1878 146.874L73.0898 147.969C73.5921 148.257 74.0037 148.9 74.0037 149.394V150.168L78.1782 152.58V144.025L78.17 144.017ZM84.8146 147.862V156.417L88.9892 158.829V158.056C88.9892 157.561 89.4008 157.397 89.903 157.685L91.805 158.78L90.8663 157.315L86.1074 149.879L85.0205 148.175L84.8229 147.862H84.8146ZM69.2036 148.669L70.0679 150.028L72.1183 153.239L75.5435 158.599V157.99C75.5435 157.125 76.2515 156.837 77.1243 157.348L78.4994 158.146V165.03L78.5075 165.046L79.4215 164.675H79.4545L81.4799 163.836L83.5384 167.047L84.4524 168.471H84.4689V161.588L85.8438 162.387C86.7166 162.889 87.4247 164 87.4247 164.857V165.458L90.8581 164.058L92.9084 163.227L93.7728 162.872L69.1953 148.686L69.2036 148.669Z" fill="#262830"></path><path d="M228.929 98.2619C223.141 94.038 217.616 92.5233 213.244 93.4455C213.211 93.4455 203.446 95.6106 203.413 95.6189C198.456 96.6234 194.965 100.74 194.232 107.599C192.849 120.493 201.716 138.278 213.993 147.228C219.781 151.452 225.306 152.967 229.678 152.045C229.711 152.045 239.476 149.879 239.509 149.871C244.466 148.866 247.957 144.749 248.69 137.883C250.073 124.989 241.205 107.212 228.929 98.2538V98.2619Z" fill="url(#paint1_linear_2750_43258)"></path><path d="M205.166 97.1584C200.3 95.7916 194.965 100.74 194.232 107.607C192.849 120.501 201.716 138.286 213.993 147.236C219.781 151.46 228.468 152.258 232.84 151.353C232.873 151.353 247.29 108.974 205.166 97.1584Z" fill="white"></path><path d="M222.664 120.115C222.664 123.531 219.856 124.676 216.39 122.675C212.924 120.675 210.116 116.286 210.116 112.869C210.116 109.452 212.924 108.308 216.39 110.308C219.856 112.309 222.664 116.698 222.664 120.115ZM216.39 136.409C223.759 140.666 226.419 140.625 226.419 140.625C226.419 135.166 221.931 128.142 216.39 124.948C210.849 121.753 206.361 123.581 206.361 129.04C206.361 129.04 209.721 132.548 216.39 136.401V136.409ZM234.397 137.611C233.203 148.76 224.846 151.839 214.233 144.091C203.62 136.351 195.954 120.979 197.148 109.831C198.342 98.6824 206.839 96.4755 217.452 104.215C228.065 111.955 235.591 126.454 234.405 137.611H234.397ZM238.662 140.114C240.045 127.22 231.178 109.444 218.901 100.485C206.625 91.5272 195.509 94.7385 194.134 107.632C192.751 120.526 201.619 138.303 213.895 147.261C226.172 156.219 237.287 153.008 238.662 140.114Z" fill="url(#paint2_linear_2750_43258)"></path><path d="M228.445 153.897C224.106 153.897 219.223 152.045 214.398 148.529C201.718 139.283 192.571 120.855 194.003 107.467C194.785 100.148 198.606 95.2733 204.468 94.1041C204.584 94.0794 207.004 93.5441 209.417 93.009C211.871 92.4655 214.332 91.922 214.349 91.9138C219.33 90.8599 225.341 92.663 231.277 96.9939C243.957 106.24 253.105 124.668 251.672 138.056C250.89 145.359 247.086 150.225 241.24 151.411C241.166 151.427 238.21 152.078 235.559 152.662C233.393 153.14 231.434 153.576 231.417 153.576L231.351 153.593C230.413 153.79 229.441 153.889 228.437 153.889L228.445 153.897ZM217.263 94.7546C216.481 94.7546 215.724 94.8285 214.999 94.985C214.933 95.0014 212.513 95.5369 210.1 96.0721C207.647 96.6155 205.185 97.1586 205.168 97.1668L205.061 97.1917C200.582 98.081 197.758 101.852 197.124 107.805C195.798 120.205 204.378 137.339 216.251 146.001C221.479 149.821 226.634 151.427 230.742 150.538L230.816 150.521C231.162 150.447 232.949 150.052 234.9 149.616C237.593 149.023 240.614 148.356 240.631 148.348C245.118 147.442 247.934 143.671 248.568 137.734C249.894 125.334 241.314 108.2 229.441 99.5384C225.151 96.4096 220.919 94.7626 217.272 94.7626L217.263 94.7546Z" fill="url(#paint3_linear_2750_43258)"></path><path d="M1.28451 209.878C0.576408 209.878 0 209.301 0 208.593V173.197C0 172.489 0.576408 171.912 1.28451 171.912C1.99261 171.912 2.56881 172.489 2.56881 173.197V208.593C2.56881 209.301 1.99261 209.878 1.28451 209.878Z" fill="url(#paint4_linear_2750_43258)"></path><path d="M14.4642 202.27C13.7561 202.27 13.1797 201.693 13.1797 200.985V177.931C13.1797 177.223 13.7561 176.646 14.4642 176.646C15.1723 176.646 15.7485 177.223 15.7485 177.931V200.985C15.7485 201.693 15.1723 202.27 14.4642 202.27Z" fill="url(#paint5_linear_2750_43258)"></path><path d="M27.6478 194.654C26.9397 194.654 26.3633 194.077 26.3633 193.369V176.482C26.3633 175.774 26.9397 175.197 27.6478 175.197C28.3559 175.197 28.9321 175.774 28.9321 176.482V193.369C28.9321 194.077 28.3559 194.654 27.6478 194.654Z" fill="url(#paint6_linear_2750_43258)"></path><path d="M40.8314 187.045C40.1233 187.045 39.5469 186.469 39.5469 185.761V162.706C39.5469 161.998 40.1233 161.422 40.8314 161.422C41.5395 161.422 42.1157 161.998 42.1157 162.706V185.761C42.1157 186.469 41.5395 187.045 40.8314 187.045Z" fill="url(#paint7_linear_2750_43258)"></path><defs><linearGradient id="paint0_linear_2750_43258" x1="166.066" y1="285.415" x2="166.996" y2="146.388" gradientUnits="userSpaceOnUse"><stop stop-color="#67CBEB"></stop><stop offset="1" stop-color="#5070C9"></stop></linearGradient><linearGradient id="paint1_linear_2750_43258" x1="220.983" y1="96.1955" x2="221.906" y2="147.813" gradientUnits="userSpaceOnUse"><stop stop-color="#67CBEB"></stop><stop offset="1" stop-color="#5070C9"></stop></linearGradient><linearGradient id="paint2_linear_2750_43258" x1="193.986" y1="123.869" x2="238.802" y2="123.869" gradientUnits="userSpaceOnUse"><stop stop-color="#262A32"></stop><stop offset="1" stop-color="#262932"></stop></linearGradient><linearGradient id="paint3_linear_2750_43258" x1="193.855" y1="122.757" x2="251.829" y2="122.757" gradientUnits="userSpaceOnUse"><stop stop-color="#262A32"></stop><stop offset="1" stop-color="#262932"></stop></linearGradient><linearGradient id="paint4_linear_2750_43258" x1="2.16538" y1="159.71" x2="0.156283" y2="230.305" gradientUnits="userSpaceOnUse"><stop stop-color="#32C9EA"></stop><stop offset="1" stop-color="#4671CA"></stop></linearGradient><linearGradient id="paint5_linear_2750_43258" x1="15.2957" y1="160.08" x2="13.2865" y2="230.685" gradientUnits="userSpaceOnUse"><stop stop-color="#32C9EA"></stop><stop offset="1" stop-color="#4671CA"></stop></linearGradient><linearGradient id="paint6_linear_2750_43258" x1="28.3475" y1="160.45" x2="26.3384" y2="231.056" gradientUnits="userSpaceOnUse"><stop stop-color="#32C9EA"></stop><stop offset="1" stop-color="#4671CA"></stop></linearGradient><linearGradient id="paint7_linear_2750_43258" x1="41.2182" y1="160.813" x2="39.2091" y2="231.417" gradientUnits="userSpaceOnUse"><stop stop-color="#32C9EA"></stop><stop offset="1" stop-color="#4671CA"></stop></linearGradient></defs></svg> 