<?xml version="1.0" encoding="UTF-8"?> <svg xmlns="http://www.w3.org/2000/svg" width="395" height="300" viewBox="0 0 395 300" fill="none"><path d="M1.34472 171.515C0.603428 171.515 0 170.911 0 170.17V133.114C0 132.373 0.603428 131.769 1.34472 131.769C2.08601 131.769 2.68923 132.373 2.68923 133.114V170.17C2.68923 170.911 2.08601 171.515 1.34472 171.515Z" fill="url(#paint0_linear_2750_43399)"></path><path d="M15.1455 163.55C14.4042 163.55 13.8008 162.947 13.8008 162.205V138.07C13.8008 137.329 14.4042 136.725 15.1455 136.725C15.8868 136.725 16.49 137.329 16.49 138.07V162.205C16.49 162.947 15.8868 163.55 15.1455 163.55Z" fill="url(#paint1_linear_2750_43399)"></path><path d="M28.9461 155.577C28.2048 155.577 27.6016 154.974 27.6016 154.233V136.554C27.6016 135.812 28.2048 135.209 28.9461 135.209C29.6874 135.209 30.2908 135.812 30.2908 136.554V154.233C30.2908 154.974 29.6874 155.577 28.9461 155.577Z" fill="url(#paint2_linear_2750_43399)"></path><path d="M42.7429 147.612C42.0017 147.612 41.3984 147.009 41.3984 146.268V122.133C41.3984 121.391 42.0017 120.788 42.7429 120.788C43.4842 120.788 44.0877 121.391 44.0877 122.133V146.268C44.0877 147.009 43.4842 147.612 42.7429 147.612Z" fill="url(#paint3_linear_2750_43399)"></path><path d="M56.5554 139.639C55.8142 139.639 55.2109 139.035 55.2109 138.294V101.238C55.2109 100.497 55.8142 99.8934 56.5554 99.8934C57.2967 99.8934 57.9002 100.497 57.9002 101.238V138.294C57.9002 139.035 57.2967 139.639 56.5554 139.639Z" fill="url(#paint4_linear_2750_43399)"></path><path d="M70.3523 131.674C69.611 131.674 69.0078 131.071 69.0078 130.329V106.194C69.0078 105.453 69.611 104.85 70.3523 104.85C71.0936 104.85 71.697 105.453 71.697 106.194V130.329C71.697 131.071 71.0936 131.674 70.3523 131.674Z" fill="url(#paint5_linear_2750_43399)"></path><g opacity="0.2"><path d="M370.8 188.77C371.575 188.322 371.567 187.21 370.791 186.771C364.102 182.995 341.794 170.411 341.708 170.428L47.2684 215.078C47.2684 215.078 39.7609 221.137 34.2701 224.594C33.0203 225.378 33.0462 226.645 34.3133 227.404C41.7262 231.826 117.7 277.174 118.389 277.579C120.32 278.742 122.682 278.924 124.768 278.062C126.475 277.355 128.897 276.45 132.103 275.458C132.991 275.562 133.758 275.657 134.646 275.76L137.844 277.682C136.068 277.889 154.489 287.664 156.523 288.879L173.219 298.887C175.633 300.335 178.641 300.369 181.089 298.99L221.67 276.07C224.937 274.226 354.164 198.356 370.817 188.753L370.8 188.77Z" fill="#262830"></path></g><path d="M92.5754 151.618C92.5754 151.618 88.8432 146.291 87.7227 134.473C87.7227 134.473 113.047 137.016 143.501 118.631C173.963 100.253 110.427 153.23 110.427 153.23L92.5754 151.618Z" fill="white"></path><path d="M91.9381 152.722L91.628 152.283C91.4728 152.059 87.7059 146.576 86.5681 134.586V134.517C86.4991 133.828 87.0768 133.25 87.7664 133.319H87.8352C87.8352 133.319 88.9213 133.431 90.9038 133.431C98.6702 133.431 119.297 131.897 142.906 117.649C148.828 114.072 150.535 113.589 151.423 113.589C152.121 113.589 152.457 113.925 152.664 114.218C153.5 115.39 154.362 116.606 132.494 135.854C122.064 145.034 111.272 154.041 111.169 154.127L110.807 154.438L91.9468 152.731L91.9381 152.722ZM110.057 152.033C123.305 140.974 144.423 122.665 149.526 116.597C148.414 117.132 146.716 118.045 144.104 119.623C120.004 134.164 98.8511 135.733 90.8779 135.733C90.1366 135.733 89.5161 135.716 89.0248 135.698C90.0161 144.249 92.3864 148.999 93.2656 150.507L110.057 152.024V152.033Z" fill="#262830"></path><path d="M110.661 153.981L92.1722 152.309L91.9825 152.033C91.8274 151.809 88.1295 146.413 87.0003 134.544L86.9141 133.665L87.7933 133.751C88.0433 133.777 113.247 136.035 143.123 118.011C150.708 113.434 151.743 113.676 152.303 114.469C152.924 115.339 153.777 116.537 132.202 135.527C121.772 144.707 110.997 153.697 110.885 153.792L110.653 153.981H110.661ZM92.9996 150.921L110.187 152.473C125.099 140.035 148.226 119.916 150.803 115.589C149.984 115.848 148.114 116.693 143.873 119.253C116.721 135.639 93.3013 135.483 88.526 135.251C89.5518 144.698 92.2755 149.732 92.991 150.921H92.9996Z" fill="#262830"></path><path d="M52.6523 202.054C51.5921 203.14 43.8862 210.536 30.4998 211.82C30.1723 211.854 30.0775 212.277 30.3533 212.441L122.877 265.917C122.929 265.943 122.98 265.96 123.041 265.96C124.549 265.943 146.374 265.434 162.234 249.979C178.31 234.317 58.3069 203.338 52.9541 201.968C52.8421 201.942 52.7301 201.968 52.6439 202.054H52.6523Z" fill="white"></path><path d="M123.04 267.115C122.79 267.115 122.54 267.046 122.307 266.916L29.7834 213.44C29.2231 213.112 28.93 212.474 29.0765 211.837C29.2144 211.199 29.7489 210.725 30.404 210.664C43.4714 209.406 51.0135 202.079 51.8324 201.243C52.1168 200.959 52.4875 200.795 52.884 200.795C53.0133 200.795 53.1341 200.812 53.2634 200.846C64.2018 203.648 160.233 228.723 164.707 245.496C165.233 247.453 164.673 249.238 163.061 250.815C146.787 266.667 124.031 267.106 123.066 267.123H123.04V267.115ZM123.272 264.796C126.117 264.718 146.528 263.675 161.44 249.151C162.432 248.186 162.759 247.212 162.466 246.091C161.018 240.669 146.425 232.86 120.264 223.499C92.4915 213.561 62.1588 205.527 53.1426 203.208C51.048 205.225 44.2729 210.923 33.0846 212.664L123.281 264.796H123.272Z" fill="#262830"></path><path d="M123.037 266.684C122.865 266.684 122.684 266.632 122.52 266.546L29.9963 213.07C29.5998 212.837 29.3928 212.38 29.4876 211.932C29.5911 211.475 29.9704 211.139 30.4273 211.096C43.6499 209.829 51.2954 202.39 52.1229 201.545C52.3901 201.278 52.7693 201.166 53.14 201.261C64.0525 204.062 159.86 229.068 164.273 245.6C164.756 247.393 164.239 249.04 162.739 250.496C146.577 266.244 123.994 266.667 123.046 266.675H123.028L123.037 266.684ZM31.7718 212.406L123.149 265.219C125.149 265.176 146.396 264.383 161.731 249.453C162.834 248.376 163.205 247.238 162.869 245.971C159.455 233.188 89.6444 212.13 53.0022 202.726C51.2782 204.433 44.0376 210.872 31.7718 212.406Z" fill="#262830"></path><path d="M66.9231 161.007C66.9231 161.007 63.1909 155.68 62.0703 143.862C62.0703 143.862 87.3949 146.405 117.848 128.019C148.31 109.642 84.7744 162.619 84.7744 162.619L66.9231 161.007Z" fill="#CDDCE8"></path><path d="M66.2855 162.111L65.9753 161.671C65.8115 161.438 62.0533 155.939 60.9155 143.975C60.8465 143.251 61.4585 142.639 62.1825 142.717C62.1825 142.717 63.2773 142.82 65.2512 142.82C73.0261 142.82 93.6445 141.286 117.254 127.037C123.175 123.46 124.882 122.978 125.77 122.978C126.477 122.978 126.813 123.34 127.011 123.607C127.847 124.779 128.709 125.994 106.841 145.242C96.351 154.474 85.6109 163.43 85.5161 163.516L85.1455 163.826L66.2855 162.119V162.111ZM84.3955 161.421C97.6439 150.362 118.762 132.054 123.874 125.986C122.762 126.52 121.064 127.434 118.452 129.011C94.3512 143.553 73.1985 145.121 65.2253 145.121C64.484 145.121 63.8635 145.104 63.3722 145.087C64.372 153.638 66.7338 158.387 67.613 159.895L84.4041 161.413L84.3955 161.421Z" fill="#262830"></path><path d="M85.0057 163.369L66.5165 161.697L66.3183 161.421C66.1631 161.197 62.4652 155.801 61.3361 143.932L61.25 143.052L62.129 143.139C62.379 143.164 87.5831 145.423 117.459 127.399C125.044 122.822 126.078 123.072 126.639 123.856C127.259 124.727 128.113 125.925 106.538 144.914C96.1078 154.094 85.3332 163.084 85.2212 163.179L84.9884 163.369H85.0057ZM67.344 160.309L84.5318 161.86C99.4438 149.414 122.57 129.304 125.148 124.977C124.329 125.236 122.458 126.08 118.217 128.64C91.0653 145.026 67.6457 144.871 62.8704 144.638C63.8961 154.086 66.6199 159.12 67.3353 160.309H67.344Z" fill="#262830"></path><path d="M39.9062 179.305L57.8093 189.235C57.8093 189.235 57.8091 189.235 57.8178 189.235L65.6531 179.305C65.6531 179.305 65.6531 179.305 65.6531 179.296L54.1716 170.314L39.9149 179.296V179.305H39.9062Z" fill="white"></path><path d="M52.9999 168.859L54.0169 167.842L67.4119 178.323L67.5843 179.978L66.9723 180.599L58.9819 190.83L57.4993 191.227L56.8011 190.77L38.0015 180.306C37.4757 180.013 37.4414 179.263 37.9413 178.927M58.1544 188.279L65.0156 179.582L54.2152 171.134L41.596 179.09L58.163 188.279H58.1544Z" fill="#262830"></path><path d="M257.039 84.7227L274.916 77.2754C274.916 77.2754 302.456 110.952 352.122 143.19L302.714 172.083L241.859 98.3677L257.03 84.7227H257.039Z" fill="white"></path><path d="M240.266 98.2557L256.531 83.6883L274.718 76.1116C275.046 75.9737 275.425 76.0599 275.658 76.3357C279.201 80.499 307.241 112.685 352.77 142.224L352.864 142.285L353.304 143.078C353.416 143.293 353.347 143.552 353.14 143.681L302.474 173.592L240.283 98.2641L240.266 98.2557ZM302.982 170.592L349.925 143.147C305.284 113.874 278.408 83.1797 274.581 78.6888L257.669 85.7313L243.463 98.5055L302.982 170.601V170.592Z" fill="#262830"></path><path d="M302.55 173.023L240.859 98.2992L256.763 84.0594L275.14 76.4053L275.485 76.8276C275.76 77.1638 303.533 110.798 352.527 142.587L352.915 143.302L302.55 173.032V173.023ZM242.868 98.4459L302.878 171.144L350.734 143.165C305.093 113.358 278.036 82.1202 274.692 78.1637L257.418 85.3524L242.851 98.4459H242.868Z" fill="#262830"></path><path d="M236.89 75.8545L254.767 68.4072C254.767 68.4072 285.505 102.102 335.18 134.339L282.566 163.215L221.711 89.4996L236.882 75.8545H236.89Z" fill="#CDDCE8"></path><path d="M220.109 89.3785L236.375 74.8111L254.476 67.2776C254.83 67.131 255.243 67.2086 255.502 67.493C259.441 71.6908 289.989 103.636 335.811 133.373L337.441 134.425L282.283 164.689L220.118 89.3785H220.109ZM282.843 161.732L332.924 134.252C288.119 104.902 258.605 74.1993 254.468 69.786L237.513 76.8455L223.307 89.6199L282.843 161.732Z" fill="#262830"></path><path d="M282.385 164.137L220.711 89.4218L236.614 75.182L254.966 67.5449L255.31 67.9241C255.621 68.2603 286.565 101.929 335.585 133.735L336.611 134.399L282.402 164.146L282.385 164.137ZM222.719 89.5682L282.747 162.275L333.767 134.278C287.962 104.385 258.112 73.0443 254.577 69.2689L237.278 76.4664L222.711 89.5596L222.719 89.5682Z" fill="#262830"></path><path d="M160.754 102.583C160.754 102.583 189.13 87.0759 209.714 64.6216L218.721 54.1055L342.551 139.199L226.186 152.68L160.763 102.574L160.754 102.583Z" fill="white"></path><path d="M158.634 102.42L160.194 101.566C160.478 101.411 188.785 85.7319 208.852 63.8379L218.506 52.5635L345.741 139.993L225.841 153.888L158.625 102.42H158.634ZM226.514 151.483L339.336 138.407L218.911 55.6578L210.584 65.3808C192.768 84.8268 168.805 99.2821 162.84 102.73L226.505 151.483H226.514Z" fill="#262830"></path><path d="M225.97 153.439L159.418 102.48L160.401 101.945C160.685 101.79 188.914 86.2402 209.171 64.1307L218.583 53.1406L344.551 139.699L225.97 153.439ZM162.073 102.669L226.393 151.922L340.535 138.691L218.851 55.0714L210.274 65.0874C191.974 85.0592 167.253 99.7127 162.082 102.661L162.073 102.669Z" fill="#262830"></path><path d="M48.9879 167.316L179.783 242.833C179.783 242.833 179.861 242.851 179.904 242.833L352.133 143.397C352.211 143.354 352.211 143.242 352.133 143.19L221.339 67.6727C221.339 67.6727 221.261 67.6555 221.218 67.6727L48.9879 167.109C48.9103 167.152 48.9103 167.265 48.9879 167.316Z" fill="white"></path><path d="M179.844 244.005C179.62 244.005 179.396 243.945 179.206 243.833L48.4113 168.316C48.0148 168.091 47.7734 167.669 47.7734 167.212C47.7734 166.756 48.0234 166.333 48.4113 166.109L220.641 66.6724C220.839 66.5603 221.055 66.5 221.279 66.5C221.503 66.5 221.719 66.5603 221.917 66.6724L352.72 142.189C353.117 142.414 353.358 142.845 353.358 143.293C353.358 143.741 353.117 144.172 352.72 144.396L180.491 243.833C180.301 243.945 180.077 244.005 179.853 244.005H179.844ZM179.844 241.523L349.988 143.284L221.27 68.9737L51.1266 167.212L179.844 241.523Z" fill="#262830"></path><path d="M179.843 243.574C179.696 243.574 179.55 243.539 179.42 243.462L48.6255 167.945C48.3669 167.798 48.2031 167.514 48.2031 167.212C48.2031 166.91 48.3669 166.626 48.6255 166.479L220.855 67.0425C221.114 66.896 221.441 66.896 221.7 67.0425L352.495 142.56C352.754 142.706 352.917 142.991 352.917 143.292C352.917 143.594 352.754 143.87 352.495 144.025L180.265 243.462C180.136 243.539 179.989 243.574 179.843 243.574ZM50.272 167.212L179.843 242.022L350.849 143.292L221.278 68.4821L50.272 167.212Z" fill="#262830"></path><path d="M48.8047 167.419V211.974C48.8047 211.974 48.8306 212.051 48.8651 212.077L179.66 287.594C179.738 287.637 179.832 287.585 179.832 287.491V242.936C179.832 242.936 179.807 242.858 179.772 242.832L48.9772 167.315C48.8997 167.272 48.8047 167.324 48.8047 167.419Z" fill="#CDDCE8"></path><path d="M179.72 288.767C179.496 288.767 179.272 288.707 179.073 288.595L48.2785 213.078C47.882 212.854 47.6406 212.431 47.6406 211.975V167.419C47.6406 166.963 47.882 166.54 48.2785 166.316C48.4681 166.204 48.6922 166.144 48.9163 166.144C49.1404 166.144 49.3645 166.204 49.5542 166.316L180.358 241.833C180.754 242.057 180.996 242.479 180.996 242.936V287.491C180.996 287.948 180.746 288.371 180.358 288.595C180.168 288.707 179.944 288.767 179.72 288.767ZM178.677 285.69V243.54L49.9593 169.229V211.38L178.677 285.69Z" fill="#262830"></path><path d="M179.718 288.337C179.571 288.337 179.425 288.303 179.295 288.225L48.5005 212.708C48.2419 212.561 48.0781 212.277 48.0781 211.975V167.42C48.0781 167.119 48.2419 166.843 48.5005 166.688C48.7591 166.533 49.0866 166.533 49.3452 166.688L180.14 242.205C180.399 242.351 180.563 242.636 180.563 242.937V287.492C180.563 287.794 180.399 288.079 180.14 288.225C180.011 288.303 179.864 288.337 179.718 288.337ZM49.5348 211.622L179.115 286.432V243.282L49.5348 168.472V211.622Z" fill="#262830"></path><path d="M352.306 143.5V188.055C352.306 188.055 352.28 188.132 352.246 188.158L180.016 287.595C179.939 287.638 179.844 287.586 179.844 287.491V242.936C179.844 242.936 179.87 242.859 179.904 242.833L352.134 143.396C352.212 143.353 352.306 143.405 352.306 143.5Z" fill="#CDDCE8"></path><path d="M179.964 288.768C179.74 288.768 179.524 288.707 179.326 288.604C178.93 288.371 178.68 287.949 178.68 287.492V242.937C178.68 242.48 178.921 242.058 179.318 241.834L351.547 142.397C351.745 142.285 351.961 142.225 352.185 142.225C352.409 142.225 352.633 142.285 352.823 142.397C353.22 142.63 353.461 143.052 353.461 143.501V188.056C353.461 188.521 353.211 188.943 352.806 189.168L180.593 288.595C180.404 288.707 180.179 288.768 179.955 288.768H179.964ZM181.007 285.691L351.151 187.461V145.311L181.007 243.54V285.691Z" fill="#262830"></path><path d="M179.962 288.336C179.815 288.336 179.669 288.302 179.54 288.225C179.281 288.069 179.117 287.793 179.117 287.492V242.937C179.117 242.635 179.281 242.351 179.54 242.204L351.769 142.767C352.028 142.612 352.355 142.621 352.614 142.767C352.872 142.923 353.036 143.199 353.036 143.5V188.055C353.036 188.366 352.873 188.641 352.605 188.796L180.384 288.225C180.255 288.302 180.108 288.336 179.962 288.336ZM180.574 243.29V286.432L351.58 187.702V144.56L180.574 243.29Z" fill="#262830"></path><path d="M83.5595 187.279C83.5595 187.279 60.7001 177.978 55.4766 155.145C55.4766 155.145 77.655 151.283 118.452 127.372C159.24 103.461 221.337 67.6807 221.337 67.6807L352.132 143.396L179.781 242.833L83.5595 187.279Z" fill="white"></path><path d="M83.0245 188.304C58.967 175.969 54.8553 159.17 54.1915 155.118C54.114 154.619 54.4243 154.144 54.9157 154.032C59.4496 153.032 82.0849 147.335 117.857 126.363C158.317 102.642 220.146 67.008 220.75 66.6632L221.327 66.3271L352.182 142.361C352.889 142.775 352.889 143.792 352.182 144.197L179.772 244.151L83.0159 188.287L83.0245 188.304ZM56.8896 156.032C62.4321 177.288 83.783 186.123 83.9985 186.209L84.119 186.27L179.78 241.505L349.812 143.404L221.327 69.025C210.268 75.4036 155.568 106.96 119.029 128.38C83.6967 149.093 61.8976 154.894 56.881 156.041L56.8896 156.032Z" fill="#262830"></path><path d="M179.781 243.677L179.419 243.47L83.241 187.942C82.0343 187.433 59.8989 177.745 54.7702 155.316L54.5977 154.566L55.3563 154.437C55.5804 154.403 77.914 150.299 118.082 126.751C158.413 103.107 220.345 67.4126 220.966 67.0506L221.328 66.8438L221.69 67.0506L352.908 143.3L179.773 243.677H179.781ZM56.3561 155.713C61.752 177.4 83.6116 186.519 83.8357 186.614L83.9218 186.657L179.773 241.996L350.667 143.395L221.32 68.5161C216.139 71.5072 157.517 105.305 118.806 128C82.4823 149.291 60.5884 154.782 56.3475 155.713H56.3561Z" fill="#262830"></path><path d="M82.1176 212.776C81.9107 212.776 81.7123 212.724 81.5313 212.621L68.6449 205.079C68.0933 204.76 67.9037 204.044 68.2312 203.492C68.4381 203.139 68.8261 202.915 69.2312 202.915C69.4381 202.915 69.6363 202.967 69.8173 203.07L82.7037 210.612C83.2554 210.931 83.445 211.647 83.1174 212.198C82.9105 212.552 82.5227 212.776 82.1176 212.776Z" fill="#262830"></path><path d="M142.785 254.676C142.587 254.676 142.389 254.624 142.216 254.521L96.1355 228.291C95.8683 228.136 95.6699 227.886 95.5924 227.584C95.5148 227.283 95.558 226.972 95.7131 226.697C95.92 226.343 96.3078 226.119 96.713 226.119C96.9112 226.119 97.1094 226.171 97.2818 226.274L143.363 252.504C143.63 252.659 143.828 252.909 143.906 253.211C143.983 253.512 143.94 253.823 143.785 254.099C143.578 254.452 143.19 254.676 142.785 254.676Z" fill="#262830"></path><path d="M193.765 250.867C193.334 250.867 192.946 250.634 192.739 250.255C192.446 249.703 192.635 249.022 193.178 248.712L269.308 204.432C269.489 204.329 269.687 204.277 269.885 204.277C270.316 204.277 270.704 204.51 270.911 204.889C271.204 205.441 271.014 206.122 270.471 206.432L194.342 250.711C194.161 250.815 193.963 250.867 193.765 250.867Z" fill="#262830"></path><path d="M178.599 254.693C178.4 254.693 178.194 254.641 178.021 254.538L159.842 244.022C159.575 243.867 159.386 243.617 159.299 243.315C159.213 243.013 159.265 242.703 159.42 242.436C159.627 242.074 160.015 241.858 160.428 241.858C160.627 241.858 160.834 241.91 161.006 242.013L179.185 252.521C179.736 252.84 179.926 253.547 179.607 254.107C179.4 254.469 179.012 254.685 178.599 254.685V254.693Z" fill="#262830"></path><path d="M302.436 206.871C301.988 206.871 301.574 206.613 301.385 206.208C301.126 205.665 301.333 205.01 301.859 204.708L350.784 176.841C350.965 176.737 351.155 176.686 351.353 176.686C351.801 176.686 352.215 176.944 352.404 177.349C352.663 177.892 352.456 178.547 351.93 178.849L303.005 206.716C302.824 206.82 302.634 206.871 302.436 206.871Z" fill="#262830"></path><path d="M305.764 144.535C304.937 144.535 304.187 144.38 303.713 144.104L231.79 102.652C231.79 102.652 231.721 102.609 231.695 102.592C231.799 102.471 231.997 102.308 232.299 102.127C233.1 101.661 234.186 101.402 235.29 101.402C236.117 101.402 236.867 101.558 237.341 101.833L309.264 143.286C309.264 143.286 309.333 143.328 309.358 143.346C309.255 143.466 309.057 143.63 308.755 143.811C307.954 144.277 306.859 144.544 305.764 144.544V144.535Z" fill="#262830"></path><path d="M288.776 154.612C287.949 154.612 287.199 154.456 286.724 154.181L214.802 112.728C214.802 112.728 214.733 112.685 214.707 112.668C214.81 112.548 215.009 112.384 215.311 112.203C216.112 111.737 217.198 111.479 218.302 111.479C219.129 111.479 219.879 111.634 220.353 111.91L292.276 153.362C292.276 153.362 292.345 153.405 292.37 153.422C292.267 153.543 292.069 153.706 291.767 153.887C290.965 154.353 289.879 154.612 288.776 154.612Z" fill="#262830"></path><path d="M272.116 164.679C271.288 164.679 270.538 164.524 270.064 164.248L198.142 122.796C198.142 122.796 198.073 122.753 198.047 122.736C198.159 122.615 198.349 122.451 198.65 122.27C199.452 121.805 200.538 121.546 201.641 121.546C202.469 121.546 203.219 121.701 203.693 121.977L275.615 163.429C275.615 163.429 275.684 163.472 275.71 163.489C275.607 163.61 275.408 163.774 275.107 163.955C274.305 164.42 273.219 164.679 272.116 164.679Z" fill="#262830"></path><path d="M255.126 174.757C254.299 174.757 253.549 174.602 253.075 174.326L215.579 152.785C215.579 152.785 215.51 152.742 215.484 152.725C215.588 152.604 215.786 152.44 216.088 152.259C216.889 151.794 217.975 151.526 219.079 151.526C219.906 151.526 220.656 151.682 221.13 151.957L258.626 173.498C258.626 173.498 258.695 173.541 258.721 173.558C258.609 173.679 258.419 173.843 258.109 174.024C257.307 174.489 256.221 174.748 255.126 174.748V174.757Z" fill="#262830"></path><path d="M237.687 184.074C236.859 184.074 236.109 183.918 235.635 183.643L188.4 156.465C188.4 156.465 188.331 156.422 188.305 156.405C188.408 156.284 188.606 156.12 188.908 155.939C189.71 155.474 190.796 155.215 191.89 155.215C192.718 155.215 193.468 155.37 193.942 155.646L241.178 182.824C241.178 182.824 241.247 182.867 241.273 182.884C241.169 183.005 240.971 183.169 240.669 183.35C239.868 183.815 238.782 184.074 237.678 184.074H237.687Z" fill="#262830"></path><path d="M155.454 175.886C154.627 175.886 153.877 175.73 153.403 175.455L115.907 153.914C115.907 153.914 115.838 153.871 115.812 153.854C115.916 153.733 116.114 153.569 116.416 153.388C117.218 152.923 118.304 152.664 119.407 152.664C120.235 152.664 120.984 152.819 121.458 153.095L158.954 174.636C158.954 174.636 159.023 174.679 159.049 174.696C158.946 174.817 158.747 174.981 158.446 175.162C157.644 175.627 156.558 175.886 155.454 175.886Z" fill="#262830"></path><path d="M116.176 172.566C115.348 172.566 114.598 172.41 114.124 172.135L98.4535 163.222C98.4535 163.222 98.393 163.187 98.3672 163.17C98.4706 163.049 98.6688 162.885 98.9792 162.704C99.7808 162.239 100.867 161.981 101.97 161.981C102.798 161.981 103.548 162.136 104.022 162.412L119.692 171.324C119.692 171.324 119.753 171.359 119.779 171.376C119.675 171.497 119.477 171.66 119.175 171.841C118.374 172.307 117.288 172.566 116.193 172.566H116.176Z" fill="#262830"></path><path d="M163.567 218.061L164.895 218.027L166.222 217.992L168.885 217.932L169.497 217.915L172.23 217.854C171.506 217.363 171.514 216.535 172.256 216.01L185.599 206.554L179.703 202.58L166.325 212.01C165.584 212.536 164.386 212.562 163.662 212.07L163.593 216.216L163.576 217.139L163.559 218.061H163.567Z" fill="#3454A8"></path><path d="M174.626 216.888L175.204 216.871L178.393 216.793L192.314 216.466L195.055 216.405L192.305 214.552C191.581 214.061 191.59 213.242 192.331 212.716L193.495 211.897L187.453 207.82L174.609 216.888H174.626Z" fill="#3454A8"></path><path d="M165.023 210.397L177.867 201.329L171.824 197.252L170.661 198.071C169.919 198.597 168.721 198.623 167.997 198.131L165.248 196.278L165.213 198.175L165.058 207.785L165.023 209.992V210.397Z" fill="#3454A8"></path><path d="M166.79 191.244L169.315 191.184L175.297 191.046L185.339 190.813L184.434 191.451C183.141 192.365 183.115 193.795 184.383 194.649L186.374 195.994L196.691 188.71H196.743L196.717 190.546H196.709L196.64 194.701H196.648L202.579 194.563H202.665L205.328 194.502V194.52L194.993 201.812L196.985 203.157C198.252 204.01 200.32 203.958 201.613 203.044L202.536 202.398L202.423 209.32L202.355 213.466L202.329 215.215L166.781 191.244H166.79Z" fill="#3454A8"></path><path d="M310.832 9.05664L316.03 20.2452C317.935 24.3481 317.159 29.7008 313.246 35.3467C305.367 46.7074 287.758 54.9479 273.914 53.7584C266.95 53.1636 262.269 50.2846 260.338 46.1299L255.141 34.9416C257.071 39.0962 261.752 41.9667 268.717 42.5701C282.56 43.7596 300.161 35.5104 308.048 24.1583C311.961 18.5124 312.737 13.1596 310.832 9.05664Z" fill="#D6E4F9"></path><path d="M296.19 50.0435C288.923 53.4483 280.899 55.2498 273.848 54.6465C266.779 54.0431 261.694 51.1469 259.539 46.5095L254.341 35.3212C254.135 34.873 254.324 34.3471 254.772 34.1402C255.221 33.9333 255.746 34.123 255.953 34.5712C257.832 38.6138 262.392 41.1394 268.805 41.6824C282.338 42.8461 299.621 34.7523 307.327 23.6415C310.921 18.4525 311.886 13.4013 310.033 9.42766C309.826 8.97944 310.016 8.45354 310.464 8.24667C310.912 8.0398 311.438 8.22943 311.645 8.67765L316.842 19.866C318.972 24.443 317.955 30.1148 313.981 35.8469C309.964 41.6307 303.456 46.6387 296.19 50.0349V50.0435ZM258.582 40.2344L261.151 45.7595C263.03 49.7935 267.59 52.3277 274.003 52.8708C287.544 54.0344 304.827 45.9406 312.524 34.8298C316.127 29.6408 317.084 24.5897 315.231 20.616L312.662 15.082C312.36 18.1248 311.05 21.3745 308.783 24.6499C300.75 36.2262 282.752 44.6563 268.65 43.4409C264.573 43.0875 261.159 41.9842 258.582 40.2171V40.2344Z" fill="#262830"></path><path d="M310.832 9.05942L316.03 20.248C317.935 24.3509 317.159 29.7035 313.246 35.3494C305.367 46.7102 287.758 54.9507 273.914 53.7612C266.95 53.1664 262.269 50.2873 260.338 46.1327L255.141 34.9443C257.071 39.099 261.752 41.9695 268.717 42.5728C282.56 43.7624 300.161 35.5132 308.048 24.1611C311.961 18.5152 312.737 13.1624 310.832 9.05942Z" fill="url(#paint6_linear_2750_43399)"></path><path d="M276.606 55.1924C275.658 55.1924 274.718 55.1494 273.804 55.0718C266.573 54.4512 261.366 51.4774 259.142 46.6849L253.945 35.4965C253.643 34.8328 253.927 34.0484 254.582 33.7467C254.764 33.6605 254.945 33.6259 255.143 33.6259C255.651 33.6259 256.125 33.9277 256.341 34.3846C258.151 38.2807 262.59 40.72 268.839 41.2544C269.684 41.3234 270.563 41.3666 271.451 41.3666C284.596 41.3666 299.87 33.6433 306.973 23.4031C310.481 18.352 311.429 13.456 309.645 9.61161C309.343 8.9479 309.628 8.16348 310.283 7.86179C310.464 7.7756 310.645 7.74121 310.843 7.74121C311.352 7.74121 311.826 8.0428 312.041 8.49964L317.239 19.688C319.437 24.4116 318.403 30.2385 314.343 36.0999C310.412 41.763 304.034 46.8485 296.379 50.4343C289.828 53.5029 282.803 55.1924 276.614 55.1924H276.606ZM261.539 45.5729C263.349 49.4604 267.788 51.8997 274.037 52.4427C274.882 52.5117 275.761 52.5549 276.649 52.5549C289.794 52.5549 305.068 44.8316 312.171 34.5914C315.679 29.5317 316.627 24.6357 314.843 20.7999L312.877 16.5764C312.352 19.283 311.093 22.0843 309.136 24.9029C301.577 35.7896 285.363 43.9954 271.408 43.9954C270.46 43.9954 269.512 43.9524 268.607 43.8748C265.081 43.5731 262.047 42.7199 259.573 41.3493L261.539 45.5729Z" fill="#262830"></path><path d="M296.19 50.0454C288.923 53.4502 280.899 55.2518 273.848 54.6484C266.779 54.045 261.694 51.1489 259.539 46.5115L254.341 35.3232C254.135 34.8749 254.324 34.349 254.772 34.1422C255.221 33.9353 255.746 34.1249 255.953 34.5732C257.832 38.6158 262.392 41.1413 268.805 41.6844C282.338 42.848 299.621 34.7542 307.327 23.6435C310.921 18.4544 311.886 13.4033 310.033 9.42962C309.826 8.98139 310.016 8.45549 310.464 8.24862C310.912 8.04175 311.438 8.23138 311.645 8.6796L316.842 19.8679C318.972 24.445 317.955 30.1168 313.981 35.8488C309.964 41.6327 303.456 46.6407 296.19 50.0368V50.0454ZM258.582 40.2363L261.151 45.7615C263.03 49.7955 267.59 52.3297 274.003 52.8727C287.544 54.0364 304.827 45.9426 312.524 34.8318C316.127 29.6427 317.084 24.5916 315.231 20.6179L312.662 15.084C312.36 18.1267 311.05 21.3764 308.783 24.6519C300.75 36.2281 282.752 44.6582 268.65 43.4428C264.573 43.0894 261.159 41.9861 258.582 40.2191V40.2363Z" fill="#262830"></path><path d="M297.262 1.4391C311.105 2.62862 315.932 12.7997 308.054 24.1605C300.175 35.5212 282.566 43.7617 268.722 42.5722C254.879 41.3827 250.052 31.2114 257.93 19.8506C265.809 8.48988 283.419 0.240961 297.262 1.43048V1.4391Z" fill="#BFD0E2"></path><path d="M271.409 44.0035C270.46 44.0035 269.512 43.9605 268.607 43.8829C261.401 43.2623 256.203 40.3058 253.962 35.5478C251.738 30.8242 252.764 24.98 256.833 19.1013C264.392 8.21469 280.606 0 294.561 0C295.509 0 296.457 0.0432162 297.363 0.120793C304.569 0.74141 309.766 3.69789 311.999 8.45595C314.223 13.1882 313.205 19.0237 309.12 24.9024C305.189 30.5655 298.811 35.651 291.156 39.2368C284.605 42.3054 277.58 43.9949 271.391 43.9949L271.409 44.0035ZM294.527 2.63767C288.708 2.63767 282.097 4.23228 275.917 7.12849C268.702 10.5074 262.694 15.2914 259.014 20.6098C255.497 25.6782 254.549 30.5914 256.359 34.4272C258.177 38.2974 262.608 40.7195 268.84 41.2625C269.685 41.3315 270.564 41.3745 271.452 41.3745C284.597 41.3745 299.862 33.6514 306.965 23.4112C310.482 18.3428 311.43 13.4296 309.62 9.59381C307.801 5.72358 303.37 3.30151 297.138 2.75847C296.294 2.68951 295.414 2.6463 294.527 2.6463V2.63767Z" fill="#262830"></path><path d="M290.992 38.8585C283.726 42.2633 275.701 44.0649 268.65 43.4615C261.608 42.8581 256.531 39.979 254.359 35.3675C252.204 30.7818 253.212 25.093 257.194 19.3523C265.228 7.77604 283.226 -0.654057 297.336 0.552698C304.379 1.15608 309.456 4.03496 311.628 8.64648C313.783 13.2322 312.774 18.9212 308.783 24.6705C304.767 30.4543 298.259 35.4623 290.992 38.8585ZM275.735 6.74157C268.762 10.0084 262.513 14.8096 258.66 20.3693C255.048 25.5756 254.091 30.6354 255.971 34.6177C257.858 38.6345 262.418 41.1427 268.805 41.6944C282.347 42.8581 299.629 34.7642 307.327 23.6535C310.938 18.4472 311.895 13.3874 310.016 9.40512C308.128 5.38835 303.568 2.88006 297.181 2.3284C290.415 1.75088 282.709 3.47471 275.735 6.74157Z" fill="#262830"></path><path d="M294.191 18.4628L291.226 18.6955C291.631 17.4543 291.726 16.4372 291.467 15.6873C291.097 14.6098 290.097 14.1356 288.468 14.2649C287.614 14.3339 286.778 14.5667 285.942 14.9804C285.106 15.3942 284.304 15.9458 283.537 16.6353C282.77 17.3335 282.055 18.1525 281.382 19.092L279.572 21.6952C279.132 22.3244 278.676 22.8157 278.202 23.1777C277.728 23.5311 277.297 23.7293 276.917 23.7638C276.392 23.8069 276.081 23.6087 275.978 23.1605C275.874 22.7123 275.995 22.152 276.348 21.4538C276.719 20.7039 277.193 20.0834 277.753 19.6007C278.314 19.1093 278.883 18.7559 279.443 18.5232L280.305 14.4718C279.512 14.6873 278.641 15.1442 277.702 15.8683C276.762 16.5923 275.857 17.4716 275.004 18.5146C274.59 19.0145 274.219 19.5401 273.875 20.0659L270.28 20.3505L268.539 24.0052L272.125 23.7207C271.927 24.3413 271.806 24.9104 271.78 25.4103C271.72 26.3757 271.944 27.0911 272.461 27.5652C272.969 28.0393 273.762 28.2375 274.831 28.1513C276.021 28.0565 277.279 27.5652 278.598 26.6774C279.917 25.7896 281.098 24.5913 282.141 23.0915L283.985 20.4797C284.399 19.9108 284.804 19.4541 285.227 19.1093C285.64 18.7645 286.063 18.5747 286.476 18.5402C287.037 18.4971 287.373 18.661 287.485 19.0403C287.606 19.4195 287.485 19.9627 287.149 20.6695C286.813 21.3763 286.347 21.9795 285.77 22.4622C285.192 22.9449 284.658 23.2812 284.175 23.445L283.356 27.4703C284.416 27.0393 285.39 26.4878 286.278 25.824C287.166 25.1603 287.959 24.3844 288.666 23.4879C288.95 23.1259 289.209 22.7295 289.468 22.333L292.459 22.1003L294.2 18.4455L294.191 18.4628Z" fill="#262830"></path><path d="M81.3125 84.8786L82.0884 76.1036C82.3728 72.8885 84.7691 69.8544 89.2083 67.7598C98.1382 63.5448 111.973 64.7344 120.11 70.4147C124.204 73.2765 126.075 76.7242 125.79 79.9825L125.014 88.7574C125.308 85.4992 123.428 82.0513 119.334 79.1895C111.197 73.5091 97.3623 72.3196 88.4324 76.5346C83.9932 78.6292 81.6056 81.6634 81.3125 84.8786Z" fill="#D6E4F9"></path><path d="M105.006 64.7603C110.721 65.2516 116.324 67.0014 120.47 69.8976C124.625 72.7938 126.737 76.3969 126.418 80.043L125.642 88.8178C125.607 89.1712 125.306 89.4213 124.952 89.3954C124.599 89.361 124.349 89.0592 124.375 88.7058C124.659 85.5338 122.737 82.3445 118.97 79.7155C111.014 74.1645 97.4296 72.9922 88.6979 77.1124C84.6208 79.0346 82.2246 81.8186 81.9488 84.9389C81.9143 85.2837 81.6126 85.5424 81.2592 85.5166C80.9058 85.4821 80.6557 85.1804 80.6815 84.827L81.4574 76.0522C81.7763 72.4578 84.4312 69.3116 88.9392 67.1911C93.4904 65.0448 99.3 64.2776 105.015 64.7689L105.006 64.7603ZM124.771 84.2579L125.159 79.9224C125.444 76.7504 123.521 73.5609 119.755 70.9319C111.79 65.3809 98.2141 64.2086 89.4824 68.3288C85.4053 70.251 83.0003 73.0352 82.7331 76.1555L82.3453 80.4912C83.621 78.7156 85.5863 77.1726 88.1636 75.9573C97.2659 71.6647 111.411 72.88 119.703 78.6638C122.099 80.336 123.815 82.2411 124.78 84.2495L124.771 84.2579Z" fill="#262830"></path><path d="M81.3125 84.8758L82.0884 76.1009C82.3728 72.8857 84.7691 69.8516 89.2083 67.7571C98.1382 63.542 111.973 64.7316 120.11 70.412C124.204 73.2737 126.075 76.7215 125.79 79.9797L125.014 88.7547C125.308 85.4965 123.428 82.0485 119.334 79.1868C111.197 73.5064 97.3623 72.3168 88.4324 76.5318C83.9932 78.6264 81.6056 81.6607 81.3125 84.8758Z" fill="url(#paint7_linear_2750_43399)"></path><path d="M124.918 89.8156C124.332 89.7639 123.893 89.2466 123.944 88.6605C124.212 85.6522 122.358 82.5922 118.721 80.058C114.247 76.9377 107.601 75.0672 100.947 75.0672C96.4129 75.0672 92.241 75.9034 88.8793 77.4894C84.9488 79.3426 82.6303 81.9974 82.3717 84.9626C82.3199 85.5142 81.8629 85.9367 81.3112 85.9367H81.2165C80.6304 85.8764 80.1907 85.3591 80.2424 84.7816L81.0183 75.9982C81.3545 72.2486 84.0955 68.9732 88.7415 66.7838C92.3618 65.0771 96.844 64.1807 101.697 64.1807C102.809 64.1807 103.929 64.2323 105.041 64.3271C111.075 64.8443 116.643 66.6976 120.712 69.5335C125.005 72.5245 127.177 76.2654 126.84 80.0667L126.065 88.8414C126.013 89.3931 125.556 89.8156 125.005 89.8156H124.91H124.918ZM100.921 72.9554C108.136 72.9554 115.066 74.9035 119.936 78.3082C121.901 79.6788 123.418 81.1872 124.461 82.8163L124.72 79.8771C124.987 76.8688 123.134 73.8174 119.496 71.2746C115.023 68.1543 108.377 66.2838 101.723 66.2838C97.1888 66.2838 93.0169 67.12 89.6552 68.706C85.7161 70.5592 83.4059 73.214 83.1473 76.1792L82.8887 79.1271C84.173 77.7479 85.8712 76.5499 87.9658 75.5586C91.5861 73.8519 96.0681 72.9468 100.921 72.9468V72.9554Z" fill="#262830"></path><path d="M105.006 64.7574C110.721 65.2487 116.324 66.9985 120.47 69.8947C124.625 72.7909 126.737 76.3939 126.418 80.0401L125.642 88.8148C125.607 89.1682 125.306 89.4184 124.952 89.3925C124.599 89.358 124.349 89.0563 124.375 88.7029C124.659 85.5308 122.737 82.3416 118.97 79.7126C111.014 74.1615 97.4296 72.9893 88.6979 77.1095C84.6208 79.0316 82.2246 81.8157 81.9488 84.936C81.9143 85.2808 81.6126 85.5395 81.2592 85.5136C80.9058 85.4792 80.6557 85.1774 80.6815 84.824L81.4574 76.0493C81.7763 72.4548 84.4312 69.3086 88.9392 67.1882C93.4904 65.0419 99.3 64.2747 105.015 64.766L105.006 64.7574ZM124.771 84.255L125.159 79.9195C125.444 76.7474 123.521 73.558 119.755 70.929C111.79 65.3779 98.2141 64.2056 89.4824 68.3258C85.4053 70.248 83.0003 73.0323 82.7331 76.1526L82.3453 80.4883C83.621 78.7127 85.5863 77.1697 88.1636 75.9543C97.2659 71.6617 111.411 72.877 119.703 78.6608C122.099 80.333 123.815 82.2382 124.78 84.2466L124.771 84.255Z" fill="#262830"></path><path d="M86.9816 94.444C78.8447 88.7636 79.4911 80.7473 88.421 76.5323C97.351 72.3173 111.186 73.5068 119.323 79.1872C127.46 84.8676 126.813 92.8839 117.883 97.0989C108.953 101.314 95.11 100.124 86.973 94.444H86.9816Z" fill="#BFD0E2"></path><path d="M105.393 100.668C98.1785 100.668 91.2483 98.7202 86.3782 95.3154C82.1028 92.333 79.9305 88.6008 80.2495 84.8167C80.5684 81.0499 83.3096 77.7659 87.9729 75.5678C91.5931 73.8611 96.0666 72.9561 100.919 72.9561C102.031 72.9561 103.152 73.0077 104.264 73.1025C110.306 73.6197 115.866 75.473 119.935 78.3088C124.21 81.2912 126.382 85.0235 126.063 88.8076C125.744 92.5743 123.003 95.8584 118.34 98.0564C114.72 99.7631 110.237 100.668 105.385 100.668H105.393ZM100.945 75.0765C96.4114 75.0765 92.2395 75.9126 88.8778 77.4986C84.93 79.3605 82.6201 82.0239 82.3701 84.9977C82.1201 87.9974 83.9732 91.0401 87.5935 93.5656C91.3775 96.2119 96.5751 97.9359 102.23 98.4186C103.273 98.5048 104.324 98.5565 105.367 98.5565C109.901 98.5565 114.082 97.7203 117.435 96.1343C121.383 94.2724 123.693 91.609 123.943 88.6352C124.193 85.6356 122.339 82.5929 118.719 80.0673C114.246 76.947 107.6 75.0765 100.945 75.0765Z" fill="#262830"></path><path d="M104.231 73.5328C109.946 74.0241 115.549 75.7739 119.695 78.6701C123.841 81.5577 125.953 85.1521 125.643 88.7809C125.341 92.384 122.686 95.5475 118.169 97.6765C109.067 101.969 94.9135 100.754 86.63 94.97C82.4839 92.0824 80.372 88.488 80.6823 84.8592C80.9839 81.2561 83.639 78.0927 88.1643 75.9636C92.7155 73.8173 98.5251 73.0501 104.24 73.5414L104.231 73.5328ZM102.197 98.8489C107.679 99.323 113.256 98.5817 117.626 96.5216C121.721 94.5908 124.117 91.8066 124.384 88.669C124.651 85.5142 122.729 82.3336 118.971 79.7046C111.006 74.1535 97.4303 72.9812 88.6986 77.1014C84.6043 79.0323 82.2081 81.8163 81.9409 84.9539C81.6737 88.1087 83.5957 91.2894 87.3539 93.9184C91.3276 96.694 96.715 98.3748 102.197 98.8489Z" fill="#262830"></path><path d="M94.9634 85.0074L96.8769 85.9211C96.1787 86.5504 95.7651 87.1365 95.653 87.6968C95.4978 88.4984 95.9461 89.1447 96.9977 89.6447C97.5494 89.9033 98.1526 90.0584 98.8164 90.1102C99.4801 90.1533 100.178 90.1016 100.894 89.9464C101.618 89.7913 102.359 89.5414 103.109 89.1966L105.161 88.2311C105.652 87.9984 106.109 87.8605 106.54 87.8001C106.962 87.7484 107.298 87.783 107.54 87.8951C107.876 88.0588 108.005 88.2914 107.902 88.6017C107.807 88.912 107.531 89.2224 107.065 89.5241C106.566 89.8516 106.057 90.0671 105.531 90.1706C105.005 90.274 104.531 90.2913 104.1 90.231L102.118 92.429C102.687 92.5842 103.385 92.6013 104.23 92.4978C105.074 92.3944 105.945 92.1616 106.841 91.8255C107.272 91.6617 107.695 91.4721 108.091 91.2653L110.418 92.3686L112.797 90.7308L110.479 89.6276C110.824 89.3173 111.099 89.0069 111.298 88.7053C111.677 88.1277 111.798 87.6019 111.651 87.1278C111.505 86.6537 111.091 86.2487 110.393 85.9211C109.626 85.5505 108.669 85.4126 107.54 85.4901C106.41 85.5677 105.247 85.8865 104.066 86.4382L101.997 87.395C101.54 87.6019 101.126 87.7312 100.739 87.8001C100.359 87.8691 100.032 87.8345 99.7646 87.7052C99.4026 87.5328 99.256 87.3089 99.3164 87.0331C99.3767 86.7573 99.6438 86.4642 100.101 86.1452C100.566 85.8263 101.057 85.6195 101.592 85.5246C102.126 85.4298 102.566 85.4212 102.928 85.4815L104.867 83.2834C104.057 83.1714 103.255 83.1627 102.471 83.2576C101.687 83.3524 100.911 83.5506 100.161 83.8523C99.8594 83.9729 99.549 84.1281 99.2473 84.2832L97.3165 83.3611L94.9375 84.9987L94.9634 85.0074Z" fill="#262830"></path><path d="M307.271 79.3291L315.512 80.6997C318.537 81.1996 321.226 83.6821 322.89 88.0264C326.226 96.7754 324.105 109.774 318.149 117.049C315.149 120.712 311.753 122.238 308.693 121.721L300.453 120.35C303.513 120.859 306.909 119.342 309.909 115.678C315.865 108.395 317.986 95.3961 314.65 86.6558C312.995 82.3115 310.297 79.829 307.271 79.3291Z" fill="#D6E4F9"></path><path d="M324.581 103.179C323.702 108.541 321.642 113.721 318.608 117.428C315.565 121.152 312.005 122.884 308.592 122.315L300.351 120.945C300.024 120.893 299.799 120.582 299.851 120.255C299.903 119.927 300.213 119.703 300.541 119.755C303.515 120.246 306.678 118.669 309.428 115.29C315.255 108.17 317.34 95.413 314.074 86.8623C312.548 82.8714 310.091 80.3977 307.161 79.915C306.833 79.8633 306.609 79.5529 306.661 79.2254C306.713 78.8978 307.023 78.6736 307.35 78.7254L315.591 80.096C318.961 80.6562 321.745 83.3972 323.435 87.8019C325.133 92.2583 325.443 97.8094 324.564 103.179H324.581ZM304.721 120.453L308.79 121.125C311.764 121.617 314.919 120.039 317.677 116.661C323.504 109.532 325.59 96.7836 322.323 88.2329C320.797 84.242 318.34 81.7681 315.41 81.2854L311.333 80.6044C312.919 81.9404 314.237 83.9143 315.203 86.4313C318.599 95.344 316.436 108.636 310.367 116.057C308.618 118.204 306.687 119.686 304.721 120.453Z" fill="#262830"></path><path d="M307.275 79.3293L315.516 80.6999C318.541 81.1998 321.23 83.6823 322.894 88.0266C326.23 96.7756 324.109 109.774 318.153 117.049C315.153 120.712 311.757 122.238 308.697 121.721L300.457 120.35C303.517 120.859 306.913 119.342 309.913 115.679C315.869 108.395 317.989 95.3963 314.654 86.656C312.999 82.3117 310.301 79.8292 307.275 79.3293Z" fill="url(#paint8_linear_2750_43399)"></path><path d="M300.267 121.411C299.698 121.307 299.31 120.764 299.405 120.187C299.5 119.601 300.052 119.213 300.629 119.307C303.439 119.773 306.439 118.247 309.085 115.006C314.817 107.998 316.868 95.4482 313.653 87.0354C312.205 83.2428 309.912 80.8808 307.18 80.3895L307.163 79.9156L307.077 80.3724C306.508 80.269 306.12 79.7258 306.215 79.1483C306.309 78.5708 306.861 78.1742 307.438 78.2691L315.791 79.6569C319.282 80.2862 322.152 83.122 323.876 87.6388C325.548 92.0262 325.962 97.5685 325.031 103.249C324.1 108.929 321.946 114.067 318.963 117.721C315.808 121.574 312.102 123.367 308.507 122.773L300.25 121.402L300.267 121.411ZM312.74 81.3205C313.912 82.622 314.886 84.277 315.653 86.2768C319.101 95.3361 316.903 108.826 310.74 116.36C309.344 118.075 307.844 119.376 306.275 120.247L308.878 120.678C311.679 121.143 314.688 119.618 317.334 116.377C323.066 109.369 325.117 96.8186 321.902 88.4058C320.454 84.6132 318.161 82.2514 315.438 81.7601L312.74 81.3118V81.3205Z" fill="#262830"></path><path d="M324.581 103.179C323.702 108.541 321.642 113.721 318.608 117.428C315.565 121.152 312.005 122.884 308.592 122.315L300.351 120.945C300.024 120.893 299.799 120.582 299.851 120.255C299.903 119.927 300.213 119.703 300.541 119.755C303.515 120.246 306.678 118.669 309.428 115.29C315.255 108.17 317.34 95.413 314.074 86.8623C312.548 82.8714 310.091 80.3977 307.161 79.915C306.833 79.8633 306.609 79.5529 306.661 79.2254C306.713 78.8978 307.023 78.6736 307.35 78.7254L315.591 80.096C318.961 80.6562 321.745 83.3972 323.435 87.8019C325.133 92.2583 325.443 97.8094 324.564 103.179H324.581ZM304.721 120.453L308.79 121.125C311.764 121.617 314.919 120.039 317.677 116.661C323.504 109.532 325.59 96.7836 322.323 88.2329C320.797 84.242 318.34 81.7681 315.41 81.2854L311.333 80.6044C312.919 81.9404 314.237 83.9143 315.203 86.4313C318.599 95.344 316.436 108.636 310.367 116.057C308.618 118.204 306.687 119.686 304.721 120.453Z" fill="#262830"></path><path d="M297.82 84.0017C303.776 76.7181 311.31 77.9075 314.646 86.6564C317.982 95.4054 315.861 108.404 309.905 115.679C303.949 122.963 296.415 121.773 293.079 113.024C289.744 104.275 291.864 91.2767 297.82 83.9931V84.0017Z" fill="#BFD0E2"></path><path d="M300.164 121.385C296.682 120.756 293.811 117.92 292.088 113.403C288.631 104.344 290.838 90.854 297.001 83.3204C300.138 79.476 303.845 77.683 307.422 78.2606L307.569 78.2864C311.06 78.9157 313.921 81.7516 315.645 86.2683C317.317 90.6557 317.731 96.2069 316.8 101.879C315.869 107.559 313.714 112.696 310.732 116.351C307.594 120.195 303.888 121.988 300.311 121.411L300.164 121.385ZM307.077 80.3726C304.284 79.9157 301.285 81.45 298.647 84.6738C295.88 88.0527 293.88 92.8365 293.019 98.129C292.157 103.43 292.527 108.585 294.079 112.645C295.527 116.437 297.82 118.799 300.552 119.29L300.656 119.308C303.448 119.764 306.448 118.23 309.086 115.006C314.818 107.999 316.869 95.4484 313.654 87.0355C312.206 83.2429 309.913 80.8809 307.181 80.3896L307.077 80.3726Z" fill="#262830"></path><path d="M316.342 101.81C315.463 107.171 313.403 112.352 310.369 116.058C307.335 119.764 303.792 121.506 300.379 120.954C296.991 120.402 294.198 117.67 292.509 113.239C289.104 104.318 291.276 91.0349 297.345 83.6134C300.379 79.9069 303.921 78.1658 307.335 78.7175C310.722 79.2691 313.515 82.0015 315.205 86.432C316.903 90.8884 317.213 96.4396 316.334 101.81H316.342ZM292.552 98.06C291.707 103.206 292.009 108.533 293.638 112.817C295.164 116.825 297.629 119.29 300.577 119.773C303.542 120.256 306.688 118.67 309.438 115.308C315.265 108.179 317.351 95.431 314.084 86.8803C312.558 82.8721 310.093 80.4071 307.145 79.9244C304.18 79.4417 301.034 81.0276 298.284 84.3893C295.371 87.9492 293.397 92.9227 292.552 98.0686V98.06Z" fill="#262830"></path><path d="M306.164 92.2248L305.164 93.9658C304.621 93.2676 304.095 92.8193 303.578 92.6814C302.837 92.4746 302.19 92.8539 301.639 93.8107C301.354 94.3106 301.165 94.8708 301.07 95.5001C300.975 96.1207 300.984 96.7845 301.07 97.4826C301.165 98.1808 301.346 98.8963 301.622 99.6289L302.38 101.637C302.561 102.12 302.664 102.568 302.682 102.965C302.699 103.37 302.647 103.68 302.518 103.904C302.337 104.215 302.113 104.309 301.82 104.197C301.535 104.085 301.26 103.801 301.01 103.344C300.734 102.853 300.57 102.353 300.51 101.853C300.449 101.353 300.466 100.896 300.553 100.5L298.613 98.474C298.424 98.9998 298.355 99.6634 298.398 100.465C298.441 101.267 298.587 102.112 298.846 102.982C298.967 103.404 299.122 103.81 299.286 104.206L298.07 106.326L299.449 108.697L300.665 106.585C300.941 106.93 301.208 107.214 301.475 107.421C301.992 107.826 302.475 107.973 302.94 107.869C303.406 107.766 303.811 107.404 304.173 106.775C304.578 106.076 304.785 105.18 304.785 104.103C304.785 103.025 304.578 101.905 304.138 100.75L303.38 98.7238C303.216 98.2756 303.121 97.8706 303.087 97.5085C303.052 97.1465 303.104 96.8361 303.242 96.5948C303.432 96.2672 303.656 96.138 303.906 96.2242C304.164 96.3018 304.423 96.5689 304.69 97.0344C304.957 97.4913 305.113 97.9825 305.164 98.4911C305.216 98.9996 305.199 99.4222 305.104 99.7584L307.035 101.758C307.198 100.999 307.259 100.25 307.233 99.4997C307.198 98.7498 307.069 98.0085 306.836 97.2758C306.742 96.9741 306.621 96.681 306.5 96.3879L307.509 94.6295L306.13 92.2591L306.164 92.2248Z" fill="#262830"></path><path opacity="0.2" d="M313.892 134.033C314.302 132.383 310.5 130.019 305.399 128.751C300.299 127.483 295.832 127.792 295.422 129.441C295.012 131.091 298.814 133.456 303.915 134.723C309.015 135.991 313.482 135.682 313.892 134.033Z" fill="#262830"></path><path d="M264.738 266.856C265.893 266.184 267.358 266.571 268.03 267.727C268.694 268.873 268.315 270.347 267.16 271.019C266.005 271.692 264.539 271.295 263.867 270.149C263.195 268.994 263.591 267.528 264.738 266.856ZM276.995 259.727C278.141 259.064 279.615 259.443 280.287 260.598C280.96 261.753 280.563 263.218 279.417 263.891C278.27 264.563 276.796 264.167 276.124 263.02C275.452 261.865 275.84 260.4 276.995 259.727ZM289.243 252.599C290.398 251.927 291.864 252.315 292.536 253.47C293.208 254.625 292.82 256.09 291.665 256.762C290.519 257.426 289.045 257.038 288.373 255.892C287.701 254.737 288.097 253.271 289.243 252.599ZM301.501 245.47C302.647 244.807 304.121 245.186 304.793 246.341C305.465 247.496 305.069 248.961 303.923 249.634C302.776 250.306 301.302 249.91 300.63 248.763C299.958 247.617 300.354 246.143 301.501 245.47Z" fill="#262830"></path><path d="M312.869 241.634C312.792 241.496 312.731 241.35 312.671 241.203C312.628 241.057 312.585 240.902 312.568 240.747C312.55 240.591 312.542 240.436 312.55 240.281C312.55 240.117 312.585 239.962 312.628 239.807C312.792 239.195 313.197 238.669 313.74 238.35C314.283 238.031 314.955 237.937 315.567 238.1C315.714 238.144 315.869 238.195 316.007 238.273C316.145 238.333 316.283 238.419 316.412 238.514C316.533 238.609 316.653 238.721 316.757 238.833C316.964 239.066 317.127 239.35 317.231 239.643C317.283 239.798 317.317 239.954 317.343 240.1C317.36 240.255 317.369 240.41 317.351 240.574C317.351 240.729 317.317 240.885 317.282 241.04C317.119 241.652 316.714 242.186 316.162 242.505C315.619 242.824 314.947 242.91 314.343 242.746C314.197 242.703 314.042 242.652 313.895 242.583C313.757 242.514 313.628 242.427 313.499 242.333C313.369 242.238 313.257 242.126 313.154 242.014C313.05 241.893 312.955 241.772 312.878 241.634H312.869Z" fill="#262830"></path><path d="M365.724 175.791C364.982 175.791 364.379 175.188 364.379 174.446V150.311C364.379 149.57 364.982 148.967 365.724 148.967C366.465 148.967 367.068 149.57 367.068 150.311V174.446C367.068 175.188 366.465 175.791 365.724 175.791Z" fill="url(#paint9_linear_2750_43399)"></path><path d="M379.532 167.818C378.791 167.818 378.188 167.214 378.188 166.473V129.417C378.188 128.676 378.791 128.072 379.532 128.072C380.274 128.072 380.877 128.676 380.877 129.417V166.473C380.877 167.214 380.274 167.818 379.532 167.818Z" fill="url(#paint10_linear_2750_43399)"></path><path d="M393.329 159.853C392.588 159.853 391.984 159.249 391.984 158.508V134.373C391.984 133.632 392.588 133.028 393.329 133.028C394.07 133.028 394.674 133.632 394.674 134.373V158.508C394.674 159.249 394.07 159.853 393.329 159.853Z" fill="url(#paint11_linear_2750_43399)"></path><g opacity="0.2"><path d="M178.808 126.588C178.687 126.364 178.489 126.192 178.248 126.114C178.006 126.037 177.739 126.071 177.515 126.201C177.256 126.347 170.964 130.019 152.923 143.009C152.578 143.259 152.449 143.707 152.604 144.104C155.94 152.447 174.343 163.05 175.127 163.498C175.274 163.584 175.429 163.618 175.584 163.618C175.843 163.618 176.101 163.507 176.291 163.3L189.186 148.362C189.427 148.077 189.479 147.672 189.315 147.336L178.816 126.58L178.808 126.588Z" fill="#262830"></path><path d="M221.734 140.535L188.316 169.825C188.092 170.023 187.979 170.325 188.014 170.626C188.057 170.928 188.247 171.187 188.523 171.316C189.066 171.574 198.211 175.867 208.158 175.867C212.356 175.867 216.7 175.1 220.596 172.945C230.354 167.541 238.327 162.645 245.688 158.49C247.102 157.688 247.162 155.688 245.8 154.801C236.612 148.87 221.734 140.526 221.734 140.526V140.535Z" fill="#262830"></path></g><path d="M188.59 155.713L213.242 141.378L213.208 155.437L188.547 169.771L188.59 155.713Z" fill="#D6E4F9"></path><path d="M188.545 171.073C188.32 171.073 188.088 171.012 187.889 170.9C187.484 170.668 187.234 170.237 187.234 169.771L187.278 155.713C187.278 155.256 187.527 154.825 187.924 154.592L212.585 140.266C212.792 140.154 213.016 140.094 213.24 140.094C213.464 140.094 213.697 140.154 213.895 140.266C214.3 140.499 214.55 140.93 214.55 141.395L214.869 154.704C214.869 155.161 214.619 155.592 214.223 155.825L189.2 170.9C188.993 171.012 188.769 171.073 188.545 171.073ZM189.855 167.504L211.904 154.687L211.938 143.645L189.889 156.454L189.855 167.496V167.504Z" fill="#262830"></path><path d="M188.544 170.617C188.397 170.617 188.251 170.574 188.122 170.505C187.863 170.358 187.699 170.074 187.699 169.772L187.742 155.713C187.742 155.412 187.906 155.136 188.165 154.981L212.817 140.655C213.084 140.508 213.403 140.508 213.67 140.655C213.937 140.801 214.093 141.086 214.093 141.387L214.049 155.446C214.049 155.748 213.886 156.024 213.627 156.179L188.975 170.505C188.846 170.582 188.699 170.617 188.553 170.617H188.544ZM189.432 156.196L189.397 168.29L212.351 154.946L212.386 142.853L189.432 156.196Z" fill="#262830"></path><path d="M212.445 118.564C210.773 118.599 208.144 117.573 204.55 115.496C200.197 112.979 195.146 109.109 189.405 103.876C188.026 102.618 186.681 101.351 185.354 100.067C184.914 99.6443 184.501 99.2133 184.061 98.791C183.182 97.929 182.302 97.0584 181.441 96.1792C180.941 95.662 180.449 95.1448 179.949 94.619C179.182 93.8173 178.424 93.0159 177.674 92.2056C177.156 91.6453 176.656 91.0849 176.148 90.516C175.234 89.5075 174.321 88.4905 173.441 87.4648L148.789 101.791C149.22 102.291 149.651 102.782 150.082 103.282C150.547 103.808 151.03 104.325 151.496 104.851C152.004 105.411 152.504 105.98 153.021 106.531C153.771 107.342 154.538 108.143 155.306 108.945C155.797 109.462 156.288 109.988 156.788 110.497C157.65 111.376 158.529 112.246 159.409 113.108C159.84 113.531 160.262 113.962 160.693 114.384C162.02 115.668 163.365 116.935 164.744 118.194C170.485 123.435 175.536 127.305 179.889 129.813C183.483 131.891 186.112 132.916 187.784 132.882C188.267 132.873 188.681 132.77 189.026 132.571L213.678 118.246C213.333 118.444 212.92 118.547 212.437 118.556L212.445 118.564Z" fill="white"></path><path d="M187.706 134.191C185.792 134.191 183.017 133.131 179.241 130.95C174.819 128.39 169.648 124.425 163.872 119.159C162.579 117.986 161.243 116.728 159.795 115.331C159.545 115.09 158.494 114.047 158.494 114.047C157.606 113.176 156.718 112.306 155.856 111.427C155.503 111.065 155.158 110.703 154.822 110.349L154.305 109.798C153.555 109.013 152.805 108.229 152.072 107.436C151.701 107.039 151.339 106.634 150.977 106.229L150.021 105.169C149.719 104.833 149.409 104.497 149.107 104.16C148.667 103.66 148.236 103.16 147.805 102.661C147.555 102.367 147.443 101.98 147.512 101.6C147.581 101.212 147.805 100.885 148.141 100.687L172.794 86.3608C172.992 86.2487 173.216 86.1884 173.449 86.1884C173.828 86.1884 174.19 86.352 174.44 86.6451C175.207 87.5415 176.009 88.4294 176.802 89.3173L177.535 90.1361C177.897 90.5412 178.267 90.9465 178.638 91.3516C179.388 92.1619 180.138 92.9547 180.896 93.7477L181.594 94.4805C181.853 94.7477 182.112 95.0234 182.37 95.2907C183.223 96.1612 184.094 97.0232 184.965 97.8852L186.249 99.1609C187.611 100.471 188.964 101.747 190.266 102.936C195.912 108.082 200.928 111.935 205.187 114.392C209.703 117.004 211.729 117.288 212.393 117.288C212.66 117.288 212.867 117.236 213.004 117.15C213.211 117.03 213.435 116.969 213.668 116.969C214.134 116.969 214.565 117.219 214.789 117.624C215.151 118.236 214.944 119.038 214.323 119.4L189.663 133.726C189.128 134.036 188.499 134.2 187.792 134.217H187.689L187.706 134.191ZM151.064 102.428C151.357 102.755 151.65 103.083 151.943 103.402L152.727 104.264C153.167 104.747 153.563 105.203 153.977 105.652C154.718 106.462 155.486 107.255 156.244 108.056L156.865 108.712C157.149 109.005 157.434 109.306 157.718 109.599C158.545 110.444 159.399 111.28 160.252 112.125L161.605 113.461C162.993 114.797 164.303 116.038 165.622 117.236C171.259 122.374 176.276 126.235 180.543 128.701C184.904 131.217 186.878 131.597 187.68 131.597C188.016 131.597 188.223 131.545 188.37 131.459L209.358 119.262C207.85 118.736 206.049 117.866 203.902 116.624C199.48 114.073 194.308 110.108 188.533 104.841C187.232 103.652 185.896 102.402 184.456 101.014L183.155 99.7299C182.267 98.8593 181.379 97.9887 180.517 97.1095C180.215 96.7992 179.914 96.4802 179.612 96.1699L179.009 95.5407C178.241 94.739 177.474 93.9287 176.716 93.1098C176.337 92.6961 175.966 92.2824 175.587 91.8687L174.966 91.1704C174.363 90.4981 173.759 89.8259 173.164 89.1535L150.796 102.152L151.055 102.445L151.064 102.428Z" fill="#262830"></path><path d="M187.704 133.743C185.868 133.743 183.17 132.7 179.464 130.562C175.068 128.019 169.922 124.071 164.172 118.83C162.793 117.572 161.44 116.296 160.104 115.012C159.828 114.745 159.552 114.469 159.276 114.202L158.811 113.736C157.923 112.866 157.044 111.995 156.182 111.116C155.828 110.763 155.492 110.4 155.148 110.038L154.691 109.556C153.924 108.754 153.148 107.944 152.398 107.125C151.967 106.659 151.544 106.194 151.122 105.72L150.346 104.867C150.045 104.53 149.734 104.194 149.441 103.858C149.002 103.358 148.571 102.867 148.14 102.358C147.976 102.169 147.907 101.91 147.95 101.66C147.993 101.41 148.14 101.195 148.364 101.065L173.016 86.7394C173.361 86.5326 173.818 86.6101 174.085 86.9204C174.895 87.86 175.731 88.7909 176.559 89.7218L177.18 90.4201C177.55 90.8252 177.912 91.2389 178.291 91.644C179.041 92.4542 179.8 93.2473 180.558 94.0489L180.981 94.4972C181.334 94.8678 181.679 95.2299 182.041 95.6005C182.894 96.4711 183.765 97.3331 184.644 98.195L185.928 99.4707C187.247 100.746 188.592 102.005 189.962 103.255C195.625 108.418 200.668 112.297 204.961 114.771C209.253 117.253 211.46 117.727 212.408 117.727C212.744 117.727 213.02 117.65 213.235 117.529C213.641 117.288 214.158 117.426 214.391 117.831C214.623 118.236 214.494 118.753 214.089 118.986C214.089 118.986 214.089 118.986 214.08 118.986L189.437 133.312C188.971 133.587 188.411 133.725 187.79 133.734C187.756 133.734 187.73 133.734 187.695 133.734L187.704 133.743ZM150.105 102.022C150.312 102.255 150.519 102.496 150.726 102.729C151.019 103.057 151.312 103.384 151.613 103.712L152.398 104.574C152.812 105.039 153.225 105.496 153.656 105.961C154.406 106.772 155.165 107.573 155.923 108.366L156.389 108.857C156.725 109.211 157.061 109.564 157.406 109.918C158.259 110.788 159.138 111.65 160.018 112.512L161.302 113.779C162.621 115.055 163.966 116.322 165.336 117.572C170.991 122.735 176.042 126.605 180.334 129.088C184.627 131.57 186.808 132.07 187.782 132.036C188.118 132.036 188.394 131.958 188.609 131.838L210.486 119.124C208.831 118.684 206.728 117.727 204.133 116.227C199.737 113.693 194.591 109.745 188.842 104.496C187.463 103.238 186.109 101.962 184.773 100.677L183.48 99.3931C182.593 98.5225 181.713 97.6519 180.852 96.7727C180.489 96.402 180.136 96.0229 179.774 95.6523L179.351 95.204C178.584 94.4024 177.817 93.6007 177.067 92.7818C176.688 92.3681 176.317 91.9544 175.947 91.5407L175.326 90.8424C174.645 90.0839 173.956 89.3168 173.283 88.5497L150.114 102.013L150.105 102.022Z" fill="#262830"></path><path d="M239.711 125.363C239.711 125.225 239.702 125.087 239.693 124.949C239.659 124.329 239.616 123.699 239.547 123.079C239.538 122.975 239.521 122.881 239.512 122.777C239.452 122.208 239.375 121.648 239.288 121.079C239.271 120.967 239.254 120.855 239.237 120.743C239.133 120.131 239.021 119.519 238.892 118.907C238.866 118.778 238.832 118.64 238.806 118.51C238.677 117.907 238.53 117.312 238.375 116.709C238.375 116.674 238.358 116.648 238.349 116.614C238.185 115.993 237.995 115.381 237.797 114.761C237.754 114.623 237.711 114.485 237.668 114.347C237.47 113.744 237.254 113.132 237.021 112.528C236.987 112.442 236.952 112.364 236.918 112.278C236.702 111.727 236.47 111.175 236.237 110.623C236.203 110.546 236.177 110.477 236.142 110.399C236.125 110.356 236.108 110.322 236.09 110.279C235.815 109.667 235.53 109.054 235.229 108.451C235.168 108.33 235.099 108.201 235.039 108.081C234.72 107.451 234.393 106.831 234.039 106.21C233.763 105.71 233.462 105.21 233.16 104.702C233.065 104.547 232.97 104.391 232.875 104.236C232.651 103.874 232.418 103.503 232.186 103.133C232.074 102.96 231.962 102.788 231.85 102.616C231.582 102.21 231.307 101.805 231.031 101.392C230.945 101.271 230.867 101.15 230.781 101.03C230.41 100.504 230.031 99.9694 229.634 99.4263C229.54 99.297 229.436 99.1678 229.341 99.0385C229.031 98.6247 228.712 98.2024 228.393 97.78C228.255 97.599 228.109 97.4179 227.971 97.2283C227.661 96.8318 227.35 96.4353 227.023 96.0302C226.885 95.8578 226.755 95.694 226.609 95.5216C226.152 94.9613 225.687 94.3924 225.195 93.8149C225.178 93.7977 225.169 93.7804 225.152 93.7631C224.678 93.2029 224.195 92.6426 223.695 92.0737C223.644 92.0134 223.592 91.9531 223.54 91.8927C223.454 91.7893 223.351 91.6858 223.265 91.5823C222.816 91.0738 222.351 90.5568 221.877 90.0396C221.73 89.8844 221.592 89.7206 221.446 89.5655C220.851 88.919 220.248 88.2725 219.627 87.6088C219.515 87.4881 219.394 87.3589 219.273 87.2382C218.748 86.6865 218.205 86.1261 217.653 85.5572C217.472 85.3762 217.291 85.1866 217.11 85.0056C216.438 84.3247 215.765 83.6438 215.059 82.9542C210.706 78.7392 207.309 75.2827 204.861 72.5761C204.525 72.2055 204.198 71.8434 203.887 71.49C203.681 71.2573 203.482 71.0245 203.293 70.8004C203.249 70.7487 203.198 70.6884 203.146 70.6367C202.905 70.3522 202.672 70.0764 202.448 69.8092C202.388 69.7403 202.336 69.6711 202.276 69.6021C202.112 69.4039 201.957 69.2143 201.81 69.0247C201.741 68.9299 201.672 68.8436 201.595 68.7574C201.465 68.5937 201.345 68.4387 201.224 68.2835C201.155 68.1887 201.086 68.1025 201.017 68.0076C200.905 67.8611 200.801 67.7146 200.698 67.5767C200.638 67.4905 200.577 67.4042 200.517 67.3266C200.414 67.1801 200.31 67.0336 200.216 66.8957C200.172 66.8267 200.121 66.7578 200.077 66.6888C199.94 66.4819 199.819 66.2924 199.698 66.1027C199.569 65.8872 199.448 65.6717 199.328 65.4562C199.293 65.3873 199.259 65.3183 199.224 65.2408C199.155 65.0942 199.078 64.9563 199.017 64.8098C198.991 64.7494 198.966 64.6805 198.94 64.6202C198.854 64.4133 198.767 64.1978 198.698 63.9909C198.673 63.922 198.655 63.8615 198.629 63.7925C198.543 63.5339 198.474 63.284 198.414 63.0254C198.405 62.9823 198.397 62.9393 198.388 62.9049C198.345 62.6807 198.311 62.4652 198.276 62.2411C198.276 62.1722 198.259 62.1032 198.25 62.0343C198.224 61.7757 198.207 61.517 198.207 61.267C198.207 59.8965 198.595 59.0001 199.345 58.5605L174.693 72.8863C173.934 73.3259 173.555 74.2311 173.555 75.593C173.555 75.8516 173.572 76.1101 173.598 76.3601C173.598 76.429 173.615 76.498 173.624 76.5669C173.65 76.791 173.684 77.0065 173.736 77.2306C173.736 77.2737 173.753 77.317 173.762 77.3514C173.822 77.61 173.891 77.8599 173.968 78.1185C173.986 78.1875 174.012 78.2478 174.037 78.3167C174.106 78.5236 174.193 78.7305 174.279 78.946C174.296 78.9891 174.305 79.0237 174.322 79.0667C174.331 79.0926 174.348 79.1097 174.356 79.1356C174.425 79.2821 174.494 79.4286 174.563 79.5665C174.598 79.6355 174.632 79.7045 174.667 79.782C174.779 79.9975 174.9 80.213 175.037 80.4285C175.15 80.6181 175.279 80.8166 175.417 81.0148C175.46 81.0838 175.511 81.1527 175.555 81.213C175.649 81.3596 175.753 81.4975 175.856 81.6527C175.917 81.7302 175.977 81.8163 176.037 81.9024C176.141 82.0404 176.244 82.1869 176.356 82.3334C176.425 82.4196 176.494 82.5145 176.563 82.6093C176.684 82.7645 176.804 82.9197 176.925 83.0834C176.994 83.1696 177.063 83.2645 177.141 83.3507C177.287 83.5317 177.442 83.7213 177.597 83.9109C177.658 83.9885 177.718 84.0574 177.778 84.135C178.003 84.4022 178.235 84.678 178.477 84.9538C178.528 85.0142 178.58 85.0745 178.632 85.1348C178.796 85.3245 178.959 85.5229 179.14 85.7211C179.166 85.747 179.192 85.7813 179.218 85.8072C179.528 86.1606 179.856 86.5226 180.192 86.9019C182.64 89.6085 186.036 93.065 190.389 97.28C191.087 97.9696 191.768 98.6507 192.441 99.3316C192.622 99.5126 192.802 99.7022 192.983 99.8832C193.535 100.443 194.07 101.004 194.604 101.555C194.725 101.676 194.845 101.805 194.966 101.926C195.587 102.581 196.19 103.236 196.785 103.874C196.931 104.038 197.078 104.193 197.216 104.348C197.69 104.865 198.147 105.383 198.604 105.891C198.75 106.055 198.897 106.219 199.043 106.382C199.543 106.951 200.026 107.512 200.5 108.072C200.517 108.089 200.526 108.106 200.543 108.124C201.026 108.701 201.5 109.27 201.957 109.83C202.095 110.003 202.233 110.166 202.362 110.339C202.689 110.744 203 111.141 203.31 111.537C203.448 111.718 203.594 111.899 203.732 112.08C204.06 112.502 204.37 112.925 204.68 113.347C204.775 113.476 204.879 113.606 204.974 113.735C205.37 114.278 205.749 114.812 206.12 115.338C206.206 115.459 206.284 115.58 206.37 115.7C206.654 116.114 206.93 116.519 207.189 116.924C207.301 117.097 207.413 117.269 207.525 117.441C207.766 117.812 207.99 118.183 208.223 118.545C208.318 118.7 208.413 118.855 208.508 119.01C208.818 119.519 209.111 120.019 209.395 120.519C209.749 121.139 210.076 121.769 210.395 122.389C210.456 122.51 210.525 122.639 210.585 122.76C210.887 123.363 211.171 123.975 211.447 124.587C211.499 124.699 211.542 124.82 211.593 124.932C211.835 125.484 212.059 126.035 212.274 126.596C212.309 126.682 212.343 126.759 212.369 126.846C212.602 127.449 212.817 128.061 213.016 128.664C213.059 128.802 213.102 128.932 213.145 129.07C213.343 129.69 213.533 130.302 213.697 130.923C213.697 130.957 213.714 130.983 213.722 131.017C213.886 131.612 214.024 132.216 214.162 132.819C214.188 132.948 214.223 133.086 214.248 133.215C214.378 133.827 214.49 134.44 214.593 135.06C214.61 135.172 214.628 135.276 214.645 135.388C214.731 135.948 214.809 136.517 214.869 137.086C214.878 137.189 214.895 137.284 214.903 137.387C214.964 138.008 215.015 138.629 215.05 139.258C215.05 139.396 215.067 139.534 215.067 139.672C215.093 140.309 215.11 140.947 215.11 141.594C215.084 149.627 212.895 154.92 208.508 157.463L233.16 143.137C237.539 140.594 239.737 135.293 239.762 127.268C239.762 126.621 239.745 125.984 239.719 125.346L239.711 125.363Z" fill="#BFD0E2"></path><path d="M208.497 158.79C208.04 158.79 207.609 158.54 207.368 158.144C207.006 157.523 207.222 156.722 207.842 156.359C211.773 154.067 213.773 149.11 213.79 141.611C213.79 140.991 213.773 140.37 213.747 139.749L213.729 139.344C213.695 138.741 213.652 138.137 213.592 137.534L213.557 137.258C213.497 136.698 213.419 136.146 213.342 135.603L213.29 135.284C213.195 134.69 213.083 134.095 212.962 133.5L212.876 133.121C212.747 132.535 212.609 131.957 212.454 131.371C212.264 130.69 212.083 130.095 211.893 129.492L211.764 129.087C211.583 128.544 211.394 127.992 211.187 127.44L211.049 127.087C210.842 126.544 210.618 126.01 210.385 125.475L210.238 125.139C209.971 124.553 209.695 123.958 209.402 123.363L209.221 123.001C208.911 122.389 208.592 121.777 208.247 121.174C207.971 120.691 207.687 120.2 207.385 119.7L207.178 119.364C206.894 118.898 206.661 118.536 206.429 118.174L206.092 117.666C205.834 117.269 205.567 116.873 205.291 116.476L205.041 116.097C204.687 115.588 204.308 115.063 203.92 114.528L203.636 114.149C203.334 113.735 203.015 113.321 202.696 112.899L202.282 112.356C201.981 111.968 201.67 111.572 201.352 111.175L200.946 110.667C200.49 110.106 200.033 109.546 199.55 108.977C199.042 108.382 198.559 107.822 198.068 107.253L197.637 106.77C197.188 106.262 196.731 105.753 196.257 105.236L195.826 104.762C195.24 104.124 194.645 103.478 194.025 102.831L193.671 102.461C193.146 101.909 192.611 101.357 192.068 100.797L191.534 100.254C190.87 99.5816 190.189 98.9007 189.499 98.2112C185.155 94.0048 181.707 90.4965 179.251 87.7899L177.518 85.8246L174.975 82.6526V82.6353L174.51 81.9802C174.51 81.9802 174.407 81.8682 174.346 81.7302C174.208 81.5234 174.07 81.3165 173.958 81.1183C173.812 80.8769 173.682 80.6441 173.553 80.4114C173.553 80.4114 173.432 80.1788 173.407 80.1185C173.346 80.0237 173.269 79.8599 173.191 79.6875L173.105 79.4806C173.001 79.2393 172.915 79.0065 172.829 78.7651C172.829 78.7651 172.743 78.5409 172.734 78.472C172.657 78.2392 172.57 77.9462 172.51 77.6531C172.424 77.248 172.389 76.998 172.355 76.748L172.329 76.5325C172.303 76.1964 172.277 75.8948 172.277 75.6018C172.277 73.7485 172.889 72.464 174.062 71.7745L198.714 57.4487C198.912 57.3366 199.136 57.2763 199.369 57.2763C199.826 57.2763 200.265 57.5263 200.498 57.9228C200.86 58.5434 200.645 59.3449 200.033 59.7069C199.714 59.8879 199.541 60.4569 199.541 61.293C199.541 61.5171 199.559 61.724 199.576 61.9395L199.593 62.1205C199.611 62.2929 199.645 62.474 199.679 62.6636C199.748 62.9912 199.809 63.2066 199.878 63.4307C199.998 63.7755 200.067 63.9565 200.145 64.1376L200.438 64.7668L200.49 64.8615C200.593 65.0511 200.697 65.2495 200.817 65.4391C200.929 65.6201 201.05 65.8011 201.171 65.9907L203.351 68.8784L204.282 69.9731L204.877 70.6541C205.187 70.9989 205.506 71.3609 205.843 71.7315C208.265 74.4036 211.669 77.8773 215.979 82.0406C216.695 82.7475 217.376 83.4283 218.048 84.1093L218.599 84.6697C219.151 85.2386 219.694 85.7988 220.229 86.3591L220.582 86.7297C221.211 87.3934 221.823 88.0485 222.418 88.7036L222.858 89.1864C223.332 89.7122 223.806 90.2292 224.254 90.7464L224.521 91.0395L224.513 91.0309C224.513 91.0309 224.547 91.0653 224.659 91.2033C225.202 91.8153 225.694 92.3842 226.168 92.9531C226.702 93.5909 227.176 94.1599 227.642 94.7288L230.581 98.53C231.107 99.2454 231.495 99.7885 231.865 100.323L232.012 100.53C232.408 101.107 232.684 101.521 232.96 101.935L233.305 102.461C233.546 102.831 233.779 103.211 234.012 103.581L234.305 104.064C234.615 104.573 234.917 105.09 235.21 105.598C235.572 106.236 235.908 106.883 236.236 107.52L236.425 107.9C236.744 108.538 237.037 109.158 237.313 109.787L237.442 110.08C237.718 110.71 237.951 111.278 238.166 111.847L238.27 112.097C238.511 112.727 238.727 113.356 238.942 113.977L239.08 114.39C239.287 115.037 239.476 115.675 239.649 116.312C239.839 117.028 239.985 117.64 240.123 118.261L240.209 118.674C240.347 119.304 240.459 119.941 240.562 120.579C240.562 120.605 240.614 120.924 240.614 120.924C240.7 121.501 240.778 122.088 240.847 122.674L240.881 122.984C240.95 123.613 240.993 124.251 241.028 124.88L241.071 125.76C241.088 126.277 241.106 126.794 241.106 127.311C241.08 135.81 238.64 141.525 233.856 144.309L209.204 158.635C208.997 158.747 208.773 158.808 208.549 158.808L208.497 158.79ZM213.574 126.415C213.816 127.035 214.031 127.665 214.238 128.294L214.376 128.716C214.583 129.345 214.772 129.983 214.945 130.621C215.134 131.336 215.281 131.957 215.419 132.569L215.505 132.974C215.643 133.612 215.755 134.25 215.858 134.888C215.858 134.888 215.919 135.293 215.919 135.302C216.005 135.819 216.074 136.396 216.143 136.982L216.178 137.284C216.246 137.931 216.298 138.568 216.324 139.215L216.341 139.646C216.367 140.301 216.393 140.965 216.393 141.628C216.384 145.99 215.721 149.653 214.436 152.532L232.495 142.042C236.425 139.758 238.425 134.802 238.442 127.294C238.442 126.673 238.425 126.053 238.399 125.432L238.382 125.035C238.347 124.432 238.304 123.829 238.244 123.225L238.218 122.975C238.158 122.389 238.08 121.838 237.994 121.295L237.942 120.967C237.847 120.381 237.735 119.786 237.615 119.191L237.528 118.803C237.399 118.217 237.261 117.64 237.106 117.062C236.916 116.381 236.735 115.778 236.546 115.183L236.417 114.778C236.227 114.201 236.02 113.614 235.796 113.028L235.701 112.787C235.494 112.244 235.27 111.71 235.037 111.175L234.934 110.925C234.624 110.244 234.348 109.649 234.055 109.055L233.874 108.693C233.563 108.081 233.244 107.477 232.9 106.874C232.624 106.391 232.339 105.9 232.038 105.4L231.753 104.935C231.538 104.59 231.305 104.228 231.081 103.866L230.753 103.357C230.495 102.961 230.219 102.555 229.943 102.159L229.693 101.797C229.331 101.28 228.96 100.754 228.573 100.219L225.582 96.3492C225.133 95.8061 224.676 95.2373 224.194 94.6684C223.685 94.065 223.202 93.5134 222.711 92.9531C222.72 92.9617 222.728 92.9703 222.728 92.9703L222.289 92.4703C221.832 91.9531 221.375 91.4446 220.91 90.936L220.479 90.4621C219.893 89.8242 219.298 89.1778 218.677 88.5313L218.324 88.1691C217.798 87.6175 217.263 87.0659 216.712 86.5056L216.178 85.954C215.514 85.2817 214.841 84.6006 214.143 83.9197C209.79 79.7046 206.342 76.1964 203.894 73.4984C203.55 73.1191 203.222 72.7487 202.912 72.3866L202.308 71.697C202.308 71.697 202.248 71.6279 202.196 71.559L199.024 67.4733C198.86 67.2319 198.723 67.0164 198.602 66.8182C198.455 66.5854 198.326 66.3442 198.197 66.1115L197.826 65.3529V65.3011H197.818C197.818 65.3011 197.774 65.1977 197.757 65.1805C197.654 64.9219 197.559 64.6891 197.473 64.4477C197.43 64.3443 197.404 64.2667 197.395 64.215C197.3 63.9305 197.223 63.6375 197.154 63.353C197.076 62.9565 197.033 62.7067 196.999 62.4481L196.973 62.2326C196.947 61.9827 196.93 61.7499 196.93 61.5258L175.363 74.0588C175.053 74.2398 174.872 74.8086 174.872 75.6447C174.872 75.8688 174.881 76.0757 174.906 76.2912L174.924 76.4724C174.941 76.6448 174.975 76.8257 175.01 77.0153C175.079 77.3342 175.139 77.5585 175.208 77.7739C175.329 78.1101 175.398 78.291 175.475 78.4806C175.605 78.7651 175.665 78.8945 175.725 79.0238L175.82 79.222C175.924 79.4116 176.027 79.6012 176.148 79.7908C176.251 79.9632 176.372 80.153 176.501 80.3426L177.044 81.1269L179.509 84.2128L181.164 86.0832C183.569 88.7467 186.983 92.2118 191.292 96.3923C192.008 97.0905 192.689 97.7802 193.361 98.4612L193.904 99.0214C194.456 99.5816 194.999 100.142 195.525 100.702L195.878 101.073C196.516 101.745 197.119 102.392 197.714 103.047L198.154 103.529C198.628 104.055 199.093 104.572 199.55 105.09L199.99 105.581C200.498 106.159 200.99 106.736 201.464 107.296C201.998 107.926 202.472 108.503 202.938 109.072L203.351 109.58C203.679 109.986 203.998 110.391 204.317 110.796L204.739 111.348C205.075 111.779 205.394 112.21 205.704 112.632L205.989 113.02C206.394 113.571 206.782 114.114 207.153 114.649L207.411 115.028C207.696 115.442 207.971 115.856 208.247 116.269L208.592 116.795C208.834 117.166 209.066 117.545 209.299 117.916L209.592 118.39C209.911 118.907 210.213 119.424 210.497 119.933C210.859 120.571 211.195 121.217 211.523 121.864L211.712 122.234C212.031 122.872 212.324 123.493 212.6 124.122L212.712 124.363C213.005 125.035 213.238 125.604 213.462 126.173C213.505 126.26 213.54 126.354 213.566 126.432L213.574 126.415Z" fill="#262830"></path><path d="M208.498 158.334C208.205 158.334 207.92 158.179 207.765 157.911C207.532 157.506 207.67 156.989 208.075 156.748H208.084C212.152 154.369 214.23 149.274 214.247 141.612C214.247 140.982 214.23 140.353 214.204 139.732L214.187 139.327C214.152 138.715 214.109 138.103 214.049 137.5L214.014 137.216C213.954 136.647 213.876 136.095 213.79 135.543L214.583 135.087L213.747 135.224C213.652 134.621 213.54 134.018 213.411 133.423L213.325 133.035C213.195 132.44 213.049 131.854 212.902 131.268C212.713 130.578 212.532 129.975 212.333 129.363L212.204 128.958C212.006 128.363 211.799 127.777 211.575 127.182L212.273 126.631L211.48 126.941C211.265 126.398 211.041 125.855 210.808 125.312L210.661 124.976C210.394 124.372 210.11 123.778 209.816 123.183L209.627 122.812C209.317 122.192 208.989 121.579 208.644 120.967C208.368 120.476 208.075 119.985 207.774 119.476L207.558 119.132C207.265 118.657 207.041 118.295 206.808 117.933L206.472 117.425C206.214 117.028 205.938 116.623 205.662 116.218L205.412 115.847C205.05 115.33 204.679 114.804 204.283 114.27L203.998 113.882C203.697 113.468 203.378 113.055 203.059 112.632L202.636 112.089C202.335 111.701 202.016 111.305 201.697 110.9L201.292 110.391C200.835 109.831 200.369 109.262 199.887 108.693C199.378 108.09 198.895 107.529 198.395 106.969L197.964 106.486C197.516 105.978 197.051 105.461 196.585 104.943L196.154 104.469C195.568 103.832 194.965 103.185 194.344 102.53L193.991 102.159C193.465 101.608 192.931 101.056 192.379 100.496L191.845 99.9441C191.181 99.2718 190.5 98.5907 189.802 97.9012C185.466 93.7034 182.018 90.1951 179.57 87.4972L178.001 85.7217L177.846 85.5407L175.415 82.5065L175.295 82.3426L174.864 81.7306L174.726 81.5238C174.579 81.3083 174.45 81.1014 174.329 80.9032C174.191 80.6791 174.062 80.4463 173.933 80.2136L173.821 79.9894C173.743 79.8343 173.666 79.6791 173.588 79.5153C173.588 79.5067 173.51 79.3257 173.502 79.3171C173.398 79.0844 173.321 78.8604 173.235 78.6363C173.235 78.6363 173.157 78.4208 173.157 78.4122C173.071 78.1364 172.993 77.8603 172.924 77.5759C172.847 77.1966 172.804 76.9553 172.778 76.7139L172.752 76.4984C172.726 76.1881 172.7 75.9039 172.709 75.6194C172.709 73.9386 173.235 72.7836 174.269 72.1802L198.921 57.8542C199.326 57.6214 199.843 57.7594 200.085 58.1646C200.318 58.5697 200.18 59.0868 199.775 59.3281C199.301 59.6039 199.068 60.2677 199.059 61.302C199.059 61.5348 199.076 61.7589 199.094 61.9917L199.12 62.1813C199.145 62.3709 199.171 62.5691 199.214 62.7673C199.283 63.1121 199.352 63.3448 199.421 63.5775C199.55 63.9482 199.619 64.1379 199.706 64.3276L199.973 64.8964L199.326 65.4913L200.076 65.0946C200.18 65.2929 200.292 65.4913 200.421 65.6982C200.533 65.8792 200.654 66.0687 200.783 66.267L202.929 69.1029L202.447 69.8527L203.093 69.3098L203.783 70.1286L203.283 70.8441L203.921 70.2923L204.515 70.9733C204.826 71.3267 205.145 71.6801 205.481 72.0508C207.903 74.7315 211.325 78.2052 215.635 82.3857C216.342 83.0839 217.023 83.765 217.695 84.446L218.238 85.0062C218.79 85.5751 219.333 86.1353 219.867 86.687L220.22 87.0575C220.85 87.7213 221.453 88.3764 222.048 89.0229L222.487 89.5056C222.961 90.0314 223.427 90.5486 223.884 91.0572L224.16 91.359L224.323 91.5486C224.823 92.1175 225.315 92.6863 225.789 93.2466C226.323 93.8759 226.789 94.4448 227.254 95.0137L230.185 98.8063C230.702 99.5045 231.081 100.048 231.452 100.582L231.598 100.789C231.995 101.366 232.271 101.771 232.538 102.185L232.874 102.711C233.115 103.082 233.348 103.452 233.572 103.823L233.866 104.306C234.176 104.814 234.477 105.323 234.762 105.831C235.115 106.46 235.452 107.098 235.779 107.736L235.969 108.107C236.279 108.736 236.572 109.357 236.848 109.977L236.977 110.27C237.244 110.891 237.477 111.451 237.701 112.02L237.805 112.279C238.037 112.899 238.261 113.511 238.468 114.132L238.598 114.537C238.796 115.175 238.994 115.804 239.158 116.433C239.348 117.14 239.494 117.752 239.623 118.364L239.709 118.778C239.839 119.399 239.96 120.028 240.063 120.657C240.063 120.657 240.115 120.993 240.115 121.002C240.201 121.579 240.278 122.148 240.339 122.726L240.373 123.036C240.442 123.666 240.485 124.303 240.52 124.941L240.537 125.346L239.692 125.398L240.537 125.364C240.563 126.019 240.589 126.674 240.589 127.329C240.563 135.655 238.201 141.232 233.564 143.93L208.911 158.256C208.773 158.334 208.627 158.368 208.489 158.368L208.498 158.334ZM179.286 84.6011L180.837 86.3509C183.259 89.0316 186.681 92.5053 190.991 96.6859C191.698 97.3841 192.379 98.0649 193.051 98.7545L193.594 99.3149C194.146 99.8752 194.689 100.435 195.215 100.987L195.568 101.358C196.197 102.021 196.809 102.676 197.404 103.323L197.844 103.806C198.318 104.332 198.783 104.849 199.231 105.357L199.671 105.848C200.171 106.426 200.662 106.995 201.136 107.555C201.671 108.184 202.145 108.753 202.602 109.331L203.016 109.84C203.343 110.245 203.662 110.65 203.972 111.046L204.395 111.598C204.722 112.029 205.041 112.451 205.36 112.874L205.653 113.261C206.05 113.813 206.438 114.347 206.808 114.882L207.058 115.253C207.343 115.666 207.618 116.08 207.886 116.485L208.222 117.011C208.463 117.382 208.696 117.752 208.92 118.123L209.213 118.597C209.523 119.114 209.825 119.623 210.11 120.123C210.463 120.761 210.799 121.39 211.127 122.028L211.316 122.398C211.627 123.027 211.92 123.64 212.196 124.26L212.299 124.502C212.592 125.174 212.825 125.734 213.04 126.303L213.144 126.553C213.385 127.174 213.601 127.786 213.807 128.406L213.937 128.82C214.135 129.449 214.333 130.078 214.497 130.708C214.687 131.415 214.833 132.027 214.962 132.639L215.049 133.044C215.178 133.673 215.299 134.302 215.402 134.931L215.454 135.268C215.54 135.845 215.618 136.423 215.678 137L215.712 137.302C215.781 137.931 215.824 138.569 215.859 139.207L215.876 139.629C215.902 140.276 215.928 140.931 215.928 141.586C215.911 146.62 215.04 150.662 213.325 153.653L232.702 142.387C236.779 140.017 238.856 134.923 238.873 127.251C238.873 126.622 238.856 125.993 238.83 125.372V125.355L238.813 124.976C238.779 124.364 238.735 123.752 238.675 123.148L238.649 122.89C238.589 122.295 238.511 121.743 238.425 121.192L238.374 120.864C238.279 120.261 238.167 119.666 238.037 119.063L237.951 118.675C237.822 118.08 237.675 117.494 237.529 116.908C237.339 116.209 237.158 115.606 236.968 115.003L236.839 114.598C236.641 114.011 236.434 113.417 236.21 112.831L236.115 112.58C235.9 112.037 235.675 111.495 235.443 110.951C235.443 110.951 235.339 110.71 235.339 110.701C235.029 110.012 234.745 109.417 234.452 108.814L234.262 108.443C233.952 107.831 233.624 107.219 233.279 106.598C233.003 106.107 232.71 105.616 232.409 105.116L232.124 104.642C231.909 104.288 231.676 103.926 231.443 103.564L231.116 103.056C230.848 102.651 230.581 102.246 230.297 101.84L230.055 101.478C229.693 100.953 229.314 100.427 228.926 99.8924L225.927 96.0135C225.478 95.4618 225.004 94.893 224.53 94.3241C224.022 93.7207 223.539 93.1604 223.039 92.6001C223.039 92.6001 222.91 92.4448 222.901 92.4448L222.608 92.1174C222.151 91.6002 221.694 91.0916 221.229 90.5744L220.798 90.1003C220.212 89.4625 219.609 88.816 218.988 88.1609L218.634 87.7903C218.109 87.2386 217.574 86.687 217.023 86.1181L216.488 85.5664C215.824 84.894 215.144 84.2132 214.445 83.5236C210.11 79.3258 206.662 75.8175 204.214 73.1196C203.869 72.7403 203.541 72.3783 203.231 72.0162L202.628 71.3266L202.481 71.1543L199.352 67.129C199.214 66.9135 199.076 66.7066 198.956 66.5084C198.818 66.2843 198.688 66.0515 198.559 65.8187C198.559 65.8187 198.447 65.5946 198.447 65.586L198.223 65.1205C198.223 65.1205 198.137 64.9223 198.137 64.9136C198.042 64.6809 197.956 64.4568 197.87 64.224L197.801 64.0172C197.715 63.7413 197.628 63.4569 197.568 63.1724C197.49 62.7932 197.456 62.5605 197.421 62.3105L197.396 62.095C197.37 61.7933 197.344 61.5088 197.352 61.2244C197.352 61.0261 197.361 60.8279 197.378 60.6383L175.114 73.5765C174.64 73.8523 174.398 74.516 174.398 75.5504C174.398 75.7831 174.415 76.0159 174.433 76.24L174.459 76.4296C174.484 76.6193 174.51 76.8174 174.553 77.0157C174.622 77.3605 174.691 77.5845 174.76 77.8173C174.89 78.1793 174.958 78.369 175.045 78.5673C175.174 78.869 175.243 79.0068 175.312 79.1361L174.665 79.7394L175.415 79.3343C175.519 79.5326 175.639 79.7396 175.76 79.9379C175.872 80.1189 175.993 80.3085 176.122 80.4981L175.553 81.1704L176.252 80.6963L176.545 81.1187L176.036 81.8601L176.717 81.3601L179.113 84.3597L178.631 85.0924L179.268 84.5407L179.286 84.6011Z" fill="#262830"></path><path d="M154.543 47.5535L179.195 33.2275C179.523 33.0379 179.859 32.8656 180.212 32.7191C184.703 30.7883 191.435 31.883 200.4 35.9774L175.747 50.3031C166.783 46.2002 160.06 45.1141 155.56 47.0449C155.207 47.2 154.871 47.3639 154.543 47.5535Z" fill="white"></path><path d="M175.747 51.1564C175.626 51.1564 175.505 51.1304 175.393 51.0787C166.696 47.0964 160.128 46.0019 155.896 47.8207C155.594 47.95 155.301 48.0965 155.016 48.2603L154.973 48.2859C154.568 48.5187 154.051 48.3895 153.818 47.9844C153.586 47.5793 153.715 47.062 154.12 46.8293C154.137 46.8207 154.154 46.812 154.172 46.7948L178.772 32.4948C179.126 32.288 179.496 32.1068 179.884 31.9431C184.642 29.8916 191.478 30.9691 200.752 35.21C201.037 35.3393 201.227 35.6238 201.244 35.9427C201.261 36.2616 201.097 36.5546 200.821 36.7184L176.169 51.0444C176.04 51.122 175.893 51.1564 175.747 51.1564ZM160.576 45.2604C164.628 45.2604 169.635 46.6223 175.695 49.3548L198.537 36.0806C190.59 32.6585 184.539 31.7793 180.548 33.4947C180.22 33.6326 179.919 33.7878 179.626 33.9602L160.171 45.2604C160.3 45.2604 160.438 45.2604 160.576 45.2604Z" fill="#262830"></path><path d="M154.543 47.5543L179.195 33.2283C179.523 33.0387 179.859 32.8664 180.212 32.7199C184.703 30.7891 191.435 31.8838 200.4 35.9781L175.747 50.3039C166.783 46.201 160.06 45.1148 155.56 47.0457C155.207 47.2008 154.871 47.3647 154.543 47.5543Z" fill="white"></path><path d="M175.747 51.6139C175.557 51.6139 175.376 51.5709 175.204 51.4934C169.308 48.7954 164.369 47.4247 160.542 47.4247C158.835 47.4247 157.335 47.7007 156.068 48.2437C155.775 48.3644 155.508 48.5023 155.232 48.6574C154.982 48.7954 154.758 48.8557 154.534 48.8557C154.068 48.8557 153.637 48.6057 153.413 48.2092C153.241 47.9161 153.189 47.5626 153.275 47.2264C153.362 46.8903 153.577 46.6059 153.879 46.4335L178.539 32.0991C178.919 31.8836 179.298 31.6938 179.695 31.5214C181.306 30.8318 183.168 30.4785 185.228 30.4785C189.452 30.4785 194.589 31.8921 200.933 34.7969C201.382 35.0038 201.666 35.4348 201.692 35.9175C201.718 36.4002 201.468 36.857 201.046 37.107L176.385 51.4416C176.186 51.5536 175.962 51.6139 175.729 51.6139H175.747ZM161.8 44.8474C165.636 45.0801 170.196 46.3991 175.669 48.8471L197.529 36.1417C192.659 34.116 188.512 33.0989 185.202 33.0989C183.496 33.0989 181.996 33.3747 180.729 33.9177C180.436 34.0384 180.151 34.1849 179.85 34.3573L161.8 44.8474Z" fill="#262830"></path><path d="M175.747 51.1573C175.626 51.1573 175.505 51.1314 175.393 51.0797C166.696 47.0974 160.128 46.0029 155.896 47.8216C155.594 47.9509 155.301 48.0975 155.016 48.2612L154.973 48.2869C154.568 48.5197 154.051 48.3905 153.818 47.9854C153.586 47.5802 153.715 47.063 154.12 46.8302C154.137 46.8216 154.154 46.813 154.172 46.7957L178.772 32.4958C179.126 32.289 179.496 32.1078 179.884 31.944C184.642 29.8926 191.478 30.9701 200.752 35.2109C201.037 35.3402 201.227 35.6248 201.244 35.9437C201.261 36.2626 201.097 36.5556 200.821 36.7194L176.169 51.0454C176.04 51.123 175.893 51.1573 175.747 51.1573ZM160.576 45.2614C164.628 45.2614 169.635 46.6233 175.695 49.3558L198.537 36.0815C190.59 32.6595 184.539 31.7803 180.548 33.4956C180.22 33.6335 179.919 33.7887 179.626 33.9611L160.171 45.2614C160.3 45.2614 160.438 45.2614 160.576 45.2614Z" fill="#262830"></path><path d="M175.773 40.3306L200.434 26.0048L213.554 33.5816L188.893 47.9074L175.773 40.3306Z" fill="white"></path><path d="M188.89 49.2089C188.666 49.2089 188.442 49.1486 188.235 49.0366L175.116 41.4598C174.72 41.2271 174.47 40.7961 174.461 40.3392C174.461 39.8738 174.711 39.443 175.107 39.2102L199.768 24.8842C199.975 24.7722 200.199 24.7119 200.424 24.7119C200.648 24.7119 200.88 24.7722 201.079 24.8842L214.198 32.461C214.594 32.6937 214.844 33.1247 214.853 33.5816C214.853 34.047 214.603 34.4778 214.206 34.7106L189.554 49.0366C189.347 49.1486 189.123 49.2089 188.899 49.2089H188.89ZM188.89 46.3989L210.948 33.5816L200.432 27.5133L178.374 40.3306L188.89 46.3989Z" fill="#262830"></path><path d="M188.89 48.751C188.743 48.751 188.597 48.708 188.467 48.639L175.348 41.0623C175.09 40.9158 174.926 40.6312 174.926 40.3295C174.926 40.0279 175.09 39.7435 175.348 39.597L200 25.271C200.268 25.1245 200.587 25.1245 200.854 25.271L213.973 32.8477C214.232 32.9943 214.395 33.2788 214.395 33.5805C214.395 33.8822 214.232 34.1665 213.973 34.313L189.321 48.639C189.191 48.7166 189.045 48.751 188.898 48.751H188.89ZM177.46 40.3295L188.881 46.9237L211.844 33.5805L200.423 26.9863L177.46 40.3295Z" fill="#262830"></path><path d="M188.893 47.9078L213.554 33.582L213.52 43.417L188.867 57.743L188.893 47.9078Z" fill="#BFD0E2"></path><path d="M188.865 59.0443C188.641 59.0443 188.417 58.984 188.21 58.872C187.805 58.6392 187.555 58.2084 187.555 57.743L187.581 47.9078C187.581 47.4423 187.831 47.0199 188.227 46.7872L212.888 32.4614C213.095 32.3493 213.319 32.289 213.543 32.289C213.767 32.289 214 32.3493 214.198 32.4614C214.603 32.6941 214.853 33.1251 214.853 33.5906L214.827 43.4256C214.827 43.8824 214.577 44.3134 214.181 44.5462L189.52 58.872C189.313 58.984 189.089 59.0443 188.865 59.0443ZM190.175 55.4759L212.224 42.6669L212.242 35.8488L190.192 48.6578L190.175 55.4759Z" fill="#262830"></path><path d="M188.864 58.5886C188.718 58.5886 188.571 58.5454 188.442 58.4764C188.183 58.3299 188.02 58.0455 188.02 57.7438L188.045 47.9087C188.045 47.607 188.209 47.3313 188.468 47.1761L213.12 32.8501C213.387 32.7036 213.706 32.7036 213.973 32.8501C214.241 32.9966 214.396 33.2812 214.396 33.5829L214.37 43.4178C214.37 43.7195 214.206 43.9954 213.948 44.1506L189.295 58.4764C189.166 58.554 189.019 58.5886 188.873 58.5886H188.864ZM189.743 48.3914L189.718 56.2611L212.672 42.9178L212.698 35.0482L189.743 48.3914Z" fill="#262830"></path><path d="M214.258 79.558L238.919 65.2236L231.316 81.6355L206.664 95.9613L214.258 79.558Z" fill="#BFD0E2"></path><path d="M206.663 97.263C206.336 97.263 206.025 97.1424 205.784 96.9269C205.362 96.539 205.241 95.9357 205.482 95.4185L213.085 79.0152C213.197 78.7739 213.378 78.5669 213.611 78.4376L238.272 64.1118C238.47 63.9997 238.694 63.9394 238.927 63.9394C239.254 63.9394 239.565 64.06 239.806 64.2755C240.228 64.6634 240.349 65.2667 240.108 65.7839L232.505 82.1872C232.393 82.4372 232.203 82.6354 231.979 82.7647L207.318 97.0907C207.12 97.2027 206.896 97.263 206.663 97.263ZM209.585 92.7549L230.316 80.7046L236.005 68.4216L215.274 80.4719L209.585 92.7549Z" fill="#262830"></path><path d="M206.663 96.8061C206.456 96.8061 206.249 96.7285 206.094 96.582C205.818 96.332 205.74 95.9356 205.895 95.5994L213.498 79.1961C213.576 79.041 213.687 78.9031 213.843 78.8169L238.495 64.4909C238.814 64.3099 239.219 64.3445 239.495 64.5944C239.771 64.8444 239.848 65.2408 239.693 65.577L232.091 81.9803C232.013 82.1354 231.901 82.2733 231.746 82.3595L207.094 96.6855C206.964 96.7631 206.818 96.7974 206.671 96.7974L206.663 96.8061ZM214.92 80.153L208.567 93.8755L230.668 81.032L237.021 67.3096L214.92 80.153Z" fill="#262830"></path><path d="M188.859 57.743L213.512 43.4169C221.916 48.8042 230.38 56.0793 238.905 65.2334L214.253 79.5592C205.728 70.4051 197.264 63.1303 188.859 57.743Z" fill="white"></path><path d="M214.263 80.4041C214.039 80.4041 213.806 80.3095 213.642 80.1284C205.204 71.0692 196.713 63.7768 188.404 58.4498C188.154 58.2947 188.007 58.0103 188.016 57.7173C188.016 57.4242 188.18 57.1483 188.438 57.0018L213.091 42.6758C213.367 42.5206 213.711 42.5206 213.979 42.693C222.409 48.0976 231.002 55.476 239.536 64.6473C239.708 64.837 239.794 65.0956 239.751 65.3542C239.717 65.6042 239.562 65.8282 239.338 65.9662L214.685 80.2922C214.556 80.3697 214.409 80.4041 214.263 80.4041ZM190.481 57.7775C198.386 63.001 206.428 69.9571 214.418 78.4733L237.571 65.0181C229.52 56.476 221.426 49.537 213.496 44.3911L190.481 57.7688V57.7775Z" fill="#262830"></path><path d="M188.863 57.743L213.516 43.4169C221.92 48.8042 230.384 56.0793 238.909 65.2334L214.257 79.5592C205.732 70.4051 197.267 63.1303 188.863 57.743Z" fill="white"></path><path d="M214.266 80.8606C213.904 80.8606 213.56 80.7055 213.31 80.4382C204.897 71.4048 196.441 64.1384 188.166 58.8373C187.787 58.5959 187.554 58.1651 187.571 57.7083C187.58 57.26 187.83 56.8377 188.218 56.6135L212.87 42.2875C213.068 42.1755 213.301 42.1152 213.525 42.1152C213.775 42.1152 214.017 42.1841 214.232 42.3221C222.688 47.7438 231.316 55.1568 239.876 64.3454C240.143 64.6384 240.272 65.0349 240.212 65.4228C240.151 65.8107 239.927 66.1556 239.582 66.3538L214.921 80.6796C214.723 80.7917 214.499 80.852 214.266 80.852V80.8606ZM191.347 57.8116C199.001 62.9489 206.784 69.7068 214.516 77.9127L236.859 64.9315C229.049 56.691 221.188 49.9677 213.491 44.9425L191.347 57.8116Z" fill="#262830"></path><path d="M214.263 80.4041C214.039 80.4041 213.806 80.3095 213.642 80.1284C205.204 71.0692 196.713 63.7768 188.404 58.4498C188.154 58.2947 188.007 58.0103 188.016 57.7173C188.016 57.4242 188.18 57.1483 188.438 57.0018L213.091 42.6758C213.367 42.5206 213.711 42.5206 213.979 42.693C222.409 48.0976 231.002 55.476 239.536 64.6473C239.708 64.837 239.794 65.0956 239.751 65.3542C239.717 65.6042 239.562 65.8282 239.338 65.9662L214.685 80.2922C214.556 80.3697 214.409 80.4041 214.263 80.4041ZM190.481 57.7775C198.386 63.001 206.428 69.9571 214.418 78.4733L237.571 65.0181C229.52 56.476 221.426 49.537 213.496 44.3911L190.481 57.7688V57.7775Z" fill="#262830"></path><path d="M188.886 47.9077L188.86 57.7429C197.265 63.1302 205.729 70.4051 214.254 79.5592L206.652 95.9624C197.825 86.2998 189.869 79.4127 182.775 75.3184C179.396 73.3703 177.017 72.4651 175.638 72.6203C174.267 72.7754 173.569 73.7755 173.569 75.6201C173.569 77.2234 174.06 78.8351 175.052 80.447C176.043 82.0675 177.758 84.2311 180.206 86.9204C182.654 89.627 186.05 93.0835 190.403 97.2985C199.221 105.987 205.548 113.745 209.384 120.554C213.22 127.364 215.125 134.389 215.099 141.621C215.073 149.775 212.806 155.111 208.289 157.61C203.773 160.11 197.204 159.481 188.576 155.714L188.533 169.773L175.414 162.196L175.448 148.577C166.191 142.75 157.287 135.225 148.719 125.993L148.788 101.815C153.684 107.513 159.002 112.978 164.743 118.21C170.483 123.451 175.534 127.321 179.887 129.829C183.482 131.907 186.111 132.932 187.783 132.898C189.455 132.863 190.3 131.682 190.3 129.355C190.3 127.752 189.705 126.045 188.507 124.235C187.3 122.416 185.301 120.003 182.491 116.969C179.681 113.943 175.897 110.047 171.13 105.306C165.768 99.9276 161.441 94.8591 158.157 90.1183C154.865 85.3688 152.477 80.8091 150.994 76.4217C149.503 72.0343 148.762 67.2159 148.779 61.9665C148.805 53.9502 151.055 48.9852 155.554 47.0544C160.045 45.1236 166.777 46.2183 175.741 50.3127L175.767 40.331L188.886 47.9077Z" fill="#FF6D00"></path><path d="M188.543 171.074C188.319 171.074 188.086 171.014 187.888 170.902L174.769 163.325C174.364 163.092 174.114 162.661 174.114 162.196L174.148 149.292C165.055 143.483 156.176 135.94 147.763 126.881C147.539 126.64 147.41 126.321 147.41 125.993L147.479 101.806C147.479 101.263 147.824 100.772 148.332 100.591C148.47 100.539 148.625 100.513 148.781 100.513C149.16 100.513 149.522 100.677 149.772 100.97C154.582 106.573 159.917 112.055 165.615 117.253C171.252 122.39 176.269 126.252 180.536 128.708C184.897 131.225 186.871 131.605 187.673 131.605C188.19 131.596 188.991 131.579 189 129.364C189 128.027 188.474 126.554 187.423 124.959C186.259 123.201 184.285 120.813 181.544 117.856C178.743 114.831 174.933 110.918 170.218 106.228C164.822 100.807 160.409 95.6348 157.099 90.8595C153.746 86.0238 151.28 81.3002 149.772 76.8353C148.238 72.3272 147.47 67.3277 147.488 61.9663C147.513 53.4242 150.056 48.0025 155.047 45.8562C156.659 45.1666 158.512 44.8132 160.572 44.8132C164.382 44.8132 168.925 45.9595 174.45 48.3127L174.476 40.3308C174.476 39.8654 174.726 39.4345 175.131 39.2018C175.329 39.0898 175.553 39.0293 175.777 39.0293C176.002 39.0293 176.234 39.0898 176.433 39.2018L189.552 46.7783C189.957 47.0111 190.207 47.4421 190.207 47.9076L190.181 57.0359C198.439 62.4146 206.869 69.6981 215.23 78.6711C215.592 79.059 215.678 79.6194 215.462 80.1021L207.86 96.5054C207.679 96.9019 207.308 97.1776 206.877 97.2466C206.808 97.2552 206.748 97.2638 206.688 97.2638C206.317 97.2638 205.964 97.1087 205.722 96.8415C197.025 87.3167 189.095 80.4556 182.156 76.4474C178.329 74.2408 176.657 73.9046 176.002 73.9046C175.933 73.9046 175.872 73.9044 175.821 73.9131C175.459 73.9562 174.907 74.0167 174.907 75.62C174.907 76.9732 175.338 78.3695 176.191 79.7659C177.139 81.3088 178.82 83.4206 181.199 86.0496C183.613 88.7131 187.018 92.1868 191.336 96.3674C200.214 105.116 206.679 113.038 210.549 119.916C214.471 126.89 216.454 134.191 216.436 141.621C216.411 150.249 213.894 156.016 208.955 158.748C206.981 159.843 204.628 160.394 201.947 160.394C198.508 160.394 194.456 159.481 189.914 157.671L189.879 169.781C189.879 170.247 189.629 170.678 189.224 170.91C189.026 171.022 188.802 171.083 188.578 171.083L188.543 171.074ZM187.25 167.523L187.285 155.714C187.285 155.274 187.509 154.869 187.871 154.628C188.086 154.49 188.336 154.421 188.586 154.421C188.767 154.421 188.94 154.455 189.103 154.524C194.086 156.696 198.396 157.8 201.904 157.8C204.128 157.8 206.067 157.352 207.662 156.472C211.713 154.231 213.773 149.232 213.799 141.621C213.816 134.647 211.954 127.778 208.248 121.201C204.49 114.529 198.18 106.806 189.491 98.238C185.147 94.023 181.699 90.5147 179.243 87.8081C176.751 85.067 174.976 82.8173 173.942 81.1365C172.83 79.3177 172.269 77.4646 172.269 75.6286C172.278 72.0773 174.536 71.4478 175.502 71.3358C175.648 71.3185 175.812 71.3101 175.976 71.3101C177.657 71.3101 180.027 72.2323 183.44 74.1976C190.259 78.1282 197.947 84.6792 206.3 93.6523L212.713 79.809C204.49 71.0686 196.232 64.0091 188.164 58.8373C187.785 58.5959 187.56 58.1824 187.56 57.7428L187.586 48.6576L177.07 42.5807L177.053 50.3125C177.053 50.7607 176.82 51.1659 176.45 51.4072C176.243 51.5451 176.002 51.6141 175.752 51.6141C175.562 51.6141 175.381 51.5711 175.209 51.4935C169.313 48.7955 164.382 47.4248 160.555 47.4248C158.848 47.4248 157.348 47.7008 156.081 48.2438C152.134 49.9419 150.117 54.5534 150.099 61.9663C150.082 67.0433 150.806 71.7669 152.246 75.9905C153.677 80.2228 156.038 84.7309 159.245 89.3683C162.477 94.0315 166.796 99.074 172.071 104.375C176.812 109.099 180.647 113.029 183.466 116.072C186.311 119.141 188.379 121.64 189.612 123.511C190.948 125.536 191.629 127.502 191.621 129.355C191.612 133.665 188.957 134.173 187.819 134.199H187.716C185.794 134.199 183.027 133.139 179.251 130.958C174.829 128.398 169.657 124.433 163.882 119.166C158.995 114.71 154.366 110.038 150.099 105.254L150.039 125.476C158.392 134.415 167.175 141.819 176.165 147.473C176.545 147.715 176.777 148.129 176.777 148.577L176.743 161.446L187.268 167.523H187.25Z" fill="#262830"></path><path d="M188.542 170.617C188.395 170.617 188.249 170.574 188.119 170.505L175 162.929C174.742 162.782 174.578 162.498 174.578 162.196L174.612 149.042C165.484 143.241 156.563 135.682 148.107 126.562C147.96 126.407 147.883 126.2 147.883 125.985L147.952 101.806C147.952 101.453 148.176 101.134 148.503 101.014C148.831 100.893 149.21 100.988 149.443 101.255C154.27 106.884 159.623 112.374 165.329 117.58C170.984 122.744 176.035 126.614 180.327 129.096C184.62 131.579 186.8 132.079 187.774 132.044C188.274 132.036 189.456 132.01 189.464 129.346C189.464 127.924 188.912 126.355 187.809 124.692C186.637 122.916 184.637 120.511 181.879 117.537C179.086 114.52 175.267 110.607 170.535 105.892C165.165 100.496 160.769 95.3503 157.468 90.5922C154.141 85.7911 151.693 81.1107 150.193 76.6888C148.676 72.2324 147.917 67.2847 147.934 61.9663C147.96 53.6225 150.408 48.3387 155.218 46.2785C159.769 44.3219 166.217 45.2183 174.897 49.0109L174.923 40.3395C174.923 40.0378 175.086 39.7621 175.345 39.6069C175.604 39.4604 175.931 39.4604 176.19 39.6069L189.309 47.1837C189.567 47.3388 189.731 47.6145 189.731 47.9162L189.705 57.2859C198.006 62.6646 206.471 69.9654 214.875 78.9902C215.108 79.2402 215.168 79.6109 215.021 79.9212L207.419 96.3242C207.298 96.5828 207.057 96.7639 206.781 96.807C206.505 96.8501 206.221 96.7552 206.022 96.5397C197.299 86.9805 189.335 80.0936 182.344 76.0596C178.353 73.7581 176.534 73.3789 175.724 73.4737C175.293 73.5254 174.414 73.6202 174.405 75.6286C174.405 77.0681 174.854 78.5419 175.759 80.0072C176.715 81.576 178.422 83.7138 180.819 86.3601C183.241 89.0408 186.663 92.5145 190.973 96.695C199.816 105.41 206.247 113.296 210.108 120.141C213.996 127.045 215.952 134.268 215.935 141.621C215.909 150.077 213.47 155.705 208.686 158.352C204.161 160.86 197.679 160.403 189.412 156.998L189.378 169.781C189.378 170.083 189.214 170.359 188.955 170.514C188.826 170.591 188.68 170.626 188.533 170.626L188.542 170.617ZM176.267 161.705L187.697 168.299L187.732 155.705C187.732 155.421 187.878 155.154 188.119 154.998C188.361 154.843 188.662 154.818 188.921 154.93C197.248 158.559 203.626 159.214 207.876 156.86C212.082 154.533 214.22 149.404 214.246 141.612C214.263 134.553 212.375 127.614 208.643 120.968C204.867 114.262 198.532 106.496 189.809 97.9017C185.473 93.7039 182.025 90.1957 179.577 87.4977C177.103 84.7739 175.336 82.5501 174.328 80.8951C173.259 79.1539 172.716 77.3784 172.725 75.62C172.725 72.5514 174.5 71.8961 175.552 71.7754C177.155 71.5944 179.586 72.4909 183.206 74.5854C190.111 78.5677 197.92 85.248 206.428 94.4538L213.254 79.7229C204.936 70.8533 196.584 63.6988 188.404 58.4581C188.162 58.3029 188.016 58.0358 188.016 57.7428L188.042 48.399L176.612 41.8048L176.586 50.3211C176.586 50.6142 176.44 50.8815 176.198 51.0366C175.957 51.1918 175.647 51.2175 175.388 51.0968C166.691 47.1145 160.123 46.0198 155.89 47.8386C151.761 49.6142 149.65 54.3724 149.632 61.975C149.615 67.1037 150.348 71.8789 151.805 76.1456C153.253 80.421 155.632 84.9637 158.864 89.6356C162.114 94.3161 166.441 99.3844 171.742 104.703C176.491 109.426 180.319 113.357 183.129 116.391C185.947 119.434 188.007 121.916 189.231 123.769C190.524 125.717 191.171 127.596 191.171 129.364C191.162 133.122 189.067 133.725 187.818 133.751C187.783 133.751 187.757 133.751 187.723 133.751C185.887 133.751 183.189 132.708 179.482 130.57C175.086 128.028 169.941 124.08 164.191 118.839C159.011 114.115 154.123 109.151 149.65 104.074L149.589 125.666C158.002 134.69 166.863 142.164 175.922 147.87C176.172 148.025 176.319 148.301 176.319 148.594L176.285 161.73L176.267 161.705Z" fill="#262830"></path><defs><linearGradient id="paint0_linear_2750_43399" x1="2.26688" y1="118.995" x2="0.172208" y2="192.9" gradientUnits="userSpaceOnUse"><stop stop-color="#32C9EA"></stop><stop offset="1" stop-color="#4671CA"></stop></linearGradient><linearGradient id="paint1_linear_2750_43399" x1="16.0159" y1="119.383" x2="13.9126" y2="193.297" gradientUnits="userSpaceOnUse"><stop stop-color="#32C9EA"></stop><stop offset="1" stop-color="#4671CA"></stop></linearGradient><linearGradient id="paint2_linear_2750_43399" x1="29.6788" y1="119.771" x2="27.5755" y2="193.685" gradientUnits="userSpaceOnUse"><stop stop-color="#32C9EA"></stop><stop offset="1" stop-color="#4671CA"></stop></linearGradient><linearGradient id="paint3_linear_2750_43399" x1="43.1482" y1="120.15" x2="41.0449" y2="194.064" gradientUnits="userSpaceOnUse"><stop stop-color="#32C9EA"></stop><stop offset="1" stop-color="#4671CA"></stop></linearGradient><linearGradient id="paint4_linear_2750_43399" x1="56.5297" y1="120.538" x2="54.4264" y2="194.442" gradientUnits="userSpaceOnUse"><stop stop-color="#32C9EA"></stop><stop offset="1" stop-color="#4671CA"></stop></linearGradient><linearGradient id="paint5_linear_2750_43399" x1="70.2749" y1="120.925" x2="68.1716" y2="194.839" gradientUnits="userSpaceOnUse"><stop stop-color="#32C9EA"></stop><stop offset="1" stop-color="#4671CA"></stop></linearGradient><linearGradient id="paint6_linear_2750_43399" x1="255.141" y1="31.4706" x2="317.03" y2="31.4706" gradientUnits="userSpaceOnUse"><stop stop-color="#67CBEB"></stop><stop offset="1" stop-color="#5070C9"></stop></linearGradient><linearGradient id="paint7_linear_2750_43399" x1="123.765" y1="90.9083" x2="85.4774" y2="68.8031" gradientUnits="userSpaceOnUse"><stop stop-color="#67CBEB"></stop><stop offset="1" stop-color="#5070C9"></stop></linearGradient><linearGradient id="paint8_linear_2750_43399" x1="298.446" y1="119.019" x2="322.11" y2="84.4203" gradientUnits="userSpaceOnUse"><stop stop-color="#67CBEB"></stop><stop offset="1" stop-color="#5070C9"></stop></linearGradient><linearGradient id="paint9_linear_2750_43399" x1="365.724" y1="118.729" x2="365.724" y2="182.98" gradientUnits="userSpaceOnUse"><stop stop-color="#32C9EA"></stop><stop offset="1" stop-color="#4671CA"></stop></linearGradient><linearGradient id="paint10_linear_2750_43399" x1="379.532" y1="118.729" x2="379.532" y2="182.98" gradientUnits="userSpaceOnUse"><stop stop-color="#32C9EA"></stop><stop offset="1" stop-color="#4671CA"></stop></linearGradient><linearGradient id="paint11_linear_2750_43399" x1="393.329" y1="118.728" x2="393.329" y2="182.98" gradientUnits="userSpaceOnUse"><stop stop-color="#32C9EA"></stop><stop offset="1" stop-color="#4671CA"></stop></linearGradient></defs></svg> 