<?xml version="1.0" encoding="UTF-8"?> <svg xmlns="http://www.w3.org/2000/svg" width="632" height="500" viewBox="0 0 632 500" fill="none"><path d="M488.252 421.859L482.663 428.205L208.97 270.187C207.267 269.203 204.289 269.33 202.321 270.465L198.876 272.459L188.164 269.532C188.164 269.532 182.335 274.553 187.407 283.309C187.433 283.36 187.458 283.41 187.483 283.461V283.473C187.521 283.524 187.559 283.549 187.597 283.6C187.786 283.865 187.988 284.129 188.253 284.369C188.316 284.42 188.392 284.47 188.455 284.521C188.707 284.723 188.959 284.937 189.275 285.114L464.393 443.952C467.8 445.92 473.755 445.668 477.692 443.397L489.766 436.419L501.854 429.354L488.227 421.847L488.252 421.859Z" fill="#B6CCDF"></path><path d="M470.195 447.005C467.722 447.005 465.35 446.488 463.546 445.441L188.428 286.603C188.037 286.376 187.721 286.123 187.418 285.871C187.343 285.821 187.254 285.757 187.166 285.682C186.788 285.341 186.485 284.988 186.195 284.571L185.892 284.117C181.35 276.244 184.643 270.276 187.04 268.22L187.734 267.627L198.635 270.604L201.461 268.976C203.985 267.525 207.581 267.412 209.827 268.699L482.308 426.01L487.872 419.689L505.36 429.329L478.573 444.898C476.151 446.299 473.11 447.005 470.208 447.005H470.195ZM188.907 282.477L189.046 282.679C189.147 282.818 189.273 282.969 189.412 283.095C189.752 283.36 189.929 283.499 190.144 283.625L465.262 442.463C468.139 444.129 473.45 443.876 476.845 441.908L498.395 429.392L488.629 424.004L483.014 430.376L208.098 271.651C207.038 271.046 204.704 271.033 203.165 271.929L199.102 274.276L188.705 271.437C187.595 272.863 185.538 276.635 188.882 282.427L188.907 282.464V282.477Z" fill="#262830"></path><path d="M464.402 434.39L189.283 275.552C185.877 273.584 186.306 270.14 190.242 267.869L202.317 260.891C204.285 259.756 207.263 259.63 208.966 260.614L490.267 423.022C491.97 424.007 491.755 425.722 489.787 426.858L477.712 433.835C473.776 436.106 467.821 436.359 464.414 434.39H464.402Z" fill="white"></path><path d="M470.193 437.443C467.733 437.443 465.361 436.926 463.544 435.879L188.426 277.041C186.394 275.867 185.271 274.151 185.271 272.221C185.271 270.025 186.773 267.893 189.385 266.392L201.459 259.414C203.983 257.963 207.579 257.837 209.825 259.137L491.125 421.546C492.4 422.277 493.131 423.438 493.131 424.7C493.131 426.113 492.223 427.45 490.646 428.359L478.571 435.336C476.149 436.737 473.108 437.443 470.193 437.443ZM465.26 432.914C468.137 434.579 473.448 434.327 476.842 432.358L488.917 425.381C489.46 425.066 489.649 424.788 489.687 424.687C489.674 424.7 489.586 424.624 489.396 424.51L208.096 262.102C207.049 261.496 204.715 261.484 203.163 262.379L191.088 269.357C189.586 270.227 188.691 271.287 188.691 272.208C188.691 273.129 189.599 273.747 190.129 274.05L465.247 432.888L465.26 432.914Z" fill="#262830"></path><path d="M536.597 416.863H536.559C536.559 416.573 536.597 416.283 536.597 415.98V224.628C536.597 213.259 529.682 200.062 521.166 195.141L197.951 8.53263C197.194 8.09103 196.449 7.76289 195.717 7.48531V7.46005C192.222 5.65579 184.526 4.91143 177.473 9.10035C170.407 13.2893 167.732 22.0835 167.732 22.0835L182.52 24.3041V211.543C182.52 222.912 189.434 236.109 197.951 241.03L517.759 425.67L511.526 428.585L508.902 438.275C508.902 438.275 519.311 441.114 527.247 436.571C537.139 430.906 536.597 416.863 536.597 416.863Z" fill="#B6CCDF"></path><path d="M516.321 440.874C512.006 440.874 508.7 440.004 508.46 439.928L506.807 439.474L510.088 427.361L514.062 425.507L197.105 242.507C188.122 237.321 180.817 223.429 180.817 211.531V25.7682L165.537 23.472L166.117 21.5668C166.231 21.1883 169.083 12.0786 176.628 7.59949C184.539 2.90589 192.879 4.01609 196.538 5.90868L196.651 5.97182C197.459 6.28725 198.153 6.62802 198.834 7.01915L522.049 193.628C531.033 198.813 538.338 212.705 538.338 224.603V415.955C538.338 416.145 538.338 416.321 538.325 416.498V416.776C538.363 417.394 538.805 431.929 528.131 438.035C524.282 440.243 519.955 440.849 516.346 440.849L516.321 440.874ZM511.034 436.963C514.151 437.506 520.977 438.174 526.389 435.071C532.736 431.437 534.351 423.803 534.755 419.69L534.881 415.968V224.615C534.881 213.815 528.345 201.248 520.308 196.618L197.093 10.0093C196.487 9.6686 195.856 9.3658 195.112 9.07561L194.115 8.60893C190.873 7.37244 184.45 6.94352 178.344 10.5647C173.852 13.2269 171.253 18.0338 170.092 20.696L184.223 22.8159V211.531C184.223 222.332 190.759 234.899 198.796 239.529L521.456 425.822L512.965 429.796L511.022 436.951L511.034 436.963Z" fill="#262831"></path><path d="M505.206 436.736L181.991 250.127C173.462 245.207 166.561 232.009 166.561 220.641V29.2882C166.561 17.92 173.475 12.6965 181.991 17.6172L505.206 204.226C513.736 209.147 520.637 222.344 520.637 233.712V425.065C520.637 436.433 513.723 441.656 505.206 436.736Z" fill="url(#paint0_linear_2750_39810)"></path><path d="M511.339 440.306C509.118 440.306 506.746 439.613 504.336 438.225L181.121 251.616C172.138 246.43 164.832 232.539 164.832 220.641V29.2883C164.832 22.6895 167.091 17.592 171.027 15.3209C174.383 13.3779 178.585 13.6683 182.849 16.1286L506.065 202.737C515.048 207.923 522.353 221.814 522.353 233.712V425.065C522.353 431.664 520.095 436.761 516.159 439.032C514.695 439.877 513.067 440.294 511.339 440.294V440.306ZM506.065 435.247C509.219 437.064 512.197 437.367 514.442 436.067C517.281 434.427 518.922 430.414 518.922 425.077V233.725C518.922 222.925 512.386 210.358 504.349 205.727L181.134 19.1187C177.979 17.3019 175.002 16.9992 172.756 18.2987C169.904 19.939 168.277 23.9512 168.277 29.2883V220.641C168.277 231.441 174.812 244.008 182.849 248.639L506.065 435.247Z" fill="#262830"></path><path d="M500.575 418.83L186.621 237.572C183.214 235.603 180.451 230.317 180.451 225.774V40.2134C180.451 35.6712 183.214 33.5765 186.621 35.5448L500.575 216.804C503.982 218.772 506.745 224.058 506.745 228.601V414.162C506.745 418.704 503.982 420.799 500.575 418.83Z" fill="#CDDCE8"></path><path d="M503.035 421.29C501.975 421.29 500.839 420.962 499.716 420.318L185.762 239.059C181.826 236.788 178.734 230.947 178.734 225.773V40.2124C178.734 37.1969 179.82 34.8247 181.725 33.727C183.403 32.7554 185.447 32.8816 187.478 34.055L501.432 215.314C505.369 217.597 508.46 223.427 508.46 228.6V414.161C508.46 417.177 507.362 419.536 505.47 420.634C504.725 421.063 503.893 421.29 503.035 421.29ZM184.172 36.5153C183.92 36.5153 183.668 36.566 183.441 36.7048C182.646 37.1716 182.166 38.4712 182.166 40.2124V225.773C182.166 229.697 184.602 234.416 187.478 236.082L501.432 417.341C501.975 417.656 502.984 418.11 503.754 417.669C504.549 417.202 505.028 415.902 505.028 414.161V228.6C505.028 224.676 502.593 219.957 499.716 218.292L185.762 37.0328C185.384 36.8183 184.765 36.528 184.172 36.528V36.5153Z" fill="#262830"></path><path d="M195.188 232.965C191.781 230.997 189.018 225.711 189.018 221.169V36.9194L186.621 35.5314C183.214 33.5631 180.451 35.6578 180.451 40.2V225.761C180.451 230.303 183.214 235.59 186.621 237.558L500.575 418.817C503.982 420.785 506.745 418.691 506.745 414.149V412.836L195.188 232.965Z" fill="#262830"></path><path d="M503.035 421.29C501.975 421.29 500.839 420.962 499.716 420.318L185.762 239.059C181.826 236.776 178.734 230.947 178.734 225.773V40.2124C178.734 37.1969 179.82 34.8247 181.725 33.727C183.403 32.7554 185.447 32.8816 187.478 34.055L190.733 35.935V221.181C190.733 225.105 193.168 229.824 196.045 231.489L508.46 411.865V414.174C508.46 417.189 507.362 419.549 505.47 420.646C504.725 421.075 503.893 421.302 503.035 421.302V421.29ZM184.172 36.5153C183.92 36.5153 183.668 36.566 183.441 36.7048C182.646 37.1716 182.166 38.4712 182.166 40.2124V225.773C182.166 229.697 184.602 234.416 187.478 236.082L501.432 417.341C501.975 417.656 502.984 418.11 503.754 417.669C504.549 417.202 505.028 415.902 505.028 414.161V413.833L194.329 234.454C190.393 232.171 187.302 226.341 187.302 221.168V37.9033L185.762 37.0202C185.384 36.8057 184.765 36.5153 184.172 36.5153Z" fill="#262830"></path><path d="M51.7561 327.709L46.785 362.041C46.785 362.041 22.4212 338.813 2.27148 339.229L9.94254 311.471C9.94254 311.471 24.1749 308.089 51.7435 327.709H51.7561Z" fill="#F2F2F2"></path><path d="M48.0085 365.574L45.5985 363.278C45.3587 363.051 21.4115 340.491 2.30905 340.933L0 340.983L8.55451 310.021L9.53868 309.781C10.1569 309.63 24.856 306.45 52.74 326.284L53.5979 326.89L47.9959 365.549L48.0085 365.574ZM4.51706 337.552C21.0204 338.51 39.0882 352.97 45.5483 358.61L49.9011 328.505C27.9346 313.099 14.8252 312.759 11.305 313.024L4.52969 337.552H4.51706Z" fill="#262830"></path><path d="M151.192 434.234L150.347 430.992C150.107 430.071 149.64 429.149 149.022 428.367L132.771 413.163C132.292 412.57 131.762 412.078 131.207 411.763L122.829 406.905C122.097 406.476 121.378 406.375 120.823 406.603L115.864 408.672L111.738 415.977L113.341 422.198L138.638 444.795L149.388 438.095C150.586 437.376 151.394 436.051 151.255 434.663C151.243 434.512 151.218 434.373 151.18 434.234H151.192Z" fill="#B4CADD"></path><path d="M138.473 446.939L111.825 423.13L109.92 415.736L114.677 407.308L120.178 405.012C121.238 404.57 122.499 404.709 123.698 405.403L132.076 410.26C132.808 410.689 133.527 411.32 134.133 412.078L150.207 427.092C151.141 428.24 151.721 429.388 152.024 430.536L152.869 433.792C152.919 434.019 152.97 434.233 152.995 434.46C153.197 436.454 152.137 438.448 150.308 439.545L138.498 446.913L138.473 446.939ZM114.891 421.275L138.851 442.662L148.516 436.643C149.235 436.214 149.652 435.495 149.576 434.839L151.204 434.233L149.538 434.662L148.693 431.419C148.516 430.726 148.15 430.019 147.683 429.426L131.609 414.412C131.104 413.806 130.713 413.453 130.36 413.238L121.982 408.38C121.641 408.179 121.49 408.191 121.465 408.191L117.099 410.021L113.604 416.216L114.904 421.263L114.891 421.275Z" fill="#262830"></path><path d="M132.77 413.162C132.29 412.569 131.76 412.078 131.205 411.762L122.828 406.904C122.096 406.475 121.376 406.374 120.821 406.602L115.863 408.671L104.116 415.963C103.99 416.039 103.99 416.228 104.116 416.304L113.339 422.197L124.935 431.546C124.935 431.546 124.947 431.546 124.96 431.546C127.635 430.057 132.631 437.678 133.073 437.514C133.11 437.501 134.385 437.186 135.028 436.832L148.327 428.757C148.693 428.543 148.781 428.063 148.516 427.735L132.757 413.15L132.77 413.162Z" fill="#F2F2F2"></path><path d="M133.01 439.267C132.165 439.267 131.521 438.523 130.499 437.325C127.496 433.817 126.26 433.06 125.755 433.06H125.73L124.758 433.602L123.926 432.909L112.28 423.521L102.426 417.238L102.338 416.128C102.338 415.471 102.679 414.853 103.234 414.513L115.233 407.081L120.191 405.012C121.251 404.57 122.513 404.709 123.711 405.403L132.089 410.26C132.796 410.664 133.464 411.257 134.057 411.976L149.905 426.663C150.334 427.205 150.51 427.912 150.384 428.593C150.258 429.275 149.842 429.88 149.236 430.234L135.95 438.296C135.382 438.611 134.663 438.864 133.641 439.141C133.426 439.217 133.225 439.255 133.035 439.255L133.01 439.267ZM125.755 429.603C128.417 429.603 131.181 432.833 133.111 435.104C133.263 435.281 133.414 435.457 133.54 435.596C133.969 435.457 134.146 435.369 134.221 435.331L146.296 428L131.433 414.222C131.092 413.793 130.714 413.453 130.348 413.238L121.97 408.38C121.629 408.179 121.453 408.191 121.453 408.191L116.671 410.198L107.094 416.153L114.286 420.745L125.326 429.628C125.478 429.603 125.629 429.59 125.768 429.59L125.755 429.603Z" fill="#262830"></path><path d="M102.792 418.208V421.728C102.792 423.684 104.167 426.056 105.858 427.04L136.278 444.755C138.398 445.978 139.874 444.414 139.167 441.701L138.322 438.459C138.082 437.538 137.616 436.616 136.997 435.834L120.746 420.63C120.267 420.037 119.737 419.545 119.182 419.23L110.804 414.372C110.072 413.943 109.366 413.842 108.798 414.069L103.839 416.139C103.158 416.416 102.779 417.173 102.779 418.208H102.792Z" fill="#262830"></path><path d="M137.666 446.887C136.947 446.887 136.177 446.672 135.433 446.243L105 428.529C102.767 427.242 101.076 424.315 101.076 421.728V418.208C101.076 416.479 101.871 415.104 103.196 414.549L108.154 412.48C109.214 412.038 110.463 412.177 111.675 412.871L120.052 417.729C120.784 418.158 121.503 418.788 122.109 419.545L138.183 434.56C139.117 435.708 139.697 436.869 140 438.004L140.845 441.234C141.4 443.354 140.959 445.209 139.659 446.205C139.092 446.647 138.41 446.862 137.678 446.862L137.666 446.887ZM104.546 417.716C104.546 417.716 104.508 417.88 104.508 418.208V421.728C104.508 423.066 105.555 424.882 106.716 425.551L137.149 443.266C137.489 443.455 137.653 443.455 137.666 443.455C137.59 443.455 137.742 443.013 137.515 442.13L136.669 438.888C136.493 438.194 136.127 437.487 135.66 436.894L119.586 421.88C119.081 421.274 118.69 420.921 118.336 420.706L109.958 415.849C109.605 415.647 109.441 415.659 109.441 415.659L104.558 417.703L104.546 417.716Z" fill="#262830"></path><path d="M121.542 417.819C127.674 418.021 132.822 415.662 133.036 412.533C133.087 411.851 132.847 411.195 132.456 410.577C130.753 406.83 126.324 405.568 126.324 405.568C126.324 405.568 122.703 404.344 117.605 405.467C113.707 406.325 111.89 409.189 111.234 410.501C111.183 410.602 111.133 410.703 111.082 410.804C111.082 410.817 111.057 410.854 111.057 410.867C111.057 410.867 111.057 410.88 111.057 410.892C110.944 411.182 110.843 411.473 110.817 411.788C110.603 414.917 115.41 417.617 121.542 417.819Z" fill="#B4CADD"></path><path d="M122.323 419.561C122.046 419.561 121.768 419.561 121.478 419.548C116.835 419.397 112.646 417.857 110.564 415.561C109.504 414.388 109 413.05 109.088 411.688C109.101 411.486 109.139 411.296 109.176 411.107L109.126 411.006L109.467 410.199C109.555 409.997 109.618 409.858 109.694 409.707C110.388 408.293 112.57 404.811 117.213 403.789C122.715 402.578 126.689 403.89 126.853 403.94C126.992 403.978 132.001 405.455 134.007 409.871C134.524 410.653 134.802 411.662 134.739 412.659C134.461 416.671 129.187 419.561 122.311 419.561H122.323ZM112.671 411.461C112.558 411.763 112.532 411.877 112.52 411.927C112.495 412.344 112.696 412.798 113.113 413.265C114.576 414.88 117.895 416.003 121.592 416.129C127.332 416.331 131.206 414.072 131.32 412.444C131.332 412.192 131.231 411.877 131.004 411.523C129.553 408.382 125.882 407.246 125.844 407.246C125.743 407.208 122.488 406.174 117.958 407.17C114.879 407.852 113.378 410.047 112.76 411.296L112.671 411.473V411.461Z" fill="#262830"></path><path d="M121.766 411.684C117.981 411.558 115.028 409.892 115.154 407.962C115.28 406.031 118.46 404.58 122.232 404.706C126.018 404.833 128.97 406.498 128.844 408.428C128.718 410.359 125.538 411.81 121.766 411.684Z" fill="#B4CADD"></path><path d="M122.245 413.413C122.068 413.413 121.892 413.413 121.715 413.413C118.624 413.312 115.937 412.303 114.523 410.739C113.754 409.881 113.375 408.884 113.451 407.862C113.653 404.935 117.463 402.853 122.308 403.004C125.399 403.105 128.087 404.115 129.5 405.679C130.27 406.537 130.648 407.534 130.573 408.556C130.383 411.382 126.85 413.413 122.258 413.413H122.245ZM121.766 406.424C118.624 406.424 116.908 407.635 116.87 408.089C116.87 408.139 116.921 408.278 117.072 408.43C117.716 409.136 119.432 409.893 121.829 409.982C125.236 410.057 127.103 408.795 127.141 408.329C127.141 408.266 127.078 408.14 126.939 407.988C126.295 407.282 124.579 406.524 122.182 406.436C122.043 406.436 121.905 406.436 121.766 406.436V406.424Z" fill="#262830"></path><path d="M128.607 408.347L115.397 408.069C116.116 373.637 124.116 342.006 126.109 334.637L119.864 302.943C117.189 289.38 111.107 276.598 102.275 265.975L112.432 257.534C122.677 269.848 129.718 284.673 132.822 300.394L139.685 335.18L139.244 336.707C139.143 337.047 129.377 371.606 128.607 408.347Z" fill="#262830"></path><path d="M119.537 323.884C119.486 324.679 119.461 325.486 119.499 326.294C119.637 329.145 120.079 331.757 120.697 334.57C121.404 337.75 123.132 341.207 125.694 343.592C130.16 347.756 135.964 348.134 138.273 348.109C138.879 348.109 139.421 347.743 139.648 347.175C140.961 343.97 145.124 332.678 142.929 323.493C141.73 318.458 138.689 314.951 134.98 313.349C128.583 310.585 120.243 315.607 119.625 322.546L119.537 323.909V323.884Z" fill="#B4CADD"></path><path d="M138.045 349.814C135.395 349.814 129.289 349.284 124.519 344.843C121.87 342.37 119.876 338.761 119.018 334.938C118.274 331.582 117.896 329.021 117.782 326.371C117.744 325.513 117.769 324.643 117.82 323.772L117.908 322.409C118.249 318.549 120.633 314.965 124.28 312.795C127.913 310.637 132.153 310.246 135.66 311.748C140.076 313.653 143.332 317.779 144.594 323.066C146.902 332.743 142.6 344.452 141.237 347.808C140.745 349.006 139.585 349.789 138.298 349.814C138.222 349.814 138.133 349.814 138.045 349.814ZM131.156 314.271C129.453 314.271 127.674 314.763 126.046 315.735C123.346 317.35 121.58 319.936 121.34 322.662L121.252 323.974C121.201 324.706 121.176 325.45 121.214 326.195C121.327 328.642 121.681 331.027 122.374 334.181C123.068 337.31 124.747 340.351 126.866 342.332C130.879 346.067 136.203 346.445 138.247 346.382C139.332 343.392 143.332 332.554 141.262 323.873C140.253 319.646 137.717 316.378 134.298 314.902C133.326 314.486 132.254 314.271 131.156 314.271Z" fill="#262830"></path><path d="M142.299 338.898C143.409 334.255 144.141 328.552 142.93 323.48C142.514 321.713 141.845 320.149 141.025 318.786C140.899 318.748 136.129 317.953 131.372 319.417C128.887 320.187 127.31 322.597 127.385 325.196C127.436 326.886 127.638 329.057 128.155 331.631C129.19 336.829 134.136 340.526 139.397 339.756C140.406 339.605 141.403 339.34 142.299 338.898Z" fill="#F2F2F2"></path><path d="M138.059 341.573C132.609 341.573 127.6 337.536 126.489 331.959C126.035 329.663 125.758 327.404 125.682 325.246C125.569 321.815 127.701 318.749 130.88 317.765C136.268 316.112 141.453 317.108 141.491 317.121L142.16 317.31L142.513 317.903C143.46 319.493 144.166 321.234 144.608 323.089C145.693 327.606 145.478 333.069 143.977 339.302L143.788 340.084L143.068 340.438C142.072 340.93 140.923 341.27 139.649 341.459C139.119 341.535 138.589 341.573 138.059 341.573ZM137.681 320.25C136.066 320.25 133.971 320.414 131.89 321.057C130.199 321.575 129.051 323.253 129.114 325.133C129.177 327.101 129.429 329.17 129.858 331.29C130.729 335.643 134.905 338.684 139.157 338.065C139.763 337.977 140.318 337.839 140.835 337.662C142.034 332.312 142.173 327.681 141.277 323.884C140.987 322.647 140.545 321.461 139.965 320.363C139.46 320.313 138.665 320.25 137.693 320.25H137.681Z" fill="#262830"></path><path d="M142.472 203.077L138.788 173.869C137.224 161.428 131.294 149.896 122.096 141.379L131.079 131.689C142.548 142.313 149.942 156.709 151.897 172.216L155.582 201.424L142.472 203.077Z" fill="#262830"></path><path d="M113.139 263.941C114.135 260.383 113.315 256.926 111.347 255.147C111.322 255.109 111.309 255.071 111.284 255.046C108.357 251.463 103.903 248.826 103.903 248.826L98.73 253.633L96.1434 269.973C96.0677 270.427 96.4084 270.856 96.8626 270.906C102.831 271.575 106.59 270.654 106.59 270.654L107.057 270.54C109.821 270.275 112.104 267.714 113.151 263.941H113.139Z" fill="#262830"></path><path d="M101.113 272.862C99.8136 272.862 98.3248 272.799 96.6719 272.61C95.9906 272.534 95.3599 272.181 94.9435 271.626C94.5272 271.083 94.3507 270.376 94.4516 269.708L97.1389 252.775L103.687 246.694L104.798 247.35C104.987 247.464 109.554 250.189 112.633 253.961L112.696 254.037C115.093 256.359 115.926 260.384 114.803 264.396C113.529 268.976 110.69 271.916 107.22 272.244L106.993 272.32C106.879 272.345 104.722 272.862 101.138 272.862H101.113ZM97.9968 269.291C102.993 269.733 106.148 268.988 106.185 268.976L106.665 268.862C108.873 268.635 110.627 266.591 111.497 263.475C112.279 260.649 111.762 257.822 110.21 256.422L109.832 255.942C108.065 253.797 105.529 251.93 104.104 250.984L100.331 254.479L97.9842 269.279L97.9968 269.291Z" fill="#262830"></path><path d="M107.346 261.748C105.605 268.006 100.533 272.069 96.0157 270.807C91.4988 269.545 89.2526 263.452 90.9938 257.193C92.735 250.935 97.8074 246.872 102.324 248.134C106.841 249.396 109.087 255.49 107.346 261.748Z" fill="#B4CADD"></path><path d="M97.6559 272.749C96.9493 272.749 96.2429 272.661 95.5489 272.459C92.8236 271.702 90.6913 269.57 89.5431 266.466C88.4707 263.564 88.3951 260.107 89.3414 256.726C91.3349 249.559 97.3532 244.954 102.791 246.468C108.204 247.982 110.992 255.035 108.999 262.189C107.258 268.434 102.45 272.724 97.6559 272.724V272.749ZM100.659 249.635C97.4163 249.635 93.9465 253.003 92.6469 257.659C91.9025 260.347 91.9405 263.047 92.7732 265.28C93.5302 267.324 94.8424 268.699 96.4826 269.154C100.003 270.125 104.23 266.529 105.693 261.28C107.157 256.032 105.403 250.77 101.87 249.786C101.479 249.673 101.075 249.622 100.672 249.622L100.659 249.635Z" fill="#262830"></path><path d="M96.2968 230.03C96.3473 229.374 56.4263 253.625 56.4263 253.625C56.3632 253.751 56.3379 253.877 56.3379 254.016C56.401 255.517 56.9309 265.27 60.489 271.642C60.489 271.642 66.1542 284.032 82.3421 286.139C83.0487 286.228 83.6416 285.584 83.5154 284.877L80.9415 271.289C80.8784 270.961 80.9793 270.62 81.219 270.38C93.2432 258.142 95.8047 235.897 96.2715 230.03H96.2968Z" fill="#262830"></path><path d="M82.4928 287.868C82.3792 287.868 82.2659 287.868 82.1397 287.843C65.2958 285.66 59.2646 273.056 58.9491 272.374C55.2775 265.712 54.7099 255.972 54.6342 254.079C54.6215 253.663 54.6972 253.272 54.8738 252.893L55.0882 252.426L55.5299 252.161C95.7662 227.709 95.9681 227.823 97.1794 228.567L98.0751 229.122L97.9994 230.182C97.482 236.68 94.8326 258.735 82.7075 271.34L85.2183 284.575C85.3823 285.446 85.1172 286.354 84.499 286.997C83.9691 287.553 83.2372 287.868 82.4801 287.868H82.4928ZM62.2297 271.251C63.2013 273.106 68.5761 282.228 81.6854 284.31L79.2882 271.617C79.1242 270.734 79.4016 269.826 80.0325 269.182C90.0758 258.949 93.2932 241.462 94.29 232.996C87.7669 236.705 70.4562 247.114 58.1165 254.622C58.2679 257.158 58.9869 265.384 62.0277 270.809L62.2424 271.251H62.2297Z" fill="#262830"></path><path d="M71.2505 262.721C71.1874 262.847 71.1621 262.973 71.1621 263.112C71.2757 265.762 72.8277 293.974 89.8609 284.297C107.26 274.417 110.566 245.89 111.108 239.127C111.159 238.471 110.478 238.004 109.885 238.282L75.5655 254.003C75.3762 254.091 75.225 254.242 75.1367 254.419L71.2379 262.721H71.2505Z" fill="#F2F2F2"></path><path d="M83.3626 288.031C81.7223 288.031 80.1828 287.64 78.7571 286.845C70.6442 282.341 69.5846 266.342 69.4584 263.175C69.4458 262.759 69.5214 262.368 69.698 261.989L73.5969 253.687C73.8618 253.132 74.3034 252.69 74.846 252.438L109.165 236.717C110.01 236.339 110.982 236.427 111.739 236.944C112.496 237.474 112.899 238.332 112.824 239.253C112.155 247.606 108.559 275.641 90.7056 285.785C88.0686 287.274 85.6211 288.031 83.3626 288.031ZM72.8902 263.251C73.1804 269.61 75.073 280.864 80.4227 283.83C82.7316 285.104 85.5327 284.763 89.0151 282.795C104.673 273.9 108.458 248.438 109.266 240.439L76.5617 255.428L72.8902 263.251Z" fill="#262830"></path><path d="M58.041 256.905L66.646 261.877C69.1569 263.328 72.2606 263.302 74.7588 261.813L109.62 240.982C111.815 239.67 111.828 236.491 109.62 235.166L101.545 230.308C99.0343 228.794 95.8927 228.782 93.3692 230.27L58.0284 251.051C55.7951 252.363 55.8078 255.606 58.0537 256.905H58.041Z" fill="#B4CADD"></path><path d="M70.6459 264.652C68.9678 264.652 67.2896 264.223 65.7882 263.352L57.1835 258.381C55.5937 257.46 54.6348 255.82 54.6348 253.978C54.6348 252.135 55.5684 250.483 57.1582 249.562L92.499 228.781C95.5776 226.977 99.3753 226.989 102.441 228.832L110.516 233.689C112.068 234.623 112.989 236.263 112.989 238.067C112.989 239.884 112.056 241.512 110.504 242.445L75.6423 263.276C74.103 264.197 72.3871 264.652 70.6586 264.652H70.6459ZM58.8992 255.403L67.5043 260.375C69.4725 261.51 71.9203 261.497 73.876 260.324L108.737 239.493C109.469 239.051 109.558 238.345 109.558 238.067C109.558 237.79 109.482 237.071 108.75 236.629L100.675 231.771C98.694 230.585 96.2336 230.572 94.2527 231.733L58.9119 252.514C58.1674 252.955 58.0919 253.675 58.0919 253.965C58.0919 254.255 58.1801 254.974 58.9245 255.403H58.8992Z" fill="#262830"></path><path d="M76.1076 253.18C73.5841 253.18 71.5273 251.136 71.5273 248.6V234.873C71.5273 232.349 73.5715 230.293 76.1076 230.293C78.631 230.293 80.6875 232.337 80.6875 234.873V248.6C80.6875 251.124 78.6436 253.18 76.1076 253.18Z" fill="#262830"></path><path d="M91.5001 244.551C88.9767 244.551 86.9199 242.507 86.9199 239.971V226.244C86.9199 223.72 88.9641 221.664 91.5001 221.664C94.0236 221.664 96.08 223.708 96.08 226.244V239.971C96.08 242.495 94.0362 244.551 91.5001 244.551Z" fill="#262830"></path><path d="M135.886 133.67C133.489 128.913 129.275 126.011 125.464 126.024C125.401 126.024 125.351 125.986 125.301 125.974C118.727 124.99 111.409 126.491 111.409 126.491L110.551 136.635L123.622 156.558C123.988 157.113 124.758 157.239 125.288 156.861C132.29 151.788 135.394 147.17 135.394 147.17L135.785 146.603C138.485 143.638 138.422 138.704 135.886 133.67Z" fill="#B4CADD"></path><path d="M124.595 158.803C124.418 158.803 124.254 158.79 124.077 158.753C123.308 158.614 122.614 158.16 122.185 157.504L108.785 137.076L109.807 125.065L111.069 124.812C111.384 124.749 118.753 123.273 125.553 124.282L125.73 124.308C130.272 124.421 134.84 127.752 137.414 132.887C140.341 138.717 140.215 144.281 137.048 147.75L136.795 148.129C136.669 148.305 133.452 153.037 126.285 158.235C125.793 158.588 125.2 158.778 124.582 158.778L124.595 158.803ZM112.305 136.193L124.733 155.131C131.055 150.45 133.944 146.249 133.969 146.199L134.373 145.618C136.657 143.094 136.594 138.868 134.348 134.427C132.329 130.414 128.771 127.727 125.49 127.727H125.314L124.822 127.613C120.33 126.957 115.296 127.575 112.987 127.941L112.293 136.168L112.305 136.193Z" fill="#262830"></path><path d="M127.585 136.937C131.799 145.302 130.323 154.538 124.292 157.566C118.261 160.607 109.971 156.279 105.757 147.927C101.543 139.561 103.019 130.325 109.05 127.297C115.081 124.257 123.371 128.584 127.585 136.937Z" fill="#B4CADD"></path><path d="M120.103 160.266C117.971 160.266 115.75 159.686 113.555 158.55C109.732 156.569 106.426 153.075 104.231 148.709C102.036 144.344 101.203 139.599 101.871 135.36C102.578 130.906 104.862 127.499 108.281 125.784C111.7 124.068 115.788 124.257 119.8 126.339C123.623 128.32 126.929 131.827 129.125 136.18C131.32 140.546 132.153 145.29 131.484 149.529C130.777 153.983 128.494 157.39 125.074 159.106C123.535 159.875 121.857 160.266 120.116 160.266H120.103ZM113.24 128.042C112.028 128.042 110.868 128.307 109.82 128.837C107.41 130.048 105.783 132.559 105.253 135.89C104.685 139.435 105.404 143.435 107.284 147.157C109.164 150.879 111.94 153.844 115.132 155.497C118.135 157.049 121.1 157.251 123.522 156.04C125.932 154.828 127.547 152.318 128.09 148.987C128.658 145.441 127.938 141.441 126.058 137.719C124.191 133.997 121.403 131.032 118.223 129.38C116.533 128.496 114.842 128.055 113.252 128.055L113.24 128.042Z" fill="#262830"></path><path d="M53.5563 165.3C53.5563 165.3 48.989 173.173 54.6542 183.784C58.5907 191.152 57.0513 205.372 55.7517 213.346C54.9442 218.279 54.4142 223.238 54.124 228.222L53.7833 234.114C53.7329 234.909 54.162 235.666 54.8559 236.044L72.5705 245.633C72.7346 245.722 72.9237 245.684 73.0372 245.545C76.1411 241.811 114.826 195.278 115.734 194.143C116.68 192.969 106.435 160.417 106.839 159.243C107.243 158.07 75.8761 146.513 75.8761 146.513L66.4384 148.165L58.6285 154.6L53.5563 165.3Z" fill="#262830"></path><path d="M72.7486 247.413C72.4079 247.413 72.0672 247.325 71.7518 247.161L54.0375 237.572C52.7505 236.878 51.9808 235.49 52.0691 234.026L52.4098 228.134C52.7126 223.024 53.2678 217.952 54.0501 213.082C55.2992 205.423 56.8385 191.544 53.1291 184.605C47.3125 173.704 51.5139 165.439 52.0186 164.531L57.2297 153.541L65.6958 146.576L76.0292 144.772L76.4583 144.936C107.534 156.38 109.036 157.806 108.556 159.522C108.783 160.973 110.562 167.256 112.152 172.82C118.158 193.891 117.918 194.181 117.06 195.254C116.101 196.452 74.7547 246.177 74.3384 246.681C73.9346 247.173 73.3416 247.439 72.7233 247.439L72.7486 247.413ZM55.0466 166.158C54.87 166.474 51.0723 173.426 56.1697 182.977C60.1441 190.421 59.0591 203.758 57.444 213.624C56.6618 218.381 56.1318 223.34 55.8416 228.323L55.5009 234.215C55.5009 234.354 55.5639 234.48 55.6775 234.544L72.4205 243.616C78.6408 236.134 110.373 197.966 114.057 193.487C113.792 191.027 110.84 180.693 108.859 173.729C106.348 164.897 105.44 161.566 105.187 160.064C102.361 158.424 88.3814 152.948 75.7137 148.28L67.1845 149.769L60.018 155.661L55.0466 166.133V166.158Z" fill="#262830"></path><path d="M50.3892 164.859C50.6289 166.474 52.8874 166.802 53.5561 165.301C54.6791 162.777 57.253 159.572 63.0695 159.572C72.6965 159.572 86.9538 175.823 77.7685 200.515C69.4537 222.911 72.1538 241.912 72.7342 245.268C72.7847 245.533 73.0751 245.647 73.3022 245.521L109.677 224.21C115.04 221.069 119.178 216.16 121.285 210.306C123.367 204.527 125.992 196.415 128.137 187.078C132.855 166.562 130.294 145.454 124.452 135.663C119.241 126.932 104.34 119.714 104.34 119.714C104.34 119.714 72.419 129.846 58.0858 147.46C50.629 156.62 49.9476 161.894 50.3892 164.846V164.859Z" fill="#F2F2F2"></path><path d="M73.1002 247.299C72.7974 247.299 72.4947 247.236 72.2171 247.097C71.5989 246.807 71.1573 246.239 71.0438 245.558C70.4129 241.924 67.7129 222.645 76.1538 199.921C82.3741 183.178 76.8477 172.441 74.1728 168.605C71.0816 164.164 66.716 161.287 63.057 161.287C59.1709 161.287 56.496 162.864 55.1081 165.993C54.5025 167.369 53.0767 168.151 51.5752 167.949C50.0611 167.747 48.9006 166.599 48.6735 165.11C47.9291 160.101 50.5659 153.982 56.7358 146.386C71.2203 128.571 102.473 118.502 103.798 118.086L104.454 117.884L105.072 118.187C105.703 118.489 120.503 125.732 125.916 134.804C131.657 144.418 134.824 165.602 129.802 187.481C127.569 197.208 124.818 205.599 122.9 210.911C120.68 217.093 116.289 222.354 110.548 225.71L74.1728 247.021C73.8448 247.21 73.4661 247.311 73.1002 247.311V247.299ZM63.057 157.868C67.8768 157.868 73.2265 161.237 76.9991 166.662C83.2824 175.709 84.1529 188.275 79.371 201.132C72.2296 220.336 73.3527 236.915 74.1349 243.047L108.807 222.746C113.854 219.793 117.702 215.175 119.658 209.75C121.538 204.514 124.25 196.275 126.446 186.711C131.228 165.943 128.212 145.377 122.963 136.57C118.661 129.353 106.99 123.045 104.189 121.594C99.5966 123.145 72.1163 132.936 59.4108 148.569C53.9601 155.269 51.4997 160.669 52.0801 164.618C53.0895 162.095 56.0166 157.868 63.057 157.868Z" fill="#262830"></path><path d="M122.573 164.076C109.666 174.876 94.2731 181.172 91.0557 182.421C90.6898 182.56 90.4754 182.9 90.5006 183.292C90.652 185.361 90.8792 192.023 88.0403 197.789C87.9268 198.016 88.1287 198.281 88.3684 198.18C91.6993 196.88 106.991 190.597 119.836 179.847L119.975 179.456C121.69 174.51 122.573 169.299 122.573 164.063V164.076Z" fill="#B4CADD"></path><path d="M88.255 199.921C87.7124 199.921 87.1826 199.694 86.8041 199.278C86.2489 198.659 86.1228 197.789 86.4887 197.032C89.1635 191.619 88.9113 185.247 88.7725 183.418C88.6841 182.27 89.3526 181.222 90.4125 180.819C93.3523 179.671 108.682 173.425 121.451 162.763L124.265 160.404V164.076C124.265 169.526 123.356 174.901 121.565 180.036L121.274 180.869L120.908 181.172C107.774 192.149 91.9897 198.609 88.9616 199.782C88.7219 199.871 88.482 199.921 88.2297 199.921H88.255ZM92.2422 183.796C92.3558 185.929 92.3683 190.584 90.8794 195.291C96.6455 192.792 108.279 187.19 118.372 178.85C119.609 175.254 120.391 171.545 120.706 167.772C108.935 176.794 96.0397 182.295 92.2545 183.796H92.2422Z" fill="#262830"></path><path d="M109.831 215.63C114.89 206.457 117.691 193.474 117.969 192.162C117.969 192.124 117.931 192.099 117.893 192.124C105.2 201.057 93.9459 205.991 89.6939 207.315C88.4196 207.707 87.4605 208.728 87.0442 210.003C84.4955 218.015 83.9403 226.367 83.8267 229.913C83.8015 230.682 84.647 231.149 85.2905 230.745L109.818 215.63H109.831Z" fill="#B4CADD"></path><path d="M84.786 232.6C84.3192 232.6 83.8522 232.474 83.4359 232.234C82.5905 231.742 82.0735 230.821 82.1113 229.849C82.2249 226.481 82.7672 217.775 85.4042 209.473C85.9846 207.643 87.3977 206.217 89.1768 205.675C93.8199 204.237 105.037 199.063 116.897 190.723L117.843 190.055L119.862 191.329L119.648 192.515C119.332 193.991 116.493 207.113 111.333 216.475L111.118 216.866L86.1993 232.209C85.7703 232.474 85.2781 232.613 84.786 232.613V232.6ZM115.307 195.96C103.712 203.631 93.9966 207.769 90.1988 208.943C89.4923 209.157 88.9246 209.75 88.6848 210.507C86.4894 217.422 85.8208 224.676 85.6063 228.537L108.544 214.406C111.812 208.337 114.096 200.653 115.307 195.96Z" fill="#262830"></path><path d="M89.6688 175.974L88.5078 172.744C88.6845 172.681 106.752 166.095 120.026 154.209L122.322 156.771C108.544 169.11 90.4385 175.696 89.6688 175.974Z" fill="#262830"></path><path d="M56.3457 221.976C56.3457 221.976 64.3831 226.367 69.5057 227.692L56.3457 221.976Z" fill="#262830"></path><path d="M70.1649 170.269C65.9508 161.904 57.6611 157.589 51.63 160.63C50.3178 161.298 49.2582 162.295 48.3876 163.469C42.6342 169.689 43.5678 176.931 43.5678 176.931C43.5678 176.931 43.9842 183.025 49.9143 188.615C54.4438 192.867 61.1815 192.248 64.1591 191.718C64.3862 191.681 64.6131 191.643 64.8402 191.592C64.8781 191.592 64.9413 191.58 64.9791 191.567C65.0044 191.567 65.0044 191.542 65.0297 191.529C65.6605 191.365 66.2913 191.201 66.8843 190.898C72.9154 187.858 74.3914 178.622 70.1773 170.269H70.1649Z" fill="#B4CADD"></path><path d="M59.919 193.838C56.3483 193.838 52.0709 193.018 48.74 189.876C42.3935 183.896 41.8763 177.335 41.8637 177.057C41.8258 176.83 40.905 169.045 47.1379 162.308C48.122 160.958 49.4215 159.822 50.8725 159.091C54.2918 157.375 58.3796 157.564 62.3919 159.646C66.2149 161.627 69.5208 165.122 71.7162 169.487C73.9116 173.853 74.7441 178.597 74.0754 182.849C73.3689 187.302 71.0851 190.709 67.6658 192.425C67.098 192.715 66.5304 192.892 65.9879 193.043L65.9374 193.107L65.3065 193.233C64.9659 193.308 64.701 193.359 64.436 193.397C63.2248 193.611 61.6728 193.801 59.9442 193.801L59.919 193.838ZM55.8184 161.374C54.6071 161.374 53.4464 161.639 52.3991 162.169C51.415 162.661 50.5569 163.418 49.762 164.503C44.5385 170.168 45.2324 176.464 45.2702 176.729C45.2829 176.868 45.7624 182.369 51.0869 187.378C55.0866 191.138 61.3448 190.495 63.8557 190.041C64.0576 190.003 64.2215 189.977 64.3855 189.94L64.4739 189.914C65.1426 189.738 65.6597 189.599 66.1013 189.372C68.5112 188.161 70.1263 185.65 70.6688 182.319C71.2366 178.773 70.5173 174.774 68.6373 171.052C66.7574 167.33 63.9816 164.364 60.7895 162.712C59.0988 161.828 57.4081 161.387 55.8184 161.387V161.374Z" fill="#262830"></path><path d="M58.4828 176.491C61.0819 181.638 60.1607 187.329 56.4513 189.209C52.7418 191.076 47.6191 188.414 45.0326 183.266C42.4335 178.118 43.342 172.428 47.0641 170.548C50.7736 168.681 55.8962 171.343 58.4828 176.491Z" fill="#B4CADD"></path><path d="M53.9139 191.505C50.0278 191.505 45.8136 188.654 43.4921 184.036C42.0789 181.222 41.5365 178.156 41.9781 175.405C42.4575 172.44 43.9841 170.169 46.2804 169.021C50.8226 166.725 56.9926 169.74 60.0081 175.721C63.0236 181.714 61.7746 188.451 57.2197 190.735C56.1851 191.252 55.0621 191.505 53.9139 191.505ZM49.6242 171.671C48.9933 171.671 48.3875 171.809 47.8323 172.087C46.5454 172.73 45.6748 174.106 45.372 175.948C45.044 177.992 45.4729 180.326 46.558 182.496C48.6903 186.723 52.8539 189.095 55.6802 187.682C58.4938 186.269 59.0742 181.499 56.9419 177.273C55.2386 173.879 52.2107 171.683 49.6242 171.683V171.671Z" fill="#262830"></path><path d="M72.0459 273.065C67.6677 268.889 61.687 268.069 58.6715 271.223C58.0154 271.917 57.5863 272.749 57.3088 273.658C55.1638 278.692 57.3088 282.894 57.3088 282.894C57.3088 282.894 58.886 286.515 63.7058 288.622C67.39 290.237 71.3517 288.395 73.055 287.423C73.1812 287.348 73.3201 287.272 73.4462 287.196C73.4715 287.184 73.5094 287.159 73.522 287.146C73.522 287.146 73.522 287.121 73.5473 287.108C73.9005 286.868 74.2413 286.628 74.5441 286.326C77.5596 283.171 76.449 277.229 72.0708 273.052L72.0459 273.065Z" fill="#B4CADD"></path><path d="M66.8101 290.982C65.5736 290.982 64.274 290.768 62.9996 290.213C57.6247 287.866 55.7952 283.765 55.7195 283.589C55.6564 283.488 53.2844 278.706 55.7195 272.99C56.0349 271.93 56.6154 270.871 57.4103 270.038C61.0693 266.202 68.1602 267.01 73.2197 271.829C75.5917 274.1 77.1942 276.914 77.7241 279.778C78.2919 282.844 77.5853 285.595 75.7431 287.538C75.4782 287.815 75.2004 288.042 74.9355 288.244L74.9102 288.32L74.3804 288.648C74.1785 288.774 74.0146 288.863 73.8506 288.964C72.6015 289.683 69.876 290.995 66.8101 290.995V290.982ZM63.5298 271.035C62.0788 271.035 60.7917 271.476 59.9085 272.41C59.4921 272.851 59.1767 273.419 58.9496 274.151C57.0696 278.58 58.8106 282.087 58.8233 282.113C58.9242 282.314 60.287 285.267 64.375 287.046C67.3653 288.358 70.8223 286.705 72.1724 285.923L72.5509 285.683C72.8159 285.506 73.0809 285.33 73.2576 285.141C74.3174 284.03 74.7084 282.34 74.3425 280.384C73.9387 278.226 72.7022 276.069 70.8349 274.29C68.6016 272.157 65.8387 271.009 63.5045 271.009L63.5298 271.035Z" fill="#262830"></path><path d="M66.2813 279.389C68.9814 281.963 69.6627 285.622 67.8079 287.565C65.9532 289.508 62.2563 289.004 59.5689 286.43C56.8688 283.856 56.1875 280.197 58.0422 278.254C59.897 276.311 63.5938 276.815 66.2813 279.389Z" fill="#B4CADD"></path><path d="M64.7791 290.466C64.451 290.466 64.1103 290.44 63.757 290.39C61.8392 290.125 59.934 289.154 58.3694 287.665C56.8049 286.176 55.7449 284.309 55.3916 282.416C55.0005 280.347 55.5179 278.391 56.7797 277.066C59.3283 274.392 64.0093 274.871 67.4538 278.151C69.0183 279.64 70.0657 281.508 70.4189 283.4C70.8101 285.469 70.2926 287.425 69.0309 288.75C67.9711 289.86 66.4572 290.466 64.7665 290.466H64.7791ZM61.0441 278.782C60.325 278.782 59.7068 278.997 59.2778 279.438C58.5965 280.157 58.6723 281.217 58.7733 281.785C58.9878 282.959 59.7067 284.195 60.7413 285.179C61.7759 286.163 63.0377 286.819 64.2237 286.983C64.8041 287.059 65.8641 287.097 66.558 286.378C67.2393 285.659 67.1635 284.599 67.0626 284.018C66.8481 282.845 66.1291 281.608 65.0945 280.624C63.8328 279.426 62.3059 278.77 61.0441 278.77V278.782Z" fill="#262830"></path><path d="M90.9599 469.274L90.1143 466.032C89.8746 465.111 89.4077 464.19 88.7895 463.407L72.5387 448.204C72.0592 447.611 71.5293 447.119 70.9741 446.803L62.5964 441.946C61.8646 441.517 61.158 441.416 60.5902 441.643L55.6317 443.712L51.5059 451.017L53.1083 457.237L78.4055 479.835L89.1554 473.135C90.3541 472.416 91.1615 471.091 91.0227 469.703C91.0101 469.565 90.9851 469.413 90.9473 469.274H90.9599Z" fill="#B4CADD"></path><path d="M78.2404 481.98L51.5927 458.171L49.6875 450.778L54.4442 442.349L59.9455 440.053C61.0053 439.611 62.2545 439.75 63.4657 440.444L71.8434 445.302C72.5752 445.731 73.2945 446.361 73.9002 447.131L89.9745 462.146C90.9081 463.294 91.4885 464.455 91.7913 465.59L92.6365 468.833C92.6996 469.06 92.7376 469.287 92.7628 469.514C92.9647 471.508 91.9047 473.514 90.0752 474.599L78.2657 481.967L78.2404 481.98ZM54.6589 456.316L78.6064 477.703L88.271 471.672C88.9902 471.243 89.4067 470.523 89.331 469.867L89.3057 469.691L88.4605 466.448C88.2838 465.754 87.9179 465.048 87.451 464.455L71.3767 449.44C70.872 448.822 70.4809 448.481 70.1276 448.267L61.7496 443.409C61.409 443.207 61.2324 443.22 61.2324 443.22L56.8669 445.049L53.3719 451.244L54.6715 456.291L54.6589 456.316Z" fill="#262830"></path><path d="M72.5373 448.206C72.0579 447.613 71.528 447.121 70.9728 446.805L62.5951 441.948C61.8633 441.519 61.1566 441.418 60.5889 441.645L55.6304 443.714L43.8837 451.007C43.7575 451.082 43.7575 451.272 43.8837 451.347L53.1069 457.24L64.7021 466.589C64.7021 466.589 64.7147 466.589 64.7273 466.589C67.4022 465.1 72.3985 472.721 72.8401 472.557C72.878 472.544 74.1524 472.229 74.7959 471.876L88.0944 463.801C88.4603 463.586 88.5485 463.107 88.2836 462.779L72.5247 448.206H72.5373Z" fill="#F2F2F2"></path><path d="M72.7775 474.31C71.9322 474.31 71.2887 473.565 70.2794 472.379C67.226 468.809 66.0021 468.102 65.4974 468.115L64.5258 468.657L63.6806 467.963L52.0349 458.576L42.1682 452.28L42.0801 451.157C42.0801 450.501 42.4207 449.896 42.9759 449.542L54.9748 442.111L59.9207 440.042C60.9805 439.6 62.2297 439.739 63.4409 440.433L71.8186 445.29C72.5252 445.694 73.194 446.287 73.787 447.006L89.6343 461.693C90.0633 462.235 90.2397 462.942 90.1136 463.623C89.9874 464.304 89.5712 464.897 88.9781 465.263L75.6922 473.326C75.1244 473.641 74.4051 473.894 73.3705 474.171C73.156 474.247 72.9542 474.284 72.7649 474.284L72.7775 474.31ZM65.5226 464.645C68.1849 464.645 70.9482 467.875 72.8912 470.146C73.0426 470.323 73.1815 470.499 73.3077 470.638C73.7367 470.499 73.913 470.411 73.9887 470.373L86.0509 463.043L71.1878 449.265C70.8597 448.836 70.4688 448.495 70.1155 448.281L61.7375 443.423C61.3968 443.221 61.2203 443.234 61.2203 443.234L56.4383 445.227L46.8617 451.183L54.0538 455.775L65.0939 464.658C65.2453 464.632 65.3965 464.632 65.5479 464.632L65.5226 464.645Z" fill="#262830"></path><path d="M42.5693 453.25V456.77C42.5693 458.726 43.9445 461.098 45.6352 462.082L76.0554 479.796C78.1751 481.02 79.6514 479.456 78.9448 476.743L78.0992 473.5C77.8595 472.579 77.3929 471.658 76.7747 470.876L60.5235 455.672C60.0441 455.079 59.5142 454.587 58.959 454.272L50.5813 449.414C49.8495 448.985 49.1428 448.884 48.5751 449.111L43.6166 451.181C42.9353 451.458 42.5566 452.215 42.5566 453.25H42.5693Z" fill="#262830"></path><path d="M77.4298 481.928C76.7106 481.928 75.9412 481.714 75.1968 481.285L44.7639 463.57C42.5307 462.283 40.8398 459.356 40.8398 456.782V453.262C40.8398 451.534 41.6349 450.159 42.9598 449.603L47.9182 447.534C48.9781 447.092 50.2272 447.231 51.4385 447.925L59.8162 452.783C60.548 453.212 61.2673 453.843 61.8729 454.612L77.9473 469.627C78.8809 470.775 79.4613 471.923 79.7641 473.071L80.6093 476.314C81.1645 478.434 80.7229 480.288 79.4234 481.285C78.8556 481.727 78.1742 481.941 77.4424 481.941L77.4298 481.928ZM44.3222 452.758C44.3222 452.758 44.2846 452.922 44.2846 453.25V456.77C44.2846 458.107 45.3319 459.924 46.4926 460.593L76.9252 478.308C77.2154 478.472 77.4045 478.509 77.4424 478.497C77.3667 478.497 77.5182 478.055 77.2911 477.172L76.4459 473.929C76.2692 473.235 75.9033 472.529 75.4364 471.936L59.3621 456.921C58.8574 456.303 58.4663 455.962 58.113 455.748L49.735 450.89C49.3944 450.688 49.2178 450.701 49.2178 450.701L44.3348 452.745L44.3222 452.758Z" fill="#262830"></path><path d="M61.3058 452.859C67.4377 453.073 72.5854 450.701 72.7999 447.572C72.8503 446.891 72.6107 446.235 72.2195 445.617C70.5162 441.882 66.0874 440.608 66.0874 440.608C66.0874 440.608 62.4664 439.384 57.369 440.506C53.4703 441.364 51.6534 444.229 50.9973 445.553C50.9468 445.654 50.8965 445.756 50.846 445.856C50.846 445.869 50.8208 445.907 50.8208 445.919C50.8208 445.919 50.8208 445.932 50.8208 445.945C50.7072 446.235 50.6064 446.525 50.5811 446.84C50.3666 449.969 55.1738 452.67 61.3058 452.871V452.859Z" fill="#B4CADD"></path><path d="M62.0871 454.601C61.8095 454.601 61.5321 454.601 61.2419 454.588C56.5987 454.437 52.4096 452.897 50.3278 450.601C49.2679 449.427 48.7634 448.09 48.8517 446.728C48.8643 446.526 48.9022 446.337 48.9401 446.147L48.8896 446.046L49.2303 445.239C49.3186 445.037 49.3942 444.885 49.4699 444.734C50.1512 443.346 52.3213 439.864 56.9771 438.842C62.4908 437.631 66.4528 438.943 66.6168 438.993C66.7556 439.031 71.7645 440.507 73.7707 444.923C74.288 445.705 74.5657 446.715 74.5026 447.712C74.2376 451.724 68.9509 454.613 62.0745 454.613L62.0871 454.601ZM52.4351 446.5C52.3341 446.79 52.2961 446.904 52.2835 446.955C52.2583 447.371 52.4601 447.825 52.8765 448.292C54.3275 449.907 57.6584 451.03 61.3552 451.156C67.1591 451.358 70.9698 449.099 71.0834 447.472C71.096 447.219 70.995 446.904 70.7679 446.551C69.3169 443.409 65.6452 442.274 65.6074 442.274C65.5064 442.248 62.2512 441.201 57.7216 442.198C54.6304 442.879 53.1414 445.075 52.5232 446.324L52.4351 446.513V446.5Z" fill="#262830"></path><path d="M61.5313 446.729C57.7462 446.603 54.7937 444.938 54.9199 443.007C55.0461 441.077 58.2255 439.626 61.998 439.752C65.7832 439.878 68.7356 441.543 68.6094 443.474C68.4832 445.404 65.3039 446.855 61.5313 446.729Z" fill="#B4CADD"></path><path d="M61.999 448.457C61.8223 448.457 61.6458 448.457 61.4691 448.457C58.3905 448.356 55.6905 447.347 54.2774 445.782C53.5077 444.924 53.1291 443.928 53.2048 442.906C53.4067 439.978 57.2045 437.859 62.0621 438.048C65.1407 438.149 67.8281 439.158 69.2539 440.723C70.0235 441.581 70.4022 442.578 70.3265 443.6C70.1372 446.426 66.5916 448.47 61.999 448.47V448.457ZM61.5828 445.013C64.9768 445.126 66.8694 443.827 66.8946 443.36C66.8946 443.309 66.8442 443.183 66.6928 443.019C66.0494 442.313 64.3334 441.555 61.9361 441.48C58.5295 441.391 56.6619 442.666 56.624 443.133C56.624 443.183 56.6747 443.322 56.8261 443.473C57.4696 444.18 59.1855 444.937 61.5828 445.025V445.013Z" fill="#262830"></path><path d="M176.552 225.649C165.992 225.649 156.024 221.069 147.596 212.022L157.26 203.013C169.991 216.665 183.618 212.893 192.816 207.316C199.781 203.102 205.723 199.922 211.514 197.31L214.139 196.124L219.552 208.174L216.927 209.36C211.628 211.744 206.14 214.684 199.654 218.621C191.895 223.314 184.085 225.649 176.552 225.649Z" fill="#262830"></path><path d="M243.831 201.108L242.418 201.776C239.945 202.962 236.488 202.963 232.766 201.89C232.362 201.777 232.186 201.297 232.4 200.944L235.731 195.518C236.148 194.509 235.201 192.869 233.435 191.91L225.688 187.683C224.615 187.103 223.505 186.926 222.773 187.229L213.411 191.077C212.944 191.266 212.667 191.632 212.617 192.124L208.718 198.458C208.592 198.673 208.592 198.925 208.718 199.127C209.336 200.098 211.342 202.672 212.352 204.01C212.629 204.388 213.197 204.338 213.411 203.922L215.241 200.414C215.556 201.045 216.124 201.676 216.831 202.168L218.483 203.316C218.584 203.391 218.698 203.455 218.799 203.518L223.833 206.622C227.303 208.754 230.949 210.079 234.255 210.482C234.331 210.482 234.407 210.52 234.482 210.558L239.554 213.51C239.857 213.687 240.236 213.586 240.412 213.296L244.639 206.357C245.27 205.145 245.56 203.732 245.472 202.142C245.434 201.511 244.374 200.843 243.819 201.095L243.831 201.108Z" fill="#F2F2F2"></path><path d="M239.881 215.327C239.477 215.327 239.074 215.226 238.695 214.999L233.825 212.16C230.254 211.681 226.507 210.281 222.949 208.085L215.858 203.556C215.782 203.505 215.706 203.442 215.631 203.392L214.95 204.704C214.584 205.423 213.877 205.89 213.069 205.966C212.275 206.016 211.48 205.688 211 205.045L210.092 203.846C209.019 202.433 207.796 200.83 207.291 200.048C206.799 199.291 206.799 198.332 207.291 197.55L211.013 191.494C211.24 190.585 211.883 189.853 212.779 189.487L222.141 185.639C223.365 185.134 225.005 185.336 226.532 186.169L234.279 190.383C236.815 191.758 238.14 194.244 237.345 196.162L237.219 196.402L234.645 200.578C237.433 201.171 239.957 201.057 241.698 200.225L243.111 199.556C243.881 199.19 244.814 199.266 245.685 199.783C246.593 200.313 247.161 201.158 247.212 202.054C247.325 203.921 246.984 205.637 246.19 207.164L241.9 214.205C241.458 214.936 240.688 215.34 239.894 215.34L239.881 215.327ZM219.719 202.067L224.753 205.171C227.92 207.126 231.377 208.413 234.468 208.792L234.809 208.83L235.339 209.082L239.503 211.504L243.187 205.474C243.527 204.805 243.742 203.959 243.78 203.038L243.174 203.328C240.361 204.678 236.5 204.754 232.298 203.543C231.592 203.341 231.024 202.824 230.759 202.13C230.494 201.449 230.57 200.666 230.948 200.036L234.153 194.824C234.065 194.66 233.61 193.929 232.639 193.399L224.892 189.172C224.16 188.768 223.592 188.743 223.454 188.806L214.319 192.667L210.584 198.749C211.139 199.518 212.01 200.666 212.716 201.6L215.328 196.604L216.83 199.632C217.006 199.998 217.397 200.414 217.864 200.742L219.517 201.89L218.848 203.505L219.757 202.041L219.719 202.067Z" fill="#262830"></path><path d="M214.721 210.156L219.768 213.272C225.458 216.792 231.691 218.117 235.956 216.729C239.653 215.531 241.634 212.641 241.394 208.793C241.356 208.162 240.296 207.493 239.741 207.746L238.328 208.414C235.085 209.966 230.152 209.525 225.143 207.228C223.402 206.434 222.153 204.793 222.405 203.632L222.733 202.131C222.973 201.084 224.373 200.794 225.951 201.488L228.487 202.585C229.559 203.052 230.594 203.09 231.199 202.674C232.436 201.853 231.452 199.671 229.332 198.523L221.585 194.296C220.512 193.715 219.402 193.539 218.67 193.841L209.308 197.69C208.841 197.879 208.564 198.245 208.513 198.737L208.337 200.693C208.299 201.034 208.387 201.437 208.589 201.841L211.151 207.014C211.466 207.645 212.034 208.276 212.74 208.768L214.406 209.928C214.494 209.991 214.595 210.055 214.696 210.118L214.721 210.156Z" fill="#B4CADD"></path><path d="M232.271 218.987C228.158 218.987 223.351 217.498 218.872 214.735L213.812 211.618C213.686 211.543 213.56 211.454 213.434 211.366L211.781 210.205C210.835 209.549 210.077 208.691 209.636 207.808L207.074 202.635C206.721 201.928 206.583 201.234 206.646 200.566L206.822 198.61C206.923 197.499 207.617 196.566 208.664 196.137L218.026 192.289C219.263 191.784 220.865 191.973 222.417 192.819L230.164 197.045C232.094 198.092 233.394 199.846 233.47 201.512C233.52 202.597 233.041 203.556 232.17 204.136C231.047 204.881 229.47 204.906 227.817 204.187L225.281 203.089C224.852 202.9 224.537 202.862 224.348 202.862L224.095 204.035C224.121 204.237 224.676 205.158 225.862 205.701C230.353 207.757 234.845 208.212 237.596 206.899L238.996 206.231C239.766 205.865 240.699 205.94 241.57 206.458C242.466 206.988 243.046 207.833 243.097 208.716C243.387 213.334 240.901 216.943 236.473 218.394C235.198 218.81 233.773 219.012 232.246 219.012L232.271 218.987ZM215.629 208.704L220.676 211.82C225.887 215.037 231.678 216.324 235.426 215.101C238.138 214.217 239.602 212.35 239.69 209.688L239.084 209.978C235.388 211.744 229.924 211.303 224.448 208.805C222.278 207.82 220.247 205.537 220.752 203.278L221.08 201.789C221.269 200.919 221.824 200.212 222.619 199.809C223.717 199.254 225.18 199.304 226.656 199.935L229.192 201.033C229.457 201.146 229.685 201.209 229.874 201.247C229.647 200.894 229.218 200.427 228.536 200.061L220.789 195.834C220.058 195.43 219.49 195.405 219.351 195.468L210.229 199.215L210.077 200.894L212.727 206.294C212.904 206.66 213.295 207.076 213.762 207.404L215.427 208.565L214.733 210.155L215.642 208.691L215.629 208.704Z" fill="#262830"></path><path d="M144.985 210.355C145.49 210.898 146.02 211.415 146.575 211.894C148.581 213.598 150.613 214.948 152.896 216.298C155.483 217.825 158.902 218.834 162.12 218.62C167.734 218.241 171.645 214.557 173.071 212.992C173.45 212.576 173.538 211.983 173.311 211.478C171.974 208.576 167.003 198.659 159.432 194.357C155.281 191.997 151.004 191.833 147.597 193.322C141.705 195.896 139.838 204.665 144.115 209.447L144.973 210.355H144.985Z" fill="#B4CADD"></path><path d="M161.237 220.36C158.158 220.36 154.865 219.439 152.039 217.774C149.301 216.159 147.332 214.796 145.465 213.193C144.859 212.676 144.279 212.108 143.736 211.528L142.878 210.619C140.469 207.919 139.548 204.02 140.38 200.147C141.213 196.299 143.661 193.157 146.916 191.744C151.017 189.952 155.887 190.356 160.29 192.867C168.29 197.422 173.475 207.718 174.876 210.771C175.393 211.906 175.191 213.244 174.346 214.165C172.781 215.881 168.466 219.918 162.233 220.347C161.905 220.372 161.565 220.385 161.224 220.385L161.237 220.36ZM152.278 194.078C150.89 194.078 149.528 194.343 148.279 194.886C146.033 195.87 144.329 198.103 143.724 200.879C143.118 203.667 143.736 206.443 145.389 208.298L146.222 209.181C146.689 209.673 147.168 210.152 147.673 210.594C149.389 212.058 151.206 213.32 153.767 214.821C156.29 216.31 159.356 217.079 162.006 216.903C166.813 216.575 170.271 213.484 171.658 211.995C170.245 208.967 165.539 199.806 158.587 195.845C156.53 194.671 154.36 194.078 152.278 194.078Z" fill="#262830"></path><path d="M169.423 204.491C167.001 200.82 163.619 196.744 159.443 194.36C157.992 193.54 156.529 192.997 155.078 192.681C154.977 192.745 151.431 195.457 149.425 199.583C148.378 201.741 149.009 204.327 150.8 205.904C151.974 206.926 153.564 208.163 155.62 209.437C159.771 212.011 165.386 211.014 168.174 206.989C168.717 206.207 169.159 205.374 169.423 204.491Z" fill="#F2F2F2"></path><path d="M160.592 212.54C158.573 212.54 156.542 211.997 154.725 210.887C152.87 209.739 151.179 208.49 149.678 207.19C147.255 205.07 146.511 201.626 147.886 198.825C149.993 194.497 153.69 191.52 154.17 191.217L154.763 190.851L155.444 191.002C157.122 191.368 158.75 191.999 160.289 192.87C164.036 195.002 167.594 198.598 170.862 203.544L171.304 204.213L171.077 204.982C170.787 205.979 170.282 206.976 169.6 207.96C167.544 210.925 164.1 212.54 160.605 212.54H160.592ZM155.507 194.548C154.548 195.406 152.353 197.525 150.977 200.326C150.284 201.74 150.687 203.493 151.949 204.603C153.299 205.79 154.851 206.925 156.542 207.972C159.961 210.092 164.554 209.209 166.774 206.004C167.077 205.563 167.33 205.134 167.519 204.717C164.718 200.642 161.652 197.588 158.598 195.847C157.602 195.279 156.567 194.85 155.507 194.548Z" fill="#262830"></path><path d="M37.0055 227.378L23.8203 226.507C26.1166 191.684 46.8343 175.332 47.7175 174.65L55.7798 185.11L51.7424 179.887L55.8051 185.098C55.1111 185.64 38.8855 198.787 36.9929 227.39L37.0055 227.378Z" fill="#262830"></path><path d="M37.0191 243.312H23.8086V302.714H37.0191V243.312Z" fill="#262830"></path><path d="M38.4433 328.729L37.4212 327.543C35.6296 325.474 34.7213 322.13 34.7844 318.257C34.7844 317.841 35.2007 317.538 35.6044 317.651L41.7112 319.443C42.7963 319.582 44.1338 318.232 44.6006 316.276L46.6318 307.684C46.9094 306.498 46.7832 305.387 46.3038 304.757L40.1215 296.732C39.8186 296.328 39.3897 296.164 38.8976 296.24L31.7561 294.145C31.5164 294.082 31.2766 294.146 31.1126 294.322C30.343 295.18 28.3873 297.779 27.3527 299.104C27.0625 299.47 27.2644 300.013 27.7186 300.114L31.5922 300.959C31.0623 301.426 30.6081 302.132 30.3179 302.952L29.6365 304.845C29.5986 304.959 29.5607 305.084 29.5228 305.198L27.8449 310.876C26.6968 314.774 26.3813 318.661 26.8608 321.941C26.8608 322.017 26.8607 322.105 26.8481 322.181L25.3341 327.846C25.2458 328.174 25.4349 328.527 25.7755 328.616L33.5732 330.874C34.9106 331.164 36.3489 331.076 37.8629 330.571C38.4686 330.37 38.8344 329.171 38.4306 328.704L38.4433 328.729Z" fill="#F2F2F2"></path><path d="M35.1393 332.781C34.4959 332.781 33.8524 332.718 33.2215 332.579L25.2978 330.295C24.074 329.942 23.3548 328.655 23.6828 327.431L25.1463 321.98C24.6668 318.422 25.0329 314.423 26.2189 310.41L28.7171 302.386C28.7549 302.297 28.7802 302.209 28.8181 302.121L27.3669 301.805C26.5721 301.629 25.9287 301.073 25.6512 300.304C25.3736 299.547 25.4998 298.701 26.0045 298.071L26.9129 296.885C27.998 295.471 29.2216 293.869 29.8399 293.188C30.4455 292.519 31.3667 292.267 32.2373 292.519L39.0757 294.525C40.0094 294.525 40.8799 294.929 41.4729 295.699L47.6555 303.723C48.4756 304.783 48.7027 306.373 48.299 308.089L46.2675 316.681C45.5988 319.495 43.5548 321.4 41.4981 321.147L41.2332 321.097L36.527 319.722C36.6911 322.573 37.4607 324.97 38.7224 326.434L39.7445 327.62C40.2997 328.263 40.4638 329.197 40.1988 330.169C39.9213 331.178 39.2524 331.948 38.4196 332.238C37.3093 332.617 36.2118 332.806 35.1393 332.806V332.781ZM27.2785 327.279L34.0541 329.248C34.7985 329.399 35.6565 329.386 36.5649 329.172L36.1232 328.655C34.0918 326.295 32.9942 322.586 33.0699 318.22C33.0699 317.476 33.4359 316.807 34.0289 316.366C34.6219 315.924 35.3917 315.785 36.0983 316L41.9525 317.716C42.0787 317.589 42.6717 316.959 42.9241 315.874L44.9553 307.281C45.1445 306.461 45.0186 305.919 44.9303 305.792L38.9119 297.97L38.7982 297.995L31.9471 295.989C31.3541 296.721 30.4709 297.869 29.7518 298.802L35.2527 300.001L32.7292 302.247C32.4264 302.525 32.1238 303.004 31.9345 303.534L31.2531 305.426L29.5244 305.199L31.1774 305.691L29.4992 311.369C28.4393 314.94 28.1113 318.611 28.5655 321.703L28.616 322.056L28.5153 322.636L27.2785 327.279Z" fill="#262830"></path><path d="M22.0685 303.017L20.3903 308.707C18.4978 315.13 18.851 321.489 21.3114 325.236C23.4437 328.491 26.7496 329.64 30.396 328.403C31.0016 328.201 31.3675 327.003 30.9637 326.536L29.9417 325.35C27.5949 322.624 26.7242 317.754 27.62 312.316C27.9354 310.424 29.1847 308.783 30.3708 308.733L31.8974 308.657C32.9699 308.606 33.6132 309.881 33.3609 311.597L32.9697 314.335C32.8056 315.495 33.0454 316.505 33.6005 316.984C34.7235 317.956 36.5656 316.442 37.1208 314.082L39.1523 305.49C39.4299 304.304 39.3037 303.194 38.8242 302.563L32.6542 294.538C32.3514 294.135 31.9225 293.971 31.4304 294.046L29.4873 294.387C29.1466 294.45 28.7936 294.639 28.4529 294.942L24.125 298.778C23.5951 299.245 23.1411 299.951 22.851 300.771L22.1696 302.689C22.1317 302.79 22.0938 302.904 22.0685 303.017Z" fill="#B4CADD"></path><path d="M27.6072 330.611C24.5286 330.611 21.7656 329.072 19.873 326.195C17.135 322.031 16.7062 315.142 18.7375 308.241L21.2357 300.216C21.6269 299.131 22.245 298.172 22.9894 297.516L27.317 293.68C27.8848 293.176 28.5409 292.835 29.197 292.721L31.1401 292.381C32.2378 292.191 33.3229 292.608 34.0168 293.516L40.1994 301.541C41.0196 302.601 41.2464 304.19 40.8426 305.906L38.8114 314.499C38.3067 316.644 36.9567 318.347 35.3669 318.864C34.3323 319.192 33.2851 318.99 32.4902 318.296C31.4682 317.413 31.0393 315.886 31.2916 314.107L31.6828 311.37C31.7459 310.915 31.708 310.587 31.6576 310.411L30.4587 310.461C30.2694 310.537 29.5251 311.319 29.3232 312.606C28.5284 317.476 29.2602 321.93 31.2537 324.239L32.2758 325.425C32.8309 326.068 32.9948 327.002 32.7298 327.974C32.4523 328.983 31.7837 329.753 30.9509 330.043C29.8154 330.422 28.6923 330.611 27.6198 330.611H27.6072ZM22.0684 303.029L23.7213 303.522L22.0431 309.212C20.3145 315.092 20.5922 321.009 22.7497 324.315C24.3143 326.699 26.4971 327.62 29.0962 327.015L28.6545 326.498C25.9797 323.394 24.9704 318.006 25.9419 312.064C26.3331 309.704 27.9859 307.155 30.3074 307.042L31.8341 306.966C32.7425 306.916 33.5375 307.269 34.1431 307.938C34.9632 308.846 35.3039 310.284 35.0768 311.874L34.6856 314.612C34.6477 314.902 34.6477 315.142 34.6603 315.319C34.9379 315.016 35.2787 314.473 35.4553 313.716L37.4865 305.124C37.6758 304.304 37.5496 303.761 37.4613 303.635L31.4429 295.812L29.7902 296.103L25.2732 300.077C24.9704 300.355 24.6674 300.834 24.4781 301.364L23.7971 303.269L22.0684 303.017V303.029Z" fill="#262830"></path><path d="M21.5872 231.25C21.5115 231.981 21.4609 232.726 21.4609 233.458C21.4862 236.095 21.8015 238.517 22.2809 241.116C22.8235 244.069 24.2999 247.311 26.571 249.608C30.5328 253.595 35.8822 254.15 38.0019 254.2C38.5697 254.213 39.0744 253.897 39.3015 253.38C40.6263 250.466 44.8532 240.22 43.1372 231.679C42.2035 226.998 39.516 223.667 36.1599 222.064C30.3559 219.301 22.5081 223.629 21.7006 230L21.5746 231.25H21.5872Z" fill="#B4CADD"></path><path d="M38.0391 255.916H37.9636C35.6421 255.866 29.7625 255.247 25.359 250.819C22.987 248.434 21.2584 245.015 20.5897 241.432C20.0093 238.315 19.7568 235.93 19.7441 233.47C19.7441 232.663 19.7947 231.867 19.8704 231.073L19.9967 229.823C20.451 226.228 22.7977 222.985 26.2674 221.08C29.7246 219.2 33.6989 218.973 36.9037 220.5C40.9412 222.43 43.8306 226.379 44.8273 231.338C46.6316 240.372 42.2532 251.033 40.8653 254.086C40.3607 255.197 39.2503 255.903 38.0391 255.903V255.916ZM23.2897 231.426C23.2266 232.095 23.176 232.776 23.176 233.445C23.2012 235.691 23.4411 237.899 23.971 240.813C24.501 243.69 25.9267 246.529 27.7941 248.396C31.2007 251.816 35.7933 252.396 37.8247 252.472C39.1874 249.418 43.0232 239.854 41.4586 232.006C40.6764 228.12 38.4809 225.054 35.4276 223.603C33.2195 222.543 30.4057 222.733 27.9201 224.096C25.4092 225.471 23.7314 227.754 23.4159 230.215L23.2897 231.426Z" fill="#262830"></path><path d="M42.043 245.861C43.229 241.621 44.0995 236.398 43.1532 231.679C42.8251 230.039 42.2699 228.575 41.5634 227.288C41.4498 227.25 37.0842 226.354 32.6556 227.54C30.334 228.159 28.7949 230.329 28.7949 232.726C28.7949 234.278 28.8957 236.297 29.2869 238.681C30.0691 243.514 34.4977 247.084 39.3554 246.554C40.3017 246.453 41.2103 246.239 42.0556 245.861H42.043Z" fill="#F2F2F2"></path><path d="M38.4217 248.334C33.1855 248.334 28.4416 244.335 27.5837 238.96C27.2304 236.815 27.0662 234.708 27.0788 232.727C27.0914 229.509 29.2112 226.696 32.2267 225.888C36.8825 224.652 41.6011 225.497 42.1184 225.661L42.7619 225.876L43.09 226.469C43.9227 227.97 44.5159 229.623 44.8566 231.352C45.7019 235.578 45.3232 240.613 43.7208 246.328L43.5064 247.098L42.7745 247.426C41.8282 247.855 40.7434 248.132 39.5574 248.259C39.1915 248.296 38.8128 248.322 38.4469 248.322L38.4217 248.334ZM37.6269 228.651C36.2895 228.651 34.687 228.778 33.0972 229.207C31.5832 229.61 30.5106 231.061 30.498 232.739C30.498 234.544 30.6496 236.449 30.965 238.417C31.6085 242.392 35.2675 245.268 39.1536 244.865C39.6835 244.802 40.1628 244.713 40.617 244.575C41.8788 239.729 42.1689 235.515 41.4749 232.033C41.2478 230.91 40.8947 229.85 40.4279 228.841C39.8349 228.765 38.8382 228.651 37.6269 228.651Z" fill="#262830"></path><path d="M68.6745 444.519L56.499 439.384C56.7261 438.854 78.8692 386.064 78.1121 363.088C77.8093 354.029 73.8604 342.61 66.6686 330.069C58.5683 315.95 54.9974 300.103 56.3348 284.23L69.4948 285.34C68.3845 298.525 71.362 311.71 78.1248 323.495C86.5026 338.106 90.9438 351.278 91.3097 362.659C92.1551 388.524 69.6208 442.248 68.6619 444.519H68.6745Z" fill="#262830"></path><path d="M72.7643 361.08C72.6886 361.875 72.6257 362.682 72.6383 363.477C72.6636 366.341 73.0042 368.965 73.5341 371.792C74.1271 374.996 75.7168 378.517 78.1898 381.002C82.4923 385.33 88.2837 385.923 90.5926 385.973C91.1982 385.986 91.7532 385.645 92.0056 385.09C93.4313 381.936 98.024 370.808 96.1693 361.547C95.1599 356.462 92.2454 352.853 88.599 351.112C82.303 348.109 73.7865 352.816 72.9159 359.73L72.777 361.08H72.7643Z" fill="#B4CADD"></path><path d="M90.6311 387.703C90.6311 387.703 90.5806 387.703 90.5554 387.703C88.0445 387.64 81.7233 386.984 76.9792 382.215C74.4306 379.653 72.5631 375.969 71.8566 372.108C71.2383 368.727 70.9608 366.153 70.9355 363.503C70.9355 362.646 70.9862 361.775 71.0745 360.917L71.2131 359.567C71.7052 355.719 74.2161 352.236 77.9382 350.192C81.635 348.161 85.8997 347.934 89.3442 349.574C93.6845 351.643 96.7883 355.883 97.8608 361.22C99.8165 370.973 95.0722 382.505 93.5834 385.811C93.0661 386.959 91.9181 387.703 90.6438 387.703H90.6311ZM74.4811 361.258C74.4054 361.989 74.3548 362.734 74.3548 363.466C74.38 365.913 74.6326 368.31 75.213 371.49C75.7933 374.644 77.3577 377.748 79.4016 379.792C83.2625 383.678 88.5367 384.208 90.6311 384.259C91.8298 381.319 96.2329 370.632 94.4792 361.876C93.6212 357.611 91.2113 354.255 87.8551 352.653C85.4074 351.492 82.3164 351.681 79.5785 353.182C76.8153 354.696 74.9603 357.22 74.6197 359.933L74.4811 361.245V361.258Z" fill="#262830"></path><path d="M94.9597 376.941C96.2466 372.348 97.1802 366.67 96.1582 361.56C95.805 359.781 95.1995 358.192 94.4298 356.791C94.3037 356.753 89.5594 355.782 84.7649 357.069C82.254 357.737 80.5762 360.097 80.5762 362.696C80.5762 364.387 80.6896 366.57 81.106 369.156C81.9513 374.392 86.7584 378.266 92.0324 377.698C93.0544 377.584 94.0512 377.357 94.9597 376.941Z" fill="#F2F2F2"></path><path d="M91.0231 379.463C85.4085 379.463 80.3364 375.173 79.4027 369.42C79.0242 367.086 78.8477 364.815 78.8477 362.682C78.8603 359.25 81.1062 356.26 84.311 355.402C89.32 354.065 94.4047 354.973 94.9472 355.15L95.5907 355.364L95.9188 355.958C96.802 357.573 97.4455 359.339 97.824 361.219C98.7324 365.786 98.3161 371.224 96.5875 377.407L96.3728 378.176L95.6412 378.504C94.6192 378.959 93.4711 379.261 92.1968 379.4C91.8056 379.438 91.4016 379.463 91.0105 379.463H91.0231ZM90.1526 358.115C88.689 358.115 86.948 358.254 85.2068 358.721C83.4908 359.175 82.2921 360.815 82.2921 362.695C82.2921 364.651 82.456 366.72 82.7967 368.878C83.5033 373.256 87.5788 376.448 91.8434 375.981C92.4491 375.918 93.0166 375.804 93.534 375.64C94.9345 370.341 95.2499 365.711 94.4802 361.888C94.2279 360.626 93.8369 359.44 93.3069 358.329C92.6508 358.241 91.5405 358.115 90.1653 358.115H90.1526Z" fill="#262830"></path><path d="M269.078 137.104L217.148 237.976L221.849 240.395L273.779 139.524L269.078 137.104Z" fill="white"></path><path d="M266.457 134.789L214.527 235.661L219.228 238.08L271.158 137.209L266.457 134.789Z" fill="#262830"></path><path d="M83.3153 110.224C83.3153 110.224 87.9206 113.189 83.3153 130.146C83.3153 130.146 80.0096 143.723 94.3554 149.943C94.3554 149.943 99.8943 151.217 104.373 147.899C106.342 146.435 106.771 143.684 105.547 141.565C104.058 138.94 102.317 134.02 102.519 125.427C102.859 110.564 95.9452 106.603 95.9452 106.603L83.3027 110.224H83.3153Z" fill="#B4CADD"></path><path d="M96.9285 151.898C95.2378 151.898 94.0642 151.646 93.9633 151.621L93.6605 151.52C78.1666 144.808 81.5984 129.894 81.6363 129.743C85.699 114.766 82.3176 111.624 82.2797 111.599L80.6016 109.543L82.8222 108.571L96.1587 104.748L96.7895 105.114C97.105 105.291 104.575 109.77 104.221 125.465C104.032 133.679 105.647 138.285 107.022 140.707C108.7 143.647 107.994 147.331 105.369 149.274C102.467 151.432 99.1996 151.898 96.9158 151.898H96.9285ZM94.8591 148.29C95.654 148.429 99.9312 149.035 103.338 146.511C104.562 145.603 104.865 143.836 104.044 142.398C102.442 139.597 100.587 134.361 100.789 125.365C101.041 114.287 97.0546 109.744 95.591 108.47L86.0523 111.208C87.2257 113.971 87.9577 119.561 84.9674 130.588C84.8664 131.03 82.2545 142.701 94.8591 148.277V148.29Z" fill="#262830"></path><path d="M86.1409 146.047C84.2231 139.019 88.6263 127.348 88.8156 126.856L92.0204 128.08C91.9826 128.193 87.8314 139.208 89.4465 145.151L86.1283 146.059L86.1409 146.047Z" fill="#262830"></path><path d="M80.4243 90.7336C80.2729 92.1972 80.172 93.686 80.1847 95.1622C80.2351 100.436 80.866 105.269 81.825 110.492C82.91 116.397 85.8622 122.895 90.417 127.462C98.3533 135.436 109.04 136.534 113.28 136.635C114.403 136.66 115.412 136.029 115.879 135.007C118.516 129.191 126.969 108.675 123.55 91.5918C121.683 82.2298 116.32 75.5553 109.595 72.3505C98.0002 66.8242 82.2916 75.492 80.6766 88.2354L80.4243 90.7336Z" fill="#F2F2F2"></path><path d="M113.342 138.351C113.342 138.351 113.266 138.351 113.228 138.351C108.8 138.237 97.5702 137.077 89.1923 128.674C84.7637 124.22 81.3698 117.533 80.1333 110.795C79.0103 104.663 78.5055 99.982 78.4551 95.1748C78.4551 93.8122 78.5181 92.3361 78.7074 90.5571L78.96 88.0589C79.7927 81.4601 84.1456 75.4416 90.6056 71.9088C97.0278 68.4012 104.396 67.985 110.314 70.8112C117.909 74.4324 123.335 81.8765 125.215 91.2637C128.722 108.827 120.143 129.734 117.417 135.727C116.685 137.342 115.096 138.364 113.329 138.364L113.342 138.351ZM82.1269 90.8977C81.9629 92.5506 81.8869 93.9005 81.8996 95.137C81.9374 99.7422 82.4295 104.234 83.5146 110.164C84.6375 116.246 87.6656 122.252 91.6274 126.239C99.122 133.771 109.292 134.805 113.304 134.906C113.746 134.906 114.124 134.679 114.301 134.288C116.913 128.535 125.164 108.474 121.858 91.9198C120.193 83.6177 115.461 77.0441 108.85 73.9024C103.929 71.5556 97.7215 71.9339 92.2582 74.9242C86.7571 77.9271 83.0605 82.9868 82.3665 88.4501L82.1143 90.9104L82.1269 90.8977Z" fill="#262830"></path><path d="M121.329 119.969C123.701 111.503 125.429 101.043 123.549 91.6053C122.893 88.3248 121.795 85.3973 120.37 82.8234C120.143 82.7477 111.399 80.9689 102.542 83.3283C97.9112 84.5648 94.8324 88.9051 94.8072 93.6996C94.7945 96.8161 95.0091 100.841 95.7787 105.61C97.3306 115.262 106.2 122.416 115.916 121.356C117.796 121.155 119.638 120.726 121.316 119.969H121.329Z" fill="#262830"></path><path d="M114.074 123.173C104.422 123.173 95.6787 115.791 94.089 105.874C93.4076 101.66 93.0795 97.5468 93.0921 93.6859C93.1174 88.0208 96.8267 83.0748 102.101 81.6617C111.702 79.1004 120.825 81.1572 120.901 81.1824L121.544 81.3968L121.872 81.9898C123.437 84.8412 124.559 87.9578 125.228 91.2635C126.868 99.4395 126.111 109.255 122.982 120.422L122.768 121.192L122.036 121.52C120.307 122.289 118.314 122.806 116.119 123.046C115.437 123.122 114.756 123.16 114.087 123.16L114.074 123.173ZM112.447 83.8192C109.646 83.8192 106.315 84.0844 102.972 84.9802C99.1864 85.9896 96.5366 89.5727 96.5114 93.6986C96.4987 97.3828 96.8142 101.294 97.4703 105.332C98.896 114.164 107.085 120.599 115.727 119.652C117.254 119.488 118.655 119.173 119.878 118.706C122.679 108.398 123.336 99.4017 121.847 91.9449C121.304 89.2574 120.421 86.6961 119.222 84.3493C118.125 84.1727 115.614 83.8192 112.447 83.8192Z" fill="#262830"></path><path d="M108.22 136.925L105.457 134.881C107.211 132.521 107.98 128.232 108.119 126.781L111.538 127.121C111.513 127.374 110.882 133.329 108.22 136.925Z" fill="#262830"></path><path d="M557.352 421.935C557.352 420.131 558.803 418.693 560.594 418.693C562.386 418.693 563.837 420.144 563.837 421.935C563.837 423.727 562.386 425.178 560.594 425.178C558.803 425.178 557.352 423.727 557.352 421.935ZM557.352 402.808C557.352 401.016 558.803 399.565 560.594 399.565C562.386 399.565 563.837 401.016 563.837 402.808C563.837 404.599 562.386 406.05 560.594 406.05C558.803 406.05 557.352 404.599 557.352 402.808ZM557.352 383.693C557.352 381.888 558.803 380.45 560.594 380.45C562.386 380.45 563.837 381.901 563.837 383.693C563.837 385.484 562.386 386.935 560.594 386.935C558.803 386.935 557.352 385.484 557.352 383.693ZM557.352 364.565C557.352 362.773 558.803 361.322 560.594 361.322C562.386 361.322 563.837 362.773 563.837 364.565C563.837 366.356 562.386 367.807 560.594 367.807C558.803 367.807 557.352 366.356 557.352 364.565Z" fill="#262830"></path><path d="M560.595 348.692C560.381 348.692 560.166 348.667 559.952 348.629C559.75 348.579 559.548 348.528 559.346 348.44C559.157 348.352 558.967 348.251 558.791 348.137C558.601 348.011 558.438 347.872 558.286 347.734C557.681 347.128 557.34 346.295 557.34 345.45C557.34 344.604 557.681 343.759 558.286 343.153C558.438 343.002 558.601 342.863 558.791 342.749C558.955 342.623 559.157 342.522 559.346 342.447C559.535 342.371 559.75 342.308 559.952 342.258C560.368 342.169 560.81 342.169 561.226 342.258C561.441 342.308 561.642 342.371 561.832 342.447C562.021 342.535 562.21 342.636 562.387 342.749C562.563 342.863 562.727 343.002 562.879 343.153C563.484 343.759 563.838 344.592 563.838 345.45C563.838 346.308 563.484 347.14 562.879 347.734C562.727 347.885 562.563 348.023 562.387 348.137C562.21 348.251 562.021 348.352 561.832 348.44C561.642 348.528 561.428 348.579 561.226 348.629C561.024 348.667 560.81 348.692 560.595 348.692Z" fill="#262830"></path><path d="M138.814 79.7298C138.814 77.9256 140.266 76.4874 142.057 76.4874C143.849 76.4874 145.3 77.9382 145.3 79.7298C145.3 81.5215 143.849 82.9725 142.057 82.9725C140.266 82.9725 138.814 81.5215 138.814 79.7298ZM138.814 60.6022C138.814 58.8106 140.266 57.3595 142.057 57.3595C143.849 57.3595 145.3 58.8106 145.3 60.6022C145.3 62.3939 143.849 63.8449 142.057 63.8449C140.266 63.8449 138.814 62.3939 138.814 60.6022ZM138.814 41.487C138.814 39.6827 140.266 38.2446 142.057 38.2446C143.849 38.2446 145.3 39.6953 145.3 41.487C145.3 43.2786 143.849 44.7297 142.057 44.7297C140.266 44.7297 138.814 43.2786 138.814 41.487ZM138.814 22.3594C138.814 20.5678 140.266 19.1167 142.057 19.1167C143.849 19.1167 145.3 20.5678 145.3 22.3594C145.3 24.151 143.849 25.6021 142.057 25.6021C140.266 25.6021 138.814 24.151 138.814 22.3594Z" fill="#262830"></path><path d="M142.058 6.50083C141.844 6.50083 141.629 6.47584 141.415 6.43799C141.213 6.38752 141.011 6.33687 140.809 6.24855C140.62 6.16023 140.43 6.0593 140.254 5.94575C140.064 5.81958 139.9 5.6807 139.749 5.54191C139.143 4.93629 138.803 4.10379 138.803 3.25843C138.803 2.41308 139.143 1.56764 139.749 0.962013C139.9 0.810607 140.064 0.671731 140.254 0.558176C140.418 0.432004 140.62 0.331079 140.809 0.255375C140.998 0.179672 141.213 0.116709 141.415 0.0662404C141.831 -0.0220801 142.273 -0.0220801 142.689 0.0662404C142.903 0.116709 143.105 0.179672 143.295 0.255375C143.484 0.343696 143.673 0.444621 143.85 0.558176C144.026 0.671731 144.19 0.810607 144.342 0.962013C144.947 1.56764 145.3 2.40046 145.3 3.25843C145.3 4.1164 144.947 4.9489 144.342 5.54191C144.19 5.69332 144.026 5.83219 143.85 5.94575C143.673 6.0593 143.484 6.16023 143.295 6.24855C143.105 6.33687 142.891 6.38752 142.689 6.43799C142.487 6.47584 142.273 6.50083 142.058 6.50083Z" fill="#262830"></path><path d="M333.89 159.662L331.847 160.494L329.802 161.327L325.714 162.992L324.781 163.371L320.592 165.074H320.605C322.851 166.387 324.68 169.238 324.693 171.459L324.781 211.455L343.063 222.003L343.088 182.082C343.088 179.862 344.918 179.117 347.176 180.417L337.978 166.033L335.935 162.841L333.89 159.636V159.662ZM319.015 169.768L318.119 170.134L313.224 172.127L291.888 180.833L287.686 182.549L296.19 187.457C298.449 188.757 300.278 191.621 300.278 193.841V197.311L319.002 208.124V169.768H319.015ZM348.817 187.003V225.36L367.541 236.172V232.703C367.541 230.482 369.37 229.738 371.629 231.037L380.133 235.945L375.931 229.372L354.595 196.025L349.7 188.378L348.804 186.99L348.817 187.003ZM278.829 190.624L282.715 196.693L291.926 211.089L307.294 235.113V232.374C307.294 228.514 310.473 227.214 314.384 229.485L320.554 233.056V263.917L320.592 263.981L324.68 262.315V262.302L324.806 262.252L333.89 258.543H333.903L343.126 272.952H343.114V272.964L347.202 279.361L347.277 279.323V248.499L353.447 252.07C357.358 254.329 360.538 259.3 360.538 263.148V265.861L375.931 259.577L385.104 255.843L388.977 254.253L278.816 190.65L278.829 190.624Z" fill="#262830"></path><path opacity="0.2" d="M469.234 498.559L171.822 326.852C168.137 324.719 168.592 321.01 172.856 318.55L185.915 311.004C188.048 309.781 191.265 309.642 193.107 310.702L497.194 486.27C499.037 487.33 498.809 489.197 496.677 490.421L483.618 497.966C479.366 500.427 472.919 500.692 469.234 498.559Z" fill="#262830"></path><path d="M576.544 267.487L588.972 285.706C589.363 286.274 589.981 286.64 590.662 286.716C591.344 286.791 592.025 286.552 592.517 286.085L603.406 275.701C603.999 275.133 604.251 274.3 604.075 273.505C603.923 272.799 603.456 272.219 602.8 271.903C602.712 271.865 602.624 271.827 602.535 271.789L579.219 263.967C578.853 263.841 578.462 263.815 578.096 263.878C577.515 263.979 576.986 264.282 576.607 264.774C576.001 265.582 575.976 266.667 576.544 267.5V267.487ZM582.512 269.405L598.99 274.931L591.293 282.274L582.512 269.392V269.405Z" fill="#3454A8"></path><path d="M627.944 255.262C624.563 253.773 620.601 255.313 619.099 258.694C617.61 262.076 619.15 266.037 622.531 267.539C625.913 269.028 629.874 267.488 631.376 264.107C632.877 260.726 631.325 256.764 627.944 255.262ZM623.932 264.372C622.292 263.653 621.547 261.735 622.266 260.094C622.985 258.454 624.903 257.71 626.544 258.429C628.184 259.148 628.928 261.066 628.209 262.706C627.49 264.347 625.572 265.091 623.932 264.372Z" fill="#F96000"></path><path d="M51.2774 107.162C47.896 105.673 43.9342 107.212 42.4328 110.594C40.9313 113.975 42.4835 117.937 45.8649 119.438C49.2463 120.927 53.2081 119.388 54.7096 116.006C56.1984 112.625 54.6588 108.663 51.2774 107.162ZM47.2652 116.271C45.625 115.552 44.8805 113.634 45.5997 111.994C46.3189 110.354 48.2369 109.61 49.8771 110.329C51.5173 111.048 52.2618 112.966 51.5426 114.606C50.8235 116.246 48.9055 116.991 47.2652 116.271Z" fill="#F96000"></path><path d="M346.303 45.3118C342.922 43.823 338.96 45.3623 337.459 48.7437C335.97 52.1251 337.509 56.0869 340.891 57.5884C344.272 59.0772 348.234 57.5379 349.735 54.1565C351.237 50.7751 349.685 46.8133 346.303 45.3118ZM342.291 54.4214C340.651 53.7022 339.906 51.7846 340.626 50.1443C341.345 48.5041 343.263 47.7596 344.903 48.4788C346.543 49.198 347.287 51.1159 346.568 52.7562C345.849 54.3964 343.931 55.1406 342.291 54.4214Z" fill="#F96000"></path><path d="M597.625 251.212C599.507 251.212 601.032 249.686 601.032 247.805C601.032 245.923 599.507 244.398 597.625 244.398C595.744 244.398 594.219 245.923 594.219 247.805C594.219 249.686 595.744 251.212 597.625 251.212Z" fill="#32C7E8"></path><path d="M355.327 75.7827C357.208 75.7827 358.733 74.2576 358.733 72.3761C358.733 70.4947 357.208 68.9692 355.327 68.9692C353.445 68.9692 351.92 70.4947 351.92 72.3761C351.92 74.2576 353.445 75.7827 355.327 75.7827Z" fill="#3454A8"></path><path d="M43.5179 88.9277C45.3994 88.9277 46.9245 87.4026 46.9245 85.5211C46.9245 83.6397 45.3994 82.1145 43.5179 82.1145C41.6365 82.1145 40.1113 83.6397 40.1113 85.5211C40.1113 87.4026 41.6365 88.9277 43.5179 88.9277Z" fill="#32C7E8"></path><path d="M12.9574 86.3925C14.8388 86.3925 16.364 84.8673 16.364 82.9859C16.364 81.1045 14.8388 79.5793 12.9574 79.5793C11.0759 79.5793 9.55078 81.1045 9.55078 82.9859C9.55078 84.8673 11.0759 86.3925 12.9574 86.3925Z" fill="#3454A8"></path><path d="M164.327 418.378C163.293 418.378 162.447 417.532 162.447 416.498V391.793C162.447 390.758 163.293 389.913 164.327 389.913C165.362 389.913 166.207 390.758 166.207 391.793V416.498C166.207 417.532 165.362 418.378 164.327 418.378Z" fill="url(#paint1_linear_2750_39810)"></path><path d="M183.618 407.25C182.584 407.25 181.738 406.405 181.738 405.37V371.632C181.738 370.597 182.584 369.752 183.618 369.752C184.653 369.752 185.498 370.597 185.498 371.632V405.37C185.498 406.405 184.653 407.25 183.618 407.25Z" fill="url(#paint2_linear_2750_39810)"></path><path d="M202.911 396.108C201.877 396.108 201.031 395.263 201.031 394.228V342.435C201.031 341.4 201.877 340.555 202.911 340.555C203.946 340.555 204.791 341.4 204.791 342.435V394.228C204.791 395.263 203.946 396.108 202.911 396.108Z" fill="url(#paint3_linear_2750_39810)"></path><path d="M222.19 384.968C221.156 384.968 220.311 384.122 220.311 383.088V349.349C220.311 348.314 221.156 347.469 222.19 347.469C223.225 347.469 224.07 348.314 224.07 349.349V383.088C224.07 384.122 223.225 384.968 222.19 384.968Z" fill="url(#paint4_linear_2750_39810)"></path><path d="M241.482 373.839C240.447 373.839 239.602 372.993 239.602 371.959V347.254C239.602 346.22 240.447 345.374 241.482 345.374C242.516 345.374 243.361 346.22 243.361 347.254V371.959C243.361 372.993 242.516 373.839 241.482 373.839Z" fill="url(#paint5_linear_2750_39810)"></path><path d="M385.769 92.6762C384.734 92.6762 383.889 91.8308 383.889 90.7962V66.0916C383.889 65.057 384.734 64.2117 385.769 64.2117C386.803 64.2117 387.649 65.057 387.649 66.0916V90.7962C387.649 91.8308 386.803 92.6762 385.769 92.6762Z" fill="url(#paint6_linear_2750_39810)"></path><path d="M405.06 81.5468C404.025 81.5468 403.18 80.7015 403.18 79.6669V45.9285C403.18 44.8939 404.025 44.0485 405.06 44.0485C406.094 44.0485 406.94 44.8939 406.94 45.9285V79.6669C406.94 80.7015 406.094 81.5468 405.06 81.5468Z" fill="url(#paint7_linear_2750_39810)"></path><path d="M424.353 70.4067C423.318 70.4067 422.473 69.5614 422.473 68.5268V16.7331C422.473 15.6985 423.318 14.8531 424.353 14.8531C425.387 14.8531 426.233 15.6985 426.233 16.7331V68.5268C426.233 69.5614 425.387 70.4067 424.353 70.4067Z" fill="url(#paint8_linear_2750_39810)"></path><path d="M443.644 59.2783C442.609 59.2783 441.764 58.433 441.764 57.3984V23.66C441.764 22.6254 442.609 21.78 443.644 21.78C444.678 21.78 445.524 22.6254 445.524 23.66V57.3984C445.524 58.433 444.678 59.2783 443.644 59.2783Z" fill="url(#paint9_linear_2750_39810)"></path><path d="M462.923 48.137C461.888 48.137 461.043 47.2916 461.043 46.257V21.5527C461.043 20.5181 461.888 19.6728 462.923 19.6728C463.958 19.6728 464.803 20.5181 464.803 21.5527V46.257C464.803 47.2916 463.958 48.137 462.923 48.137Z" fill="url(#paint10_linear_2750_39810)"></path><path d="M595.545 151.004C589.527 136.419 581.263 122.906 570.727 110.465C560.192 98.0375 548.092 87.8679 534.415 79.9695C521.23 72.3613 509.799 68.8035 500.071 69.1694L500.033 69.1062L498.052 69.2701C497.762 69.2953 497.472 69.308 497.182 69.3459L461.752 72.2984C461.752 72.2984 460.579 88.4864 459.797 96.3469L436.732 98.2269L474.004 115.134L481.347 137.656L515.565 134.867C517.041 131.486 519.4 129.303 522.63 128.306C525.86 127.322 529.797 128.155 534.415 130.817C541.241 134.753 546.792 140.179 551.044 147.081C555.296 153.982 557.416 160.833 557.416 167.609C557.416 176.302 555.107 181.21 550.489 182.358C545.859 183.507 539.866 182.472 532.472 179.267L506.695 167.243L472.477 170.031C472.477 170.031 503.616 201.738 504.411 202.533C504.588 202.71 505.938 201.978 507.868 200.754L508.625 223.642L474.408 226.43L500.462 232.02L515.515 247.64L482.735 250.113C482.735 250.113 486.205 263.891 486.066 264.559C485.978 265.014 496.866 270.048 503.806 273.202C504.765 280.293 507.401 287.611 511.805 295.207C513.344 297.869 514.984 300.279 516.675 302.55C515.149 302.992 514.114 303.332 514.089 303.484C513.962 304.152 512.764 323.204 512.764 323.204L545.934 320.34L545.947 320.302C548.079 320.088 550.098 319.482 551.991 318.41C557.631 315.205 560.444 309.149 560.444 300.253C560.444 291.358 557.618 282.06 551.991 272.344C546.805 263.399 540.673 256.787 533.696 252.283L555.183 250.529L555.789 232.865L579.963 230.985C586.688 230.253 592.151 227.553 596.327 222.822C601.778 216.639 604.504 207.328 604.504 194.824C604.504 180.201 601.501 165.603 595.508 151.017L595.545 151.004Z" fill="white"></path><path d="M512.789 325.058C512.562 325.058 512.347 325.021 512.133 324.945C507.477 325.45 502.304 324.1 496.765 320.895C488.753 316.264 481.763 308.871 475.997 298.928C470.218 288.961 467.279 279.258 467.279 270.073C467.279 260.887 470.445 253.859 476.678 250.301C478.47 249.279 480.4 248.598 482.444 248.27C483.365 248.119 484.299 248.056 485.22 248.056H485.246L505.483 246.529L473.474 228.045C472.918 227.717 472.565 227.136 472.54 226.493L471.152 184.704C471.152 184.566 471.152 184.414 471.19 184.276L470.609 170.094C470.572 169.097 471.329 168.239 472.326 168.151L506.543 165.363C506.859 165.337 507.187 165.4 507.49 165.526L521.305 171.974C521.331 171.457 521.331 170.927 521.331 170.384C521.331 163.975 519.274 157.401 515.237 150.84C512.019 145.617 507.956 141.213 503.137 137.731L481.498 139.497C480.993 139.535 480.489 139.371 480.11 139.03L435.496 99.6015C434.966 99.1346 434.751 98.4028 434.928 97.7215C438.789 83.1234 446.687 74.1653 458.434 71.0615C459.267 70.847 460.162 70.6578 461.235 70.4685C461.348 70.4307 461.475 70.418 461.601 70.4054H461.79C463.279 70.153 464.957 70.0141 466.66 69.9889L497.042 67.4528C497.169 67.4402 497.383 67.4276 497.585 67.4023L499.894 67.2132C500.108 67.2006 500.298 67.2132 500.487 67.2637C510.492 67.024 522.214 70.7461 535.361 78.329C549.139 86.2905 561.529 96.6871 572.153 109.229C582.751 121.757 591.205 135.561 597.261 150.272C603.33 165.009 606.396 179.986 606.396 194.786C606.396 207.68 603.481 217.522 597.753 224.02C593.337 229.029 587.508 231.969 580.404 232.764C580.316 232.789 580.215 232.801 580.127 232.801L557.618 234.555L557.063 250.554C557.025 251.5 556.293 252.27 555.347 252.345L538.894 253.683C544.471 258.187 549.417 264.105 553.618 271.36C559.397 281.327 562.324 291.03 562.324 300.202C562.324 309.375 559.157 316.428 552.924 319.987C550.981 321.097 548.823 321.791 546.527 322.068C546.388 322.106 546.25 322.144 546.111 322.157L512.94 325.021C512.94 325.021 512.839 325.021 512.776 325.021L512.789 325.058ZM485.233 251.778C484.501 251.778 483.769 251.841 483.05 251.954C483.012 251.954 482.949 251.967 482.911 251.967C481.448 252.207 479.934 252.737 478.533 253.544C473.474 256.421 471.013 261.821 471.013 270.06C471.013 278.299 473.776 287.661 479.214 297.048C484.652 306.435 491.175 313.362 498.62 317.665C503.78 320.642 508.448 321.816 512.473 321.135C512.839 321.071 513.205 321.122 513.533 321.261L545.417 318.51C545.53 318.472 545.657 318.447 545.77 318.434C547.713 318.245 549.454 317.703 551.069 316.782C556.129 313.905 558.589 308.492 558.589 300.253C558.589 292.014 555.826 282.665 550.388 273.278C545.455 264.786 539.512 258.238 532.699 253.847C532.03 253.418 531.702 252.598 531.904 251.828C532.093 251.046 532.762 250.491 533.569 250.415L553.404 248.8L553.959 232.789C553.997 231.843 554.728 231.06 555.675 230.997L579.635 229.13C579.635 229.13 579.748 229.105 579.811 229.105C586.133 228.436 591.091 225.976 594.965 221.585C600.075 215.781 602.674 206.772 602.674 194.811C602.674 180.503 599.696 166.006 593.816 151.723C587.899 137.377 579.66 123.902 569.301 111.676C558.942 99.4628 546.893 89.3437 533.481 81.5967C520.75 74.2408 509.559 70.6956 500.134 71.0362C499.995 71.0362 499.844 71.0362 499.717 70.9983L497.825 71.1496C497.686 71.1496 497.547 71.1622 497.408 71.1875L466.824 73.7362C465.171 73.7614 463.657 73.8877 462.219 74.1148H462.143C462.143 74.1148 462.08 74.14 462.042 74.14C460.995 74.3167 460.15 74.4806 459.368 74.6825C449.173 77.3699 442.448 84.8647 438.827 97.5703L481.978 135.699L503.503 133.945C503.932 133.92 504.373 134.034 504.726 134.274C510.202 138.109 514.807 143.017 518.416 148.859C522.832 156.026 525.065 163.255 525.065 170.359C525.065 172.012 524.977 173.576 524.813 175.002C524.737 175.595 524.397 176.125 523.867 176.415C523.337 176.705 522.706 176.731 522.163 176.478L506.341 169.097L474.407 171.696L474.937 184.553C474.937 184.705 474.937 184.856 474.899 185.007L476.237 225.282L512.6 246.277C513.306 246.693 513.672 247.513 513.483 248.308C513.293 249.103 512.625 249.696 511.805 249.759L485.46 251.74C485.46 251.74 485.359 251.74 485.308 251.74C485.283 251.74 485.258 251.74 485.22 251.74L485.233 251.778Z" fill="#262830"></path><path d="M497.712 253.81C489.952 249.33 483.253 248.7 477.625 251.904C471.985 255.109 469.172 261.153 469.172 270.048C469.172 278.943 471.985 288.255 477.625 297.97C483.253 307.685 489.952 314.789 497.712 319.268C505.471 323.747 512.171 324.378 517.811 321.173C523.451 317.968 526.265 311.912 526.265 303.017C526.265 294.122 523.451 284.823 517.811 275.108C512.171 265.392 505.471 258.289 497.712 253.81Z" fill="#F96000"></path><path d="M561.328 153.793C555.323 139.207 547.046 125.694 536.51 113.254C525.975 100.826 513.875 90.6566 500.211 82.7582C483.758 73.2574 469.993 69.9643 458.915 72.8914C447.824 75.806 440.43 84.247 436.746 98.2143L481.361 137.643C482.837 134.274 485.196 132.079 488.426 131.082C491.669 130.098 495.593 130.93 500.211 133.593C507.037 137.529 512.588 142.955 516.84 149.856C521.092 156.758 523.212 163.609 523.212 170.385C523.212 179.078 520.903 183.986 516.285 185.134C511.655 186.282 505.661 185.248 498.268 182.043L472.491 170.019L473.096 184.667L473.046 184.642L474.434 226.43L521.004 253.318L521.824 229.635C528.082 232.02 533.937 233.483 539.299 233.862C549.09 234.531 556.711 231.793 562.161 225.61C567.612 219.428 570.337 210.116 570.337 197.613C570.337 182.989 567.334 168.391 561.341 153.805L561.328 153.793Z" fill="#F96000"></path><path d="M510.202 325.059C506.063 325.059 501.572 323.672 496.765 320.896C488.753 316.265 481.763 308.871 475.997 298.916C470.218 288.949 467.291 279.246 467.291 270.061C467.291 260.876 470.458 253.848 476.691 250.29C482.898 246.744 490.279 247.375 498.632 252.195C506.644 256.813 513.634 264.219 519.412 274.174C525.191 284.142 528.119 293.844 528.119 303.017C528.119 312.19 524.951 319.243 518.718 322.801C516.081 324.302 513.23 325.059 510.19 325.059H510.202ZM485.258 251.753C482.848 251.753 480.627 252.346 478.545 253.532C473.486 256.409 471.026 261.809 471.026 270.048C471.026 278.287 473.789 287.649 479.227 297.036C484.665 306.424 491.188 313.351 498.632 317.653C505.836 321.817 511.804 322.435 516.876 319.558C521.936 316.682 524.396 311.269 524.396 303.03C524.396 294.791 521.633 285.441 516.195 276.054C510.744 266.667 504.221 259.727 496.777 255.437C492.525 252.977 488.715 251.766 485.258 251.766V251.753Z" fill="#262830"></path><path d="M521.003 255.172C520.674 255.172 520.359 255.083 520.069 254.919L473.499 228.032C472.944 227.704 472.59 227.124 472.565 226.48L471.177 184.692C471.177 184.553 471.177 184.402 471.215 184.263L470.635 170.081C470.609 169.425 470.925 168.807 471.467 168.454C472.01 168.088 472.704 168.037 473.297 168.315L499.074 180.339C506.001 183.342 511.653 184.351 515.842 183.317C519.489 182.408 521.343 178.055 521.343 170.384C521.343 163.974 519.286 157.401 515.249 150.84C511.186 144.241 505.811 138.98 499.276 135.207C495.15 132.822 491.68 132.04 488.968 132.86C486.255 133.693 484.324 135.497 483.063 138.387C482.823 138.929 482.331 139.333 481.751 139.459C481.17 139.598 480.564 139.434 480.11 139.03L435.496 99.6014C434.966 99.1345 434.751 98.4027 434.928 97.7214C438.776 83.1233 446.687 74.1652 458.434 71.0614C469.953 68.0206 484.324 71.4146 501.143 81.1173C514.934 89.0787 527.311 99.4753 537.935 112.017C548.546 124.546 556.987 138.349 563.056 153.061C569.125 167.798 572.191 182.774 572.191 197.574C572.191 210.469 569.276 220.31 563.548 226.808C557.719 233.42 549.53 236.397 539.159 235.691C534.478 235.363 529.242 234.202 523.589 232.234L522.857 253.342C522.832 253.998 522.466 254.591 521.898 254.907C521.621 255.058 521.305 255.146 520.99 255.146L521.003 255.172ZM476.262 225.319L519.236 250.137L519.943 229.559C519.968 228.953 520.271 228.398 520.775 228.07C521.28 227.742 521.911 227.666 522.479 227.881C528.737 230.265 534.44 231.641 539.424 231.994C548.672 232.625 555.662 230.139 560.759 224.373C565.869 218.569 568.469 209.561 568.469 197.599C568.469 183.292 565.491 168.794 559.611 154.511C553.706 140.166 545.455 126.691 535.096 114.464C524.75 102.251 512.7 92.1319 499.288 84.3849C483.353 75.187 469.928 71.9318 459.393 74.7076C449.198 77.3951 442.461 84.8899 438.852 97.5954L480.829 134.69C482.533 132.028 484.892 130.223 487.895 129.315C491.642 128.167 496.096 129.075 501.156 131.99C508.221 136.065 514.038 141.756 518.441 148.897C522.857 156.063 525.09 163.293 525.09 170.397C525.09 179.998 522.29 185.575 516.751 186.963C511.679 188.212 505.395 187.177 497.547 183.771L474.496 173.021L474.975 184.604C474.975 184.755 474.975 184.906 474.937 185.058L476.275 225.332L476.262 225.319Z" fill="#262830"></path><path d="M511.68 247.917L491.404 250.503C491.404 250.503 499.303 254.743 500.224 255.373C501.145 256.004 514.141 269.379 514.141 269.379L549.04 267.6C549.04 267.6 543.791 260.812 542.883 259.928C541.974 259.045 533.697 252.244 533.697 252.244L520.966 253.279L555.184 250.491" fill="#262830"></path><path d="M522.276 231.578L521.52 251.917L553.908 250.529L555.813 232.853C555.813 232.853 546.375 233.584 545.997 233.584C545.618 233.584 533.695 232.701 533.695 232.701L522.264 231.566L522.276 231.578Z" fill="#262830"></path><path d="M482.496 135.524C482.496 135.524 492.426 128.257 496.779 131.891C501.132 135.525 501.132 136.471 501.132 136.471L485.121 137.783L482.496 135.524Z" fill="#262830"></path><path d="M477.02 170.561L506.708 167.23L522.971 174.813C522.971 174.813 525.003 178.952 520.637 182.043C516.284 185.134 515.224 187.607 506.745 184.818C498.267 182.03 477.02 170.548 477.02 170.548V170.561Z" fill="#262830"></path><defs><linearGradient id="paint0_linear_2750_39810" x1="346.633" y1="108.007" x2="339.101" y2="403.3" gradientUnits="userSpaceOnUse"><stop stop-color="#32C9EA"></stop><stop offset="1" stop-color="#4671CA"></stop></linearGradient><linearGradient id="paint1_linear_2750_39810" x1="163.33" y1="333.06" x2="164.453" y2="413.293" gradientUnits="userSpaceOnUse"><stop stop-color="#32C9EA"></stop><stop offset="1" stop-color="#4671CA"></stop></linearGradient><linearGradient id="paint2_linear_2750_39810" x1="182.836" y1="332.796" x2="183.959" y2="413.016" gradientUnits="userSpaceOnUse"><stop stop-color="#32C9EA"></stop><stop offset="1" stop-color="#4671CA"></stop></linearGradient><linearGradient id="paint3_linear_2750_39810" x1="202.407" y1="332.517" x2="203.529" y2="412.738" gradientUnits="userSpaceOnUse"><stop stop-color="#32C9EA"></stop><stop offset="1" stop-color="#4671CA"></stop></linearGradient><linearGradient id="paint4_linear_2750_39810" x1="221.724" y1="332.24" x2="222.847" y2="412.473" gradientUnits="userSpaceOnUse"><stop stop-color="#32C9EA"></stop><stop offset="1" stop-color="#4671CA"></stop></linearGradient><linearGradient id="paint5_linear_2750_39810" x1="241.09" y1="331.975" x2="242.226" y2="412.195" gradientUnits="userSpaceOnUse"><stop stop-color="#32C9EA"></stop><stop offset="1" stop-color="#4671CA"></stop></linearGradient><linearGradient id="paint6_linear_2750_39810" x1="384.772" y1="7.371" x2="385.907" y2="87.5914" gradientUnits="userSpaceOnUse"><stop stop-color="#32C9EA"></stop><stop offset="1" stop-color="#4671CA"></stop></linearGradient><linearGradient id="paint7_linear_2750_39810" x1="404.277" y1="7.09275" x2="405.413" y2="87.3129" gradientUnits="userSpaceOnUse"><stop stop-color="#32C9EA"></stop><stop offset="1" stop-color="#4671CA"></stop></linearGradient><linearGradient id="paint8_linear_2750_39810" x1="423.848" y1="6.81597" x2="424.971" y2="87.0362" gradientUnits="userSpaceOnUse"><stop stop-color="#32C9EA"></stop><stop offset="1" stop-color="#4671CA"></stop></linearGradient><linearGradient id="paint9_linear_2750_39810" x1="443.164" y1="6.53845" x2="444.287" y2="86.7712" gradientUnits="userSpaceOnUse"><stop stop-color="#32C9EA"></stop><stop offset="1" stop-color="#4671CA"></stop></linearGradient><linearGradient id="paint10_linear_2750_39810" x1="462.544" y1="6.27339" x2="463.667" y2="86.493" gradientUnits="userSpaceOnUse"><stop stop-color="#32C9EA"></stop><stop offset="1" stop-color="#4671CA"></stop></linearGradient></defs></svg> 