<?xml version="1.0" encoding="UTF-8"?> <svg xmlns="http://www.w3.org/2000/svg" width="565" height="448" viewBox="0 0 565 448" fill="none"><path d="M436.528 377.165L431.531 382.839L186.833 241.562C185.31 240.682 182.648 240.795 180.889 241.81L177.809 243.592L168.232 240.975C168.232 240.975 163.02 245.465 167.555 253.294C167.578 253.339 167.6 253.384 167.623 253.429V253.44C167.657 253.485 167.69 253.508 167.724 253.553C167.893 253.79 168.074 254.027 168.311 254.241C168.367 254.286 168.435 254.331 168.491 254.376C168.717 254.557 168.942 254.749 169.224 254.907L415.196 396.917C418.242 398.677 423.567 398.451 427.086 396.421L437.881 390.183L448.688 383.866L436.505 377.154L436.528 377.165Z" fill="#B6CCDF"></path><path d="M420.384 399.647C418.173 399.647 416.053 399.184 414.439 398.248L168.468 256.237C168.118 256.034 167.836 255.809 167.565 255.583C167.498 255.538 167.419 255.481 167.34 255.414C167.001 255.109 166.731 254.793 166.471 254.421L166.2 254.015C162.139 246.976 165.084 241.64 167.227 239.802L167.847 239.271L177.594 241.934L180.12 240.478C182.377 239.181 185.592 239.08 187.6 240.23L431.214 380.876L436.188 375.224L451.823 383.843L427.875 397.763C425.709 399.015 422.99 399.647 420.396 399.647H420.384ZM168.896 252.548L169.021 252.729C169.111 252.853 169.223 252.989 169.347 253.101C169.652 253.338 169.81 253.462 170.002 253.575L415.974 395.585C418.546 397.075 423.295 396.849 426.329 395.089L445.596 383.899L436.865 379.082L431.846 384.779L186.054 242.87C185.106 242.328 183.02 242.317 181.643 243.118L178.011 245.216L168.716 242.678C167.723 243.953 165.884 247.326 168.874 252.504L168.896 252.537V252.548Z" fill="#262830"></path><path d="M415.207 388.368L169.235 246.357C166.189 244.597 166.573 241.518 170.092 239.488L180.888 233.249C182.648 232.234 185.31 232.121 186.832 233.001L438.332 378.204C439.855 379.084 439.663 380.618 437.903 381.633L427.108 387.872C423.588 389.902 418.264 390.128 415.218 388.368H415.207Z" fill="white"></path><path d="M420.383 391.098C418.183 391.098 416.063 390.636 414.438 389.7L168.467 247.689C166.65 246.64 165.646 245.106 165.646 243.38C165.646 241.417 166.989 239.511 169.324 238.168L180.119 231.93C182.375 230.633 185.59 230.52 187.598 231.682L439.098 376.885C440.237 377.539 440.891 378.577 440.891 379.705C440.891 380.969 440.079 382.164 438.669 382.976L427.873 389.215C425.708 390.467 422.989 391.098 420.383 391.098ZM415.972 387.049C418.544 388.538 423.293 388.312 426.328 386.552L437.123 380.314C437.608 380.032 437.778 379.784 437.812 379.694C437.8 379.705 437.721 379.637 437.552 379.536L186.053 234.333C185.116 233.791 183.03 233.78 181.642 234.581L170.847 240.819C169.504 241.598 168.703 242.545 168.703 243.369C168.703 244.192 169.516 244.745 169.989 245.016L415.961 387.026L415.972 387.049Z" fill="#262830"></path><path d="M479.749 372.699H479.715C479.715 372.439 479.749 372.18 479.749 371.909V200.829C479.749 190.665 473.567 178.866 465.953 174.466L176.98 7.62731C176.303 7.23249 175.637 6.93911 174.983 6.69094V6.66835C171.858 5.05524 164.977 4.38974 158.671 8.13488C152.354 11.88 149.963 19.7426 149.963 19.7426L163.184 21.728V189.131C163.184 199.295 169.365 211.094 176.98 215.493L462.907 380.573L457.335 383.178L454.988 391.842C454.988 391.842 464.295 394.38 471.39 390.319C480.234 385.254 479.749 372.699 479.749 372.699Z" fill="#B6CCDF"></path><path d="M461.621 394.166C457.763 394.166 454.808 393.387 454.593 393.32L453.116 392.914L456.049 382.084L459.602 380.426L176.224 216.813C168.192 212.177 161.661 199.757 161.661 189.12V23.0364L148 20.9835L148.519 19.2802C148.62 18.9418 151.17 10.7972 157.916 6.79257C164.989 2.59621 172.445 3.5888 175.716 5.28088L175.818 5.33733C176.54 5.61935 177.16 5.92401 177.769 6.27371L466.743 173.113C474.774 177.749 481.306 190.169 481.306 200.806V371.887C481.306 372.056 481.306 372.214 481.294 372.372V372.62C481.328 373.173 481.723 386.168 472.18 391.627C468.739 393.602 464.87 394.143 461.644 394.143L461.621 394.166ZM456.895 390.669C459.681 391.154 465.784 391.752 470.623 388.977C476.297 385.728 477.741 378.903 478.102 375.226L478.215 371.898V200.818C478.215 191.161 472.371 179.926 465.186 175.786L176.213 8.94705C175.671 8.64247 175.107 8.37175 174.441 8.1123L173.551 7.69506C170.651 6.58957 164.91 6.20609 159.45 9.4436C155.434 11.8238 153.11 16.1214 152.072 18.5016L164.707 20.3969V189.12C164.707 198.776 170.55 210.011 177.736 214.151L466.212 380.708L458.621 384.261L456.883 390.658L456.895 390.669Z" fill="#262831"></path><path d="M451.683 390.464L162.71 223.625C155.084 219.226 148.914 207.426 148.914 197.262V26.1819C148.914 16.0181 155.096 11.348 162.71 15.7474L451.683 182.587C459.309 186.986 465.479 198.785 465.479 208.949V380.029C465.479 390.193 459.298 394.863 451.683 390.464Z" fill="url(#paint0_linear_2750_38626)"></path><path d="M457.166 393.657C455.181 393.657 453.06 393.036 450.906 391.796L161.932 224.957C153.901 220.32 147.369 207.901 147.369 197.263V26.1825C147.369 20.2828 149.389 15.7254 152.908 13.6949C155.909 11.9577 159.665 12.2173 163.478 14.417L452.451 181.256C460.483 185.892 467.014 198.312 467.014 208.95V380.03C467.014 385.93 464.995 390.487 461.476 392.517C460.167 393.273 458.712 393.645 457.166 393.645V393.657ZM452.451 389.133C455.271 390.758 457.933 391.029 459.941 389.867C462.479 388.4 463.946 384.813 463.946 380.041V208.961C463.946 199.305 458.103 188.069 450.917 183.929L161.944 17.0903C159.124 15.4659 156.461 15.1953 154.453 16.3572C151.904 17.8237 150.449 21.4108 150.449 26.1825V197.263C150.449 206.919 156.292 218.155 163.478 222.294L452.451 389.133Z" fill="#262830"></path><path d="M447.543 374.458L166.85 212.403C163.804 210.643 161.334 205.916 161.334 201.855V35.9527C161.334 31.8918 163.804 30.019 166.85 31.7787L447.543 193.835C450.589 195.595 453.059 200.321 453.059 204.382V370.285C453.059 374.346 450.589 376.218 447.543 374.458Z" fill="#CDDCE8"></path><path d="M449.742 376.659C448.795 376.659 447.779 376.365 446.776 375.79L166.082 213.734C162.563 211.703 159.799 206.481 159.799 201.856V35.9531C159.799 33.2571 160.769 31.1362 162.472 30.1548C163.973 29.2862 165.8 29.399 167.616 30.4481L448.31 192.504C451.829 194.546 454.593 199.757 454.593 204.382V370.285C454.593 372.981 453.611 375.091 451.919 376.072C451.254 376.455 450.509 376.659 449.742 376.659ZM164.661 32.6477C164.435 32.6477 164.209 32.693 164.006 32.8171C163.296 33.2345 162.867 34.3964 162.867 35.9531V201.856C162.867 205.364 165.044 209.583 167.616 211.072L448.31 373.128C448.795 373.41 449.697 373.816 450.385 373.421C451.096 373.004 451.525 371.842 451.525 370.285V204.382C451.525 200.874 449.347 196.655 446.776 195.166L166.082 33.1104C165.744 32.9186 165.191 32.659 164.661 32.659V32.6477Z" fill="#262830"></path><path d="M174.51 208.285C171.464 206.525 168.994 201.798 168.994 197.737V33.008L166.85 31.767C163.804 30.0073 161.334 31.88 161.334 35.941V201.843C161.334 205.904 163.804 210.631 166.85 212.391L447.543 374.447C450.589 376.207 453.059 374.334 453.059 370.273V369.1L174.51 208.285Z" fill="#262830"></path><path d="M449.742 376.658C448.795 376.658 447.779 376.365 446.776 375.79L166.082 213.734C162.563 211.692 159.799 206.481 159.799 201.856V35.9531C159.799 33.2571 160.769 31.1362 162.472 30.1548C163.973 29.2862 165.8 29.399 167.616 30.4481L170.527 32.1288V197.75C170.527 201.258 172.704 205.477 175.276 206.966L454.593 368.232V370.296C454.593 372.992 453.611 375.102 451.919 376.083C451.254 376.467 450.509 376.67 449.742 376.67V376.658ZM164.661 32.6477C164.435 32.6477 164.209 32.693 164.006 32.8171C163.296 33.2345 162.867 34.3964 162.867 35.9531V201.856C162.867 205.364 165.044 209.583 167.616 211.072L448.31 373.128C448.795 373.41 449.697 373.816 450.385 373.421C451.096 373.004 451.525 371.842 451.525 370.285V369.992L173.742 209.617C170.222 207.575 167.458 202.363 167.458 197.738V33.8887L166.082 33.0991C165.744 32.9073 165.191 32.6477 164.661 32.6477Z" fill="#262830"></path><path d="M46.2734 292.994L41.829 323.688C41.829 323.688 20.0462 302.921 2.03125 303.293L8.88962 278.476C8.88962 278.476 21.6142 275.453 46.2621 292.994H46.2734Z" fill="#F2F2F2"></path><path d="M42.9224 326.847L40.7677 324.794C40.5534 324.591 19.1431 304.421 2.06442 304.816L0 304.861L7.64823 277.179L8.52814 276.964C9.08089 276.829 22.2227 273.986 47.1526 291.719L47.9196 292.261L42.9112 326.824L42.9224 326.847ZM4.03852 301.793C18.7934 302.65 34.9472 315.578 40.7228 320.62L44.6145 293.705C24.9751 279.931 13.2546 279.627 10.1073 279.864L4.04981 301.793H4.03852Z" fill="#262830"></path><path d="M135.177 388.232L134.421 385.333C134.206 384.509 133.789 383.686 133.236 382.986L118.707 369.393C118.278 368.863 117.804 368.423 117.308 368.141L109.818 363.798C109.164 363.414 108.521 363.324 108.024 363.527L103.591 365.377L99.9023 371.909L101.335 377.47L123.952 397.673L133.563 391.683C134.635 391.04 135.357 389.856 135.233 388.615C135.221 388.48 135.199 388.356 135.165 388.232H135.177Z" fill="#B4CADD"></path><path d="M123.803 399.591L99.9788 378.304L98.2754 371.694L102.528 364.159L107.447 362.105C108.394 361.711 109.522 361.835 110.594 362.455L118.084 366.798C118.738 367.182 119.381 367.746 119.923 368.423L134.294 381.846C135.129 382.873 135.648 383.899 135.919 384.926L136.674 387.836C136.719 388.039 136.765 388.231 136.787 388.434C136.968 390.217 136.02 391.999 134.384 392.98L123.826 399.568L123.803 399.591ZM102.72 376.646L124.142 395.767L132.783 390.386C133.426 390.002 133.798 389.359 133.73 388.772L135.186 388.231L133.696 388.615L132.941 385.716C132.783 385.095 132.456 384.464 132.038 383.933L117.667 370.509C117.216 369.968 116.866 369.652 116.55 369.46L109.06 365.117C108.755 364.937 108.62 364.948 108.597 364.948L104.694 366.584L101.569 372.122L102.731 376.635L102.72 376.646Z" fill="#262830"></path><path d="M118.707 369.391C118.278 368.861 117.804 368.421 117.308 368.139L109.818 363.796C109.163 363.413 108.52 363.322 108.024 363.525L103.591 365.375L93.0885 371.895C92.9757 371.963 92.9757 372.132 93.0885 372.2L101.335 377.468L111.701 385.827C111.701 385.827 111.713 385.827 111.724 385.827C114.115 384.496 118.582 391.309 118.977 391.163C119.011 391.151 120.15 390.869 120.726 390.553L132.616 383.334C132.943 383.142 133.021 382.714 132.785 382.42L118.695 369.38L118.707 369.391Z" fill="#F2F2F2"></path><path d="M118.919 392.732C118.163 392.732 117.588 392.067 116.674 390.995C113.989 387.859 112.884 387.182 112.433 387.182H112.41L111.541 387.667L110.797 387.047L100.385 378.654L91.5749 373.036L91.4961 372.044C91.4961 371.457 91.8006 370.904 92.297 370.6L103.025 363.955L107.458 362.105C108.405 361.711 109.534 361.835 110.605 362.455L118.095 366.798C118.727 367.159 119.325 367.689 119.855 368.332L134.024 381.463C134.407 381.948 134.565 382.58 134.452 383.189C134.339 383.798 133.967 384.339 133.426 384.655L121.547 391.863C121.04 392.145 120.397 392.371 119.483 392.619C119.291 392.687 119.111 392.721 118.941 392.721L118.919 392.732ZM112.433 384.091C114.813 384.091 117.283 386.979 119.009 389.01C119.145 389.168 119.28 389.325 119.393 389.449C119.776 389.325 119.934 389.246 120.002 389.213L130.797 382.659L117.509 370.34C117.204 369.957 116.866 369.652 116.539 369.46L109.048 365.117C108.744 364.937 108.586 364.948 108.586 364.948L104.311 366.742L95.7486 372.066L102.179 376.172L112.049 384.114C112.185 384.091 112.32 384.08 112.444 384.08L112.433 384.091Z" fill="#262830"></path><path d="M91.9019 373.903V377.05C91.9019 378.799 93.1314 380.92 94.643 381.799L121.84 397.637C123.736 398.732 125.055 397.333 124.424 394.908L123.668 392.008C123.453 391.185 123.036 390.361 122.484 389.662L107.954 376.069C107.525 375.539 107.052 375.099 106.555 374.817L99.0652 370.474C98.4109 370.09 97.7791 370 97.2715 370.203L92.8383 372.053C92.2291 372.301 91.8906 372.978 91.8906 373.903H91.9019Z" fill="#262830"></path><path d="M123.083 399.545C122.44 399.545 121.752 399.353 121.086 398.97L93.8772 383.132C91.8806 381.981 90.3691 379.364 90.3691 377.052V373.905C90.3691 372.359 91.0797 371.13 92.2642 370.633L96.6974 368.783C97.6449 368.388 98.7617 368.513 99.8447 369.133L107.335 373.476C107.989 373.86 108.632 374.424 109.174 375.1L123.545 388.524C124.38 389.551 124.899 390.588 125.169 391.604L125.925 394.492C126.421 396.387 126.027 398.045 124.865 398.936C124.357 399.331 123.748 399.523 123.094 399.523L123.083 399.545ZM93.4713 373.465C93.4713 373.465 93.4374 373.611 93.4374 373.905V377.052C93.4374 378.248 94.3737 379.872 95.4115 380.47L122.62 396.308C122.925 396.477 123.071 396.477 123.083 396.477C123.015 396.477 123.15 396.082 122.947 395.292L122.191 392.394C122.034 391.773 121.706 391.141 121.289 390.611L106.918 377.187C106.466 376.646 106.117 376.33 105.801 376.138L98.3104 371.795C97.9945 371.615 97.848 371.626 97.848 371.626L93.4823 373.453L93.4713 373.465Z" fill="#262830"></path><path d="M108.667 373.557C114.149 373.738 118.752 371.628 118.943 368.831C118.988 368.222 118.774 367.635 118.424 367.082C116.902 363.732 112.942 362.604 112.942 362.604C112.942 362.604 109.705 361.51 105.147 362.514C101.662 363.281 100.037 365.842 99.4505 367.015C99.4054 367.105 99.3604 367.195 99.3153 367.285C99.3153 367.297 99.2927 367.33 99.2927 367.342C99.2927 367.342 99.2927 367.353 99.2927 367.364C99.1912 367.624 99.101 367.883 99.0784 368.165C98.8867 370.963 103.185 373.377 108.667 373.557Z" fill="#B4CADD"></path><path d="M109.366 375.115C109.117 375.115 108.869 375.115 108.61 375.104C104.459 374.968 100.713 373.592 98.852 371.539C97.9044 370.49 97.4533 369.294 97.5323 368.076C97.5436 367.895 97.5775 367.726 97.6113 367.557L97.5661 367.467L97.8707 366.745C97.9497 366.564 98.006 366.44 98.0737 366.305C98.6941 365.041 100.646 361.928 104.797 361.014C109.715 359.931 113.269 361.104 113.415 361.149C113.539 361.183 118.018 362.503 119.811 366.452C120.274 367.151 120.522 368.053 120.466 368.944C120.217 372.532 115.502 375.115 109.354 375.115H109.366ZM100.736 367.873C100.635 368.144 100.612 368.245 100.601 368.29C100.578 368.662 100.758 369.069 101.131 369.486C102.439 370.93 105.406 371.934 108.711 372.047C113.844 372.227 117.307 370.208 117.409 368.753C117.42 368.527 117.33 368.245 117.127 367.929C115.829 365.12 112.547 364.105 112.513 364.105C112.423 364.071 109.512 363.146 105.463 364.037C102.71 364.646 101.368 366.609 100.815 367.726L100.736 367.884V367.873Z" fill="#262830"></path><path d="M108.866 368.073C105.481 367.96 102.842 366.471 102.955 364.745C103.067 363.02 105.91 361.722 109.283 361.835C112.667 361.948 115.307 363.437 115.194 365.163C115.081 366.889 112.239 368.186 108.866 368.073Z" fill="#B4CADD"></path><path d="M109.295 369.618C109.137 369.618 108.979 369.618 108.821 369.618C106.057 369.528 103.655 368.626 102.391 367.227C101.703 366.46 101.365 365.568 101.432 364.655C101.613 362.038 105.02 360.176 109.351 360.312C112.115 360.402 114.518 361.304 115.781 362.703C116.469 363.47 116.808 364.361 116.74 365.275C116.571 367.802 113.412 369.618 109.306 369.618H109.295ZM108.866 363.369C106.057 363.369 104.523 364.452 104.489 364.858C104.489 364.903 104.535 365.027 104.67 365.162C105.245 365.794 106.779 366.471 108.923 366.55C111.968 366.617 113.638 365.489 113.672 365.072C113.672 365.016 113.615 364.903 113.491 364.768C112.916 364.136 111.382 363.459 109.239 363.38C109.115 363.38 108.99 363.38 108.866 363.38V363.369Z" fill="#262830"></path><path d="M114.982 365.088L103.171 364.84C103.814 334.055 110.966 305.775 112.748 299.187L107.164 270.851C104.773 258.724 99.3358 247.297 91.4395 237.799L100.52 230.252C109.68 241.262 115.975 254.516 118.75 268.572L124.886 299.672L124.491 301.037C124.401 301.342 115.67 332.239 114.982 365.088Z" fill="#262830"></path><path d="M106.874 289.57C106.829 290.281 106.807 291.003 106.841 291.725C106.965 294.275 107.359 296.609 107.912 299.125C108.544 301.968 110.089 305.059 112.379 307.191C116.372 310.913 121.562 311.252 123.626 311.229C124.168 311.229 124.652 310.902 124.855 310.394C126.029 307.529 129.751 297.433 127.789 289.221C126.717 284.72 123.998 281.584 120.682 280.151C114.963 277.681 107.506 282.17 106.953 288.375L106.874 289.593V289.57Z" fill="#B4CADD"></path><path d="M123.422 312.753C121.053 312.753 115.593 312.28 111.329 308.309C108.96 306.098 107.178 302.871 106.411 299.453C105.745 296.453 105.407 294.163 105.305 291.794C105.272 291.027 105.294 290.249 105.339 289.47L105.418 288.252C105.723 284.8 107.855 281.596 111.115 279.656C114.364 277.727 118.154 277.378 121.29 278.72C125.238 280.423 128.148 284.112 129.277 288.839C131.341 297.491 127.494 307.959 126.276 310.96C125.836 312.031 124.798 312.731 123.648 312.753C123.58 312.753 123.501 312.753 123.422 312.753ZM117.263 280.976C115.74 280.976 114.149 281.416 112.694 282.285C110.28 283.728 108.701 286.041 108.486 288.478L108.408 289.651C108.362 290.305 108.34 290.971 108.374 291.636C108.475 293.825 108.791 295.957 109.411 298.777C110.032 301.574 111.532 304.293 113.427 306.064C117.015 309.403 121.775 309.741 123.602 309.685C124.573 307.012 128.148 297.321 126.298 289.56C125.396 285.781 123.128 282.86 120.071 281.54C119.203 281.168 118.244 280.976 117.263 280.976Z" fill="#262830"></path><path d="M127.223 302.993C128.215 298.842 128.87 293.743 127.787 289.208C127.414 287.629 126.817 286.23 126.083 285.012C125.971 284.978 121.706 284.267 117.454 285.576C115.231 286.264 113.821 288.419 113.889 290.742C113.934 292.254 114.115 294.194 114.577 296.496C115.502 301.143 119.924 304.448 124.628 303.76C125.531 303.625 126.422 303.388 127.223 302.993Z" fill="#F2F2F2"></path><path d="M123.433 305.386C118.56 305.386 114.082 301.777 113.089 296.791C112.683 294.737 112.435 292.718 112.367 290.789C112.266 287.721 114.172 284.98 117.015 284.1C121.831 282.622 126.468 283.513 126.501 283.525L127.099 283.694L127.415 284.224C128.261 285.645 128.893 287.202 129.288 288.86C130.258 292.899 130.066 297.783 128.724 303.356L128.555 304.055L127.911 304.371C127.02 304.811 125.994 305.115 124.854 305.285C124.381 305.352 123.907 305.386 123.433 305.386ZM123.095 286.322C121.651 286.322 119.778 286.469 117.917 287.044C116.405 287.507 115.379 289.007 115.435 290.688C115.492 292.447 115.717 294.298 116.101 296.193C116.879 300.084 120.613 302.803 124.415 302.25C124.956 302.171 125.452 302.047 125.915 301.889C126.986 297.106 127.111 292.966 126.31 289.571C126.05 288.465 125.655 287.405 125.137 286.424C124.685 286.378 123.975 286.322 123.106 286.322H123.095Z" fill="#262830"></path><path d="M127.378 181.565L124.084 155.451C122.685 144.328 117.384 134.018 109.16 126.404L117.192 117.74C127.446 127.238 134.056 140.109 135.805 153.973L139.099 180.087L127.378 181.565Z" fill="#262830"></path><path d="M101.153 235.983C102.045 232.802 101.312 229.711 99.5517 228.12C99.5292 228.086 99.5178 228.053 99.4953 228.03C96.8782 224.826 92.8963 222.469 92.8963 222.469L88.2712 226.767L85.9587 241.375C85.891 241.781 86.1956 242.165 86.6017 242.21C91.9374 242.808 95.299 241.984 95.299 241.984L95.7165 241.882C98.1869 241.646 100.229 239.356 101.165 235.983H101.153Z" fill="#262830"></path><path d="M90.4026 243.956C89.2407 243.956 87.9096 243.9 86.4318 243.731C85.8227 243.663 85.2588 243.347 84.8865 242.851C84.5143 242.366 84.3565 241.734 84.4467 241.136L86.8493 225.998L92.7039 220.561L93.6967 221.147C93.8659 221.249 97.9494 223.685 100.702 227.058L100.758 227.126C102.902 229.202 103.646 232.8 102.642 236.387C101.503 240.482 98.9646 243.11 95.8625 243.404L95.6595 243.471C95.558 243.494 93.6288 243.956 90.4252 243.956H90.4026ZM87.6163 240.764C92.0834 241.159 94.9035 240.493 94.9374 240.482L95.3662 240.381C97.3403 240.177 98.9081 238.35 99.6864 235.564C100.386 233.037 99.9236 230.51 98.5361 229.258L98.1976 228.829C96.6183 226.912 94.3509 225.242 93.0762 224.396L89.7033 227.521L87.605 240.753L87.6163 240.764Z" fill="#262830"></path><path d="M95.975 234.02C94.4183 239.615 89.8835 243.247 85.8451 242.119C81.8067 240.991 79.7985 235.543 81.3552 229.948C82.9119 224.352 87.4469 220.72 91.4853 221.848C95.5238 222.976 97.5317 228.425 95.975 234.02Z" fill="#B4CADD"></path><path d="M87.3126 243.856C86.6809 243.856 86.0492 243.777 85.4288 243.597C82.9922 242.92 81.0858 241.014 80.0593 238.239C79.1004 235.644 79.0329 232.553 79.8789 229.53C81.6612 223.123 87.0419 219.005 91.9038 220.359C96.7432 221.713 99.2361 228.019 97.4538 234.415C95.897 239.998 91.5992 243.834 87.3126 243.834V243.856ZM89.9975 223.191C87.0984 223.191 83.9961 226.202 82.8342 230.365C82.1687 232.768 82.2026 235.182 82.9472 237.178C83.624 239.006 84.7971 240.235 86.2636 240.641C89.4108 241.51 93.1899 238.295 94.4984 233.602C95.8069 228.91 94.2389 224.206 91.0804 223.326C90.7307 223.224 90.3698 223.179 90.0088 223.179L89.9975 223.191Z" fill="#262830"></path><path d="M86.0947 205.662C86.1399 205.075 50.4482 226.757 50.4482 226.757C50.3918 226.869 50.3691 226.982 50.3691 227.106C50.4255 228.449 50.8994 237.169 54.0805 242.865C54.0805 242.865 59.1455 253.943 73.6184 255.827C74.2501 255.906 74.7802 255.33 74.6674 254.698L72.3662 242.549C72.3098 242.256 72.4 241.952 72.6143 241.737C83.3646 230.795 85.6548 210.908 86.0722 205.662H86.0947Z" fill="#262830"></path><path d="M73.7541 257.372C73.6526 257.372 73.5513 257.372 73.4385 257.349C58.379 255.398 52.9868 244.129 52.7048 243.52C49.4221 237.563 48.9146 228.855 48.8469 227.163C48.8356 226.79 48.9032 226.441 49.0612 226.102L49.2529 225.685L49.6478 225.448C85.6214 203.586 85.8019 203.688 86.8848 204.353L87.6857 204.85L87.6179 205.797C87.1554 211.607 84.7867 231.325 73.9461 242.594L76.1909 254.428C76.3375 255.206 76.1006 256.018 75.5478 256.593C75.074 257.09 74.4197 257.372 73.7428 257.372H73.7541ZM55.6378 242.515C56.5064 244.174 61.3118 252.33 73.0323 254.191L70.8891 242.843C70.7425 242.053 70.9904 241.241 71.5545 240.666C80.5338 231.517 83.4104 215.882 84.3015 208.313C78.4695 211.629 62.9927 220.936 51.9603 227.648C52.0957 229.915 52.7385 237.27 55.4571 242.12L55.6491 242.515H55.6378Z" fill="#262830"></path><path d="M63.7021 234.89C63.6457 235.003 63.623 235.116 63.623 235.24C63.7246 237.609 65.1122 262.832 80.3409 254.18C95.8967 245.347 98.8523 219.842 99.3374 213.796C99.3825 213.209 98.7734 212.792 98.2432 213.04L67.5599 227.095C67.3907 227.174 67.2555 227.309 67.1766 227.467L63.6908 234.89H63.7021Z" fill="#F2F2F2"></path><path d="M74.532 257.52C73.0655 257.52 71.6891 257.17 70.4144 256.459C63.161 252.432 62.2136 238.128 62.1008 235.297C62.0895 234.925 62.1572 234.575 62.3151 234.236L65.8009 226.814C66.0378 226.318 66.4326 225.923 66.9176 225.697L97.6006 211.642C98.3564 211.303 99.225 211.382 99.9019 211.845C100.579 212.318 100.94 213.086 100.872 213.909C100.274 221.377 97.059 246.442 81.097 255.512C78.7394 256.843 76.5512 257.52 74.532 257.52ZM65.1691 235.364C65.4285 241.05 67.1206 251.112 71.9035 253.763C73.9679 254.902 76.4722 254.598 79.5856 252.838C93.5848 244.885 96.969 222.121 97.6909 214.969L68.4516 228.371L65.1691 235.364Z" fill="#262830"></path><path d="M51.8943 229.69L59.5877 234.134C61.8325 235.432 64.6075 235.409 66.841 234.078L98.009 215.454C99.9718 214.281 99.9831 211.438 98.009 210.253L90.7895 205.911C88.5447 204.557 85.7359 204.546 83.4798 205.877L51.883 224.456C49.8864 225.629 49.8977 228.528 51.9056 229.69H51.8943Z" fill="#B4CADD"></path><path d="M63.1626 236.616C61.6623 236.616 60.1618 236.233 58.8195 235.454L51.1263 231.01C49.705 230.186 48.8477 228.72 48.8477 227.073C48.8477 225.426 49.6824 223.948 51.1038 223.125L82.7005 204.546C85.453 202.933 88.8483 202.944 91.5894 204.591L98.8091 208.934C100.197 209.768 101.02 211.235 101.02 212.848C101.02 214.472 100.185 215.928 98.7978 216.762L67.6296 235.387C66.2534 236.21 64.7193 236.616 63.1739 236.616H63.1626ZM52.6603 228.347L60.3537 232.792C62.1135 233.807 64.302 233.796 66.0505 232.747L97.2184 214.123C97.8727 213.728 97.9518 213.096 97.9518 212.848C97.9518 212.6 97.884 211.957 97.2297 211.562L90.0103 207.219C88.2392 206.159 86.0394 206.147 84.2684 207.185L52.6716 225.764C52.0061 226.159 51.9385 226.802 51.9385 227.062C51.9385 227.321 52.0174 227.964 52.6829 228.347H52.6603Z" fill="#262830"></path><path d="M68.0461 226.361C65.79 226.361 63.9512 224.534 63.9512 222.266V209.993C63.9512 207.737 65.7788 205.898 68.0461 205.898C70.3022 205.898 72.1408 207.726 72.1408 209.993V222.266C72.1408 224.523 70.3135 226.361 68.0461 226.361Z" fill="#262830"></path><path d="M81.8059 218.647C79.5498 218.647 77.7109 216.819 77.7109 214.552V202.279C77.7109 200.022 79.5385 198.184 81.8059 198.184C84.062 198.184 85.9006 200.011 85.9006 202.279V214.552C85.9006 216.808 84.0733 218.647 81.8059 218.647Z" fill="#262830"></path><path d="M121.491 119.508C119.348 115.255 115.58 112.661 112.174 112.672C112.117 112.672 112.072 112.638 112.027 112.627C106.15 111.747 99.6071 113.09 99.6071 113.09L98.8398 122.159L110.527 139.971C110.854 140.467 111.542 140.58 112.016 140.242C118.276 135.707 121.051 131.578 121.051 131.578L121.401 131.071C123.815 128.42 123.759 124.009 121.491 119.508Z" fill="#B4CADD"></path><path d="M111.396 141.979C111.238 141.979 111.092 141.968 110.934 141.934C110.246 141.81 109.625 141.404 109.242 140.817L97.2617 122.554L98.1755 111.815L99.3036 111.589C99.5856 111.533 106.173 110.213 112.254 111.115L112.411 111.138C116.472 111.24 120.556 114.218 122.857 118.809C125.474 124.02 125.361 128.995 122.53 132.097L122.304 132.436C122.192 132.593 119.315 136.824 112.908 141.471C112.468 141.787 111.938 141.957 111.385 141.957L111.396 141.979ZM100.409 121.764L111.52 138.696C117.172 134.511 119.755 130.755 119.778 130.71L120.139 130.191C122.18 127.935 122.124 124.156 120.116 120.185C118.311 116.598 115.13 114.195 112.197 114.195H112.039L111.599 114.093C107.583 113.507 103.083 114.06 101.018 114.387L100.398 121.742L100.409 121.764Z" fill="#262830"></path><path d="M114.069 122.433C117.836 129.912 116.517 138.17 111.125 140.877C105.733 143.596 98.3213 139.726 94.5536 132.259C90.7859 124.78 92.1056 116.522 97.4977 113.815C102.89 111.096 110.301 114.966 114.069 122.433Z" fill="#B4CADD"></path><path d="M107.38 143.291C105.474 143.291 103.489 142.772 101.526 141.757C98.1078 139.986 95.1524 136.861 93.1896 132.958C91.2268 129.055 90.4821 124.813 91.08 121.023C91.7117 117.041 93.7536 113.995 96.8106 112.461C99.8676 110.927 103.522 111.096 107.11 112.957C110.528 114.729 113.483 117.865 115.446 121.756C117.409 125.659 118.153 129.901 117.555 133.691C116.924 137.673 114.882 140.719 111.825 142.253C110.449 142.941 108.948 143.291 107.392 143.291H107.38ZM101.244 114.48C100.161 114.48 99.1231 114.717 98.1868 115.191C96.0322 116.274 94.5769 118.519 94.1031 121.497C93.5955 124.667 94.2386 128.243 95.9194 131.57C97.6002 134.898 100.082 137.549 102.936 139.027C105.621 140.414 108.271 140.595 110.437 139.512C112.592 138.429 114.036 136.184 114.521 133.206C115.029 130.036 114.385 126.46 112.705 123.133C111.035 119.805 108.542 117.154 105.7 115.676C104.188 114.887 102.676 114.492 101.255 114.492L101.244 114.48Z" fill="#262830"></path><path d="M47.8837 147.791C47.8837 147.791 43.8003 154.83 48.8652 164.317C52.3848 170.904 51.0084 183.618 49.8465 190.747C49.1246 195.158 48.6507 199.591 48.3913 204.047L48.0867 209.315C48.0416 210.025 48.4252 210.702 49.0456 211.041L64.8835 219.614C65.0302 219.693 65.1993 219.659 65.3008 219.535C68.0758 216.196 102.662 174.593 103.474 173.578C104.32 172.529 95.1604 143.425 95.5213 142.376C95.8823 141.327 67.8389 130.994 67.8389 130.994L59.4011 132.472L52.4185 138.225L47.8837 147.791Z" fill="#262830"></path><path d="M65.0424 221.205C64.7378 221.205 64.4332 221.125 64.1511 220.979L48.3135 212.406C47.1629 211.785 46.4747 210.544 46.5537 209.236L46.8583 203.968C47.129 199.399 47.6254 194.864 48.3248 190.51C49.4416 183.663 50.8178 171.254 47.5014 165.05C42.301 155.304 46.0573 147.915 46.5085 147.103L51.1675 137.277L58.7367 131.051L67.9754 129.438L68.359 129.584C96.143 139.816 97.4853 141.09 97.0566 142.624C97.2597 143.922 98.8501 149.539 100.271 154.514C105.641 173.353 105.427 173.612 104.66 174.571C103.802 175.643 66.836 220.099 66.4637 220.55C66.1027 220.99 65.5725 221.227 65.0198 221.227L65.0424 221.205ZM49.2157 148.558C49.0578 148.84 45.6625 155.056 50.2199 163.595C53.7732 170.25 52.8031 182.174 51.3592 190.995C50.6598 195.248 50.186 199.681 49.9266 204.137L49.622 209.405C49.622 209.529 49.6782 209.642 49.7798 209.698L64.749 217.809C70.3103 211.12 98.6809 176.996 101.975 172.992C101.738 170.792 99.0984 161.553 97.3273 155.326C95.0825 147.43 94.2701 144.452 94.0445 143.11C91.5177 141.643 79.019 136.747 67.6934 132.574L60.0677 133.905L53.6605 139.173L49.2157 148.535V148.558Z" fill="#262830"></path><path d="M45.05 147.395C45.2644 148.839 47.2836 149.132 47.8815 147.79C48.8854 145.534 51.1867 142.668 56.387 142.668C64.9941 142.668 77.7409 157.198 69.5287 179.274C62.0949 199.297 64.5089 216.285 65.0278 219.286C65.0729 219.523 65.3326 219.624 65.5357 219.512L98.0572 200.459C102.851 197.65 106.551 193.262 108.435 188.027C110.297 182.861 112.643 175.608 114.561 167.26C118.78 148.918 116.49 130.046 111.267 121.292C106.608 113.486 93.2856 107.033 93.2856 107.033C93.2856 107.033 64.7459 116.092 51.9313 131.839C45.2645 140.029 44.6552 144.744 45.05 147.384V147.395Z" fill="#F2F2F2"></path><path d="M65.3569 221.103C65.0861 221.103 64.8154 221.047 64.5673 220.922C64.0145 220.663 63.6198 220.155 63.5183 219.546C62.9542 216.297 60.5403 199.061 68.0869 178.744C73.6482 163.775 68.7073 154.175 66.3158 150.746C63.5521 146.775 59.649 144.204 56.3776 144.204C52.9032 144.204 50.5117 145.614 49.2708 148.411C48.7294 149.641 47.4546 150.34 46.1122 150.16C44.7586 149.979 43.721 148.953 43.5179 147.622C42.8524 143.143 45.2099 137.672 50.7261 130.881C63.6761 114.953 91.618 105.951 92.8025 105.579L93.3891 105.398L93.9418 105.669C94.5058 105.94 107.738 112.415 112.577 120.526C117.71 129.122 120.541 148.062 116.051 167.622C114.055 176.319 111.596 183.821 109.881 188.57C107.896 194.097 103.97 198.801 98.8374 201.802L66.3158 220.855C66.0225 221.024 65.684 221.114 65.3569 221.114V221.103ZM56.3776 141.147C60.6868 141.147 65.4698 144.158 68.8426 149.009C74.4603 157.097 75.2386 168.332 70.9632 179.827C64.5785 196.996 65.5825 211.819 66.2819 217.301L97.2808 199.151C101.793 196.511 105.234 192.383 106.982 187.532C108.663 182.851 111.088 175.484 113.051 166.934C117.326 148.366 114.63 129.979 109.938 122.105C106.091 115.652 95.6565 110.012 93.1522 108.715C89.0461 110.103 64.4771 118.856 53.1177 132.833C48.2445 138.823 46.0447 143.651 46.5636 147.182C47.466 144.925 50.0831 141.147 56.3776 141.147Z" fill="#262830"></path><path d="M109.591 146.697C98.0512 156.353 84.289 161.982 81.4125 163.099C81.0854 163.223 80.8936 163.527 80.9162 163.877C81.0516 165.727 81.2547 171.683 78.7166 176.838C78.615 177.041 78.7955 177.278 79.0099 177.188C81.9879 176.026 95.6599 170.408 107.143 160.797L107.268 160.448C108.802 156.026 109.591 151.367 109.591 146.686V146.697Z" fill="#B4CADD"></path><path d="M78.9072 178.745C78.4221 178.745 77.9485 178.542 77.61 178.169C77.1137 177.617 77.0009 176.838 77.328 176.161C79.7195 171.322 79.494 165.626 79.3699 163.99C79.2909 162.963 79.8886 162.027 80.8361 161.666C83.4645 160.64 97.1704 155.056 108.586 145.524L111.102 143.414V146.697C111.102 151.57 110.29 156.375 108.688 160.967L108.428 161.711L108.101 161.982C96.3583 171.796 82.2463 177.572 79.539 178.621C79.3246 178.7 79.1102 178.745 78.8846 178.745H78.9072ZM82.472 164.328C82.5735 166.235 82.5847 170.397 81.2536 174.605C86.4088 172.371 96.8095 167.363 105.834 159.906C106.939 156.691 107.639 153.375 107.921 150.002C97.3959 158.068 85.8672 162.986 82.483 164.328H82.472Z" fill="#262830"></path><path d="M98.1951 192.788C102.719 184.587 105.223 172.98 105.471 171.807C105.471 171.773 105.437 171.75 105.403 171.773C94.055 179.759 83.993 184.17 80.1914 185.355C79.0521 185.704 78.1947 186.618 77.8224 187.757C75.5437 194.92 75.0473 202.388 74.9458 205.558C74.9232 206.246 75.6792 206.663 76.2545 206.302L98.1838 192.788H98.1951Z" fill="#B4CADD"></path><path d="M75.8032 207.96C75.3858 207.96 74.9684 207.847 74.5961 207.633C73.8403 207.193 73.3781 206.369 73.4119 205.501C73.5134 202.489 73.9983 194.705 76.356 187.283C76.8749 185.647 78.1383 184.372 79.7288 183.887C83.8801 182.601 93.9084 177.976 104.512 170.52L105.358 169.922L107.163 171.061L106.971 172.122C106.689 173.442 104.151 185.173 99.5375 193.543L99.3458 193.893L77.0668 207.61C76.6832 207.847 76.2432 207.971 75.8032 207.971V207.96ZM103.091 175.201C92.7239 182.06 84.038 185.76 80.6426 186.809C80.0109 187.001 79.5033 187.531 79.289 188.208C77.3262 194.39 76.7284 200.876 76.5366 204.327L97.0445 191.693C99.9662 186.267 102.008 179.398 103.091 175.201Z" fill="#262830"></path><path d="M80.1708 157.334L79.1328 154.446C79.2907 154.39 95.4444 148.501 107.312 137.875L109.365 140.165C97.0463 151.197 80.8589 157.086 80.1708 157.334Z" fill="#262830"></path><path d="M50.3789 198.463C50.3789 198.463 57.5648 202.389 62.1447 203.573L50.3789 198.463Z" fill="#262830"></path><path d="M62.7319 152.231C58.9642 144.752 51.5527 140.895 46.1606 143.613C44.9874 144.211 44.04 145.102 43.2617 146.151C38.1178 151.713 38.9525 158.188 38.9525 158.188C38.9525 158.188 39.3247 163.636 44.6266 168.633C48.6763 172.435 54.7001 171.882 57.3623 171.408C57.5654 171.374 57.7682 171.341 57.9713 171.296C58.0051 171.296 58.0616 171.284 58.0955 171.273C58.118 171.273 58.1181 171.25 58.1406 171.239C58.7047 171.093 59.2687 170.946 59.7988 170.675C65.1909 167.957 66.5106 159.699 62.7429 152.231H62.7319Z" fill="#B4CADD"></path><path d="M53.5711 173.305C50.3787 173.305 46.5545 172.572 43.5765 169.763C37.9024 164.416 37.4399 158.55 37.4286 158.302C37.3948 158.099 36.5715 151.139 42.1441 145.115C43.024 143.908 44.1858 142.893 45.4831 142.239C48.5401 140.704 52.1949 140.874 55.7821 142.735C59.2001 144.506 62.1557 147.631 64.1185 151.534C66.0813 155.437 66.8257 159.678 66.2278 163.48C65.5961 167.462 63.5543 170.507 60.4973 172.042C59.9896 172.301 59.4822 172.459 58.9971 172.594L58.952 172.651L58.3879 172.763C58.0834 172.831 57.8465 172.876 57.6096 172.91C56.5267 173.102 55.1392 173.271 53.5937 173.271L53.5711 173.305ZM49.905 144.28C48.822 144.28 47.7843 144.517 46.848 144.991C45.9681 145.431 45.2009 146.108 44.4903 147.078C39.8201 152.143 40.4405 157.772 40.4743 158.009C40.4856 158.133 40.9144 163.051 45.6748 167.529C49.2507 170.891 54.846 170.316 57.0908 169.91C57.2713 169.876 57.4178 169.853 57.5645 169.819L57.6435 169.797C58.2414 169.639 58.7037 169.515 59.0985 169.312C61.2531 168.229 62.6971 165.984 63.1822 163.006C63.6898 159.836 63.0467 156.26 61.3659 152.932C59.6851 149.605 57.2034 146.954 54.3494 145.476C52.8378 144.686 51.3263 144.291 49.905 144.291V144.28Z" fill="#262830"></path><path d="M52.2876 157.796C54.6113 162.398 53.7877 167.486 50.4713 169.167C47.1548 170.836 42.5749 168.456 40.2623 163.854C37.9386 159.251 38.7509 154.163 42.0786 152.483C45.3951 150.813 49.9751 153.193 52.2876 157.796Z" fill="#B4CADD"></path><path d="M48.2038 171.218C44.7294 171.218 40.9617 168.669 38.8861 164.54C37.6227 162.025 37.1377 159.283 37.5325 156.824C37.9611 154.173 39.326 152.143 41.379 151.116C45.44 149.063 50.9564 151.759 53.6524 157.106C56.3484 162.465 55.2317 168.488 51.1594 170.53C50.2344 170.992 49.2303 171.218 48.2038 171.218ZM44.3685 153.485C43.8045 153.485 43.2629 153.609 42.7665 153.857C41.6159 154.433 40.8376 155.662 40.5669 157.309C40.2736 159.137 40.6571 161.224 41.6272 163.164C43.5336 166.943 47.2561 169.064 49.783 167.8C52.2985 166.537 52.8174 162.273 50.911 158.494C49.3882 155.459 46.6811 153.497 44.3685 153.497V153.485Z" fill="#262830"></path><path d="M64.4149 244.141C60.5005 240.407 55.1535 239.674 52.4574 242.494C51.8708 243.115 51.4872 243.859 51.239 244.671C49.3213 249.172 51.239 252.929 51.239 252.929C51.239 252.929 52.6492 256.166 56.9583 258.05C60.2522 259.494 63.7942 257.847 65.3171 256.978C65.4299 256.911 65.5541 256.843 65.6669 256.776C65.6894 256.764 65.7233 256.742 65.7346 256.73C65.7346 256.73 65.7346 256.708 65.7572 256.696C66.073 256.482 66.3777 256.268 66.6484 255.997C69.3444 253.177 68.3515 247.864 64.4372 244.13L64.4149 244.141Z" fill="#B4CADD"></path><path d="M59.7318 260.16C58.6263 260.16 57.4644 259.968 56.3251 259.471C51.5196 257.373 49.8839 253.707 49.8162 253.549C49.7598 253.459 47.6391 249.184 49.8162 244.074C50.0982 243.126 50.6172 242.178 51.3279 241.434C54.5993 238.005 60.9389 238.726 65.4624 243.036C67.5832 245.066 69.0159 247.582 69.4897 250.142C69.9973 252.883 69.3655 255.343 67.7185 257.08C67.4816 257.328 67.2333 257.531 66.9964 257.712L66.9738 257.779L66.5001 258.073C66.3197 258.185 66.1731 258.264 66.0265 258.355C64.9097 258.998 62.473 260.171 59.7318 260.171V260.16ZM56.7991 242.325C55.5018 242.325 54.3511 242.72 53.5614 243.554C53.1892 243.949 52.9071 244.457 52.7041 245.111C51.0233 249.071 52.5799 252.207 52.5912 252.229C52.6814 252.41 53.8999 255.049 57.5548 256.64C60.2283 257.813 63.319 256.335 64.5261 255.636L64.8645 255.422C65.1014 255.264 65.3384 255.106 65.4963 254.937C66.4439 253.944 66.7934 252.432 66.4663 250.684C66.1053 248.755 64.9998 246.826 63.3303 245.235C61.3336 243.329 58.8634 242.302 56.7765 242.302L56.7991 242.325Z" fill="#262830"></path><path d="M59.2607 249.794C61.6747 252.096 62.2838 255.367 60.6256 257.104C58.9674 258.841 55.6621 258.39 53.2594 256.089C50.8454 253.788 50.2363 250.516 51.8945 248.779C53.5527 247.042 56.858 247.493 59.2607 249.794Z" fill="#B4CADD"></path><path d="M57.9175 259.698C57.6242 259.698 57.3196 259.675 57.0037 259.63C55.2891 259.393 53.5857 258.525 52.1869 257.193C50.7881 255.862 49.8404 254.193 49.5246 252.501C49.1749 250.651 49.6375 248.902 50.7655 247.718C53.0442 245.326 57.2292 245.755 60.3088 248.688C61.7076 250.019 62.644 251.689 62.9599 253.381C63.3096 255.231 62.8469 256.979 61.7189 258.164C60.7713 259.156 59.4178 259.698 57.9062 259.698H57.9175ZM54.5782 249.252C53.9352 249.252 53.3826 249.444 52.9991 249.838C52.3899 250.481 52.4577 251.429 52.548 251.937C52.7397 252.986 53.3825 254.091 54.3075 254.971C55.2325 255.851 56.3606 256.438 57.4209 256.584C57.9398 256.652 58.8875 256.686 59.5079 256.043C60.1171 255.4 60.0493 254.452 59.9591 253.933C59.7673 252.884 59.1245 251.779 58.1995 250.899C57.0715 249.827 55.7063 249.241 54.5782 249.241V249.252Z" fill="#262830"></path><path d="M81.3211 419.56L80.5651 416.661C80.3508 415.837 79.9333 415.014 79.3806 414.314L64.8514 400.721C64.4228 400.191 63.949 399.751 63.4526 399.469L55.9625 395.126C55.3082 394.743 54.6764 394.652 54.1688 394.855L49.7356 396.705L46.0469 403.237L47.4795 408.798L70.0968 429.002L79.7078 423.012C80.7794 422.369 81.5014 421.184 81.3773 419.943C81.366 419.819 81.3436 419.684 81.3098 419.56H81.3211Z" fill="#B4CADD"></path><path d="M69.9498 430.921L46.1252 409.634L44.4219 403.024L48.6747 395.489L53.5931 393.436C54.5406 393.041 55.6575 393.165 56.7404 393.785L64.2305 398.128C64.8848 398.512 65.5279 399.076 66.0694 399.764L80.4408 413.188C81.2755 414.214 81.7944 415.252 82.0651 416.267L82.8208 419.166C82.8772 419.37 82.9112 419.573 82.9337 419.776C83.1142 421.558 82.1665 423.351 80.5308 424.321L69.9724 430.909L69.9498 430.921ZM48.8666 407.976L70.277 427.097L78.9178 421.705C79.5608 421.321 79.9332 420.678 79.8655 420.091L79.8429 419.933L79.0872 417.034C78.9292 416.414 78.6021 415.782 78.1847 415.252L63.8133 401.828C63.3621 401.275 63.0124 400.971 62.6965 400.779L55.2061 396.436C54.9015 396.256 54.7437 396.267 54.7437 396.267L50.8407 397.903L47.716 403.441L48.8779 407.953L48.8666 407.976Z" fill="#262830"></path><path d="M64.8511 400.727C64.4224 400.197 63.9486 399.757 63.4523 399.475L55.9621 395.132C55.3079 394.748 54.6761 394.658 54.1684 394.861L49.7353 396.711L39.233 403.231C39.1202 403.299 39.1202 403.468 39.233 403.536L47.4792 408.804L57.8459 417.163C57.8459 417.163 57.8572 417.163 57.8685 417.163C60.26 415.832 64.727 422.645 65.1218 422.499C65.1556 422.487 66.295 422.205 66.8703 421.889L78.76 414.67C79.0872 414.478 79.166 414.049 78.9291 413.756L64.8398 400.727H64.8511Z" fill="#F2F2F2"></path><path d="M65.0664 424.066C64.3106 424.066 63.7353 423.4 62.8329 422.34C60.103 419.147 59.0088 418.516 58.5575 418.527L57.6889 419.012L56.9332 418.391L46.5213 409.999L37.6999 404.37L37.6211 403.366C37.6211 402.779 37.9256 402.238 38.422 401.922L49.1498 395.278L53.5716 393.428C54.5192 393.033 55.636 393.157 56.7189 393.777L64.2091 398.12C64.8408 398.481 65.4387 399.012 65.9689 399.655L80.1373 412.785C80.5209 413.27 80.6787 413.902 80.5658 414.511C80.453 415.12 80.0809 415.65 79.5507 415.977L67.6723 423.186C67.1647 423.468 66.5216 423.693 65.5966 423.942C65.4048 424.009 65.2243 424.043 65.0551 424.043L65.0664 424.066ZM58.5801 415.425C60.9603 415.425 63.4308 418.313 65.168 420.343C65.3034 420.501 65.4276 420.659 65.5404 420.783C65.9239 420.659 66.0816 420.58 66.1493 420.546L76.9336 413.992L63.6451 401.674C63.3518 401.29 63.0022 400.986 62.6864 400.794L55.196 396.451C54.8914 396.27 54.7336 396.282 54.7336 396.282L50.4582 398.064L41.8962 403.389L48.3263 407.494L58.1968 415.436C58.3321 415.413 58.4673 415.413 58.6027 415.413L58.5801 415.425Z" fill="#262830"></path><path d="M38.0582 405.233V408.381C38.0582 410.129 39.2877 412.25 40.7993 413.13L67.9967 428.967C69.8918 430.062 71.2117 428.663 70.58 426.238L69.824 423.339C69.6097 422.515 69.1925 421.691 68.6398 420.992L54.1103 407.399C53.6817 406.869 53.2079 406.429 52.7116 406.147L45.2214 401.804C44.5671 401.42 43.9353 401.33 43.4277 401.533L38.9945 403.383C38.3854 403.631 38.0469 404.308 38.0469 405.233H38.0582Z" fill="#262830"></path><path d="M69.2252 430.874C68.5822 430.874 67.8944 430.682 67.2288 430.298L40.0201 414.461C38.0234 413.31 36.5117 410.693 36.5117 408.392V405.244C36.5117 403.699 37.2226 402.47 38.407 401.973L42.8402 400.123C43.7878 399.728 44.9046 399.852 45.9875 400.473L53.4777 404.816C54.1319 405.199 54.7751 405.763 55.3165 406.452L69.6879 419.875C70.5227 420.902 71.0415 421.928 71.3122 422.955L72.068 425.854C72.5643 427.749 72.1695 429.407 71.0077 430.298C70.5 430.693 69.8908 430.885 69.2365 430.885L69.2252 430.874ZM39.6252 404.793C39.6252 404.793 39.5916 404.94 39.5916 405.233V408.38C39.5916 409.576 40.5278 411.201 41.5656 411.798L68.7741 427.636C69.0336 427.783 69.2027 427.817 69.2365 427.805C69.1688 427.805 69.3044 427.411 69.1013 426.621L68.3456 423.722C68.1877 423.102 67.8605 422.47 67.4431 421.94L53.0717 408.516C52.6205 407.963 52.2708 407.658 51.955 407.467L44.4645 403.124C44.16 402.943 44.0021 402.954 44.0021 402.954L39.6364 404.782L39.6252 404.793Z" fill="#262830"></path><path d="M54.8134 404.884C60.2957 405.075 64.898 402.955 65.0898 400.157C65.1349 399.548 64.9206 398.961 64.5709 398.409C63.048 395.07 59.0885 393.93 59.0885 393.93C59.0885 393.93 55.851 392.836 51.2937 393.84C47.808 394.607 46.1836 397.168 45.597 398.352C45.5519 398.442 45.5069 398.533 45.4618 398.623C45.4618 398.634 45.4392 398.668 45.4392 398.679C45.4392 398.679 45.4392 398.691 45.4392 398.702C45.3377 398.961 45.2475 399.221 45.2249 399.503C45.0332 402.3 49.331 404.714 54.8134 404.895V404.884Z" fill="#B4CADD"></path><path d="M55.5101 406.441C55.2619 406.441 55.0138 406.441 54.7544 406.43C50.6031 406.295 46.8578 404.918 44.9965 402.865C44.049 401.816 43.5978 400.621 43.6768 399.402C43.6881 399.222 43.722 399.053 43.7558 398.884L43.7107 398.793L44.0153 398.071C44.0942 397.891 44.1619 397.755 44.2295 397.62C44.8387 396.379 46.7789 393.266 50.9414 392.352C55.871 391.269 59.4132 392.442 59.5599 392.487C59.684 392.521 64.1622 393.841 65.9558 397.789C66.4183 398.489 66.6666 399.391 66.6102 400.282C66.3733 403.87 61.6467 406.453 55.4988 406.453L55.5101 406.441ZM46.8806 399.199C46.7903 399.459 46.7564 399.56 46.7451 399.605C46.7225 399.978 46.903 400.384 47.2752 400.801C48.5725 402.245 51.5505 403.249 54.8557 403.362C60.0447 403.542 63.4517 401.523 63.5532 400.068C63.5645 399.842 63.4743 399.56 63.2712 399.244C61.9739 396.436 58.6912 395.42 58.6574 395.42C58.5671 395.398 55.6568 394.461 51.607 395.353C48.8433 395.962 47.5121 397.925 46.9593 399.041L46.8806 399.21V399.199Z" fill="#262830"></path><path d="M55.0141 399.403C51.6299 399.29 48.9903 397.801 49.1031 396.075C49.2159 394.35 52.0584 393.052 55.4313 393.165C58.8155 393.278 61.4551 394.767 61.3423 396.493C61.2295 398.219 58.387 399.516 55.0141 399.403Z" fill="#B4CADD"></path><path d="M55.4315 400.948C55.2736 400.948 55.1158 400.948 54.9578 400.948C52.2054 400.858 49.7914 399.955 48.528 398.556C47.8399 397.789 47.5014 396.898 47.569 395.984C47.7495 393.367 51.145 391.472 55.488 391.641C58.2404 391.732 60.6431 392.634 61.9178 394.033C62.6059 394.8 62.9445 395.691 62.8768 396.605C62.7076 399.132 59.5376 400.959 55.4315 400.959V400.948ZM55.0595 397.868C58.0939 397.97 59.786 396.808 59.8085 396.39C59.8085 396.345 59.7635 396.233 59.6281 396.086C59.0528 395.454 57.5186 394.777 55.3753 394.71C52.3296 394.631 50.6599 395.77 50.626 396.187C50.626 396.233 50.6713 396.357 50.8067 396.492C51.382 397.124 52.9162 397.801 55.0595 397.88V397.868Z" fill="#262830"></path><path d="M157.848 201.746C148.406 201.746 139.494 197.651 131.959 189.563L140.6 181.509C151.982 193.714 164.165 190.342 172.388 185.356C178.615 181.588 183.928 178.745 189.106 176.41L191.452 175.35L196.292 186.123L193.945 187.183C189.208 189.315 184.301 191.943 178.502 195.463C171.565 199.659 164.582 201.746 157.848 201.746Z" fill="#262830"></path><path d="M217.998 179.805L216.734 180.403C214.523 181.463 211.433 181.463 208.105 180.504C207.744 180.403 207.586 179.974 207.778 179.658L210.756 174.807C211.128 173.905 210.282 172.439 208.703 171.581L201.776 167.802C200.818 167.283 199.825 167.125 199.171 167.396L190.8 170.837C190.383 171.006 190.135 171.333 190.09 171.773L186.604 177.436C186.491 177.628 186.491 177.853 186.604 178.034C187.157 178.902 188.951 181.203 189.853 182.399C190.101 182.738 190.609 182.693 190.8 182.32L192.436 179.184C192.718 179.748 193.226 180.312 193.858 180.752L195.335 181.779C195.425 181.846 195.527 181.903 195.617 181.959L200.118 184.734C203.22 186.641 206.48 187.825 209.436 188.186C209.504 188.186 209.571 188.22 209.639 188.254L214.174 190.893C214.445 191.051 214.783 190.961 214.941 190.702L218.72 184.498C219.284 183.415 219.543 182.151 219.464 180.73C219.431 180.166 218.483 179.568 217.987 179.793L217.998 179.805Z" fill="#F2F2F2"></path><path d="M214.467 192.518C214.106 192.518 213.745 192.428 213.407 192.225L209.053 189.687C205.861 189.258 202.51 188.006 199.329 186.043L192.989 181.994C192.922 181.949 192.854 181.892 192.786 181.847L192.177 183.02C191.85 183.663 191.218 184.081 190.496 184.148C189.786 184.193 189.075 183.9 188.646 183.325L187.834 182.253C186.875 180.99 185.781 179.557 185.33 178.858C184.89 178.181 184.89 177.324 185.33 176.624L188.658 171.21C188.861 170.397 189.436 169.743 190.237 169.416L198.607 165.975C199.701 165.524 201.168 165.705 202.533 166.449L209.459 170.217C211.726 171.446 212.911 173.669 212.2 175.383L212.087 175.598L209.786 179.332C212.279 179.862 214.535 179.76 216.092 179.016L217.355 178.418C218.043 178.091 218.878 178.159 219.657 178.621C220.469 179.095 220.976 179.85 221.021 180.651C221.123 182.321 220.818 183.855 220.108 185.22L216.272 191.515C215.878 192.169 215.189 192.53 214.479 192.53L214.467 192.518ZM196.441 180.663L200.942 183.438C203.773 185.186 206.865 186.337 209.628 186.675L209.933 186.709L210.407 186.935L214.129 189.1L217.423 183.709C217.728 183.111 217.919 182.355 217.953 181.531L217.412 181.791C214.896 182.998 211.444 183.066 207.688 181.983C207.056 181.802 206.548 181.339 206.312 180.719C206.075 180.11 206.143 179.411 206.481 178.847L209.346 174.188C209.267 174.041 208.861 173.387 207.992 172.913L201.066 169.134C200.412 168.773 199.904 168.75 199.78 168.807L191.613 172.259L188.274 177.696C188.77 178.384 189.549 179.411 190.181 180.245L192.516 175.778L193.858 178.486C194.016 178.813 194.366 179.185 194.783 179.478L196.261 180.505L195.663 181.949L196.475 180.64L196.441 180.663Z" fill="#262830"></path><path d="M191.973 187.896L196.486 190.682C201.573 193.83 207.146 195.014 210.959 193.773C214.264 192.701 216.035 190.118 215.821 186.678C215.787 186.114 214.839 185.516 214.343 185.741L213.079 186.339C210.18 187.727 205.77 187.332 201.291 185.279C199.734 184.568 198.618 183.102 198.843 182.064L199.137 180.721C199.351 179.785 200.603 179.526 202.013 180.146L204.281 181.128C205.24 181.545 206.164 181.579 206.706 181.206C207.811 180.473 206.932 178.522 205.036 177.495L198.11 173.716C197.151 173.197 196.159 173.039 195.504 173.31L187.134 176.751C186.717 176.92 186.469 177.247 186.424 177.687L186.265 179.436C186.232 179.74 186.311 180.101 186.491 180.462L188.781 185.087C189.063 185.651 189.571 186.215 190.203 186.655L191.691 187.693C191.77 187.749 191.861 187.806 191.951 187.862L191.973 187.896Z" fill="#B4CADD"></path><path d="M207.666 195.791C203.989 195.791 199.691 194.46 195.686 191.99L191.163 189.203C191.05 189.136 190.937 189.057 190.824 188.978L189.347 187.94C188.501 187.354 187.824 186.586 187.429 185.797L185.139 181.172C184.823 180.54 184.699 179.919 184.755 179.322L184.913 177.573C185.003 176.58 185.624 175.746 186.56 175.362L194.93 171.922C196.036 171.47 197.469 171.64 198.856 172.396L205.782 176.174C207.508 177.111 208.67 178.679 208.738 180.168C208.783 181.138 208.354 181.995 207.576 182.514C206.572 183.18 205.162 183.202 203.684 182.559L201.417 181.578C201.033 181.409 200.751 181.375 200.582 181.375L200.356 182.424C200.379 182.604 200.875 183.428 201.936 183.913C205.951 185.752 209.967 186.158 212.427 184.984L213.679 184.387C214.367 184.059 215.201 184.127 215.98 184.59C216.781 185.063 217.3 185.819 217.345 186.609C217.604 190.737 215.382 193.964 211.422 195.261C210.283 195.633 209.009 195.814 207.644 195.814L207.666 195.791ZM192.787 186.598L197.299 189.384C201.958 192.26 207.136 193.411 210.486 192.317C212.912 191.527 214.22 189.858 214.299 187.477L213.758 187.737C210.452 189.316 205.568 188.921 200.672 186.688C198.732 185.808 196.916 183.766 197.367 181.747L197.66 180.416C197.829 179.637 198.326 179.006 199.036 178.645C200.018 178.149 201.326 178.194 202.646 178.758L204.914 179.739C205.15 179.841 205.354 179.897 205.523 179.931C205.32 179.615 204.936 179.198 204.327 178.871L197.401 175.091C196.747 174.73 196.239 174.708 196.115 174.764L187.959 178.115L187.824 179.615L190.193 184.443C190.351 184.77 190.7 185.142 191.117 185.436L192.607 186.474L191.986 187.895L192.798 186.586L192.787 186.598Z" fill="#262830"></path><path d="M129.623 188.074C130.074 188.559 130.548 189.022 131.044 189.45C132.838 190.973 134.654 192.18 136.696 193.387C139.008 194.752 142.065 195.655 144.942 195.463C149.961 195.125 153.458 191.831 154.733 190.432C155.071 190.06 155.151 189.53 154.948 189.078C153.752 186.484 149.307 177.617 142.539 173.771C138.828 171.661 135.004 171.514 131.958 172.846C126.69 175.147 125.02 182.987 128.844 187.262L129.611 188.074H129.623Z" fill="#B4CADD"></path><path d="M144.153 197.019C141.401 197.019 138.457 196.196 135.93 194.707C133.482 193.263 131.722 192.045 130.053 190.612C129.511 190.149 128.992 189.642 128.507 189.123L127.74 188.311C125.586 185.897 124.762 182.411 125.507 178.948C126.251 175.507 128.44 172.698 131.35 171.435C135.016 169.833 139.37 170.194 143.307 172.439C150.459 176.511 155.096 185.716 156.348 188.446C156.81 189.461 156.63 190.657 155.874 191.481C154.475 193.015 150.617 196.624 145.045 197.008C144.751 197.03 144.447 197.042 144.142 197.042L144.153 197.019ZM136.144 173.522C134.903 173.522 133.685 173.759 132.568 174.244C130.56 175.124 129.037 177.12 128.496 179.602C127.954 182.095 128.507 184.577 129.985 186.235L130.729 187.025C131.147 187.465 131.576 187.893 132.027 188.288C133.561 189.597 135.185 190.725 137.475 192.067C139.731 193.398 142.472 194.086 144.841 193.928C149.139 193.635 152.23 190.871 153.471 189.54C152.208 186.833 148 178.643 141.784 175.101C139.946 174.052 138.005 173.522 136.144 173.522Z" fill="#262830"></path><path d="M151.474 182.828C149.308 179.546 146.285 175.902 142.551 173.77C141.253 173.037 139.945 172.552 138.648 172.27C138.557 172.326 135.388 174.751 133.594 178.44C132.658 180.369 133.222 182.681 134.824 184.091C135.873 185.005 137.294 186.111 139.133 187.25C142.844 189.551 147.864 188.66 150.357 185.062C150.842 184.362 151.237 183.618 151.474 182.828Z" fill="#F2F2F2"></path><path d="M143.578 190.026C141.773 190.026 139.956 189.541 138.332 188.548C136.674 187.522 135.162 186.405 133.82 185.243C131.654 183.348 130.988 180.268 132.218 177.764C134.102 173.895 137.407 171.233 137.836 170.962L138.366 170.635L138.975 170.77C140.475 171.097 141.931 171.661 143.307 172.44C146.657 174.346 149.838 177.561 152.76 181.983L153.155 182.581L152.952 183.269C152.692 184.16 152.241 185.051 151.632 185.931C149.793 188.582 146.714 190.026 143.589 190.026H143.578ZM139.032 173.94C138.174 174.707 136.211 176.602 134.982 179.106C134.361 180.37 134.722 181.938 135.85 182.93C137.057 183.991 138.445 185.006 139.957 185.943C143.014 187.838 147.12 187.048 149.105 184.183C149.376 183.788 149.601 183.404 149.771 183.032C147.266 179.388 144.525 176.659 141.795 175.102C140.904 174.594 139.979 174.211 139.032 173.94Z" fill="#262830"></path><path d="M33.0852 203.292L21.2969 202.513C23.3499 171.379 41.8728 156.76 42.6624 156.15L49.8705 165.502L46.2608 160.832L49.8931 165.491C49.2727 165.976 34.766 177.73 33.0739 203.303L33.0852 203.292Z" fill="#262830"></path><path d="M33.0961 217.539H21.2852V270.648H33.0961V217.539Z" fill="#262830"></path><path d="M34.3705 293.906L33.4567 292.846C31.8549 290.996 31.0429 288.006 31.0993 284.543C31.0993 284.171 31.4714 283.9 31.8324 284.002L37.2923 285.604C38.2624 285.728 39.4582 284.521 39.8756 282.772L41.6916 275.09C41.9398 274.03 41.8269 273.037 41.3983 272.473L35.8709 265.299C35.6002 264.938 35.2167 264.791 34.7768 264.859L28.3918 262.986C28.1775 262.93 27.9631 262.986 27.8165 263.144C27.1284 263.911 25.3799 266.235 24.4549 267.42C24.1955 267.747 24.376 268.232 24.7821 268.322L28.2453 269.078C27.7715 269.495 27.3654 270.127 27.1059 270.86L26.4968 272.552C26.4629 272.654 26.429 272.766 26.3951 272.868L24.895 277.944C23.8685 281.43 23.5864 284.904 24.0151 287.837C24.0151 287.905 24.0151 287.984 24.0038 288.052L22.6502 293.117C22.5712 293.41 22.7403 293.726 23.0448 293.805L30.0164 295.824C31.2121 296.083 32.498 296.004 33.8517 295.553C34.3931 295.373 34.7202 294.301 34.3592 293.884L34.3705 293.906Z" fill="#F2F2F2"></path><path d="M31.4153 297.527C30.84 297.527 30.2646 297.471 29.7006 297.347L22.6164 295.305C21.5222 294.989 20.8792 293.839 21.1725 292.744L22.4809 287.871C22.0522 284.69 22.3795 281.114 23.4399 277.527L25.6734 270.352C25.7072 270.273 25.7299 270.194 25.7637 270.116L24.4663 269.833C23.7556 269.676 23.1805 269.179 22.9323 268.491C22.6841 267.814 22.7969 267.059 23.2482 266.495L24.0603 265.434C25.0305 264.171 26.1245 262.738 26.6772 262.129C27.2187 261.531 28.0423 261.306 28.8207 261.531L34.9346 263.325C35.7694 263.325 36.5476 263.686 37.0778 264.374L42.6054 271.548C43.3387 272.496 43.5417 273.917 43.1808 275.451L41.3645 283.133C40.7666 285.649 38.9391 287.352 37.1004 287.127L36.8636 287.081L32.656 285.852C32.8026 288.401 33.4907 290.545 34.6188 291.853L35.5325 292.913C36.0289 293.489 36.1757 294.323 35.9388 295.192C35.6906 296.095 35.0925 296.783 34.348 297.042C33.3553 297.381 32.3741 297.55 31.4153 297.55V297.527ZM24.3872 292.609L30.445 294.369C31.1106 294.504 31.8776 294.493 32.6898 294.301L32.2949 293.838C30.4787 291.729 29.4974 288.413 29.5651 284.509C29.5651 283.844 29.8922 283.246 30.4224 282.851C30.9526 282.456 31.6409 282.332 32.2726 282.524L37.5066 284.058C37.6194 283.946 38.1496 283.382 38.3753 282.411L40.1913 274.729C40.3605 273.996 40.2479 273.511 40.169 273.398L34.7881 266.404L34.6865 266.427L28.5613 264.633C28.0311 265.288 27.2414 266.314 26.5985 267.149L31.5166 268.22L29.2605 270.228C28.9898 270.477 28.7192 270.905 28.55 271.379L27.9408 273.071L26.3952 272.868L27.873 273.308L26.3726 278.384C25.4251 281.577 25.1318 284.859 25.5379 287.623L25.583 287.939L25.493 288.458L24.3872 292.609Z" fill="#262830"></path><path d="M19.7277 270.917L18.2273 276.005C16.5353 281.747 16.8511 287.432 19.0508 290.782C20.9572 293.693 23.9129 294.719 27.173 293.614C27.7145 293.433 28.0415 292.362 27.6806 291.944L26.7668 290.884C24.6686 288.447 23.8901 284.093 24.6911 279.231C24.9731 277.539 26.09 276.072 27.1504 276.027L28.5153 275.96C29.4742 275.914 30.0494 277.054 29.8238 278.588L29.474 281.036C29.3273 282.074 29.5417 282.976 30.038 283.405C31.042 284.273 32.689 282.92 33.1853 280.81L35.0016 273.128C35.2498 272.068 35.137 271.075 34.7083 270.511L29.192 263.337C28.9213 262.976 28.5377 262.829 28.0978 262.897L26.3606 263.201C26.056 263.258 25.7403 263.427 25.4358 263.698L21.5663 267.127C21.0926 267.544 20.6867 268.176 20.4273 268.909L19.8181 270.624C19.7842 270.714 19.7503 270.816 19.7277 270.917Z" fill="#B4CADD"></path><path d="M24.6815 295.587C21.9291 295.587 19.4588 294.211 17.7667 291.639C15.3188 287.917 14.9354 281.757 16.7516 275.587L18.9851 268.412C19.3348 267.442 19.8874 266.585 20.553 265.998L24.4221 262.569C24.9297 262.118 25.5163 261.813 26.1029 261.712L27.8401 261.407C28.8215 261.238 29.7917 261.61 30.4121 262.422L35.9397 269.597C36.673 270.544 36.8758 271.966 36.5148 273.5L34.6988 281.182C34.2476 283.1 33.0406 284.623 31.6192 285.085C30.6942 285.378 29.7579 285.198 29.0472 284.577C28.1335 283.788 27.75 282.423 27.9756 280.832L28.3254 278.384C28.3818 277.978 28.3479 277.685 28.3028 277.527L27.2309 277.572C27.0617 277.64 26.3963 278.339 26.2158 279.49C25.5051 283.844 26.1594 287.826 27.9418 289.891L28.8555 290.951C29.3519 291.526 29.4984 292.361 29.2615 293.23C29.0133 294.132 28.4155 294.82 27.671 295.08C26.6558 295.418 25.6517 295.587 24.6928 295.587H24.6815ZM19.7295 270.928L21.2073 271.368L19.7069 276.456C18.1615 281.712 18.4097 287.003 20.3387 289.958C21.7375 292.09 23.689 292.914 26.0128 292.372L25.6179 291.91C23.2264 289.135 22.3241 284.318 23.1927 279.005C23.5424 276.896 25.0201 274.617 27.0957 274.515L28.4606 274.448C29.2728 274.402 29.9836 274.718 30.525 275.316C31.2583 276.128 31.5628 277.414 31.3598 278.836L31.01 281.284C30.9762 281.543 30.9762 281.757 30.9874 281.915C31.2356 281.644 31.5403 281.159 31.6983 280.483L33.5143 272.801C33.6835 272.067 33.5706 271.582 33.4917 271.469L28.1109 264.476L26.6333 264.735L22.5948 268.288C22.3241 268.537 22.0532 268.965 21.884 269.439L21.2751 271.142L19.7295 270.917V270.928Z" fill="#262830"></path><path d="M19.3004 206.751C19.2327 207.405 19.1875 208.071 19.1875 208.725C19.2101 211.083 19.492 213.249 19.9206 215.572C20.4057 218.212 21.7257 221.111 23.7562 223.164C27.2983 226.729 32.081 227.225 33.9761 227.27C34.4837 227.281 34.935 227 35.138 226.537C36.3225 223.931 40.1015 214.772 38.5674 207.135C37.7326 202.95 35.3298 199.971 32.3292 198.539C27.1402 196.068 20.1237 199.938 19.4018 205.634L19.2891 206.751H19.3004Z" fill="#B4CADD"></path><path d="M34.0091 228.805H33.9416C31.866 228.76 26.6093 228.208 22.6724 224.248C20.5517 222.116 19.0062 219.059 18.4083 215.855C17.8894 213.069 17.6636 210.937 17.6523 208.737C17.6523 208.015 17.6976 207.305 17.7653 206.594L17.8782 205.477C18.2843 202.262 20.3824 199.363 23.4846 197.66C26.5754 195.979 30.1287 195.776 32.994 197.141C36.6037 198.867 39.187 202.398 40.0782 206.831C41.6913 214.908 37.7768 224.44 36.5359 227.17C36.0847 228.162 35.092 228.794 34.0091 228.794V228.805ZM20.8222 206.91C20.7658 207.508 20.7206 208.117 20.7206 208.715C20.7432 210.723 20.9576 212.697 21.4314 215.303C21.9052 217.875 23.1799 220.413 24.8495 222.082C27.8952 225.139 32.0013 225.658 33.8174 225.726C35.0357 222.996 38.4651 214.445 37.0664 207.429C36.367 203.954 34.4041 201.213 31.6742 199.916C29.7001 198.968 27.1844 199.138 24.9621 200.356C22.7173 201.586 21.2172 203.627 20.9352 205.827L20.8222 206.91Z" fill="#262830"></path><path d="M37.5887 219.817C38.6491 216.027 39.4273 211.357 38.5812 207.138C38.288 205.672 37.7916 204.363 37.1599 203.212C37.0584 203.178 33.1552 202.378 29.1958 203.438C27.1202 203.991 25.7441 205.931 25.7441 208.074C25.7441 209.462 25.8343 211.266 26.184 213.399C26.8834 217.719 30.8428 220.911 35.1858 220.438C36.0318 220.347 36.8442 220.156 37.6 219.817H37.5887Z" fill="#F2F2F2"></path><path d="M34.3508 222.029C29.6694 222.029 25.428 218.452 24.661 213.647C24.3451 211.729 24.1983 209.846 24.2096 208.074C24.2209 205.198 26.1161 202.682 28.8121 201.961C32.9746 200.855 37.1934 201.611 37.6559 201.758L38.2312 201.949L38.5245 202.479C39.269 203.822 39.7994 205.3 40.1039 206.845C40.8597 210.624 40.5212 215.125 39.0885 220.235L38.8969 220.923L38.2425 221.216C37.3965 221.6 36.4266 221.848 35.3662 221.961C35.039 221.995 34.7005 222.017 34.3734 222.017L34.3508 222.029ZM33.6402 204.431C32.4445 204.431 31.0118 204.544 29.5904 204.927C28.2368 205.288 27.2778 206.585 27.2666 208.086C27.2666 209.699 27.4021 211.402 27.6841 213.162C28.2594 216.715 31.5307 219.287 35.0051 218.926C35.4789 218.87 35.9075 218.791 36.3136 218.667C37.4416 214.335 37.701 210.567 37.0806 207.454C36.8775 206.45 36.5619 205.503 36.1445 204.6C35.6143 204.533 34.7232 204.431 33.6402 204.431Z" fill="#262830"></path><path d="M61.3987 397.429L50.5131 392.838C50.7162 392.364 70.5133 345.166 69.8365 324.624C69.5658 316.525 66.0352 306.316 59.6053 295.103C52.3632 282.48 49.1706 268.312 50.3663 254.121L62.1321 255.114C61.1394 266.902 63.8014 278.69 69.8478 289.226C77.3381 302.289 81.3088 314.066 81.6359 324.241C82.3917 347.366 62.2447 395.398 61.3874 397.429H61.3987Z" fill="#262830"></path><path d="M65.0555 322.828C64.9878 323.539 64.9316 324.261 64.9429 324.972C64.9654 327.533 65.2699 329.879 65.7437 332.406C66.2739 335.271 67.6952 338.418 69.9062 340.64C73.7528 344.51 78.9307 345.04 80.995 345.085C81.5365 345.096 82.0327 344.792 82.2583 344.295C83.533 341.475 87.6392 331.526 85.9809 323.246C85.0785 318.7 82.4727 315.474 79.2126 313.917C73.5836 311.232 65.9693 315.44 65.191 321.622L65.0668 322.828H65.0555Z" fill="#B4CADD"></path><path d="M81.0289 346.631C81.0289 346.631 80.9838 346.631 80.9612 346.631C78.7164 346.575 73.0648 345.988 68.8233 341.724C66.5447 339.434 64.8751 336.14 64.2434 332.688C63.6906 329.665 63.4425 327.364 63.4199 324.995C63.4199 324.228 63.4652 323.449 63.5441 322.682L63.6681 321.475C64.108 318.035 66.3529 314.921 69.6807 313.094C72.9859 311.278 76.7987 311.075 79.8783 312.541C83.7588 314.391 86.5338 318.181 87.4927 322.953C89.2411 331.673 84.9995 341.983 83.6684 344.939C83.2059 345.965 82.1796 346.631 81.0402 346.631H81.0289ZM66.5898 322.987C66.5221 323.641 66.4769 324.307 66.4769 324.961C66.4995 327.15 66.7253 329.293 67.2442 332.135C67.7631 334.955 69.1617 337.731 70.9891 339.558C74.4409 343.032 79.1564 343.506 81.0289 343.551C82.1006 340.923 86.0373 331.368 84.4693 323.54C83.7022 319.727 81.5476 316.726 78.547 315.294C76.3586 314.256 73.5951 314.425 71.1472 315.767C68.6768 317.121 67.0183 319.377 66.7137 321.802L66.5898 322.976V322.987Z" fill="#262830"></path><path d="M84.8987 337.009C86.0494 332.903 86.8841 327.827 85.9703 323.259C85.6545 321.668 85.1132 320.247 84.4251 318.995C84.3123 318.961 80.0706 318.092 75.784 319.243C73.5392 319.841 72.0391 321.95 72.0391 324.274C72.0391 325.785 72.1405 327.737 72.5128 330.049C73.2686 334.731 77.5663 338.194 82.2816 337.686C83.1953 337.585 84.0866 337.382 84.8987 337.009Z" fill="#F2F2F2"></path><path d="M81.3797 339.265C76.3599 339.265 71.8252 335.43 70.9904 330.286C70.652 328.199 70.4941 326.168 70.4941 324.262C70.5054 321.194 72.5134 318.52 75.3787 317.753C79.8571 316.557 84.403 317.369 84.8881 317.527L85.4634 317.719L85.7567 318.25C86.5464 319.693 87.1217 321.273 87.4601 322.953C88.2723 327.037 87.9001 331.899 86.3546 337.426L86.1627 338.114L85.5086 338.408C84.5949 338.814 83.5684 339.084 82.429 339.209C82.0793 339.242 81.7181 339.265 81.3684 339.265H81.3797ZM80.6014 320.178C79.2929 320.178 77.7363 320.302 76.1796 320.72C74.6454 321.126 73.5737 322.592 73.5737 324.273C73.5737 326.022 73.7202 327.872 74.0248 329.801C74.6565 333.715 78.3003 336.569 82.1131 336.152C82.6546 336.095 83.162 335.994 83.6245 335.847C84.8767 331.109 85.1587 326.969 84.4706 323.551C84.245 322.423 83.8954 321.363 83.4216 320.37C82.835 320.291 81.8423 320.178 80.6127 320.178H80.6014Z" fill="#262830"></path><path d="M240.571 122.583L194.143 212.768L198.345 214.931L244.773 124.746L240.571 122.583Z" fill="white"></path><path d="M238.229 120.512L191.801 210.697L196.003 212.861L242.431 122.676L238.229 120.512Z" fill="#262830"></path><path d="M74.4875 98.5482C74.4875 98.5482 78.6049 101.199 74.4875 116.36C74.4875 116.36 71.532 128.498 84.358 134.059C84.358 134.059 89.31 135.198 93.3146 132.232C95.0744 130.923 95.4579 128.464 94.3636 126.569C93.0325 124.222 91.4759 119.823 91.6564 112.141C91.961 98.8525 85.7793 95.3105 85.7793 95.3105L74.4762 98.5482H74.4875Z" fill="#B4CADD"></path><path d="M86.6597 135.808C85.1481 135.808 84.0989 135.582 84.0087 135.559L83.738 135.469C69.8855 129.468 72.9537 116.134 72.9876 115.999C76.6199 102.609 73.5967 99.8002 73.5629 99.7776L72.0625 97.939L74.0479 97.0704L85.9715 93.6523L86.5355 93.9795C86.8175 94.1375 93.4957 98.1419 93.1799 112.175C93.0107 119.518 94.4545 123.636 95.6841 125.802C97.1844 128.43 96.5527 131.724 94.2063 133.461C91.6118 135.39 88.6902 135.808 86.6484 135.808H86.6597ZM84.8095 132.581C85.5202 132.706 89.3443 133.247 92.39 130.991C93.4842 130.179 93.755 128.6 93.0218 127.314C91.5892 124.809 89.9308 120.128 90.1113 112.085C90.3369 102.181 86.7724 98.1194 85.4639 96.98L76.9358 99.4278C77.9849 101.898 78.6393 106.896 75.9658 116.755C75.8755 117.15 73.5403 127.584 84.8095 132.57V132.581Z" fill="#262830"></path><path d="M77.0136 130.576C75.299 124.292 79.2357 113.858 79.4049 113.418L82.2702 114.512C82.2364 114.614 78.525 124.462 79.9689 129.775L77.0023 130.587L77.0136 130.576Z" fill="#262830"></path><path d="M71.9027 81.125C71.7673 82.4335 71.6772 83.7646 71.6885 85.0845C71.7336 89.7997 72.2977 94.1203 73.155 98.7905C74.1251 104.07 76.7645 109.879 80.8368 113.963C87.9323 121.092 97.487 122.073 101.277 122.164C102.281 122.186 103.184 121.622 103.601 120.708C105.959 115.508 113.516 97.1661 110.459 81.8923C108.79 73.5221 103.996 67.5547 97.9834 64.6895C87.6166 59.7486 73.5722 67.4981 72.1283 78.8915L71.9027 81.125Z" fill="#F2F2F2"></path><path d="M101.333 123.698C101.333 123.698 101.266 123.698 101.232 123.698C97.2723 123.596 87.2326 122.559 79.7423 115.046C75.7829 111.064 72.7485 105.085 71.643 99.0615C70.639 93.5792 70.1877 89.394 70.1426 85.0961C70.1426 83.8778 70.1989 82.5581 70.3681 80.9675L70.594 78.734C71.3385 72.8343 75.2302 67.4534 81.0059 64.2949C86.7477 61.1589 93.3353 60.7868 98.6259 63.3136C105.417 66.5511 110.267 73.2066 111.948 81.5993C115.084 97.3018 107.414 115.994 104.977 121.352C104.323 122.796 102.901 123.709 101.322 123.709L101.333 123.698ZM73.4254 81.2721C73.2787 82.7499 73.2109 83.9567 73.2221 85.0622C73.256 89.1796 73.696 93.1956 74.6661 98.4975C75.67 103.935 78.3773 109.304 81.9194 112.869C88.62 119.603 97.7123 120.528 101.3 120.618C101.694 120.618 102.033 120.415 102.191 120.066C104.526 114.922 111.903 96.9859 108.948 82.1859C107.459 74.7633 103.228 68.8861 97.3175 66.0773C92.9181 63.9791 87.3679 64.3173 82.4834 66.9908C77.5651 69.6756 74.2601 74.1993 73.6397 79.0838L73.4141 81.2834L73.4254 81.2721Z" fill="#262830"></path><path d="M108.478 107.263C110.599 99.6933 112.144 90.3417 110.463 81.9039C109.877 78.971 108.895 76.3537 107.62 74.0524C107.417 73.9848 99.6001 72.3944 91.6812 74.5038C87.5412 75.6093 84.7886 79.4898 84.7661 83.7764C84.7548 86.5627 84.9466 90.1611 85.6347 94.4251C87.0222 103.055 94.9524 109.451 103.638 108.503C105.319 108.323 106.966 107.939 108.466 107.263H108.478Z" fill="#262830"></path><path d="M101.99 110.127C93.3606 110.127 85.5433 103.527 84.122 94.6607C83.5128 90.893 83.2195 87.2157 83.2308 83.7638C83.2533 78.6989 86.5697 74.2769 91.285 73.0134C99.8694 70.7235 108.025 72.5624 108.093 72.5849L108.668 72.7766L108.962 73.3067C110.361 75.8561 111.364 78.6425 111.962 81.598C113.429 88.9078 112.752 97.6839 109.954 107.667L109.763 108.355L109.108 108.649C107.563 109.337 105.781 109.799 103.818 110.014C103.209 110.081 102.599 110.115 102.001 110.115L101.99 110.127ZM100.535 74.9424C98.0307 74.9424 95.0529 75.1794 92.0635 75.9804C88.6794 76.8828 86.3103 80.0864 86.2878 83.7751C86.2765 87.069 86.5585 90.5659 87.1451 94.1757C88.4198 102.072 95.7408 107.825 103.468 106.979C104.833 106.833 106.085 106.551 107.179 106.133C109.684 96.917 110.27 88.874 108.939 82.2072C108.454 79.8045 107.664 77.5145 106.593 75.4163C105.611 75.2584 103.366 74.9424 100.535 74.9424Z" fill="#262830"></path><path d="M96.7536 122.423L94.2832 120.596C95.8512 118.486 96.5392 114.651 96.6632 113.354L99.7202 113.658C99.6977 113.884 99.1338 119.208 96.7536 122.423Z" fill="#262830"></path><path d="M498.305 377.234C498.305 375.621 499.602 374.335 501.204 374.335C502.806 374.335 504.103 375.633 504.103 377.234C504.103 378.836 502.806 380.134 501.204 380.134C499.602 380.134 498.305 378.836 498.305 377.234ZM498.305 360.133C498.305 358.531 499.602 357.234 501.204 357.234C502.806 357.234 504.103 358.531 504.103 360.133C504.103 361.735 502.806 363.032 501.204 363.032C499.602 363.032 498.305 361.735 498.305 360.133ZM498.305 343.043C498.305 341.43 499.602 340.144 501.204 340.144C502.806 340.144 504.103 341.441 504.103 343.043C504.103 344.645 502.806 345.942 501.204 345.942C499.602 345.942 498.305 344.645 498.305 343.043ZM498.305 325.942C498.305 324.34 499.602 323.043 501.204 323.043C502.806 323.043 504.103 324.34 504.103 325.942C504.103 327.544 502.806 328.841 501.204 328.841C499.602 328.841 498.305 327.544 498.305 325.942Z" fill="#262830"></path><path d="M501.203 311.752C501.012 311.752 500.82 311.729 500.628 311.695C500.448 311.65 500.267 311.605 500.087 311.526C499.917 311.447 499.748 311.357 499.59 311.255C499.421 311.142 499.274 311.019 499.139 310.895C498.598 310.353 498.293 309.608 498.293 308.853C498.293 308.097 498.598 307.341 499.139 306.8C499.274 306.664 499.421 306.54 499.59 306.438C499.737 306.326 499.917 306.235 500.087 306.168C500.256 306.1 500.448 306.044 500.628 305.999C501 305.92 501.395 305.92 501.767 305.999C501.959 306.044 502.14 306.1 502.309 306.168C502.478 306.247 502.647 306.337 502.805 306.438C502.963 306.54 503.11 306.664 503.245 306.8C503.786 307.341 504.102 308.086 504.102 308.853C504.102 309.62 503.786 310.364 503.245 310.895C503.11 311.03 502.963 311.154 502.805 311.255C502.647 311.357 502.478 311.447 502.309 311.526C502.14 311.605 501.948 311.65 501.767 311.695C501.587 311.729 501.395 311.752 501.203 311.752Z" fill="#262830"></path><path d="M124.109 71.2835C124.109 69.6704 125.407 68.3846 127.009 68.3846C128.61 68.3846 129.907 69.6816 129.907 71.2835C129.907 72.8853 128.61 74.1826 127.009 74.1826C125.407 74.1826 124.109 72.8853 124.109 71.2835ZM124.109 54.1823C124.109 52.5805 125.407 51.2831 127.009 51.2831C128.61 51.2831 129.907 52.5805 129.907 54.1823C129.907 55.7841 128.61 57.0815 127.009 57.0815C125.407 57.0815 124.109 55.7841 124.109 54.1823ZM124.109 37.0921C124.109 35.479 125.407 34.1932 127.009 34.1932C128.61 34.1932 129.907 35.4903 129.907 37.0921C129.907 38.694 128.61 39.9913 127.009 39.9913C125.407 39.9913 124.109 38.694 124.109 37.0921ZM124.109 19.991C124.109 18.3891 125.407 17.0918 127.009 17.0918C128.61 17.0918 129.907 18.3891 129.907 19.991C129.907 21.5928 128.61 22.8901 127.009 22.8901C125.407 22.8901 124.109 21.5928 124.109 19.991Z" fill="#262830"></path><path d="M127.008 5.81212C126.816 5.81212 126.625 5.78978 126.433 5.75594C126.252 5.71082 126.072 5.66553 125.891 5.58657C125.722 5.50761 125.553 5.41737 125.395 5.31585C125.226 5.20304 125.079 5.07888 124.944 4.95479C124.402 4.41333 124.098 3.66902 124.098 2.91323C124.098 2.15743 124.402 1.40156 124.944 0.860096C125.079 0.72473 125.226 0.600567 125.395 0.499042C125.541 0.386237 125.722 0.296004 125.891 0.22832C126.061 0.160637 126.252 0.104345 126.433 0.0592228C126.805 -0.0197409 127.2 -0.0197409 127.572 0.0592228C127.764 0.104345 127.944 0.160637 128.114 0.22832C128.283 0.307284 128.452 0.397517 128.61 0.499042C128.768 0.600567 128.914 0.72473 129.05 0.860096C129.591 1.40156 129.907 2.14615 129.907 2.91323C129.907 3.6803 129.591 4.42461 129.05 4.95479C128.914 5.09016 128.768 5.21432 128.61 5.31585C128.452 5.41737 128.283 5.50761 128.114 5.58657C127.944 5.66553 127.753 5.71082 127.572 5.75594C127.392 5.78978 127.2 5.81212 127.008 5.81212Z" fill="#262830"></path><path d="M298.517 142.747L296.689 143.492L294.862 144.236L291.207 145.725L290.372 146.064L286.627 147.587H286.639C288.647 148.76 290.282 151.309 290.293 153.294L290.372 189.054L306.718 198.484L306.74 162.793C306.74 160.807 308.376 160.142 310.395 161.304L302.172 148.444L300.344 145.59L298.517 142.725V142.747ZM285.217 151.783L284.416 152.11L280.039 153.892L260.964 161.676L257.208 163.21L264.811 167.598C266.83 168.76 268.466 171.321 268.466 173.306V176.408L285.206 186.076V151.783H285.217ZM311.862 167.192V201.485L328.602 211.152V208.05C328.602 206.065 330.238 205.399 332.257 206.561L339.86 210.949L336.104 205.072L317.028 175.258L312.651 168.422L311.85 167.181L311.862 167.192ZM249.289 170.43L252.763 175.855L260.998 188.727L274.738 210.205V207.757C274.738 204.305 277.58 203.143 281.077 205.173L286.593 208.366V235.958L286.627 236.014L290.282 234.525V234.514L290.395 234.469L298.517 231.152H298.528L306.774 244.035H306.763V244.046L310.418 249.765L310.485 249.731V222.173L316.002 225.366C319.498 227.385 322.341 231.829 322.341 235.27V237.695L336.104 232.078L344.304 228.739L347.768 227.317L249.277 170.452L249.289 170.43Z" fill="#262830"></path><path opacity="0.2" d="M419.523 445.741L153.618 292.225C150.324 290.319 150.731 287.002 154.543 284.802L166.219 278.057C168.125 276.962 171.002 276.838 172.649 277.786L444.521 434.754C446.168 435.702 445.964 437.371 444.058 438.466L432.383 445.211C428.581 447.411 422.817 447.648 419.523 445.741Z" fill="#262830"></path><path d="M515.465 239.151L526.577 255.44C526.926 255.947 527.479 256.274 528.088 256.342C528.697 256.41 529.307 256.195 529.747 255.778L539.482 246.494C540.012 245.987 540.237 245.242 540.08 244.531C539.944 243.9 539.527 243.381 538.94 243.099C538.861 243.065 538.782 243.031 538.703 242.997L517.857 236.003C517.53 235.89 517.18 235.868 516.853 235.924C516.334 236.014 515.86 236.285 515.522 236.725C514.98 237.447 514.958 238.417 515.465 239.162V239.151ZM520.801 240.865L535.533 245.806L528.652 252.371L520.801 240.854V240.865Z" fill="#3454A8"></path><path d="M561.419 228.221C558.396 226.89 554.854 228.266 553.512 231.289C552.181 234.312 553.557 237.854 556.58 239.197C559.603 240.528 563.145 239.152 564.488 236.128C565.83 233.105 564.443 229.563 561.419 228.221ZM557.832 236.365C556.366 235.722 555.7 234.007 556.343 232.541C556.986 231.075 558.701 230.409 560.167 231.052C561.634 231.695 562.299 233.41 561.656 234.876C561.013 236.343 559.299 237.008 557.832 236.365Z" fill="#F96000"></path><path d="M45.8461 95.8086C42.8229 94.4775 39.2808 95.8537 37.9384 98.8769C36.596 101.9 37.9838 105.442 41.007 106.785C44.0301 108.116 47.5722 106.739 48.9146 103.716C50.2457 100.693 48.8693 97.151 45.8461 95.8086ZM42.2589 103.953C40.7925 103.31 40.1268 101.596 40.7698 100.129C41.4128 98.6627 43.1276 97.9971 44.5941 98.6401C46.0606 99.2831 46.7262 100.998 46.0832 102.464C45.4402 103.931 43.7254 104.596 42.2589 103.953Z" fill="#F96000"></path><path d="M309.615 40.5118C306.592 39.1807 303.049 40.5569 301.707 43.58C300.376 46.6032 301.752 50.1453 304.775 51.4877C307.799 52.8188 311.341 51.4426 312.683 48.4194C314.025 45.3962 312.638 41.8542 309.615 40.5118ZM306.028 48.6563C304.561 48.0133 303.896 46.2988 304.539 44.8323C305.181 43.3658 306.896 42.7002 308.363 43.3432C309.829 43.9862 310.495 45.701 309.852 47.1674C309.209 48.6339 307.494 49.2993 306.028 48.6563Z" fill="#F96000"></path><path d="M534.311 224.599C535.993 224.599 537.357 223.236 537.357 221.553C537.357 219.871 535.993 218.508 534.311 218.508C532.629 218.508 531.266 219.871 531.266 221.553C531.266 223.236 532.629 224.599 534.311 224.599Z" fill="#32C7E8"></path><path d="M317.682 67.7538C319.365 67.7538 320.728 66.3902 320.728 64.7081C320.728 63.026 319.365 61.6621 317.682 61.6621C316 61.6621 314.637 63.026 314.637 64.7081C314.637 66.3902 316 67.7538 317.682 67.7538Z" fill="#3454A8"></path><path d="M38.907 79.5074C40.5891 79.5074 41.9527 78.1438 41.9527 76.4617C41.9527 74.7796 40.5891 73.416 38.907 73.416C37.2249 73.416 35.8613 74.7796 35.8613 76.4617C35.8613 78.1438 37.2249 79.5074 38.907 79.5074Z" fill="#32C7E8"></path><path d="M11.5847 77.2418C13.2669 77.2418 14.6304 75.8782 14.6304 74.1961C14.6304 72.514 13.2669 71.1504 11.5847 71.1504C9.90263 71.1504 8.53906 72.514 8.53906 74.1961C8.53906 75.8782 9.90263 77.2418 11.5847 77.2418Z" fill="#3454A8"></path><path d="M146.917 374.054C145.992 374.054 145.236 373.299 145.236 372.374V350.286C145.236 349.361 145.992 348.605 146.917 348.605C147.842 348.605 148.598 349.361 148.598 350.286V372.374C148.598 373.299 147.842 374.054 146.917 374.054Z" fill="url(#paint1_linear_2750_38626)"></path><path d="M164.165 364.106C163.24 364.106 162.484 363.35 162.484 362.425V332.261C162.484 331.336 163.24 330.58 164.165 330.58C165.09 330.58 165.846 331.336 165.846 332.261V362.425C165.846 363.35 165.09 364.106 164.165 364.106Z" fill="url(#paint2_linear_2750_38626)"></path><path d="M181.413 354.145C180.488 354.145 179.732 353.389 179.732 352.464V306.157C179.732 305.232 180.488 304.477 181.413 304.477C182.338 304.477 183.094 305.232 183.094 306.157V352.464C183.094 353.389 182.338 354.145 181.413 354.145Z" fill="url(#paint3_linear_2750_38626)"></path><path d="M198.65 344.184C197.725 344.184 196.969 343.428 196.969 342.503V312.339C196.969 311.414 197.725 310.658 198.65 310.658C199.575 310.658 200.33 311.414 200.33 312.339V342.503C200.33 343.428 199.575 344.184 198.65 344.184Z" fill="url(#paint4_linear_2750_38626)"></path><path d="M215.9 334.234C214.975 334.234 214.219 333.478 214.219 332.553V310.466C214.219 309.541 214.975 308.785 215.9 308.785C216.825 308.785 217.58 309.541 217.58 310.466V332.553C217.58 333.478 216.825 334.234 215.9 334.234Z" fill="url(#paint5_linear_2750_38626)"></path><path d="M344.9 82.8591C343.975 82.8591 343.219 82.1033 343.219 81.1783V59.0909C343.219 58.1659 343.975 57.4102 344.9 57.4102C345.825 57.4102 346.58 58.1659 346.58 59.0909V81.1783C346.58 82.1033 345.825 82.8591 344.9 82.8591Z" fill="url(#paint6_linear_2750_38626)"></path><path d="M362.148 72.9085C361.223 72.9085 360.467 72.1527 360.467 71.2277V41.0636C360.467 40.1386 361.223 39.3828 362.148 39.3828C363.073 39.3828 363.828 40.1386 363.828 41.0636V71.2277C363.828 72.1527 363.073 72.9085 362.148 72.9085Z" fill="url(#paint7_linear_2750_38626)"></path><path d="M379.396 62.9494C378.471 62.9494 377.715 62.1936 377.715 61.2686V14.962C377.715 14.037 378.471 13.2812 379.396 13.2812C380.321 13.2812 381.076 14.037 381.076 14.962V61.2686C381.076 62.1936 380.321 62.9494 379.396 62.9494Z" fill="url(#paint8_linear_2750_38626)"></path><path d="M396.644 52.9983C395.719 52.9983 394.963 52.2425 394.963 51.3175V21.1534C394.963 20.2284 395.719 19.4727 396.644 19.4727C397.569 19.4727 398.325 20.2284 398.325 21.1534V51.3175C398.325 52.2425 397.569 52.9983 396.644 52.9983Z" fill="url(#paint9_linear_2750_38626)"></path><path d="M413.88 43.0385C412.955 43.0385 412.199 42.2827 412.199 41.3577V19.2706C412.199 18.3456 412.955 17.5898 413.88 17.5898C414.805 17.5898 415.561 18.3456 415.561 19.2706V41.3577C415.561 42.2827 414.805 43.0385 413.88 43.0385Z" fill="url(#paint10_linear_2750_38626)"></path><path d="M532.453 135.013C527.072 121.973 519.683 109.891 510.264 98.7686C500.845 87.6573 490.027 78.565 477.799 71.5034C466.011 64.7012 455.791 61.5203 447.093 61.8475L447.059 61.791L445.288 61.9375C445.029 61.9601 444.769 61.9714 444.51 62.0053L412.834 64.645C412.834 64.645 411.785 79.118 411.086 86.1458L390.465 87.8266L423.788 102.942L430.353 123.078L460.946 120.585C462.265 117.562 464.375 115.61 467.263 114.719C470.151 113.839 473.67 114.584 477.799 116.964C483.902 120.483 488.865 125.334 492.666 131.505C496.468 137.675 498.363 143.801 498.363 149.858C498.363 157.63 496.299 162.018 492.17 163.045C488.03 164.072 482.672 163.147 476.062 160.281L453.016 149.531L422.423 152.024C422.423 152.024 450.263 180.372 450.974 181.083C451.132 181.24 452.339 180.586 454.065 179.492L454.741 199.955L424.149 202.448L447.443 207.445L460.901 221.41L431.594 223.621C431.594 223.621 434.696 235.94 434.572 236.538C434.493 236.944 444.228 241.445 450.432 244.265C451.29 250.604 453.647 257.147 457.584 263.938C458.96 266.318 460.427 268.473 461.938 270.503C460.573 270.898 459.648 271.203 459.626 271.338C459.513 271.936 458.441 288.969 458.441 288.969L488.098 286.409L488.109 286.375C490.016 286.183 491.82 285.642 493.513 284.683C498.555 281.818 501.07 276.403 501.07 268.45C501.07 260.497 498.544 252.184 493.513 243.498C488.876 235.5 483.394 229.589 477.156 225.562L496.367 223.994L496.908 208.201L518.521 206.52C524.534 205.866 529.418 203.452 533.152 199.222C538.025 193.694 540.462 185.369 540.462 174.19C540.462 161.116 537.777 148.064 532.419 135.024L532.453 135.013Z" fill="white"></path><path d="M458.463 290.626C458.26 290.626 458.068 290.593 457.877 290.525C453.714 290.976 449.089 289.769 444.137 286.904C436.974 282.764 430.725 276.154 425.569 267.265C420.403 258.353 417.775 249.678 417.775 241.466C417.775 233.254 420.606 226.97 426.179 223.789C427.78 222.876 429.506 222.267 431.334 221.973C432.157 221.838 432.992 221.782 433.815 221.782H433.838L451.932 220.416L423.313 203.891C422.817 203.597 422.501 203.078 422.478 202.503L421.238 165.142C421.238 165.018 421.238 164.883 421.271 164.759L420.753 152.079C420.719 151.188 421.396 150.421 422.287 150.342L452.879 147.849C453.161 147.826 453.455 147.883 453.725 147.996L466.078 153.76C466.1 153.298 466.1 152.824 466.1 152.339C466.1 146.608 464.262 140.731 460.652 134.865C457.775 130.195 454.143 126.258 449.834 123.145L430.487 124.724C430.036 124.758 429.585 124.611 429.247 124.306L389.359 89.0548C388.885 88.6375 388.693 87.9832 388.851 87.374C392.303 74.3225 399.365 66.3134 409.867 63.5384C410.611 63.3467 411.412 63.1775 412.371 63.0083C412.473 62.9744 412.586 62.9631 412.698 62.9518H412.867C414.199 62.7262 415.699 62.602 417.222 62.5795L444.385 60.3121C444.498 60.3008 444.69 60.2895 444.87 60.2669L446.935 60.0978C447.126 60.0865 447.296 60.0979 447.465 60.143C456.41 59.9286 466.89 63.2564 478.644 70.036C490.963 77.154 502.04 86.4492 511.538 97.662C521.014 108.864 528.572 121.205 533.986 134.358C539.412 147.533 542.154 160.923 542.154 174.155C542.154 185.684 539.548 194.483 534.426 200.292C530.478 204.771 525.267 207.399 518.916 208.11C518.837 208.132 518.746 208.143 518.668 208.143L498.543 209.711L498.047 224.015C498.013 224.861 497.358 225.549 496.512 225.617L481.803 226.813C486.789 230.84 491.211 236.13 494.967 242.617C500.134 251.528 502.751 260.203 502.751 268.404C502.751 276.605 499.919 282.911 494.347 286.092C492.609 287.085 490.68 287.705 488.627 287.953C488.503 287.987 488.379 288.021 488.255 288.032L458.599 290.593C458.599 290.593 458.508 290.593 458.452 290.593L458.463 290.626ZM433.827 225.109C433.172 225.109 432.518 225.166 431.875 225.267C431.841 225.267 431.785 225.278 431.751 225.278C430.443 225.493 429.089 225.967 427.837 226.689C423.313 229.26 421.114 234.089 421.114 241.455C421.114 248.821 423.584 257.191 428.446 265.584C433.308 273.976 439.14 280.17 445.795 284.016C450.409 286.678 454.583 287.728 458.181 287.118C458.508 287.062 458.836 287.107 459.129 287.231L487.635 284.772C487.736 284.738 487.849 284.715 487.951 284.704C489.688 284.535 491.245 284.05 492.688 283.227C497.212 280.655 499.412 275.815 499.412 268.449C499.412 261.083 496.941 252.724 492.079 244.331C487.669 236.74 482.355 230.885 476.264 226.959C475.666 226.576 475.373 225.843 475.553 225.155C475.723 224.455 476.32 223.959 477.042 223.891L494.775 222.447L495.272 208.132C495.306 207.286 495.96 206.587 496.806 206.53L518.227 204.861C518.227 204.861 518.329 204.838 518.386 204.838C524.037 204.24 528.47 202.041 531.933 198.115C536.502 192.926 538.826 184.872 538.826 174.178C538.826 161.386 536.163 148.424 530.907 135.655C525.616 122.829 518.25 110.781 508.989 99.8504C499.727 88.9308 488.955 79.8837 476.963 72.9575C465.581 66.381 455.575 63.2113 447.149 63.5158C447.025 63.5158 446.89 63.5158 446.777 63.482L445.085 63.6172C444.961 63.6172 444.836 63.6285 444.712 63.6511L417.368 65.9298C415.891 65.9523 414.537 66.0652 413.251 66.2682H413.183C413.183 66.2682 413.127 66.2908 413.093 66.2908C412.157 66.4487 411.401 66.5953 410.702 66.7758C401.587 69.1785 395.574 75.8793 392.337 87.2388L430.916 121.329L450.161 119.76C450.544 119.738 450.939 119.839 451.255 120.054C456.151 123.483 460.268 127.871 463.494 133.094C467.442 139.501 469.439 145.965 469.439 152.316C469.439 153.794 469.36 155.193 469.214 156.467C469.146 156.997 468.841 157.471 468.368 157.731C467.894 157.99 467.33 158.013 466.845 157.787L452.699 151.188L424.148 153.512L424.622 165.007C424.622 165.142 424.622 165.277 424.588 165.413L425.784 201.42L458.294 220.191C458.926 220.563 459.253 221.297 459.084 222.007C458.915 222.718 458.317 223.248 457.583 223.304L434.03 225.075C434.03 225.075 433.939 225.075 433.894 225.075C433.872 225.075 433.849 225.075 433.815 225.075L433.827 225.109Z" fill="#262830"></path><path d="M444.985 226.926C438.048 222.921 432.058 222.357 427.027 225.222C421.984 228.088 419.469 233.491 419.469 241.444C419.469 249.397 421.984 257.722 427.027 266.408C432.058 275.094 438.048 281.445 444.985 285.449C451.923 289.454 457.913 290.018 462.955 287.153C467.997 284.287 470.513 278.873 470.513 270.92C470.513 262.967 467.997 254.653 462.955 245.967C457.913 237.281 451.923 230.93 444.985 226.926Z" fill="#F96000"></path><path d="M501.86 137.506C496.491 124.466 489.091 112.385 479.672 101.262C470.253 90.1508 459.434 81.0588 447.218 73.9972C432.508 65.503 420.201 62.5587 410.297 65.1758C400.381 67.7816 393.77 75.3283 390.477 87.8159L430.365 123.067C431.684 120.056 433.794 118.093 436.682 117.201C439.581 116.322 443.089 117.066 447.218 119.446C453.32 122.966 458.284 127.817 462.085 133.987C465.887 140.157 467.782 146.283 467.782 152.34C467.782 160.113 465.718 164.501 461.589 165.527C457.449 166.554 452.091 165.629 445.48 162.764L422.434 152.013L422.976 165.11L422.931 165.087L424.172 202.448L465.808 226.487L466.541 205.314C472.136 207.446 477.37 208.754 482.165 209.093C490.918 209.691 497.732 207.243 502.605 201.715C507.478 196.188 509.915 187.863 509.915 176.684C509.915 163.61 507.23 150.558 501.872 137.518L501.86 137.506Z" fill="#F96000"></path><path d="M456.15 290.625C452.45 290.625 448.434 289.385 444.136 286.903C436.973 282.763 430.724 276.153 425.569 267.252C420.402 258.341 417.785 249.666 417.785 241.454C417.785 233.242 420.617 226.958 426.189 223.777C431.739 220.607 438.338 221.171 445.806 225.48C452.969 229.609 459.218 236.231 464.385 245.131C469.551 254.043 472.169 262.717 472.169 270.918C472.169 279.119 469.337 285.425 463.764 288.606C461.407 289.949 458.858 290.625 456.139 290.625H456.15ZM433.849 225.086C431.694 225.086 429.709 225.616 427.847 226.676C423.324 229.248 421.124 234.076 421.124 241.442C421.124 248.809 423.595 257.179 428.456 265.571C433.318 273.964 439.15 280.157 445.806 284.004C452.247 287.726 457.583 288.279 462.117 285.707C466.641 283.135 468.841 278.296 468.841 270.93C468.841 263.563 466.37 255.205 461.508 246.812C456.635 238.419 450.803 232.215 444.148 228.38C440.346 226.18 436.939 225.097 433.849 225.097V225.086Z" fill="#262830"></path><path d="M465.807 228.143C465.514 228.143 465.232 228.064 464.972 227.917L423.336 203.878C422.839 203.585 422.524 203.066 422.501 202.491L421.26 165.129C421.26 165.005 421.26 164.87 421.294 164.746L420.775 152.067C420.753 151.48 421.034 150.927 421.52 150.612C422.005 150.284 422.625 150.239 423.155 150.487L446.201 161.238C452.394 163.922 457.448 164.825 461.193 163.9C464.453 163.088 466.111 159.196 466.111 152.338C466.111 146.607 464.273 140.73 460.663 134.864C457.031 128.964 452.225 124.26 446.382 120.887C442.693 118.755 439.591 118.056 437.166 118.789C434.74 119.534 433.015 121.147 431.887 123.73C431.672 124.215 431.232 124.576 430.713 124.689C430.194 124.813 429.653 124.666 429.247 124.305L389.359 89.0537C388.885 88.6363 388.693 87.982 388.851 87.3729C392.292 74.3213 399.365 66.3123 409.867 63.5373C420.166 60.8187 433.014 63.8531 448.051 72.5278C460.381 79.6458 471.447 88.941 480.946 100.154C490.432 111.355 497.979 123.696 503.405 136.849C508.831 150.025 511.572 163.415 511.572 176.647C511.572 188.176 508.966 196.975 503.845 202.784C498.633 208.695 491.312 211.357 482.04 210.726C477.855 210.432 473.173 209.394 468.119 207.635L467.465 226.507C467.443 227.094 467.115 227.624 466.608 227.906C466.36 228.041 466.078 228.12 465.796 228.12L465.807 228.143ZM425.806 201.453L464.228 223.642L464.859 205.243C464.882 204.702 465.153 204.205 465.604 203.912C466.055 203.619 466.619 203.551 467.127 203.743C472.722 205.875 477.821 207.105 482.277 207.42C490.545 207.984 496.794 205.762 501.352 200.607C505.92 195.418 508.244 187.364 508.244 176.67C508.244 163.878 505.582 150.916 500.325 138.147C495.046 125.321 487.669 113.273 478.407 102.342C469.157 91.4226 458.384 82.3755 446.393 75.4493C432.146 67.2258 420.144 64.3155 410.724 66.7972C401.61 69.2 395.586 75.9008 392.36 87.2602L429.89 120.425C431.413 118.045 433.522 116.432 436.207 115.619C439.557 114.593 443.539 115.405 448.063 118.011C454.38 121.655 459.58 126.742 463.517 133.127C467.465 139.534 469.462 145.998 469.462 152.349C469.462 160.933 466.958 165.919 462.005 167.16C457.471 168.277 451.853 167.352 444.837 164.306L424.227 154.695L424.656 165.051C424.656 165.186 424.656 165.321 424.622 165.457L425.817 201.464L425.806 201.453Z" fill="#262830"></path><path d="M457.472 221.658L439.344 223.971C439.344 223.971 446.405 227.761 447.229 228.325C448.052 228.889 459.671 240.846 459.671 240.846L490.873 239.256C490.873 239.256 486.181 233.187 485.368 232.397C484.556 231.608 477.156 225.527 477.156 225.527L465.774 226.452L496.367 223.959" fill="#262830"></path><path d="M466.944 207.048L466.268 225.232L495.225 223.992L496.928 208.188C496.928 208.188 488.49 208.842 488.152 208.842C487.813 208.842 477.153 208.052 477.153 208.052L466.933 207.037L466.944 207.048Z" fill="#262830"></path><path d="M431.379 121.17C431.379 121.17 440.257 114.673 444.149 117.921C448.04 121.17 448.04 122.016 448.04 122.016L433.725 123.189L431.379 121.17Z" fill="#262830"></path><path d="M426.484 152.496L453.027 149.518L467.568 156.297C467.568 156.297 469.384 159.997 465.481 162.761C461.589 165.525 460.642 167.736 453.061 165.243C445.481 162.75 426.484 152.484 426.484 152.484V152.496Z" fill="#262830"></path><defs><linearGradient id="paint0_linear_2750_38626" x1="309.91" y1="96.561" x2="303.175" y2="360.57" gradientUnits="userSpaceOnUse"><stop stop-color="#32C9EA"></stop><stop offset="1" stop-color="#4671CA"></stop></linearGradient><linearGradient id="paint1_linear_2750_38626" x1="146.026" y1="297.775" x2="147.03" y2="369.508" gradientUnits="userSpaceOnUse"><stop stop-color="#32C9EA"></stop><stop offset="1" stop-color="#4671CA"></stop></linearGradient><linearGradient id="paint2_linear_2750_38626" x1="163.466" y1="297.539" x2="164.47" y2="369.261" gradientUnits="userSpaceOnUse"><stop stop-color="#32C9EA"></stop><stop offset="1" stop-color="#4671CA"></stop></linearGradient><linearGradient id="paint3_linear_2750_38626" x1="180.962" y1="297.291" x2="181.966" y2="369.012" gradientUnits="userSpaceOnUse"><stop stop-color="#32C9EA"></stop><stop offset="1" stop-color="#4671CA"></stop></linearGradient><linearGradient id="paint4_linear_2750_38626" x1="198.232" y1="297.043" x2="199.236" y2="368.776" gradientUnits="userSpaceOnUse"><stop stop-color="#32C9EA"></stop><stop offset="1" stop-color="#4671CA"></stop></linearGradient><linearGradient id="paint5_linear_2750_38626" x1="215.55" y1="296.805" x2="216.565" y2="368.527" gradientUnits="userSpaceOnUse"><stop stop-color="#32C9EA"></stop><stop offset="1" stop-color="#4671CA"></stop></linearGradient><linearGradient id="paint6_linear_2750_38626" x1="344.008" y1="6.59127" x2="345.024" y2="78.313" gradientUnits="userSpaceOnUse"><stop stop-color="#32C9EA"></stop><stop offset="1" stop-color="#4671CA"></stop></linearGradient><linearGradient id="paint7_linear_2750_38626" x1="361.448" y1="6.34219" x2="362.463" y2="78.0637" gradientUnits="userSpaceOnUse"><stop stop-color="#32C9EA"></stop><stop offset="1" stop-color="#4671CA"></stop></linearGradient><linearGradient id="paint8_linear_2750_38626" x1="378.944" y1="6.09555" x2="379.948" y2="77.8172" gradientUnits="userSpaceOnUse"><stop stop-color="#32C9EA"></stop><stop offset="1" stop-color="#4671CA"></stop></linearGradient><linearGradient id="paint9_linear_2750_38626" x1="396.215" y1="5.8458" x2="397.219" y2="77.5786" gradientUnits="userSpaceOnUse"><stop stop-color="#32C9EA"></stop><stop offset="1" stop-color="#4671CA"></stop></linearGradient><linearGradient id="paint10_linear_2750_38626" x1="413.542" y1="5.61003" x2="414.546" y2="77.331" gradientUnits="userSpaceOnUse"><stop stop-color="#32C9EA"></stop><stop offset="1" stop-color="#4671CA"></stop></linearGradient></defs></svg> 