<?xml version="1.0" encoding="UTF-8"?> <svg xmlns="http://www.w3.org/2000/svg" width="53" height="50" viewBox="0 0 53 50" fill="none"><g id="Group 14013762"><g id="Group 14013761"><circle id="Ellipse 267" cx="35.7756" cy="12.5" r="11.6379" fill="#68CDED"></circle><g id="Group 14013760"><path id="Vector" d="M36.364 24.6753C43.167 24.6753 48.7017 19.1406 48.7017 12.3377C48.7017 5.53471 43.166 0 36.364 0C29.5621 0 24.0264 5.53471 24.0264 12.3377C24.0264 19.1406 29.5611 24.6753 36.364 24.6753ZM36.364 1.47553C42.3526 1.47553 47.2262 6.34811 47.2262 12.3377C47.2262 18.3272 42.3536 23.1998 36.364 23.1998C30.3745 23.1998 25.5019 18.3272 25.5019 12.3377C25.5019 6.3491 30.3745 1.47553 36.364 1.47553ZM32.5072 9.60371C32.5072 7.89536 33.8442 6.46698 35.6135 6.14771L35.5889 5.12014C35.5791 4.71246 35.9013 4.37452 36.309 4.36372C36.7197 4.35291 37.0546 4.67611 37.0654 5.0838L37.091 6.16932C38.0429 6.37562 39.2414 6.9287 39.7473 7.69986C39.9713 8.04075 39.877 8.49755 39.5361 8.72252C39.1962 8.9465 38.7384 8.85219 38.5135 8.51131C38.2325 8.08299 37.0468 7.55742 36.363 7.55742C35.0506 7.55742 33.9828 8.47496 33.9828 9.60469C33.9828 10.7344 35.0506 11.652 36.363 11.652C38.4899 11.652 40.2199 13.2326 40.2199 15.1748C40.2199 16.8821 38.8828 18.3095 37.1155 18.6308L37.1381 19.5562C37.148 19.9639 36.8257 20.3018 36.4181 20.3126H36.3994C35.9996 20.3126 35.6715 19.9943 35.6616 19.5925L35.639 18.6426C34.5702 18.4677 33.8934 17.9107 33.2469 17.3006C32.9503 17.0207 32.9365 16.553 33.2165 16.2573C33.4965 15.9607 33.9631 15.9469 34.2598 16.2269C35.0044 16.9283 35.4612 17.223 36.3621 17.223C37.6745 17.223 38.7424 16.3055 38.7424 15.1757C38.7424 14.046 37.6745 13.1285 36.3621 13.1285C34.2362 13.1285 32.5062 11.5478 32.5062 9.60567L32.5072 9.60371Z" fill="#3653A7"></path><path id="Vector_2" d="M52.3983 31.7612C52.0263 30.689 51.1396 29.9111 49.9028 29.5702C48.5728 29.2041 46.844 29.3226 44.7661 29.9208L35.3229 32.6411C35.2842 32.5644 35.2436 32.4896 35.1989 32.4148C34.6683 31.5165 33.8163 30.8755 32.7977 30.6094L26.081 28.8525C21.1715 25.4903 18.5431 26.4586 14.677 28.3135C12.5436 29.3362 10.3774 30.3442 8.1676 31.3659L7.99403 30.9794C7.48522 29.847 6.12938 29.3294 4.97291 29.8276L1.37455 31.3727C0.810197 31.6155 0.377759 32.0555 0.15658 32.6129C-0.0655896 33.1713 -0.0507121 33.7812 0.197245 34.3338L6.63224 48.6587C7.00914 49.4988 7.85319 49.9999 8.73591 49.9999C9.04338 49.9999 9.35482 49.9397 9.65336 49.8105L13.2517 48.2654C13.8161 48.0226 14.2485 47.5827 14.4707 47.0252C14.6919 46.4677 14.678 45.8559 14.43 45.3043L13.8022 43.9058L17.0137 42.3742C17.8746 41.9634 18.7395 41.8906 19.6589 42.1518L27.2078 44.2923C27.7632 44.4496 28.3365 44.5176 28.9187 44.5176C30.9291 44.5176 33.0348 43.7125 34.8052 43.0375C34.9609 42.9783 35.1136 42.92 35.2634 42.8627L49.4248 37.5077C51.7228 36.6394 53.1412 33.8997 52.3993 31.7612H52.3983ZM13.0811 46.4978C13.0038 46.6921 12.851 46.8455 12.6527 46.931L9.05429 48.4761C8.64963 48.65 8.17454 48.4693 7.99601 48.0721L1.56002 33.7482C1.47274 33.553 1.46679 33.3394 1.54415 33.1451C1.62151 32.9509 1.77426 32.7965 1.97262 32.711L5.57098 31.1659C5.67513 31.1212 5.78522 31.0998 5.89234 31.0998C6.2008 31.0998 6.49735 31.2756 6.62927 31.5699L13.0643 45.8947C13.1525 46.0909 13.1585 46.3046 13.0801 46.4988L13.0811 46.4978ZM48.8852 36.147L34.7239 41.5021C34.5731 41.5594 34.4184 41.6186 34.2607 41.6779C32.1877 42.4694 29.607 43.4551 27.6194 42.8919L20.0706 40.7524C18.798 40.392 17.5483 40.4969 16.3581 41.0641L13.1992 42.5704L8.76567 32.7023C10.9923 31.6718 13.1773 30.657 15.3296 29.6236C18.9349 27.894 21.0168 27.1306 25.3263 30.1199C25.3987 30.1694 25.479 30.2073 25.5643 30.2287L32.4089 32.0195C33.0417 32.1846 33.5733 32.5847 33.9036 33.1461C34.2349 33.7065 34.3232 34.3571 34.1545 34.9768C33.9859 35.5964 33.5773 36.1169 33.004 36.4403C32.4317 36.7647 31.7682 36.8521 31.1344 36.686L22.0383 34.3066C21.6406 34.2027 21.233 34.4339 21.1259 34.8233C21.0197 35.2128 21.2558 35.6119 21.6535 35.7168L30.7496 38.0962C31.7672 38.3623 32.8324 38.2234 33.7499 37.7038C34.6673 37.1842 35.3219 36.35 35.5937 35.3536C35.7117 34.9214 35.7514 34.4815 35.7157 34.0473L45.1797 31.3212C48.303 30.4219 50.4712 30.7619 50.981 32.2312C51.465 33.6239 50.4245 35.5634 48.8822 36.147H48.8852Z" fill="#252831"></path></g></g></g></svg> 