<?xml version="1.0" encoding="UTF-8"?> <svg xmlns="http://www.w3.org/2000/svg" width="79" height="100" viewBox="0 0 79 100" fill="none"><path d="M24.521 99.3962C16.8107 99.3962 10.54 93.1254 10.54 85.4151V34.8937C10.54 32.1992 9.36587 29.6486 7.3191 27.8987L3.51346 24.6419C3.3965 24.5429 3.33802 24.39 3.35152 24.237C3.36501 24.0841 3.45498 23.9491 3.58993 23.8726L21.3091 13.8547L42.3436 1.5786C42.4156 1.53812 42.4965 1.51562 42.582 1.51562C42.717 1.51562 42.8474 1.5741 42.9374 1.67757L47.4943 6.86421C50.1393 10.391 50.0358 12.7841 49.9369 15.1008C49.9144 15.5956 49.8964 16.0634 49.8964 16.5493V36.4591C49.8964 36.5176 49.8829 36.5761 49.8649 36.6346L24.9573 99.0993C24.8853 99.2792 24.7144 99.3962 24.521 99.3962Z" fill="#68CDED"></path><g style="mix-blend-mode:multiply" opacity="0.3"><path d="M10.5391 85.4086C10.5391 93.0423 16.6884 99.2591 24.2907 99.3851V62.0664L10.5391 70.3794V85.4086Z" fill="#3B53A7"></path></g><g style="mix-blend-mode:multiply" opacity="0.3"><path d="M24.2907 56.7694V49.6484L10.5391 57.9615V64.889L24.2907 56.7694Z" fill="#3B53A7"></path></g><path d="M24.1734 99.861C16.2023 99.861 9.72009 93.3789 9.72009 85.4077V34.8907C9.72009 32.3357 8.60449 29.9155 6.66568 28.2511L2.86004 24.9943C2.62613 24.7964 2.50467 24.495 2.53616 24.1891C2.56765 23.8832 2.74308 23.6133 3.00849 23.4603L20.7277 13.4424L41.7576 1.17079C42.149 0.945872 42.6438 1.02234 42.9407 1.36422L47.4976 6.55537C47.4976 6.55537 47.5291 6.59136 47.5426 6.61385C50.2641 10.2441 50.1606 12.7272 50.0572 15.1248C50.0392 15.5881 50.0167 16.0605 50.0167 16.5553V36.4652C50.0167 36.5866 49.9942 36.7036 49.9492 36.8161L25.0506 99.2718C24.9067 99.6316 24.5603 99.8655 24.1779 99.8655L24.1734 99.861ZM5.10924 24.4365L7.89374 26.8206C10.2554 28.8404 11.6049 31.7824 11.6049 34.8907V85.4122C11.6049 92.1328 16.904 97.6343 23.5437 97.9672L48.1364 36.2763V16.5463C48.1364 16.02 48.1589 15.5207 48.1769 15.0393C48.2758 12.6957 48.3568 10.8423 46.0581 7.76993L42.0365 3.19057L21.6678 15.0753L5.10924 24.4365Z" fill="#1E232E"></path><path d="M24.1749 99.3913C24.0894 99.3913 24.0084 99.3688 23.9365 99.3283C23.7925 99.2429 23.7026 99.0899 23.7026 98.9235V51.8928C23.6486 49.0408 25.178 46.4362 27.6971 45.0912L62.1683 26.6703C63.7158 25.8426 65.4431 25.4062 67.166 25.4062C69.0644 25.4062 70.9447 25.9326 72.6046 26.9267C75.8254 28.8565 77.7507 32.2528 77.7507 36.009V76.9039C77.7507 77.0703 77.6608 77.2277 77.5168 77.3132L39.15 99.4633C39.0781 99.5038 38.9971 99.5263 38.9161 99.5263C38.8352 99.5263 38.7542 99.5038 38.6822 99.4633C38.5383 99.3778 38.4483 99.2249 38.4438 99.0584L38.4123 91.4517L24.4133 99.3283C24.3413 99.3688 24.2649 99.3868 24.1839 99.3868L24.1749 99.3913Z" fill="white"></path><path d="M24.1735 99.7806C24.088 99.7806 24.0071 99.7581 23.9351 99.7176C23.7911 99.6322 23.7012 99.4792 23.7012 99.3128V51.0585C23.7012 48.6699 25.6445 46.7266 28.0331 46.7266C34.2904 46.7266 39.3781 51.8142 39.3781 58.0715V91.0357C39.3781 91.2067 39.2881 91.3641 39.1352 91.4451L24.4029 99.7131C24.3309 99.7536 24.2545 99.7716 24.1735 99.7716V99.7806Z" fill="#3B53A7"></path><path d="M24.1751 99.8614C24.0087 99.8614 23.8467 99.8164 23.6983 99.7309C23.4104 99.56 23.2305 99.2541 23.2305 98.9167V50.6715C23.2305 48.0219 25.3852 45.8672 28.0348 45.8672C34.5484 45.8672 39.852 51.1663 39.852 57.6845V90.6487C39.852 90.9906 39.6676 91.301 39.3707 91.4719L24.6385 99.7399C24.4945 99.8209 24.3371 99.8614 24.1796 99.8614H24.1751ZM28.0348 47.752C26.4243 47.752 25.1153 49.061 25.1153 50.6715V97.3108L37.9672 90.0999V57.6845C37.9672 52.2099 33.5138 47.752 28.0348 47.752Z" fill="#1E232E"></path><path d="M24.1747 99.8593C24.0083 99.8593 23.8463 99.8143 23.6979 99.7288C23.41 99.5579 23.23 99.252 23.23 98.9146V51.8929C23.1716 48.879 24.7955 46.108 27.472 44.6775L61.9432 26.2566C65.4025 24.4077 69.478 24.5067 72.8428 26.5265C76.2076 28.5418 78.2184 32.091 78.2184 36.0136V76.9085C78.2184 77.2459 78.0385 77.5563 77.7461 77.7227L39.3793 99.8728C39.0869 100.039 38.7315 100.039 38.4391 99.8728C38.1467 99.7063 37.9668 99.396 37.9668 99.0631L37.9398 92.2525L24.638 99.7378C24.4941 99.8188 24.3366 99.8593 24.1747 99.8593ZM62.8339 27.9165L28.3627 46.3374C26.3159 47.4305 25.0744 49.5538 25.1194 51.8749V97.3087L38.4076 89.8279C38.7 89.6659 39.0554 89.6659 39.3433 89.8324C39.6312 89.9988 39.8111 90.3092 39.8111 90.6421L39.8381 97.4302L76.3336 76.3597V36.0091C76.3336 32.7523 74.6647 29.8103 71.8757 28.1369C69.0822 26.4635 65.7039 26.3825 62.8339 27.9165Z" fill="#1E232E"></path><path d="M45.9194 58.5893C45.5956 58.5893 45.2807 58.4228 45.1052 58.1259C44.8398 57.6761 44.9928 57.1003 45.4381 56.8349L70.4357 42.7009C70.8855 42.4355 71.4613 42.5885 71.7267 43.0338C71.9921 43.4837 71.8392 44.0594 71.3938 44.3249L46.3963 58.4588C46.2478 58.5488 46.0814 58.5893 45.9194 58.5893Z" fill="#1E232E"></path><path d="M45.9194 64.9406C45.5956 64.9406 45.2807 64.7741 45.1052 64.4772C44.8398 64.0274 44.9928 63.4516 45.4381 63.1862L70.4357 49.0523C70.8855 48.7868 71.4613 48.9398 71.7267 49.3851C71.9921 49.835 71.8392 50.4108 71.3938 50.6762L46.3963 64.8101C46.2478 64.9001 46.0814 64.9406 45.9194 64.9406Z" fill="#1E232E"></path><path d="M45.9194 71.2924C45.5956 71.2924 45.2807 71.1259 45.1052 70.829C44.8398 70.3792 44.9928 69.8034 45.4381 69.538L70.4357 55.4041C70.8855 55.1387 71.4613 55.2916 71.7267 55.7369C71.9921 56.1868 71.8392 56.7626 71.3938 57.028L46.3963 71.1619C46.2478 71.2519 46.0814 71.2924 45.9194 71.2924Z" fill="#1E232E"></path><path d="M45.9194 77.6442C45.5956 77.6442 45.2807 77.4778 45.1052 77.1809C44.8398 76.731 44.9928 76.1552 45.4381 75.8898L70.4357 61.7559C70.8855 61.4905 71.4613 61.6434 71.7267 62.0887C71.9921 62.5386 71.8392 63.1144 71.3938 63.3798L46.3963 77.5137C46.2478 77.6037 46.0814 77.6442 45.9194 77.6442Z" fill="#1E232E"></path><path d="M46.7026 84.2628C46.3788 84.2628 46.0639 84.0964 45.8884 83.7995C45.623 83.3497 45.776 82.7739 46.2213 82.5085L66.0862 71.3884C66.5361 71.123 67.1119 71.276 67.3773 71.7213C67.6427 72.1712 67.4897 72.7469 67.0444 73.0124L47.1795 84.1324C47.031 84.2224 46.8646 84.2628 46.7026 84.2628Z" fill="#1E232E"></path><g style="mix-blend-mode:multiply" opacity="0.3"><path d="M50.0178 16.5447C50.0178 16.0543 50.0403 15.582 50.0583 15.1142C50.1618 12.7165 50.2652 10.2334 47.5437 6.6032C47.5302 6.58521 47.5122 6.56722 47.4987 6.54472L44.5163 3.14844C40.8636 4.47097 37.0894 8.32159 34.7368 13.6117C31.2415 21.4839 32.2267 29.563 36.9365 31.6548C40.9356 33.4316 46.3381 30.3142 50.0178 24.5158V16.5402V16.5447Z" fill="#3B53A7"></path></g><path d="M42.7487 22.9921C41.885 16.222 45.6232 7.3602 51.0932 3.19918C53.1265 1.65173 55.1148 0.972477 56.8512 1.07594L53.4864 0.761053C53.3064 0.734062 53.122 0.720567 52.9376 0.71157H52.8791H52.8746C51.1652 0.644094 49.2264 1.32785 47.2381 2.83481C41.7681 6.99583 38.0299 15.8577 38.8936 22.6277C39.3389 26.132 40.9314 28.3857 43.1221 29.1684H43.1401C43.8508 29.4248 44.6245 29.5238 45.4477 29.4563L47.7419 29.7397C45.1598 29.2359 43.2435 26.8877 42.7487 22.9831V22.9921Z" fill="white"></path><g style="mix-blend-mode:multiply" opacity="0.3"><path d="M42.6852 19.4596L38.8616 18.7578C38.7761 19.9094 38.7536 21.5558 38.8931 22.6264C39.3384 26.1307 40.9309 28.3844 43.1216 29.1671H43.1396C43.8503 29.4235 44.624 29.5225 45.4473 29.455L47.7414 29.7384C45.1594 29.2346 43.243 26.8864 42.7482 22.9818C42.6043 21.8527 42.5908 20.6651 42.6897 19.4506L42.6852 19.4596Z" fill="#1E232E"></path></g><g style="mix-blend-mode:multiply" opacity="0.3"><path d="M39.1094 17.0071L42.8925 17.7719L44.0351 13.5389L40.207 12.6797L39.1094 17.0071Z" fill="#1E232E"></path></g><g style="mix-blend-mode:multiply" opacity="0.3"><path d="M56.9459 6.24219C56.9459 6.24219 61.2779 11.0285 58.8397 16.7144C56.3971 22.3959 54.6922 24.5551 50.7471 25.5943C50.7471 25.5943 49.7485 25.4278 49.9509 25.2344C50.1533 25.041 55.7808 17.5781 56.5546 13.633C57.3283 9.68796 56.9414 6.24219 56.9414 6.24219H56.9459Z" fill="white"></path></g><g style="mix-blend-mode:multiply" opacity="0.3"><path d="M56.9459 6.24219C56.9459 6.24219 61.2779 11.0285 58.8397 16.7144C56.3971 22.3959 54.6922 24.5551 50.7471 25.5943C50.7471 25.5943 49.7485 25.4278 49.9509 25.2344C50.1533 25.041 55.7808 17.5781 56.5546 13.633C57.3283 9.68796 56.9414 6.24219 56.9414 6.24219H56.9459Z" fill="#3B53A7"></path></g><path d="M48.7327 26.9719C48.5213 26.9719 48.3098 26.8774 48.1704 26.693C47.9365 26.3826 47.995 25.9373 48.3053 25.7033C53.8339 21.4973 57.3741 12.4691 56.0426 5.98689C55.9661 5.60452 56.209 5.23116 56.5914 5.15468C56.9738 5.07821 57.3471 5.32112 57.4236 5.70349C58.8541 12.658 55.0709 22.334 49.16 26.8324C49.0341 26.9314 48.8811 26.9764 48.7327 26.9764V26.9719Z" fill="#1E232E"></path><path d="M50.6893 3.25358C45.2192 7.41459 41.4811 16.2764 42.3448 23.0465C43.2085 29.8166 48.3411 31.9308 53.8112 27.7698C59.2812 23.6088 63.0194 14.747 62.1557 7.97689C61.292 1.20681 56.1593 -0.907435 50.6893 3.25358ZM59.0608 10.3296C59.2677 11.9625 59.0878 13.7708 58.602 15.5567L47.7473 11.0853C48.6875 9.48835 49.8616 8.08485 51.1796 7.08171C54.9403 4.22073 58.4715 5.67371 59.0608 10.3296ZM45.4397 20.6894C45.2327 19.0564 45.4127 17.2481 45.8985 15.4622L56.7531 19.9336C55.813 21.5306 54.6389 22.934 53.3208 23.9372C49.5602 26.7982 46.0289 25.3452 45.4397 20.6894Z" fill="#FF6D00"></path><path d="M48.8131 30.5589C47.9899 30.5589 47.1982 30.4059 46.4514 30.091C44.0583 29.0879 42.4973 26.6003 42.0475 23.0825C41.1568 16.101 45.0254 6.9288 50.6664 2.63733C53.5364 0.455609 56.4469 -0.187661 58.858 0.819979C61.2511 1.82312 62.8121 4.31073 63.2619 7.82848C64.1526 14.81 60.284 23.9822 54.643 28.2737C52.6592 29.7806 50.6574 30.5544 48.8131 30.5544V30.5589ZM56.4963 1.77364C54.9624 1.77364 53.253 2.4484 51.5211 3.76643C46.2355 7.78349 42.6188 16.3709 43.451 22.9071C43.8334 25.903 45.0929 27.9948 47.0002 28.791C48.93 29.6007 51.3412 29.0204 53.7928 27.1536C59.0784 23.1365 62.6951 14.5491 61.8629 8.01291C61.4806 5.01698 60.221 2.92523 58.3137 2.12901C57.7469 1.8906 57.1351 1.77364 56.4963 1.77364ZM50.0142 26.065C49.4204 26.065 48.8446 25.9525 48.3048 25.7276C46.5864 25.0078 45.4618 23.231 45.1424 20.7344C44.931 19.07 45.0974 17.1671 45.6192 15.2328C45.6732 15.0394 45.8082 14.873 45.9881 14.783C46.168 14.693 46.3794 14.6885 46.5684 14.765L57.423 19.2364C57.6119 19.3129 57.7604 19.4703 57.8234 19.6637C57.8908 19.8572 57.8683 20.0686 57.7604 20.2485C56.7437 21.9759 55.4932 23.4334 54.1482 24.4545C52.7447 25.5207 51.3232 26.0695 50.0097 26.0695L50.0142 26.065ZM46.7933 16.3799C46.4694 17.8599 46.384 19.2904 46.5459 20.5544C46.7978 22.5337 47.6165 23.9057 48.8536 24.423C50.1041 24.9449 51.6831 24.558 53.3025 23.3254C54.3236 22.5517 55.2863 21.4856 56.123 20.217L46.7978 16.3754L46.7933 16.3799ZM59.0019 16.218C58.912 16.218 58.8175 16.2 58.732 16.164L47.8774 11.6926C47.6885 11.6161 47.54 11.4587 47.4771 11.2652C47.4096 11.0718 47.4321 10.8604 47.54 10.6805C48.5567 8.95307 49.8072 7.49559 51.1522 6.47446C53.19 4.92251 55.2683 4.47267 57.0047 5.19692C58.723 5.91666 59.8476 7.69352 60.167 10.1901C60.3785 11.8545 60.212 13.7574 59.6902 15.6917C59.6362 15.8851 59.5013 16.0515 59.3213 16.1415C59.2224 16.191 59.1144 16.2135 59.0109 16.2135L59.0019 16.218ZM49.1864 10.7074L58.5116 14.5491C58.8355 13.0691 58.921 11.6386 58.759 10.3746C58.5071 8.39527 57.6884 7.02326 56.4514 6.50595C55.2008 5.98413 53.6219 6.371 52.0024 7.60356C50.9813 8.37728 50.0187 9.4434 49.182 10.7119L49.1864 10.7074Z" fill="#1E232E"></path><path d="M47.7376 30.456C47.7106 30.456 47.6791 30.456 47.6522 30.4515L45.358 30.1681C41.4444 29.5923 38.7048 26.7403 38.192 22.7232C37.3013 15.7417 41.17 6.5695 46.8109 2.27803C48.8352 0.735083 50.918 -0.0431391 52.8298 0.0018448C52.8658 0.0018448 52.9018 0.0018448 52.9423 0.0018448H53.0007C53.1807 0.01534 53.3876 0.0333336 53.59 0.0648223L56.9143 0.375211C57.2967 0.411199 57.5801 0.748578 57.5531 1.13094C57.5216 1.5133 57.1887 1.8012 56.8064 1.78321C55.178 1.68424 53.3471 2.368 51.5163 3.7625C46.2307 7.77957 42.614 16.367 43.4462 22.9032C43.887 26.3489 45.4974 28.5891 47.8726 29.048C48.1065 29.093 48.3044 29.2549 48.3944 29.4798C48.4844 29.7047 48.4529 29.9566 48.3134 30.1501C48.1785 30.339 47.9625 30.447 47.7331 30.447L47.7376 30.456ZM52.5824 1.41434C51.0484 1.43233 49.3525 2.11609 47.6656 3.39813C42.38 7.4152 38.7588 16.0026 39.591 22.5388C39.9554 25.4043 41.6693 27.559 44.1794 28.4317C43.0728 27.1496 42.3306 25.3278 42.0472 23.0831C41.1565 16.1016 45.0251 6.92937 50.6661 2.6379C51.3048 2.15208 51.9436 1.74272 52.5824 1.40984V1.41434Z" fill="#1E232E"></path><path d="M2.5326 33.9219C1.1336 33.9219 0 35.06 0 36.4545C0 37.849 1.13809 38.9871 2.5326 38.9871C3.9271 38.9871 5.06519 37.849 5.06519 36.4545C5.06519 35.06 3.9271 33.9219 2.5326 33.9219ZM2.5326 37.5026C1.9523 37.5026 1.48447 37.0303 1.48447 36.4545C1.48447 35.8787 1.9568 35.4063 2.5326 35.4063C3.10839 35.4063 3.58072 35.8787 3.58072 36.4545C3.58072 37.0303 3.10839 37.5026 2.5326 37.5026Z" fill="#68CDED"></path><path d="M67.5075 19.8275C68.0963 19.8275 68.5736 19.3502 68.5736 18.7614C68.5736 18.1726 68.0963 17.6953 67.5075 17.6953C66.9187 17.6953 66.4414 18.1726 66.4414 18.7614C66.4414 19.3502 66.9187 19.8275 67.5075 19.8275Z" fill="#FF6D00"></path><path d="M5.88448 43.6361C6.47328 43.6361 6.9506 43.1588 6.9506 42.57C6.9506 41.9812 6.47328 41.5039 5.88448 41.5039C5.29568 41.5039 4.81836 41.9812 4.81836 42.57C4.81836 43.1588 5.29568 43.6361 5.88448 43.6361Z" fill="#FF6D00"></path></svg> 