<?xml version="1.0" encoding="UTF-8"?> <svg xmlns="http://www.w3.org/2000/svg" width="98" height="100" viewBox="0 0 98 100" fill="none"><g id="Group"><g id="Group_2"><g id="Layer 1"><g id="Group_3"><path id="Vector" d="M0.8125 88.111L28.6048 46.5654L45.8828 56.8694L65.8121 25.9811L58.1912 21.7222L88.0039 0.816406L96.5218 5.88507L68.0547 27.1163L74.5563 30.8593L54.1585 61.696L37.5713 52.0191L8.88188 93.0011L0.8125 88.111Z" fill="white"></path><g id="Vector_2" style="mix-blend-mode:multiply" opacity="0.3"><path d="M58.9766 36.5782L67.5024 41.5238L74.5557 30.8625L65.8115 25.9844L58.9766 36.5782Z" fill="#3B53A7"></path></g><g id="Vector_3" style="mix-blend-mode:multiply" opacity="0.3"><path d="M55.7344 40.1115L64.2602 45.0571L66.7648 43.3781L58.0246 38.5L55.7344 40.1115Z" fill="#3B53A7"></path></g><g id="Vector_4" style="mix-blend-mode:multiply" opacity="0.3"><path d="M58.1914 21.7222L68.0549 27.1163L96.522 5.88507L88.0041 0.816406L58.1914 21.7222Z" fill="#3B53A7"></path></g><g id="Vector_5" style="mix-blend-mode:multiply" opacity="0.3"><path d="M28.6046 46.9062L37.571 52.3639L21.0432 75.9727L12.5293 70.9398L28.6046 46.9062Z" fill="#3B53A7"></path></g><g id="Vector_6" style="mix-blend-mode:multiply" opacity="0.3"><path d="M10.8224 73.0078L19.1934 78.1717L16.1292 82.5418L7.86133 77.4335L10.8224 73.0078Z" fill="#3B53A7"></path></g><path id="Vector_7" d="M74.5572 30.8609L68.0556 27.118L96.5227 5.88672L92.4861 41.8437L83.5236 36.5131L56.1758 79.1065L38.247 68.5723L18.4526 99.1867L8.88281 93.0027L37.5722 52.0207L54.1595 61.6976L74.5572 30.8609Z" fill="#68CDED"></path><path id="Vector_8" d="M40.2458 45.5922L37.5626 39.2018C37.4792 39.0034 37.3125 38.8525 37.1061 38.7851C36.8997 38.7176 36.6774 38.7493 36.4949 38.8644L32.4899 41.3809C32.2716 41.5159 32.1406 41.762 32.1446 42.016C32.1486 42.2422 32.2558 42.4526 32.4344 42.5876C32.4582 42.6074 32.482 42.6233 32.5098 42.6392L39.1939 46.5131C39.3011 46.5766 39.4162 46.6084 39.5353 46.6123C39.7179 46.6203 39.9044 46.5568 40.0473 46.4297C40.2854 46.2194 40.3609 45.886 40.2378 45.5922H40.2458ZM38.0428 44.1435L34.3039 41.9763L36.5425 40.5672L38.0428 44.1395V44.1435Z" fill="white"></path><path id="Vector_9" d="M48.0182 81.2893C46.8394 81.2893 45.8828 82.2459 45.8828 83.4247C45.8828 84.6036 46.8394 85.5602 48.0182 85.5602C49.1971 85.5602 50.1537 84.6036 50.1537 83.4247C50.1537 82.2459 49.1971 81.2893 48.0182 81.2893ZM48.0182 84.3099C47.53 84.3099 47.1331 83.9129 47.1331 83.4247C47.1331 82.9365 47.53 82.5396 48.0182 82.5396C48.5065 82.5396 48.9034 82.9365 48.9034 83.4247C48.9034 83.9129 48.5065 84.3099 48.0182 84.3099Z" fill="white"></path><path id="Vector_10" d="M46.3346 40.7812C45.1558 40.7812 44.1992 41.7378 44.1992 42.9167C44.1992 44.0955 45.1558 45.0521 46.3346 45.0521C47.5135 45.0521 48.4701 44.0955 48.4701 42.9167C48.4701 41.7378 47.5135 40.7812 46.3346 40.7812ZM46.3346 43.8018C45.8464 43.8018 45.4495 43.4049 45.4495 42.9167C45.4495 42.4285 45.8464 42.0315 46.3346 42.0315C46.8229 42.0315 47.2198 42.4285 47.2198 42.9167C47.2198 43.4049 46.8229 43.8018 46.3346 43.8018Z" fill="#1E232E"></path><path id="Vector_11" d="M42.0533 82.2003C42.5487 82.2003 42.9503 81.7987 42.9503 81.3033C42.9503 80.8079 42.5487 80.4062 42.0533 80.4062C41.5579 80.4062 41.1562 80.8079 41.1562 81.3033C41.1562 81.7987 41.5579 82.2003 42.0533 82.2003Z" fill="#1E232E"></path><path id="Vector_12" d="M44.1998 36.5558C44.6952 36.5558 45.0968 36.1542 45.0968 35.6588C45.0968 35.1633 44.6952 34.7617 44.1998 34.7617C43.7044 34.7617 43.3027 35.1633 43.3027 35.6588C43.3027 36.1542 43.7044 36.5558 44.1998 36.5558Z" fill="white"></path><path id="Vector_13" d="M33.1334 86.4581C33.6288 86.4581 34.0304 86.0565 34.0304 85.5611C34.0304 85.0657 33.6288 84.6641 33.1334 84.6641C32.6379 84.6641 32.2363 85.0657 32.2363 85.5611C32.2363 86.0565 32.6379 86.4581 33.1334 86.4581Z" fill="#FF6D00"></path><path id="Vector_14" d="M8.88208 93.8169C8.73522 93.8169 8.58836 93.7772 8.46134 93.6979L0.39196 88.8078C0.201438 88.6927 0.0664854 88.5022 0.018855 88.2878C-0.0287754 88.0735 0.0148858 87.8433 0.137931 87.6607L27.9303 46.1151C28.0811 45.8889 28.3351 45.7539 28.609 45.7539C28.7598 45.7539 28.9027 45.7936 29.0297 45.873L37.9962 51.3267C38.1867 51.4418 38.3216 51.6363 38.3693 51.8546C38.4169 52.0729 38.3693 52.3031 38.2383 52.4896L9.5489 93.4676C9.39807 93.686 9.14801 93.813 8.88208 93.813V93.8169ZM8.65186 91.9117L36.4085 52.2674L28.8511 47.6671L1.96376 87.8552L8.65186 91.9117Z" fill="#1E232E"></path><path id="Vector_15" d="M8.88112 93.6949C8.75807 93.6949 8.63503 93.6632 8.51992 93.5957L0.450539 88.7017C0.287802 88.6025 0.172695 88.4437 0.133003 88.2571C0.0933112 88.0706 0.129034 87.8761 0.232233 87.7213L28.0285 46.1757C28.2349 45.8661 28.6477 45.7748 28.9653 45.9693L37.9317 51.423C38.0944 51.5222 38.2095 51.6849 38.2492 51.8755C38.2889 52.062 38.2492 52.2605 38.1381 52.4153L9.44871 93.3973C9.31376 93.5878 9.09942 93.6949 8.87715 93.6949H8.88112ZM1.79213 87.892L8.68266 92.0676L36.5742 52.2248L28.8105 47.5014L1.79213 87.892Z" fill="#1E232E"></path><path id="Vector_16" d="M70.3245 29.1186C70.2094 29.1186 70.0943 29.0908 69.9911 29.0312L57.8612 22.3312C57.5238 22.1447 57.4047 21.724 57.5873 21.3866C57.7739 21.0492 58.1946 20.9301 58.532 21.1127L70.6618 27.8127C70.9992 27.9993 71.1183 28.42 70.9357 28.7574C70.8087 28.9876 70.5706 29.1146 70.3284 29.1146L70.3245 29.1186Z" fill="#1E232E"></path><path id="Vector_17" d="M18.4517 100C18.293 100 18.1421 99.9563 18.0112 99.869L8.44141 93.685C8.25486 93.5659 8.12785 93.3754 8.08419 93.1571C8.04053 92.9428 8.08816 92.7126 8.21517 92.5339L36.9045 51.552C37.0554 51.3337 37.3054 51.2027 37.5714 51.2027C37.7143 51.2027 37.8572 51.2424 37.9802 51.3138L45.6169 55.7712L64.6572 26.2682L57.7944 22.4339L57.7666 22.4141C57.727 22.3942 57.6833 22.3585 57.6396 22.3188L57.6119 22.291C57.5722 22.2474 57.5444 22.2116 57.5166 22.1759L57.4848 22.1283C57.461 22.0846 57.4372 22.037 57.4213 21.9894C57.3896 21.902 57.3816 21.8385 57.3777 21.775V21.7234C57.3777 21.6798 57.3777 21.6321 57.3896 21.5845C57.3896 21.5647 57.3975 21.5448 57.4015 21.5289C57.4134 21.4853 57.4253 21.4416 57.4451 21.398C57.4531 21.3741 57.461 21.3622 57.465 21.3503C57.5325 21.2273 57.6079 21.136 57.7071 21.0645L87.5237 0.158768C87.5793 0.119076 87.6428 0.0833532 87.7103 0.0555688C87.7579 0.0357228 87.8095 0.0238152 87.8611 0.0119076C87.9087 0.0039692 87.9564 0 88.004 0C88.1509 0 88.2938 0.039692 88.4208 0.115107L96.9387 5.18377C97.0022 5.2195 97.0617 5.26713 97.1133 5.3227L97.0379 5.41796L97.1411 5.35445C97.1848 5.40208 97.2165 5.45368 97.2443 5.50131C97.2522 5.51719 97.2602 5.53703 97.2681 5.55291C97.2919 5.61245 97.3078 5.66008 97.3197 5.70771C97.3237 5.73152 97.3277 5.75137 97.3277 5.77519C97.3356 5.83472 97.3396 5.85854 97.3396 5.88235V5.92601V5.93792V5.96968L93.3029 41.9306C93.2711 42.2085 93.1044 42.4466 92.8544 42.5697C92.7432 42.6252 92.6162 42.653 92.4932 42.653C92.3463 42.653 92.2034 42.6133 92.0764 42.5379L83.7848 37.6082L56.8656 79.5388C56.7148 79.773 56.4608 79.9119 56.179 79.9119C56.0361 79.9119 55.8932 79.8722 55.7662 79.8007L38.5081 69.6594L19.1384 99.6229C18.9876 99.8571 18.7335 99.996 18.4557 99.996L18.4517 100ZM18.2096 98.063L37.5595 68.1273C37.7103 67.8932 37.9643 67.7542 38.2422 67.7542C38.3851 67.7542 38.5279 67.7939 38.655 67.8654L55.913 78.0027L82.8361 36.0681C82.9869 35.8339 83.241 35.695 83.5228 35.695C83.6696 35.695 83.8125 35.7347 83.9395 35.8101L91.8224 40.4977L95.5058 7.65659L69.5353 27.0263L74.9612 30.15C75.1557 30.2612 75.2946 30.4517 75.3462 30.67C75.3978 30.8883 75.3581 31.1185 75.2311 31.3051L54.8334 62.1418C54.6826 62.372 54.4286 62.5069 54.1547 62.5069C54.0118 62.5069 53.8689 62.4673 53.7459 62.3958L37.8055 53.096L10.0331 92.7761L18.2096 98.063ZM53.9046 60.6097L73.4013 31.1344L67.6619 27.832L66.1298 26.9945L47.026 56.5968L53.9046 60.6097ZM67.9873 26.157L95.0573 5.96174L88.0397 1.78614L59.7314 21.6401L67.9873 26.1531V26.157Z" fill="#1E232E"></path><path id="Vector_18" d="M97.2172 5.88673C97.2172 5.85894 97.2092 5.83513 97.2092 5.81131C97.2092 5.7875 97.2053 5.76368 97.2013 5.73987C97.1934 5.70017 97.1775 5.66048 97.1616 5.62079C97.1537 5.60094 97.1497 5.5811 97.1378 5.56125C97.114 5.51362 97.0822 5.46996 97.0465 5.43027C97.0386 5.42233 97.0346 5.41439 97.0267 5.40645C96.983 5.36279 96.9354 5.3231 96.8798 5.28738L88.3579 0.22268C88.2071 0.135358 88.0404 0.107574 87.8776 0.135358C87.834 0.143296 87.7903 0.155204 87.7506 0.171081C87.6951 0.194896 87.6395 0.22268 87.5919 0.258403L57.7951 21.1562C57.7951 21.1562 57.7871 21.1642 57.7832 21.1681C57.7038 21.2277 57.6363 21.2991 57.5847 21.3944C57.5847 21.3984 57.5807 21.4063 57.5768 21.4103C57.5688 21.4222 57.5649 21.438 57.5609 21.4539C57.545 21.4896 57.5331 21.5254 57.5212 21.5651C57.5212 21.5809 57.5133 21.5968 57.5133 21.6127C57.5053 21.6524 57.5053 21.696 57.5053 21.7357C57.5053 21.7437 57.5053 21.7556 57.5053 21.7635C57.5053 21.7635 57.5053 21.7715 57.5053 21.7754C57.5053 21.827 57.5172 21.8826 57.5331 21.9302C57.5331 21.9382 57.5411 21.9461 57.545 21.958C57.5609 21.9977 57.5768 22.0374 57.6006 22.0771C57.6085 22.093 57.6165 22.1049 57.6284 22.1168C57.6482 22.1485 57.676 22.1803 57.6998 22.2081C57.7117 22.22 57.7197 22.2319 57.7316 22.2398C57.7673 22.2716 57.807 22.3033 57.8507 22.3272C57.8546 22.3272 57.8586 22.3351 57.8626 22.3351H57.8665H57.8705L64.8325 26.2289L45.6612 55.9344L37.9253 51.4214C37.6117 51.2388 37.2148 51.3261 37.0044 51.6238L8.31505 92.6058C8.20788 92.7606 8.16422 92.9511 8.20391 93.1377C8.23963 93.3242 8.35077 93.487 8.50954 93.5862L18.0793 99.7702C18.1944 99.8456 18.3254 99.8813 18.4564 99.8813C18.6826 99.8813 18.9088 99.7702 19.0398 99.5638L38.4691 69.5051L55.8264 79.7019C56.1479 79.8924 56.5607 79.7932 56.7631 79.4796L83.7457 37.4538L92.1326 42.4431C92.3351 42.5621 92.5851 42.574 92.7955 42.4669C93.0059 42.3637 93.1487 42.1573 93.1765 41.9231L97.2092 5.96214C97.2092 5.96214 97.2092 5.93833 97.2092 5.92642C97.2092 5.91054 97.2132 5.89864 97.2132 5.88276L97.2172 5.88673ZM88.0364 1.64365L95.2723 5.95023L67.9959 26.2924L59.5058 21.6484L88.0364 1.64365ZM66.0907 26.8362L67.7221 27.7292L73.5687 31.0951L53.941 60.7688L46.8599 56.6369L66.0907 26.8362ZM91.9183 40.7006L83.8767 35.9217C83.5552 35.7311 83.1384 35.8304 82.936 36.1439L55.9494 78.1738L38.5921 67.9769C38.2706 67.7904 37.8578 67.8856 37.6554 68.1992L18.238 98.2341L9.8551 92.8162L37.7665 52.9495L53.8021 62.3049C54.1196 62.4915 54.5284 62.3962 54.7309 62.0866L75.1286 31.2499C75.2357 31.0911 75.2675 30.8927 75.2238 30.7061C75.1802 30.5196 75.0611 30.3608 74.8944 30.2655L69.3097 27.0505L95.6533 7.39899L91.9183 40.6966V40.7006Z" fill="#1E232E"></path><path id="Vector_19" d="M37.0522 80.0847C36.9093 80.0847 36.7664 80.045 36.6394 79.9735C36.4488 79.8624 36.3139 79.6878 36.2543 79.4734C36.1988 79.2591 36.2266 79.0368 36.3377 78.8463L39.4773 73.4125C39.5885 73.2219 39.7671 73.087 39.9775 73.0274C40.0489 73.0076 40.1203 72.9997 40.1918 72.9997C40.3347 72.9997 40.4776 73.0393 40.6046 73.1108L43.6768 74.885L46.9434 69.2289C47.0903 68.9749 47.3641 68.8161 47.6579 68.8161C47.8007 68.8161 47.9436 68.8558 48.0667 68.9273L51.0317 70.638L53.5402 66.2917C53.6871 66.0377 53.9609 65.8789 54.2547 65.8789C54.3976 65.8789 54.5405 65.9186 54.6635 65.9901L57.303 67.5142L60.5697 61.8581C60.6808 61.6676 60.8594 61.5326 61.0698 61.4731C61.1412 61.4533 61.2127 61.4453 61.2841 61.4453C61.427 61.4453 61.5699 61.485 61.6969 61.5565C62.0899 61.7827 62.2248 62.2908 61.9986 62.6837L58.3191 69.0582C58.1723 69.3123 57.8984 69.471 57.6047 69.471C57.4618 69.471 57.3189 69.4313 57.1958 69.3599L54.5563 67.8357L52.0478 72.182C51.9009 72.436 51.6271 72.5948 51.3333 72.5948C51.1904 72.5948 51.0476 72.5551 50.9205 72.4837L47.9555 70.7729L44.6889 76.429C44.5778 76.6196 44.3991 76.7545 44.1888 76.8141C44.1173 76.8339 44.0459 76.8418 43.9744 76.8418C43.8315 76.8418 43.6887 76.8021 43.5656 76.7307L40.4935 74.9565L37.7666 79.6758C37.6198 79.9299 37.3459 80.0886 37.0522 80.0886V80.0847Z" fill="#1E232E"></path></g></g></g></g></svg> 