<?xml version="1.0" encoding="UTF-8"?> <svg xmlns="http://www.w3.org/2000/svg" width="78" height="100" viewBox="0 0 78 100" fill="none"><path d="M56.5611 3.83099C55.9032 3.47828 55.0551 3.52583 54.1277 4.06086L23.4651 21.7681C21.3686 22.9768 19.6723 26.2226 19.6723 29.0166V96.0053C19.6723 97.4994 20.1598 98.5655 20.9287 99.041L15.5467 95.7833C14.7422 95.3197 14.2349 94.2456 14.2349 92.7159L13.7871 26.0839C13.7871 23.2899 15.4873 20.0481 17.5838 18.8354L48.5714 1.00925C49.5186 0.462342 50.3865 0.426673 51.0523 0.807133L56.5571 3.83099H56.5611Z" fill="white"></path><g style="mix-blend-mode:multiply" opacity="0.3"><path d="M14.4461 60.9062L19.6735 63.0344L19.7092 97.9456L14.1172 95.0802L14.4461 60.9062Z" fill="#3B53A7"></path></g><g style="mix-blend-mode:multiply" opacity="0.3"><path d="M14.1445 51.4609L14.1564 58.4122L19.3798 60.5365L19.4789 53.4821L14.1445 51.4609Z" fill="#3B53A7"></path></g><path d="M19.6738 75.1855V27.3744L22.5075 22.2818L55.0328 3.46094L57.589 4.42398L58.3975 34.5239L57.7555 74.5831L57.0857 77.9161L54.4978 81.0509L23.8034 99.4557H21.5563L19.7095 97.9457L19.6738 75.1855Z" fill="#68CDED"></path><path d="M56.8821 3.23643C56.8504 3.22058 56.8148 3.20869 56.7831 3.19284C56.7672 3.18095 56.7514 3.16906 56.7315 3.15717L51.738 0.343355C50.8305 -0.175814 49.7089 -0.104478 48.5834 0.545474L17.9167 18.2487C15.5983 19.5843 13.7832 23.0243 13.7832 26.0799V93.0725C13.7832 94.7845 14.3856 96.1161 15.4358 96.7265L20.6117 99.6354C20.6236 99.6433 20.6354 99.6512 20.6473 99.6552C21.0476 99.8851 21.4915 100 21.9552 100C22.5457 100 23.1718 99.8177 23.802 99.4531L54.4686 81.7498C56.7831 80.4143 58.5982 76.9743 58.5982 73.9187V6.93006C58.5982 5.17044 57.972 3.82298 56.8821 3.2404V3.23643ZM15.1346 93.0725V26.0799C15.1346 23.5514 16.7199 20.4998 18.5944 19.4179L49.2571 1.71459C49.7485 1.43321 50.4579 1.16768 51.0643 1.51248L54.1872 3.2721C54.0564 3.33155 53.9257 3.39892 53.7909 3.47422L23.1282 21.1814C20.8138 22.517 18.9987 25.957 18.9987 29.0126V96.0052C18.9987 96.449 19.0423 96.8612 19.1176 97.2496L16.1096 95.5613C15.4873 95.2007 15.1346 94.2971 15.1346 93.0764V93.0725ZM57.2468 73.9187C57.2468 76.4511 55.6655 79.5027 53.7909 80.5807L23.1243 98.284C22.4307 98.6842 21.7887 98.7556 21.3171 98.4861C21.3131 98.4861 21.3092 98.4821 21.3052 98.4782C21.2973 98.4742 21.2894 98.4702 21.2814 98.4623C20.687 98.0937 20.3422 97.1941 20.3422 96.0012V29.0126C20.3422 26.4801 21.9235 23.4325 23.798 22.3506L54.4686 4.6473C54.9481 4.36989 55.6457 4.10832 56.2441 4.42933C56.8742 4.7662 57.2507 5.70149 57.2507 6.93006V73.9187H57.2468Z" fill="#1E232E"></path><path d="M30.7813 17.6042L30.6387 21.5396L32.7391 22.2846L42.1951 17.6042L47.2877 14.0255L46.9509 8.71094L30.7813 17.6042Z" fill="#1E232E"></path><path d="M32.6649 23.18C32.1893 23.18 31.7138 23.0532 31.2778 22.8035C30.4059 22.3002 29.8828 21.4006 29.8828 20.394V17.9091H31.151V20.394C31.151 20.9409 31.4364 21.4323 31.908 21.7058C32.3796 21.9792 32.9503 21.9792 33.4219 21.7058L44.9744 14.9962C45.878 14.4731 46.4407 13.4942 46.4407 12.4519V8.18359H47.7089V12.4519C47.7089 13.946 46.9044 15.345 45.6124 16.094L34.0599 22.8035C33.624 23.0572 33.1445 23.184 32.6649 23.184V23.18Z" fill="#1E232E"></path><g style="mix-blend-mode:multiply" opacity="0.3"><path d="M58.5837 23.9618C58.2983 23.9222 58.0011 23.8984 57.6999 23.8984C56.2217 23.8984 54.6443 24.378 53.0036 25.3252L39.953 32.8591C34.4007 36.0652 29.8867 43.8884 29.8867 50.2968V52.9243C29.8867 56.2098 31.04 58.6709 33.1325 59.8558L39.2357 63.2958C40.0759 63.7635 41.0191 64.0013 42.0456 64.0013C43.5199 64.0013 45.1011 63.5217 46.7379 62.5745L55.2824 57.6405C56.2098 58.6471 57.3194 59.3961 58.5718 59.8717V23.9618H58.5837Z" fill="#1E232E"></path></g><path d="M61.1227 27.0455L47.7155 34.7854C42.3613 37.8767 38.0059 45.4225 38.0059 51.6049V54.3038C38.0059 57.2009 38.961 59.3409 40.6968 60.3198L44.0853 62.234C43.4948 61.0332 43.1857 59.547 43.1857 57.831V55.1321C43.1857 48.6088 47.7829 40.6509 53.4303 37.3853L66.8376 29.6453C68.2762 28.813 69.6831 28.3414 70.9909 28.2344L67.6064 26.3242C65.8983 25.3611 63.5957 25.6148 61.1227 27.0455Z" fill="#FF6D00"></path><g style="mix-blend-mode:multiply" opacity="0.3"><path d="M45.2386 46.8454L39.4762 44.8281C38.5449 47.0871 38.002 49.4333 38.002 51.609V54.3079C38.002 57.2049 38.9571 59.345 40.6929 60.3239L44.0814 62.2381C43.4909 61.0373 43.1818 59.5511 43.1818 57.8351V55.1362C43.1818 52.473 43.9466 49.572 45.2386 46.8454Z" fill="#3B53A7"></path></g><g style="mix-blend-mode:multiply" opacity="0.3"><path d="M39.6836 43.3949L46.1474 45.6578L46.8727 44.2311L40.4088 42.0078L39.6836 43.3949Z" fill="#3B53A7"></path></g><path d="M49.3051 65.1348C48.354 65.1348 47.4821 64.9168 46.7133 64.4848L46.6816 64.465H46.6657L44.2918 61.7661L43.6934 54.0816L45.7463 47.2572L49.4756 40.9677L56.9341 35.879L69.9887 28.793L74.2332 29.3557L74.2807 29.3874C76.1989 30.4971 77.257 32.8235 77.257 35.9385V38.6374C77.257 44.4909 73.4723 51.6205 68.451 55.2191L68.1775 55.4172L68.3083 55.7303C69.3427 58.2271 71.0666 59.9788 73.2939 60.7991C73.3375 60.815 73.3692 60.8586 73.3652 60.9061C73.3652 60.9537 73.3296 60.9933 73.286 61.0092C72.101 61.35 70.9359 61.5244 69.8301 61.5244C67.1828 61.5244 64.9119 60.5455 63.2672 58.6947L63.0374 58.4371L53.8191 63.7596C52.2299 64.6751 50.712 65.1388 49.3091 65.1388L49.3051 65.1348Z" fill="white"></path><path d="M61.3334 46.1709C61.3334 45.9292 61.27 45.7429 61.1709 45.6834C61.0679 45.624 60.8777 45.6636 60.6676 45.7865C60.0296 46.1551 59.4668 47.13 59.4668 47.8671C59.4668 48.1089 59.5302 48.2991 59.6293 48.3546C59.7284 48.414 59.9226 48.3744 60.1326 48.2515C60.7826 47.8751 61.3295 46.9199 61.3295 46.1709H61.3334Z" fill="#3A3A3A"></path><path d="M55.0678 49.7926C55.0678 49.5508 55.0044 49.3645 54.9053 49.3051C54.8736 49.2892 54.8379 49.2773 54.7904 49.2773C54.6873 49.2773 54.5486 49.3209 54.402 49.4081C53.7481 49.7846 53.2012 50.7358 53.2012 51.4888C53.2012 51.7305 53.2646 51.9168 53.3637 51.9762C53.4667 52.0357 53.6569 51.996 53.867 51.8732C54.5169 51.4967 55.0678 50.5455 55.0678 49.7926Z" fill="#3A3A3A"></path><path d="M77.8162 38.5694V35.8705C77.8162 32.5256 76.6471 30.009 74.5308 28.7805L74.3168 29.1134C74.4555 29.2124 74.4991 29.3987 74.4199 29.5453C74.3604 29.6563 74.2455 29.7237 74.1226 29.7237C74.0671 29.7237 74.0116 29.7078 73.9601 29.6841L73.8967 29.6524L73.8016 29.8267H73.7976L73.8531 29.7118L73.8888 29.6484L71.0314 28.0354H70.9719C69.6166 28.1503 68.1898 28.6338 66.7354 29.478L53.3281 37.218C47.6252 40.5113 42.9844 48.5485 42.9844 55.1352V57.8341C42.9844 59.566 43.2935 61.0799 43.9078 62.3243L43.9355 62.3798L46.8484 64.0245C46.9277 64.0681 46.9832 64.1394 47.0069 64.2266C47.0307 64.3138 47.0188 64.405 46.9752 64.4842C46.9158 64.5912 46.8048 64.6546 46.682 64.6546C46.6344 64.6546 46.5829 64.6428 46.5314 64.615L46.3451 64.9638C47.2091 65.4473 48.184 65.693 49.2421 65.693C50.76 65.693 52.3809 65.2016 54.0653 64.2266L62.8436 59.1578C64.5992 61.068 66.989 62.0747 69.7632 62.0747C70.9283 62.0747 72.1529 61.8923 73.3934 61.5357C73.6986 61.4485 73.9126 61.175 73.9245 60.858C73.9364 60.5409 73.7422 60.2516 73.4449 60.1446C71.4277 59.4035 69.8543 57.8222 68.8794 55.5672C74.0671 51.7785 77.8202 44.6567 77.8202 38.5733L77.8162 38.5694ZM73.7105 30.0011C75.4106 30.9324 76.3499 33.017 76.3499 35.8705V38.5694C76.3499 44.2723 72.4938 51.3544 67.5676 54.6914C67.2862 54.8816 67.1713 55.2383 67.2902 55.5553C68.0947 57.7033 69.3748 59.4114 71.0195 60.533C70.5756 60.5885 70.1397 60.6162 69.7156 60.6162C67.199 60.6162 65.0748 59.6254 63.5688 57.7588C63.4301 57.5844 63.2201 57.4854 62.9981 57.4854C62.8713 57.4854 62.7445 57.521 62.6335 57.5844L53.3281 62.9545C51.8935 63.7828 50.4786 64.2227 49.2421 64.2227C48.4257 64.2227 47.6886 64.0364 47.0426 63.6718C45.3741 62.7325 44.4507 60.6559 44.4507 57.8301V55.1313C44.4507 49.0122 48.7626 41.5457 54.0613 38.4862L67.4725 30.7462C68.9072 29.9179 70.322 29.478 71.5624 29.478C72.3511 29.478 73.0724 29.6524 73.7025 29.9932L73.7778 29.8584L73.7065 29.9971H73.7144L73.7105 30.0011ZM73.8056 29.8307L73.7303 29.9654L73.8016 29.8267C73.8016 29.8267 73.8016 29.8267 73.8056 29.8267V29.8307Z" fill="#1E232E"></path><path d="M67.9753 41.1375C67.5314 40.8799 66.9568 40.9195 66.398 41.2405C65.423 41.8033 64.6621 43.127 64.6621 44.2486C64.6621 44.8906 64.9157 45.4058 65.3596 45.6594C65.5538 45.7704 65.7757 45.8259 66.0056 45.8259C66.3028 45.8259 66.6199 45.7347 66.933 45.5524C67.9079 44.9897 68.6688 43.666 68.6688 42.5444C68.6688 41.9024 68.4152 41.3872 67.9713 41.1335L67.9753 41.1375Z" fill="#1E232E"></path><path d="M61.7057 44.7547C61.2618 44.4971 60.6872 44.5367 60.1323 44.8577C59.1574 45.4205 58.3965 46.7402 58.3965 47.8657C58.3965 48.5117 58.6541 49.0269 59.098 49.2806C59.2921 49.3915 59.5101 49.447 59.7439 49.447C60.0412 49.447 60.3582 49.3559 60.6753 49.1736C61.6462 48.6068 62.4072 47.2871 62.4072 46.1656C62.4072 45.5235 62.1535 45.0083 61.7097 44.7507L61.7057 44.7547Z" fill="#1E232E"></path><path d="M55.4362 48.3777C54.9923 48.1241 54.4176 48.1597 53.8628 48.4847C52.8879 49.0475 52.127 50.3672 52.127 51.4888C52.127 52.1308 52.3806 52.646 52.8245 52.9036C53.0187 53.0146 53.2406 53.07 53.4705 53.07C53.7677 53.07 54.0847 52.9789 54.3978 52.8006C55.3727 52.2378 56.1337 50.9181 56.1337 49.7925C56.1337 49.1505 55.88 48.6353 55.4362 48.3777Z" fill="#1E232E"></path><path d="M74.5346 28.7883C74.5346 28.7883 74.4949 28.7606 74.4751 28.7487L68.2332 25.2255C67.3653 24.7341 66.3824 24.4844 65.3164 24.4844C63.7985 24.4844 62.1736 24.9758 60.4893 25.9507L47.082 33.6907C41.3791 36.9841 36.7383 45.0213 36.7383 51.608V54.3069C36.7383 57.6834 37.9233 60.2119 40.0752 61.4286L46.3528 64.9677C46.4598 65.0231 46.5708 65.0509 46.6857 65.0509C46.9512 65.0509 47.197 64.9082 47.3238 64.6784C47.4189 64.5079 47.4427 64.3098 47.3912 64.1196C47.3396 63.9293 47.2168 63.7748 47.0464 63.6796L40.7965 60.1525C39.128 59.2092 38.2046 57.1326 38.2046 54.3069V51.608C38.2046 45.4889 42.5165 38.0224 47.8152 34.9629L61.2224 27.2229C62.6611 26.3946 64.0719 25.9547 65.3124 25.9547C66.1248 25.9547 66.8659 26.141 67.5119 26.5016L73.7063 29.9971L73.7737 30.0327C73.8807 30.0922 74.0035 30.1199 74.1224 30.1199C74.3919 30.1199 74.6376 29.9733 74.7684 29.7355C74.9428 29.4105 74.8477 29.0023 74.5346 28.7804V28.7883Z" fill="#1E232E"></path><path d="M17.5813 41.1334C17.5813 40.8095 17.3187 40.5469 16.9947 40.5469C16.6708 40.5469 16.4082 40.8095 16.4082 41.1334V47.1772C16.4082 47.5011 16.6708 47.7637 16.9947 47.7637C17.3187 47.7637 17.5813 47.5011 17.5813 47.1772V41.1334Z" fill="#1E232E"></path><path d="M42.3051 14.4928C42.5857 14.3308 42.6818 13.9721 42.5198 13.6916C42.3579 13.411 41.9991 13.3149 41.7186 13.4769L36.4846 16.4987C36.204 16.6607 36.1079 17.0194 36.2699 17.3C36.4318 17.5805 36.7906 17.6766 37.0711 17.5147L42.3051 14.4928Z" fill="#68CDED"></path><path d="M9.76885 24.129L8.25494 17.3798C8.20738 17.1697 8.07264 16.9914 7.87844 16.8923C7.68821 16.7932 7.46232 16.7814 7.26416 16.8606L2.88491 18.6282C2.64712 18.7233 2.47671 18.9413 2.43708 19.1909C2.40141 19.4129 2.46878 19.6388 2.62334 19.8052C2.64316 19.829 2.66694 19.8488 2.69072 19.8686L8.57992 24.8503C8.67503 24.9295 8.78204 24.9811 8.89697 25.0088C9.07531 25.0484 9.2695 25.0207 9.43199 24.9176C9.70148 24.7552 9.83623 24.4381 9.76885 24.129ZM7.85863 22.3178L4.56527 19.5318L7.01448 18.541L7.85863 22.3178Z" fill="#3B53A7"></path><path d="M63.6556 65.1367C62.4785 65.1367 61.5234 66.0918 61.5234 67.2689C61.5234 68.4459 62.4785 69.401 63.6556 69.401C64.8326 69.401 65.7878 68.4459 65.7878 67.2689C65.7878 66.0918 64.8326 65.1367 63.6556 65.1367ZM63.6556 68.1527C63.1681 68.1527 62.7718 67.7563 62.7718 67.2689C62.7718 66.7814 63.1681 66.3851 63.6556 66.3851C64.1431 66.3851 64.5394 66.7814 64.5394 67.2689C64.5394 67.7563 64.1431 68.1527 63.6556 68.1527Z" fill="#68CDED"></path><path d="M8.23958 29.375C7.06253 29.375 6.10742 30.3301 6.10742 31.5072C6.10742 32.6842 7.06253 33.6393 8.23958 33.6393C9.41663 33.6393 10.3717 32.6842 10.3717 31.5072C10.3717 30.3301 9.41663 29.375 8.23958 29.375ZM8.23958 32.3909C7.75212 32.3909 7.3558 31.9946 7.3558 31.5072C7.3558 31.0197 7.75212 30.6234 8.23958 30.6234C8.72705 30.6234 9.12336 31.0197 9.12336 31.5072C9.12336 31.9946 8.72705 32.3909 8.23958 32.3909Z" fill="#68CDED"></path><path d="M68.673 72.0765C69.1677 72.0765 69.5687 71.6755 69.5687 71.1808C69.5687 70.6862 69.1677 70.2852 68.673 70.2852C68.1783 70.2852 67.7773 70.6862 67.7773 71.1808C67.7773 71.6755 68.1783 72.0765 68.673 72.0765Z" fill="#FF6D00"></path><path d="M62.4035 20.4945C62.8981 20.4945 63.2991 20.0935 63.2991 19.5988C63.2991 19.1041 62.8981 18.7031 62.4035 18.7031C61.9088 18.7031 61.5078 19.1041 61.5078 19.5988C61.5078 20.0935 61.9088 20.4945 62.4035 20.4945Z" fill="#FF6D00"></path><path d="M0.895665 29.6898C1.39033 29.6898 1.79133 29.2888 1.79133 28.7941C1.79133 28.2994 1.39033 27.8984 0.895665 27.8984C0.401003 27.8984 0 28.2994 0 28.7941C0 29.2888 0.401003 29.6898 0.895665 29.6898Z" fill="#FF6D00"></path><path d="M9.43566 91.1069C9.29298 91.1069 9.15031 91.0673 9.02349 90.9959C8.83326 90.885 8.69852 90.7106 8.63907 90.4966C8.58359 90.2826 8.61133 90.0607 8.7223 89.8704L11.8571 84.4449C11.9681 84.2547 12.1464 84.1199 12.3565 84.0605C12.4278 84.0407 12.4991 84.0327 12.5705 84.0327C12.7132 84.0327 12.8558 84.0724 12.9827 84.1437L16.0501 85.9152L19.3118 80.2678C19.4584 80.0141 19.7318 79.8556 20.0251 79.8556C20.1678 79.8556 20.3105 79.8952 20.4333 79.9666L23.3938 81.6747L25.8985 77.3351C26.0451 77.0814 26.3186 76.9229 26.6118 76.9229C26.7545 76.9229 26.8972 76.9625 27.02 77.0339L29.6555 78.5557L32.9171 72.9083C33.0281 72.718 33.2065 72.5833 33.4165 72.5238C33.4878 72.504 33.5592 72.4961 33.6305 72.4961C33.7732 72.4961 33.9159 72.5357 34.0427 72.6071C34.435 72.833 34.5698 73.3402 34.3439 73.7326L30.6701 80.0974C30.5234 80.351 30.25 80.5095 29.9567 80.5095C29.814 80.5095 29.6714 80.4699 29.5485 80.3986L26.913 78.8767L24.4083 83.2163C24.2617 83.47 23.9882 83.6285 23.695 83.6285C23.5523 83.6285 23.4096 83.5889 23.2828 83.5175L20.3224 81.8094L17.0607 87.4569C16.9497 87.6471 16.7714 87.7819 16.5613 87.8413C16.49 87.8611 16.4187 87.869 16.3473 87.869C16.2047 87.869 16.062 87.8294 15.9391 87.7581L12.8717 85.9866L10.149 90.6987C10.0024 90.9524 9.72893 91.1109 9.43566 91.1109V91.1069Z" fill="#FF6D00"></path></svg> 