<?xml version="1.0" encoding="UTF-8"?> <svg xmlns="http://www.w3.org/2000/svg" width="104" height="100" viewBox="0 0 104 100" fill="none"><path d="M18.1705 96.5445V42.2836L19.0167 40.0905L80.3524 3.80481L73.628 0.925781C73.628 0.925781 55.2373 11.095 54.7717 11.3604C54.306 11.6307 12.6528 36.3403 12.6528 36.3403L10.7852 39.3595V84.788L11.366 92.1383L18.1705 96.5445Z" fill="white"></path><g style="mix-blend-mode:multiply" opacity="0.3"><path d="M10.7402 69.7383V91.8742L18.2658 96.5458L18.416 74.1044L10.7402 69.7383Z" fill="#3B53A7"></path></g><g style="mix-blend-mode:multiply" opacity="0.3"><path d="M11.2598 67.7241L17.894 71.3041V64.4045L11.2598 61.0898V67.7241Z" fill="#3B53A7"></path></g><path d="M18.1699 47.3456L82.2695 9.79306L82.2796 5.40693L80.3519 3.80469L77.2325 5.07647L19.0111 40.0904L18.1699 42.2835V47.3456Z" fill="white"></path><g style="mix-blend-mode:multiply" opacity="0.3"><path d="M18.1699 47.3456L82.2695 9.79306L82.2796 5.40693L80.3519 3.80469L77.2325 5.07647L19.0111 40.0904L18.1699 42.2835V47.3456Z" fill="#3B53A7"></path></g><path d="M18.1701 47.3455V87.7019C18.1701 87.7019 18.1902 96.1437 18.1701 96.5493C18.1501 96.9548 19.6121 97.8811 19.6121 97.8811C19.6121 97.8811 23.092 96.4491 23.6227 96.1337C24.1535 95.8182 75.325 65.8313 75.325 65.8313L81.1332 62.4316C81.1332 62.4316 82.3849 59.5826 82.2748 59.0769C82.1646 58.5712 82.2748 9.79297 82.2748 9.79297L18.1701 47.3455Z" fill="#68CDED"></path><g style="mix-blend-mode:multiply" opacity="0.3"><path d="M49.0691 51.8879C49.0691 51.8879 48.5884 37.1773 49.0691 36.932C49.5498 36.6866 55.6633 35.1345 55.8836 35.1645C56.1039 35.1945 61.161 37.6029 61.161 37.6029L49.0691 51.8879Z" fill="#1E232E"></path></g><g style="mix-blend-mode:multiply" opacity="0.3"><path d="M49.5938 56.9264L63.0826 41.4297L64.3744 44.6742L63.0876 54.9836L59.788 62.7595L49.5938 56.9264Z" fill="#1E232E"></path></g><path d="M45.8934 39.683V59.0651L58.0053 65.6794L55.0061 69.6099L45.8934 76.7749L39.93 78.1318C39.93 78.1318 33.4209 74.5868 33.2908 74.3966C33.1606 74.2063 31.293 66.145 31.293 66.145L32.8501 55.3349L38.5181 46.4074L44.6466 39.3125L45.8884 39.683H45.8934Z" fill="white"></path><path d="M88.3077 0C86.7405 0 85.4688 1.27679 85.4688 2.83897C85.4688 4.40115 86.7455 5.67794 88.3077 5.67794C89.8699 5.67794 91.1467 4.40115 91.1467 2.83897C91.1467 1.27679 89.8699 0 88.3077 0ZM88.3077 4.01561C87.6568 4.01561 87.1311 3.48988 87.1311 2.83897C87.1311 2.18806 87.6568 1.66232 88.3077 1.66232C88.9586 1.66232 89.4844 2.18806 89.4844 2.83897C89.4844 3.48988 88.9586 4.01561 88.3077 4.01561Z" fill="#1E232E"></path><path d="M2.83897 87.0234C1.27178 87.0234 0 88.3002 0 89.8624C0 91.4246 1.27679 92.7014 2.83897 92.7014C4.40115 92.7014 5.67794 91.4246 5.67794 89.8624C5.67794 88.3002 4.40115 87.0234 2.83897 87.0234ZM2.83897 91.0391C2.18806 91.0391 1.66232 90.5133 1.66232 89.8624C1.66232 89.2115 2.18806 88.6858 2.83897 88.6858C3.48988 88.6858 4.01561 89.2115 4.01561 89.8624C4.01561 90.5133 3.48988 91.0391 2.83897 91.0391Z" fill="#1E232E"></path><path d="M6.45924 100.001C7.11738 100.001 7.65091 99.467 7.65091 98.8088C7.65091 98.1507 7.11738 97.6172 6.45924 97.6172C5.8011 97.6172 5.26758 98.1507 5.26758 98.8088C5.26758 99.467 5.8011 100.001 6.45924 100.001Z" fill="white"></path><path d="M97.0061 3.03958C97.6643 3.03958 98.1978 2.50606 98.1978 1.84792C98.1978 1.18978 97.6643 0.65625 97.0061 0.65625C96.348 0.65625 95.8145 1.18978 95.8145 1.84792C95.8145 2.50606 96.348 3.03958 97.0061 3.03958Z" fill="white"></path><path d="M81.5897 3.30481C81.3243 3.1546 81.0439 3.04444 80.7585 2.97434L75.4561 0.405753C74.2444 -0.180066 72.8224 -0.129996 71.6558 0.545949L14.5359 33.5271C11.6519 35.1944 9.85938 38.2987 9.85938 41.6334V90.2013C9.85938 91.7184 10.6154 93.1204 11.8872 93.9515L18.3112 98.1624C18.4314 98.2576 18.5515 98.3477 18.6917 98.4228C19.1373 98.6782 19.628 98.8083 20.1187 98.8083C20.6094 98.8083 21.1151 98.6731 21.5707 98.4078L78.8909 64.8158C81.5496 63.2586 83.1969 60.3796 83.1969 57.2953V6.07868C83.1969 4.91706 82.5961 3.88061 81.5897 3.30481ZM81.3493 9.26314L19.0923 45.7341V43.0504C19.0923 41.4031 19.9735 39.8559 21.3955 39.0197L79.3165 4.91706C79.5318 4.79189 79.7621 4.72679 79.9974 4.72679C80.2328 4.72679 80.4581 4.78688 80.6684 4.90705C81.094 5.15239 81.3443 5.588 81.3443 6.07368V9.25813L81.3493 9.26314ZM11.707 90.2013V41.6334C11.707 38.9597 13.144 36.4662 15.4622 35.1293L72.5721 2.14318C73.2079 1.77767 73.979 1.74763 74.645 2.06808L77.8695 3.62525L20.4592 37.4275C18.4764 38.5941 17.2447 40.7472 17.2447 43.0504V95.2534L12.8986 92.4044C12.1526 91.9137 11.707 91.0925 11.707 90.2013ZM77.9546 63.2236L20.6344 96.8155C20.2539 97.0359 19.9134 96.9607 19.7182 96.8756L19.4127 96.6754C19.2575 96.5301 19.0923 96.2948 19.0923 95.9343V47.8721L81.3493 11.4061V57.2953C81.3493 59.7237 80.0475 61.9919 77.9546 63.2186V63.2236Z" fill="#1E232E"></path><path d="M48.9691 53.4182C49.0743 53.4582 49.1794 53.4733 49.2846 53.4733C49.5499 53.4733 49.8103 53.3581 49.9906 53.1478L62.3579 38.5073C62.6483 38.1619 62.6483 37.6612 62.3579 37.3157C61.7019 36.5396 60.9409 35.8937 60.0897 35.403C57.0504 33.6505 53.0598 33.9009 48.854 36.119C48.5485 36.2792 48.3633 36.5947 48.3633 36.9351V52.552C48.3633 52.9375 48.6036 53.288 48.9691 53.4182ZM50.2109 37.5009C53.6457 35.8186 56.8101 35.6383 59.1684 37.0002C59.619 37.2606 60.0346 37.576 60.4201 37.9415L50.291 49.9283L50.2109 50.0284V37.5059V37.5009Z" fill="#1E232E"></path><path d="M63.8208 40.1172C63.5003 40.0572 63.1748 40.1723 62.9595 40.4177C58.5133 45.4898 49.2103 56.2148 49.1202 56.3199C48.9399 56.5302 48.8598 56.8056 48.9049 57.081C48.95 57.3513 49.1152 57.5917 49.3555 57.7269L59.5448 63.56C59.685 63.6401 59.8452 63.6802 60.0054 63.6802C60.0905 63.6802 60.1706 63.6702 60.2558 63.6451C60.4961 63.5801 60.6964 63.4198 60.8165 63.2045C65.2828 55.1683 66.7048 46.5412 64.5217 40.7031C64.4066 40.3976 64.1412 40.1773 63.8208 40.1172ZM59.6449 61.4871L51.2532 56.6854C53.3411 54.2821 59.3845 47.3223 63.255 42.8961C64.4266 47.9332 63.0847 54.948 59.6499 61.4921L59.6449 61.4871Z" fill="#1E232E"></path><path d="M58.687 64.874L47.0407 58.1746V38.8426C47.0407 38.4971 46.8454 38.1766 46.535 38.0164C46.2246 37.8562 45.854 37.8862 45.5736 38.0915C41.7883 40.8554 38.3535 44.7959 35.6498 49.4824C28.9003 61.1738 28.9754 73.9016 35.82 77.8571C37.212 78.6632 38.7791 79.0438 40.4565 79.0438C46.3848 79.0438 53.6299 74.222 59.0024 66.1858C59.1426 65.9705 59.1927 65.7101 59.1326 65.4598C59.0725 65.2094 58.9173 64.9991 58.692 64.8689L58.687 64.874ZM36.7363 76.2599C30.773 72.8201 31.0033 61.2239 37.242 50.4137C39.4651 46.5684 42.1889 43.2587 45.1881 40.7452V58.7153C45.1881 59.0458 45.3633 59.3512 45.6538 59.5165L56.8995 65.9805C50.6057 74.923 42.0537 79.3342 36.7413 76.2649L36.7363 76.2599Z" fill="#1E232E"></path><path d="M24.1567 41.1234C24.5729 40.3426 24.5206 39.5018 24.0399 39.2456C23.5592 38.9893 22.832 39.4146 22.4158 40.1955C21.9995 40.9763 22.0518 41.8171 22.5325 42.0734C23.0133 42.3296 23.7404 41.9043 24.1567 41.1234Z" fill="#1E232E"></path><path d="M27.9086 39.0221C28.3249 38.2413 28.2726 37.4005 27.7919 37.1442C27.3111 36.888 26.584 37.3133 26.1677 38.0942C25.7515 38.875 25.8038 39.7158 26.2845 39.972C26.7652 40.2283 27.4924 39.803 27.9086 39.0221Z" fill="#1E232E"></path><path d="M31.561 36.932C31.9772 36.1512 31.9249 35.3104 31.4442 35.0541C30.9635 34.7979 30.2363 35.2232 29.8201 36.0041C29.4038 36.7849 29.4561 37.6257 29.9368 37.882C30.4176 38.1382 31.1447 37.7129 31.561 36.932Z" fill="#1E232E"></path><g style="mix-blend-mode:multiply" opacity="0.3"><path d="M83.1964 18.7188L76.5471 30.2399L68.9014 25.8237C68.576 25.6334 68.1954 25.5333 67.8149 25.5333C67.6246 25.5333 67.4394 25.5583 67.2591 25.6084C66.7034 25.7586 66.2327 26.1141 65.9423 26.6148L61.8416 33.7197C61.5512 34.2204 61.4761 34.8012 61.6263 35.362C61.7765 35.9178 62.132 36.3885 62.6327 36.6739L76.2517 44.5398C76.5822 44.7301 76.9527 44.8303 77.3332 44.8303C77.5235 44.8303 77.7087 44.8052 77.894 44.7552C78.4448 44.6049 78.9204 44.2394 79.2058 43.7487L83.2064 39.1824L83.1864 18.7188H83.1964Z" fill="#3B53A7"></path></g><path d="M80.7878 44.8271C80.4523 44.8271 80.1269 44.737 79.8365 44.5717L67.8597 37.652C67.4191 37.3967 67.1037 36.9861 66.9735 36.4954C66.8433 36.0047 66.9084 35.494 67.1637 35.0534L70.7738 28.8047C71.0292 28.3641 71.4397 28.0486 71.9304 27.9184C72.0906 27.8734 72.2509 27.8534 72.4161 27.8534C72.7516 27.8534 73.082 27.9435 73.3724 28.1087L80.0968 31.9941L91.7031 11.881C91.9534 11.4454 92.374 11.125 92.8597 10.9948C93.0249 10.9497 93.1901 10.9297 93.3554 10.9297C93.6858 10.9297 94.0113 11.0198 94.3017 11.185L97.9117 13.268C98.3524 13.5233 98.6678 13.9289 98.798 14.4246C98.9282 14.9103 98.8581 15.436 98.6077 15.8666L82.4451 43.8757C82.1948 44.3114 81.7742 44.6318 81.2885 44.762C81.1283 44.8071 80.963 44.8271 80.7978 44.8271H80.7878Z" fill="white"></path><g style="mix-blend-mode:multiply" opacity="0.3"><path d="M79.8555 31.5224L84.1314 24.2422L88.3073 26.7757L84.4319 34.3413L79.8555 31.5224Z" fill="#1E232E"></path></g><g style="mix-blend-mode:multiply" opacity="0.3"><path d="M85.1738 23.0222L86.1202 20.7891L90.296 23.3226L89.7502 25.8411L85.1738 23.0222Z" fill="#1E232E"></path></g><g style="mix-blend-mode:multiply" opacity="0.3"><path d="M66.6367 35.5923L70.7525 27.2656L74.9283 29.7992L71.2131 38.4112L66.6367 35.5923Z" fill="#1E232E"></path></g><path d="M80.2568 44.8283C79.8312 44.8283 79.4106 44.7132 79.0401 44.5029L67.0633 37.5832C66.5026 37.2577 66.097 36.732 65.9318 36.1061C65.7665 35.4802 65.8517 34.8243 66.1771 34.2635L69.7821 28.0148C70.1076 27.449 70.6333 27.0485 71.2592 26.8832C71.8751 26.718 72.546 26.8081 73.1018 27.1286L79.3655 30.7486L90.7064 11.0911C91.0269 10.5354 91.5626 10.1248 92.1835 9.95956C92.8093 9.78932 93.4653 9.87945 94.026 10.1999L97.6361 12.2828C98.1969 12.6083 98.6024 13.129 98.7677 13.7599C98.9329 14.3807 98.8428 15.0517 98.5223 15.6075L82.3597 43.6166C82.0443 44.1674 81.5035 44.583 80.8877 44.7482C80.6824 44.8033 80.4671 44.8333 80.2568 44.8333V44.8283ZM71.8851 28.6507C71.835 28.6507 71.785 28.6557 71.7349 28.6707C71.5797 28.7108 71.4545 28.8059 71.3794 28.9411L67.7743 35.1898C67.6942 35.325 67.6742 35.4802 67.7143 35.6305C67.7543 35.7807 67.8494 35.9058 67.9846 35.986L79.9614 42.9056C80.0916 42.9807 80.2518 43.0058 80.407 42.9657C80.5522 42.9257 80.6824 42.8255 80.7575 42.6953L96.9251 14.6812C97.0002 14.546 97.0252 14.3858 96.9852 14.2405C96.9451 14.0903 96.85 13.9652 96.7148 13.8901L93.1048 11.8071C92.9696 11.732 92.8144 11.707 92.6641 11.7471C92.5139 11.7871 92.3888 11.8873 92.3136 12.0174L80.0465 33.2772L72.1805 28.7358C72.0904 28.6857 71.9902 28.6557 71.8901 28.6557L71.8851 28.6507Z" fill="#1E232E"></path><path d="M84.6335 46.7177C84.298 46.7177 83.9726 46.6276 83.6822 46.4624L71.7054 39.5427C71.2648 39.2873 70.9494 38.8767 70.8192 38.3861C70.689 37.8954 70.7541 37.3847 71.0095 36.944L74.6195 30.6953C74.8749 30.2547 75.2854 29.9392 75.7761 29.8091C75.9363 29.764 76.0966 29.744 76.2618 29.744C76.5973 29.744 76.9277 29.8341 77.2181 29.9993L83.9425 33.8848L95.5488 13.7716C95.7991 13.336 96.2197 13.0156 96.7054 12.8854C96.8706 12.8403 97.0358 12.8203 97.2011 12.8203C97.5315 12.8203 97.857 12.9104 98.1474 13.0757L101.757 15.1586C102.198 15.4139 102.513 15.8195 102.644 16.3152C102.774 16.8009 102.704 17.3266 102.453 17.7572L86.2908 45.7664C86.0405 46.202 85.6199 46.5224 85.1342 46.6526C84.974 46.6977 84.8087 46.7177 84.6435 46.7177H84.6335Z" fill="#3B53A7"></path><path d="M84.6321 47.2424C84.2065 47.2424 83.7859 47.1272 83.4154 46.9169L71.4386 39.9972C70.8778 39.6718 70.4723 39.1511 70.307 38.5202C70.1368 37.8943 70.2269 37.2384 70.5524 36.6776L74.1624 30.4289C74.4879 29.8631 75.0136 29.4625 75.6395 29.2973C76.2554 29.1321 76.9263 29.2222 77.4821 29.5426L83.7458 33.1627L95.0867 13.5052C95.4021 12.9544 95.9429 12.5389 96.5587 12.3736C97.1896 12.2034 97.8405 12.2935 98.4063 12.614L102.016 14.6969C102.577 15.0223 102.983 15.5431 103.148 16.1739C103.313 16.7948 103.223 17.4657 102.903 18.0215L86.74 46.0307C86.4196 46.5815 85.8838 46.997 85.268 47.1623C85.0627 47.2173 84.8474 47.2474 84.6371 47.2474L84.6321 47.2424ZM76.2604 31.0648C76.2103 31.0648 76.1602 31.0698 76.1101 31.0848C75.9549 31.1248 75.8298 31.22 75.7547 31.3552L72.1496 37.6039C72.0695 37.7391 72.0495 37.8943 72.0895 38.0445C72.1296 38.1947 72.2247 38.3199 72.3599 38.4L84.3367 45.3197C84.4718 45.3948 84.6271 45.4198 84.7823 45.3798C84.9275 45.3397 85.0577 45.2396 85.1328 45.1094L101.3 17.1002C101.375 16.965 101.401 16.8048 101.36 16.6596C101.32 16.5094 101.225 16.3842 101.09 16.3091L97.48 14.2262C97.3448 14.1511 97.1896 14.1311 97.0344 14.1661C96.8892 14.2062 96.759 14.3063 96.6839 14.4365L84.4168 35.6962L76.5508 31.1549C76.4606 31.1048 76.3605 31.0748 76.2604 31.0748V31.0648Z" fill="#1E232E"></path><path d="M69.0556 64.5848C68.8653 64.5848 68.6751 64.5348 68.5048 64.4346C68.2495 64.2894 68.0692 64.0541 67.9941 63.7687C67.919 63.4833 67.9591 63.1879 68.1043 62.9375L72.2801 55.7124C72.4253 55.4571 72.6657 55.2768 72.946 55.2017C73.0412 55.1767 73.1363 55.1617 73.2314 55.1617C73.4217 55.1617 73.612 55.2117 73.7772 55.3119L77.8629 57.6702L82.209 50.1446C82.4043 49.8042 82.7698 49.5939 83.1603 49.5939C83.3506 49.5939 83.5409 49.6439 83.7061 49.7391L87.6516 52.0123L90.9913 46.2342C91.1865 45.8937 91.5521 45.6884 91.9426 45.6884C92.1329 45.6884 92.3231 45.7385 92.4884 45.8336L95.9983 47.8614L100.344 40.3359C100.49 40.0806 100.73 39.9003 101.01 39.8252C101.105 39.8002 101.201 39.7852 101.296 39.7852C101.486 39.7852 101.676 39.8352 101.841 39.9354C102.367 40.2358 102.547 40.9117 102.242 41.4325L97.3502 49.9093C97.1549 50.2448 96.7894 50.4551 96.3988 50.4551C96.2086 50.4551 96.0183 50.405 95.8531 50.3099L92.3432 48.282L89.0035 54.0601C88.8082 54.4006 88.4427 54.6109 88.0522 54.6109C87.8619 54.6109 87.6716 54.5608 87.5064 54.4657L83.5609 52.1925L79.2148 59.718C79.0696 59.9734 78.8293 60.1536 78.5489 60.2287C78.4537 60.2538 78.3586 60.2688 78.2635 60.2688C78.0732 60.2688 77.8829 60.2187 77.7177 60.1186L73.627 57.7603L70.0019 64.0391C69.8067 64.3795 69.4411 64.5898 69.0506 64.5898L69.0556 64.5848Z" fill="#1E232E"></path></svg> 