<?xml version="1.0" encoding="UTF-8"?> <svg xmlns="http://www.w3.org/2000/svg" width="97" height="100" viewBox="0 0 97 100" fill="none"><g id="Group"><g id="Group_2"><g id="Layer 1"><g id="Group_3"><path id="Vector" d="M5.38265 60.0842C1.68086 48.15 0.592933 35.3868 3.03253 24.5452C4.45956 18.206 6.94625 13.2138 10.1912 9.69569C12.5413 7.14777 15.2965 5.37694 18.3106 4.44443C21.4614 3.47424 24.6121 2.49935 27.7629 1.52916C27.7723 1.52916 27.7817 1.52916 27.7959 1.52445C31.3234 0.441228 35.1994 0.511873 39.1838 1.77406C43.2106 3.05037 47.3503 5.53236 51.4195 9.2624C51.4524 9.29066 51.4854 9.32363 51.5184 9.35189C59.5342 16.7507 65.7933 27.6489 69.5234 39.39L75.0619 37.6239C75.175 37.2424 75.5706 35.9473 76.0933 34.5061C76.4042 33.649 76.7574 32.74 77.1247 31.9394C77.3084 31.539 77.4968 31.1623 77.6899 30.8326C77.883 30.4982 78.0761 30.2109 78.288 29.9707L78.3304 29.9283C78.646 29.5893 79.0463 29.2549 79.5172 28.9111C80.3414 28.3129 81.3729 27.7007 82.4655 27.1073C85.7434 25.327 89.5724 23.7352 89.5818 23.7304C89.8173 23.6315 90.0857 23.6881 90.26 23.8717C90.4342 24.0554 90.4766 24.3286 90.3683 24.5546L85.5315 34.7557C85.6304 34.7369 85.7293 34.7416 85.8329 34.7746L95.7703 38.076C96.0199 38.1561 96.1847 38.3869 96.1894 38.6506C96.1894 38.9096 96.0293 39.1451 95.7844 39.2346C95.775 39.2346 93.1941 40.1671 90.1563 41.029C88.6398 41.4623 87.0103 41.8767 85.522 42.1499C84.7779 42.2865 84.0715 42.3901 83.4263 42.4372C82.781 42.4843 82.197 42.4843 81.6884 42.4042C81.4105 42.3571 81.1327 42.2629 80.8407 42.1452C80.3273 41.9285 79.7669 41.6224 79.2017 41.2786C77.5062 40.2472 75.7637 38.8861 75.7542 38.8767C75.7024 38.839 75.66 38.7872 75.6271 38.7354L69.8907 40.5627C73.4324 52.3086 74.4402 64.8033 72.0477 75.4424C70.6207 81.7816 68.134 86.7738 64.8891 90.2919C62.5531 92.8257 59.8121 94.5918 56.812 95.5243C56.7979 95.5291 56.7838 95.5385 56.7649 95.5432C53.6142 96.5134 50.4634 97.4883 47.3174 98.4585C43.771 99.5558 39.8714 99.4805 35.8588 98.1994C31.8462 96.9184 27.7158 94.4411 23.6608 90.7205L23.5619 90.631C15.4283 83.1238 9.10327 72.0138 5.39678 60.0795L5.38265 60.0842Z" fill="#304D59"></path><path id="Vector_2" d="M42.1554 99.9953C40.0219 99.9953 37.8225 99.6374 35.6184 98.9356C31.3986 97.5887 27.1976 95.0172 23.1331 91.2919L23.0531 91.2165C15.0938 83.8694 8.5662 72.9007 4.65248 60.3118C0.743466 47.7229 -0.0995612 34.9597 2.28352 24.3819C3.71526 18.0238 6.18782 12.9092 9.62587 9.17911C12.0655 6.53228 14.9148 4.69552 18.0844 3.71591L27.5838 0.781802H27.6167C29.2887 0.26374 31.0877 0 32.9245 0C35.0439 0 37.2291 0.353224 39.4144 1.04554C43.6484 2.38779 47.8635 4.96397 51.9374 8.69872L52.0363 8.79292C59.6989 15.8668 66.0663 26.3693 70.0177 38.4307L74.4401 37.0226C74.6237 36.4339 74.9581 35.3883 75.3679 34.2533C75.7399 33.2313 76.0932 32.3459 76.4228 31.6253C76.6301 31.1732 76.8279 30.7917 77.021 30.4526C77.2611 30.0381 77.4825 29.7226 77.7133 29.4636L77.9111 29.6331L77.718 29.4589L77.7604 29.4118C78.0948 29.0538 78.5045 28.6959 79.0649 28.2909C79.842 27.7304 80.8358 27.1229 82.098 26.4353C85.1404 24.7869 88.602 23.3128 89.266 23.0349C89.4544 22.9548 89.6287 22.9219 89.8124 22.9219C90.1891 22.9219 90.5518 23.0773 90.8108 23.3504C91.2017 23.7602 91.3006 24.3819 91.0604 24.8952L86.6286 34.2392L96.0103 37.3522C96.5707 37.5359 96.9475 38.0587 96.9569 38.6474C96.9663 39.2361 96.599 39.7636 96.0432 39.9614C95.7654 40.0603 93.274 40.9457 90.3634 41.7699C88.5737 42.2785 86.9913 42.66 85.6585 42.9049C84.8343 43.0556 84.1231 43.1545 83.4826 43.2063C83.1765 43.2299 82.8892 43.244 82.6113 43.244C82.2251 43.244 81.8813 43.2205 81.5611 43.1687C81.2502 43.1168 80.9253 43.0179 80.5391 42.8578C80.0398 42.6506 79.47 42.3492 78.7918 41.9347C77.3789 41.0729 75.9425 39.9991 75.4291 39.6034L70.8325 41.0681C74.3788 53.2049 75.0759 65.4453 72.787 75.6134C71.3553 81.9715 68.8827 87.0861 65.4446 90.8162C63.0286 93.4395 60.2075 95.2668 57.0709 96.2511L56.9908 96.2841L47.5386 99.1994C45.8195 99.7316 44.0063 100 42.1554 100V99.9953Z" fill="#304D59"></path><path id="Vector_3" d="M42.1554 99.9953C40.0219 99.9953 37.8225 99.6374 35.6184 98.9356C31.3986 97.5887 27.1976 95.0172 23.1331 91.2919L23.0531 91.2165C15.0938 83.8694 8.5662 72.9007 4.65248 60.3118C0.743466 47.7229 -0.0995612 34.9597 2.28352 24.3819C3.71526 18.0238 6.18782 12.9092 9.62587 9.17911C12.0655 6.53228 14.9148 4.69552 18.0844 3.71591L27.5838 0.781802H27.6167C29.2887 0.26374 31.0877 0 32.9245 0C35.0439 0 37.2291 0.353224 39.4144 1.04554C43.6484 2.38779 47.8635 4.96397 51.9374 8.69872L52.0363 8.79292C59.6989 15.8668 66.0663 26.3693 70.0177 38.4307L74.4401 37.0226C74.6237 36.4339 74.9581 35.3883 75.3679 34.2533C75.7399 33.2313 76.0932 32.3459 76.4228 31.6253C76.6301 31.1732 76.8279 30.7917 77.021 30.4526C77.2611 30.0381 77.4825 29.7226 77.7133 29.4636L77.9111 29.6331L77.718 29.4589L77.7604 29.4118C78.0948 29.0538 78.5045 28.6959 79.0649 28.2909C79.842 27.7304 80.8358 27.1229 82.098 26.4353C85.1404 24.7869 88.602 23.3128 89.266 23.0349C89.4544 22.9548 89.6287 22.9219 89.8124 22.9219C90.1891 22.9219 90.5518 23.0773 90.8108 23.3504C91.2017 23.7602 91.3006 24.3819 91.0604 24.8952L86.6286 34.2392L96.0103 37.3522C96.5707 37.5359 96.9475 38.0587 96.9569 38.6474C96.9663 39.2361 96.599 39.7636 96.0432 39.9614C95.7654 40.0603 93.274 40.9457 90.3634 41.7699C88.5737 42.2785 86.9913 42.66 85.6585 42.9049C84.8343 43.0556 84.1231 43.1545 83.4826 43.2063C83.1765 43.2299 82.8892 43.244 82.6113 43.244C82.2251 43.244 81.8813 43.2205 81.5611 43.1687C81.2502 43.1168 80.9253 43.0179 80.5391 42.8578C80.0398 42.6506 79.47 42.3492 78.7918 41.9347C77.3789 41.0729 75.9425 39.9991 75.4291 39.6034L70.8325 41.0681C74.3788 53.2049 75.0759 65.4453 72.787 75.6134C71.3553 81.9715 68.8827 87.0861 65.4446 90.8162C63.0286 93.4395 60.2075 95.2668 57.0709 96.2511L56.9908 96.2841L47.5386 99.1994C45.8195 99.7316 44.0063 100 42.1554 100V99.9953Z" fill="#1E232E"></path><path id="Vector_4" d="M6.07502 11.2266L6.07031 11.2313L6.07502 11.2266Z" fill="#304D59"></path><path id="Vector_5" d="M46.6819 69.2874C46.6206 69.2874 46.5641 69.2827 46.517 69.278C46.4605 69.2733 46.3946 69.2639 46.3192 69.2545L45.9142 69.1979C45.8577 69.1885 45.787 69.1744 45.7117 69.1556L45.4997 69.1132C45.4291 69.099 45.3632 69.0849 45.3066 69.0708C45.236 69.0567 45.1653 69.0331 45.0853 69.0096L44.6755 68.8918C44.6143 68.873 44.5437 68.8447 44.4683 68.8212C44.4683 68.8212 44.0963 68.6893 44.0397 68.6705C43.9738 68.6469 43.8985 68.6139 43.8184 68.5763L43.597 68.4821C43.5264 68.4538 43.4605 68.4256 43.4039 68.3973C43.3239 68.3596 43.2438 68.3172 43.1543 68.2748L42.9236 68.1571C42.8576 68.1241 42.8011 68.0959 42.7493 68.0723C42.6787 68.0347 42.6033 67.9923 42.5232 67.9452L42.0805 67.6908C41.9958 67.639 41.9063 67.5778 41.8074 67.5166C41.8074 67.5166 41.4636 67.2952 41.4118 67.2623C41.3223 67.2011 41.2281 67.1304 41.1292 67.0598C41.1292 67.0598 40.7854 66.8149 40.743 66.7819C40.6017 66.6736 40.4604 66.5605 40.3097 66.4381L40.0601 66.2356C39.834 66.0425 39.6033 65.8447 39.3772 65.6374L39.3348 65.5951C35.3457 61.9215 32.1243 56.0957 30.4948 49.6152C30.4053 49.2667 30.3252 48.9182 30.2452 48.5697C30.0898 47.8632 29.9532 47.1568 29.8401 46.4692C29.1949 42.5178 29.242 38.7077 29.9767 35.458C30.5796 32.7735 31.6439 30.5505 33.0474 29.0293C33.151 28.921 33.2499 28.8127 33.3535 28.7091C34.0694 28.0073 34.8653 27.4751 35.7225 27.1219C36.542 26.7875 37.4227 26.6133 38.3364 26.6133C38.5012 26.6133 38.6707 26.618 38.8403 26.6321C40.597 26.7499 42.4196 27.4563 44.2658 28.742C44.9063 29.1895 45.5515 29.7075 46.1826 30.2821L46.2391 30.3339C47.5673 31.5584 48.8247 33.0372 49.9739 34.7233C50.3554 35.2837 50.7227 35.863 51.0713 36.4565C51.594 37.3419 52.0885 38.2791 52.5454 39.2399C53.2141 40.648 53.8076 42.1504 54.3162 43.7046L49.9551 45.0939C49.4417 43.5916 48.7635 42.1834 47.9393 40.9024C47.7604 40.6245 47.572 40.3513 47.3789 40.0876C47.0963 39.6967 46.8043 39.3388 46.517 39.0091C46.1873 38.637 45.9001 38.3403 45.6175 38.0766C45.3396 37.8222 45.0853 37.6103 44.831 37.4172C44.5531 37.2053 44.2941 37.031 44.0303 36.8662C43.7525 36.6966 43.4934 36.5554 43.2344 36.4329L43.1873 36.4094C42.933 36.2916 42.6739 36.188 42.4055 36.1032C42.1465 36.0185 41.9251 35.9619 41.6849 35.9148L41.5436 35.8866C41.2799 35.8395 41.0209 35.8159 40.7571 35.8065H40.6111C40.3898 35.8065 40.1637 35.8159 39.9423 35.8442H39.8858C39.6456 35.8819 39.4007 35.9384 39.1558 36.009L39.0805 36.0279C39.0145 36.0467 38.9627 36.0703 38.9156 36.0844L38.7084 36.1597C38.6331 36.188 38.5813 36.2163 38.5342 36.2351L38.2845 36.3528C38.2375 36.3764 38.1951 36.4046 38.1574 36.4235L38.1244 36.4423C38.0679 36.4753 38.0208 36.4988 37.969 36.5318C37.8984 36.5742 37.8418 36.6119 37.7995 36.6448C37.7288 36.6919 37.6817 36.7249 37.6252 36.7626C37.564 36.805 37.5122 36.8474 37.4698 36.8803C37.4698 36.8803 37.3426 36.9792 37.3002 37.0169C37.2437 37.064 37.1966 37.1064 37.1589 37.1441C37.1589 37.1441 37.0318 37.2618 36.9894 37.3042C36.9329 37.3607 36.8858 37.4125 36.8434 37.4549L36.8104 37.4879L36.6786 37.6292C36.6362 37.681 36.5938 37.7328 36.5561 37.7799C36.5561 37.7799 36.4572 37.8976 36.4195 37.9494C36.3677 38.0201 36.3253 38.0766 36.2924 38.1237C36.2924 38.1237 36.1558 38.3168 36.1511 38.3262C36.104 38.3968 36.0663 38.4581 36.0286 38.5193L36.0051 38.5617C35.9768 38.6088 35.9203 38.6982 35.9203 38.6982C35.8685 38.7877 35.8214 38.8772 35.779 38.9573L35.7037 39.0939C35.6424 39.2163 35.5906 39.3246 35.5435 39.4235L35.4964 39.5271C35.4446 39.6496 35.3928 39.772 35.3457 39.8898L35.3222 39.951C35.1432 40.4173 35.0019 40.8929 34.8889 41.3827L34.8748 41.444C34.5027 43.1065 34.4462 44.9527 34.7052 46.926C34.9548 48.7863 35.487 50.6937 36.2547 52.4363C37.0836 54.3202 38.1715 55.9968 39.4007 57.2825C39.5844 57.4756 39.7728 57.6593 39.9659 57.8383C40.3803 58.2197 40.7807 58.54 41.181 58.8132C42.4243 59.6609 43.7383 60.1083 44.9817 60.1083C45.0712 60.1083 45.1559 60.1083 45.2407 60.1036C46.583 60.0424 47.8498 59.4301 48.8106 58.3846C49.7102 57.4097 50.3554 56.0863 50.7227 54.4614C50.7981 54.1223 50.864 53.7691 50.9111 53.4065C51.1749 51.5085 51.0571 49.3844 50.5767 47.2415L54.9614 45.8428C55.3335 47.2415 55.6208 48.6262 55.8186 49.9731C56.3743 53.7314 56.299 57.3579 55.6019 60.4568C55.3664 61.5118 55.0509 62.5149 54.6647 63.438L54.5234 63.7724C54.5093 63.8054 54.2126 64.4176 54.2126 64.4176L53.9865 64.8368C53.9394 64.9216 53.897 65.0016 53.8594 65.0723C53.8311 65.1241 53.7981 65.1759 53.7605 65.2324L53.6098 65.4726C53.5627 65.548 53.5203 65.6139 53.4826 65.6751C53.4496 65.7222 53.4167 65.7693 53.379 65.8211L53.2942 65.9389L53.2188 66.0472C53.1718 66.1131 53.1294 66.1791 53.087 66.2309C53.054 66.2732 53.0163 66.3203 52.9692 66.3721L52.8044 66.5747C52.7573 66.6359 52.7102 66.6924 52.6725 66.7348L52.3852 67.0409C52.3334 67.0974 52.2816 67.1492 52.2392 67.1916C52.2016 67.2293 52.1545 67.2717 52.1074 67.3141L51.9237 67.4836C51.8719 67.5307 51.8295 67.5731 51.7871 67.6061C51.7494 67.639 51.7023 67.6767 51.6458 67.7191L51.4621 67.8604C51.4103 67.9028 51.3632 67.9405 51.3256 67.9687C51.2785 68.0017 51.2267 68.0347 51.1702 68.0723L50.9912 68.1948C50.9347 68.2325 50.8876 68.2654 50.8452 68.289C50.7934 68.3219 50.7369 68.3502 50.6709 68.3879L50.4967 68.4868C50.4402 68.5197 50.3931 68.5433 50.3554 68.5668C50.3036 68.5951 50.2518 68.6187 50.1905 68.6422L49.9786 68.7364C49.9268 68.7599 49.8844 68.7835 49.842 68.7976C49.7902 68.8165 49.7337 68.84 49.6678 68.8636C49.6678 68.8636 49.3616 68.9766 49.3193 68.986C49.2722 69.0001 49.2062 69.019 49.1403 69.0378L48.9472 69.0896C48.886 69.1037 48.8389 69.1179 48.7965 69.1273C48.74 69.1414 48.6835 69.1508 48.6222 69.1603L48.4197 69.1979C48.3538 69.2121 48.2973 69.2215 48.2502 69.2262C48.1889 69.2356 48.1277 69.2403 48.0618 69.245L47.8781 69.2639C47.8075 69.2733 47.7462 69.278 47.6897 69.2827C47.6332 69.2827 47.5626 69.2827 47.4872 69.2874L47.1434 69.2968L46.7007 69.2733L46.6819 69.2874Z" fill="#68CDED"></path><path id="Vector_6" d="M41.5906 36.4266L41.5859 36.4219L41.5906 36.4266Z" fill="#304D59"></path><path id="Vector_7" d="M36.5789 38.6094H36.5742V38.6141L36.5789 38.6094Z" fill="#304D59"></path><path id="Vector_8" d="M4.0321 25.0272C5.39319 18.8811 7.77156 14.1243 10.8093 10.8323C13.0134 8.44447 15.5566 6.82435 18.34 5.97661C19.4421 5.64223 20.5488 5.30314 21.6509 4.96875C21.5661 5.03469 21.4861 5.10062 21.4107 5.16185C21.3259 5.23249 21.2317 5.30784 21.1376 5.38791C21.0386 5.47268 20.9445 5.55746 20.855 5.63752C20.7702 5.71287 20.6807 5.78823 20.5865 5.87771C20.4876 5.9672 20.3934 6.05668 20.3087 6.14145C20.2239 6.21681 20.1344 6.30158 20.0402 6.39577C19.9413 6.48997 19.8518 6.58416 19.7718 6.66893C19.6917 6.75371 19.6022 6.83848 19.5127 6.93738C19.4845 6.96564 19.4562 6.99861 19.4279 7.02687C19.3667 7.0928 19.3055 7.15874 19.249 7.22467C19.1689 7.30945 19.0841 7.40364 18.9947 7.50725C18.9005 7.61086 18.8157 7.70977 18.7356 7.80396C18.6556 7.89344 18.5755 7.99235 18.4907 8.09596C18.4012 8.20428 18.3165 8.3126 18.2411 8.40679C18.1658 8.50099 18.0857 8.6046 18.0009 8.71292C17.9162 8.82595 17.8361 8.93428 17.7607 9.03318C17.6854 9.13208 17.6053 9.23569 17.5252 9.35343C17.4452 9.46647 17.3698 9.5795 17.2992 9.68311C17.2238 9.79143 17.1485 9.89975 17.0637 10.0222C16.9836 10.1399 16.913 10.253 16.8423 10.3613C16.7717 10.4743 16.6963 10.5874 16.6163 10.7145C16.5409 10.837 16.4703 10.9547 16.4044 11.0677C16.3337 11.1808 16.2631 11.3032 16.183 11.4304C16.1076 11.5576 16.0417 11.68 15.9805 11.793C15.9098 11.9155 15.8392 12.0379 15.7685 12.1745C15.6979 12.3064 15.6367 12.4288 15.5755 12.5419C15.5095 12.669 15.4389 12.7962 15.3682 12.9375C15.3023 13.0693 15.2458 13.1918 15.1846 13.3095C15.1186 13.4414 15.0527 13.578 14.982 13.724C14.9161 13.8606 14.8596 13.9924 14.8078 14.1102C14.7466 14.2468 14.6806 14.3881 14.6147 14.5388C14.5535 14.68 14.4969 14.8166 14.4404 14.9485C14.3839 15.0851 14.3227 15.2264 14.2615 15.3771C14.2002 15.5231 14.1484 15.6691 14.0966 15.8009C14.0401 15.9422 13.9836 16.0882 13.9271 16.2389C13.8706 16.3849 13.8235 16.5309 13.7717 16.6628C13.7199 16.8088 13.6633 16.9642 13.6068 17.1244C13.555 17.2751 13.5079 17.4164 13.4608 17.5576C13.409 17.7084 13.3525 17.8685 13.3007 18.038C13.2489 18.1982 13.2018 18.3536 13.1594 18.4996C13.1123 18.6503 13.0652 18.8057 13.0134 18.9658C12.9616 19.1401 12.9192 19.3049 12.8721 19.4651C12.8297 19.6111 12.7873 19.7618 12.745 19.9219C12.6931 20.1056 12.6508 20.2892 12.6037 20.4635C12.566 20.6001 12.5283 20.7461 12.4906 20.9015C12.4106 21.2312 12.3305 21.5656 12.2552 21.9047C12.0338 22.9172 11.8407 23.9439 11.6759 24.9848C10.1594 34.7149 11.2755 45.7214 14.4028 56.1721C14.5158 56.5441 14.6288 56.9162 14.7466 57.2883C14.982 58.0324 15.2269 58.7718 15.4813 59.5065C19.2914 70.5553 25.348 80.7376 32.9729 87.7738L33.0718 87.8633C33.571 88.3248 34.075 88.7628 34.5789 89.1867L34.5883 89.1961L34.5977 89.2056C35.097 89.6247 35.5962 90.025 36.0954 90.4018L36.1142 90.4159L36.1284 90.4254C36.6276 90.8068 37.1268 91.1648 37.626 91.5086L37.6543 91.5321H37.659C38.1535 91.8759 38.6527 92.1962 39.1473 92.5023L39.1849 92.5259H39.1896C39.6842 92.832 40.1787 93.1146 40.6732 93.383H40.6685L40.7156 93.4066H40.7203C41.2101 93.6703 41.6952 93.9152 42.1803 94.146L42.2368 94.1742H42.2462C42.7313 94.405 43.2117 94.6122 43.6921 94.8006L43.758 94.8289H43.7674C44.2431 95.022 44.7188 95.1915 45.1944 95.3422L45.2698 95.3658H45.2792C45.7549 95.5212 46.2211 95.6531 46.6921 95.7708H46.6874L46.7722 95.7896H46.7816C47.2479 95.9074 47.7094 96.0063 48.1709 96.0864H48.1662L48.2604 96.1005H48.2698C48.7314 96.1805 49.1835 96.2465 49.6356 96.2936L49.7251 96.303H49.7345C49.8994 96.3218 50.0689 96.3313 50.2338 96.3454C49.127 96.6845 48.0202 97.0189 46.9135 97.358C43.6403 98.3517 40.028 98.281 36.2273 97.0612C32.4313 95.8367 28.4516 93.4537 24.5002 89.8319L24.406 89.7425C16.4797 82.4331 10.2065 71.5161 6.52351 59.7891C2.83114 48.062 1.72908 35.5344 4.06036 25.0319L4.0321 25.0272Z" fill="#FF6D00"></path><path id="Vector_9" d="M86.4688 36.2781L77.8125 38.8826C78.1469 39.1228 78.5189 39.3818 78.9098 39.6408C79.475 40.0176 80.0778 40.3897 80.61 40.677C80.8785 40.8183 81.1281 40.9407 81.3494 41.0302C81.5661 41.1197 81.7545 41.1762 81.8769 41.195C82.2396 41.2562 82.7435 41.261 83.3275 41.2139C84.3542 41.1338 85.6352 40.903 86.9633 40.5922C88.9555 40.1306 91.0655 39.4995 92.6667 38.9862C93.0247 38.8732 93.3591 38.7648 93.6605 38.6612L86.4688 36.2734V36.2781Z" fill="#68CDED"></path><path id="Vector_10" d="M84.646 33.7685L88.5645 25.5078C87.6037 25.9364 86.2803 26.5392 84.9145 27.2174C83.7465 27.7967 82.5455 28.4372 81.5235 29.0542C81.0149 29.365 80.5486 29.6711 80.153 29.9584C79.7621 30.2457 79.4371 30.5236 79.2252 30.7544L79.197 30.7826C79.0698 30.9239 78.9097 31.1547 78.7448 31.442C78.4528 31.9459 78.142 32.6194 77.8453 33.3447C77.4403 34.3337 77.0635 35.3981 76.7715 36.2741L84.646 33.7638V33.7685Z" fill="#68CDED"></path><path id="Vector_11" d="M48.9141 49.8649C48.8529 49.1867 48.7398 48.5038 48.5938 47.8209L43.4697 49.3468C42.8999 49.5164 42.3017 49.2008 42.1181 48.6357C41.9297 48.0564 42.2547 47.43 42.8386 47.251L47.991 45.6827C47.7649 45.0375 47.5153 44.4064 47.2186 43.7989C46.936 43.2196 46.6299 42.6638 46.2908 42.1411C46.1401 41.9056 45.98 41.6748 45.8151 41.4534C45.5844 41.1332 45.3442 40.8318 45.0899 40.5492C44.845 40.2713 44.6001 40.0123 44.3504 39.7815L44.3316 39.7627C44.1244 39.5696 43.9172 39.3953 43.7099 39.2399H43.7052L43.7005 39.2305C43.498 39.0751 43.2955 38.9385 43.0977 38.816L43.0836 38.8066C43.0459 38.7831 43.0082 38.7642 42.9705 38.7407C42.8104 38.6512 42.655 38.5664 42.4996 38.4911L42.4807 38.4817C42.4054 38.4487 42.33 38.4157 42.2594 38.3875C42.2405 38.378 42.217 38.3686 42.1981 38.3592C42.1039 38.3215 42.0098 38.2886 41.9203 38.2603L41.8967 38.2509H41.892C41.7696 38.2085 41.6471 38.1849 41.5247 38.1567C41.4917 38.152 41.4634 38.1379 41.4305 38.1331H41.4163L41.3457 38.1143H41.341H41.3316C41.2374 38.1002 41.1432 38.0955 41.0537 38.086C40.9736 38.0813 40.8983 38.0672 40.8182 38.0625H40.7994H40.7852C40.6204 38.0625 40.4603 38.0672 40.3001 38.0908H40.2719C40.14 38.1096 40.0081 38.1426 39.8763 38.1802C39.8574 38.185 39.8339 38.1897 39.8151 38.1944H39.7962V38.1991H39.7821C39.7538 38.2132 39.7162 38.2273 39.6643 38.2462C39.6643 38.2462 39.6408 38.2556 39.6314 38.2603C39.5984 38.2744 39.5701 38.2839 39.556 38.2886C39.5466 38.2886 39.5278 38.298 39.5136 38.3074C39.4948 38.3168 39.4665 38.3309 39.4336 38.3451C39.41 38.3592 39.3865 38.3639 39.3723 38.3733C39.3723 38.3733 39.3676 38.3733 39.3629 38.3733C39.3488 38.378 39.3347 38.3875 39.3252 38.3922C39.3017 38.4063 39.2593 38.4251 39.2075 38.4581C39.2075 38.4581 39.184 38.4675 39.1745 38.4769C39.1463 38.4911 39.1274 38.5052 39.1133 38.5099C39.1086 38.5099 39.1039 38.5146 39.0992 38.5193C39.0992 38.5193 39.0474 38.5523 39.0097 38.5759C39.0003 38.5853 38.9909 38.59 38.9767 38.5994H38.9673C38.9673 38.5994 38.9296 38.6277 38.9155 38.6418C38.8967 38.6512 38.8873 38.6606 38.8778 38.67C38.8778 38.67 38.8213 38.7171 38.7695 38.7548C38.7695 38.7548 38.7695 38.7595 38.7648 38.7595C38.7177 38.7972 38.6894 38.8208 38.6753 38.8302L38.6659 38.8396C38.6565 38.849 38.6424 38.8631 38.6235 38.8773C38.6094 38.8914 38.5905 38.9102 38.567 38.9291C38.567 38.9291 38.5576 38.9338 38.5529 38.9385C38.5529 38.9385 38.534 38.9573 38.5246 38.9668C38.5011 38.9903 38.4775 39.0091 38.4681 39.0186C38.4681 39.0186 38.4163 39.0751 38.3645 39.1269C38.3645 39.1269 38.3598 39.1316 38.3551 39.1363C38.3221 39.174 38.2938 39.1975 38.2797 39.2164L38.2703 39.2305C38.2514 39.254 38.2185 39.2964 38.1761 39.3482C38.1714 39.3529 38.1667 39.3624 38.162 39.3671C38.129 39.4095 38.1102 39.433 38.1007 39.4471C38.1007 39.4471 38.0913 39.4566 38.0913 39.4613C38.0678 39.4989 38.0348 39.546 37.9971 39.5978C37.9971 39.5978 37.983 39.6214 37.9736 39.6308C37.9594 39.6497 37.95 39.6638 37.9406 39.6779C37.9312 39.692 37.9171 39.7062 37.9124 39.7203C37.8888 39.7533 37.8605 39.8051 37.8229 39.8663C37.8229 39.8663 37.8182 39.8757 37.8135 39.8804C37.8135 39.8851 37.8087 39.8898 37.804 39.8946C37.7711 39.9464 37.7522 39.9793 37.7428 39.9935C37.7428 39.9935 37.7381 40.0029 37.7334 40.0076C37.7098 40.0453 37.6863 40.0924 37.6533 40.1536C37.6486 40.163 37.6439 40.1724 37.6392 40.1818C37.6392 40.1866 37.6298 40.196 37.6298 40.2007C37.6015 40.2478 37.5874 40.2807 37.578 40.2949C37.5544 40.342 37.5262 40.3985 37.5026 40.4503C37.5026 40.455 37.5026 40.4597 37.4932 40.4644C37.4932 40.4738 37.4838 40.4833 37.4791 40.4927C37.4696 40.5115 37.4649 40.5256 37.4555 40.5445C37.4461 40.568 37.4367 40.5822 37.432 40.5916C37.432 40.601 37.4225 40.6104 37.4178 40.6151C37.399 40.6622 37.3755 40.714 37.3566 40.7611C37.3566 40.7706 37.3472 40.78 37.3425 40.7941C37.3378 40.8082 37.3331 40.8176 37.3284 40.8318C37.3189 40.8553 37.3095 40.8742 37.3001 40.8977V40.9071L37.2766 40.9542C37.2766 40.9542 37.2766 40.9589 37.2766 40.9636C37.22 41.1191 37.1635 41.2839 37.1117 41.4487C37.1023 41.4864 37.0929 41.5147 37.0787 41.5571C37.0787 41.5665 37.074 41.5759 37.0693 41.5853C37.0175 41.7596 36.9704 41.9385 36.928 42.1269C36.669 43.2808 36.6031 44.5618 36.702 45.8805C36.7255 46.1678 36.7538 46.4598 36.7915 46.7518C36.9186 47.7079 37.1353 48.6733 37.4273 49.6153C37.6298 50.2699 37.8653 50.9151 38.1384 51.5368C38.9296 53.3453 40.0129 54.9607 41.2703 56.1193L41.2939 56.1381C41.6094 56.4301 41.925 56.6797 42.2358 56.8917C43.2578 57.5887 44.2327 57.876 45.0852 57.8336C45.9376 57.7865 46.6911 57.4333 47.3411 56.7316C47.958 56.0675 48.462 55.0738 48.7587 53.7598C48.8858 53.1993 48.9659 52.6059 49.0036 51.9936C49.013 51.8241 49.0224 51.6545 49.0224 51.4803C49.0318 50.9999 49.0224 50.5101 48.98 50.0156C48.98 49.9591 48.9706 49.8979 48.9659 49.8413L48.9141 49.8649Z" fill="white"></path><path id="Vector_12" d="M68.9582 41.4001L67.1921 41.9653L65.0492 42.6482L63.7682 43.0579C64.6395 46.1427 65.2659 49.2558 65.6285 52.3265C66.2785 57.8462 66.0807 62.9891 65.0351 67.6234C63.9943 72.253 62.1905 75.9783 59.685 78.6958C58.2815 80.217 56.6849 81.3756 54.9376 82.1527C53.2563 82.8968 51.4478 83.2783 49.5639 83.2783H49.3426C48.2405 83.2595 47.1102 83.1135 45.9846 82.8403C45.231 82.6566 44.4634 82.4164 43.7051 82.1244C43.7051 82.1244 40.5779 80.6503 38.5998 79.3081C38.5951 79.3081 38.5904 79.3034 38.581 79.2986C38.5716 79.2892 38.5575 79.2798 38.548 79.2751C38.2655 79.082 38.0064 78.8889 37.7851 78.7052C37.0786 78.1589 36.3769 77.5702 35.6893 76.9391L35.6186 76.8732C31.2999 72.8841 27.5133 67.3644 24.6828 60.9122C22.3987 55.708 20.8021 50.0282 20.0627 44.4755C19.295 38.725 19.4645 33.1394 20.5478 28.3308C21.4426 24.3559 22.912 21.0214 24.9183 18.4264C24.9748 18.2993 25.0502 18.1815 25.1632 18.0591L25.5353 17.6682L25.6342 17.5504L25.7425 17.4327C25.8037 17.3668 26.1287 17.023 26.1287 17.023C26.2276 16.9146 26.3359 16.7969 26.4584 16.6839C26.5573 16.585 26.6515 16.5002 26.7409 16.4248L26.9529 16.2317C27.0612 16.1328 27.1742 16.0245 27.3014 15.9162C27.405 15.8267 27.5039 15.7513 27.5934 15.6807L27.8147 15.5064C27.9278 15.417 28.0455 15.3228 28.1774 15.2286L28.2151 15.2003C28.3093 15.1344 28.3987 15.0732 28.4788 15.0214L28.5542 14.9743L28.5777 14.9554L28.7096 14.8659C28.8273 14.7859 28.9545 14.7011 29.0958 14.6163C29.2088 14.5457 29.3124 14.4892 29.4113 14.4374L29.6468 14.3055C29.7693 14.2348 29.9011 14.1595 30.0471 14.0888C30.1649 14.0276 30.2779 13.9805 30.3768 13.9334L30.617 13.8251C30.7442 13.7639 30.8807 13.7027 31.0361 13.6367C31.1586 13.5896 31.2669 13.5472 31.3705 13.5143L31.6154 13.4248C31.7473 13.3777 31.8886 13.3259 32.044 13.2741C32.3596 13.1752 32.6798 13.0904 32.9671 13.0198L33.0236 13.0056C33.9985 12.7843 35.0064 12.6712 36.0331 12.6712C37.7568 12.6712 39.5371 12.9915 41.3173 13.6179C44.2232 14.6399 47.1102 16.4531 49.9266 19.0387L49.9737 19.0811C50.3269 19.406 50.6707 19.7357 51.0098 20.0795C52.5074 21.5772 53.9627 23.3009 55.3285 25.1942C55.5357 25.4815 55.7383 25.7688 55.9408 26.0608L56.1574 26.381C56.4259 26.7813 56.6943 27.1864 56.9581 27.6008L57.0099 27.6809C57.1983 27.9823 57.3819 28.2837 57.5609 28.5804L57.5892 28.6275C58.1543 29.5695 58.7053 30.5444 59.214 31.5287L59.3741 31.8301L59.619 32.3152C60.3066 33.6904 60.9518 35.1033 61.5264 36.5115L61.5782 36.6339C62.1198 37.9762 62.6379 39.4079 63.1183 40.9009L64.3899 40.4959L68.3743 39.2242C64.5641 27.4642 57.7493 17.461 50.3363 10.6272L50.2468 10.5472C46.4414 7.05733 42.5418 4.66483 38.6611 3.43561C36.7113 2.81865 34.7803 2.50781 32.9247 2.50781C31.3046 2.50781 29.7222 2.748 28.2198 3.21426C28.1444 3.23781 27.6264 3.41207 27.6264 3.41207C27.5275 3.44503 27.0329 3.63813 27.0329 3.63813C26.9623 3.66639 26.7362 3.76529 26.7362 3.76529L26.4537 3.88774C26.3736 3.92542 25.8791 4.1609 25.8791 4.1609C25.8131 4.19387 25.3139 4.46232 25.3139 4.46232C25.2386 4.5047 24.8194 4.74961 24.7535 4.78728C24.6828 4.82967 24.2072 5.1358 24.2072 5.1358C24.1459 5.17818 23.7268 5.47018 23.6703 5.50786L23.1381 5.90818L22.6153 6.33205C22.5541 6.38385 22.1019 6.78417 22.1019 6.78417C22.0407 6.84069 21.6639 7.19862 21.6027 7.25985C21.5415 7.32107 21.1647 7.70256 21.1082 7.76378L20.868 8.02752C20.868 8.02752 20.6843 8.22533 20.6278 8.29126C20.5713 8.35249 20.2275 8.75752 20.1851 8.80932C20.1851 8.80932 19.7518 9.35093 19.7 9.41687C19.6482 9.48751 19.2526 10.015 19.2526 10.015C19.2526 10.015 18.8664 10.566 18.8146 10.6414C18.7722 10.7073 18.3954 11.2913 18.3954 11.2913L17.9857 11.9695L17.5901 12.6712L17.2086 13.3918C17.2086 13.3918 16.8789 14.0559 16.8366 14.1454L16.667 14.5174L16.4833 14.9225L16.1442 15.7231L15.8193 16.5473C15.8193 16.5473 15.5414 17.2961 15.5084 17.3997C15.5084 17.3997 15.2447 18.1768 15.2117 18.2757L14.9339 19.1753L14.6701 20.0984C14.6371 20.2114 14.4252 21.045 14.4252 21.045C14.3451 21.3653 14.2698 21.6902 14.1944 22.0152C13.9778 22.9807 13.7847 23.9885 13.6199 25.0058C12.0986 34.524 13.1254 45.7612 16.5116 56.6594C16.6246 57.0267 16.7424 57.3894 16.8601 57.752C20.6749 69.4602 26.8304 79.6519 34.1963 86.4479L34.2905 86.5374C34.7756 86.9801 35.2654 87.4134 35.7646 87.8278C36.245 88.2281 36.7301 88.619 37.234 89.0005C37.705 89.3585 38.1854 89.7023 38.694 90.0555C39.1556 90.371 39.6313 90.6819 40.1493 90.9974C40.6062 91.2753 41.0771 91.5437 41.5528 91.8028L41.5999 91.8263C42.0473 92.0665 42.5136 92.2973 42.994 92.5233L43.041 92.5469C43.4885 92.7541 43.9453 92.9472 44.4116 93.1309L44.4634 93.1544C44.8967 93.324 45.3441 93.4841 45.8103 93.6348L45.8715 93.6537C46.2954 93.7855 46.7334 93.9127 47.1855 94.0257L47.2609 94.0446C47.6801 94.1482 48.1086 94.2377 48.5513 94.313L48.6314 94.3271C49.0364 94.3978 49.4556 94.4543 49.8983 94.4967L49.9784 94.5061C50.374 94.5438 50.7884 94.5673 51.2076 94.5815C51.2076 94.5815 51.5043 94.5862 51.6079 94.5862C51.9046 94.5862 52.1966 94.5768 52.5027 94.5626H52.6016C52.9737 94.5344 53.3599 94.5014 53.7555 94.4449L53.8638 94.4308C54.2312 94.379 54.6079 94.313 55.0177 94.2235L55.1072 94.2047C55.4604 94.1246 55.8277 94.0304 56.2045 93.9127C58.9785 93.0744 61.4793 91.459 63.6363 89.1183C66.7306 85.765 69.0619 80.9046 70.3759 75.0647C72.5894 65.2545 72.4716 53.1978 68.9865 41.4001H68.9582Z" fill="#68CDED"></path><path id="Vector_13" d="M63.3921 52.5771C63.0483 49.6571 62.4549 46.6807 61.6213 43.7324L57.1 45.1736C57.505 46.6901 57.8206 48.1972 58.0372 49.6572C58.6353 53.6886 58.5506 57.5976 57.7923 60.965C57.5239 62.1471 57.1706 63.2775 56.7326 64.323C56.7326 64.323 56.6243 64.5914 56.5961 64.6574C56.5631 64.728 56.4312 65.0059 56.4312 65.0059C56.3888 65.0907 56.3465 65.1802 56.3182 65.2367L56.2852 65.3073L56.2052 65.4674C56.1722 65.5287 56.0074 65.8301 56.0074 65.8301C56.0074 65.8301 55.8237 66.1645 55.7907 66.2257C55.7389 66.3152 55.6871 66.3952 55.64 66.4706L55.4328 66.8003C55.4045 66.8474 55.3716 66.8945 55.315 66.9792L54.9006 67.5538V67.5632L54.7216 67.7799L54.3967 68.1708L54.2789 68.3074L54.034 68.5664C53.9775 68.6276 53.921 68.6888 53.8362 68.7736L53.8221 68.7972L53.7844 68.8301C53.7326 68.8772 53.6855 68.9196 53.6478 68.9573L53.2287 69.3388C53.1439 69.4094 53.0685 69.4706 52.9979 69.5224L52.866 69.6261C52.8095 69.6684 52.753 69.7203 52.6871 69.7674L52.3574 69.9981L52.2443 70.1112H52.1878C52.1313 70.1488 52.0701 70.1865 52.0042 70.2289C51.9382 70.2713 51.877 70.3043 51.7734 70.3608L51.6274 70.4408C51.5473 70.4879 51.4578 70.5397 51.3495 70.5915C51.2883 70.6245 51.2271 70.6481 51.18 70.6716L50.9586 70.7705C50.8785 70.8082 50.7844 70.8506 50.676 70.8977C50.6054 70.9259 50.5395 70.9495 50.4782 70.973L50.2098 71.0672C50.2098 71.0672 50.0402 71.1284 49.979 71.1473C49.8801 71.1803 49.7859 71.2038 49.7058 71.2226L49.2726 71.3357L48.8299 71.4204C48.7451 71.4346 48.6509 71.4534 48.5426 71.4722C48.4766 71.4817 48.4154 71.4864 48.3589 71.4958L47.8973 71.5382C47.8973 71.5382 47.6995 71.5476 47.6524 71.5523L47.0543 71.5617L46.4844 71.5335C46.4279 71.5335 46.3714 71.5288 46.3055 71.5193L45.8345 71.4581C45.745 71.4487 45.6461 71.4346 45.5378 71.4157C45.4813 71.4063 45.1469 71.3357 45.1469 71.3357H45.1328L45.0668 71.3215C44.9774 71.3027 44.8832 71.2839 44.7748 71.2603C44.7089 71.2462 44.3274 71.1379 44.3274 71.1379C44.2285 71.1096 44.1249 71.0813 44.0072 71.0484C43.9271 71.0248 43.8565 70.9966 43.7858 70.973L43.555 70.893C43.4656 70.86 43.3714 70.827 43.2819 70.7941L42.7732 70.5821C42.679 70.5444 42.5754 70.4973 42.4577 70.4455C42.3871 70.4126 42.3258 70.3796 42.2693 70.3514L41.69 70.0593C41.5864 70.0028 41.4875 69.9463 41.398 69.8945L41.2379 69.8003C41.139 69.7438 41.0307 69.6826 40.9176 69.6166L40.8564 69.579C40.7434 69.5083 40.6398 69.4424 40.5456 69.3812C40.442 69.3152 40.3289 69.2446 40.1924 69.1504L40.1453 69.1221C40.0275 69.0421 39.9192 68.962 39.7826 68.8631C39.6555 68.7736 39.5189 68.6747 39.3776 68.5664L38.6193 67.9636L38.544 67.8976C38.3179 67.7092 38.0918 67.5114 37.8611 67.2995L37.8187 67.2571C33.5235 63.2869 30.0619 57.0607 28.324 50.1705C28.2298 49.8031 28.1451 49.4311 28.0603 49.0637C27.8955 48.3243 27.7495 47.5708 27.6317 46.8361C26.9394 42.6021 26.9959 38.5 27.7918 34.9678C28.324 32.5941 29.1718 30.5548 30.3021 28.9017C30.4622 28.6662 30.6271 28.4402 30.7966 28.2235C30.9897 27.9739 31.1969 27.7337 31.4041 27.5124C31.5313 27.3758 31.6585 27.2439 31.7903 27.1121C32.7134 26.2078 33.7543 25.5108 34.8799 25.0492C35.6004 24.7525 36.3634 24.55 37.1452 24.4511C37.5408 24.3993 37.9411 24.3757 38.3462 24.3757C39.274 24.3757 40.2253 24.5123 41.1767 24.7761C42.8298 25.2376 44.4876 26.0854 46.1077 27.2957C46.6493 27.7008 47.1956 28.1529 47.7278 28.6427L47.7796 28.6898C49.2349 30.032 50.6054 31.638 51.8487 33.4654C52.2538 34.0588 52.6494 34.6852 53.0261 35.321C53.5866 36.2676 54.1141 37.2661 54.5945 38.2833C55.3056 39.7857 55.9367 41.3776 56.4783 43.026L60.9855 41.5895C60.5239 40.1484 60.0247 38.7684 59.4878 37.4403L59.4548 37.3603C58.9038 36.0086 58.2868 34.6475 57.6228 33.3241L57.3873 32.8578L57.2366 32.5705C56.7421 31.6239 56.2193 30.6867 55.6777 29.7871L55.6447 29.7306C55.4705 29.4433 55.3009 29.1608 55.1267 28.8829L55.0748 28.8028C54.8252 28.4119 54.5709 28.021 54.3072 27.6395L54.0999 27.3381C53.9069 27.0602 53.7138 26.7824 53.516 26.5092C52.2208 24.7148 50.8456 23.0853 49.4327 21.6677C49.1124 21.3474 48.7875 21.0366 48.4578 20.7305L48.3871 20.6645C45.8251 18.3097 43.1971 16.6519 40.5833 15.7335C39.0385 15.1919 37.5079 14.9141 36.0432 14.9141C35.1907 14.9141 34.3477 15.0083 33.5235 15.1966C33.255 15.2579 32.9913 15.3332 32.7228 15.4133C32.6239 15.4415 32.5203 15.4839 32.4073 15.5263L32.12 15.6299C32.0352 15.6582 31.9552 15.6864 31.8892 15.7147C31.7903 15.7571 31.6867 15.8042 31.569 15.856L31.2911 15.9832C31.2111 16.0208 31.1357 16.0491 31.0745 16.0821C30.9803 16.1292 30.8767 16.1904 30.7683 16.2516L30.4999 16.4023C30.4198 16.4447 30.3492 16.4871 30.2833 16.5248C30.1891 16.5813 30.0949 16.6472 29.9865 16.7226L29.8688 16.8026L29.7087 16.9062C29.638 16.9533 29.5721 16.9957 29.5109 17.0381C29.4261 17.0993 29.3319 17.1747 29.233 17.2548L28.9693 17.462C28.8939 17.5185 28.828 17.5703 28.7667 17.6221C28.682 17.6928 28.5972 17.7728 28.503 17.8623L28.2487 18.0931C28.178 18.159 28.1121 18.2155 28.0509 18.2768C27.9708 18.3568 27.886 18.4463 27.7918 18.5452L27.335 19.0303C25.2204 21.4369 23.6803 24.729 22.7619 28.8122C21.7352 33.3665 21.5798 38.679 22.3098 44.1704C23.021 49.5112 24.561 54.9885 26.7604 59.9995C29.4732 66.1739 33.0667 71.4346 37.164 75.2117L37.2347 75.2776C37.9223 75.9087 38.624 76.4927 39.3258 77.0296C39.6696 77.2792 42.2929 79.1348 44.6147 80.0485C45.2552 80.2934 45.9005 80.4959 46.5315 80.6514C47.5017 80.8868 48.4672 81.0093 49.3997 81.0234H49.5834C51.1517 81.0234 52.6541 80.7126 54.0529 80.0909C55.5176 79.441 56.8645 78.4567 58.0561 77.1662C60.2602 74.7784 61.9227 71.3027 62.8646 67.1205C63.8395 62.7971 64.0279 57.7719 63.4156 52.5818L63.3921 52.5771Z" fill="white"></path><g id="Vector_14" style="mix-blend-mode:multiply" opacity="0.3"><path d="M74.0914 61.5026C74.0066 57.6359 73.5874 53.6422 72.8527 49.6013L42.791 49.3281L74.0914 61.5026Z" fill="#1E232E"></path></g><g id="Vector_15" style="mix-blend-mode:multiply" opacity="0.3"><path d="M49.7062 96.3028L49.6167 96.2934C49.1646 96.2463 48.7077 96.185 48.2509 96.105H48.2415L48.1473 96.0861H48.152C47.6905 96.0061 47.2289 95.9072 46.7627 95.7894H46.7532L46.6685 95.7659H46.6732C46.2069 95.6481 45.736 95.5163 45.2603 95.3656H45.2509L45.1755 95.3373C44.7045 95.1819 44.2289 95.0123 43.7485 94.824H43.7391L43.6731 94.7957C43.1927 94.6073 42.7124 94.4001 42.2273 94.174H42.2178L42.1613 94.1411C41.6762 93.915 41.1911 93.6701 40.7013 93.4064H40.6966L40.6495 93.3781H40.6542C40.1597 93.1144 39.6699 92.8318 39.1707 92.5257H39.166L39.1283 92.4974C38.6338 92.1913 38.1346 91.871 37.6401 91.5319H37.6354L37.6071 91.5084C37.1079 91.1646 36.6087 90.8066 36.1094 90.4251L36.0953 90.4157L36.0765 90.4016C35.5772 90.0201 35.078 89.6198 34.5788 89.2053L34.5694 89.1959L34.56 89.1865C34.056 88.7626 33.5568 88.3246 33.0529 87.8631C33.0199 87.8348 32.9869 87.8019 32.954 87.7736C27.6132 82.8426 23.0449 76.3668 19.4749 69.1328L11.5957 72.3212C15.0432 79.0937 19.3808 85.1362 24.3777 89.7422C24.4107 89.7705 24.4436 89.7988 24.4719 89.8317C28.4233 93.4582 32.4029 95.8412 36.1989 97.061C39.9996 98.2855 43.6119 98.3562 46.8851 97.3577C47.9919 97.0187 49.0986 96.6843 50.2054 96.3452C50.0406 96.331 49.8757 96.3216 49.7062 96.3028Z" fill="#3B53A7"></path></g><g id="Vector_16" style="mix-blend-mode:multiply" opacity="0.3"><path d="M9.96045 68.8834L17.8868 65.7044C17.138 63.9854 16.4456 62.2334 15.8098 60.4531L7.82227 63.6557C8.47691 65.4265 9.18806 67.1738 9.96045 68.8834Z" fill="#3B53A7"></path></g><path id="Vector_17" d="M70.6829 18.0547C69.1664 18.0547 67.9277 19.2886 67.9277 20.8098C67.9277 22.331 69.1617 23.565 70.6829 23.565C72.2041 23.565 73.438 22.331 73.438 20.8098C73.438 19.2886 72.2041 18.0547 70.6829 18.0547ZM70.6829 21.9496C70.0518 21.9496 69.5431 21.4362 69.5431 20.8098C69.5431 20.1834 70.0565 19.6701 70.6829 19.6701C71.3093 19.6701 71.8226 20.1834 71.8226 20.8098C71.8226 21.4362 71.3093 21.9496 70.6829 21.9496Z" fill="#68CDED"></path><path id="Vector_18" d="M6.72585 79.2188C5.20934 79.2188 3.9707 80.4527 3.9707 81.9739C3.9707 83.4951 5.20463 84.729 6.72585 84.729C8.24707 84.729 9.48099 83.4951 9.48099 81.9739C9.48099 80.4527 8.24707 79.2188 6.72585 79.2188ZM6.72585 83.1136C6.09476 83.1136 5.58611 82.6003 5.58611 81.9739C5.58611 81.3475 6.09946 80.8342 6.72585 80.8342C7.35223 80.8342 7.86558 81.3475 7.86558 81.9739C7.86558 82.6003 7.35223 83.1136 6.72585 83.1136Z" fill="#68CDED"></path><path id="Vector_19" d="M63.5336 14.2937C64.1734 14.2937 64.6921 13.775 64.6921 13.1351C64.6921 12.4953 64.1734 11.9766 63.5336 11.9766C62.8937 11.9766 62.375 12.4953 62.375 13.1351C62.375 13.775 62.8937 14.2937 63.5336 14.2937Z" fill="#FF6D00"></path><path id="Vector_20" d="M72.2836 10.1961C72.9234 10.1961 73.4421 9.67734 73.4421 9.03748C73.4421 8.39762 72.9234 7.87891 72.2836 7.87891C71.6437 7.87891 71.125 8.39762 71.125 9.03748C71.125 9.67734 71.6437 10.1961 72.2836 10.1961Z" fill="#FF6D00"></path><path id="Vector_21" d="M1.15857 75.9461C1.79844 75.9461 2.31715 75.4273 2.31715 74.7875C2.31715 74.1476 1.79844 73.6289 1.15857 73.6289C0.518711 73.6289 0 74.1476 0 74.7875C0 75.4273 0.518711 75.9461 1.15857 75.9461Z" fill="#FF6D00"></path></g></g></g></g></svg> 