<?xml version="1.0" encoding="UTF-8"?> <svg xmlns="http://www.w3.org/2000/svg" width="103" height="92" viewBox="0 0 103 92" fill="none"><g id="Group"><g id="Group_2"><g id="Group_3"><path id="Vector" d="M69.2938 33.1562L97.8983 51.1361L97.8558 52.3742L97.8473 52.6263L97.8104 53.6576L97.8019 53.907L97.7651 54.9383L97.7566 55.1904L97.7226 56.2189L97.7141 56.4711L97.6773 57.4995L97.6688 57.7517L97.6319 58.7972L37.04 91.0282L8.43555 73.0484L8.47238 72.0029L8.48088 71.7508L8.51771 70.7223L8.52621 70.4702L8.56304 69.4389L8.57154 69.1867L8.60554 68.1582L8.61404 67.9061L8.65087 66.8776L8.65937 66.6254L8.70187 65.3845L69.2938 33.1562Z" fill="#32CFF0"></path><path id="Vector_2" d="M69.2938 33.1562L97.8983 51.1361L97.8558 52.3742L97.8473 52.6263L97.8104 53.6576L97.8019 53.907L97.7651 54.9383L97.7566 55.1904L97.7226 56.2189L97.7141 56.4711L97.6773 57.4995L97.6688 57.7517L97.6319 58.7972L37.04 91.0282L8.43555 73.0484L8.47238 72.0029L8.48088 71.7508L8.51771 70.7223L8.52621 70.4702L8.56304 69.4389L8.57154 69.1867L8.60554 68.1582L8.61404 67.9061L8.65087 66.8776L8.65937 66.6254L8.70187 65.3845L69.2938 33.1562Z" fill="#32CFF0"></path><g id="Vector_3" style="mix-blend-mode:multiply" opacity="0.3"><path d="M69.2938 33.1562L97.8983 51.1361L97.8558 52.3742L97.8473 52.6263L97.8104 53.6576L97.8019 53.907L97.7651 54.9383L97.7566 55.1904L97.7226 56.2189L97.7141 56.4711L97.6773 57.4995L97.6688 57.7517L97.6319 58.7972L37.04 91.0282L8.43555 73.0484L8.47238 72.0029L8.48088 71.7508L8.51771 70.7223L8.52621 70.4702L8.56304 69.4389L8.57154 69.1867L8.60554 68.1582L8.61404 67.9061L8.65087 66.8776L8.65937 66.6254L8.70187 65.3845L69.2938 33.1562Z" fill="#3454AC"></path></g><path id="Vector_4" d="M37.3064 83.3655L37.04 91.0266L8.43555 73.0468L8.70187 65.3828L37.3064 83.3655Z" fill="#32CFF0"></path><path id="Vector_5" d="M15.5381 65.2524L69.9082 36.7188L91.7582 50.7603L37.8953 79.2912L15.5381 65.2524Z" fill="white"></path><path id="Vector_6" d="M37.5464 79.8495L15.1892 65.8079C14.9909 65.6833 14.8747 65.4623 14.8832 65.2299C14.8917 64.9948 15.0249 64.7851 15.2317 64.6746L69.6018 36.141C69.8086 36.0333 70.0608 36.0418 70.2591 36.1693L92.1091 50.2109C92.3046 50.3355 92.418 50.5565 92.4095 50.7889C92.401 51.0212 92.2678 51.2309 92.061 51.3385L38.1981 79.8693C38.1074 79.9175 38.0082 79.943 37.9091 79.9458C37.7816 79.9487 37.6541 79.9147 37.5436 79.8467L37.5464 79.8495ZM69.8738 37.4783L16.8495 65.3064L37.9232 78.5406L90.463 50.7095L69.8738 37.4783Z" fill="#33343C"></path><path id="Vector_7" d="M36.9578 83.9214L8.3533 65.9416C8.15497 65.8169 8.03881 65.5959 8.04731 65.3636C8.05581 65.1313 8.18897 64.9188 8.39297 64.8083L68.9849 32.5772C69.1917 32.4667 69.441 32.4752 69.6393 32.5999L98.2438 50.5797C98.4422 50.7044 98.5583 50.9254 98.5498 51.1577C98.5413 51.39 98.4082 51.6025 98.2042 51.713L37.6123 83.9441C37.5216 83.9922 37.4224 84.0177 37.3233 84.0206C37.1958 84.0234 37.0683 83.9894 36.9578 83.9214ZM69.2654 33.9117L10.0079 65.4344L37.3346 82.6124L96.592 51.0897L69.2654 33.9117Z" fill="#33343C"></path><g id="Group_4"><path id="Vector_8" d="M44.7732 52.9015C49.7087 50.2779 57.5256 50.5471 62.2345 53.5078C66.9434 56.4685 66.7592 60.9961 61.8265 63.6197C56.891 66.2432 49.0741 65.9741 44.3652 63.0133C39.6563 60.0526 39.8405 55.5251 44.7732 52.9015Z" fill="#32CFF0"></path><path id="Vector_9" d="M44.0175 63.5657C41.5412 62.0102 40.2209 59.9703 40.3003 57.8227C40.3796 55.6638 41.8585 53.7088 44.468 52.3205C49.5791 49.6034 57.7049 49.8839 62.5838 52.9495C65.06 54.505 66.3803 56.5449 66.301 58.6925C66.2217 60.8514 64.7427 62.8064 62.1333 64.1947C59.9432 65.3591 57.2006 65.974 54.3957 66.0533C50.6558 66.161 46.8054 65.3166 44.0175 63.5629V63.5657ZM45.0799 53.4765C42.9012 54.6353 41.6659 56.1964 41.6064 57.8709C41.5469 59.5312 42.649 61.1603 44.7145 62.4579C49.2392 65.3025 56.7784 65.5631 61.5185 63.0415C63.6972 61.8827 64.9325 60.3216 64.992 58.6472C65.0515 56.9869 63.9494 55.3578 61.884 54.0601C59.2972 52.4339 55.7301 51.6519 52.2594 51.751C49.6585 51.8247 47.1114 52.3942 45.0799 53.4765Z" fill="#3454AC"></path></g><g id="Group_5"><path id="Vector_10" d="M66.7883 45.3238C69.6612 43.7967 74.2143 43.9525 76.9569 45.6752C79.6994 47.3978 79.5918 50.0355 76.7189 51.5655C73.846 53.0926 69.2929 52.934 66.5503 51.2113C63.8077 49.4887 63.9154 46.8538 66.7883 45.3238Z" fill="#32CFF0"></path><path id="Vector_11" d="M66.2023 51.7655C64.6752 50.8051 63.8621 49.5329 63.9102 48.1815C63.9584 46.8215 64.8735 45.6032 66.4828 44.7476C69.5881 43.0958 74.3423 43.2601 77.3058 45.1216C78.833 46.082 79.6461 47.3542 79.5979 48.7056C79.5498 50.0656 78.6346 51.2867 77.0253 52.1424C75.6909 52.8507 74.0533 53.2247 72.3816 53.2728C70.166 53.3351 67.8938 52.8252 66.2023 51.7627V51.7655ZM67.0948 45.9035C65.9162 46.5325 65.2475 47.357 65.2164 48.2296C65.1852 49.0938 65.783 49.9579 66.8965 50.6577C69.4577 52.267 73.7246 52.4172 76.4077 50.9892C77.5863 50.3602 78.255 49.5358 78.2861 48.6603C78.3173 47.7933 77.7195 46.932 76.606 46.2294C75.1441 45.3114 73.124 44.8666 71.1605 44.9232C69.6872 44.9657 68.2451 45.2887 67.092 45.9007L67.0948 45.9035Z" fill="#3454AC"></path></g><g id="Group_6"><path id="Vector_12" d="M29.8831 64.9567C32.756 63.4295 37.309 63.5854 40.0516 65.308C42.7942 67.0306 42.6865 69.6683 39.8136 71.1983C36.9407 72.7254 32.3876 72.5668 29.6451 70.8441C26.9025 69.1215 27.0101 66.4866 29.8831 64.9567Z" fill="#32CFF0"></path><path id="Vector_13" d="M29.2973 71.3983C27.7702 70.4379 26.9542 69.1657 27.0052 67.8143C27.0533 66.4543 27.9685 65.236 29.5778 64.3804C32.683 62.7286 37.4372 62.8929 40.4008 64.7544C41.9279 65.7148 42.7439 66.987 42.6929 68.3384C42.6447 69.6984 41.7296 70.9195 40.1203 71.7752C38.7858 72.4835 37.1482 72.8575 35.4766 72.9056C33.261 72.968 30.9887 72.458 29.2973 71.3955V71.3983ZM30.1898 65.5364C29.0111 66.1653 28.3425 66.9898 28.3113 67.8624C28.2801 68.7266 28.878 69.5907 29.9914 70.2905C32.5527 71.8998 36.8196 72.05 39.5026 70.622C40.6813 69.993 41.3499 69.1686 41.3811 68.2931C41.4123 67.4261 40.8144 66.5648 39.701 65.8622C38.239 64.9442 36.2189 64.4994 34.2555 64.556C32.7822 64.5985 31.3401 64.9215 30.1869 65.5335L30.1898 65.5364Z" fill="#3454AC"></path></g><path id="Vector_14" d="M36.6941 91.5814L8.08963 73.6016C7.8913 73.477 7.77514 73.2588 7.78364 73.0236L8.04997 65.3597C8.05846 65.1245 8.19163 64.9149 8.39562 64.8044L68.9875 32.5733C69.1943 32.4628 69.4437 32.4713 69.642 32.596L98.2465 50.5758C98.4448 50.7005 98.561 50.9186 98.5525 51.1538L98.2862 58.8177C98.2777 59.0529 98.1445 59.2625 97.9405 59.373L37.3486 91.6041C37.2579 91.6523 37.1588 91.6778 37.0596 91.6806C36.9321 91.6834 36.8046 91.6494 36.6941 91.5814ZM97.2322 51.4881L69.268 33.9106L9.34193 65.7847L9.1011 72.695L37.0653 90.2725L96.9885 58.3984L97.2294 51.4881H97.2322Z" fill="#33343C"></path><g id="Group_7"><path id="Vector_15" d="M74.0376 63.8275L45.4331 45.8477L32.5645 52.6928L61.1718 70.6726L74.0376 63.8275Z" fill="#FF6000"></path><path id="Vector_16" d="M60.823 71.2269L32.2185 53.2471C32.0202 53.1224 31.904 52.9014 31.9125 52.6691C31.921 52.4368 32.0542 52.2243 32.2582 52.1138L45.124 45.2686C45.3308 45.1581 45.5801 45.1667 45.7785 45.2913L74.383 63.2711C74.5813 63.3958 74.6975 63.6168 74.689 63.8491C74.6805 64.0814 74.5473 64.2939 74.3433 64.4044L61.4775 71.2495C61.3868 71.2977 61.2877 71.3232 61.1885 71.326C61.061 71.3289 60.9335 71.2949 60.823 71.2269ZM45.4045 46.6031L33.8703 52.7399L61.197 69.9179L72.7312 63.7811L45.4045 46.6031Z" fill="#33343C"></path></g><g id="Group_8"><path id="Vector_17" d="M60.8818 78.3616L73.7675 71.5193L74.0366 63.8242L61.1482 70.6694L60.8818 78.3616Z" fill="#FF6000"></path><g id="Vector_18" style="mix-blend-mode:multiply" opacity="0.3"><path d="M60.8818 78.3616L73.7675 71.5193L74.0366 63.8242L61.1482 70.6694L60.8818 78.3616Z" fill="#3454AC"></path></g><path id="Vector_19" d="M60.533 78.9188C60.3347 78.7941 60.2185 78.5731 60.227 78.3408L60.4933 70.6485C60.5018 70.4134 60.635 70.2037 60.839 70.0932L73.7274 63.2509C73.9343 63.1432 74.1836 63.1517 74.3819 63.2736C74.5802 63.3982 74.6964 63.6192 74.6879 63.8516L74.4216 71.5438C74.4131 71.779 74.2799 71.9886 74.0759 72.0991L61.1875 78.9414C61.0968 78.9896 60.9976 79.0151 60.8985 79.0179C60.771 79.0208 60.6435 78.9868 60.533 78.9188ZM73.3421 64.9367L61.7881 71.0707L61.5728 77.2528L73.1268 71.1188L73.3421 64.9367Z" fill="#33343C"></path></g><path id="Vector_20" d="M36.6912 91.5808L8.0867 73.601C7.88837 73.4764 7.77221 73.2582 7.78071 73.0231L8.04704 65.3591C8.05554 65.124 8.1887 64.9143 8.39553 64.8038C8.60235 64.6933 8.85168 64.7018 9.05001 64.8265L37.6545 82.8091C37.8528 82.9338 37.969 83.1519 37.9605 83.3871L37.6942 91.0482C37.6857 91.2834 37.5525 91.493 37.3457 91.6035C37.255 91.6517 37.1558 91.6772 37.0567 91.68C36.9292 91.6828 36.8017 91.6488 36.6912 91.5808ZM9.31633 66.5434L9.10384 72.6944L36.4277 89.8696L36.6402 83.7214L9.31633 66.5463V66.5434Z" fill="#33343C"></path><path id="Vector_21" d="M37.165 88.6731C37.3803 88.6674 37.59 88.5541 37.709 88.3529C37.8931 88.0413 37.7912 87.6418 37.4795 87.4576L25.2399 80.1932C24.9282 80.009 24.5287 80.111 24.3445 80.4227C24.1604 80.7343 24.2624 81.1338 24.574 81.318L36.8137 88.5824C36.9242 88.6476 37.046 88.6759 37.165 88.6731Z" fill="#33343C"></path><path id="Vector_22" d="M73.8775 69.6133C73.9767 69.6133 74.0759 69.5849 74.1694 69.5368L89.7551 61.1447C90.0724 60.9718 90.1914 60.5752 90.0214 60.2579C89.8514 59.9405 89.4519 59.8215 89.1346 59.9915L73.5489 68.3836C73.2316 68.5565 73.1126 68.9531 73.2826 69.2704C73.4044 69.4971 73.6395 69.6218 73.8775 69.6133Z" fill="#33343C"></path></g><g id="Group_9"><path id="Vector_23" d="M61.5135 23.1641L90.118 41.1439L90.0727 42.382L90.0642 42.6342L90.0302 43.6655L90.0217 43.9148L89.9848 44.9461L89.9763 45.1983L89.9395 46.2267L89.931 46.4789L89.897 47.5073L89.8857 47.7595L89.8517 48.805L29.2598 81.036L0.655273 63.0562L0.692106 62.0108L0.700605 61.7586L0.734604 60.7301L0.745938 60.478L0.779936 59.4467L0.788436 59.1945L0.825269 58.166L0.833768 57.9139L0.8706 56.8854L0.8791 56.6332L0.921599 55.3923L61.5135 23.1641Z" fill="#32CFF0"></path><g id="Vector_24" style="mix-blend-mode:multiply" opacity="0.3"><path d="M61.5135 23.1641L90.118 41.1439L90.0727 42.382L90.0642 42.6342L90.0302 43.6655L90.0217 43.9148L89.9848 44.9461L89.9763 45.1983L89.9395 46.2267L89.931 46.4789L89.897 47.5073L89.8857 47.7595L89.8517 48.805L29.2598 81.036L0.655273 63.0562L0.692106 62.0108L0.700605 61.7586L0.734604 60.7301L0.745938 60.478L0.779936 59.4467L0.788436 59.1945L0.825269 58.166L0.833768 57.9139L0.8706 56.8854L0.8791 56.6332L0.921599 55.3923L61.5135 23.1641Z" fill="#3454AC"></path></g><path id="Vector_25" d="M29.5261 73.3733L29.2598 81.0344L0.655273 63.0546L0.921599 55.3906L29.5261 73.3733Z" fill="#32CFF0"></path><path id="Vector_26" d="M7.75781 55.2602L62.1279 26.7266L83.9779 40.7682L30.115 69.299L7.75781 55.2602Z" fill="white"></path><path id="Vector_27" d="M29.7661 69.8573L7.40897 55.8157C7.21064 55.6911 7.09448 55.4701 7.10298 55.2378C7.11148 55.0026 7.24464 54.7929 7.45147 54.6824L61.8215 26.1488C62.0284 26.0411 62.2805 26.0496 62.4788 26.1771L84.3289 40.2187C84.5244 40.3434 84.6377 40.5644 84.6292 40.7967C84.6207 41.029 84.4875 41.2387 84.2807 41.3463L30.4178 69.8772C30.3271 69.9253 30.228 69.9508 30.1288 69.9537C30.0013 69.9565 29.8738 69.9225 29.7633 69.8545L29.7661 69.8573ZM62.0935 27.4861L9.06642 55.3143L30.1401 68.5484L82.6799 40.7174L62.0907 27.4861H62.0935Z" fill="#33343C"></path><path id="Vector_28" d="M29.1775 73.9292L0.573029 55.9494C0.374701 55.8247 0.258538 55.6038 0.267038 55.3714C0.275538 55.1391 0.4087 54.9266 0.612694 54.8161L61.2046 22.5851C61.4114 22.4746 61.6607 22.4831 61.8591 22.6077L90.4636 40.5875C90.6619 40.7122 90.7781 40.9332 90.7696 41.1655C90.7611 41.3978 90.6279 41.6103 90.4239 41.7208L29.832 73.9519C29.7413 74 29.6422 74.0255 29.543 74.0284C29.4155 74.0312 29.288 73.9972 29.1775 73.9292ZM61.4851 23.9195L2.22481 55.4423L29.5515 72.6203L88.8118 41.0975L61.4851 23.9195Z" fill="#33343C"></path><g id="Group_10"><path id="Vector_29" d="M36.99 42.9093C41.9255 40.2857 49.7424 40.5549 54.4513 43.5156C59.1602 46.4764 58.976 51.0039 54.0433 53.6275C49.1078 56.2511 41.2909 55.9819 36.582 53.0212C31.8731 50.0604 32.0573 45.5329 36.99 42.9093Z" fill="#32CFF0"></path><path id="Vector_30" d="M36.2343 53.5735C33.758 52.0181 32.4377 49.9781 32.517 47.8305C32.5964 45.6716 34.0753 43.7166 36.6848 42.3283C41.7959 39.6113 49.9217 39.8917 54.8006 42.9573C57.2768 44.5128 58.5971 46.5527 58.5178 48.7003C58.4385 50.8593 56.9595 52.8142 54.3501 54.2025C52.16 55.367 49.4174 55.9818 46.6125 56.0611C42.8726 56.1688 39.0222 55.3245 36.2343 53.5707V53.5735ZM37.2967 43.4843C35.118 44.6431 33.8827 46.2042 33.8232 47.8787C33.7637 49.539 34.8658 51.1681 36.9284 52.4657C41.4531 55.3103 48.9924 55.571 53.7324 53.0494C55.9112 51.8906 57.1465 50.3294 57.206 48.655C57.2655 46.9947 56.1634 45.3656 54.0979 44.068C51.5112 42.4417 47.9441 41.6597 44.4734 41.7589C41.8724 41.8325 39.3254 42.402 37.2939 43.4843H37.2967Z" fill="#3454AC"></path></g><g id="Group_11"><path id="Vector_31" d="M59.0081 35.3277C61.881 33.8006 66.434 33.9565 69.1766 35.6791C71.9192 37.4017 71.8115 40.0394 68.9386 41.5694C66.0657 43.0965 61.5126 42.9379 58.7701 41.2152C56.0275 39.4926 56.1351 36.8577 59.0081 35.3277Z" fill="#32CFF0"></path><path id="Vector_32" d="M58.4221 41.7694C56.8949 40.809 56.0818 39.5368 56.13 38.1854C56.1781 36.8254 57.0933 35.6071 58.7025 34.7515C61.8078 33.0997 66.562 33.264 69.5256 35.1255C71.0527 36.0859 71.8658 37.3581 71.8177 38.7124C71.7695 40.0723 70.8544 41.2934 69.2451 42.1491C67.9106 42.8574 66.273 43.2314 64.6014 43.2796C62.3858 43.3419 60.1135 42.8319 58.4221 41.7694ZM59.3145 35.9074C58.1359 36.5364 57.4672 37.3609 57.4361 38.2335C57.4049 39.0977 58.0027 39.9618 59.1162 40.6616C61.6775 42.2709 65.9443 42.4211 68.6274 40.9931C69.8061 40.3641 70.4747 39.5397 70.5059 38.6642C70.537 37.7972 69.9392 36.9359 68.8257 36.2333C67.3638 35.3153 65.3437 34.8705 63.3802 34.9271C61.9069 34.9696 60.4648 35.2926 59.3145 35.9046V35.9074Z" fill="#3454AC"></path></g><g id="Group_12"><path id="Vector_33" d="M22.0999 54.9645C24.9728 53.4373 29.5258 53.5932 32.2684 55.3158C35.011 57.0384 34.9033 59.6762 32.0304 61.2061C29.1575 62.7332 24.6044 62.5746 21.8619 60.852C19.1193 59.1293 19.2269 56.4944 22.0999 54.9645Z" fill="#32CFF0"></path><path id="Vector_34" d="M21.516 61.4062C19.9889 60.4457 19.1729 59.1736 19.2239 57.8221C19.2721 56.4621 20.1872 55.2438 21.7965 54.3882C24.9018 52.7364 29.656 52.9007 32.6195 54.7622C34.1467 55.7227 34.9626 56.9948 34.9116 58.3491C34.8635 59.709 33.9483 60.9302 32.339 61.7858C31.0046 62.4941 29.367 62.8681 27.6954 62.9163C25.4797 62.9786 23.2075 62.4686 21.516 61.4062ZM22.4085 55.5442C21.2299 56.1731 20.5612 56.9976 20.5301 57.8703C20.4989 58.7344 21.0967 59.5985 22.2102 60.2984C24.7714 61.9076 29.0383 62.0578 31.7214 60.6298C32.9 60.0009 33.5687 59.1764 33.5998 58.3009C33.631 57.4339 33.0332 56.5726 31.9197 55.87C30.4578 54.952 28.4377 54.5072 26.4742 54.5639C25.0009 54.6064 23.5588 54.9293 22.4085 55.5413V55.5442Z" fill="#3454AC"></path></g><path id="Vector_35" d="M28.9109 81.5892L0.306427 63.6094C0.1081 63.4848 -0.00806341 63.2666 0.000436345 63.0315L0.266762 55.3675C0.275262 55.1352 0.408424 54.9227 0.612418 54.8122L61.2043 22.5811C61.4111 22.4706 61.6605 22.4791 61.8588 22.6038L90.4633 40.5836C90.6616 40.7083 90.7778 40.9264 90.7693 41.1616L90.5029 48.8255C90.4944 49.0607 90.3613 49.2704 90.1573 49.3809L29.5654 81.6119C29.4747 81.6601 29.3756 81.6856 29.2764 81.6884C29.1489 81.6912 29.0214 81.6572 28.9109 81.5892ZM89.449 41.4959L61.4848 23.9184L1.56156 55.7925L1.32073 62.7028L29.2849 80.2803L89.2081 48.4062L89.449 41.4959Z" fill="#33343C"></path><g id="Group_13"><path id="Vector_36" d="M66.2535 53.8353L37.649 35.8555L24.7832 42.7006L53.3877 60.6804L66.2535 53.8353Z" fill="#FF6000"></path><path id="Vector_37" d="M53.0388 61.2347L24.4344 43.2549C24.236 43.1302 24.1199 42.9092 24.1284 42.6769C24.1369 42.4446 24.27 42.2321 24.474 42.1216L37.3398 35.2765C37.5466 35.166 37.796 35.1745 37.9943 35.2991L66.5988 53.2789C66.7971 53.4036 66.9133 53.6246 66.9048 53.8569C66.8963 54.0892 66.7631 54.3017 66.5591 54.4122L53.6933 61.2574C53.6027 61.3055 53.5035 61.331 53.4043 61.3339C53.2768 61.3367 53.1493 61.3027 53.0388 61.2347ZM37.6203 36.6109L26.0861 42.7477L53.4128 59.9257L64.947 53.7889L37.6203 36.6109Z" fill="#3454AC"></path></g><g id="Group_14"><path id="Vector_38" d="M53.0986 68.3694L65.9871 61.5271L66.2534 53.832L53.3678 60.6772L53.0986 68.3694Z" fill="#FF6000"></path><g id="Vector_39" style="mix-blend-mode:multiply" opacity="0.3"><path d="M53.0986 68.3694L65.9871 61.5271L66.2534 53.832L53.3678 60.6772L53.0986 68.3694Z" fill="#3454AC"></path></g><path id="Vector_40" d="M52.7527 68.9266C52.5544 68.8019 52.4382 68.5809 52.4467 68.3486L52.7131 60.6563C52.7216 60.4212 52.8547 60.2115 53.0587 60.101L65.9472 53.2587C66.154 53.1511 66.4033 53.1596 66.6016 53.2814C66.8 53.406 66.9161 53.627 66.9076 53.8594L66.6413 61.5516C66.6328 61.7868 66.4996 61.9965 66.2957 62.107L53.4072 68.9493C53.3165 68.9974 53.2174 69.0229 53.1182 69.0258C52.9907 69.0286 52.8632 68.9946 52.7527 68.9266ZM65.5618 54.9445L54.0078 61.0785L53.7925 67.2635L65.3465 61.1295L65.5618 54.9473V54.9445Z" fill="#33343C"></path></g><path id="Vector_41" d="M28.9109 81.5887L0.306427 63.6089C0.1081 63.4842 -0.00806341 63.266 0.000436345 63.0309L0.266762 55.3669C0.275262 55.1318 0.408424 54.9221 0.615252 54.8116C0.822079 54.7011 1.0714 54.7096 1.26973 54.8343L29.8742 72.8169C30.0726 72.9416 30.1887 73.1597 30.1802 73.3949L29.9139 81.056C29.9054 81.2912 29.7722 81.5008 29.5654 81.6113C29.4747 81.6595 29.3756 81.685 29.2764 81.6878C29.1489 81.6907 29.0214 81.6567 28.9109 81.5887ZM1.53606 56.5512L1.32356 62.7022L28.6474 79.8774L28.8599 73.7292L1.53606 56.5512Z" fill="#33343C"></path><path id="Vector_42" d="M8.76027 64.3577C8.97277 64.352 9.1796 64.2415 9.30143 64.046C9.48842 63.7372 9.39209 63.3349 9.08326 63.145L1.13883 58.2945C0.830007 58.1075 0.427686 58.2038 0.237858 58.5127C0.0508632 58.8215 0.147194 59.2238 0.456018 59.4136L8.40045 64.2642C8.51378 64.3322 8.63844 64.3633 8.76027 64.3605V64.3577Z" fill="#33343C"></path></g><g id="Group_15"><path id="Vector_43" d="M70.4316 13.7188L99.036 31.6986L98.9935 32.9395L98.985 33.1888L98.9482 34.2201L98.9397 34.4723L98.9057 35.5008L98.8972 35.7529L98.8604 36.7814L98.8519 37.0336L98.8151 38.0649L98.8066 38.3142L98.7697 39.3625L38.1807 71.5907L9.57617 53.6109L9.613 52.5654L9.6215 52.3133L9.6555 51.2848L9.664 51.0327L9.70084 50.0042L9.70933 49.752L9.74617 48.7207L9.75467 48.4686L9.78867 47.4401L9.79717 47.1879L9.8425 45.9498L70.4316 13.7188Z" fill="#32CFF0"></path><g id="Vector_44" style="mix-blend-mode:multiply" opacity="0.3"><path d="M99.0363 31.6953L98.9938 32.9363L98.9853 33.1856L98.9485 34.2169L98.94 34.4691L98.906 35.4975L98.8975 35.7497L98.8607 36.7782L98.8522 37.0303L98.8153 38.0616L98.8068 38.3109L98.77 39.3593L38.6484 70.9868L38.4473 63.9264L99.0363 31.6953Z" fill="#3454AC"></path></g><path id="Vector_45" d="M38.447 63.929L38.1807 71.5901L9.57617 53.6103L9.8425 45.9492L38.447 63.929Z" fill="#32CFF0"></path><path id="Vector_46" d="M16.6768 45.8149L71.0497 17.2812L92.8997 31.3228L39.0368 59.8537L16.6768 45.8149Z" fill="white"></path><path id="Vector_47" d="M38.688 60.412L16.3308 46.3704C16.1325 46.2458 16.0164 46.0248 16.0249 45.7924C16.0334 45.5573 16.1665 45.3476 16.3733 45.2371L70.7434 16.7035C70.9502 16.5958 71.2024 16.6043 71.4007 16.7318L93.2507 30.7734C93.4462 30.898 93.5596 31.119 93.5511 31.3514C93.5426 31.5837 93.4094 31.7934 93.2026 31.901L39.3397 60.4318C39.249 60.48 39.1498 60.5055 39.0507 60.5083C38.9232 60.5112 38.7957 60.4772 38.6852 60.4092L38.688 60.412ZM71.0154 18.0408L17.9883 45.8689L39.062 59.1031L91.6018 31.272L71.0126 18.0408H71.0154Z" fill="#33343C"></path><path id="Vector_48" d="M38.0984 64.4839L9.49393 46.5041C9.2956 46.3794 9.17944 46.1584 9.18794 45.9261C9.19644 45.6938 9.3296 45.4813 9.53359 45.3708L70.1255 13.1397C70.3323 13.0292 70.5816 13.0377 70.78 13.1624L99.3845 31.1422C99.5828 31.2669 99.6989 31.4879 99.6904 31.7202C99.6819 31.9525 99.5488 32.165 99.3448 32.2755L38.7529 64.5066C38.6622 64.5547 38.5631 64.5802 38.4639 64.5831C38.3364 64.5859 38.2089 64.5519 38.0984 64.4839ZM70.406 14.4742L11.1457 45.9969L38.4724 63.1749L97.7327 31.6522L70.406 14.4742Z" fill="#33343C"></path><g id="Group_16"><path id="Vector_49" d="M45.9119 33.464C50.8474 30.8404 58.6643 31.1095 63.3732 34.0703C68.082 37.031 67.8979 41.5586 62.9652 44.1822C58.0297 46.8058 50.2127 46.5366 45.5039 43.5759C40.795 40.6151 40.9792 36.0876 45.9119 33.464Z" fill="#32CFF0"></path><path id="Vector_50" d="M45.1562 44.1282C42.6799 42.5727 41.3596 40.5328 41.4389 38.3852C41.5183 36.2263 42.9972 34.2713 45.6066 32.883C50.7178 30.1659 58.8436 30.4464 63.7224 33.512C66.1987 35.0675 67.519 37.1074 67.4397 39.255C67.3603 41.4139 65.8814 43.3689 63.272 44.7572C61.0819 45.9216 58.3393 46.5365 55.5343 46.6158C51.7945 46.7235 47.9441 45.8791 45.1562 44.1254V44.1282ZM46.2186 34.039C44.0399 35.1978 42.8046 36.7589 42.7451 38.4334C42.6856 40.0937 43.7877 41.7228 45.8503 43.0204C50.375 45.865 57.9143 46.1256 62.6543 43.6041C64.8331 42.4453 66.0684 40.8841 66.1279 39.2097C66.1874 37.5494 65.0852 35.9203 63.0198 34.6226C60.433 32.9964 56.866 32.2144 53.3952 32.3135C50.7943 32.3872 48.2472 32.9567 46.2158 34.039H46.2186Z" fill="#33343C"></path></g><g id="Group_17"><path id="Vector_51" d="M67.929 25.8863C70.8019 24.3592 75.3549 24.515 78.0975 26.2377C80.8401 27.9603 80.7324 30.598 77.8595 32.128C74.9866 33.6551 70.4335 33.4964 67.691 31.7738C64.9484 30.0512 65.056 27.4163 67.929 25.8863Z" fill="#32CFF0"></path><path id="Vector_52" d="M67.3429 32.328C65.8158 31.3676 65.0027 30.0954 65.0509 28.744C65.099 27.384 66.0142 26.1657 67.6234 25.3101C70.7287 23.6583 75.4829 23.8226 78.4465 25.6841C79.9736 26.6445 80.7867 27.9167 80.7386 29.271C80.6904 30.6309 79.7753 31.852 78.166 32.7077C76.8315 33.416 75.1939 33.79 73.5223 33.8381C71.3067 33.9005 69.0344 33.3905 67.3429 32.328ZM68.2354 26.466C67.0568 27.095 66.3881 27.9195 66.357 28.7921C66.3258 29.6563 66.9236 30.5204 68.0371 31.2202C70.5984 32.8295 74.8652 32.9797 77.5483 31.5517C78.7269 30.9227 79.3956 30.0983 79.4268 29.2228C79.4579 28.3558 78.8601 27.4945 77.7466 26.7919C76.2847 25.8739 74.2646 25.4291 72.3011 25.4857C70.8278 25.5282 69.3857 25.8512 68.2354 26.4632V26.466Z" fill="#33343C"></path></g><g id="Group_18"><path id="Vector_53" d="M31.0198 45.5192C33.8927 43.992 38.4457 44.1479 41.1883 45.8705C43.9309 47.5931 43.8232 50.2308 40.9503 51.7608C38.0774 53.2879 33.5244 53.1293 30.7818 51.4066C28.0392 49.684 28.1469 47.0491 31.0198 45.5192Z" fill="#32CFF0"></path><path id="Vector_54" d="M30.434 51.9608C28.9069 51.0004 28.0909 49.7282 28.1419 48.3768C28.1901 47.0168 29.1052 45.7985 30.7145 44.9429C33.8197 43.2911 38.5739 43.4554 41.5375 45.3169C43.0646 46.2773 43.8806 47.5495 43.8296 48.9038C43.7814 50.2637 42.8663 51.4849 41.257 52.3405C39.9226 53.0488 38.2849 53.4228 36.6133 53.471C34.3977 53.5333 32.1255 53.0233 30.434 51.9608ZM31.3265 46.0989C30.1478 46.7278 29.4792 47.5523 29.448 48.4249C29.4169 49.2891 30.0147 50.1532 31.1281 50.853C33.6894 52.4623 37.9563 52.6125 40.6394 51.1845C41.818 50.5555 42.4866 49.7311 42.5178 48.8556C42.549 47.9886 41.9512 47.1273 40.8377 46.4247C39.3757 45.5067 37.3556 45.0619 35.3922 45.1185C33.9189 45.161 32.4768 45.484 31.3265 46.096V46.0989Z" fill="#33343C"></path></g><path id="Vector_55" d="M37.8318 72.1439L9.22733 54.1641C9.029 54.0395 8.91284 53.8213 8.92133 53.5861L9.18766 45.9222C9.19616 45.6899 9.32932 45.4774 9.53332 45.3669L70.1252 13.1358C70.332 13.0253 70.5814 13.0338 70.7797 13.1585L99.3842 31.1383C99.5825 31.263 99.6987 31.4811 99.6902 31.7163L99.4238 39.3802C99.4153 39.6154 99.2822 39.825 99.0782 39.9355L38.4863 72.1666C38.3956 72.2148 38.2965 72.2403 38.1973 72.2431C38.0698 72.2459 37.9423 72.2119 37.8318 72.1439ZM98.3699 32.0506L70.4057 14.4731L10.4825 46.3472L10.2416 53.2575L38.2058 70.835L98.129 38.9609L98.3699 32.0506Z" fill="#33343C"></path><g id="Group_19"><path id="Vector_56" d="M75.1744 44.3939L46.5699 26.4141L33.7041 33.2564L62.3086 51.2362L75.1744 44.3939Z" fill="#FF6000"></path><path id="Vector_57" d="M61.9597 51.7894L33.3553 33.8096C33.1569 33.6849 33.0408 33.4639 33.0493 33.2316C33.0578 32.9993 33.1909 32.7868 33.3949 32.6763L46.2607 25.8311C46.4675 25.7206 46.7169 25.7291 46.9152 25.8538L75.5197 43.8336C75.718 43.9583 75.8342 44.1793 75.8257 44.4116C75.8172 44.6439 75.684 44.8564 75.48 44.9669L62.6142 51.8121C62.5236 51.8602 62.4244 51.8857 62.3252 51.8885C62.1977 51.8914 62.0702 51.8574 61.9597 51.7894ZM46.5412 27.1656L35.007 33.3024L62.3337 50.4804L73.8679 44.3436L46.5412 27.1656Z" fill="#33343C"></path></g><g id="Group_20"><path id="Vector_58" d="M62.0205 58.9291L74.909 52.0868L75.1753 44.3945L62.2868 51.2368L62.0205 58.9291Z" fill="#FF6000"></path><g id="Vector_59" style="mix-blend-mode:multiply" opacity="0.3"><path d="M62.0205 58.9291L74.909 52.0868L75.1753 44.3945L62.2868 51.2368L62.0205 58.9291Z" fill="#3454AC"></path></g><path id="Vector_60" d="M61.6746 59.4813C61.4763 59.3566 61.3601 59.1356 61.3686 58.9033L61.6349 51.211C61.6434 50.9759 61.7766 50.7662 61.9806 50.6557L74.869 43.8134C75.0759 43.7057 75.3252 43.7142 75.5235 43.8361C75.7218 43.9607 75.838 44.1817 75.8295 44.4141L75.5632 52.1063C75.5547 52.3415 75.4215 52.5512 75.2175 52.6616L62.3291 59.5039C62.2384 59.5521 62.1392 59.5776 62.0401 59.5804C61.9126 59.5833 61.7851 59.5493 61.6746 59.4813ZM74.4837 45.4992L62.9297 51.6332L62.7144 57.8182L74.2684 51.6842L74.4837 45.502V45.4992Z" fill="#33343C"></path></g><path id="Vector_61" d="M37.8318 72.1433L9.22733 54.1635C9.029 54.0389 8.91284 53.8207 8.92133 53.5856L9.18766 45.9216C9.19616 45.6865 9.32932 45.4768 9.53615 45.3663C9.74298 45.2558 9.9923 45.2643 10.1906 45.389L38.7951 63.3716C38.9934 63.4963 39.1096 63.7144 39.1011 63.9496L38.8348 71.6107C38.8263 71.8459 38.6931 72.0555 38.4863 72.166C38.3956 72.2142 38.2965 72.2397 38.1973 72.2425C38.0698 72.2453 37.9423 72.2113 37.8318 72.1433ZM10.457 47.1059L10.2445 53.2569L37.5683 70.4321L37.7808 64.2839L10.457 47.1088V47.1059Z" fill="#33343C"></path><path id="Vector_62" d="M17.6812 54.9123C17.8937 54.9067 18.1005 54.7962 18.2223 54.6007C18.4093 54.2919 18.313 53.8895 18.0042 53.6997L10.0597 48.8492C9.7509 48.6622 9.34858 48.7585 9.15876 49.0674C8.97176 49.3762 9.06809 49.7785 9.37692 49.9683L17.3213 54.8188C17.4347 54.8868 17.5593 54.918 17.6812 54.9152V54.9123Z" fill="#33343C"></path><path id="Vector_63" d="M38.3027 69.2356C38.518 69.2299 38.7277 69.1166 38.8467 68.9154C39.0308 68.6038 38.9288 68.2043 38.6172 68.0201L26.3775 60.7557C26.0659 60.5715 25.6664 60.6735 25.4822 60.9852C25.2981 61.2968 25.4001 61.6963 25.7117 61.8805L37.9514 69.1449C38.0619 69.2101 38.1837 69.2384 38.3027 69.2356Z" fill="#33343C"></path><path id="Vector_64" d="M49.4961 61.4912C49.5896 61.4912 49.6802 61.4657 49.768 61.4232L62.4638 55.0881C62.7868 54.9266 62.9172 54.5328 62.7585 54.2098C62.597 53.8868 62.206 53.7565 61.8802 53.9151L49.1844 60.2503C48.8614 60.4118 48.7311 60.8056 48.8897 61.1286C49.0059 61.3637 49.2467 61.4969 49.4932 61.4912H49.4961Z" fill="#33343C"></path><path id="Vector_65" d="M75.0152 50.1797C75.1144 50.1797 75.2136 50.1513 75.3071 50.1032L90.8928 41.7111C91.2101 41.5383 91.3291 41.1416 91.1591 40.8243C90.9863 40.507 90.5896 40.388 90.2723 40.5579L74.6866 48.95C74.3692 49.1229 74.2503 49.5195 74.4203 49.8368C74.5421 50.0635 74.7772 50.1882 75.0152 50.1797Z" fill="#33343C"></path></g></g><path id="Vector_66" d="M92.2485 22.8544L97.5637 22.6391C97.7309 22.6334 97.8839 22.5541 97.9859 22.4238C98.0879 22.2934 98.1275 22.1234 98.0935 21.9619L97.3597 18.409C97.3201 18.2164 97.1812 18.0577 96.9942 17.9926C96.8299 17.9359 96.6514 17.9557 96.5041 18.0492C96.4842 18.0606 96.4672 18.0747 96.4474 18.0917L91.8689 21.8599C91.7952 21.9194 91.7414 21.9959 91.7074 22.0781C91.6535 22.2084 91.6479 22.3586 91.7017 22.4974C91.7895 22.7241 92.0077 22.8686 92.2514 22.8601L92.2485 22.8544ZM93.8805 21.6588L96.4417 19.5509L96.8526 21.5398L93.8805 21.6588Z" fill="#3B52A1"></path><path id="Vector_67" d="M34.3167 27.7874L29.5171 25.4924C29.367 25.4216 29.1941 25.4188 29.044 25.4868C28.8938 25.5548 28.7805 25.6851 28.7323 25.8438L27.7209 29.3287C27.667 29.5185 27.7152 29.7253 27.8483 29.8698C27.9673 29.9973 28.1345 30.0625 28.3073 30.0483C28.33 30.0483 28.3527 30.0426 28.3782 30.0398L34.1863 28.847C34.2798 28.8272 34.362 28.7875 34.4328 28.7308C34.5405 28.6402 34.617 28.5099 34.634 28.3654C34.6623 28.1245 34.5377 27.8922 34.3167 27.7874ZM32.3164 28.082L29.0666 28.7478L29.6333 26.7986L32.3164 28.082Z" fill="#33343C"></path><path id="Vector_68" d="M97.8407 15.0485C98.7559 14.9465 99.416 14.1192 99.3112 13.2041C99.2064 12.2889 98.3819 11.6288 97.4668 11.7336C96.5516 11.8384 95.8915 12.6629 95.9963 13.578C96.1011 14.4932 96.9256 15.1533 97.8407 15.0485ZM97.5772 12.7054C97.9569 12.6629 98.2997 12.9377 98.3422 13.3146C98.3847 13.6914 98.1099 14.037 97.7331 14.0795C97.3563 14.122 97.0106 13.85 96.9681 13.4704C96.9256 13.0907 97.2004 12.7479 97.5772 12.7054Z" fill="#FF6000"></path><path id="Vector_69" d="M31.3554 22.5876C32.2705 22.4856 32.9307 21.6583 32.8258 20.7431C32.721 19.828 31.8965 19.1678 30.9814 19.2727C30.0663 19.3775 29.4061 20.202 29.5109 21.1171C29.6158 22.0323 30.4402 22.6924 31.3554 22.5876ZM31.0919 20.2445C31.4716 20.202 31.8144 20.4768 31.8569 20.8536C31.8994 21.2304 31.6245 21.5761 31.2477 21.6186C30.8709 21.6611 30.5252 21.3891 30.4827 21.0094C30.4402 20.6298 30.7151 20.287 31.0919 20.2445Z" fill="white"></path><path id="Vector_70" d="M71.6806 3.32585C72.5957 3.22385 73.2559 2.39654 73.151 1.4814C73.049 0.56626 72.2217 -0.0938861 71.3066 0.0109442C70.3915 0.115774 69.7313 0.940251 69.8361 1.85539C69.941 2.77053 70.7654 3.43068 71.6806 3.32585ZM71.4171 0.982749C71.7967 0.94025 72.1396 1.21507 72.1821 1.5919C72.2246 1.96872 71.9497 2.31438 71.5729 2.35688C71.1961 2.39938 70.8504 2.12738 70.8079 1.74773C70.7654 1.36807 71.0403 1.02525 71.4171 0.982749Z" fill="#3B52A1"></path><path id="Vector_71" d="M101.904 17.3528C102.29 17.3528 102.604 17.0394 102.604 16.6529C102.604 16.2664 102.29 15.9531 101.904 15.9531C101.517 15.9531 101.204 16.2664 101.204 16.6529C101.204 17.0394 101.517 17.3528 101.904 17.3528Z" fill="white"></path><path id="Vector_72" d="M77.2945 7.22385C77.681 7.22385 77.9944 6.91053 77.9944 6.52403C77.9944 6.13754 77.681 5.82422 77.2945 5.82422C76.908 5.82422 76.5947 6.13754 76.5947 6.52403C76.5947 6.91053 76.908 7.22385 77.2945 7.22385Z" fill="white"></path><path id="Vector_73" d="M24.7828 22.216C25.1693 22.216 25.4826 21.9027 25.4826 21.5162C25.4826 21.1297 25.1693 20.8164 24.7828 20.8164C24.3963 20.8164 24.083 21.1297 24.083 21.5162C24.083 21.9027 24.3963 22.216 24.7828 22.216Z" fill="#FF6000"></path><path id="Vector_74" d="M72.0748 10.2629C72.4613 10.2629 72.7746 9.94959 72.7746 9.56309C72.7746 9.1766 72.4613 8.86328 72.0748 8.86328C71.6883 8.86328 71.375 9.1766 71.375 9.56309C71.375 9.94959 71.6883 10.2629 72.0748 10.2629Z" fill="#33343C"></path></g></svg> 