<?xml version="1.0" encoding="UTF-8"?> <svg xmlns="http://www.w3.org/2000/svg" width="374" height="308" viewBox="0 0 374 308" fill="none"><path opacity="0.5" fill-rule="evenodd" clip-rule="evenodd" d="M155.994 31.319L159.18 28.1781L173.013 14.4519L179.919 7.59899L186.825 0.746094L186.826 0.746217L193.752 7.61939L200.658 14.4723L229.325 42.9173L231.798 45.3715C230.647 45.3715 229.528 45.5108 228.459 45.7732C222.429 47.2532 217.965 52.6503 217.965 59.0773L217.862 195.197H155.994L155.706 59.0569C155.689 52.6207 151.21 47.2322 145.179 45.7657C144.12 45.5081 143.012 45.3715 141.873 45.3715H141.832L141.873 45.3307L144.31 42.9122L155.994 31.319ZM181.777 9.4711L186.825 4.46151L215.328 59.0773L215.227 192.56H158.626L158.344 59.0513V59.0497C158.324 51.9102 153.713 45.8718 147.313 43.648L157.846 33.1971L157.852 33.1911L161.031 30.0562L161.038 30.0502L174.871 16.324L181.777 9.4711ZM186.825 4.46151L215.328 59.0753C215.329 51.9406 219.927 45.8932 226.327 43.6577L198.801 16.3444L191.895 9.4915L186.825 4.46151ZM136.426 64.5017L133.809 67.0983L133.446 67.4591L116.9 83.8775L44.6719 155.547L33.0856 167.044L30.4277 169.681H34.1721H59.2243C66.8499 169.681 73.0573 175.821 73.0573 183.408V192.6V195.237H75.6947H133.809H136.447V192.6V68.1968V64.5017L136.467 64.4609L136.433 64.4949L136.426 64.5017ZM118.757 85.7496L133.809 70.8137V192.6H75.6947V183.408C75.6947 174.342 68.2846 167.044 59.2243 167.044H36.83L46.5295 157.419L118.757 85.7496ZM239.985 195.303H237.348V192.665V68.2623V64.5673V64.5469L237.368 64.5673L239.985 67.1639L240.369 67.545L256.915 83.9634L329.123 155.613L340.709 167.11L343.367 169.747H339.622H314.57C306.924 169.747 300.737 175.906 300.737 183.473V192.665V195.303H298.1H239.985ZM298.1 192.665V183.473C298.1 174.433 305.484 167.11 314.57 167.11H336.964L327.265 157.485L255.058 85.8355L239.985 70.8793V192.665H298.1ZM229.57 380.015L218.194 368.726L218.128 368.661H218.107L218.128 368.634L218.169 368.579L218.128 368.538L218.107 368.518L186.947 337.598H186.926L186.885 337.619L158.343 365.921L156.116 368.13L155.705 368.538L155.689 368.554L155.684 368.559H155.705L155.699 368.574L155.684 368.62L153.088 371.196L144.365 379.852L141.974 382.224L141.851 382.346L141.728 382.224V382.222V378.753V279.681V277.044H139.09H120.824C107.566 277.044 96.8165 287.711 96.8165 300.866V306.492V310.207L94.1791 307.59L44.7936 258.586L13.6333 227.666L3.13641 217.251L0.478516 214.613H4.22285H369.612H373.354L370.7 217.251L360.261 227.626L329.203 258.423L279.756 307.488L277.119 310.105V306.39V300.866C277.119 287.711 266.369 277.044 253.111 277.044H234.845H232.208V279.681V378.916V382.122L231.961 382.387L231.694 382.122L230.088 380.528L229.57 380.015ZM229.57 376.299L221.61 368.401L221.663 368.331L220.027 366.707L188.805 335.726L188.033 334.961H186.947H186.926H186.309L185.755 335.235L185.714 335.256L185.331 335.445L185.028 335.746L154.259 366.258L154.258 366.258L153.826 366.687L149.282 371.196H149.343L144.365 376.136V277.044V274.407H141.728H120.824C106.129 274.407 94.1791 286.235 94.1791 300.866V303.875L46.6512 256.714L15.4909 225.794L6.88074 217.251H366.959L358.404 225.753L358.402 225.755L327.346 256.55L327.346 256.551L279.756 303.773V300.866C279.756 286.235 267.806 274.407 253.111 274.407H232.208H229.57V277.044V376.299Z" fill="white"></path></svg> 