<?xml version="1.0" encoding="UTF-8"?> <svg xmlns="http://www.w3.org/2000/svg" width="97" height="100" viewBox="0 0 97 100" fill="none"><path d="M28.6674 96.4768L20.6541 91.8496C15.0008 88.5905 11.4974 81.7792 11.0186 72.5443L9.5918 45.0547L17.8739 49.8334L19.3006 77.323C19.7746 86.4162 23.1656 93.1494 28.6674 96.4768Z" fill="white"></path><g style="mix-blend-mode:multiply" opacity="0.3"><path d="M19.0176 72.7231C19.0176 72.7231 21.0014 89.9225 23.5764 92.6392C23.5764 92.6392 12.4066 89.6244 11.3756 77.7217C10.8625 75.5913 10.9114 67.7734 10.9114 67.7734L19.0225 72.7231H19.0176Z" fill="#3B53A7"></path></g><g style="mix-blend-mode:multiply" opacity="0.3"><path d="M10.9837 64.4233L18.5768 69.031L18.6012 63.9005L10.5977 59.4688L10.9837 64.4233Z" fill="#3B53A7"></path></g><path d="M84.6531 60.9033C84.6433 61.1573 84.7264 61.3968 84.8877 61.5775C84.9903 61.6948 85.1173 61.7877 85.2688 61.8463L94.7089 65.5305C94.748 65.5451 94.7871 65.5598 94.8213 65.5647C95.1095 65.638 95.4076 65.5744 95.647 65.3936C95.9109 65.1884 96.0526 64.8562 96.0184 64.519L95.3196 58.3576C95.2854 58.0742 95.134 57.825 94.8994 57.6637C94.6649 57.5074 94.3717 57.4585 94.0981 57.5367L85.3567 60.0189C84.9561 60.1312 84.6775 60.4879 84.658 60.8984L84.6531 60.9033ZM93.5313 59.7061L93.9222 63.1509L88.6402 61.0938L93.5313 59.7061Z" fill="white"></path><path d="M81.2959 66.4961C79.7518 66.4961 78.4961 67.7518 78.4961 69.2959C78.4961 70.8399 79.7518 72.0957 81.2959 72.0957C82.8399 72.0957 84.0957 70.8399 84.0957 69.2959C84.0957 67.7518 82.8399 66.4961 81.2959 66.4961ZM81.2959 70.4588C80.6558 70.4588 80.1379 69.936 80.1379 69.3008C80.1379 68.6656 80.6607 68.1427 81.2959 68.1427C81.9311 68.1427 82.4539 68.6607 82.4539 69.3008C82.4539 69.9409 81.9311 70.4588 81.2959 70.4588Z" fill="#1E232E"></path><path d="M12.8115 18.2109C11.2675 18.2109 10.0117 19.4667 10.0117 21.0107C10.0117 22.5548 11.2675 23.8105 12.8115 23.8105C14.3555 23.8105 15.6113 22.5548 15.6113 21.0107C15.6113 19.4667 14.3555 18.2109 12.8115 18.2109ZM12.8115 22.1736C12.1714 22.1736 11.6535 21.6508 11.6535 21.0156C11.6535 20.3804 12.1763 19.8576 12.8115 19.8576C13.4467 19.8576 13.9695 20.3755 13.9695 21.0156C13.9695 21.6557 13.4467 22.1736 12.8115 22.1736Z" fill="white"></path><path d="M1.17757 20.07C1.82792 20.07 2.35514 19.5428 2.35514 18.8924C2.35514 18.2421 1.82792 17.7148 1.17757 17.7148C0.527216 17.7148 0 18.2421 0 18.8924C0 19.5428 0.527216 20.07 1.17757 20.07Z" fill="#1E232E"></path><path d="M84.9901 53.2067C85.6404 53.2067 86.1676 52.6795 86.1676 52.0291C86.1676 51.3788 85.6404 50.8516 84.9901 50.8516C84.3397 50.8516 83.8125 51.3788 83.8125 52.0291C83.8125 52.6795 84.3397 53.2067 84.9901 53.2067Z" fill="#1E232E"></path><path d="M81.5595 13.0644L80.1327 42.2007C79.4243 56.6101 72.1732 73.3159 61.1451 85.5656C59.7623 87.0998 58.355 88.5999 56.9381 90.0316C52.2815 94.7369 47.1461 97.7029 42.4896 98.3772C41.0677 98.5775 39.6605 98.7094 38.2777 98.768C34.745 98.9244 31.5983 98.167 28.9305 96.6279L28.6666 96.4715C23.1648 93.1489 19.7689 86.4109 19.2998 77.3177L17.873 49.8281C24.6453 45.9191 30.1325 36.4106 30.1325 28.5927L69.2952 5.98438C69.2952 13.8023 74.7873 16.9734 81.5595 13.0644ZM49.7114 74.7085C59.43 69.0943 67.3114 55.4472 67.3114 44.2187C67.3114 32.9903 59.43 28.4461 49.7114 34.0604C39.9879 39.6746 32.1065 53.3266 32.1065 64.5501C32.1065 75.7737 39.9879 80.3227 49.7114 74.7085Z" fill="#68CDED"></path><path d="M73.2772 7.96925L81.5592 13.0704C74.787 16.9794 69.2949 13.8082 69.2949 5.99035L69.3829 5.82422L73.2772 7.96925Z" fill="white"></path><g style="mix-blend-mode:multiply" opacity="0.3"><path d="M73.2772 7.96925L81.5592 13.0704C74.787 16.9794 69.2949 13.8082 69.2949 5.99035L69.3829 5.82422L73.2772 7.96925Z" fill="#3B53A7"></path></g><path d="M69.3882 5.82447L69.2954 5.98572L30.1278 28.6038L21.8457 23.8203L61.0182 1.20703L69.3882 5.82447Z" fill="white"></path><path d="M67.3163 44.2151C67.3163 55.4436 59.4348 69.0907 49.7162 74.7049C39.9927 80.3191 32.1113 75.7652 32.1113 64.5465C32.1113 53.3278 39.9927 39.671 49.7162 34.0567C59.4348 28.4425 67.3163 32.9964 67.3163 44.2151ZM51.3531 59.245L61.4089 41.8209L58.5211 40.1547L48.4654 57.5788L41.7615 53.709L38.8738 58.7124L48.4654 64.2533L51.3531 59.2499V59.245Z" fill="white"></path><path d="M21.8454 23.8203L30.1274 28.599C30.1274 36.4169 24.6403 45.9254 17.868 49.8343L9.58594 45.0556C16.3582 41.1467 21.8454 31.6382 21.8454 23.8203Z" fill="white"></path><path d="M49.1443 66.1101C48.8267 66.1101 48.5189 66.027 48.2452 65.8707L39.1178 60.5985C38.7025 60.359 38.4045 59.9682 38.2774 59.504C38.1553 59.0398 38.2188 58.556 38.4582 58.1407L41.2091 53.3816C41.4486 52.9663 41.8395 52.6682 42.3036 52.5412C42.4502 52.5021 42.6066 52.4825 42.7629 52.4825C43.0805 52.4825 43.3933 52.5656 43.6669 52.7219L48.4895 55.5071L57.1576 40.4821C57.3922 40.0716 57.7928 39.7687 58.2472 39.6416C58.3987 39.6026 58.56 39.5781 58.7163 39.5781C59.029 39.5781 59.3369 39.6612 59.6105 39.8175L62.3614 41.4056C62.7767 41.645 63.0748 42.031 63.2018 42.4952C63.324 42.9594 63.2605 43.448 63.021 43.8633L50.703 65.2061C50.4684 65.6166 50.0678 65.9195 49.6134 66.0466C49.4619 66.0856 49.3055 66.1101 49.1492 66.1101H49.1443Z" fill="#FF6D00"></path><path d="M37.3734 99.9992C34.0362 99.9992 30.997 99.2223 28.3291 97.6783C28.2851 97.6539 28.2412 97.6245 28.1972 97.5903C28.1434 97.5659 28.0897 97.5415 28.0408 97.5122C22.1139 93.9306 18.5812 86.7821 18.0926 77.3909L16.6658 49.9012C16.6414 49.4468 16.8759 49.0217 17.2668 48.7921C23.6921 45.0834 28.9203 36.0245 28.9203 28.6024C28.9203 28.1724 29.15 27.7717 29.5213 27.5567L68.6938 4.93859C69.0701 4.7236 69.5245 4.7236 69.9007 4.93859C70.2721 5.15358 70.5017 5.55425 70.5017 5.98423C70.5017 9.31661 71.562 11.7646 73.4921 12.8786C75.4221 13.9927 78.0704 13.6897 80.9582 12.0187C81.3393 11.7988 81.8181 11.8037 82.1895 12.0333C82.5657 12.263 82.7856 12.6783 82.766 13.1229L81.3393 42.2592C80.6161 57.0497 73.2233 73.951 62.0438 86.3717C60.6219 87.9499 59.1951 89.4646 57.7977 90.8816C52.9555 95.7727 47.5807 98.8607 42.6652 99.5692C41.1895 99.7793 39.7335 99.9162 38.3311 99.9748C38.0086 99.9894 37.691 99.9943 37.3734 99.9943V99.9992ZM29.3992 95.5186C29.4432 95.5381 29.492 95.5626 29.536 95.587C32.0573 97.0431 34.9743 97.7076 38.2285 97.5659C39.5527 97.5121 40.9306 97.3802 42.3231 97.1848C46.7207 96.5496 51.6069 93.7058 56.0826 89.1861C57.4507 87.8033 58.8531 86.313 60.2505 84.7592C71.0734 72.7343 78.2317 56.3998 78.9304 42.142L80.2594 15.053C77.2984 16.2745 74.5231 16.255 72.2901 14.965C70.0327 13.6604 68.6254 11.2271 68.215 8.00222L31.3195 29.306C31.0116 37.1092 25.7052 46.3099 19.1138 50.4924L20.5063 77.2638C20.951 85.8342 24.0733 92.2888 29.2917 95.4453C29.3308 95.4697 29.365 95.4942 29.3992 95.5186Z" fill="#1E232E"></path><path d="M41.8445 78.3242C39.9584 78.3242 38.2091 77.8796 36.6553 76.9805C32.9418 74.8355 30.8945 70.4184 30.8945 64.5403C30.8945 52.9454 39.0642 38.7999 49.1053 33.0049C54.1918 30.0634 59.0438 29.6285 62.7573 31.7687C66.4708 33.9137 68.5181 38.3308 68.5181 44.2089C68.5181 55.7989 60.3533 69.9493 50.3122 75.7443C47.3463 77.4545 44.4635 78.3193 41.8445 78.3193V78.3242ZM57.5682 32.8485C55.3694 32.8485 52.9019 33.6059 50.3171 35.0962C40.9405 40.5101 33.3132 53.7174 33.3132 64.5452C33.3132 69.5242 34.9305 73.1986 37.8671 74.8941C40.8037 76.5896 44.7957 76.1498 49.1102 73.6628C58.4819 68.2489 66.1092 55.0416 66.1092 44.2187C66.1092 39.2396 64.4919 35.5652 61.5553 33.8697C60.3826 33.1906 59.034 32.8534 57.5682 32.8534V32.8485Z" fill="#1E232E"></path><path d="M28.9309 97.8403C28.7257 97.8403 28.5205 97.7866 28.3299 97.6791L20.0479 92.9004C13.9401 89.3774 10.3048 82.1703 9.81132 72.613L8.38455 45.1233C8.36012 44.6689 8.59466 44.2438 8.98555 44.0141C15.4109 40.3055 20.6391 31.2466 20.6391 23.8244C20.6391 23.3945 20.8687 22.9938 21.2401 22.7788L60.4126 0.160682C60.7791 -0.0494241 61.2286 -0.0543103 61.5999 0.150909L73.8643 6.91338L82.1903 12.039C82.7571 12.3908 82.9379 13.1335 82.5861 13.7003C82.2343 14.2671 81.4916 14.443 80.9248 14.0961L72.6427 8.99978L61.0234 2.594L23.0382 24.5281C22.7304 32.3264 17.424 41.532 10.8325 45.7145L12.2251 72.4859C12.6746 81.2029 15.8848 87.7064 21.2596 90.8091L29.5417 95.5878C30.1183 95.92 30.3137 96.6579 29.9815 97.2344C29.7567 97.6204 29.3512 97.8403 28.9358 97.8403H28.9309Z" fill="#1E232E"></path><path d="M30.1233 29.8092C29.9181 29.8092 29.7129 29.7555 29.5223 29.648L21.2402 24.8693C20.6637 24.537 20.4682 23.7992 20.8005 23.2227C21.1327 22.6461 21.8705 22.4506 22.4471 22.7829L30.7292 27.5616C31.3058 27.8938 31.5012 28.6317 31.1689 29.2082C30.9442 29.5942 30.5386 29.8141 30.1233 29.8141V29.8092Z" fill="#1E232E"></path><path d="M17.8694 51.0397C17.6642 51.0397 17.459 50.9859 17.2684 50.8784L8.98633 46.0998C8.40976 45.7675 8.21431 45.0297 8.54657 44.4531C8.87883 43.8766 9.61664 43.6811 10.1932 44.0134L18.4753 48.792C19.0519 49.1243 19.2473 49.8621 18.915 50.4387C18.6903 50.8247 18.2847 51.0446 17.8694 51.0446V51.0397Z" fill="#1E232E"></path><path d="M49.1456 66.3685C48.784 66.3685 48.4274 66.2707 48.1146 66.09L38.9873 60.8178C38.5133 60.5441 38.1713 60.0995 38.0296 59.5669C37.8879 59.0343 37.9612 58.4822 38.2348 58.0033L40.9857 53.2442C41.2593 52.7653 41.704 52.4282 42.2366 52.2865C42.7545 52.1448 43.3262 52.223 43.7953 52.4917L48.3932 55.1449L56.9293 40.3447C57.198 39.8756 57.6525 39.5238 58.1802 39.387C58.7128 39.2453 59.2649 39.3186 59.7437 39.5922L62.4947 41.1802C62.9686 41.4538 63.3107 41.8985 63.4524 42.4311C63.5941 42.9637 63.5208 43.5207 63.2471 43.9947L50.9291 65.3375C50.6603 65.8066 50.201 66.1584 49.6782 66.2952C49.5023 66.344 49.3215 66.3636 49.1456 66.3636V66.3685ZM42.7643 54.0406C42.7643 54.0406 42.7252 54.0406 42.7056 54.0504C42.6421 54.0651 42.5933 54.1042 42.559 54.1628L39.8081 58.9219C39.769 58.9903 39.7739 59.0587 39.7837 59.1027C39.7935 59.1467 39.8228 59.2053 39.8961 59.2444L49.0235 64.5166C49.0772 64.5459 49.1407 64.5557 49.2043 64.541C49.2629 64.5264 49.3166 64.4873 49.346 64.4335L61.664 43.0858C61.6933 43.0321 61.7031 42.9637 61.6884 42.905C61.6738 42.8415 61.6347 42.7927 61.5761 42.7633L58.8251 41.1753C58.7714 41.146 58.7079 41.1362 58.6444 41.1509C58.5857 41.1656 58.532 41.2046 58.5027 41.2584L49.0528 57.6369L42.8767 54.07C42.8424 54.0504 42.7985 54.0358 42.7594 54.0358L42.7643 54.0406Z" fill="#1E232E"></path><path d="M3.22889 30.3623L7.05966 26.5609C7.33817 26.2872 7.72907 26.1651 8.11019 26.2335C8.49131 26.3019 8.81868 26.5511 8.98481 26.9029L12.1364 33.5823L14.7652 30.9731C15.0388 30.6995 15.4346 30.5773 15.8157 30.6408C16.1968 30.7092 16.5242 30.9584 16.6903 31.3102L19.8419 37.9896L22.4707 35.3804C22.6954 35.1557 22.9984 35.0335 23.316 35.0335H23.3209C23.6434 35.0335 23.9414 35.1605 24.1662 35.3853C24.3909 35.6101 24.5131 35.913 24.5131 36.2355C24.5131 36.558 24.3861 36.856 24.1613 37.0808L20.3305 40.8823C20.1058 41.107 19.8028 41.2292 19.4852 41.2292C19.4168 41.2292 19.3484 41.2243 19.28 41.2096C18.8989 41.1412 18.5715 40.892 18.4054 40.5402L15.2538 33.8608L12.625 36.47C12.3465 36.7437 11.9556 36.8658 11.5745 36.7974C11.1934 36.729 10.866 36.4798 10.6999 36.128L7.54828 29.4486L4.91951 32.0578C4.45044 32.522 3.68819 32.522 3.22401 32.0529C2.99924 31.8282 2.8722 31.5252 2.87709 31.2027C2.87709 30.8851 3.00413 30.5822 3.22889 30.3574V30.3623Z" fill="#1E232E"></path></svg> 