<?xml version="1.0" encoding="UTF-8"?> <svg xmlns="http://www.w3.org/2000/svg" width="250" height="300" viewBox="0 0 250 300" fill="none"><path opacity="0.2" d="M1.83091 246.379L93.044 298.786C95.3494 300.112 98.1241 300.367 100.635 299.478L180.626 271.409C182.478 270.759 182.709 268.239 181.005 267.259L85.51 212.596L2.26732 241.636C0.15126 242.377 -0.112243 245.259 1.83091 246.37V246.379Z" fill="#262830"></path><path d="M55.9375 98.6816C55.9375 97.5701 56.8267 96.6809 57.9382 96.6809C59.0498 96.6809 59.9392 97.5701 59.9392 98.6816C59.9392 99.7932 59.0416 100.682 57.9382 100.682C56.8349 100.682 55.9375 99.7849 55.9375 98.6816ZM55.9375 86.8744C55.9375 85.7711 56.8267 84.8737 57.9382 84.8737C59.0498 84.8737 59.9392 85.7711 59.9392 86.8744C59.9392 87.9777 59.0416 88.8753 57.9382 88.8753C56.8349 88.8753 55.9375 87.986 55.9375 86.8744ZM55.9375 75.0756C55.9375 73.9641 56.8267 73.0747 57.9382 73.0747C59.0498 73.0747 59.9392 73.9641 59.9392 75.0756C59.9392 76.1872 59.0416 77.0764 57.9382 77.0764C56.8349 77.0764 55.9375 76.179 55.9375 75.0756ZM55.9375 63.2684C55.9375 62.1651 56.8267 61.2677 57.9382 61.2677C59.0498 61.2677 59.9392 62.1651 59.9392 63.2684C59.9392 64.3718 59.0416 65.2692 57.9382 65.2692C56.8349 65.2692 55.9375 64.3718 55.9375 63.2684Z" fill="#F96000"></path><path d="M57.9465 53.479C57.8147 53.479 57.683 53.4625 57.5513 53.4378C57.4278 53.4131 57.2961 53.3718 57.1808 53.3224C57.0573 53.273 56.9421 53.2071 56.835 53.1413C56.7198 53.0671 56.6209 52.985 56.5221 52.8862C56.1515 52.5156 55.9375 51.9967 55.9375 51.4698C55.9375 50.9428 56.1515 50.4241 56.5221 50.0536C56.6126 49.963 56.7198 49.8726 56.835 49.8068C56.9339 49.7327 57.0573 49.6666 57.1808 49.6172C57.3043 49.5678 57.4278 49.535 57.5513 49.502C57.8065 49.4526 58.0782 49.4526 58.3334 49.502C58.4652 49.535 58.5889 49.5678 58.7124 49.6172C58.8359 49.6666 58.9511 49.7327 59.0581 49.8068C59.1651 49.8726 59.2721 49.963 59.3626 50.0536C59.7332 50.4241 59.9555 50.9428 59.9555 51.4698C59.9555 51.9967 59.7414 52.5156 59.3626 52.8862C59.2721 52.9767 59.1651 53.0671 59.0581 53.1413C58.9511 53.2071 58.8359 53.273 58.7124 53.3224C58.5889 53.3718 58.4652 53.4048 58.3334 53.4378C58.2099 53.4625 58.0782 53.479 57.9465 53.479Z" fill="#F96000"></path><path d="M134.334 284.887C153.362 284.887 166.346 267.678 166.346 248.65L167.573 127.664C167.573 121.019 170.471 114.721 175.519 110.398L184.905 102.362C185.193 102.115 185.342 101.744 185.309 101.366C185.276 100.987 185.053 100.649 184.724 100.468L140.995 75.7424L89.0812 45.4505C88.9 45.3435 88.7024 45.2939 88.4966 45.2939C88.159 45.2939 87.8461 45.4423 87.6238 45.6893L76.3766 58.4926C69.8473 67.1956 70.1025 73.1076 70.3412 78.8218C70.3906 80.0404 70.4401 81.2012 70.4401 82.3951V131.534C70.4401 131.682 70.4647 131.83 70.5223 131.962L131.929 284.911C132.111 285.356 133.856 284.887 134.334 284.887Z" fill="white"></path><path d="M132.695 286.526C132.02 286.526 131.419 286.123 131.172 285.497L69.7151 131.329C69.641 131.131 69.6 130.934 69.6 130.72V81.5809C69.6 80.3706 69.5505 79.2014 69.5011 78.0734C69.2541 72.2439 68.9989 66.225 75.5694 57.4561C75.5941 57.4232 75.6187 57.3904 75.6516 57.3574L86.899 44.554C87.2119 44.1999 87.6565 43.9941 88.134 43.9941C88.4222 43.9941 88.7104 44.0683 88.9574 44.2165L140.863 74.5001L184.592 99.2257C185.061 99.4892 185.366 99.9585 185.415 100.494C185.465 101.029 185.259 101.548 184.847 101.893L175.461 109.93C170.52 114.162 167.68 120.329 167.68 126.833V251.525C167.68 270.816 151.986 286.51 132.695 286.51V286.526ZM78.1712 59.4653C72.317 67.2956 72.5228 71.9722 72.7698 77.8923C72.8192 79.0285 72.8687 80.2965 72.8687 81.5892V130.407L133.798 283.233L134.284 283.208C151.171 282.368 164.403 268.453 164.403 251.541V126.85C164.403 119.382 167.655 112.317 173.328 107.459L180.936 100.938L139.216 77.3489L88.4633 47.7405L78.1629 59.4653H78.1712Z" fill="#262830"></path><path d="M132.694 286.048C132.9 286.048 133.106 285.991 133.279 285.892C133.633 285.686 133.855 285.299 133.855 284.887V168.825C133.995 161.785 130.216 155.363 123.999 152.036L38.9203 106.57C35.0999 104.528 30.8348 103.449 26.5862 103.449C21.9013 103.449 17.2574 104.75 13.1653 107.204C5.2115 111.971 0.46875 120.353 0.46875 129.616V230.553C0.46875 230.965 0.691229 231.352 1.05351 231.558L95.7494 286.229C95.9223 286.328 96.1281 286.386 96.334 286.386C96.5398 286.386 96.7374 286.336 96.9103 286.229C97.2726 286.023 97.4948 285.636 97.4948 285.225L97.5773 266.444L132.126 285.892C132.299 285.991 132.496 286.04 132.694 286.04V286.048Z" fill="white"></path><path d="M132.125 285.9L95.7571 265.489C95.3865 265.283 95.1641 264.896 95.1641 264.476V183.11C95.1641 167.672 107.729 155.107 123.167 155.107C129.062 155.107 133.854 159.899 133.854 165.795V284.879C133.854 285.291 133.632 285.669 133.278 285.883C133.097 285.99 132.899 286.04 132.693 286.04C132.488 286.04 132.298 285.991 132.125 285.892V285.9ZM96.3169 263.315V265.637H96.3251V263.315H96.3169Z" fill="#32C7E8"></path><path d="M132.694 286.525C132.414 286.525 132.134 286.451 131.887 286.32L95.5191 265.908C95.0004 265.62 94.6875 265.068 94.6875 264.475V183.11C94.6875 167.408 107.458 154.638 123.168 154.638C129.327 154.638 134.333 159.644 134.333 165.803V284.887C134.333 285.463 134.02 286.007 133.518 286.303C133.271 286.451 132.982 286.525 132.694 286.525ZM123.168 157.915C109.269 157.915 97.9645 169.22 97.9645 183.118V263.52L131.056 282.096V165.811C131.056 161.464 127.515 157.923 123.168 157.923V157.915ZM95.972 265.167H96.6635V264.821L96.6718 264.138H95.9883L95.972 265.167Z" fill="#262830"></path><path d="M96.3344 286.863C96.0462 286.863 95.758 286.789 95.511 286.641L0.815129 231.969C0.312873 231.681 0 231.138 0 230.553V129.616C0 120.18 4.83315 111.642 12.9269 106.792C17.0931 104.297 21.8194 102.972 26.5949 102.972C30.9258 102.972 35.265 104.067 39.1513 106.142L124.23 151.608C130.603 155.017 134.473 161.604 134.333 168.8V284.879C134.333 285.456 134.028 285.999 133.526 286.295C133.279 286.444 132.991 286.518 132.694 286.518C132.398 286.518 132.134 286.444 131.887 286.312L98.0386 267.259L97.9646 285.233C97.9646 285.818 97.6435 286.353 97.1413 286.641C96.8943 286.781 96.6143 286.855 96.3261 286.855L96.3344 286.863ZM26.6032 106.257C22.4122 106.257 18.2706 107.418 14.6148 109.608C7.51738 113.865 3.277 121.341 3.277 129.624V229.614L94.7206 282.409L94.7946 264.476C94.7946 263.9 95.1075 263.356 95.6097 263.068C95.8567 262.928 96.1449 262.846 96.4331 262.846C96.7213 262.846 96.993 262.92 97.24 263.06L131.064 282.096V168.792C131.179 162.814 127.968 157.347 122.69 154.523L37.6115 109.057C34.2028 107.237 30.3989 106.273 26.6032 106.273V106.257Z" fill="#262830"></path><path d="M79.0278 191.098C78.7396 191.098 78.4514 191.015 78.1962 190.867L46.5047 173.222C46.1341 173.008 45.8705 172.654 45.7553 172.226C45.6482 171.806 45.706 171.361 45.9283 170.983C46.2248 170.48 46.7682 170.176 47.3445 170.176C47.6327 170.176 47.9209 170.25 48.1761 170.398L79.8677 188.043C80.2382 188.257 80.5016 188.611 80.6169 189.039C80.7321 189.467 80.6663 189.904 80.444 190.282C80.1476 190.785 79.6042 191.089 79.0278 191.089V191.098Z" fill="#262830"></path><path d="M79.0277 206.766C78.7395 206.766 78.4513 206.684 78.1961 206.536L16.4927 171.641C16.1222 171.427 15.8586 171.073 15.7433 170.645C15.6281 170.217 15.6939 169.781 15.9162 169.402C16.2126 168.9 16.748 168.595 17.3326 168.595C17.6208 168.595 17.909 168.677 18.1642 168.825L79.8676 203.72C80.2381 203.934 80.5015 204.288 80.6168 204.716C80.7238 205.136 80.6662 205.581 80.4439 205.959C80.1475 206.462 79.6123 206.766 79.0277 206.766Z" fill="#262830"></path><path d="M79.028 222.443C78.7398 222.443 78.4516 222.361 78.1964 222.212L16.493 187.318C16.1225 187.104 15.8589 186.75 15.7436 186.322C15.6366 185.902 15.6942 185.457 15.9165 185.078C16.2129 184.576 16.7483 184.271 17.3328 184.271C17.621 184.271 17.9092 184.354 18.1645 184.502L79.8678 219.397C80.2383 219.611 80.5017 219.965 80.617 220.393C80.7323 220.821 80.6665 221.257 80.4441 221.636C80.1477 222.138 79.6126 222.443 79.028 222.443Z" fill="#262830"></path><path d="M79.0277 238.121C78.7395 238.121 78.4513 238.038 78.1961 237.89L16.4927 202.996C16.1222 202.782 15.8586 202.428 15.7433 201.999C15.6281 201.571 15.6939 201.135 15.9162 200.756C16.2126 200.254 16.748 199.949 17.3326 199.949C17.6208 199.949 17.909 200.032 18.1642 200.18L79.8676 235.074C80.6333 235.527 80.8967 236.532 80.4439 237.314C80.1475 237.816 79.6123 238.121 79.0277 238.121Z" fill="#262830"></path><path d="M52.7853 240.17C52.4971 240.17 52.209 240.096 51.9537 239.948L16.516 219.372C16.1537 219.158 15.8819 218.804 15.7748 218.375C15.6678 217.947 15.7254 217.511 15.9477 217.132C16.2441 216.63 16.7793 216.325 17.3639 216.325C17.6521 216.325 17.9403 216.399 18.1873 216.547L53.6252 237.124C54.3909 237.577 54.6543 238.581 54.1933 239.363C53.8968 239.865 53.3534 240.17 52.7771 240.17H52.7853Z" fill="#262830"></path><path d="M213.922 194.803L228.059 186.644C238.03 180.888 244.214 168.883 245.053 152.589L247.573 104.101L232.966 112.532L230.447 161.02C229.615 177.059 223.629 188.941 213.922 194.803Z" fill="white"></path><path d="M230.931 152.893C230.931 152.893 227.431 183.226 222.895 188.026C222.895 188.026 242.598 182.707 244.417 161.711C245.323 157.948 245.241 144.165 245.241 144.165L230.939 152.893H230.931Z" fill="#262830"></path><path d="M142.248 35.1836L211.337 75.0759C211.337 88.8673 221.011 105.639 232.958 112.531L230.439 161.019C229.607 177.058 223.621 188.94 213.914 194.802L213.444 195.074C208.743 197.791 203.185 199.125 196.952 198.853C194.515 198.746 192.037 198.516 189.525 198.162C181.316 196.976 172.259 191.747 164.042 183.44C161.539 180.912 159.061 178.269 156.624 175.56C137.176 153.947 124.38 124.486 123.129 99.0688L120.609 47.6741C132.556 54.5657 142.239 48.9751 142.239 35.1836H142.248ZM207.845 138.484C207.845 118.682 193.939 94.5979 176.788 84.701C159.645 74.7959 145.739 82.8238 145.739 102.626C145.739 122.428 159.645 146.512 176.788 156.408C193.939 166.314 207.845 158.286 207.845 138.484Z" fill="#CDDCE8"></path><path d="M135.224 38.6831L120.617 47.6742C132.564 54.5659 142.247 48.9752 142.247 35.1838L142.091 34.8955L135.224 38.6831Z" fill="white"></path><path d="M135.224 38.6831L120.617 47.6742C132.564 54.5659 142.247 48.9752 142.247 35.1838L142.091 34.8955L135.224 38.6831Z" fill="#262830"></path><path d="M142.09 34.895L142.246 35.1833L211.344 75.0755L225.95 66.6442L156.853 26.752L142.09 34.895Z" fill="white"></path><path d="M176.784 84.701C193.934 94.6062 207.841 118.682 207.841 138.484C207.841 158.277 193.934 166.305 176.784 156.408C159.641 146.503 145.734 122.428 145.734 102.626C145.734 82.832 159.641 74.8041 176.784 84.701Z" fill="url(#paint0_linear_2750_43344)"></path><path d="M225.95 66.6445L211.344 75.0758C211.344 88.8673 221.018 105.639 232.965 112.531L247.572 104.1C235.625 97.208 225.95 80.436 225.95 66.6445Z" fill="white"></path><path d="M190.669 162.106C186.099 162.106 181.183 160.607 176.07 157.66C158.549 147.54 144.305 122.856 144.305 102.625C144.305 92.5144 147.787 84.9312 154.119 81.2754C156.729 79.7687 159.693 79.0029 162.921 79.0029C167.491 79.0029 172.398 80.5014 177.511 83.4491C195.032 93.5683 209.293 118.253 209.293 138.483C209.293 148.594 205.81 156.177 199.479 159.833C196.86 161.34 193.904 162.106 190.669 162.106ZM162.937 81.893C160.204 81.893 157.726 82.5268 155.56 83.7783C150.159 86.8907 147.186 93.5848 147.186 102.625C147.186 121.933 160.788 145.507 177.511 155.156C182.18 157.849 186.601 159.216 190.652 159.216C193.386 159.216 195.864 158.582 198.03 157.33C203.431 154.218 206.403 147.524 206.403 138.483C206.403 119.175 192.793 95.602 176.07 85.9521C171.41 83.2597 166.988 81.893 162.937 81.893Z" fill="#262830"></path><path d="M198.556 200.327C198.005 200.327 197.453 200.319 196.901 200.294C194.44 200.187 191.895 199.948 189.327 199.586C180.805 198.351 171.459 192.982 163.028 184.452C160.574 181.974 158.063 179.306 155.56 176.523C135.947 154.729 122.971 125.071 121.703 99.1348L119.184 47.74C119.184 47.6083 119.2 47.5093 119.217 47.4023L119.233 47.2954C119.25 47.246 119.291 47.1389 119.34 47.0318L119.381 46.9659C119.439 46.8671 119.48 46.8012 119.538 46.7436L119.62 46.6531C119.711 46.5625 119.801 46.4884 119.883 46.4308L134.572 37.3902L156.178 25.476C156.392 25.3608 156.631 25.2949 156.878 25.2949C157.125 25.2949 157.38 25.3608 157.602 25.4843L226.691 65.3766C226.798 65.4507 226.872 65.5083 226.938 65.5742L227.029 65.6566C227.103 65.7307 227.169 65.8211 227.218 65.9034C227.267 65.994 227.309 66.0929 227.35 66.2247L227.366 66.3151C227.383 66.4057 227.399 66.4881 227.399 66.5704L227.416 66.6938C227.416 79.9501 236.786 96.1789 248.313 102.84C248.428 102.914 248.51 102.98 248.584 103.054L248.659 103.12C248.725 103.194 248.79 103.276 248.84 103.359L248.865 103.424C248.922 103.532 248.947 103.614 248.971 103.713L248.996 103.82C249.013 103.918 249.029 104.026 249.021 104.124V104.215L246.51 152.654C245.653 169.278 239.363 181.785 228.799 187.886L214.192 196.317C209.598 198.977 204.345 200.319 198.581 200.319L198.556 200.327ZM124.577 98.9949C125.82 124.297 138.508 153.271 157.701 174.597C160.163 177.338 162.641 179.973 165.07 182.427C173.073 190.504 181.826 195.584 189.73 196.729C192.2 197.083 194.654 197.305 197.025 197.412C197.536 197.437 198.038 197.445 198.54 197.445C203.793 197.445 208.569 196.227 212.727 193.831L213.163 193.584C222.582 187.894 228.206 176.301 229.005 160.954L231.475 113.33L231.137 113.116C219.767 105.911 210.454 89.7319 209.919 76.2945L209.903 75.9157L143.605 37.6372L143.473 38.6582C142.773 44.1748 140.41 48.2503 136.623 50.4323C134.729 51.5273 132.596 52.079 130.266 52.079C127.936 52.079 125.63 51.5686 123.169 50.5476L122.172 50.136L124.568 98.9949H124.577ZM234.365 113.387L231.886 161.093C231.392 170.521 229.186 178.59 225.316 185.07L223.974 187.326L227.341 185.383C237.033 179.792 242.804 168.117 243.611 152.506L245.991 106.669L234.365 113.379V113.387ZM212.793 75.8993L212.809 76.3109C213.344 89.0485 221.866 103.803 232.619 110.629L232.973 110.851L244.764 104.042L243.916 103.424C233.92 96.1294 226.024 82.4368 224.698 70.1357L224.583 69.09L212.793 75.8993ZM144.848 35.0188L211.343 73.4127L223.06 66.6446L156.836 28.4071L144.848 35.0188ZM136.005 39.8933L123.506 47.5917L124.807 48.0858C126.726 48.8186 128.57 49.1892 130.283 49.1892C132.11 49.1892 133.757 48.7692 135.198 47.9376C138.088 46.2662 139.949 43.0467 140.575 38.6252L140.764 37.2666L136.005 39.885V39.8933Z" fill="#262830"></path><path d="M143.628 259.444C143.348 259.444 143.068 259.37 142.829 259.23C142.458 259.016 142.187 258.67 142.08 258.251C141.973 257.831 142.03 257.403 142.244 257.032L151.911 240.301C152.125 239.931 152.471 239.659 152.891 239.552C153.031 239.519 153.171 239.494 153.311 239.494C153.59 239.494 153.862 239.568 154.109 239.716L164.377 245.645L174.899 227.415C175.187 226.921 175.723 226.608 176.299 226.608C176.579 226.608 176.851 226.683 177.098 226.823L187.036 232.553L195.228 218.367C195.516 217.873 196.052 217.56 196.628 217.56C196.908 217.56 197.18 217.634 197.427 217.774L206.352 222.928L216.875 204.698C217.089 204.328 217.435 204.056 217.854 203.949C217.994 203.908 218.134 203.892 218.274 203.892C218.546 203.892 218.826 203.966 219.073 204.106C219.839 204.55 220.102 205.538 219.658 206.304L208.328 225.925C208.04 226.419 207.505 226.724 206.928 226.724C206.648 226.724 206.377 226.65 206.13 226.51L197.196 221.355L189.004 235.542C188.716 236.036 188.18 236.349 187.604 236.349C187.324 236.349 187.052 236.275 186.805 236.135L176.875 230.404L166.353 248.634C166.139 249.004 165.793 249.276 165.373 249.383C165.233 249.416 165.093 249.441 164.953 249.441C164.681 249.441 164.401 249.366 164.154 249.226L153.887 243.298L145.027 258.638C144.739 259.132 144.204 259.444 143.636 259.444H143.628Z" fill="#F96000"></path><path d="M184.936 118.64L181.635 116.729V112.95C181.635 108.208 178.267 102.403 174.134 100.015C169.992 97.6274 166.633 99.5375 166.633 104.28V108.059L163.331 106.149C162.705 105.787 162.203 106.075 162.203 106.791V127.516C162.203 128.232 162.705 129.105 163.331 129.467L184.945 141.949C185.57 142.312 186.073 142.023 186.073 141.307V120.583C186.073 119.867 185.57 118.994 184.945 118.631L184.936 118.64ZM168.889 105.589C168.889 102.279 171.244 100.937 174.134 102.609C177.024 104.28 179.379 108.331 179.379 111.649V115.429L168.889 109.377V105.597V105.589ZM183.808 138.714L164.451 127.54V109.401L183.808 120.575V138.714Z" fill="white"></path><path d="M175.927 127.178C176.912 126.602 176.9 124.75 175.9 123.043C174.9 121.337 173.292 120.421 172.307 120.997C171.322 121.574 171.334 123.426 172.334 125.133C173.334 126.839 174.942 127.755 175.927 127.178Z" fill="white"></path><path d="M111.195 39.5226L107.704 21.8614C107.597 21.3097 107.251 20.8405 106.757 20.5606C106.263 20.2889 105.687 20.2476 105.16 20.4369L93.6573 24.7514C93.0315 24.9819 92.5705 25.5336 92.447 26.1923C92.3399 26.7687 92.4964 27.3532 92.8834 27.7978C92.9328 27.8555 92.9904 27.9133 93.048 27.9709L108.042 41.326C108.28 41.54 108.56 41.68 108.857 41.7541C109.318 41.8694 109.82 41.8035 110.256 41.5565C110.973 41.1531 111.343 40.3378 111.187 39.5309L111.195 39.5226ZM107.333 36.1716L96.7367 26.7358L104.871 23.6892L107.333 36.1716Z" fill="#3454A8"></path><path d="M114.287 9.21444C116.354 11.4211 119.82 11.528 122.027 9.46954C124.233 7.40287 124.341 3.93656 122.282 1.72993C120.224 -0.476704 116.749 -0.58379 114.542 1.47464C112.336 3.53306 112.229 7.00781 114.287 9.21444ZM120.215 3.66493C121.212 4.73531 121.162 6.41483 120.092 7.41111C119.021 8.40739 117.342 8.35807 116.346 7.28768C115.349 6.2173 115.399 4.53758 116.469 3.54131C117.539 2.54503 119.219 2.59455 120.215 3.66493Z" fill="#F96000"></path><path d="M188.182 256.645C190.248 258.852 193.715 258.959 195.921 256.9C198.128 254.842 198.235 251.367 196.177 249.161C194.11 246.954 190.643 246.847 188.437 248.905C186.23 250.972 186.123 254.438 188.182 256.645ZM194.11 251.096C195.106 252.166 195.057 253.845 193.986 254.842C192.916 255.838 191.236 255.789 190.24 254.718C189.244 253.648 189.293 251.968 190.364 250.972C191.434 249.976 193.114 250.025 194.11 251.096Z" fill="#262830"></path><path d="M122.627 29.0084C124.164 29.0084 125.41 27.7623 125.41 26.2253C125.41 24.6883 124.164 23.4424 122.627 23.4424C121.09 23.4424 119.844 24.6883 119.844 26.2253C119.844 27.7623 121.09 29.0084 122.627 29.0084Z" fill="#32C7E8"></path><path d="M178.728 212.662C180.265 212.662 181.511 211.416 181.511 209.879C181.511 208.342 180.265 207.096 178.728 207.096C177.191 207.096 175.945 208.342 175.945 209.879C175.945 211.416 177.191 212.662 178.728 212.662Z" fill="#32C7E8"></path><path d="M29.5897 141.76L29.1369 141.95L28.684 142.131L27.7701 142.501L27.5643 142.584L26.6338 142.962C27.136 143.25 27.5478 143.893 27.5478 144.387L27.5643 153.312L31.6399 155.667V146.758C31.6399 146.264 32.0517 146.099 32.554 146.387L30.5038 143.176L30.0509 142.468L29.598 141.752L29.5897 141.76ZM26.2715 144.016L26.0739 144.098L24.987 144.543L20.2279 146.486L19.2894 146.873L21.1914 147.968C21.6937 148.257 22.1052 148.899 22.1052 149.393V150.167L26.2798 152.579V144.024L26.2715 144.016ZM32.9162 147.861V156.416L37.0907 158.829V158.055C37.0907 157.561 37.5023 157.396 38.0046 157.684L39.9066 158.779L38.9678 157.314L34.2089 149.879L33.122 148.174L32.9244 147.861H32.9162ZM17.3051 148.668L18.1695 150.027L20.2199 153.238L23.645 158.598V157.989C23.645 157.124 24.3531 156.836 25.2258 157.347L26.601 158.145V165.029L26.609 165.045L27.5231 164.674H27.556L29.5815 163.835L31.6399 167.046L32.554 168.47H32.5704V161.587L33.9454 162.386C34.8182 162.888 35.5262 163.999 35.5262 164.856V165.457L38.9596 164.057L41.01 163.226L41.8744 162.871L17.2969 148.685L17.3051 148.668Z" fill="#262830"></path><defs><linearGradient id="paint0_linear_2750_43344" x1="177.681" y1="82.1486" x2="175.82" y2="162.584" gradientUnits="userSpaceOnUse"><stop stop-color="#32C9EA"></stop><stop offset="1" stop-color="#4671CA"></stop></linearGradient></defs></svg> 