<?xml version="1.0" encoding="UTF-8"?> <svg xmlns="http://www.w3.org/2000/svg" width="549" height="754" viewBox="0 0 549 754" fill="none"><path opacity="0.3" fill-rule="evenodd" clip-rule="evenodd" d="M307.952 60.355L314.241 54.1544L341.549 27.0571L355.183 13.5285L368.817 0L368.817 0.000245937L382.492 13.5688L396.125 27.0973L455.648 86.1599L457.599 88.0965C456.686 88.0965 455.783 88.1409 454.892 88.2277C441.071 89.574 430.291 101.12 430.291 115.154L430.088 383.872H307.952L307.384 115.113C307.345 101.057 296.528 89.5319 282.708 88.2208C281.842 88.1386 280.964 88.0965 280.075 88.0965H279.994L280.075 88.016L281.951 86.1552L307.952 60.355ZM356.592 14.9482L368.817 2.81752L428.291 115.154L428.09 381.872H309.947L309.384 115.109V115.108C309.344 100.553 298.556 88.5461 284.515 86.4282L309.356 61.7792L309.36 61.7747L315.645 55.5787L315.65 55.5741L342.958 28.4768L356.592 14.9482ZM368.817 2.81752L428.291 115.152C428.292 100.616 439.047 88.588 453.089 86.4384L394.717 28.517L381.083 14.9885L368.817 2.81752ZM269.322 125.862L267.362 127.806L263.438 131.7L230.774 164.112L88.1865 305.598L62.0822 331.501L60.0667 333.501H62.9061H116.915C131.969 333.501 144.223 345.62 144.223 360.598V381.951V383.951H146.223H267.362H269.362V381.951V128.639V125.862L269.403 125.781L269.336 125.848L269.322 125.862ZM264.847 133.12L267.362 130.624V381.951H146.223V360.598C146.223 344.499 133.057 331.501 116.915 331.501H64.9217L89.5952 307.018L232.182 165.532L264.847 133.12ZM470.555 384.075H468.555V382.075V128.763V125.986V125.945L468.596 125.986L470.555 127.93L474.52 131.864L507.184 164.276L649.731 305.722L675.835 331.624L677.851 333.624H675.011H621.002C605.908 333.624 593.694 345.784 593.694 360.722V382.075V384.075H591.694H470.555ZM591.694 382.075V360.722C591.694 344.667 604.816 331.624 621.002 331.624H672.996L648.322 307.142L505.775 165.696L473.111 133.284L470.555 130.747V382.075H591.694ZM711.203 447.891L649.891 508.689L549.069 608.732L547.069 610.717V607.899V592.477C547.069 566.508 525.847 545.45 499.675 545.45H460.409H458.409V547.45V751.076V752.887L457.922 753.411L457.394 752.887L456.501 752.001L456.409 751.909L430.743 726.442L430.613 726.313H430.573L430.613 726.26L430.695 726.152L430.613 726.072L430.573 726.032L369.058 664.992H369.018L368.936 665.032L309.357 724.112L308.193 725.267L307.381 726.072L307.351 726.102L307.341 726.112H307.381L307.371 726.143L307.341 726.233L305.447 728.112L281.789 751.587L280.276 753.089L280.033 753.329L280.032 753.33L280.031 753.329L279.789 753.089V753.085V750.754V547.45V545.45H277.789H238.522C212.35 545.45 191.128 566.508 191.128 592.477V608.101V610.918L189.128 608.934L88.4282 509.011L26.9136 447.972L2.9599 424.203L0.944336 422.203H3.78379H734.213H737.05L735.038 424.203L711.203 447.891ZM648.482 507.269L549.069 605.915V592.477C549.069 565.388 526.937 543.45 499.675 543.45H458.409H456.409V545.45V749.092L433.24 726.102L433.344 725.964L432.103 724.733L370.467 663.572L369.882 662.992H369.058H369.018H368.549L368.129 663.2L368.048 663.24L367.758 663.384L367.528 663.612L306.785 723.846L306.784 723.847L305.932 724.692L302.486 728.112H302.607L281.789 748.77V545.45V543.45H279.789H238.522C211.26 543.45 189.128 565.388 189.128 592.477V606.116L89.8369 507.592L28.3223 446.552L5.79936 424.203H732.201L709.794 446.471L709.793 446.473L648.483 507.269L648.482 507.269Z" fill="url(#paint0_linear_2387_28842)"></path><defs><linearGradient id="paint0_linear_2387_28842" x1="0.94433" y1="753.411" x2="559.28" y2="-114.378" gradientUnits="userSpaceOnUse"><stop stop-color="#3653A7"></stop><stop offset="1" stop-color="#68CDED"></stop></linearGradient></defs></svg> 