<svg width="133" height="40" viewBox="0 0 133 40" fill="none" xmlns="http://www.w3.org/2000/svg">
<g clip-path="url(#clip0_2750_17486)">
<path d="M48.9975 12.1355H44.062V10.3591H55.9689V12.1355H51.0333V24.6452H48.9975V12.1355Z" fill="#F4FCFE"/>
<path d="M56.3997 17.5011C56.3997 13.3177 59.6484 10.1967 64.0712 10.1967C68.494 10.1967 71.7018 13.2984 71.7018 17.5011C71.7018 21.7037 68.4531 24.8055 64.0712 24.8055C59.6893 24.8055 56.3997 21.6823 56.3997 17.5011ZM69.6444 17.5011C69.6444 14.3373 67.2596 12.0115 64.0712 12.0115C60.8828 12.0115 58.4571 14.3373 58.4571 17.5011C58.4571 20.6648 60.8419 22.9906 64.0712 22.9906C67.3005 22.9906 69.6444 20.6648 69.6444 17.5011Z" fill="#F4FCFE"/>
<path d="M85.7371 15.3378C85.7371 18.4395 83.475 20.3164 79.733 20.3164H76.1763V24.643H74.1189V10.3591H79.733C83.475 10.3591 85.7371 12.236 85.7371 15.3378ZM83.6797 15.3378C83.6797 13.2963 82.301 12.1334 79.6705 12.1334H76.1741V18.54H79.6705C82.3031 18.54 83.6797 17.3771 83.6797 15.3356V15.3378Z" fill="#F4FCFE"/>
<path d="M91.5989 12.1355H86.6634V10.3591H98.5703V12.1355H93.6348V24.6452H91.5989V12.1355Z" fill="#F4FCFE"/>
<path d="M100.813 10.3591H102.87V24.643H100.813V10.3591Z" fill="#F4FCFE"/>
<path d="M117.634 22.8688V24.643H107.188V10.3591H117.347V12.1355H109.245V16.522H116.464V18.2557H109.245V22.8666H117.636L117.634 22.8688Z" fill="#F4FCFE"/>
<path d="M130.59 24.643L127.485 20.2565C127.197 20.2779 126.889 20.2971 126.581 20.2971H123.024V24.643H120.966V10.3591H126.581C130.323 10.3591 132.585 12.236 132.585 15.3378C132.585 17.5417 131.434 19.1342 129.418 19.8482L132.832 24.643H130.59ZM130.527 15.3378C130.527 13.2963 129.148 12.1334 126.518 12.1334H123.022V18.5614H126.518C129.151 18.5614 130.527 17.3771 130.527 15.3378Z" fill="#F4FCFE"/>
<path d="M63.5305 29.6432H61.4817V28.9057H66.4216V29.6432H64.3728V34.8335H63.5283V29.6432H63.5305Z" fill="#F4FCFE"/>
<path d="M74.9311 34.8333L73.6428 33.012C73.5243 33.0205 73.3951 33.0291 73.268 33.0291H71.7923V34.8333H70.9391V28.9055H73.268C74.8212 28.9055 75.7605 29.6836 75.7605 30.9705C75.7605 31.8854 75.2822 32.546 74.4464 32.841L75.8639 34.8311H74.9332L74.9311 34.8333ZM74.9052 30.9726C74.9052 30.1261 74.3343 29.643 73.2421 29.643H71.7923V32.3108H73.2421C74.3343 32.3108 74.9052 31.8192 74.9052 30.9726Z" fill="#F4FCFE"/>
<path d="M84.5304 33.3519H81.3571L80.7001 34.8333H79.8211L82.5269 28.9056H83.3714L86.0858 34.8333H85.1896L84.5326 33.3519H84.5304ZM84.231 32.6743L82.9427 29.7692L81.6544 32.6743H84.231Z" fill="#F4FCFE"/>
<path d="M90.5541 28.9055H93.0703C94.9898 28.9055 96.2953 30.1069 96.2953 31.8683C96.2953 33.6298 94.9898 34.8311 93.0703 34.8311H90.5541V28.9034V28.9055ZM93.0208 34.0958C94.4965 34.0958 95.4444 33.1979 95.4444 31.8683C95.4444 30.5387 94.4965 29.6409 93.0208 29.6409H91.4072V34.0936H93.0208V34.0958Z" fill="#F4FCFE"/>
<path d="M105.52 34.0958V34.8333H101.186V28.9055H105.402V29.643H102.039V31.4643H105.033V32.1847H102.039V34.0979H105.52V34.0958Z" fill="#F4FCFE"/>
<path d="M114.478 34.8333L113.189 33.012C113.071 33.0205 112.942 33.0291 112.815 33.0291H111.339V34.8333H110.486V28.9055H112.815C114.368 28.9055 115.307 29.6836 115.307 30.9705C115.307 31.8854 114.829 32.546 113.993 32.841L115.41 34.8311H114.48L114.478 34.8333ZM114.452 30.9726C114.452 30.1261 113.881 29.643 112.789 29.643H111.339V32.3108H112.789C113.881 32.3108 114.452 31.8192 114.452 30.9726Z" fill="#F4FCFE"/>
<path d="M19.5352 0L18.8114 0.718256L18.0875 1.43651L16.6377 2.87516L16.3038 3.20436L14.8195 4.67721H14.8238C15.623 4.67721 16.2715 5.31851 16.2736 6.11159L16.3038 20.3805H22.7882L22.799 6.11373C22.799 5.32065 23.4475 4.67721 24.2489 4.67721L20.9851 1.43865L20.2612 0.720393L19.5352 0Z" fill="#2852AB"/>
<path d="M14.2572 6.67807L13.9405 6.99231L12.2063 8.71313L4.63606 16.2249L3.14313 17.7063H6.16131C6.96056 17.7063 7.61116 18.3497 7.61116 19.1449V20.3848H14.255V6.68235L14.2572 6.67807Z" fill="#2852AB"/>
<path d="M24.8305 6.68876V20.3912H31.4744V19.1514C31.4744 18.3583 32.1228 17.7127 32.9242 17.7127H35.9424L34.4495 16.2313L26.8814 8.72168L25.1472 7.00086L24.8305 6.68662V6.68876Z" fill="#2852AB"/>
<path d="M39.0855 22.4156L37.7132 23.7794L34.4581 27.0073L28.9991 32.4241V31.4558C28.9991 30.077 27.8724 28.959 26.4828 28.959H24.2919V39.9722L24.266 40L22.8162 38.5614H22.814L22.8205 38.5528L19.5481 35.3057H19.546L19.5417 35.3078L16.3167 38.5058L16.2714 38.5507H16.2736L16.2714 38.5571L14.8216 39.9957L14.8086 39.9829V28.959H12.6177C11.2282 28.959 10.1015 30.077 10.1015 31.4558V32.4348L4.64894 27.0244L1.38301 23.7837L0.0042572 22.4156H39.0855Z" fill="#2852AB"/>
</g>
<defs>
<clipPath id="clip0_2750_17486">
<rect width="132.83" height="40" fill="white"/>
</clipPath>
</defs>
</svg>
