<?xml version="1.0" encoding="UTF-8"?> <svg xmlns="http://www.w3.org/2000/svg" width="531" height="500" viewBox="0 0 531 500" fill="none"><g opacity="0.2"><path d="M521.895 382.9L342.199 280.235C330.805 273.724 312.403 273.724 301.126 280.216L146.919 368.903C135.593 375.414 135.7 385.941 147.094 392.452L326.79 495.117C338.184 501.628 356.508 501.628 367.824 495.117L522.031 406.429C533.318 399.938 533.299 389.421 521.895 382.91V382.9Z" fill="#262831"></path></g><path d="M337.001 410.642L275.771 445.858C275.4 446.063 275.02 446.277 274.63 446.443C268.529 449.406 259.815 449.679 253.216 447.252C252.115 446.872 251.081 446.384 250.136 445.848L144.898 385.709C141.331 383.663 139.547 380.982 139.547 378.321C139.547 378.204 139.566 378.097 139.566 377.97V364.568L155.278 364.997L206.031 335.805C213.078 331.75 224.56 331.75 231.656 335.805L279.66 363.223L336.904 395.944C344.019 400.008 344.058 406.568 337.011 410.623L337.001 410.642Z" fill="#CEE0F6"></path><path d="M262.984 450.283C259.348 450.283 255.8 449.688 252.739 448.557C251.638 448.167 250.508 447.651 249.455 447.056L144.207 386.918C140.308 384.676 138.154 381.625 138.154 378.33L138.174 364.587C138.174 364.217 138.33 363.856 138.593 363.593C138.876 363.32 139.148 363.193 139.47 363.193L154.919 363.613L205.321 334.615C208.966 332.529 213.762 331.379 218.83 331.379C223.898 331.379 228.704 332.529 232.359 334.625L337.606 394.774C341.515 397.006 343.669 400.047 343.669 403.351C343.669 406.616 341.554 409.638 337.714 411.86L276.483 447.076C276.064 447.31 275.635 447.544 275.206 447.739C271.766 449.396 267.438 450.302 262.984 450.302V450.283ZM140.971 377.98C140.952 379.734 141.751 382.307 145.611 384.52L250.849 444.659C251.775 445.185 252.73 445.623 253.685 445.955C256.444 446.969 259.67 447.505 262.984 447.505C267.048 447.505 270.966 446.686 274.017 445.204C274.368 445.048 274.67 444.883 274.963 444.717L336.291 409.453C339.195 407.786 340.862 405.554 340.852 403.351C340.852 401.119 339.156 398.867 336.193 397.171L230.945 337.023C227.739 335.19 223.421 334.177 218.81 334.177C214.2 334.177 209.902 335.19 206.714 337.023L155.972 366.215C155.835 366.293 155.552 366.332 155.27 366.371L155.114 366.39L140.961 366.01V377.98H140.971Z" fill="#262831"></path><path d="M336.919 383.843L231.661 323.704C224.565 319.649 213.093 319.649 206.046 323.704L144.815 358.92C137.768 362.975 137.817 369.554 144.913 373.599L250.171 433.738C257.276 437.792 268.739 437.792 275.786 433.738L337.016 398.522C344.063 394.467 344.024 387.898 336.919 383.833V383.843Z" fill="#B6CCDF"></path><path d="M263.007 438.182C257.939 438.182 253.133 437.032 249.469 434.937L144.211 374.798C140.312 372.566 138.168 369.525 138.168 366.221C138.168 362.946 140.283 359.924 144.123 357.712L205.354 322.496C208.989 320.4 213.775 319.25 218.834 319.25C223.893 319.25 228.707 320.41 232.372 322.506L337.63 382.644C341.529 384.867 343.683 387.908 343.683 391.212C343.683 394.487 341.577 397.508 337.727 399.721L276.497 434.937C272.861 437.023 268.075 438.173 263.017 438.173L263.007 438.182ZM218.824 322.057C214.224 322.057 209.935 323.071 206.748 324.903L145.517 360.109C142.622 361.776 140.955 363.998 140.955 366.211C140.955 368.453 142.661 370.704 145.605 372.39L250.862 432.529C254.079 434.362 258.387 435.366 262.997 435.366C267.608 435.366 271.896 434.362 275.074 432.529L336.304 397.314C339.209 395.647 340.876 393.415 340.866 391.202C340.866 388.97 339.17 386.718 336.207 385.032L230.949 324.894C227.743 323.061 223.434 322.047 218.814 322.047L218.824 322.057Z" fill="#262831"></path><path d="M393.945 210.593L393.419 424.821C393.399 431.937 390.855 436.946 386.762 439.305L402.786 430.085C406.88 427.726 409.423 422.716 409.443 415.601L409.969 201.372L393.945 210.593Z" fill="#B6CCDF"></path><g style="mix-blend-mode:multiply" opacity="0.4"><path d="M393.945 210.593L393.419 424.821C393.399 431.937 390.855 436.946 386.762 439.305L402.786 430.085C406.88 427.726 409.423 422.716 409.443 415.601L409.969 201.372L393.945 210.593Z" fill="#262831"></path></g><path d="M386.764 440.699C386.267 440.699 385.799 440.436 385.546 439.997C385.166 439.344 385.39 438.486 386.062 438.106C389.883 435.913 391.998 431.186 392.018 424.821L392.544 210.592C392.544 210.105 392.817 209.647 393.246 209.393L409.27 200.173C409.475 200.056 409.728 199.988 409.982 199.988C410.235 199.988 410.469 200.056 410.683 200.173C411.112 200.416 411.385 200.884 411.385 201.381L410.859 415.61C410.839 423.008 408.217 428.583 403.5 431.293L387.378 440.562C387.183 440.65 386.979 440.699 386.774 440.699H386.764ZM395.351 211.392L394.825 424.831C394.815 427.102 394.562 429.217 394.074 431.117L393.363 433.905L402.077 428.885C405.907 426.683 408.022 421.965 408.032 415.6L408.559 203.789L395.342 211.392H395.351Z" fill="#262831"></path><path d="M110.893 4.49359C104.548 0.867719 98.7973 0.52658 94.645 2.91459L78.6113 12.1352C82.7635 9.74717 88.5142 10.0883 94.8594 13.7142L371.176 171.586L387.2 162.365L110.884 4.49359H110.893Z" fill="#B6CCDF"></path><path d="M371.187 172.97C370.943 172.97 370.7 172.901 370.485 172.775L94.1684 14.903C90.7764 12.9731 87.5696 11.9887 84.6358 11.9887C82.6669 11.9887 80.8833 12.4371 79.3237 13.3338C79.1093 13.4508 78.8754 13.519 78.622 13.519C78.1152 13.519 77.657 13.2558 77.3939 12.8269C77.0235 12.1934 77.2281 11.3746 77.8422 10.975L93.9344 1.71536C95.9326 0.574962 98.1843 0 100.64 0C104.071 0 107.756 1.11116 111.586 3.29448L387.903 161.166C388.332 161.41 388.605 161.868 388.605 162.365C388.605 162.852 388.332 163.31 387.903 163.564L371.879 172.775C371.665 172.892 371.421 172.96 371.177 172.96L371.187 172.97ZM100.66 2.77786C98.6911 2.77786 96.9072 3.22623 95.3575 4.12295L86.634 9.12315L89.4315 9.89308C91.4393 10.4487 93.5055 11.3259 95.5719 12.5053L371.187 169.968L384.423 162.355L110.202 5.67268C106.81 3.74278 103.603 2.75835 100.67 2.75835L100.66 2.77786Z" fill="#262831"></path><path d="M393.955 210.603L393.487 398.232L393.419 424.822C393.38 439.16 383.117 444.94 370.524 437.737L94.2067 279.875C81.5941 272.652 71.3987 255.205 71.4474 240.867L71.5157 214.258L71.9738 26.6288C72.0128 12.291 82.2764 6.51107 94.8694 13.7141L371.186 171.576C383.799 178.779 393.994 196.246 393.965 210.593L393.955 210.603Z" fill="#B6CCDF"></path><path d="M380.759 442.24C377.328 442.24 373.644 441.129 369.813 438.936L93.5062 281.064C80.5135 273.637 69.9867 255.605 70.0452 240.858L70.5715 26.6291C70.591 19.2019 73.2228 13.6266 77.9793 10.917C79.958 9.78632 82.2094 9.22101 84.6461 9.22101C88.0868 9.22101 91.7614 10.3322 95.5822 12.5155L371.899 170.387C384.882 177.795 395.409 195.836 395.37 210.613L394.834 424.832C394.814 432.259 392.183 437.834 387.426 440.544C385.438 441.665 383.196 442.24 380.769 442.24H380.759ZM84.6461 11.9989C82.6772 11.9989 80.9033 12.4472 79.3633 13.3244C75.5133 15.5175 73.3885 20.2448 73.369 26.6291L72.8427 240.868C72.7842 254.718 82.6772 271.678 94.8999 278.666L371.207 436.538C374.609 438.478 377.815 439.462 380.73 439.462C382.679 439.462 384.453 439.014 386.003 438.136C389.853 435.943 391.988 431.216 391.997 424.832L392.534 210.613C392.573 196.733 382.669 179.764 370.466 172.795L94.1494 14.923C90.7672 12.9931 87.5702 12.0086 84.6363 12.0086L84.6461 11.9989Z" fill="#262831"></path><path d="M376.11 175.026C376.412 175.279 376.714 175.542 377.016 175.806C377.494 176.225 377.972 176.653 378.439 177.102C378.751 177.394 379.053 177.696 379.356 178.008C379.804 178.457 380.242 178.924 380.681 179.392C380.954 179.694 381.227 179.997 381.49 180.299C382.143 181.059 382.786 181.839 383.4 182.638C383.537 182.814 383.674 182.979 383.81 183.155C384.541 184.129 385.243 185.143 385.915 186.167C386.091 186.439 386.256 186.712 386.422 186.985C386.919 187.785 387.397 188.593 387.855 189.412C388.04 189.744 388.216 190.065 388.391 190.397C388.888 191.342 389.366 192.297 389.804 193.262C389.882 193.428 389.96 193.584 390.038 193.75C390.106 193.896 390.155 194.042 390.223 194.188C390.525 194.88 390.808 195.582 391.071 196.284C391.169 196.547 391.266 196.82 391.364 197.083C391.588 197.707 391.802 198.331 391.997 198.955C392.075 199.198 392.153 199.442 392.231 199.686C392.485 200.534 392.719 201.382 392.914 202.23C392.933 202.317 392.953 202.415 392.972 202.502C393.147 203.263 393.294 204.013 393.42 204.773C393.459 205.037 393.498 205.29 393.537 205.544C393.625 206.158 393.703 206.772 393.762 207.376C393.781 207.629 393.81 207.873 393.83 208.126C393.888 208.955 393.937 209.774 393.927 210.583L409.951 201.362C409.951 200.553 409.912 199.734 409.854 198.906C409.834 198.662 409.805 198.409 409.786 198.155C409.727 197.551 409.649 196.937 409.561 196.323C409.522 196.069 409.483 195.806 409.444 195.553C409.318 194.802 409.171 194.042 408.996 193.282C408.977 193.194 408.957 193.106 408.937 193.009C408.733 192.161 408.509 191.313 408.255 190.465C408.187 190.221 408.099 189.978 408.021 189.734C407.826 189.11 407.612 188.486 407.388 187.863C407.29 187.599 407.193 187.326 407.095 187.063C406.832 186.361 406.54 185.66 406.238 184.968C406.179 184.821 406.121 184.675 406.052 184.529C406.033 184.49 406.023 184.451 406.004 184.412C405.945 184.285 405.877 184.168 405.818 184.042C405.38 183.077 404.902 182.122 404.405 181.166C404.23 180.835 404.054 180.513 403.869 180.182C403.411 179.363 402.933 178.554 402.436 177.755C402.261 177.482 402.105 177.209 401.929 176.936C401.257 175.903 400.565 174.899 399.824 173.915C399.697 173.739 399.551 173.573 399.415 173.398C398.791 172.589 398.157 171.809 397.495 171.059C397.378 170.932 397.28 170.786 397.163 170.649C397.007 170.474 396.842 170.318 396.686 170.142C396.257 169.665 395.808 169.207 395.36 168.758C395.058 168.456 394.756 168.154 394.444 167.852C393.976 167.404 393.498 166.975 393.021 166.556C392.719 166.292 392.416 166.02 392.114 165.776C391.578 165.337 391.032 164.928 390.487 164.528C390.223 164.333 389.96 164.119 389.687 163.934C388.868 163.359 388.03 162.822 387.182 162.345L371.158 171.565C372.006 172.053 372.835 172.589 373.663 173.154C373.936 173.339 374.199 173.554 374.463 173.749C375.008 174.148 375.554 174.558 376.09 174.996L376.11 175.026Z" fill="#B6CCDF"></path><g style="mix-blend-mode:multiply" opacity="0.4"><path d="M376.11 175.026C376.412 175.279 376.714 175.542 377.016 175.806C377.494 176.225 377.972 176.653 378.439 177.102C378.751 177.394 379.053 177.696 379.356 178.008C379.804 178.457 380.242 178.924 380.681 179.392C380.954 179.694 381.227 179.997 381.49 180.299C382.143 181.059 382.786 181.839 383.4 182.638C383.537 182.814 383.674 182.979 383.81 183.155C384.541 184.129 385.243 185.143 385.915 186.167C386.091 186.439 386.256 186.712 386.422 186.985C386.919 187.785 387.397 188.593 387.855 189.412C388.04 189.744 388.216 190.065 388.391 190.397C388.888 191.342 389.366 192.297 389.804 193.262C389.882 193.428 389.96 193.584 390.038 193.75C390.106 193.896 390.155 194.042 390.223 194.188C390.525 194.88 390.808 195.582 391.071 196.284C391.169 196.547 391.266 196.82 391.364 197.083C391.588 197.707 391.802 198.331 391.997 198.955C392.075 199.198 392.153 199.442 392.231 199.686C392.485 200.534 392.719 201.382 392.914 202.23C392.933 202.317 392.953 202.415 392.972 202.502C393.147 203.263 393.294 204.013 393.42 204.773C393.459 205.037 393.498 205.29 393.537 205.544C393.625 206.158 393.703 206.772 393.762 207.376C393.781 207.629 393.81 207.873 393.83 208.126C393.888 208.955 393.937 209.774 393.927 210.583L409.951 201.362C409.951 200.553 409.912 199.734 409.854 198.906C409.834 198.662 409.805 198.409 409.786 198.155C409.727 197.551 409.649 196.937 409.561 196.323C409.522 196.069 409.483 195.806 409.444 195.553C409.318 194.802 409.171 194.042 408.996 193.282C408.977 193.194 408.957 193.106 408.937 193.009C408.733 192.161 408.509 191.313 408.255 190.465C408.187 190.221 408.099 189.978 408.021 189.734C407.826 189.11 407.612 188.486 407.388 187.863C407.29 187.599 407.193 187.326 407.095 187.063C406.832 186.361 406.54 185.66 406.238 184.968C406.179 184.821 406.121 184.675 406.052 184.529C406.033 184.49 406.023 184.451 406.004 184.412C405.945 184.285 405.877 184.168 405.818 184.042C405.38 183.077 404.902 182.122 404.405 181.166C404.23 180.835 404.054 180.513 403.869 180.182C403.411 179.363 402.933 178.554 402.436 177.755C402.261 177.482 402.105 177.209 401.929 176.936C401.257 175.903 400.565 174.899 399.824 173.915C399.697 173.739 399.551 173.573 399.415 173.398C398.791 172.589 398.157 171.809 397.495 171.059C397.378 170.932 397.28 170.786 397.163 170.649C397.007 170.474 396.842 170.318 396.686 170.142C396.257 169.665 395.808 169.207 395.36 168.758C395.058 168.456 394.756 168.154 394.444 167.852C393.976 167.404 393.498 166.975 393.021 166.556C392.719 166.292 392.416 166.02 392.114 165.776C391.578 165.337 391.032 164.928 390.487 164.528C390.223 164.333 389.96 164.119 389.687 163.934C388.868 163.359 388.03 162.822 387.182 162.345L371.158 171.565C372.006 172.053 372.835 172.589 373.663 173.154C373.936 173.339 374.199 173.554 374.463 173.749C375.008 174.148 375.554 174.558 376.09 174.996L376.11 175.026Z" fill="#262831"></path></g><path d="M394.657 211.792C394.443 211.909 394.19 211.977 393.956 211.977C393.722 211.977 393.478 211.919 393.254 211.792C392.815 211.539 392.552 211.08 392.552 210.583C392.552 210.086 392.542 209.628 392.513 209.131L392.25 206.295C392.221 206.109 392.065 205.067 392.065 205.067C391.928 204.267 391.792 203.546 391.626 202.825C391.47 202.143 391.324 201.548 391.158 200.953L390.301 198.224C390.223 198 389.784 196.801 389.784 196.801C389.628 196.382 389.462 195.973 389.297 195.573L388.137 192.98C387.796 192.279 387.484 191.655 387.162 191.041L386.636 190.085C386.343 189.559 386.031 189.013 385.681 188.429L384.072 185.904C383.585 185.183 383.137 184.559 382.688 183.964C381.733 182.746 381.109 181.966 380.427 181.186L379.657 180.329C379.218 179.841 378.789 179.393 378.351 178.954L377.483 178.097C377.006 177.648 376.548 177.239 376.089 176.839L375.173 176.05L375.144 176.03C374.627 175.602 374.13 175.231 373.623 174.861L372.902 174.315C372.035 173.711 371.255 173.214 370.465 172.755C370.037 172.512 369.773 172.044 369.773 171.556C369.773 171.059 370.037 170.611 370.475 170.348L386.499 161.137C386.714 161.02 386.967 160.952 387.221 160.952C387.474 160.952 387.688 161.01 387.893 161.127C388.702 161.585 389.56 162.121 390.515 162.784C390.525 162.784 391.012 163.155 391.012 163.155C391.909 163.817 392.474 164.256 393.03 164.704L393.585 165.192C394.453 165.952 394.95 166.391 395.437 166.858L396.383 167.794C396.841 168.242 397.289 168.72 397.747 169.217C397.825 169.295 398.157 169.636 398.244 169.734C399.248 170.923 399.911 171.732 400.545 172.551L400.437 172.385C400.467 172.434 400.623 172.648 400.779 172.843L400.964 173.077C401.675 174.013 402.377 175.026 403.128 176.177L403.498 176.781C404.161 177.834 404.648 178.672 405.126 179.51L405.681 180.543C406.169 181.459 406.656 182.454 407.124 183.477C407.124 183.477 407.348 183.945 407.368 184.003C407.845 185.124 408.147 185.846 408.42 186.567L408.752 187.483C408.976 188.107 409.181 188.701 409.366 189.306L409.609 190.095C409.863 190.943 410.097 191.811 410.311 192.688C410.545 193.75 410.701 194.54 410.838 195.32L410.945 196.041C411.052 196.752 411.13 197.376 411.188 198L411.257 198.819C411.335 199.852 411.364 200.651 411.364 201.363C411.364 201.85 411.091 202.308 410.662 202.552M393.566 199.277C393.858 200.242 394.092 201.1 394.277 201.909C394.511 202.961 394.667 203.751 394.794 204.531L394.921 205.359C394.969 205.651 395.008 205.944 395.038 206.236L395.281 208.186L408.537 200.563L408.508 199.832C408.498 199.559 408.479 199.287 408.459 199.014L408.391 198.351C408.333 197.708 408.255 197.123 408.167 196.528L408.06 195.797C407.933 195.057 407.787 194.325 407.631 193.585C407.407 192.62 407.182 191.781 406.909 190.855L406.685 190.163C406.49 189.53 406.276 188.916 406.061 188.312L405.779 187.551C405.516 186.869 405.243 186.187 404.95 185.514C404.95 185.514 404.804 185.154 404.736 185.007C404.112 183.672 403.664 182.746 403.167 181.82L402.825 181.186C402.25 180.153 401.773 179.344 401.237 178.496L400.759 177.717C400.106 176.693 399.414 175.699 398.693 174.753C397.698 173.486 397.065 172.707 396.431 171.976L396.012 171.488C395.223 170.631 394.794 170.192 394.365 169.763L393.488 168.896C393.01 168.437 392.552 168.028 392.094 167.629L391.236 166.888C390.7 166.449 390.174 166.049 389.648 165.669L388.907 165.123C388.527 164.86 388.166 164.617 387.805 164.383L387.172 163.973L373.877 171.615L375.349 172.716C375.914 173.136 376.401 173.506 376.869 173.886L377.922 174.793C378.39 175.202 378.887 175.64 379.365 176.108L380.086 176.81C380.768 177.502 381.226 177.98 381.674 178.467L382.523 179.413C383.205 180.202 383.848 180.992 384.482 181.801L384.374 181.625C384.413 181.684 384.54 181.869 384.677 182.044L384.891 182.327C385.593 183.263 386.304 184.276 387.045 185.417C387.045 185.417 387.396 185.972 387.406 185.992C388.03 186.996 388.536 187.844 389.043 188.75L389.589 189.764C390.135 190.807 390.613 191.762 391.041 192.698C391.041 192.698 391.451 193.604 391.46 193.624C391.782 194.364 392.075 195.086 392.338 195.797L392.659 196.665C392.874 197.249 393.088 197.893 393.293 198.536C393.312 198.595 393.41 198.916 393.468 199.111L393.517 199.287L393.566 199.277Z" fill="#262831"></path><path d="M393.478 398.234L393.409 424.824C393.37 439.162 383.107 444.942 370.514 437.739L94.1969 279.877C81.5844 272.654 71.3889 255.207 71.4377 240.869L71.506 214.26L393.478 398.234Z" fill="url(#paint0_linear_2750_42709)"></path><path d="M380.759 442.241C377.328 442.241 373.644 441.13 369.813 438.937L93.5062 281.065C80.5135 273.638 69.9867 255.606 70.0452 240.859L70.1135 214.25C70.1135 213.753 70.3864 213.295 70.825 213.051C71.0297 212.934 71.2733 212.876 71.517 212.876C71.7606 212.876 72.014 212.944 72.2285 213.061L394.2 397.035C394.629 397.279 394.902 397.746 394.902 398.244L394.824 424.833C394.804 432.26 392.173 437.836 387.416 440.536C385.428 441.666 383.196 442.241 380.759 442.241ZM72.8524 240.879C72.7939 254.729 82.687 271.689 94.9097 278.677L371.217 436.549C374.618 438.489 377.825 439.473 380.74 439.473C382.689 439.473 384.463 439.025 386.013 438.148C389.863 435.954 391.997 431.227 392.007 424.843L392.085 399.052L72.9107 216.677L72.8524 240.898V240.879Z" fill="#262831"></path><path d="M83.3899 209.053C82.5419 208.566 82.0254 207.679 82.0254 206.714L82.464 26.6583C82.464 25.7129 82.5809 21.0051 84.6278 21.0051C85.2321 21.0051 86.9282 21.1708 89.6183 22.7108L365.935 180.573C375.302 185.924 383.489 199.94 383.46 210.574L383.041 375.6C383.041 377.676 380.77 378.963 378.957 377.929L83.3899 209.044V209.053Z" fill="white"></path><path d="M383.031 381.653C382.787 381.653 382.543 381.585 382.329 381.458L81.3131 209.463C80.8745 209.22 80.6113 208.752 80.6113 208.255L81.0499 26.6493C81.0694 24.0274 81.5567 19.612 84.6172 19.612C85.3287 19.612 87.3074 19.7972 90.2998 21.5126L366.626 179.384C376.529 185.038 384.882 199.327 384.853 210.584L384.424 380.269C384.424 380.766 384.151 381.225 383.713 381.468C383.498 381.585 383.264 381.653 383.021 381.653H383.031ZM84.2372 23.4132C84.0032 24.2807 83.8667 25.4602 83.8667 26.6688L83.4183 207.475L381.637 377.872L382.056 210.575C382.085 200.545 374.063 186.821 365.223 181.782L88.8963 23.9103C87.7364 23.2476 86.6642 22.7894 85.709 22.5555L84.5394 22.2632L84.2274 23.423L84.2372 23.4132Z" fill="#262831"></path><path d="M205.391 164.704L154.404 135.58V113.474L205.391 142.598V164.704Z" fill="#B6CCDF"></path><path d="M148.06 209.648L116.246 191.47V183.604L148.06 201.782V209.648Z" fill="#B6CCDF"></path><path d="M149.259 211.704L115.047 192.161V181.547L149.259 201.089V211.704Z" fill="#B6CCDF"></path><path d="M204.475 241.881L155.613 213.966V206.09L204.475 234.005V241.881Z" fill="#B6CCDF"></path><path d="M205.674 227.533L115.047 175.757V153.651L205.674 205.426V227.533Z" fill="#B6CCDF"></path><path d="M205.391 199.18L115.037 147.56V136.38L205.391 188V199.18Z" fill="#B6CCDF"></path><path d="M204.192 179.626L155.613 151.867V143.289L204.192 171.049V179.626Z" fill="#B6CCDF"></path><path d="M116.246 129.382L148.06 147.56V111.204L116.246 93.0262V129.382Z" fill="#B6CCDF"></path><path d="M149.259 149.607L115.047 130.064V90.9687L149.259 110.511V149.607Z" fill="#B6CCDF"></path><path d="M255.188 266.628L219.008 245.916V235.438L255.188 256.16V266.628Z" fill="#B6CCDF"></path><path d="M220.666 206.596L363.43 287.681V267.7L220.666 186.625V206.596Z" fill="#B6CCDF"></path><path d="M219.934 222.571L362.688 303.647V296.444L219.934 215.368V222.571Z" fill="#B6CCDF"></path><path d="M326.362 74.1916L212.615 9.20855C209.857 7.62954 207.342 7.4053 205.442 8.29227C205.169 8.41898 182.594 21.4897 182.594 21.4897C182.127 21.7626 182.166 22.445 182.663 22.6594L193.648 27.4062L201.913 38.6639V87.0283C201.913 93.822 206.709 102.068 212.625 105.45L233.649 117.458C235.949 118.774 237.84 122.01 237.84 124.642V139.009C237.84 142.255 241.252 145.842 243.269 144.711L258.982 135.9C261.233 134.642 264.255 134.944 267.413 136.748L278.592 143.132L309.442 185.171L334.472 170.794L334.667 170.638C336.294 169.41 337.084 167.324 337.084 164.254V92.6133C337.084 85.8197 332.288 77.5738 326.372 74.1916H326.362Z" fill="#3454A8"></path><path d="M327.103 72.9249L213.366 7.94182C210.286 6.17762 207.245 5.83648 204.818 6.96712C204.467 7.13282 204.145 7.31803 203.931 7.47399L181.844 20.2327C181.142 20.6421 180.743 21.3926 180.782 22.1919C180.831 22.9911 181.328 23.6929 182.059 24.0146L192.673 28.6055L200.412 39.1516V87.0385C200.412 94.417 205.442 103.063 211.865 106.727L232.879 118.736C234.722 119.788 236.33 122.547 236.33 124.642V139.009C236.33 141.924 238.357 144.672 240.258 145.774C241.564 146.524 242.88 146.612 243.962 145.998L259.674 137.187C261.428 136.202 263.962 136.504 266.633 138.025L277.53 144.253L308.984 187.12L335.174 172.081L335.525 171.818C337.542 170.287 338.527 167.821 338.527 164.264V92.6235C338.527 85.2548 333.497 76.5995 327.074 72.9347L327.103 72.9249ZM335.593 92.6918V162.958C335.593 165.969 334.813 168.016 333.224 169.225L333.039 169.381L308.487 183.485L278.222 142.245L267.257 135.978C264.157 134.204 261.194 133.912 258.982 135.15L243.572 143.785C241.593 144.896 238.25 141.378 238.25 138.191V124.106C238.25 121.523 236.398 118.356 234.137 117.059L213.522 105.275C207.722 101.961 203.015 93.8712 203.015 87.2042C203.015 87.2042 203.141 87.2042 203.395 87.2042C203.395 87.1458 203.395 87.0872 203.395 87.0287V38.1867L194.613 26.2271L184.739 21.958L205.539 9.94C205.705 9.82303 205.89 9.71587 206.085 9.62815C207.615 8.91662 209.672 9.22841 211.884 10.4858L325.622 75.4689C331.119 78.6074 335.593 86.3075 335.593 92.6235H335.573C335.573 92.6235 335.593 92.6723 335.593 92.7015V92.6918Z" fill="#262831"></path><path d="M189.175 22.7762L302.922 87.7592C308.838 91.1414 313.634 99.3873 313.634 106.181V177.821C313.634 184.615 308.838 187.383 302.922 184.001L243.953 150.315C240.795 148.512 237.773 148.21 235.522 149.467L219.81 158.278C217.792 159.409 214.381 155.822 214.381 152.577V138.239C214.381 135.578 212.509 132.352 210.189 131.036L189.165 119.028C183.249 115.645 178.453 107.399 178.453 100.606V28.9655C178.453 22.1719 183.249 19.4037 189.165 22.7859L189.175 22.7762Z" fill="white"></path><path d="M307.687 186.925C305.962 186.925 304.091 186.369 302.18 185.278L243.221 151.592C240.56 150.072 238.036 149.76 236.262 150.754L220.55 159.565C219.468 160.179 218.152 160.092 216.846 159.341C214.935 158.24 212.918 155.501 212.918 152.577V138.239C212.918 136.095 211.339 133.375 209.467 132.303L188.443 120.295C182.02 116.63 176.99 107.975 176.99 100.606V28.9656C176.99 25.1253 178.374 22.2109 180.889 20.7781C183.394 19.3551 186.601 19.6183 189.924 21.5189L303.662 86.502C310.085 90.1669 315.115 98.8221 315.115 106.191V177.831C315.115 181.671 313.73 184.586 311.216 186.019C310.153 186.623 308.964 186.925 307.687 186.925ZM238.611 147.235C240.511 147.235 242.578 147.84 244.693 149.058L303.652 182.744C306.03 184.098 308.185 184.362 309.725 183.475C311.284 182.588 312.142 180.58 312.142 177.831V106.191C312.142 99.8748 307.668 92.1747 302.171 89.0362L188.423 24.0531C186.055 22.6983 183.891 22.4351 182.351 23.3123C180.792 24.1993 179.934 26.2072 179.934 28.9656V100.606C179.934 106.922 184.408 114.622 189.905 117.76L210.929 129.769C213.697 131.348 215.861 135.071 215.861 138.239V152.577C215.861 154.253 217.128 156.115 218.318 156.807C218.698 157.031 218.971 157.06 219.068 157.012L234.78 148.2C235.93 147.557 237.217 147.235 238.601 147.235H238.611Z" fill="#262831"></path><path d="M165.389 149.539L165.281 189.229C165.262 192.854 163.985 195.398 161.88 196.597L146.986 205.184C149.062 203.985 150.369 201.412 150.369 197.796L150.476 158.146L150.495 158.087L165.389 149.539Z" fill="#CEE0F6"></path><path d="M131.917 200.486L146.82 191.919L144.335 214.308L129.432 222.875L131.917 200.486Z" fill="url(#paint1_linear_2750_42709)"></path><path d="M129.43 224.346C129.147 224.346 128.865 224.259 128.621 224.103C128.144 223.8 127.89 223.264 127.958 222.709L130.444 200.32C130.492 199.852 130.765 199.443 131.185 199.199L146.078 190.632C146.302 190.505 146.565 190.437 146.828 190.437C147.121 190.437 147.394 190.515 147.638 190.671C148.105 190.973 148.369 191.509 148.3 192.064L145.805 214.453C145.756 214.921 145.483 215.33 145.064 215.574L130.181 224.132C129.947 224.259 129.683 224.337 129.43 224.337V224.346ZM133.31 201.383L131.224 220.126L142.93 213.4L145.015 194.647L133.31 201.383Z" fill="#262831"></path><path d="M165.391 149.54L165.283 189.229C165.264 192.855 163.987 195.399 161.882 196.598L146.988 205.185C149.064 203.986 150.371 201.413 150.371 197.797L150.478 158.146V158.088C150.517 150.787 145.341 141.917 138.908 138.253V138.233H138.889L62.4431 94.5568C59.2266 92.6952 56.2831 92.5392 54.168 93.7381L69.0809 85.19C71.196 83.9521 74.12 84.1374 77.3365 85.9796L153.801 129.656C160.215 133.34 165.401 142.229 165.391 149.54Z" fill="url(#paint2_linear_2750_42709)"></path><path d="M146.997 206.657C146.461 206.657 145.983 206.384 145.72 205.926C145.301 205.224 145.544 204.318 146.246 203.908C147.923 202.943 148.888 200.711 148.888 197.797L148.995 158.146C149.034 151.314 144.18 142.961 138.176 139.539L61.7107 95.8437C60.1317 94.9373 58.5821 94.4499 57.2272 94.4499C56.3597 94.4499 55.5799 94.6449 54.9073 95.025C54.6831 95.1517 54.4297 95.2199 54.1665 95.2199C53.6305 95.2199 53.1433 94.947 52.8801 94.4791C52.4707 93.7774 52.724 92.8807 53.4258 92.4713L68.3387 83.9135C69.4498 83.2702 70.7171 82.9388 72.1206 82.9388C74.0115 82.9388 76.0778 83.5528 78.0857 84.7029L154.551 128.379C161.481 132.356 166.9 141.654 166.881 149.54L166.773 189.229C166.754 193.284 165.282 196.355 162.631 197.865L147.747 206.443C147.513 206.579 147.26 206.647 146.997 206.647V206.657ZM72.1499 85.8726C71.2824 85.8726 70.5025 86.0675 69.8398 86.4574L60.4535 91.8377L62.4124 92.8611C62.6756 92.9976 62.9388 93.1341 63.1923 93.29L139.54 136.908C139.648 136.966 139.716 137.005 139.784 137.044C146.675 141.099 152.007 150.32 151.977 158.098L151.87 197.797C151.87 198.041 151.87 198.275 151.851 198.509L151.734 200.741L161.14 195.321C162.836 194.347 163.781 192.183 163.791 189.22L163.898 149.53C163.918 142.824 158.956 134.305 153.05 130.923L76.5943 87.2468C75.0153 86.3404 73.4755 85.8628 72.1401 85.8628L72.1499 85.8726ZM165.399 150.748H165.458V148.331L165.399 150.748Z" fill="#262831"></path><path d="M138.907 138.233C145.331 141.907 150.516 150.787 150.496 158.097L150.379 197.796C150.36 205.087 145.145 208.04 138.712 204.375L131.919 200.496L129.433 222.885L111.567 188.868L62.2571 160.699C55.8338 157.025 50.6388 148.126 50.6583 140.835L50.7751 101.136C50.7946 93.8351 56.0189 90.8915 62.4422 94.5661L138.898 138.242L138.907 138.233Z" fill="white"></path><path d="M129.432 224.346C128.877 224.346 128.37 224.044 128.117 223.556L110.445 189.92L61.5154 161.965C54.5756 157.998 49.1563 148.709 49.1758 140.824L49.2829 101.125C49.3024 97.0603 50.7742 93.9802 53.4449 92.4597C54.5755 91.8164 55.8525 91.4948 57.2171 91.4948C59.108 91.4948 61.1158 92.099 63.1919 93.2784L139.647 136.955C146.587 140.912 151.997 150.201 151.987 158.096L151.87 197.795C151.86 201.86 150.378 204.94 147.718 206.46C146.577 207.104 145.31 207.435 143.936 207.435C142.055 207.435 140.047 206.831 137.98 205.642L133.156 202.893L130.924 223.04C130.846 223.693 130.368 224.209 129.725 224.326C129.627 224.346 129.539 224.356 129.442 224.356L129.432 224.346ZM57.2268 94.448C56.3594 94.448 55.5893 94.6333 54.9362 95.0134C53.25 95.9783 52.2753 98.2006 52.2655 101.134L52.1585 140.834C52.1292 147.53 57.1001 156.049 63.0067 159.421L112.317 187.59C112.56 187.727 112.755 187.941 112.882 188.185L128.497 217.893L130.446 200.339C130.504 199.842 130.807 199.413 131.255 199.189C131.469 199.082 131.694 199.023 131.928 199.023C132.191 199.023 132.444 199.091 132.678 199.218L139.472 203.098C141.051 203.994 142.601 204.472 143.946 204.472C144.803 204.472 145.573 204.277 146.236 203.907C147.942 202.942 148.887 200.768 148.897 197.795L149.014 158.106C149.033 151.4 144.072 142.89 138.166 139.518L61.7103 95.8419C60.1313 94.9354 58.5817 94.4675 57.2268 94.4675V94.448Z" fill="#262831"></path><path d="M131.238 154.305C131.111 154.305 130.818 154.266 130.399 154.022L72.2782 120.814C70.9039 120.025 69.7051 117.968 69.7051 116.409C69.7051 115.941 69.8024 115.376 70.2507 115.376C70.4749 115.376 70.7674 115.473 71.0696 115.648L129.191 148.856C130.584 149.656 131.764 151.673 131.764 153.262C131.764 153.652 131.696 154.305 131.238 154.305Z" fill="#262831"></path><path d="M131.238 167.795C131.111 167.795 130.818 167.756 130.399 167.512L72.2782 134.304C70.9039 133.515 69.7051 131.458 69.7051 129.899C69.7051 129.431 69.8024 128.865 70.2507 128.865C70.4749 128.865 70.7674 128.963 71.0696 129.138L129.191 162.346C130.584 163.146 131.764 165.163 131.764 166.752C131.764 167.142 131.696 167.795 131.238 167.795Z" fill="#262831"></path><path d="M131.461 180.456C131.246 180.456 130.963 180.359 130.671 180.193L101.274 163.399C99.8805 162.6 98.7012 160.563 98.7012 158.954C98.7012 158.564 98.779 157.921 99.2468 157.921C99.471 157.921 99.7635 158.019 100.066 158.194L129.462 174.988C130.817 175.758 132.036 177.854 132.036 179.394C132.036 179.793 131.958 180.466 131.461 180.466V180.456Z" fill="#262831"></path><path d="M276.369 276.64L276.262 316.33C276.242 319.956 274.966 322.5 272.86 323.699L257.967 332.286C260.043 331.087 261.349 328.514 261.349 324.898L261.456 285.247L261.476 285.189L276.369 276.64Z" fill="#CEE0F6"></path><path d="M240.424 351.448C240.142 351.448 239.859 351.36 239.615 351.204C239.138 350.902 238.884 350.366 238.952 349.81L241.438 327.422C241.487 326.954 241.76 326.544 242.179 326.301L257.072 317.733C257.296 317.607 257.559 317.538 257.823 317.538C258.115 317.538 258.388 317.616 258.631 317.772C259.099 318.074 259.363 318.611 259.294 319.166L256.799 341.555C256.75 342.023 256.477 342.432 256.058 342.676L241.175 351.234C240.941 351.36 240.678 351.438 240.424 351.438V351.448ZM244.303 328.484L242.218 347.228L253.924 340.502L256.01 321.749L244.303 328.484Z" fill="#262831"></path><path d="M244.303 328.495L242.217 347.238L253.923 340.513L256.009 321.76L244.303 328.495Z" fill="white"></path><path d="M276.373 276.641L276.266 316.331C276.246 319.956 274.97 322.5 272.864 323.699L257.971 332.286C260.047 331.087 261.353 328.514 261.353 324.898L261.46 285.247V285.189C261.499 277.889 256.323 269.019 249.89 265.354V265.334H249.871L173.426 221.658C170.209 219.797 167.265 219.641 165.15 220.84L180.063 212.291C182.178 211.054 185.102 211.239 188.319 213.081L264.784 256.757C271.197 260.441 276.383 269.331 276.373 276.641Z" fill="white"></path><path d="M257.979 333.758C257.443 333.758 256.966 333.486 256.702 333.027C256.283 332.326 256.527 331.419 257.229 331.01C258.905 330.045 259.87 327.813 259.87 324.898L259.977 285.248C260.016 278.415 255.162 270.062 249.158 266.641L172.693 222.945C171.114 222.039 169.564 221.551 168.21 221.551C167.342 221.551 166.562 221.746 165.89 222.126C165.666 222.253 165.412 222.321 165.149 222.321C164.613 222.321 164.126 222.048 163.862 221.581C163.453 220.879 163.707 219.982 164.408 219.573L179.321 211.015C180.432 210.372 181.699 210.04 183.103 210.04C184.994 210.04 187.06 210.654 189.068 211.804L265.533 255.481C272.463 259.457 277.882 268.756 277.863 276.641L277.756 316.331C277.736 320.386 276.265 323.456 273.613 324.967L258.73 333.544C258.496 333.68 258.242 333.749 257.979 333.749V333.758ZM183.132 212.974C182.265 212.974 181.485 213.169 180.822 213.559L171.436 218.939L173.395 219.963C173.658 220.099 173.921 220.236 174.175 220.391L250.523 264.009C250.63 264.068 250.698 264.107 250.767 264.146C257.658 268.2 262.989 277.421 262.96 285.199L262.853 324.898C262.853 325.142 262.853 325.376 262.833 325.61L262.716 327.842L272.122 322.423C273.818 321.448 274.764 319.284 274.773 316.321L274.881 276.631C274.9 269.926 269.939 261.407 264.032 258.025L187.577 214.348C185.998 213.442 184.458 212.964 183.123 212.964L183.132 212.974ZM276.381 277.85H276.44V275.433L276.381 277.85Z" fill="#262831"></path><path d="M249.886 265.334C256.309 269.009 261.495 277.888 261.475 285.198L261.358 324.898C261.339 332.188 256.124 335.142 249.691 331.477L242.897 327.598L240.412 349.986L222.546 315.969L173.236 287.801C166.813 284.126 161.617 275.227 161.637 267.936L161.754 228.237C161.773 220.937 166.998 217.993 173.421 221.668L249.876 265.344L249.886 265.334Z" fill="#B6CCDF"></path><path d="M240.423 351.447C239.867 351.447 239.36 351.145 239.107 350.658L221.436 317.021L172.506 289.067C165.566 285.1 160.147 275.811 160.166 267.926L160.273 228.226C160.293 224.162 161.765 221.082 164.435 219.561C165.566 218.918 166.843 218.596 168.207 218.596C170.098 218.596 172.106 219.201 174.182 220.38L250.638 264.056C257.577 268.013 262.987 277.302 262.977 285.197L262.86 324.897C262.85 328.961 261.369 332.041 258.708 333.562C257.568 334.205 256.3 334.536 254.926 334.536C253.045 334.536 251.037 333.932 248.971 332.743L244.146 329.994L241.914 350.141C241.836 350.794 241.358 351.311 240.715 351.428C240.618 351.447 240.53 351.457 240.432 351.457L240.423 351.447ZM168.217 221.55C167.35 221.55 166.58 221.735 165.927 222.115C164.24 223.08 163.266 225.302 163.256 228.236L163.149 267.935C163.119 274.632 168.091 283.15 173.997 286.523L223.307 314.692C223.551 314.828 223.746 315.043 223.872 315.286L239.487 344.995L241.436 327.441C241.495 326.944 241.797 326.515 242.245 326.29C242.46 326.183 242.684 326.125 242.918 326.125C243.181 326.125 243.435 326.193 243.669 326.32L250.462 330.199C252.041 331.096 253.591 331.573 254.936 331.573C255.794 331.573 256.564 331.378 257.226 331.008C258.932 330.043 259.878 327.87 259.887 324.897L260.004 285.207C260.024 278.501 255.063 269.992 249.156 266.62L172.701 222.943C171.122 222.037 169.572 221.569 168.217 221.569V221.55Z" fill="#262831"></path><path d="M189.427 273.013C188.316 273.013 187.117 272.662 185.889 271.96C181.853 269.66 178.705 264.241 178.705 259.64C178.705 257.194 179.602 255.332 181.22 254.406C182.848 253.47 184.924 253.646 187.058 254.864C191.094 257.165 194.251 262.574 194.251 267.184C194.251 269.631 193.355 271.493 191.727 272.419C191.035 272.818 190.255 273.013 189.427 273.013Z" fill="#262831"></path><path d="M213.103 287.137C211.991 287.137 210.793 286.786 209.564 286.084C205.529 283.784 202.381 278.374 202.381 273.764C202.381 271.318 203.278 269.456 204.896 268.53C206.523 267.594 208.59 267.76 210.734 268.988C214.769 271.288 217.917 276.698 217.917 281.308C217.917 283.755 217.021 285.616 215.393 286.542C214.701 286.942 213.921 287.137 213.093 287.137H213.103Z" fill="#262831"></path><path d="M237.394 301.892C236.282 301.892 235.084 301.541 233.855 300.84C229.82 298.539 226.662 293.13 226.662 288.519C226.662 286.073 227.559 284.211 229.177 283.285C230.805 282.359 232.881 282.525 235.025 283.743C239.06 286.044 242.209 291.463 242.209 296.064C242.209 298.51 241.312 300.372 239.684 301.298C238.992 301.697 238.212 301.892 237.384 301.892H237.394Z" fill="#262831"></path><path d="M28.133 100.336L2.85914 98.7472C2.06964 98.6985 1.29971 98.9908 0.753884 99.5562C0.208054 100.121 -0.0648711 100.892 0.0131046 101.671L1.7381 118.689C1.83557 119.615 2.4107 120.434 3.25868 120.824C4.0092 121.175 4.85733 121.165 5.5981 120.805C5.69557 120.756 5.79285 120.697 5.89032 120.639L29.4391 105.209C29.8095 104.966 30.1116 104.634 30.3163 104.264C30.6379 103.679 30.7354 102.977 30.5502 102.305C30.248 101.203 29.2734 100.414 28.1232 100.336H28.133ZM19.809 105.141L6.64085 113.767L5.67591 104.254L19.809 105.141Z" fill="#FF6000"></path><path d="M398.577 145.962L423.851 147.55C424.64 147.599 425.41 147.307 425.956 146.741C426.502 146.176 426.775 145.406 426.697 144.626L424.972 127.608C424.874 126.682 424.299 125.863 423.451 125.474C422.701 125.123 421.852 125.132 421.112 125.493C421.014 125.542 420.917 125.6 420.819 125.659L397.271 141.088C396.9 141.332 396.598 141.663 396.393 142.034C396.072 142.618 395.974 143.32 396.16 143.993C396.462 145.094 397.436 145.884 398.587 145.962H398.577ZM406.901 141.156L420.069 132.53L421.034 142.043L406.901 141.156Z" fill="#FF6000"></path><path d="M41.1257 61.2994C36.8175 61.2994 33.3184 64.7694 33.3184 69.0191C33.3184 73.2687 36.8175 76.7484 41.1257 76.7484C45.4339 76.7484 48.933 73.2785 48.933 69.0191C48.933 64.7596 45.4339 61.2994 41.1257 61.2994ZM41.1257 72.2258C39.342 72.2258 37.8896 70.793 37.8896 69.0288C37.8896 67.2646 39.342 65.8318 41.1257 65.8318C42.9094 65.8318 44.3618 67.2646 44.3618 69.0288C44.3618 70.793 42.9094 72.2258 41.1257 72.2258Z" fill="#3454A8"></path><path d="M377.436 115.082C373.128 115.082 369.629 118.552 369.629 122.802C369.629 127.051 373.128 130.531 377.436 130.531C381.744 130.531 385.244 127.061 385.244 122.802C385.244 118.542 381.744 115.082 377.436 115.082ZM377.436 126.008C375.653 126.008 374.2 124.576 374.2 122.812C374.2 121.047 375.653 119.615 377.436 119.615C379.22 119.615 380.672 121.047 380.672 122.812C380.672 124.576 379.22 126.008 377.436 126.008Z" fill="#3454A8"></path><path d="M112.173 329.037C107.864 329.037 104.365 332.507 104.365 336.757C104.365 341.007 107.864 344.486 112.173 344.486C116.481 344.486 119.98 341.016 119.98 336.757C119.98 332.498 116.481 329.037 112.173 329.037ZM112.173 339.964C110.389 339.964 108.937 338.531 108.937 336.767C108.937 335.002 110.389 333.57 112.173 333.57C113.956 333.57 115.409 335.002 115.409 336.767C115.409 338.531 113.956 339.964 112.173 339.964Z" fill="#32C7E8"></path><path d="M12.7416 55.919C14.5504 55.919 16.0167 54.4657 16.0167 52.6732C16.0167 50.8806 14.5504 49.4275 12.7416 49.4275C10.9329 49.4275 9.4668 50.8806 9.4668 52.6732C9.4668 54.4657 10.9329 55.919 12.7416 55.919Z" fill="#32C7E8"></path><path d="M408.568 110.404C410.377 110.404 411.843 108.951 411.843 107.159C411.843 105.366 410.377 103.913 408.568 103.913C406.759 103.913 405.293 105.366 405.293 107.159C405.293 108.951 406.759 110.404 408.568 110.404Z" fill="#32C7E8"></path><path d="M139.56 334.624C141.369 334.624 142.835 333.171 142.835 331.378C142.835 329.586 141.369 328.133 139.56 328.133C137.752 328.133 136.285 329.586 136.285 331.378C136.285 333.171 137.752 334.624 139.56 334.624Z" fill="#3454A8"></path><path opacity="0.2" d="M358.126 305.762C357.629 304.982 356.761 304.524 355.835 304.524H338.993C337.491 304.524 336.273 305.713 336.264 307.204C336.215 318.862 336.146 366.251 336.127 403.495L358.009 428.193L367.551 426.02C369.208 430.864 370.855 435.699 372.503 440.533C376.499 440.913 382.162 441.527 382.337 441.488C397.328 438.194 393.478 405.941 393.478 405.941L393.956 361.3C370.69 325.275 362.688 312.857 358.136 305.771L358.126 305.762Z" fill="#262831"></path><path d="M412.582 439.139C383.809 394.625 355.046 350.101 326.283 305.586C326.058 305.245 325.883 304.875 325.688 304.524H304.634L311.906 343.512L309.206 422.326L304.469 428.388H325.522C325.766 428.33 326.039 428.301 326.263 428.213C330.113 426.653 333.963 425.094 337.823 423.534C339.08 423.583 340.055 423.632 340.055 423.681C340.055 423.797 367.22 458.789 367.22 458.789H388.273C384.91 448.984 381.567 439.246 378.214 429.461L386.85 435.396L392.221 440.387H413.274C413.274 440.387 413.362 440.299 413.401 440.26C413.128 439.89 412.835 439.529 412.592 439.139H412.582Z" fill="#F96000"></path><path d="M343.945 428.74C351.45 438.458 367.231 458.78 367.231 458.78H388.284C385.37 450.29 382.475 441.84 379.571 433.37L348.419 412.804L343.955 428.74H343.945Z" fill="#262831"></path><path d="M305.221 428.203C319.013 428.203 325.524 428.379 325.524 428.379L347.181 423.437C344.267 414.947 331.079 410.288 331.079 410.288L305.221 428.203Z" fill="#262831"></path><path d="M388.285 460.33H367.242C366.754 460.33 366.296 460.106 366.004 459.725C347.007 435.251 341.139 427.697 339.326 425.143C339.083 425.124 338.702 425.104 338.118 425.085L326.879 429.636C326.577 429.753 326.304 429.812 326.08 429.851L325.905 429.89C325.788 429.919 325.671 429.929 325.554 429.929H304.5C303.906 429.929 303.36 429.598 303.097 429.061C302.834 428.535 302.902 427.902 303.262 427.434L307.688 421.761L310.368 343.619L303.126 304.797C303.038 304.349 303.165 303.881 303.457 303.53C303.75 303.179 304.198 302.975 304.656 302.975H325.71C326.285 302.975 326.811 303.287 327.084 303.784L327.279 304.144C327.386 304.349 327.493 304.563 327.63 304.758C356.393 349.273 385.157 393.797 413.93 438.311C414.076 438.535 414.241 438.76 414.407 438.984L414.69 439.364C415.138 439.978 415.07 440.826 414.524 441.362L414.417 441.469C414.125 441.771 413.715 441.937 413.296 441.937H392.252C391.853 441.937 391.472 441.791 391.18 441.518L385.888 436.606L381.248 433.418L389.786 458.293C389.952 458.76 389.874 459.287 389.572 459.696C389.279 460.106 388.802 460.339 388.305 460.339L388.285 460.33ZM368.011 457.24H386.112L376.754 429.958C376.54 429.325 376.755 428.623 377.291 428.223C377.827 427.824 378.568 427.804 379.123 428.184L387.749 434.12C387.808 434.159 387.866 434.208 387.925 434.266L392.847 438.838H410.538C382.018 394.703 353.489 350.559 324.979 306.425C324.901 306.308 324.833 306.191 324.764 306.074H306.528L313.458 343.23C313.477 343.337 313.487 343.454 313.487 343.561L310.787 422.375C310.777 422.697 310.661 423.009 310.466 423.272L307.678 426.849H325.378C325.378 426.849 325.456 426.829 325.495 426.829C325.564 426.82 325.641 426.81 325.71 426.781L337.25 422.112C337.455 422.024 337.669 421.985 337.903 421.995C340.145 422.083 341.266 422.131 341.558 423.077C343.595 425.777 360.711 447.844 368.011 457.25V457.24Z" fill="#262831"></path><path d="M304.646 304.526C304.841 304.887 305.017 305.247 305.241 305.588C334.004 350.103 362.767 394.627 391.54 439.141C391.784 439.522 392.076 439.882 392.349 440.262C392.31 440.301 392.262 440.35 392.223 440.389C379.308 433.011 366.403 425.632 353.284 418.147C357.952 431.773 362.573 445.224 367.222 458.791C360.321 458.216 353.449 457.641 346.5 457.066C341.948 443.732 337.425 430.476 332.844 417.065C332.562 417.162 332.328 417.23 332.113 417.328C323.146 420.954 314.179 424.589 305.211 428.215C304.987 428.303 304.714 428.332 304.471 428.39C304.471 387.317 304.471 346.233 304.471 305.16C304.471 304.916 304.578 304.74 304.627 304.526H304.646Z" fill="white"></path><path d="M367.231 460.33C367.231 460.33 367.143 460.33 367.104 460.33L346.382 458.605C345.758 458.556 345.232 458.137 345.037 457.562L331.908 419.091L325.475 421.693C318.925 424.345 312.375 426.996 305.825 429.647C305.523 429.774 305.25 429.822 305.025 429.861L304.85 429.9C304.392 430.008 303.895 429.9 303.524 429.608C303.154 429.315 302.93 428.867 302.93 428.399C302.93 387.326 302.93 346.242 302.93 305.168C302.93 304.74 303.047 304.418 303.115 304.223C303.281 303.609 303.817 303.112 304.45 303.034C305.094 302.956 305.717 303.229 306.029 303.784L306.234 304.155C306.341 304.359 306.448 304.564 306.575 304.759C335.338 349.283 364.102 393.798 392.875 438.312C393.021 438.546 393.187 438.76 393.362 438.985L393.645 439.355C394.093 439.969 394.025 440.817 393.479 441.353L393.372 441.46C392.875 441.967 392.095 442.074 391.471 441.723L356.129 421.528L368.731 458.284C368.897 458.781 368.809 459.326 368.488 459.736C368.186 460.116 367.737 460.33 367.26 460.33H367.231ZM347.668 455.603L364.989 457.046L351.811 418.633C351.606 418.019 351.801 417.346 352.298 416.937C352.805 416.527 353.507 416.469 354.072 416.791L387.641 435.973C360.437 393.885 333.243 351.798 306.049 309.711C306.049 348.533 306.049 387.365 306.049 426.196C312.121 423.74 318.203 421.274 324.295 418.818L331.547 415.884C331.713 415.816 331.898 415.758 332.093 415.689L332.346 415.602C332.746 415.465 333.175 415.485 333.555 415.67C333.935 415.845 334.217 416.177 334.354 416.567L347.678 455.603H347.668Z" fill="#262831"></path><path d="M342.258 197.688L341.497 198L340.737 198.302L339.217 198.916L338.866 199.053L337.316 199.676C338.154 200.154 338.827 201.207 338.827 202.016L338.856 216.704L345.64 220.584V205.924C345.65 205.105 346.332 204.832 347.17 205.31L343.759 200.027L342.998 198.858L342.238 197.678L342.258 197.688ZM336.731 201.402L336.4 201.538L334.587 202.269L326.672 205.466L325.113 206.1L328.271 207.903C329.109 208.38 329.782 209.433 329.782 210.242V211.519L336.731 215.486V201.402ZM347.794 207.727V221.812L354.744 225.779V224.502C354.744 223.683 355.426 223.41 356.254 223.888L359.412 225.691L357.853 223.274L349.938 211.032L348.125 208.225L347.794 207.718V207.727ZM321.818 209.053L323.261 211.285L326.682 216.568L332.384 225.389V224.385C332.384 222.972 333.563 222.494 335.016 223.323L337.306 224.629V235.964L337.316 235.984L338.837 235.37L338.885 235.35L342.258 233.986L345.679 239.278L347.199 241.627H347.229V230.292L349.519 231.598C350.971 232.426 352.151 234.249 352.151 235.672V236.666L357.863 234.356L361.264 232.982L362.697 232.397L321.809 209.034L321.818 209.053Z" fill="#B6CCDF"></path><path d="M276.282 101.219L272.354 103.246L274.488 98.1389L267.042 93.8893L260.424 97.3007L260.969 103.061L254.673 123.159L248.055 126.571L255.043 126.356L255.579 130.879L262.207 127.468L269.664 109.66V112.067L276.282 111.307L288.534 118.325L279.83 133.862L273.202 137.273L282.403 142.527L289.021 139.115L299.509 120.177V114.494L276.282 101.219Z" fill="#B6CCDF"></path><path d="M214.934 88.344L219.291 85.8976C220.139 85.6637 220.899 85.3517 221.562 84.9326C221.893 84.7181 222.166 84.455 222.41 84.1529H222.42V84.1431C223.082 83.2854 223.424 82.067 223.424 80.4685C223.424 78.4899 222.936 76.4625 221.961 74.4059C220.987 72.3493 219.603 70.3804 217.79 68.4992C215.977 66.618 213.803 64.9513 211.269 63.499C208.998 62.2027 207 61.4717 205.284 61.3254C204.027 61.2182 202.964 61.3645 202.068 61.7446L202.039 61.7544C202 61.7739 201.961 61.7933 201.922 61.8128L195.167 65.2828L196.473 66.9787L192.594 68.9768L196.015 69.3374L201.161 75.2246L207.78 71.8132C207.858 71.5793 207.965 71.3746 208.092 71.1991L209.144 71.7255L211.581 77.7686C211.405 77.7881 211.22 77.8271 211.054 77.8369L207.916 78.0123C206.483 78.1 205.187 78.373 204.037 78.8311C203.491 79.0553 202.994 79.2988 202.565 79.5717L197.428 82.2425C197.428 82.2425 198.218 84.9911 198.247 85.0788C198.276 85.1665 199.69 85.225 199.826 85.225C199.855 85.225 200.05 85.1665 200.343 85.069V88.4221L193.725 91.8335L211.484 99.6311L217.127 105.206L223.745 101.795V94.7088L212.575 88.3246H214.953L214.934 88.344Z" fill="#B6CCDF"></path><path d="M249.74 115.109L252.654 113.608V106.736L248.034 104.095V85.0686L239.106 79.9709L239.057 79.9417L232.439 83.3531C232.439 83.3531 232.712 84.1329 233.063 85.0979L225.519 91.5796L218.9 101.512L240.227 106.502V111.23L241.036 111.697L239.701 111.883L233.609 114.651L238.58 115.206L241.406 119.105L245.958 116.922L246.017 117.019L249.72 115.109H249.74ZM240.227 99.6501L233.696 95.917L240.227 90.2736V99.6501Z" fill="#B6CCDF"></path><path d="M204.982 90.3832C205.889 90.0908 206.766 89.9153 207.604 89.8666L210.158 89.7106C212.097 89.5936 213.696 89.1452 214.934 88.346C216.172 87.5565 216.796 86.0652 216.796 83.8722C216.796 81.6791 216.308 79.8662 215.333 77.8096C214.359 75.753 212.975 73.784 211.162 71.9028C209.349 70.0217 207.175 68.3549 204.641 66.9027C202.37 65.6063 200.372 64.8753 198.656 64.7291C196.941 64.5829 195.567 64.8949 194.533 65.6746C193.5 66.4544 192.857 67.5557 192.584 68.9788L201.152 75.2266C201.298 74.788 201.532 74.4371 201.844 74.1837C202.156 73.9303 202.555 73.8036 203.033 73.8133C203.51 73.8231 204.047 73.9984 204.651 74.3396C205.518 74.8367 206.21 75.3436 206.737 75.8602C207.263 76.3768 207.653 76.9129 207.906 77.4684C208.16 78.024 208.286 78.56 208.286 79.0864C208.286 79.6419 208.082 80.0709 207.663 80.3925C207.243 80.7044 206.737 80.9189 206.142 81.0261C205.548 81.1333 204.973 81.2113 204.436 81.26L201.298 81.4354C199.865 81.5231 198.569 81.796 197.418 82.2541C196.268 82.7122 195.362 83.2971 194.709 83.9794C194.046 84.6714 193.725 85.3927 193.725 86.1529V91.8355L217.137 105.208V98.1222L204.203 90.7341C204.456 90.5879 204.729 90.4611 205.011 90.3637L204.982 90.3832Z" fill="#262831"></path><path d="M241.416 88.4915L232.488 83.3938L232.507 83.4621L232.449 83.3743L218.91 95.0123V101.533L233.618 109.935V114.662L241.426 119.116V114.389L246.046 117.031V110.159L241.426 107.518V88.4915H241.416ZM227.078 99.3301L233.609 93.6867V103.063L227.078 99.3301Z" fill="#262831"></path><path d="M248.053 126.574L255.577 130.882L267.868 101.553L260.422 97.3037L248.053 126.574Z" fill="#262831"></path><path d="M269.662 104.633V112.07L283.649 120.062L273.2 137.275L282.401 142.529L292.889 123.591V117.908L269.662 104.633Z" fill="#262831"></path><path d="M434.777 404.956C433.519 404.956 432.496 403.933 432.496 402.675V372.762C432.496 371.505 433.519 370.481 434.777 370.481C436.034 370.481 437.058 371.505 437.058 372.762V402.675C437.058 403.933 436.034 404.956 434.777 404.956Z" fill="#262831"></path><path d="M458.13 391.476C456.873 391.476 455.85 390.453 455.85 389.195V348.356C455.85 347.098 456.873 346.075 458.13 346.075C459.388 346.075 460.411 347.098 460.411 348.356V389.195C460.411 390.453 459.388 391.476 458.13 391.476Z" fill="#262831"></path><path d="M481.484 377.997C480.227 377.997 479.203 376.973 479.203 375.716V313.014C479.203 311.756 480.227 310.733 481.484 310.733C482.741 310.733 483.765 311.756 483.765 313.014V375.716C483.765 376.973 482.741 377.997 481.484 377.997Z" fill="#262831"></path><path d="M504.828 364.508C503.57 364.508 502.547 363.484 502.547 362.227V321.387C502.547 320.13 503.57 319.106 504.828 319.106C506.085 319.106 507.109 320.13 507.109 321.387V362.227C507.109 363.484 506.085 364.508 504.828 364.508Z" fill="#262831"></path><path d="M528.183 351.027C526.926 351.027 525.902 350.004 525.902 348.746V318.833C525.902 317.575 526.926 316.552 528.183 316.552C529.441 316.552 530.464 317.575 530.464 318.833V348.746C530.464 350.004 529.441 351.027 528.183 351.027Z" fill="#262831"></path><path d="M40.709 238.206C40.709 236.451 42.1318 235.019 43.896 235.019C45.6602 235.019 47.0833 236.451 47.0833 238.206C47.0833 239.96 45.6505 241.393 43.896 241.393C42.1416 241.393 40.709 239.97 40.709 238.206ZM40.709 219.433C40.709 217.669 42.1318 216.246 43.896 216.246C45.6602 216.246 47.0833 217.669 47.0833 219.433C47.0833 221.198 45.6505 222.62 43.896 222.62C42.1416 222.62 40.709 221.188 40.709 219.433ZM40.709 200.651C40.709 198.896 42.1318 197.464 43.896 197.464C45.6602 197.464 47.0833 198.896 47.0833 200.651C47.0833 202.405 45.6505 203.838 43.896 203.838C42.1416 203.838 40.709 202.405 40.709 200.651Z" fill="#262830"></path><path d="M43.896 185.065C43.6913 185.065 43.477 185.036 43.2723 184.997C43.0676 184.948 42.8726 184.9 42.6777 184.812C42.4827 184.734 42.3075 184.627 42.132 184.52C41.9468 184.403 41.7909 184.266 41.6447 184.12C41.0501 183.525 40.7188 182.707 40.7188 181.868C40.7188 181.03 41.0598 180.202 41.6447 179.607C41.7909 179.461 41.9566 179.325 42.132 179.217C42.2977 179.1 42.4827 179.003 42.6777 178.915C42.8726 178.847 43.0676 178.779 43.2723 178.73C43.6817 178.652 44.1106 178.652 44.52 178.73C44.7247 178.779 44.9292 178.837 45.1242 178.915C45.3191 178.993 45.4946 179.1 45.67 179.217C45.8455 179.325 46.0112 179.461 46.1574 179.607C46.752 180.202 47.0931 181.02 47.0931 181.868C47.0931 182.716 46.752 183.525 46.1574 184.12C46.0112 184.266 45.8455 184.403 45.67 184.52C45.4946 184.627 45.3191 184.724 45.1242 184.812C44.9292 184.89 44.7344 184.948 44.52 184.997C44.3153 185.036 44.1105 185.065 43.896 185.065Z" fill="#262830"></path><defs><linearGradient id="paint0_linear_2750_42709" x1="71.4377" y1="327.549" x2="393.478" y2="327.549" gradientUnits="userSpaceOnUse"><stop stop-color="#32C9EA"></stop><stop offset="1" stop-color="#4671CA"></stop></linearGradient><linearGradient id="paint1_linear_2750_42709" x1="136.566" y1="109.225" x2="138.623" y2="238.363" gradientUnits="userSpaceOnUse"><stop stop-color="#32C9EA"></stop><stop offset="1" stop-color="#4671CA"></stop></linearGradient><linearGradient id="paint2_linear_2750_42709" x1="109.589" y1="109.635" x2="111.646" y2="238.792" gradientUnits="userSpaceOnUse"><stop stop-color="#32C9EA"></stop><stop offset="1" stop-color="#4671CA"></stop></linearGradient></defs></svg> 