<?xml version="1.0" encoding="UTF-8"?> <svg xmlns="http://www.w3.org/2000/svg" width="176" height="53" viewBox="0 0 176 53" fill="none"><g id="Layer_1" clip-path="url(#clip0_3963_4791)"><g id="Group"><g id="Group_2"><path id="Vector" d="M64.9219 16.0796H58.3823V13.7258H74.1589V16.0796H67.6193V32.6548H64.9219V16.0796Z" fill="#252831"></path><path id="Vector_2" d="M74.73 23.1889C74.73 17.6459 79.0345 13.5106 84.8947 13.5106C90.7549 13.5106 95.0052 17.6204 95.0052 23.1889C95.0052 28.7574 90.7007 32.8673 84.8947 32.8673C79.0887 32.8673 74.73 28.7291 74.73 23.1889ZM92.2792 23.1889C92.2792 18.997 89.1193 15.9153 84.8947 15.9153C80.6701 15.9153 77.456 18.997 77.456 23.1889C77.456 27.3809 80.6159 30.4625 84.8947 30.4625C89.1735 30.4625 92.2792 27.3809 92.2792 23.1889Z" fill="#252831"></path><path id="Vector_3" d="M113.602 20.3225C113.602 24.4323 110.604 26.9192 105.646 26.9192H100.934V32.652H98.2075V13.7258H105.646C110.604 13.7258 113.602 16.2127 113.602 20.3225ZM110.876 20.3225C110.876 17.6176 109.049 16.0767 105.563 16.0767H100.931V24.5655H105.563C109.052 24.5655 110.876 23.0246 110.876 20.3197V20.3225Z" fill="#252831"></path><path id="Vector_4" d="M121.369 16.0796H114.829V13.7258H130.606V16.0796H124.066V32.6548H121.369V16.0796Z" fill="#252831"></path><path id="Vector_5" d="M133.577 13.7258H136.303V32.652H133.577V13.7258Z" fill="#252831"></path><path id="Vector_6" d="M155.865 30.3011V32.652H142.023V13.7258H155.485V16.0796H144.749V21.8917H154.315V24.1888H144.749V30.2983H155.868L155.865 30.3011Z" fill="#252831"></path><path id="Vector_7" d="M173.032 32.652L168.918 26.8399C168.536 26.8682 168.128 26.8937 167.719 26.8937H163.007V32.652H160.281V13.7258H167.719C172.678 13.7258 175.675 16.2127 175.675 20.3225C175.675 23.2427 174.151 25.3529 171.479 26.2989L176.003 32.652H173.032ZM172.949 20.3225C172.949 17.6176 171.122 16.0767 167.637 16.0767H163.004V24.5938H167.637C171.125 24.5938 172.949 23.0246 172.949 20.3225Z" fill="#252831"></path></g><g id="Group_3"><path id="Vector_8" d="M84.178 39.2769H81.4634V38.2997H88.0086V39.2769H85.2941V46.154H84.1751V39.2769H84.178Z" fill="#252831"></path><path id="Vector_9" d="M99.2839 46.1541L97.577 43.7409C97.42 43.7522 97.2487 43.7635 97.0803 43.7635H95.125V46.1541H93.9946V38.2998H97.0803C99.1384 38.2998 100.383 39.3308 100.383 41.0359C100.383 42.2482 99.7492 43.1234 98.6417 43.5143L100.52 46.1512H99.2868L99.2839 46.1541ZM99.2497 41.0387C99.2497 39.9171 98.4933 39.277 97.046 39.277H95.125V42.8118H97.046C98.4933 42.8118 99.2497 42.1604 99.2497 41.0387Z" fill="#252831"></path><path id="Vector_10" d="M112.003 44.1912H107.798L106.928 46.1541H105.763L109.348 38.2998H110.467L114.064 46.1541H112.876L112.006 44.1912H112.003ZM111.606 43.2933L109.899 39.4441L108.192 43.2933H111.606Z" fill="#252831"></path><path id="Vector_11" d="M119.984 38.2998H123.318C125.862 38.2998 127.591 39.8916 127.591 42.2255C127.591 44.5594 125.862 46.1512 123.318 46.1512H119.984V38.297V38.2998ZM123.253 45.1769C125.208 45.1769 126.464 43.9873 126.464 42.2255C126.464 40.4638 125.208 39.2742 123.253 39.2742H121.115V45.1741H123.253V45.1769Z" fill="#252831"></path><path id="Vector_12" d="M139.814 45.1769V46.1541H134.071V38.2998H139.657V39.277H135.201V41.6902H139.169V42.6447H135.201V45.1797H139.814V45.1769Z" fill="#252831"></path><path id="Vector_13" d="M151.683 46.1541L149.976 43.7409C149.819 43.7522 149.648 43.7635 149.479 43.7635H147.524V46.1541H146.394V38.2998H149.479C151.537 38.2998 152.782 39.3308 152.782 41.0359C152.782 42.2482 152.148 43.1234 151.041 43.5143L152.919 46.1512H151.686L151.683 46.1541ZM151.649 41.0387C151.649 39.9171 150.892 39.277 149.445 39.277H147.524V42.8118H149.445C150.892 42.8118 151.649 42.1604 151.649 41.0387Z" fill="#252831"></path></g></g><g id="Group_4"><g id="Group_5"><path id="Vector_14" d="M25.8841 0L24.925 0.951689L23.966 1.90338L22.0449 3.80959L21.6025 4.24578L19.6357 6.19731H19.6415C20.7005 6.19731 21.5596 7.04703 21.5625 8.09785L21.6025 27.0042H30.1944L30.2086 8.10069C30.2086 7.04986 31.0678 6.19731 32.1297 6.19731L27.8052 1.90621L26.8461 0.954521L25.8841 0Z" fill="#2852AB"></path><path id="Vector_15" d="M18.8907 8.84843L18.4711 9.2648L16.1732 11.5449L6.14269 21.498L4.16455 23.4608H8.16364C9.22265 23.4608 10.0847 24.3134 10.0847 25.367V27.0098H18.8878V8.8541L18.8907 8.84843Z" fill="#2852AB"></path><path id="Vector_16" d="M32.9004 8.8626V27.0183H41.7035V25.3755C41.7035 24.3247 42.5627 23.4693 43.6246 23.4693H47.6237L45.6455 21.5065L35.6178 11.5562L33.32 9.27614L32.9004 8.85977V8.8626Z" fill="#2852AB"></path></g><path id="Vector_17" d="M51.788 29.7006L49.9698 31.5077L45.6567 35.7846L38.4235 42.962V41.6789C38.4235 39.852 36.9306 38.3706 35.0895 38.3706H32.1865V52.9632L32.1522 53L30.2312 51.0938H30.2283L30.2369 51.0825L25.901 46.78H25.8981L25.8924 46.7829L21.6193 51.0202L21.5594 51.0796H21.5622L21.5594 51.0881L19.6383 52.9943L19.6212 52.9773V38.3706H16.7182C14.8771 38.3706 13.3842 39.852 13.3842 41.6789V42.9761L6.15958 35.8073L1.83222 31.5134L0.00537109 29.7006H51.788Z" fill="#2852AB"></path></g></g><defs><clipPath id="clip0_3963_4791"><rect width="176" height="53" fill="white"></rect></clipPath></defs></svg> 