<svg xmlns="http://www.w3.org/2000/svg" width="400" height="120" viewBox="0 0 400 120" fill="none"><path d="M16.5 8.50006C16.8 8.60006 16.9 9.00007 16.7 9.30007C16.6 9.40007 16.6 9.50006 16.5 9.50006L5.09999 16.5001C4.59999 16.8001 4.29999 16.6001 4.29999 16.0001V2.00006C4.29999 1.50006 4.69999 1.20006 5.09999 1.50006L16.5 8.50006Z" fill="#68CDED"></path><path d="M24 1H26.2C26.8 1 27.2 1.4 27.2 2V16C27.2 16.6 26.8 17 26.2 17H24C23.4 17 23 16.6 23 16V2C23 1.5 23.4 1 24 1ZM33.8 1H36C36.6 1 37 1.4 37 2V16C37 16.6 36.6 17 36 17H33.8C33.2 17 32.8 16.6 32.8 16V2C32.8 1.5 33.2 1 33.8 1Z" fill="#FF532D"></path><path d="M81 1.3999C81 0.799902 81.4 0.399902 82 0.399902H87.4C88 0.399902 88.1 0.699902 87.7 1.0999L81.7 7.0999C81.3 7.4999 81 7.3999 81 6.7999V1.3999ZM81 17.1999C81 17.7999 81.4 18.1999 82 18.1999H87.4C88 18.1999 88.1 17.8999 87.7 17.4999L81.7 11.4999C81.3 11.0999 81 11.1999 81 11.7999V17.1999ZM98.8 1.3999C98.8 0.799902 98.4 0.399902 97.8 0.399902H92.4C91.8 0.399902 91.7 0.699902 92.1 1.0999L98.1 7.0999C98.5 7.4999 98.8 7.3999 98.8 6.7999V1.3999ZM98.8 17.1999C98.8 17.7999 98.4 18.1999 97.8 18.1999H92.4C91.8 18.1999 91.7 17.8999 92.1 17.4999L98.1 11.4999C98.5 11.0999 98.8 11.1999 98.8 11.7999V17.1999Z" fill="#68CDED"></path><path d="M112.7 5.00011C112.7 5.60011 113.1 6.00011 113.7 6.00011H117.8C118.4 6.00011 118.5 5.70011 118.1 5.30011L113.4 0.600107C113 0.200107 112.7 0.300107 112.7 0.900107V5.00011ZM105.6 6.00011C106.2 6.00011 106.6 5.60011 106.6 5.00011V0.900107C106.6 0.300107 106.3 0.200107 105.9 0.600107L101.2 5.30011C100.8 5.70011 100.9 6.00011 101.5 6.00011H105.6ZM106.6 13.1001C106.6 12.5001 106.2 12.1001 105.6 12.1001H101.5C100.9 12.1001 100.8 12.4001 101.2 12.8001L105.9 17.5001C106.3 17.9001 106.6 17.8001 106.6 17.2001V13.1001ZM113.7 12.1001C113.1 12.1001 112.7 12.5001 112.7 13.1001V17.2001C112.7 17.7001 113 17.9001 113.4 17.5001L118.1 12.8001C118.5 12.4001 118.4 12.1001 117.8 12.1001H113.7Z" fill="#68CDED"></path><path d="M67 5.79994C66.5 6.19994 65.8 6.39994 65.2 6.39994H62C61.4 6.39994 61 6.79994 61 7.39994V13.0999C61 13.6999 61.4 14.0999 62 14.0999H66.2C66.5 14.2999 66.7 14.4999 67 14.6999L70.5 17.2999C70.9 17.5999 71.3 17.3999 71.3 16.8999V3.49994C71.3 2.99994 70.9 2.79994 70.5 3.09994L67 5.79994Z" fill="#68CDED"></path><path d="M73.9 2.50006C73.9 2.50006 77.8 1.70006 77.8 10.2001C77.8 18.7001 73.9 18.0001 73.9 18.0001" stroke="#68CDED" stroke-width="1.5" stroke-linecap="round"></path><path d="M72.6 6.39989C72.6 6.39989 75.2 5.99989 75.2 10.1999C75.2 14.3999 72.6 14.0999 72.6 14.0999" stroke="#68CDED" stroke-width="1.5" stroke-linecap="round"></path><path d="M47 5.79994C46.5 6.19994 45.8 6.39994 45.2 6.39994H42C41.4 6.39994 41 6.79994 41 7.39994V13.0999C41 13.6999 41.4 14.0999 42 14.0999H46.2C46.5 14.2999 46.7 14.4999 47 14.6999L50.5 17.2999C50.9 17.5999 51.3 17.3999 51.3 16.8999V3.49994C51.3 2.99994 50.9 2.79994 50.5 3.09994L47 5.79994Z" fill="#68CDED"></path><path d="M52.8 7L58.2 12.4M52.8 12.4L58.2 7" stroke="#68CDED" stroke-width="2" stroke-linecap="round"></path><path d="M128.7 8.59992C122.5 4.39992 122.2 16.3999 128.7 12.4999M135.2 8.59992C129 4.39992 128.7 16.3999 135.2 12.4999" stroke="#68CDED"></path><path d="M122.2 3.4H137.9V16.5H122.2V3.4ZM120.8 2V17.7H139.1V2H120.8Z" fill="#68CDED"></path><path d="M143.2 3H157.2C158.3 3 159.2 3.9 159.2 5V15C159.2 16.1 158.3 17 157.2 17H143.2C142.1 17 141.2 16.1 141.2 15V5C141.2 3.9 142.1 3 143.2 3Z" fill="#68CDED"></path><path d="M146.4 13.8C145.6 13.8 144.8 13.4 144.3 12.8C143.2 11.4 143.3 9.39999 144.4 7.99999C144.9 7.39999 146.4 6.29999 149 8.19999L148.4 8.99999C147 7.99999 145.8 7.89999 145.1 8.69999C144.3 9.69999 144.3 11.1 145 12.2C145.7 13.1 146.9 13 148.4 12.1L148.9 13C148.2 13.5 147.3 13.7 146.4 13.8ZM153.9 13.8C153.1 13.8 152.3 13.4 151.8 12.8C150.7 11.4 150.8 9.39999 151.9 7.99999C152.4 7.39999 153.9 6.29999 156.5 8.19999L156 8.99999C154.6 7.99999 153.4 7.89999 152.7 8.69999C151.9 9.69999 151.9 11.1 152.6 12.2C153.3 13.1 154.5 13 156 12.1L156.5 13C155.7 13.5 154.8 13.7 153.9 13.8Z" fill="#231F20"></path><path d="M60.3 76.9999C60.9 77.1999 61.1 77.7999 60.9 78.3999C60.8 78.6999 60.6 78.8999 60.3 78.9999L30 96.4999C29 97.0999 28.3 96.5999 28.3 95.4999V60.4999C28.3 59.3999 29.1 58.9999 30 59.4999L60.3 76.9999Z" fill="#68CDED"></path><path opacity="0.75" d="M2.5 79C2.5 58.3 19.3 41.5 40 41.5C60.7 41.5 77.5 58.3 77.5 79C77.5 99.7 60.7 116.5 40 116.5C19.3 116.5 2.5 99.7 2.5 79Z" stroke="#68CDED" stroke-width="5"></path><path d="M140.3 76.9999C140.9 77.1999 141.1 77.7999 140.9 78.3999C140.8 78.6999 140.6 78.8999 140.3 78.9999L110 96.4999C109 97.0999 108.3 96.5999 108.3 95.4999V60.4999C108.3 59.3999 109.1 58.9999 110 59.4999L140.3 76.9999Z" fill="#68CDED"></path><path d="M82.5 79C82.5 58.3 99.3 41.5 120 41.5C140.7 41.5 157.5 58.3 157.5 79C157.5 99.7 140.7 116.5 120 116.5C99.3 116.5 82.5 99.7 82.5 79Z" stroke="#68CDED" stroke-width="5"></path><path d="M201.9 55.2C206.373 55.2 210 51.5735 210 47.1C210 42.6265 206.373 39 201.9 39C197.426 39 193.8 42.6265 193.8 47.1C193.8 51.5735 197.426 55.2 201.9 55.2Z" fill="#68CDED"></path><path opacity="0.4" d="M233.9 84C236.661 84 238.9 81.7614 238.9 79C238.9 76.2386 236.661 74 233.9 74C231.139 74 228.9 76.2386 228.9 79C228.9 81.7614 231.139 84 233.9 84Z" fill="#68CDED"></path><path opacity="0.6" d="M201.9 116.9C205.214 116.9 207.9 114.214 207.9 110.9C207.9 107.586 205.214 104.9 201.9 104.9C198.586 104.9 195.9 107.586 195.9 110.9C195.9 114.214 198.586 116.9 201.9 116.9Z" fill="#68CDED"></path><path opacity="0.8" d="M170.1 86C173.966 86 177.1 82.866 177.1 79C177.1 75.134 173.966 72 170.1 72C166.234 72 163.1 75.134 163.1 79C163.1 82.866 166.234 86 170.1 86Z" fill="#68CDED"></path><path opacity="0.9" d="M178.2 63.8C182.342 63.8 185.7 60.4422 185.7 56.3C185.7 52.1579 182.342 48.8 178.2 48.8C174.058 48.8 170.7 52.1579 170.7 56.3C170.7 60.4422 174.058 63.8 178.2 63.8Z" fill="#68CDED"></path><path opacity="0.3" d="M226.3 60.6001C228.785 60.6001 230.8 58.5854 230.8 56.1001C230.8 53.6148 228.785 51.6001 226.3 51.6001C223.815 51.6001 221.8 53.6148 221.8 56.1001C221.8 58.5854 223.815 60.6001 226.3 60.6001Z" fill="#68CDED"></path><path opacity="0.5" d="M225.8 108.3C228.838 108.3 231.3 105.837 231.3 102.8C231.3 99.7622 228.838 97.2998 225.8 97.2998C222.762 97.2998 220.3 99.7622 220.3 102.8C220.3 105.837 222.762 108.3 225.8 108.3Z" fill="#68CDED"></path><path opacity="0.7" d="M178.2 109.3C181.79 109.3 184.7 106.39 184.7 102.8C184.7 99.21 181.79 96.2998 178.2 96.2998C174.61 96.2998 171.7 99.21 171.7 102.8C171.7 106.39 174.61 109.3 178.2 109.3Z" fill="#68CDED"></path><path d="M178 9.39994C178 9.79994 177.6 10.0999 177.1 10.0999C177 10.0999 176.9 10.0999 176.9 9.99994L172 8.19994C171.5 7.99994 171.4 7.59994 171.9 7.39994L178.1 3.79994C178.6 3.49994 178.9 3.69994 178.8 4.29994L178 9.39994Z" fill="#68CDED"></path><path d="M169.4 15.9C168.4 15.9 167.4 15.7 166.5 15.2C164.5 14.2 163.3 12.2 163.3 10C163.4 6.60004 166.2 4.00004 169.6 4.00004C172.1 4.10004 174.4 5.70004 175.2 8.10004L175.3 8.00004L177.4 9.10004C176.8 4.70004 172.7 1.60004 168.3 2.20004C164.4 2.80004 161.4 6.10004 161.3 10.1C161.3 13 163 15.7 165.6 17.1C166.8 17.7 168.1 18 169.4 18.1C172 18.1 174.4 16.9 176 14.8L174.2 13.9C173 15.1 171.2 15.9 169.4 15.9Z" fill="#68CDED"></path><path d="M183.4 3.19995C184.2 3.19995 184.9 3.89995 184.9 4.69995C184.9 5.49995 184.2 6.19995 183.4 6.19995C182.6 6.19995 181.9 5.49995 181.9 4.69995C181.9 3.79995 182.6 3.19995 183.4 3.19995ZM188.5 3.19995H197C197.9 3.19995 198.5 3.89995 198.5 4.69995C198.5 5.49995 197.8 6.19995 197 6.19995H188.5C187.6 6.19995 187 5.49995 187 4.69995C186.9 3.79995 187.6 3.19995 188.5 3.19995ZM183.4 8.19995C184.2 8.19995 184.9 8.89995 184.9 9.69995C184.9 10.5 184.2 11.2 183.4 11.2C182.6 11.2 181.9 10.5 181.9 9.69995C181.9 8.79995 182.6 8.19995 183.4 8.19995ZM188.5 8.19995H197C197.9 8.19995 198.5 8.89995 198.5 9.69995C198.5 10.5 197.8 11.2 197 11.2H188.5C187.6 11.2 187 10.5 187 9.69995C186.9 8.79995 187.6 8.19995 188.5 8.19995ZM183.4 13.2C184.2 13.2 184.9 13.9 184.9 14.7C184.9 15.5 184.2 16.2 183.4 16.2C182.6 16.2 181.9 15.5 181.9 14.7C181.9 13.8 182.6 13.2 183.4 13.2ZM188.5 13.2H197C197.9 13.2 198.5 13.9 198.5 14.7C198.5 15.5 197.8 16.2 197 16.2H188.5C187.6 16.2 187 15.5 187 14.7C186.9 13.8 187.6 13.2 188.5 13.2Z" fill="#68CDED"></path></svg>